<?xml version="1.0" encoding="utf-8"?>
<!-- Generator: Adobe Illustrator 14.0.0, SVG Export Plug-In . SVG Version: 6.00 Build 43363)  -->
<!DOCTYPE svg PUBLIC "-//W3C//DTD SVG 1.1//EN" "http://www.w3.org/Graphics/SVG/1.1/DTD/svg11.dtd">
<svg version="1.1" id="Layer_1" xmlns="http://www.w3.org/2000/svg" xmlns:xlink="http://www.w3.org/1999/xlink" x="0px" y="0px"
	 width="30px" height="30px" viewBox="-7.5 -7.5 30 30" enable-background="new -7.5 -7.5 30 30" xml:space="preserve">
<g>
	<path fill="#0C5E91" d="M-7.5,7.5c0-8.283,6.715-15,15-15c8.283,0,15,6.717,15,15c0,8.285-6.717,15-15,15
		C-0.785,22.5-7.5,15.785-7.5,7.5"/>
	<g>
		<path fill-rule="evenodd" clip-rule="evenodd" fill="#FFFFFF" d="M4.387-0.539c0.016,0,0.029,0,0.045,0
			c0.02,0.058,0.059,0.092,0.135,0.09c-0.068,0.138-0.197-0.037-0.314,0C4.079-0.527,4.428-0.445,4.387-0.539z"/>
		<path fill-rule="evenodd" clip-rule="evenodd" fill="#FFFFFF" d="M11.979,0.318c-0.037,0.054-0.059,0.122-0.045,0.227
			c-0.109-0.104-0.055-0.161-0.045-0.317c0.047,0,0.055,0.038,0.09,0.047C11.979,0.29,11.979,0.305,11.979,0.318z"/>
		<path fill-rule="evenodd" clip-rule="evenodd" fill="#FFFFFF" d="M8.094,0.771c0.213,0.019,0.377-0.013,0.541-0.045
			C8.619,0.882,8.197,0.933,8.094,0.771z"/>
		<path fill-rule="evenodd" clip-rule="evenodd" fill="#FFFFFF" d="M7.28,0.952c0-0.016,0-0.031,0-0.046c0.15,0,0.301,0,0.451,0
			c0,0.015,0,0.03,0,0.046C7.581,0.952,7.43,0.952,7.28,0.952z"/>
		<path fill-rule="evenodd" clip-rule="evenodd" fill="#FFFFFF" d="M7.008,0.997c0-0.016,0-0.03,0-0.045c0.09,0,0.18,0,0.271,0
			c0.15,0,0.301,0,0.451,0C7.795,0.947,7.86,0.944,7.866,0.997C7.581,0.997,7.295,0.997,7.008,0.997z"/>
		<path fill-rule="evenodd" clip-rule="evenodd" fill="#FFFFFF" d="M4.567,1.676c0-0.046,0-0.092,0-0.137
			c0.105,0.109,0.156-0.035,0.227-0.09C4.893,1.522,4.688,1.671,4.567,1.676z"/>
		<path fill-rule="evenodd" clip-rule="evenodd" fill="#FFFFFF" d="M10.127,1.584c0.059-0.077,0.285,0.061,0.406-0.045
			c-0.088,0.085-0.014,0.166,0,0.271C10.398,1.734,10.32,1.602,10.127,1.584z"/>
		<path fill-rule="evenodd" clip-rule="evenodd" fill="#FFFFFF" d="M3.936,2.172C3.741,2.11,3.926,1.934,4.071,1.947
			C4.104,2.101,3.887,2.003,3.936,2.172z"/>
		<path fill-rule="evenodd" clip-rule="evenodd" fill="#FFFFFF" d="M0.366,2.578c0.014,0,0.029,0,0.043,0c0,0.15,0,0.301,0,0.452
			C0.307,2.969,0.393,2.717,0.366,2.578z"/>
		<path fill-rule="evenodd" clip-rule="evenodd" fill="#FFFFFF" d="M2.399,3.98c0.137,0.055-0.049,0.154,0,0.271
			C2.231,4.213,2.362,4.064,2.399,3.98z"/>
		<path fill-rule="evenodd" clip-rule="evenodd" fill="#FFFFFF" d="M12.477,3.98c0.18,0.051,0.184,0.181,0.135,0.36
			C12.566,4.22,12.486,4.137,12.477,3.98z"/>
		<path fill-rule="evenodd" clip-rule="evenodd" fill="#FFFFFF" d="M8.365,4.703C8.434,4.75,8.209,5.06,8.094,4.93
			C8.182,4.853,8.256,4.762,8.365,4.703z"/>
		<path fill-rule="evenodd" clip-rule="evenodd" fill="#FFFFFF" d="M0.456,5.154c-0.029,0.107-0.061,0.21-0.18,0.226
			C0.301,5.271,0.313,5.148,0.456,5.154z"/>
		<path fill-rule="evenodd" clip-rule="evenodd" fill="#FFFFFF" d="M9.313,5.741C9.32,5.607,9.416,5.445,9.539,5.561
			C9.441,5.6,9.438,5.731,9.313,5.741z"/>
		<path fill-rule="evenodd" clip-rule="evenodd" fill="#FFFFFF" d="M7.506,5.833c0.203-0.002,0.014,0.209,0,0.271
			C7.309,6.038,7.553,6.002,7.506,5.833z"/>
		<path fill-rule="evenodd" clip-rule="evenodd" fill="#FFFFFF" d="M1.993,5.969c0,0.255,0,0.512,0,0.767
			C1.917,6.584,1.917,6.12,1.993,5.969z"/>
		<path fill-rule="evenodd" clip-rule="evenodd" fill="#FFFFFF" d="M13.02,6.51c0.129-0.021-0.041-0.34,0.09-0.361
			c0,0.211,0,0.421,0,0.634c-0.051-0.012-0.031-0.091-0.09-0.091C13.02,6.632,13.02,6.569,13.02,6.51z"/>
		<path fill-rule="evenodd" clip-rule="evenodd" fill="#FFFFFF" d="M13.109,6.148c0.09,0.075,0.055,0.848,0,0.634
			C13.109,6.569,13.109,6.359,13.109,6.148z"/>
		<path fill-rule="evenodd" clip-rule="evenodd" fill="#FFFFFF" d="M7.145,6.51c0.178,0.049,0.043,0.312-0.092,0.316
			C7.047,6.687,7.196,6.697,7.145,6.51z"/>
		<path fill-rule="evenodd" clip-rule="evenodd" fill="#FFFFFF" d="M-0.539,6.555c0.141-0.021,0.145,0.097,0.135,0.228
			C-0.482,6.74-0.56,6.697-0.539,6.555z"/>
		<path fill-rule="evenodd" clip-rule="evenodd" fill="#FFFFFF" d="M6.241,7.188c-0.166,0-0.174-0.158-0.271-0.226
			C6.055,6.863,6.223,7.067,6.241,7.188z"/>
		<path fill-rule="evenodd" clip-rule="evenodd" fill="#FFFFFF" d="M2.083,7.821c-0.105-0.047-0.094-0.209-0.09-0.36
			c0.064,0.009,0.016,0.133,0.09,0.133C2.083,7.67,2.083,7.746,2.083,7.821z"/>
		<path fill-rule="evenodd" clip-rule="evenodd" fill="#FFFFFF" d="M0.637,8.86c0.182-0.104,0.029,0.429,0,0.541
			c-0.229-0.031,0.082-0.185,0-0.36C0.637,8.98,0.637,8.921,0.637,8.86z"/>
		<path fill-rule="evenodd" clip-rule="evenodd" fill="#FFFFFF" d="M14.283,8.814c0,0.076,0,0.151,0,0.227
			C14.303,9.549,14.152,8.913,14.283,8.814z"/>
		<path fill-rule="evenodd" clip-rule="evenodd" fill="#FFFFFF" d="M7.551,9.582c-0.143,0.081-0.82,0.069-0.814,0
			C7.008,9.582,7.28,9.582,7.551,9.582z"/>
		<path fill-rule="evenodd" clip-rule="evenodd" fill="#FFFFFF" d="M14.375,10.125c0.176,0.043,0.037,0.229,0.045,0.363
			c-0.053-0.068-0.131-0.111-0.137-0.228c0.039-0.008,0.043,0.019,0.047,0.047C14.391,10.291,14.367,10.192,14.375,10.125z"/>
		<path fill-rule="evenodd" clip-rule="evenodd" fill="#FFFFFF" d="M10.262,11.3c-0.104,0.152-0.336,0.175-0.543,0.226
			C9.855,11.406,10.057,11.351,10.262,11.3z"/>
		<path fill-rule="evenodd" clip-rule="evenodd" fill="#FFFFFF" d="M9.539,11.661c-0.004,0.118-0.152,0.09-0.271,0.092
			C9.273,11.636,9.42,11.663,9.539,11.661z"/>
		<path fill-rule="evenodd" clip-rule="evenodd" fill="#FFFFFF" d="M7.821,11.889c-0.121,0.072-0.555,0.072-0.676,0
			C7.37,11.889,7.594,11.889,7.821,11.889z"/>
		<path fill-rule="evenodd" clip-rule="evenodd" fill="#FFFFFF" d="M11.799,12.836c-0.115-0.048-0.088-0.241-0.09-0.405
			C11.873,12.523,11.736,12.641,11.799,12.836z"/>
		<path fill-rule="evenodd" clip-rule="evenodd" fill="#FFFFFF" d="M4.928,13.289c-0.105,0.002-0.131-0.078-0.271-0.046
			c-0.004-0.051,0.066-0.07,0-0.09c0.098-0.104,0.268,0.126,0.318,0c0.07,0.011,0.031,0.099,0,0.136
			C4.959,13.289,4.944,13.289,4.928,13.289z"/>
		<path fill-rule="evenodd" clip-rule="evenodd" fill="#FFFFFF" d="M11.346,13.514c-0.047,0.076-0.402,0.076-0.451,0
			C11.045,13.514,11.195,13.514,11.346,13.514z"/>
		<path fill-rule="evenodd" clip-rule="evenodd" fill="#FFFFFF" d="M6.42,13.741c0.168-0.016,0.189,0.112,0.227,0.225
			C6.575,13.887,6.438,13.872,6.42,13.741z"/>
		<path fill-rule="evenodd" clip-rule="evenodd" fill="#FFFFFF" d="M6.782,14.148c0.242-0.024,0.326-0.037,0.453,0.225
			C7.065,14.315,6.944,14.212,6.782,14.148z"/>
		<path fill-rule="evenodd" clip-rule="evenodd" fill="#FFFFFF" d="M4.071,14.284c0.014,0,0.029,0,0.047,0
			c-0.016,0.12,0.252-0.044,0.18,0.135c-0.045,0-0.092,0-0.137,0C3.846,14.327,3.651,14.387,4.071,14.284z"/>
		<path fill-rule="evenodd" clip-rule="evenodd" fill="#FFFFFF" d="M3.393,14.373c0.006-0.072,0.311-0.072,0.316,0
			C3.657,14.496,3.473,14.373,3.393,14.373z"/>
		<path fill-rule="evenodd" clip-rule="evenodd" fill="#FFFFFF" d="M12.928,17.13c0.109-0.129,0.326-0.08,0.498-0.046
			c0.02,0.126-0.246-0.034-0.227,0.092C13.146,17.123,13.039,17.125,12.928,17.13z"/>
		<path fill-rule="evenodd" clip-rule="evenodd" fill="#FFFFFF" d="M6.737-1.354c0.037-0.008,0.045-0.044,0.09-0.044
			C6.68-1.214,6.514-1.048,6.331-0.901C6.438-1.078,6.627-1.175,6.737-1.354z"/>
		<path fill-rule="evenodd" clip-rule="evenodd" fill="#FFFFFF" d="M6.104-0.72c0.193-0.229,0.404-0.441,0.633-0.634
			C6.627-1.175,6.438-1.078,6.331-0.901C6.292-0.909,6.288-0.883,6.284-0.855C6.299-0.752,6.155-0.807,6.151-0.72
			C6.133-0.72,6.12-0.72,6.104-0.72z"/>
		<path fill-rule="evenodd" clip-rule="evenodd" fill="#FFFFFF" d="M3.167-0.313c-0.17,0.019,0.23-0.466,0.588-0.362
			C3.668-0.595,3.465-0.633,3.393-0.539C3.299-0.482,3.223-0.408,3.167-0.313z"/>
		<path fill-rule="evenodd" clip-rule="evenodd" fill="#FFFFFF" d="M0.276,5.064c-0.148,0.289-0.41,0.463-0.633,0.677
			C-0.166,5.498,0.075,5.301,0.276,5.064z"/>
		<path fill-rule="evenodd" clip-rule="evenodd" fill="#FFFFFF" d="M0.276,7.73C0.061,7.555-0.136,7.357-0.312,7.142
			C-0.099,7.319,0.098,7.517,0.276,7.73z"/>
		<path fill-rule="evenodd" clip-rule="evenodd" fill="#FFFFFF" d="M3.032,12.971c0.082,0.07,0.105,0.195,0.182,0.272
			c0.082,0.143,0.205,0.248,0.406,0.271C3.34,13.597,3.073,13.276,3.032,12.971z"/>
		<path fill-rule="evenodd" clip-rule="evenodd" fill="#FFFFFF" d="M9.133,13.378c-0.291,0.145-0.742,0.761-0.949,0.906
			c-0.121,0.084-0.218,0.089-0.09-0.047c0.014,0,0.029,0,0.045,0c0.229-0.192,0.439-0.401,0.633-0.632
			C8.904,13.542,8.941,13.386,9.133,13.378z"/>
		<path fill-rule="evenodd" clip-rule="evenodd" fill="#FFFFFF" d="M11.889,12.927c0.053,0.145-0.125,0.446-0.316,0.497
			C11.689,13.271,11.809,13.119,11.889,12.927z"/>
		<path fill-rule="evenodd" clip-rule="evenodd" fill="#FFFFFF" d="M14.6,7.776c0.209-0.14,0.336-0.359,0.543-0.498
			c-0.162,0.199-0.342,0.38-0.543,0.543C14.6,7.807,14.6,7.79,14.6,7.776z"/>
		<path fill-rule="evenodd" clip-rule="evenodd" fill="#FFFFFF" d="M15.549,6.284c0.094,0.081,0.061,0.419-0.045,0.451
			C15.488,6.555,15.584,6.485,15.549,6.284z"/>
		<path fill-rule="evenodd" clip-rule="evenodd" fill="#FFFFFF" d="M15.232,5.697c-0.117-0.048-0.152-0.18-0.27-0.226
			c-0.035-0.043-0.084-0.069-0.137-0.092c-0.063-0.118-0.189-0.171-0.227-0.315C14.838,5.249,15.035,5.473,15.232,5.697z"/>
		<path fill-rule="evenodd" clip-rule="evenodd" fill="#FFFFFF" d="M8.5-0.946C8.406-1.108,8.23-1.19,8.139-1.354
			c0.213,0.178,0.41,0.374,0.586,0.587C8.619-0.797,8.604-0.915,8.5-0.946z"/>
		<path fill-rule="evenodd" clip-rule="evenodd" fill="#FFFFFF" d="M7.821-1.488c0.172,0.1,0.345,0.197,0.453,0.362
			c0.008,0.097-0.16,0.02-0.227,0.044c0.119-0.19-0.134-0.126-0.226-0.226c-0.002-0.063,0.021-0.1,0.045-0.136
			c-0.045,0-0.09,0-0.135,0C7.741-1.479,7.768-1.496,7.821-1.488z"/>
		<path fill-rule="evenodd" clip-rule="evenodd" fill="#FFFFFF" d="M7.235-1.578c0.104-0.103,0.424-0.038,0.541,0
			c0.01,0.035,0.045,0.044,0.045,0.09c-0.053-0.008-0.08,0.01-0.09,0.045c0.045,0,0.09,0,0.135,0
			C7.842-1.407,7.819-1.371,7.821-1.308c0.092,0.1,0.345,0.035,0.226,0.226c0.066-0.024,0.234,0.053,0.227-0.044
			c0.105,0.03,0.121,0.148,0.227,0.18c0.104,0.031,0.119,0.149,0.225,0.18C9-0.456,9.51-0.261,10.035-0.449
			c0.281,0.096,0.426,0.075,0.68-0.047c0.031-0.122-0.215,0.034-0.182-0.088c0.229,0.045,0.447-0.154,0.588-0.046
			c-0.186-0.033-0.156,0.146-0.361,0.091c0.119,0.151,0.467,0.073,0.633,0.181c-0.051-0.134-0.217-0.146-0.408-0.138
			c0.047-0.104,0.209-0.092,0.361-0.088c0.262,0.01,0.357,0.184,0.453,0.36c-0.037-0.008-0.045-0.045-0.09-0.045
			c0.049,0.216,0.053,0.301,0.09,0.452c0.1-0.007,0.02-0.192,0.045-0.271c0.105,0.059,0.088,0.244,0.135,0.362
			c-0.035-0.009-0.043-0.047-0.09-0.047c-0.01,0.156-0.064,0.214,0.045,0.317c-0.014-0.104,0.008-0.173,0.045-0.227
			c0.137,0.256,0.16,0.624,0.316,0.859c-0.066-0.04-0.143-0.068-0.135-0.181c-0.049,0.013-0.031,0.089-0.09,0.089
			c0.068,0.117,0.127,0.209,0.045,0.363c0.039-0.165,0.191,0.032,0.18-0.136c0.119,0.047,0.152,0.179,0.271,0.226
			c0.369,0.173,0.777,0.308,1.221,0.408c0.156,0.099,0.324,0.186,0.496,0.271c-0.029,0.035-0.07,0.123,0,0.134
			c0.02,0.197,0.209,0.22,0.092,0c0.115,0.005,0.064,0.178,0.18,0.182c0,0.075,0,0.15,0,0.226c-0.098,0.009-0.02-0.16-0.045-0.226
			c-0.1,0.65-0.262,0.972-0.227,1.718C14.25,4.66,14.398,4.888,14.6,5.064c0.037,0.145,0.164,0.197,0.227,0.315
			c0.063,0.134,0.209,0.183,0.271,0.317c-0.158,0.241,0.002,0.132,0.045,0.406c0.09,0,0.057-0.123,0.18-0.091
			c-0.029-0.063-0.275-0.139-0.135-0.225c0.041,0.079,0.102,0.139,0.182,0.181c0.045,0.059,0.041,0.167,0.135,0.18
			c0,0.03,0,0.061,0,0.091c-0.035,0.206-0.15,0.332-0.182,0.543c0.109,0.017-0.023-0.207,0.137-0.137
			c0.008,0.112-0.07,0.141-0.09,0.226c0,0.016,0,0.031,0,0.046c-0.18,0.107-0.27,0.304-0.406,0.451
			c-0.094,0.164-0.27,0.244-0.363,0.408c0,0.014,0,0.03,0,0.045c-0.211,0.163-0.346,0.405-0.316,0.813c0,0.061,0,0.121,0,0.181
			c-0.131,0.099,0.02,0.734,0,0.227c0.086,0.11,0.082,0.309,0.137,0.452c-0.051-0.013-0.031-0.09-0.09-0.092
			c-0.164,0.194-0.016,0.422-0.047,0.724c0.16-0.15-0.09-0.454,0.047-0.588c0.041,0.027,0.068,0.128,0.09,0.045
			c0.035,0.01,0.045,0.047,0.09,0.047c-0.018,0.109,0.082,0.098,0.045,0.225c0.018,0.215-0.014,0.379-0.045,0.542
			c0,0.017,0,0.032,0,0.047c-0.115,0.171-0.313,0.26-0.453,0.404c-0.178-0.013-0.227,0.107-0.404,0.092
			c0.094-0.165-0.4,0.073-0.633-0.092c0.086,0.064,0.195,0.107,0.316,0.137c-0.02,0.103-0.248-0.005-0.227,0.136
			c-0.82,0.131-0.963,0.938-1.176,1.674c-0.086,0.079-0.264,0.457-0.406,0.631c-0.066,0.023-0.113,0.067-0.182,0.09
			c-0.15,0-0.301,0-0.451,0c-0.564-0.045-1.252-0.457-1.762-0.136c-0.191,0.008-0.229,0.164-0.361,0.228
			c-0.23,0.191-0.441,0.404-0.633,0.632c-0.016,0-0.031,0-0.045,0c-0.016,0-0.031,0-0.047,0c0.018-0.06,0.08-0.07,0.092-0.134
			c-0.152,0.104-0.425,0.088-0.408,0.358c-0.934,0.181-1.23-0.665-1.762-1.038c0.139,0.013,0.174,0.127,0.271,0.182
			c0.094-0.014-0.066-0.121,0.043-0.182c-0.098,0.145-0.229-0.186-0.359,0c-0.244-0.174-0.572-0.198-0.949-0.135
			c0.031-0.037,0.07-0.125,0-0.136c-0.051,0.126-0.221-0.104-0.318,0c0.066,0.02-0.004,0.039,0,0.09
			c0.141-0.032,0.166,0.048,0.271,0.046c-0.148,0.078-0.332,0.119-0.541,0.135c-0.09-0.089-0.258-0.027-0.361,0
			c0.014,0.063,0.113,0.037,0.18,0.045C4.1,13.573,3.801,13.486,3.62,13.514c-0.125-0.102-0.279-0.172-0.406-0.271
			c-0.076-0.077-0.1-0.202-0.182-0.272c-0.008-0.142-0.104-0.198-0.092-0.359c0.107-0.152-0.129-0.352-0.135-0.543
			c0.064-0.057,0.086-0.155,0.092-0.272c0.072-0.011,0.076,0.045,0.135,0.047c-0.023-0.036-0.047-0.073-0.045-0.136
			C2.815,11.7,2.893,11.944,2.76,11.979c-0.016,0-0.029,0-0.045,0c0.021-0.143-0.064-0.177-0.09-0.271
			c-0.115-0.202-0.244-0.389-0.498-0.453c-0.07-0.063-0.211-0.06-0.271-0.135c0.078,0.017,0.086-0.034,0.092-0.09
			c-0.066-0.068-0.178-0.094-0.316-0.091c0.055,0.066,0.18,0.061,0.18,0.181c-0.127-0.008-0.188-0.084-0.316-0.09
			c-0.107-0.118-0.34-0.113-0.496-0.183c-0.047-0.223-0.455-0.34-0.316-0.133c-0.037-0.008-0.045-0.046-0.092-0.046
			c-0.039-0.097-0.137-0.133-0.135-0.272c0.09-0.189-0.072-0.529,0.045-0.767C0.434,9.626,0.434,9.896,0.409,9.673
			C0.434,9.547,0.477,9.439,0.5,9.313C0.62,9.297,0.542,9.082,0.637,9.041c0.082,0.176-0.229,0.329,0,0.36
			c0.029-0.112,0.182-0.646,0-0.541C0.631,8.779,0.692,8.766,0.682,8.679c0.104,0.015,0.049-0.13,0.135-0.135
			C0.659,8.332,0.833,8.072,0.59,7.957C0.502,7.99,0.713,8.102,0.637,8.272C0.542,8.065,0.417,7.891,0.276,7.73
			C0.098,7.517-0.099,7.319-0.312,7.142c-0.309-0.315-0.443-0.985-0.045-1.309c0.092-0.013,0.088-0.122,0.18-0.136
			C-0.191,5.788-0.3,5.786-0.312,5.877c0.113-0.098,0.311-0.275,0.451-0.089C0.12,5.701,0.01,5.706,0.049,5.561
			c-0.146-0.038-0.094,0.117-0.182,0.137c0.219-0.355,0.559-0.588,0.77-0.95C0.67,4.871,0.545,4.838,0.545,4.93
			c0.004,0.086,0.168-0.07,0.227,0.045C0.62,4.861,0.833,4.445,0.59,4.657c0-0.029,0-0.061,0-0.091
			C0.737,4.487,0.688,4.124,0.637,3.98C0.797,4.052,0.67,3.492,0.59,3.664C0.555,3.654,0.545,3.617,0.5,3.617
			c0.021-0.143-0.08-0.158-0.045-0.315c0.127-0.205-0.064-0.477,0-0.769C0.678,2.439,0.694,2.14,1.043,2.172
			C1.032,2.124,0.954,2.141,0.952,2.08c0.041-0.033,0.104-0.049,0.182-0.045C1.174,2.265,1.266,1.905,1.36,2.08
			C1.272,1.951,1.668,2.051,1.54,1.9c0.045-0.001,0.035-0.055,0.047-0.09c0.24-0.016,0.379-0.133,0.586-0.181
			c-0.014,0.091-0.09,0.12-0.137,0.181C2.403,1.713,2.565,1.673,2.67,1.269c-0.021-0.065-0.041,0.005-0.09,0
			c0.125-0.177,0.154-0.449,0.27-0.633c0.021,0.039,0.041,0.08,0.09,0.09C3.047,0.54,2.991,0.419,3.032,0.228
			c-0.02-0.064-0.041,0.006-0.092,0C2.928,0.156,2.985,0.151,2.987,0.093c0.1-0.124,0.176-0.275,0.227-0.451
			c0.039,0.027,0.08,0.054,0.09,0c0.184-0.194,0.605-0.148,0.902-0.226C4.278-0.58,4.379-0.606,4.387-0.539
			c0.041,0.094-0.309,0.012-0.135,0.09c0.117-0.037,0.246,0.138,0.314,0c-0.076,0.002-0.115-0.032-0.135-0.09
			C4.926-0.398,5.864-0.255,6.104-0.72c0.016,0,0.029,0,0.047,0c0.004-0.087,0.148-0.032,0.133-0.136
			c0.133,0.012,0.158-0.086,0.229-0.137c0.01,0.051,0.09,0.03,0.09,0.091C6.542-0.977,6.78-1.101,6.692-1.173
			c0.055-0.126,0.193-0.168,0.271-0.271C7.04-1.336,7.344-1.604,7.641-1.488C7.563-1.576,7.407-1.586,7.235-1.578z M12.521,1.584
			c-0.018,0.171,0.408,0.297,0.316,0.136C12.752,1.832,12.664,1.564,12.521,1.584z M14.916,7.324c-0.18,0.002-0.332,0.268-0.27,0.36
			C14.674,7.502,14.838,7.455,14.916,7.324z M14.555,7.594c-0.158-0.033-0.195,0.283-0.135,0.317
			c-0.031-0.122,0.094-0.087,0.135-0.135C14.559,7.652,14.479,7.685,14.555,7.594z M14.33,10.308
			c-0.004-0.028-0.008-0.055-0.047-0.047c0.006,0.116,0.084,0.159,0.137,0.228c-0.008-0.134,0.131-0.32-0.045-0.363
			C14.367,10.192,14.391,10.291,14.33,10.308z M11.662,13.199c0.016-0.182-0.236-0.097-0.316-0.182
			c-0.008,0.136,0.162,0.158,0.227,0.09C11.578,13.162,11.586,13.215,11.662,13.199z M9.404,13.107
			c0.232,0.129,0.627,0.097,0.857,0.228C10.152,13.082,9.547,13.084,9.404,13.107z M8.455,13.424c0.045,0.044,0.09,0.09,0.135,0.137
			c-0.059,0.105-0.141,0.189-0.225,0.271c-0.154,0.071-0.195-0.19-0.271-0.046c0.064,0.038,0.143,0.068,0.135,0.181
			c-0.045,0-0.057,0.079,0,0.091c0.145-0.246,0.404-0.38,0.588-0.588C8.697,13.502,8.531,13.452,8.455,13.424z M7.235,14.373
			c-0.127-0.262-0.211-0.249-0.453-0.225C6.944,14.212,7.065,14.315,7.235,14.373z M6.647,13.966
			c-0.037-0.112-0.059-0.24-0.227-0.225C6.438,13.872,6.575,13.887,6.647,13.966z M5.924,13.289
			c-0.143,0.014,0.113-0.131-0.045-0.136c-0.027,0.147-0.389-0.095-0.271,0.046C5.756,13.158,5.833,13.419,5.924,13.289z
			 M2.444,11.3c0.09,0.139,0.18,0.274,0.271,0.407c-0.002-0.063,0.021-0.1,0.045-0.136c-0.148-0.002-0.111-0.19-0.227-0.225
			c0.041-0.014,0.197-0.122,0.092-0.138C2.618,11.294,2.471,11.237,2.444,11.3z M-0.404,6.782c0.01-0.131,0.006-0.248-0.135-0.228
			C-0.56,6.697-0.482,6.74-0.404,6.782z M0.276,5.38c0.119-0.016,0.15-0.118,0.18-0.226C0.313,5.148,0.301,5.271,0.276,5.38z
			 M3.981-0.404c-0.732-0.039-0.262,0.138,0.137,0c0,0.061,0.123,0.057,0.135,0C4.11-0.381,4.075-0.503,3.981-0.404z M7.731,0.906
			c0.117-0.199,0.283,0.163,0.363,0c-0.257-0.219-0.896-0.096-1.041,0c0.074,0,0.15,0,0.227,0c0,0.015,0,0.03,0,0.046
			c-0.092,0-0.182,0-0.271,0C6.838,0.94,6.37,0.797,6.284,0.997c0.121,0,0.242,0,0.363,0C6.442,1.092,6.122,1.074,5.924,1.178
			C5.706,1.122,5.366,1.303,5.2,1.449C4.825,1.571,4.559,1.803,4.252,1.991C4.002,2.043,3.899,2.24,3.754,2.398
			C3.622,2.521,3.452,2.606,3.393,2.805c-0.145-0.04-0.063,0.148-0.18,0.137c0.01-0.087-0.053-0.101-0.047-0.183
			C3.329,2.74,3.415,2.646,3.483,2.533C3.315,2.526,3.249,2.773,3.122,2.67c0.094,0.259-0.326,0.574-0.09,0.542
			C2.727,3.72,2.401,4.208,2.217,4.838c-0.014,0-0.029,0-0.045,0c-0.023,0.081-0.023,0.188-0.09,0.227
			C2.075,5.01,2.09,4.935,2.036,4.93c-0.018,0.153-0.1,0.405,0,0.542c0,0.104,0,0.209,0,0.316C1.971,5.796,1.997,5.896,1.993,5.969
			c-0.076,0.151-0.076,0.615,0,0.767C2.02,6.845,1.936,7.064,2.036,7.098C2.006,7.279,2.081,7.355,2.083,7.504
			c0,0.031,0,0.06,0,0.09c-0.074,0-0.025-0.124-0.09-0.133c-0.004,0.151-0.016,0.313,0.09,0.36c0.053,0.008,0.049,0.07,0.045,0.136
			c-0.084,0.058-0.004,0.332,0.09,0.361c0-0.031,0-0.062,0-0.091c0.045,0,0.055,0.037,0.09,0.045
			c0.09,0.332,0.215,0.629,0.408,0.858C2.713,9.269,2.811,9.306,2.85,9.401c-0.014,0-0.029,0-0.045,0
			c-0.068,0.01-0.195,0.283-0.09,0.181C2.741,9.476,2.852,9.633,2.76,9.673c0.281,0-0.045-0.156,0.09-0.226
			c0.08,0.041,0.076,0.167,0.182,0.182C3.01,9.77,3.153,9.748,3.167,9.854c0.252,0.411,0.535,0.716,0.904,0.905
			c0.531,0.403,1.135,0.732,1.854,0.948c0.213,0.147,0.539,0.185,0.902,0.182c0.105,0,0.211,0,0.318,0
			c0.121,0.072,0.555,0.072,0.676,0c0.092,0,0.181,0,0.273,0c0.236,0.024,0.387-0.034,0.586-0.046c0,0.073-0.125,0.024-0.135,0.089
			c0.244-0.04,0.527-0.043,0.633-0.225c-0.031,0-0.061,0-0.09,0c0.285-0.136,0.57-0.272,0.902-0.36
			c0.07-0.067,0.211-0.063,0.271-0.138c0.164,0.014,0.404-0.133,0.316-0.226c-0.018,0.057-0.059,0.095-0.135,0.093
			c0.01-0.051,0.049-0.071,0.09-0.093c0.141-0.052,0.195-0.193,0.361-0.225c0.16,0.103,0.158-0.096,0.361,0
			c-0.135-0.215,0.105-0.231,0.137-0.407c-0.016,0-0.031,0-0.047,0c0.004-0.027,0.008-0.054,0.047-0.044
			c0.064-0.013,0.074-0.075,0.135-0.092c0.086,0.219,0.006,0.01-0.09,0.092c0.256,0.301,0.162-0.504,0.541-0.272
			c-0.148-0.231,0.166-0.331,0.045-0.498c0.01,0.114-0.068,0.143-0.135,0.183c0.064-0.177,0.189-0.294,0.271-0.453
			c0.07,0.013,0.031,0.1,0,0.135c0.16,0.071,0.027-0.152,0.135-0.135c0.025,0.065,0.072,0.11,0.137,0.135
			c-0.152-0.173,0.061-0.347-0.047-0.541c0.16-0.337,0.293-0.703,0.408-1.084c0.117-0.158,0.361-0.269,0.18-0.315
			c0.008-0.087,0.031-0.152,0.092-0.183c-0.004,0.063,0.01,0.174,0.045,0.09c-0.025-0.079-0.023-0.186-0.09-0.227
			c-0.078,0.029-0.076,0.138-0.137,0.183c0-0.091,0-0.183,0-0.271c0.035-0.01,0.053-0.037,0.045-0.09c0.016,0,0.031,0,0.045,0
			c0.102-0.006,0.02-0.192,0.047-0.271c0.059,0,0.039,0.079,0.09,0.091c0.055,0.214,0.09-0.559,0-0.634
			c-0.131,0.021,0.039,0.341-0.09,0.361c-0.029-0.278,0.164-0.843-0.092-0.813c-0.025-0.201-0.035-0.417-0.135-0.543
			c-0.125-0.477-0.285-0.92-0.498-1.311c0.014-0.138-0.145-0.176-0.045-0.271c0.113-0.06,0.143,0.18,0.182,0.045
			c-0.053-0.169-0.137-0.289-0.271-0.18c0.035,0.01,0.053,0.037,0.045,0.09c-0.092-0.013-0.088-0.122-0.182-0.135
			c-0.166-0.196-0.27-0.453-0.496-0.588c0-0.046-0.037-0.054-0.045-0.091c0.063-0.002,0.1,0.022,0.135,0.045
			c0.006-0.111,0.084-0.139,0-0.226c-0.098-0.008-0.143,0.038-0.135,0.137c-0.109-0.072-0.201-0.163-0.271-0.271
			c0.092,0.039,0.203-0.117,0.09-0.136c0,0.045-0.078,0.056-0.09,0c0.027-0.004,0.055-0.008,0.045-0.045
			c-0.168,0.005-0.113,0.065-0.09,0.181c-0.045,0-0.055-0.038-0.092-0.047C10.477,1.73,9.643,1.344,8.68,1.086
			C8.604,0.938,8.299,1.015,8.094,0.997c-0.076,0-0.152,0-0.228,0c-0.006-0.053-0.07-0.05-0.135-0.045
			C7.731,0.937,7.731,0.921,7.731,0.906z M4.793,1.449c-0.07,0.055-0.121,0.199-0.227,0.09c0,0.045,0,0.091,0,0.137
			C4.688,1.671,4.893,1.522,4.793,1.449z M4.071,1.947C3.926,1.934,3.741,2.11,3.936,2.172C3.887,2.003,4.104,2.101,4.071,1.947z
			 M3.573,2.263c-0.023,0.065-0.066,0.112-0.09,0.181c0.156-0.07,0.299-0.154,0.408-0.271C3.713,2.129,3.776,2.328,3.573,2.263z
			 M2.85,3.346C2.737,3.52,2.391,3.699,2.489,3.936C2.592,3.72,2.745,3.558,2.85,3.346z M2.399,4.251
			c-0.049-0.116,0.137-0.216,0-0.271C2.362,4.064,2.231,4.213,2.399,4.251z M4.252,10.983c-0.006,0.071-0.117,0.036-0.092,0.136
			c0.236,0.051,0.131-0.019,0.453,0.135C4.563,11.093,4.368,11.079,4.252,10.983z M5.969,11.889c0.6,0.117,0.018-0.146-0.137-0.093
			C5.911,11.794,5.95,11.83,5.969,11.889z M9.268,11.753c0.119-0.002,0.268,0.026,0.271-0.092
			C9.42,11.663,9.273,11.636,9.268,11.753z M9.719,11.525c0.207-0.051,0.439-0.073,0.543-0.226
			C10.057,11.351,9.855,11.406,9.719,11.525z M10.533,11.209c0.18-0.022,0.305-0.291,0.361-0.362
			c-0.043,0.057,0.242,0.021-0.045-0.043C10.777,10.975,10.617,11.052,10.533,11.209z M12.611,4.341
			c0.049-0.18,0.045-0.31-0.135-0.36C12.486,4.137,12.566,4.22,12.611,4.341z M11.979,2.941c-0.006,0.051-0.07,0.047-0.135,0.044
			c0.033,0.118,0.205,0.333,0.227,0.316C11.988,3.193,11.99,3.001,11.979,2.941z M10.715,1.9c-0.014,0.12,0.063,0.148,0.18,0.135
			c-0.01-0.079,0.168-0.266,0.045-0.181C10.898,1.905,10.855,1.869,10.715,1.9z M10.533,1.811c-0.014-0.105-0.088-0.187,0-0.271
			c-0.121,0.105-0.348-0.032-0.406,0.045C10.32,1.602,10.398,1.734,10.533,1.811z M8.635,0.726C8.471,0.758,8.307,0.789,8.094,0.771
			C8.197,0.933,8.619,0.882,8.635,0.726z M1.721,10.847c-0.131,0.092-0.453-0.055-0.406,0.047
			C1.446,10.948,1.766,10.926,1.721,10.847z M11.709,12.431c0.002,0.164-0.025,0.357,0.09,0.405
			C11.736,12.641,11.873,12.523,11.709,12.431z M14.465,9.81c-0.049,0.612,0.176-0.023-0.045-0.137
			C14.418,9.735,14.441,9.773,14.465,9.81z"/>
		<path fill-rule="evenodd" clip-rule="evenodd" fill="#FFFFFF" d="M10.533-0.584c-0.033,0.122,0.213-0.034,0.182,0.088
			c-0.254,0.122-0.398,0.143-0.68,0.047C10.166-0.528,10.383-0.525,10.533-0.584z"/>
		<path fill-rule="evenodd" clip-rule="evenodd" fill="#FFFFFF" d="M11.346-0.584c-0.152-0.004-0.314-0.016-0.361,0.088
			c0.191-0.009,0.357,0.004,0.408,0.138c-0.166-0.107-0.514-0.029-0.633-0.181c0.205,0.055,0.176-0.124,0.361-0.091
			C11.188-0.604,11.354-0.684,11.346-0.584z"/>
		<path fill-rule="evenodd" clip-rule="evenodd" fill="#FFFFFF" d="M12.295,1.178c0.045,0.166,0.199,0.225,0.271,0.361
			c-0.119-0.047-0.152-0.179-0.271-0.226c0.012,0.168-0.141-0.029-0.18,0.136c0.082-0.154,0.023-0.246-0.045-0.363
			c0.059,0,0.041-0.076,0.09-0.089C12.152,1.109,12.229,1.138,12.295,1.178z"/>
		<path fill-rule="evenodd" clip-rule="evenodd" fill="#FFFFFF" d="M12.838,1.72c0.092,0.161-0.334,0.035-0.316-0.136
			C12.664,1.564,12.752,1.832,12.838,1.72z"/>
		<path fill-rule="evenodd" clip-rule="evenodd" fill="#FFFFFF" d="M13.787,1.947c0.369,0.081,0.643,0.259,0.768,0.586
			c-0.115-0.004-0.064-0.177-0.18-0.182c-0.002-0.068-0.125-0.147-0.092,0c-0.07-0.011-0.029-0.099,0-0.134
			C14.111,2.133,13.943,2.046,13.787,1.947z"/>
		<path fill-rule="evenodd" clip-rule="evenodd" fill="#FFFFFF" d="M14.283,4.251c-0.035-0.746,0.127-1.067,0.227-1.718
			c0.025,0.065-0.053,0.234,0.045,0.226C14.57,3.361,14.355,3.734,14.283,4.251z"/>
		<path fill-rule="evenodd" clip-rule="evenodd" fill="#FFFFFF" d="M14.826,5.38c0.053,0.022,0.102,0.049,0.137,0.092
			c0.131,0.169,0.291,0.311,0.406,0.497c-0.08-0.042-0.141-0.102-0.182-0.181c-0.02-0.041-0.039-0.082-0.09-0.091
			C15.035,5.563,14.889,5.514,14.826,5.38z"/>
		<path fill-rule="evenodd" clip-rule="evenodd" fill="#FFFFFF" d="M15.188,5.788c-0.141,0.086,0.105,0.161,0.135,0.225
			c-0.123-0.032-0.09,0.091-0.18,0.091c-0.043-0.274-0.203-0.165-0.045-0.406C15.148,5.706,15.168,5.747,15.188,5.788z"/>
		<path fill-rule="evenodd" clip-rule="evenodd" fill="#FFFFFF" d="M15.369,6.871c0.02-0.085,0.098-0.113,0.09-0.226
			c-0.16-0.07-0.027,0.153-0.137,0.137c0.031-0.211,0.146-0.337,0.182-0.543c0.039-0.008,0.043,0.017,0.045,0.045
			c0.035,0.201-0.061,0.271-0.045,0.451c-0.008,0.037-0.045,0.047-0.045,0.091C15.414,6.826,15.406,6.863,15.369,6.871z"/>
		<path fill-rule="evenodd" clip-rule="evenodd" fill="#FFFFFF" d="M14.963,7.368c0.137-0.147,0.227-0.344,0.406-0.451
			C15.242,7.077,15.141,7.262,14.963,7.368z"/>
		<path fill-rule="evenodd" clip-rule="evenodd" fill="#FFFFFF" d="M14.646,7.685c-0.063-0.093,0.09-0.358,0.27-0.36
			C14.838,7.455,14.674,7.502,14.646,7.685z"/>
		<path fill-rule="evenodd" clip-rule="evenodd" fill="#FFFFFF" d="M14.555,7.776c-0.041,0.048-0.166,0.013-0.135,0.135
			c-0.061-0.034-0.023-0.351,0.135-0.317C14.479,7.685,14.559,7.652,14.555,7.776z"/>
		<path fill-rule="evenodd" clip-rule="evenodd" fill="#FFFFFF" d="M14.283,8.634c0.076,0.332,0.158,0.657,0.227,0.995
			c-0.045,0-0.055-0.037-0.09-0.047c0-0.03,0-0.06,0-0.089c-0.055-0.144-0.051-0.342-0.137-0.452c0-0.075,0-0.15,0-0.227
			C14.283,8.755,14.283,8.694,14.283,8.634z"/>
		<path fill-rule="evenodd" clip-rule="evenodd" fill="#FFFFFF" d="M14.42,9.582c-0.021,0.083-0.049-0.018-0.09-0.045
			c-0.137,0.134,0.113,0.438-0.047,0.588c0.031-0.302-0.117-0.529,0.047-0.724c0.059,0.002,0.039,0.079,0.09,0.092
			C14.42,9.522,14.42,9.552,14.42,9.582z"/>
		<path fill-rule="evenodd" clip-rule="evenodd" fill="#FFFFFF" d="M13.336,10.983c-0.121-0.029-0.23-0.072-0.316-0.137
			c0.232,0.165,0.727-0.073,0.633,0.092c0.008,0.04-0.018,0.042-0.047,0.045C13.516,10.983,13.426,10.983,13.336,10.983z"/>
		<path fill-rule="evenodd" clip-rule="evenodd" fill="#FFFFFF" d="M11.527,13.424c0.143-0.174,0.32-0.552,0.406-0.631
			c-0.023,0.036-0.047,0.072-0.045,0.134c-0.08,0.192-0.199,0.344-0.316,0.497C11.557,13.424,11.543,13.424,11.527,13.424z"/>
		<path fill-rule="evenodd" clip-rule="evenodd" fill="#FFFFFF" d="M11.572,13.107c-0.064,0.068-0.234,0.046-0.227-0.09
			c0.08,0.085,0.332,0,0.316,0.182C11.586,13.215,11.578,13.162,11.572,13.107z"/>
		<path fill-rule="evenodd" clip-rule="evenodd" fill="#FFFFFF" d="M10.262,13.335c-0.23-0.131-0.625-0.099-0.857-0.228
			C9.547,13.084,10.152,13.082,10.262,13.335z"/>
		<path fill-rule="evenodd" clip-rule="evenodd" fill="#FFFFFF" d="M8.816,13.469c-0.184,0.208-0.443,0.342-0.588,0.588
			c-0.057-0.012-0.045-0.091,0-0.091c0.008-0.112-0.07-0.143-0.135-0.181c0.076-0.145,0.117,0.117,0.271,0.046
			c0.084-0.081,0.166-0.165,0.225-0.271c-0.045-0.047-0.09-0.093-0.135-0.137C8.531,13.452,8.697,13.502,8.816,13.469z"/>
		<path fill-rule="evenodd" clip-rule="evenodd" fill="#FFFFFF" d="M5.924,13.424c0.131-0.186,0.262,0.145,0.359,0
			c-0.109,0.061,0.051,0.168-0.043,0.182c-0.098-0.055-0.133-0.169-0.271-0.182C5.954,13.424,5.938,13.424,5.924,13.424z"/>
		<path fill-rule="evenodd" clip-rule="evenodd" fill="#FFFFFF" d="M5.608,13.199c-0.117-0.141,0.244,0.102,0.271-0.046
			c0.158,0.005-0.098,0.149,0.045,0.136C5.833,13.419,5.756,13.158,5.608,13.199z"/>
		<path fill-rule="evenodd" clip-rule="evenodd" fill="#FFFFFF" d="M3.62,13.514c-0.201-0.022-0.324-0.128-0.406-0.271
			C3.34,13.342,3.495,13.412,3.62,13.514z"/>
		<path fill-rule="evenodd" clip-rule="evenodd" fill="#FFFFFF" d="M2.76,11.979c0.01,0.036,0.045,0.047,0.045,0.09
			c0.006,0.191,0.242,0.391,0.135,0.543c-0.119-0.166-0.148-0.421-0.225-0.633C2.731,11.979,2.745,11.979,2.76,11.979z"/>
		<path fill-rule="evenodd" clip-rule="evenodd" fill="#FFFFFF" d="M2.76,11.979c0.133-0.034,0.055-0.278,0.227-0.271
			c-0.002,0.063,0.021,0.1,0.045,0.136c-0.059-0.002-0.063-0.058-0.135-0.047c-0.006,0.117-0.027,0.216-0.092,0.272
			C2.805,12.025,2.77,12.015,2.76,11.979z"/>
		<path fill-rule="evenodd" clip-rule="evenodd" fill="#FFFFFF" d="M2.625,11.209c0.105,0.016-0.051,0.124-0.092,0.138
			c0.115,0.034,0.078,0.223,0.227,0.225c-0.023,0.036-0.047,0.073-0.045,0.136c-0.092-0.133-0.182-0.269-0.271-0.407
			C2.471,11.237,2.618,11.294,2.625,11.209z"/>
		<path fill-rule="evenodd" clip-rule="evenodd" fill="#FFFFFF" d="M0.999,10.847c0.156,0.069,0.389,0.064,0.496,0.183
			C1.288,11.011,1.094,10.979,0.999,10.847z"/>
		<path fill-rule="evenodd" clip-rule="evenodd" fill="#FFFFFF" d="M0.409,9.673C0.434,9.896,0.434,9.626,0.5,9.629
			c-0.117,0.237,0.045,0.577-0.045,0.767c-0.115-0.095-0.088-0.332-0.09-0.542C0.37,9.783,0.344,9.683,0.409,9.673z"/>
		<path fill-rule="evenodd" clip-rule="evenodd" fill="#FFFFFF" d="M-0.132,5.697c0.088-0.02,0.035-0.175,0.182-0.137
			C0.01,5.706,0.12,5.701,0.139,5.788c-0.141-0.187-0.338-0.009-0.451,0.089c0.012-0.091,0.121-0.089,0.135-0.18
			C-0.162,5.697-0.148,5.697-0.132,5.697z"/>
		<path fill-rule="evenodd" clip-rule="evenodd" fill="#FFFFFF" d="M0.5,4.838c0.016-0.059,0.08-0.071,0.09-0.135
			C0.62,4.705,0.645,4.709,0.637,4.747c-0.211,0.362-0.551,0.595-0.77,0.95c-0.016,0-0.029,0-0.045,0
			c-0.092,0.014-0.088,0.123-0.18,0.136c0-0.016,0-0.031,0-0.045C-0.042,5.501,0.286,5.226,0.5,4.838z"/>
		<path fill-rule="evenodd" clip-rule="evenodd" fill="#FFFFFF" d="M0.59,4.566C0.682,4.257,0.543,3.93,0.5,3.617
			c0.045,0,0.055,0.037,0.09,0.047C0.555,3.819,0.659,3.838,0.637,3.98C0.688,4.124,0.737,4.487,0.59,4.566z"/>
		<path fill-rule="evenodd" clip-rule="evenodd" fill="#FFFFFF" d="M0.952,2.08c0.002,0.061,0.08,0.044,0.092,0.092
			C0.694,2.14,0.678,2.439,0.456,2.533c-0.064,0.292,0.127,0.563,0,0.769C0.403,3.294,0.417,3.219,0.409,3.166
			c0-0.045,0-0.092,0-0.136c0-0.151,0-0.302,0-0.452c0.018-0.209,0.143-0.31,0.273-0.406C0.815,2.184,0.819,2.069,0.952,2.08z"/>
		<path fill-rule="evenodd" clip-rule="evenodd" fill="#FFFFFF" d="M1.133,2.035C1.211,1.933,1.387,1.929,1.54,1.9
			c0.129,0.15-0.268,0.051-0.18,0.18C1.266,1.905,1.174,2.265,1.133,2.035z"/>
		<path fill-rule="evenodd" clip-rule="evenodd" fill="#FFFFFF" d="M2.94,0.228c0.051,0.006,0.072-0.064,0.092,0
			C2.991,0.419,3.047,0.54,2.94,0.726c-0.049-0.01-0.068-0.051-0.09-0.09C2.844,0.463,2.854,0.307,2.94,0.228z"/>
		<path fill-rule="evenodd" clip-rule="evenodd" fill="#FFFFFF" d="M3.167-0.313c0.057-0.095,0.133-0.169,0.227-0.226
			c0,0.089-0.123,0.058-0.09,0.181c-0.01,0.054-0.051,0.027-0.09,0C3.163-0.183,3.086-0.031,2.987,0.093
			C2.985-0.104,3.131-0.155,3.167-0.313z"/>
		<path fill-rule="evenodd" clip-rule="evenodd" fill="#FFFFFF" d="M3.393-0.539c0.072-0.094,0.275-0.056,0.361-0.137
			c0.068,0.114,0.389-0.026,0.451,0.092C3.909-0.507,3.487-0.553,3.303-0.358C3.27-0.481,3.393-0.45,3.393-0.539z"/>
		<path fill-rule="evenodd" clip-rule="evenodd" fill="#FFFFFF" d="M4.252-0.404c-0.012,0.057-0.135,0.061-0.135,0
			c-0.398,0.138-0.869-0.039-0.137,0C4.075-0.503,4.11-0.381,4.252-0.404z"/>
		<path fill-rule="evenodd" clip-rule="evenodd" fill="#FFFFFF" d="M6.692-1.173c0.088,0.072-0.15,0.196-0.09,0.271
			c0-0.061-0.08-0.04-0.09-0.091C6.59-1.032,6.586-1.158,6.692-1.173z"/>
		<path fill-rule="evenodd" clip-rule="evenodd" fill="#FFFFFF" d="M6.331-0.901c0.184-0.146,0.35-0.313,0.496-0.496
			c0.061-0.017,0.072-0.08,0.137-0.091c0,0.016,0,0.029,0,0.045C6.885-1.341,6.747-1.299,6.692-1.173
			C6.586-1.158,6.59-1.032,6.512-0.992c-0.07,0.051-0.096,0.148-0.229,0.137C6.288-0.883,6.292-0.909,6.331-0.901z"/>
		<path fill-rule="evenodd" clip-rule="evenodd" fill="#FFFFFF" d="M7.235-1.578c0.172-0.008,0.328,0.002,0.406,0.09
			C7.344-1.604,7.04-1.336,6.963-1.443c0-0.016,0-0.029,0-0.045C7.057-1.515,7.092-1.601,7.235-1.578z"/>
		<path fill-rule="evenodd" clip-rule="evenodd" fill="#FFFFFF" d="M7.821-1.488c0-0.046-0.035-0.055-0.045-0.09
			c0.17,0.026,0.234,0.157,0.363,0.225C8.23-1.19,8.406-1.108,8.5-0.946c-0.105-0.031-0.121-0.149-0.227-0.18
			C8.166-1.291,7.993-1.389,7.821-1.488z"/>
		<path fill-rule="evenodd" clip-rule="evenodd" fill="#FFFFFF" d="M7.28,0.906c-0.076,0-0.152,0-0.227,0
			c0.145-0.096,0.783-0.219,1.041,0c-0.08,0.163-0.246-0.199-0.363,0C7.581,0.906,7.43,0.906,7.28,0.906z"/>
		<path fill-rule="evenodd" clip-rule="evenodd" fill="#FFFFFF" d="M5.2,1.449c0.166-0.146,0.506-0.327,0.725-0.271
			C5.704,1.287,5.452,1.368,5.2,1.449z"/>
		<path fill-rule="evenodd" clip-rule="evenodd" fill="#FFFFFF" d="M3.891,2.172C3.782,2.289,3.639,2.373,3.483,2.443
			c0.023-0.068,0.066-0.115,0.09-0.181C3.776,2.328,3.713,2.129,3.891,2.172z"/>
		<path fill-rule="evenodd" clip-rule="evenodd" fill="#FFFFFF" d="M2.489,3.936C2.391,3.699,2.737,3.52,2.85,3.346
			C2.745,3.558,2.592,3.72,2.489,3.936z"/>
		<path fill-rule="evenodd" clip-rule="evenodd" fill="#FFFFFF" d="M2.083,5.064c0.066-0.039,0.066-0.146,0.09-0.227
			c0.016,0,0.031,0,0.045,0C2.18,5.025,2.157,5.229,2.083,5.38C2.083,5.275,2.083,5.169,2.083,5.064z"/>
		<path fill-rule="evenodd" clip-rule="evenodd" fill="#FFFFFF" d="M2.083,7.504c0.092,0.239,0.145,0.52,0.225,0.769
			c-0.035-0.008-0.045-0.045-0.09-0.045c-0.041-0.079-0.016-0.225-0.09-0.271c0.004-0.065,0.008-0.128-0.045-0.136
			c0-0.075,0-0.151,0-0.228C2.083,7.563,2.083,7.535,2.083,7.504z"/>
		<path fill-rule="evenodd" clip-rule="evenodd" fill="#FFFFFF" d="M2.85,9.447C2.715,9.517,3.042,9.673,2.76,9.673
			c0.092-0.04-0.02-0.197-0.045-0.091C2.61,9.685,2.737,9.411,2.805,9.401c0.016,0,0.031,0,0.045,0
			C2.85,9.417,2.85,9.432,2.85,9.447z"/>
		<path fill-rule="evenodd" clip-rule="evenodd" fill="#FFFFFF" d="M4.071,10.759c-0.369-0.189-0.652-0.494-0.904-0.905
			c0.301,0.289,0.557,0.619,0.904,0.86C4.071,10.729,4.071,10.743,4.071,10.759z"/>
		<path fill-rule="evenodd" clip-rule="evenodd" fill="#FFFFFF" d="M4.614,11.254c-0.322-0.153-0.217-0.084-0.453-0.135
			c-0.025-0.1,0.086-0.064,0.092-0.136C4.368,11.079,4.563,11.093,4.614,11.254z"/>
		<path fill-rule="evenodd" clip-rule="evenodd" fill="#FFFFFF" d="M5.833,11.796c0.154-0.054,0.736,0.21,0.137,0.093
			C5.95,11.83,5.911,11.794,5.833,11.796z"/>
		<path fill-rule="evenodd" clip-rule="evenodd" fill="#FFFFFF" d="M8.094,11.889c0.215-0.072,0.475-0.099,0.723-0.136
			c-0.033,0.041-0.082,0.067-0.137,0.09C8.48,11.854,8.33,11.913,8.094,11.889z"/>
		<path fill-rule="evenodd" clip-rule="evenodd" fill="#FFFFFF" d="M10.443,11.076c0.076,0.002,0.117-0.036,0.135-0.093
			c0.088,0.093-0.152,0.239-0.316,0.226c0.006-0.083,0.15-0.03,0.137-0.133C10.412,11.076,10.428,11.076,10.443,11.076z"/>
		<path fill-rule="evenodd" clip-rule="evenodd" fill="#FFFFFF" d="M10.85,10.804c0.287,0.063,0.002,0.1,0.045,0.043
			c-0.057,0.071-0.182,0.34-0.361,0.362C10.617,11.052,10.777,10.975,10.85,10.804z"/>
		<path fill-rule="evenodd" clip-rule="evenodd" fill="#FFFFFF" d="M11.617,10.08c0.096-0.1,0.297-0.096,0.271-0.315
			c0-0.016,0-0.03,0-0.045c0.066-0.04,0.145-0.068,0.135-0.183c0.121,0.167-0.193,0.267-0.045,0.498
			c-0.379-0.231-0.285,0.573-0.541,0.272c0.096-0.082,0.176,0.127,0.09-0.092C11.514,10.127,11.588,10.126,11.617,10.08z"/>
		<path fill-rule="evenodd" clip-rule="evenodd" fill="#FFFFFF" d="M12.883,7.324c0.061-0.045,0.059-0.153,0.137-0.183
			c0.066,0.041,0.064,0.147,0.09,0.227c-0.035,0.084-0.049-0.027-0.045-0.09c-0.061,0.03-0.084,0.096-0.092,0.183
			c0.182,0.047-0.063,0.157-0.18,0.315C12.803,7.604,12.832,7.453,12.883,7.324z"/>
		<path fill-rule="evenodd" clip-rule="evenodd" fill="#FFFFFF" d="M12.793,5.154c0.1,0.126,0.109,0.342,0.135,0.543
			c0.096,0.343,0.023,0.85,0.045,1.266c-0.014,0-0.029,0-0.045,0c-0.029-0.363,0.061-0.844-0.045-1.13
			C12.879,5.581,12.787,5.416,12.793,5.154z"/>
		<path fill-rule="evenodd" clip-rule="evenodd" fill="#FFFFFF" d="M12.25,3.572c-0.1,0.096,0.059,0.134,0.045,0.271
			c-0.125-0.115-0.213-0.268-0.271-0.451c0.094,0.013,0.09,0.122,0.182,0.135C12.244,3.52,12.248,3.545,12.25,3.572z"/>
		<path fill-rule="evenodd" clip-rule="evenodd" fill="#FFFFFF" d="M12.205,3.527c0.008-0.053-0.01-0.08-0.045-0.09
			c0.135-0.109,0.219,0.011,0.271,0.18c-0.039,0.135-0.068-0.104-0.182-0.045C12.248,3.545,12.244,3.52,12.205,3.527z"/>
		<path fill-rule="evenodd" clip-rule="evenodd" fill="#FFFFFF" d="M12.07,3.302c-0.021,0.017-0.193-0.198-0.227-0.316
			c0.064,0.003,0.129,0.007,0.135-0.044C11.99,3.001,11.988,3.193,12.07,3.302z"/>
		<path fill-rule="evenodd" clip-rule="evenodd" fill="#FFFFFF" d="M11.482,2.67c-0.008-0.099,0.037-0.145,0.135-0.137
			c0.084,0.087,0.006,0.114,0,0.226c-0.035-0.022-0.072-0.047-0.135-0.045C11.482,2.698,11.482,2.684,11.482,2.67z"/>
		<path fill-rule="evenodd" clip-rule="evenodd" fill="#FFFFFF" d="M10.939,1.854c0.123-0.085-0.055,0.102-0.045,0.181
			c-0.117,0.014-0.193-0.015-0.18-0.135C10.855,1.869,10.898,1.905,10.939,1.854z"/>
		<path fill-rule="evenodd" clip-rule="evenodd" fill="#FFFFFF" d="M11.074,2.352c0.037,0.009,0.047,0.047,0.092,0.047
			c0.016,0,0.029,0,0.045,0c0.07,0.108,0.162,0.199,0.271,0.271c0,0.014,0,0.028,0,0.044c0.008,0.037,0.045,0.045,0.045,0.091
			c-0.178-0.108-0.275-0.299-0.453-0.406C11.074,2.383,11.074,2.368,11.074,2.352z"/>
		<path fill-rule="evenodd" clip-rule="evenodd" fill="#FFFFFF" d="M11.074,10.533c0.227-0.199,0.465-0.62,0.68-0.68
			c-0.121,0.151-0.268,0.275-0.361,0.454c-0.039-0.01-0.043,0.017-0.047,0.044c-0.082,0.054-0.152,0.119-0.225,0.182
			C11.105,10.533,11.09,10.533,11.074,10.533z"/>
		<path fill-rule="evenodd" clip-rule="evenodd" fill="#FFFFFF" d="M2.715,9.131C2.862,9.255,2.95,9.439,3.032,9.629
			C2.926,9.614,2.93,9.488,2.85,9.447c0-0.016,0-0.03,0-0.046C2.811,9.306,2.713,9.269,2.715,9.131z"/>
		<path fill-rule="evenodd" clip-rule="evenodd" fill="#FFFFFF" d="M3.213,2.941c0.117,0.012,0.035-0.177,0.18-0.137
			C3.268,2.936,3.178,3.101,3.032,3.212C3.086,3.116,3.157,3.035,3.213,2.941z"/>
		<path fill-rule="evenodd" clip-rule="evenodd" fill="#FFFFFF" d="M3.846,2.352C3.704,2.513,3.575,2.688,3.393,2.805
			c0.059-0.198,0.229-0.284,0.361-0.406C3.799,2.398,3.809,2.36,3.846,2.352z"/>
		<path fill-rule="evenodd" clip-rule="evenodd" fill="#FFFFFF" d="M2.172,1.63c0.158-0.099,0.309-0.203,0.408-0.361
			c0.049,0.005,0.068-0.065,0.09,0C2.565,1.673,2.403,1.713,2.036,1.811C2.083,1.75,2.159,1.721,2.172,1.63z"/>
		<path fill-rule="evenodd" clip-rule="evenodd" fill="#FFFFFF" d="M0.682,2.172c0.207-0.214,0.564-0.279,0.904-0.361
			C1.575,1.846,1.584,1.899,1.54,1.9C1.387,1.929,1.211,1.933,1.133,2.035C1.055,2.031,0.993,2.047,0.952,2.08
			C0.819,2.069,0.815,2.184,0.682,2.172z"/>
		<path fill-rule="evenodd" clip-rule="evenodd" fill="#FFFFFF" d="M3.754,2.398C3.899,2.24,4.002,2.043,4.252,1.991
			c-0.109,0.146-0.275,0.236-0.406,0.36C3.809,2.36,3.799,2.398,3.754,2.398z"/>
		<path fill-rule="evenodd" clip-rule="evenodd" fill="#FFFFFF" d="M3.213,2.941C3.157,3.035,3.086,3.116,3.032,3.212
			C2.795,3.244,3.215,2.929,3.122,2.67c0.127,0.104,0.193-0.144,0.361-0.137C3.415,2.646,3.329,2.74,3.167,2.759
			C3.161,2.841,3.223,2.854,3.213,2.941z"/>
		<path fill-rule="evenodd" clip-rule="evenodd" fill="#FFFFFF" d="M7.008,6.691c0.145-0.338,0.277-0.688,0.498-0.95
			C7.334,6.053,7.204,6.404,7.008,6.691z"/>
		<path fill-rule="evenodd" clip-rule="evenodd" fill="#FFFFFF" d="M6.465,7.188c0.08,0.041,0.141,0.101,0.182,0.18
			c0.072,0.014,0.078-0.042,0.135-0.044c0.01,0.086-0.051,0.099-0.045,0.18C6.672,7.493,6.661,7.431,6.602,7.413
			c-0.066-0.1-0.201-0.131-0.227-0.271C6.413,7.152,6.42,7.188,6.465,7.188z"/>
		<path fill-rule="evenodd" clip-rule="evenodd" fill="#FFFFFF" d="M5.698,6.51C6.01,6.681,6.252,6.918,6.465,7.188
			c-0.045,0-0.053-0.036-0.09-0.047c-0.016,0-0.029,0-0.045,0c-0.006-0.055-0.014-0.105-0.09-0.089
			C6.108,6.822,5.848,6.722,5.698,6.51z"/>
		<path fill-rule="evenodd" clip-rule="evenodd" fill="#FFFFFF" d="M4.161,7.053C4.534,7.357,4.827,7.742,5.2,8.047
			c0,0.045,0.037,0.055,0.047,0.09C4.866,7.794,4.504,7.435,4.161,7.053z"/>
		<path fill-rule="evenodd" clip-rule="evenodd" fill="#FFFFFF" d="M9.223,6.284C9.291,6.096,9.35,5.899,9.494,5.788
			C9.447,5.997,9.352,6.157,9.223,6.284z"/>
		<path fill-rule="evenodd" clip-rule="evenodd" fill="#FFFFFF" d="M8.816,3.889c0.221-0.705,1.57-0.785,2.168-0.361
			c-0.045,0-0.09,0-0.135,0c-0.008-0.084-0.152-0.027-0.182-0.09c-0.014,0-0.029,0-0.045,0c-0.215-0.132-0.809-0.124-1.084-0.045
			C9.475,3.389,9.412,3.385,9.404,3.438c-0.162,0.02-0.248,0.113-0.316,0.227c0,0.015,0,0.029,0,0.044c-0.016,0-0.031,0-0.047,0
			C8.938,3.74,8.92,3.859,8.816,3.889z"/>
		<path fill-rule="evenodd" clip-rule="evenodd" fill="#FFFFFF" d="M9.539,3.393c0.424,0.045,0.723,0.137,1.084,0.045
			c0.016,0,0.031,0,0.045,0c-0.002,0.161-0.188,0.143-0.361,0.135c0.1,0.126,0.322-0.006,0.453,0
			c-0.131,0.153,0.018,0.132-0.045,0.271c-0.051-0.012-0.031-0.089-0.092-0.091c-0.012,0.074,0.043,0.079,0.045,0.136
			c0.15-0.017,0.197-0.134,0.271-0.225c-0.08-0.007-0.096,0.055-0.18,0.044c0.02-0.055,0.057-0.093,0.135-0.091
			c-0.025-0.041-0.125-0.067-0.045-0.09c0.045,0,0.09,0,0.135,0c0.162,0.219-0.18,0.254-0.18,0.453
			c-0.336,0.311-0.578,0.717-0.859,1.084C9.867,5.122,9.768,5.156,9.766,5.29C9.688,5.307,9.68,5.254,9.674,5.2
			C9.67,5.349,9.596,5.569,9.494,5.741c0,0.017,0,0.03,0,0.047C9.35,5.899,9.291,6.096,9.223,6.284
			c-0.045,0.002-0.035,0.055-0.045,0.09C9.141,6.383,9.133,6.42,9.088,6.42c0.051-0.053,0.051-0.16,0.045-0.271
			C8.961,6.294,8.938,6.587,8.816,6.782c0.049-0.012,0.031-0.091,0.09-0.091c-0.018,0.117-0.023,0.248-0.09,0.316
			C8.777,6.89,8.617,7.094,8.545,6.963c0.15,0.106-0.025,0.264,0.09,0.405c-0.029,0.243-0.189,0.353-0.18,0.634
			C8.359,8.344,8.213,8.633,8.184,9.041c-0.143-0.006-0.02,0.252-0.226,0.181c0.148,0.09,0.01,0.071,0,0.226
			c-0.061,0.047-0.166,0.045-0.227,0.09c-0.045,0-0.09,0-0.137,0c0.01-0.036,0.047-0.044,0.047-0.09c-0.33,0.093-0.635,0-0.994,0
			c-0.066,0.021,0.004,0.04,0,0.09C6.411,9.505,6.198,9.445,6.151,9.222c0.006-0.053-0.012-0.08-0.047-0.091
			c0.008-0.053,0.082-0.037,0.137-0.045C6.19,8.97,6.125,8.869,6.014,8.814C5.895,8.869,6.227,8.97,6.059,9.086
			C5.78,8.777,5.573,8.396,5.247,8.137C5.237,8.102,5.2,8.092,5.2,8.047c0-0.015,0-0.03,0-0.045c0.17-0.034,0.098,0.173,0.227,0.181
			c0.049-0.012,0.031-0.091,0.092-0.091C5.461,8.146,5.159,7.793,5.155,7.957C5.118,7.964,5.112,7.938,5.11,7.911
			C5.063,7.792,4.93,7.76,4.885,7.641c0.158-0.009,0.088,0.211,0.27,0.181c-0.02-0.163-0.143-0.218-0.316-0.228
			C4.522,7.309,4.237,6.992,3.891,6.735C3.85,6.593,3.961,6.597,3.981,6.51c0.434-0.188,1.211-0.26,1.627,0
			C5.549,6.448,5.411,6.466,5.292,6.466C5.397,6.524,5.547,6.54,5.653,6.6c0.26,0.087,0.381,0.313,0.588,0.453
			c0.076-0.017,0.084,0.034,0.09,0.089C6.266,7.265,6.446,7.348,6.42,7.504C6.563,7.453,6.54,7.484,6.647,7.55
			c0.012-0.072-0.043-0.079-0.045-0.137c0.059,0.018,0.07,0.08,0.135,0.091C6.731,7.423,6.792,7.41,6.782,7.324
			c0-0.016,0-0.031,0-0.046c0.063,0.013,0.039,0.113,0.045,0.183c0.07-0.079,0.217-0.402,0.137-0.59
			c-0.006-0.08,0.055-0.096,0.045-0.18c0.195-0.287,0.326-0.639,0.498-0.95c0.256-0.39,0.48-0.814,0.767-1.175
			c0.092-0.025,0.088-0.135,0.182-0.044c-0.035-0.2,0.121-0.21,0.135-0.361c0.047-0.12,0.18-0.152,0.227-0.272
			C8.92,3.859,8.938,3.74,9.041,3.708C8.959,3.775,8.975,3.941,8.816,3.936c0.096,0.148,0.131-0.137,0.271-0.092
			C9.074,3.916,9.129,3.922,9.133,3.98c0.109-0.042-0.104-0.135-0.045-0.272c0-0.015,0-0.029,0-0.044
			C9.291,3.67,9.26,3.444,9.494,3.482c-0.002-0.043-0.055-0.035-0.09-0.045C9.412,3.385,9.475,3.389,9.539,3.393z M10.443,4.161
			c-0.047,0-0.055-0.038-0.092-0.047c0.014,0.18-0.055,0.277-0.135,0.362c-0.064-0.012-0.076-0.073-0.135-0.091
			c0.061,0.237-0.109,0.128-0.137,0.181c0.051,0.01,0.07,0.051,0.09,0.091C10,4.668,9.947,4.658,9.945,4.703
			c0.291-0.101,0.422-0.362,0.588-0.589c-0.027-0.001-0.053-0.006-0.045-0.044c-0.035,0.011-0.09,0.001-0.09,0.044
			C10.424,4.117,10.451,4.122,10.443,4.161z M9.539,5.561C9.416,5.445,9.32,5.607,9.313,5.741C9.438,5.731,9.441,5.6,9.539,5.561z
			 M9.223,5.697c0,0.075-0.146,0.329,0.045,0.315C9.207,5.861,9.293,5.773,9.223,5.697z M8.273,8.092
			c0.049,0.235-0.24,0.354-0.09,0.633C8.213,8.541,8.404,8.285,8.273,8.092z M5.833,8.499C5.784,8.652,5.819,8.372,5.698,8.455
			C5.737,8.61,5.838,8.704,5.924,8.814c-0.02-0.078,0.066-0.115,0-0.136C5.805,8.825,5.875,8.475,5.833,8.499z M5.653,6.646
			c0.01,0.08-0.168,0.268-0.045,0.181c0.047-0.097,0.18,0.076,0.225-0.091C5.745,6.735,5.776,6.613,5.653,6.646z M5.969,6.963
			C6.067,7.03,6.075,7.188,6.241,7.188C6.223,7.067,6.055,6.863,5.969,6.963z M7.053,6.826c0.135-0.005,0.27-0.268,0.092-0.316
			C7.196,6.697,7.047,6.687,7.053,6.826z M7.506,6.104c0.014-0.062,0.203-0.272,0-0.271C7.553,6.002,7.309,6.038,7.506,6.104z
			 M8.047,4.93C8.07,5.104,7.788,5.207,7.913,5.335C7.948,5.171,8.141,5.549,8.047,5.38C7.909,5.219,8.199,5.078,8.047,4.93z
			 M8.094,4.93c0.115,0.13,0.34-0.18,0.271-0.227C8.256,4.762,8.182,4.853,8.094,4.93z"/>
		<path fill-rule="evenodd" clip-rule="evenodd" fill="#FFFFFF" d="M10.668,3.438c0.029,0.063,0.174,0.006,0.182,0.09
			c-0.08,0.022,0.02,0.049,0.045,0.09c-0.078-0.002-0.115,0.036-0.135,0.091c0.084,0.011,0.1-0.051,0.18-0.044
			c-0.074,0.091-0.121,0.208-0.271,0.225c-0.002-0.057-0.057-0.062-0.045-0.136c0.061,0.002,0.041,0.079,0.092,0.091
			c0.063-0.14-0.086-0.118,0.045-0.271c-0.131-0.006-0.354,0.126-0.453,0C10.48,3.58,10.666,3.599,10.668,3.438z"/>
		<path fill-rule="evenodd" clip-rule="evenodd" fill="#FFFFFF" d="M10.398,4.114c0-0.043,0.055-0.033,0.09-0.044
			c-0.008,0.038,0.018,0.043,0.045,0.044c-0.166,0.227-0.297,0.488-0.588,0.589C9.947,4.658,10,4.668,10.035,4.657
			c-0.02-0.04-0.039-0.081-0.09-0.091c0.027-0.053,0.197,0.057,0.137-0.181c0.059,0.018,0.07,0.079,0.135,0.091
			c0.08-0.085,0.148-0.183,0.135-0.362c0.037,0.009,0.045,0.047,0.092,0.047C10.451,4.122,10.424,4.117,10.398,4.114z"/>
		<path fill-rule="evenodd" clip-rule="evenodd" fill="#FFFFFF" d="M9.494,5.741C9.596,5.569,9.67,5.349,9.674,5.2
			C9.68,5.254,9.688,5.307,9.766,5.29c0.002-0.134,0.102-0.168,0.18-0.226C9.801,5.297,9.672,5.544,9.494,5.741z"/>
		<path fill-rule="evenodd" clip-rule="evenodd" fill="#FFFFFF" d="M9.268,6.013c-0.191,0.014-0.045-0.24-0.045-0.315
			C9.293,5.773,9.207,5.861,9.268,6.013z"/>
		<path fill-rule="evenodd" clip-rule="evenodd" fill="#FFFFFF" d="M8.906,6.691c-0.059,0-0.041,0.079-0.09,0.091
			c0.121-0.195,0.145-0.488,0.316-0.634C9.139,6.26,9.139,6.367,9.088,6.42C9.021,6.504,9.02,6.655,8.906,6.691z"/>
		<path fill-rule="evenodd" clip-rule="evenodd" fill="#FFFFFF" d="M8.635,7.368C8.721,7.363,8.666,7.22,8.771,7.233
			C8.674,7.499,8.582,7.768,8.455,8.002C8.445,7.721,8.605,7.611,8.635,7.368z"/>
		<path fill-rule="evenodd" clip-rule="evenodd" fill="#FFFFFF" d="M8.184,8.725c-0.15-0.279,0.139-0.397,0.09-0.633
			C8.404,8.285,8.213,8.541,8.184,8.725z"/>
		<path fill-rule="evenodd" clip-rule="evenodd" fill="#FFFFFF" d="M7.958,9.447c0.01-0.154,0.148-0.136,0-0.226
			c0.207,0.071,0.083-0.187,0.226-0.181C8.143,9.197,8.131,9.379,8.002,9.447C7.987,9.447,7.971,9.447,7.958,9.447z"/>
		<path fill-rule="evenodd" clip-rule="evenodd" fill="#FFFFFF" d="M6.647,9.537c0.004-0.05-0.066-0.069,0-0.09
			c0.359,0,0.664,0.093,0.994,0c0,0.046-0.037,0.054-0.047,0.09c-0.285,0-0.572,0-0.857,0C6.708,9.537,6.676,9.537,6.647,9.537z"/>
		<path fill-rule="evenodd" clip-rule="evenodd" fill="#FFFFFF" d="M5.924,8.679c0.066,0.021-0.02,0.058,0,0.136
			C5.838,8.704,5.737,8.61,5.698,8.455c0.121-0.083,0.086,0.197,0.135,0.044C5.875,8.475,5.805,8.825,5.924,8.679z"/>
		<path fill-rule="evenodd" clip-rule="evenodd" fill="#FFFFFF" d="M5.155,7.957c0.004-0.164,0.307,0.188,0.363,0.135
			c-0.061,0-0.043,0.079-0.092,0.091C5.297,8.175,5.37,7.968,5.2,8.002C5.172,7.999,5.147,7.995,5.155,7.957z"/>
		<path fill-rule="evenodd" clip-rule="evenodd" fill="#FFFFFF" d="M4.885,7.641C4.846,7.648,4.84,7.622,4.838,7.594
			c0.174,0.01,0.297,0.064,0.316,0.228C4.973,7.852,5.043,7.632,4.885,7.641z"/>
		<path fill-rule="evenodd" clip-rule="evenodd" fill="#FFFFFF" d="M5.11,7.911C4.696,7.526,4.293,7.132,3.891,6.735
			c0.346,0.257,0.631,0.573,0.947,0.858C4.84,7.622,4.846,7.648,4.885,7.641C4.93,7.76,5.063,7.792,5.11,7.911z"/>
		<path fill-rule="evenodd" clip-rule="evenodd" fill="#FFFFFF" d="M5.653,6.6c0-0.03,0-0.06,0-0.09c0.016,0,0.029,0,0.045,0
			c0.15,0.212,0.41,0.313,0.543,0.543C6.034,6.913,5.913,6.687,5.653,6.6z"/>
		<path fill-rule="evenodd" clip-rule="evenodd" fill="#FFFFFF" d="M5.833,6.735C5.788,6.902,5.655,6.729,5.608,6.826
			C5.485,6.913,5.663,6.726,5.653,6.646C5.776,6.613,5.745,6.735,5.833,6.735z"/>
		<path fill-rule="evenodd" clip-rule="evenodd" fill="#FFFFFF" d="M8.047,5.38c0.094,0.169-0.099-0.209-0.134-0.045
			C7.788,5.207,8.07,5.104,8.047,4.93C8.199,5.078,7.909,5.219,8.047,5.38z"/>
		<path fill-rule="evenodd" clip-rule="evenodd" fill="#FFFFFF" d="M8.59,4.161C8.576,4.313,8.42,4.322,8.455,4.522
			c-0.094-0.091-0.09,0.019-0.182,0.044C8.342,4.395,8.461,4.271,8.59,4.161z"/>
		<path fill-rule="evenodd" clip-rule="evenodd" fill="#FFFFFF" d="M9.088,3.708C9.029,3.846,9.242,3.938,9.133,3.98
			C9.129,3.922,9.074,3.916,9.088,3.844c-0.141-0.045-0.176,0.24-0.271,0.092c0.158,0.006,0.143-0.16,0.225-0.228
			C9.057,3.708,9.072,3.708,9.088,3.708z"/>
		<path fill-rule="evenodd" clip-rule="evenodd" fill="#FFFFFF" d="M9.088,3.664c0.068-0.113,0.154-0.207,0.316-0.227
			c0.035,0.01,0.088,0.002,0.09,0.045C9.26,3.444,9.291,3.67,9.088,3.664z"/>
		<path fill-rule="evenodd" clip-rule="evenodd" fill="#FFFFFF" d="M10.984,3.527c0.037,0.009,0.045,0.045,0.09,0.045
			c0.004,0.23-0.199,0.253-0.27,0.408C10.805,3.781,11.146,3.746,10.984,3.527z"/>
		<path fill-rule="evenodd" clip-rule="evenodd" fill="#FFFFFF" d="M0.276,5.064C0.405,5.044,0.381,4.869,0.5,4.838
			c-0.215,0.388-0.543,0.663-0.857,0.95c0-0.017,0-0.03,0-0.047C-0.134,5.527,0.127,5.354,0.276,5.064z"/>
		<path fill-rule="evenodd" clip-rule="evenodd" fill="#FFFFFF" d="M15.369,5.969c-0.115-0.187-0.275-0.328-0.406-0.497
			c0.117,0.046,0.152,0.178,0.27,0.226c0.072,0.17,0.215,0.268,0.271,0.451C15.41,6.136,15.414,6.027,15.369,5.969z"/>
		<path fill-rule="evenodd" clip-rule="evenodd" fill="#FFFFFF" d="M12.928,5.697c0.256-0.03,0.063,0.534,0.092,0.813
			c0,0.06,0,0.122,0,0.182c-0.027,0.079,0.055,0.266-0.047,0.271C12.951,6.547,13.023,6.04,12.928,5.697z"/>
		<path fill-rule="evenodd" clip-rule="evenodd" fill="#FFFFFF" d="M8.906,6.691C9.02,6.655,9.021,6.504,9.088,6.42
			c0.045,0,0.053-0.037,0.09-0.046C9.043,6.602,8.957,6.877,8.816,7.098c0-0.03,0-0.061,0-0.09C8.883,6.939,8.889,6.809,8.906,6.691
			z"/>
		<path fill-rule="evenodd" clip-rule="evenodd" fill="#FFFFFF" d="M4.161,7.053C4.008,6.961,3.667,6.661,3.981,6.51
			c-0.02,0.087-0.131,0.083-0.09,0.226C4.293,7.132,4.696,7.526,5.11,7.911c0.002,0.027,0.008,0.053,0.045,0.046
			C5.147,7.995,5.172,7.999,5.2,8.002c0,0.015,0,0.03,0,0.045C4.827,7.742,4.534,7.357,4.161,7.053z"/>
		<path fill-rule="evenodd" clip-rule="evenodd" fill="#FFFFFF" d="M15.369,6.871c0.037-0.008,0.045-0.045,0.09-0.045
			c-0.078,0.178-0.217,0.296-0.316,0.452c-0.207,0.139-0.334,0.358-0.543,0.498c0.094-0.164,0.27-0.244,0.363-0.408
			c0.178-0.106,0.279-0.291,0.406-0.451C15.369,6.902,15.369,6.887,15.369,6.871z"/>
		<path fill-rule="evenodd" clip-rule="evenodd" fill="#FFFFFF" d="M6.782,7.278c0.041-0.155,0.111-0.282,0.182-0.407
			c0.08,0.188-0.066,0.511-0.137,0.59C6.821,7.392,6.844,7.291,6.782,7.278z"/>
		<path fill-rule="evenodd" clip-rule="evenodd" fill="#FFFFFF" d="M8.816,7.008c0,0.029,0,0.06,0,0.09
			C8.793,7.134,8.768,7.171,8.771,7.233C8.666,7.22,8.721,7.363,8.635,7.368C8.52,7.227,8.695,7.069,8.545,6.963
			C8.617,7.094,8.777,6.89,8.816,7.008z"/>
		<path fill-rule="evenodd" clip-rule="evenodd" fill="#FFFFFF" d="M0.682,8.679c0.01,0.087-0.051,0.101-0.045,0.182
			c0,0.061,0,0.12,0,0.181C0.542,9.082,0.62,9.297,0.5,9.313C0.536,8.97,0.647,8.706,0.637,8.318
			C0.739,8.352,0.653,8.571,0.682,8.679z"/>
		<path fill-rule="evenodd" clip-rule="evenodd" fill="#FFFFFF" d="M12.16,9.267c0.057-0.152,0.16-0.262,0.225-0.406
			c0.107,0.194-0.105,0.368,0.047,0.541c-0.064-0.024-0.111-0.069-0.137-0.135c-0.107-0.018,0.025,0.206-0.135,0.135
			C12.191,9.366,12.23,9.279,12.16,9.267z"/>
		<path fill-rule="evenodd" clip-rule="evenodd" fill="#FFFFFF" d="M6.059,9.086C6.227,8.97,5.895,8.869,6.014,8.814
			C6.125,8.869,6.19,8.97,6.241,9.086C6.186,9.094,6.112,9.078,6.104,9.131c0.035,0.011,0.053,0.038,0.047,0.091
			C6.094,9.202,6.057,9.165,6.059,9.086z"/>
		<path fill-rule="evenodd" clip-rule="evenodd" fill="#FFFFFF" d="M14.42,9.673c0.221,0.113-0.004,0.749,0.045,0.137
			C14.441,9.773,14.418,9.735,14.42,9.673z"/>
		<path fill-rule="evenodd" clip-rule="evenodd" fill="#FFFFFF" d="M11.754,9.854c0.084-0.005,0.031-0.149,0.135-0.134
			c0,0.015,0,0.029,0,0.045c-0.08,0.116-0.195,0.195-0.271,0.315c-0.029,0.046-0.104,0.047-0.09,0.136
			c-0.061,0.017-0.07,0.079-0.135,0.092C11.486,10.129,11.633,10.005,11.754,9.854z"/>
		<path fill-rule="evenodd" clip-rule="evenodd" fill="#FFFFFF" d="M11.617,10.08c0.076-0.12,0.191-0.199,0.271-0.315
			C11.914,9.984,11.713,9.98,11.617,10.08z"/>
		<path fill-rule="evenodd" clip-rule="evenodd" fill="#FFFFFF" d="M0.366,9.854c0.002,0.21-0.025,0.447,0.09,0.542
			c-0.002,0.14,0.096,0.176,0.135,0.272C0.393,10.548,0.227,10.159,0.366,9.854z"/>
		<path fill-rule="evenodd" clip-rule="evenodd" fill="#FFFFFF" d="M14.057,10.847c0.141-0.145,0.338-0.233,0.453-0.404
			C14.438,10.655,14.244,10.749,14.057,10.847z"/>
		<path fill-rule="evenodd" clip-rule="evenodd" fill="#FFFFFF" d="M11.074,10.533c0.016,0,0.031,0,0.047,0
			c0.072-0.063,0.143-0.128,0.225-0.182c0.016,0,0.031,0,0.047,0c-0.031,0.176-0.271,0.192-0.137,0.407
			c-0.203-0.096-0.201,0.103-0.361,0C10.926,10.655,11.045,10.637,11.074,10.533z"/>
		<path fill-rule="evenodd" clip-rule="evenodd" fill="#FFFFFF" d="M10.533,10.983c0.145-0.188,0.375-0.288,0.541-0.45
			c-0.029,0.104-0.148,0.122-0.18,0.226C10.729,10.79,10.674,10.932,10.533,10.983z"/>
		<path fill-rule="evenodd" clip-rule="evenodd" fill="#FFFFFF" d="M0.999,10.847c-0.162,0.013-0.271-0.03-0.316-0.133
			C0.543,10.507,0.952,10.624,0.999,10.847z"/>
		<path fill-rule="evenodd" clip-rule="evenodd" fill="#FFFFFF" d="M1.315,10.894c-0.047-0.102,0.275,0.045,0.406-0.047
			C1.766,10.926,1.446,10.948,1.315,10.894z"/>
		<path fill-rule="evenodd" clip-rule="evenodd" fill="#FFFFFF" d="M9.99,11.347c0.084-0.145,0.25-0.203,0.408-0.271
			c0.014,0.103-0.131,0.05-0.137,0.133C10.201,11.284,10.061,11.279,9.99,11.347z"/>
		<path fill-rule="evenodd" clip-rule="evenodd" fill="#FFFFFF" d="M2.625,11.707c-0.152-0.165-0.291-0.342-0.498-0.453
			C2.381,11.318,2.51,11.505,2.625,11.707z"/>
		<path fill-rule="evenodd" clip-rule="evenodd" fill="#FFFFFF" d="M6.827,11.889c-0.363,0.003-0.689-0.034-0.902-0.182
			C6.237,11.758,6.538,11.815,6.827,11.889z"/>
		<path fill-rule="evenodd" clip-rule="evenodd" fill="#FFFFFF" d="M8.816,11.753c0.139,0.032,0.131-0.077,0.271-0.046
			c0.029,0,0.059,0,0.09,0c-0.105,0.182-0.389,0.185-0.633,0.225c0.01-0.064,0.135-0.016,0.135-0.089
			C8.734,11.82,8.783,11.794,8.816,11.753z"/>
		<path fill-rule="evenodd" clip-rule="evenodd" fill="#FFFFFF" d="M8.139,14.237c0.191-0.228,0.402-0.44,0.633-0.632
			C8.578,13.836,8.367,14.045,8.139,14.237z"/>
		<path fill-rule="evenodd" clip-rule="evenodd" fill="#FFFFFF" d="M8.771,14.646c0.102-0.126,0.377-0.465,0.633-0.589
			c-0.063,0.133-0.211,0.184-0.271,0.316c-0.09,0.061-0.195,0.106-0.227,0.227C8.832,14.587,8.828,14.643,8.771,14.646z"/>
		<path fill-rule="evenodd" clip-rule="evenodd" fill="#FFFFFF" d="M3.483,18.894c0.084,0.05,0.096,0.173,0.182,0.224
			c0.07,0.171,0.201,0.283,0.271,0.454C3.725,19.403,3.579,19.174,3.483,18.894z"/>
		<path fill-rule="evenodd" clip-rule="evenodd" fill="#FFFFFF" d="M5.608,14.104c0.197,0.159,0.379,0.342,0.543,0.542
			c-0.148-0.02-0.145-0.188-0.271-0.227C5.817,14.286,5.67,14.236,5.608,14.104z"/>
		<path fill-rule="evenodd" clip-rule="evenodd" fill="#FFFFFF" d="M5.788,14.373c-0.09-0.166-0.26-0.253-0.406-0.361
			c0.113-0.006,0.141,0.072,0.227,0.092c0.063,0.133,0.209,0.183,0.271,0.315C5.833,14.419,5.825,14.383,5.788,14.373z"/>
		<path fill-rule="evenodd" clip-rule="evenodd" fill="#FFFFFF" d="M2.581,14.057c0.023-0.067,0.066-0.112,0.09-0.179
			c0.232,0.098,0.357,0.305,0.633,0.359c0,0.044,0.055,0.035,0.09,0.047c-0.002,0.043-0.057,0.033-0.09,0.043
			c0,0.045,0.055,0.037,0.09,0.046c0.08,0,0.264,0.123,0.316,0c0.08,0.059,0.436,0.072,0.451,0.046c0.045,0,0.092,0,0.137,0
			c0.072-0.179-0.195-0.015-0.18-0.135c0.463-0.048,0.82-0.202,1.264-0.272c0.146,0.108,0.316,0.195,0.406,0.361
			c0.166,0.195,0.334,0.39,0.588,0.497c0.197,0.148,0.385,0.308,0.678,0.36c-0.143,0.552-0.375,1.014-0.588,1.491
			c0-0.089,0-0.178,0-0.27c-0.061,0.149-0.146,0.274-0.182,0.453c0.045-0.004,0.037-0.057,0.047-0.09
			c0.053,0.005,0.037,0.08,0.045,0.135c-0.016,0.105-0.055,0.187-0.092,0.271c-0.055,0.02-0.092,0.058-0.09,0.136
			c-0.152-0.087,0.078-0.16,0.047-0.272c-0.213-0.061-0.07,0.37-0.271,0.18c-0.057,0.148,0.146,0.036,0.09,0.183
			c-0.092-0.016-0.141,0.01-0.135,0.091c0.045,0.062,0.074-0.02,0.135,0.089c0.002,0.108-0.078,0.134-0.045,0.272
			c-0.285,0.649-0.555,1.313-0.814,1.987c-0.195,0.015-0.104,0.317-0.225,0.406c-0.025-0.066-0.045-0.052-0.09-0.179
			c-0.109-0.019,0.023,0.204-0.137,0.135c0.068,0.122,0.211-0.047,0.09,0.226c0.061-0.017,0.072-0.081,0.137-0.089
			c0,0.014,0,0.029,0,0.043c-0.051,0.086-0.055,0.219-0.227,0.182c-0.014-0.104,0.008-0.172,0.045-0.225
			c-0.23,0-0.32,0.016-0.137,0.225c-0.172-0.051-0.168-0.283-0.314-0.361c0-0.03,0-0.059,0-0.09c0.041-0.034,0.068-0.081,0.09-0.138
			c-0.064,0.051-0.145-0.192-0.227-0.088c-0.129-0.083-0.172-0.249-0.27-0.361c-0.07-0.171-0.201-0.283-0.271-0.454
			c0.035,0.01,0.045,0.047,0.09,0.047C3.52,18.797,3.299,18.3,2.67,18.575c0-0.044,0.055-0.034,0.09-0.044
			c-0.105-0.028-0.234-0.072-0.453-0.091c0.057,0.064,0.156,0.087,0.273,0.091c-0.092,0.167-0.494,0.02-0.633,0.137
			c0.082,0.107,0.266-0.064,0.451,0c0,0.013,0,0.03,0,0.043c-0.572,0.043-1.35,0.548-1.762,0.183
			c0.156-0.551,0.398-1.02,0.586-1.537c0.053,0.007,0.08-0.012,0.092-0.045c0.131,0.145,0.35-0.168,0.225-0.271
			c-0.016,0.06-0.033,0.146-0.09,0.271c-0.049-0.012-0.031-0.091-0.09-0.091c0.014-0.227,0.145-0.337,0.18-0.542
			c-0.018-0.094,0.031-0.121,0.047-0.182c0.117,0.28,0.33-0.246,0.135-0.271c0-0.016,0-0.028,0-0.046
			c0.098,0.083,0.16,0.128,0.135-0.089c0.045,0.003,0.035,0.056,0.045,0.089c0.113-0.038-0.014-0.315-0.09-0.179
			c0.154-0.541,0.398-0.989,0.588-1.491C2.5,14.41,2.633,14.167,2.581,14.057z M6.284,15.188c0.125,0.032,0.094-0.09,0.182-0.092
			c0.055,0.008,0.104,0.08,0.137,0c-0.09,0-0.059-0.122-0.182-0.09C6.461,15.15,6.272,15.067,6.284,15.188z M5.833,18.079
			c-0.117,0.125-0.262,0.459-0.225,0.589C5.711,18.501,5.762,18.281,5.833,18.079z M4.071,19.211
			c-0.027,0.092,0.072,0.311-0.09,0.268c0.004,0.118,0.082,0.159,0.137,0.227C4.026,19.621,4.202,19.171,4.071,19.211z"/>
		<path fill-rule="evenodd" clip-rule="evenodd" fill="#FFFFFF" d="M12.342,13.921c-0.059,0.012-0.061,0.136,0,0.136
			c-0.063-0.051-0.195,0.073-0.318,0c0.029-0.122,0.189-0.112,0.182-0.271C12.305,13.778,12.35,13.821,12.342,13.921z"/>
		<path fill-rule="evenodd" clip-rule="evenodd" fill="#FFFFFF" d="M12.342,13.921c0.084,0.308,0.275,0.508,0.361,0.813
			c-0.057-0.094-0.172-0.131-0.182-0.272c-0.164,0.125,0.119,0.42,0.182,0.318c0.035,0.01,0.045,0.047,0.09,0.047
			c0.066,0.353,0.287,0.555,0.361,0.902c-0.082,0.005-0.096-0.055-0.182-0.046c0.092,0.061,0.105,0.195,0.227,0.226
			c0.066,0.04,0.064,0.146,0.09,0.228c-0.061,0.051,0.053,0.307,0.092,0.407c0.072,0.01,0.078-0.044,0.135-0.047
			c0.039-0.009,0.043,0.02,0.045,0.047c-0.021,0.14,0.064,0.174,0.092,0.271c-0.098,0.021-0.086-0.064-0.092-0.137
			c-0.115,0.076,0.039,0.258,0.092,0.315c-0.066,0.085-0.102,0.2-0.271,0.182c-0.061,0-0.121,0-0.182,0
			c-0.02-0.126,0.246,0.034,0.227-0.092c-0.172-0.034-0.389-0.083-0.498,0.046c-0.045,0-0.09,0-0.135,0
			c-0.225-0.063-0.5-0.07-0.723-0.136c0-0.06,0-0.12,0-0.179c-0.439-0.038-0.857-0.086-1.041,0.226
			c-0.008,0.035-0.045,0.043-0.045,0.089c-0.09,0.031-0.119,0.121-0.135,0.227c-0.092-0.014-0.088-0.123-0.182-0.136
			c0,0.12,0.143,0.098,0.137,0.226c-0.215,0.359-0.389,0.758-0.633,1.085c0.033-0.166-0.123-0.055-0.09,0.044
			c-0.1,0.01-0.145-0.037-0.137-0.135c-0.082,0.063,0.18,0.366-0.135,0.362c0.023,0.034,0.047,0.072,0.045,0.136
			c0,0.013,0,0.03,0,0.043c-0.197,0.047-0.209-0.091-0.316-0.134c-0.145-0.397-0.381-0.704-0.498-1.129
			c0.18-0.015-0.033-0.141,0.092-0.182c-0.02-0.087-0.176-0.034-0.137-0.181c-0.076-0.018-0.084,0.035-0.09,0.09
			c-0.072-0.063-0.115-0.156-0.135-0.271c0.098-0.131-0.094-0.599-0.227-0.497c-0.037-0.01-0.045-0.046-0.09-0.046
			c-0.023-0.248-0.176-0.368-0.227-0.588c-0.055-0.26-0.16-0.472-0.316-0.632c-0.035-0.04-0.049-0.102-0.047-0.183
			c0.129-0.005,0.189-0.082,0.318-0.089c0.064,0.084,0.436,0.089,0.271-0.089c0.1,0.047,0.227,0.073,0.316,0.135
			c-0.193-0.203,0.064-0.31-0.316-0.182c0.115-0.077,0.193-0.196,0.316-0.271c-0.072,0.217,0.541-0.176,0.361-0.361
			c0.061-0.133,0.209-0.184,0.271-0.316c0.246-0.047,0.594,0.025,0.813,0.135C10.123,14.22,9.92,14.137,9.9,14.237
			c0.117,0.111,0.459-0.009,0.588,0.09c-0.078,0.149-0.381,0.072-0.588,0.092c0.521,0.1,0.906-0.022,1.445,0.043
			c0.064,0.006,0.129,0.01,0.137-0.043c0.094-0.02,0.119,0.031,0.18,0.043c0.109-0.038-0.098-0.137-0.18-0.135
			c0.008-0.053,0.082-0.036,0.135-0.043c0.045,0.158,0.387,0.009,0.453-0.093c-0.057-0.135-0.156,0.051-0.271,0
			c0.068-0.053,0.111-0.131,0.225-0.135c0.123,0.073,0.256-0.051,0.318,0C12.281,14.057,12.283,13.933,12.342,13.921z
			 M10.307,18.033c0.086-0.113-0.037-0.177,0.045-0.314C10.178,17.713,10.311,18.144,10.307,18.033z"/>
		<path fill-rule="evenodd" clip-rule="evenodd" fill="#FFFFFF" d="M3.393,14.373c-0.035-0.009-0.09-0.001-0.09-0.046
			c0.033-0.01,0.088,0,0.09-0.043c-0.035-0.012-0.09-0.003-0.09-0.047c0.254,0.018,0.473,0.069,0.768,0.047
			c-0.42,0.103-0.225,0.043,0.09,0.135c-0.016,0.026-0.371,0.013-0.451-0.046C3.704,14.301,3.399,14.301,3.393,14.373z"/>
		<path fill-rule="evenodd" clip-rule="evenodd" fill="#FFFFFF" d="M6.375,14.87c-0.254-0.107-0.422-0.302-0.588-0.497
			c0.037,0.01,0.045,0.046,0.092,0.046c0.127,0.038,0.123,0.207,0.271,0.227C6.245,14.699,6.319,14.776,6.375,14.87z"/>
		<path fill-rule="evenodd" clip-rule="evenodd" fill="#FFFFFF" d="M6.375,16.95c-0.008-0.055,0.008-0.13-0.045-0.135
			c-0.01,0.033-0.002,0.086-0.047,0.09c0.035-0.179,0.121-0.304,0.182-0.453c0,0.092,0,0.181,0,0.27
			C6.442,16.804,6.442,16.911,6.375,16.95z"/>
		<path fill-rule="evenodd" clip-rule="evenodd" fill="#FFFFFF" d="M6.194,17.356c-0.002-0.078,0.035-0.116,0.09-0.136
			c-0.068,0.246-0.158,0.475-0.27,0.678c-0.033-0.139,0.047-0.164,0.045-0.272C6.102,17.534,6.151,17.45,6.194,17.356z"/>
		<path fill-rule="evenodd" clip-rule="evenodd" fill="#FFFFFF" d="M6.194,17.356c-0.043,0.094-0.092,0.178-0.135,0.27
			c-0.061-0.108-0.09-0.027-0.135-0.089c-0.006-0.081,0.043-0.106,0.135-0.091c0.057-0.146-0.146-0.034-0.09-0.183
			c0.201,0.19,0.059-0.24,0.271-0.18C6.272,17.196,6.042,17.27,6.194,17.356z"/>
		<path fill-rule="evenodd" clip-rule="evenodd" fill="#FFFFFF" d="M5.608,18.668c-0.037-0.13,0.107-0.464,0.225-0.589
			C5.762,18.281,5.711,18.501,5.608,18.668z"/>
		<path fill-rule="evenodd" clip-rule="evenodd" fill="#FFFFFF" d="M4.975,20.292C5.096,20.203,5.004,19.9,5.2,19.886
			c-0.064,0.193-0.129,0.383-0.225,0.542c0-0.014,0-0.029,0-0.043C4.975,20.355,4.975,20.325,4.975,20.292z"/>
		<path fill-rule="evenodd" clip-rule="evenodd" fill="#FFFFFF" d="M4.975,20.385c-0.064,0.008-0.076,0.072-0.137,0.089
			c0.121-0.272-0.021-0.104-0.09-0.226c0.16,0.069,0.027-0.153,0.137-0.135c0.045,0.127,0.064,0.112,0.09,0.179
			C4.975,20.325,4.975,20.355,4.975,20.385z"/>
		<path fill-rule="evenodd" clip-rule="evenodd" fill="#FFFFFF" d="M4.118,19.705c-0.055-0.067-0.133-0.108-0.137-0.227
			c0.162,0.043,0.063-0.176,0.09-0.268C4.202,19.171,4.026,19.621,4.118,19.705z"/>
		<path fill-rule="evenodd" clip-rule="evenodd" fill="#FFFFFF" d="M2.67,18.575c0.629-0.275,0.85,0.222,1.084,0.589
			c-0.045,0-0.055-0.037-0.09-0.047c-0.086-0.051-0.098-0.174-0.182-0.224c-0.082-0.113-0.137-0.256-0.27-0.318
			c-0.342-0.021-0.5,0.134-0.814,0.136c0-0.013,0-0.03,0-0.043C2.477,18.626,2.624,18.652,2.67,18.575z"/>
		<path fill-rule="evenodd" clip-rule="evenodd" fill="#FFFFFF" d="M2.399,18.668c-0.186-0.064-0.369,0.107-0.451,0
			c0.139-0.117,0.541,0.03,0.633-0.137c-0.117-0.004-0.217-0.026-0.273-0.091c0.219,0.019,0.348,0.063,0.453,0.091
			c-0.035,0.01-0.09,0-0.09,0.044C2.624,18.652,2.477,18.626,2.399,18.668z"/>
		<path fill-rule="evenodd" clip-rule="evenodd" fill="#FFFFFF" d="M1.36,17.221c0.059,0,0.041,0.079,0.09,0.091
			c0.057-0.124,0.074-0.211,0.09-0.271c0.125,0.103-0.094,0.415-0.225,0.271C1.315,17.264,1.352,17.257,1.36,17.221z"/>
		<path fill-rule="evenodd" clip-rule="evenodd" fill="#FFFFFF" d="M11.346,14.462c-0.539-0.065-0.924,0.057-1.445-0.043
			c0.207-0.02,0.51,0.058,0.588-0.092c-0.129-0.099-0.471,0.021-0.588-0.09c0.02-0.101,0.223-0.018,0.316-0.046
			c0.186-0.033,0.232,0.071,0.406,0.046c0.127,0.191,0.588,0.047,0.859,0.09c0.082-0.002,0.289,0.097,0.18,0.135
			c-0.061-0.012-0.086-0.063-0.18-0.043c-0.158-0.022-0.295-0.067-0.498-0.046C11.006,14.504,11.326,14.332,11.346,14.462z"/>
		<path fill-rule="evenodd" clip-rule="evenodd" fill="#FFFFFF" d="M13.199,15.773c0.127,0.205,0.264,0.4,0.316,0.679
			c-0.197-0.081-0.084-0.227-0.227-0.315c-0.025-0.081-0.023-0.188-0.09-0.228C13.199,15.864,13.199,15.819,13.199,15.773z"/>
		<path fill-rule="evenodd" clip-rule="evenodd" fill="#FFFFFF" d="M13.381,17.176c0.17,0.019,0.205-0.097,0.271-0.182
			c-0.053-0.058-0.207-0.239-0.092-0.315c0.006,0.072-0.006,0.157,0.092,0.137c0.08,0.145,0.086,0.227,0.045,0.405
			c-0.107-0.002-0.135,0.077-0.271,0.043C13.426,17.219,13.389,17.212,13.381,17.176z"/>
		<path fill-rule="evenodd" clip-rule="evenodd" fill="#FFFFFF" d="M10.805,17.446c0.006-0.128-0.137-0.105-0.137-0.226
			c0.094,0.013,0.09,0.122,0.182,0.136c0.016-0.105,0.045-0.195,0.135-0.227C10.969,17.278,10.879,17.356,10.805,17.446z"/>
		<path fill-rule="evenodd" clip-rule="evenodd" fill="#FFFFFF" d="M9.855,18.938c0.002-0.063-0.021-0.102-0.045-0.136
			c0.314,0.004,0.053-0.3,0.135-0.362c-0.008,0.098,0.037,0.145,0.137,0.135c-0.033-0.099,0.123-0.21,0.09-0.044
			c0.012,0.131-0.102,0.139-0.09,0.271C9.975,18.816,9.998,18.959,9.855,18.938z"/>
		<path fill-rule="evenodd" clip-rule="evenodd" fill="#FFFFFF" d="M9.539,18.848c0.107,0.043,0.119,0.181,0.316,0.134
			c0-0.013,0-0.03,0-0.043c0.143,0.021,0.119-0.122,0.227-0.136C10.1,19.051,9.547,19.15,9.539,18.848z"/>
		<path fill-rule="evenodd" clip-rule="evenodd" fill="#FFFFFF" d="M8.545,16.679c0.133-0.102,0.324,0.366,0.227,0.497
			C8.682,17.023,8.578,16.886,8.545,16.679z"/>
		<path fill-rule="evenodd" clip-rule="evenodd" fill="#FFFFFF" d="M7.913,15.413c0.156,0.16,0.261,0.372,0.316,0.632
			C8.131,15.826,7.975,15.665,7.913,15.413z"/>
		<path fill-rule="evenodd" clip-rule="evenodd" fill="#FFFFFF" d="M8.408,15.006c0.105-0.136,0.283-0.198,0.363-0.36
			c0.057-0.003,0.061-0.059,0.135-0.046c-0.045,0.046-0.09,0.091-0.135,0.135c-0.123,0.075-0.201,0.194-0.316,0.271
			C8.439,15.006,8.424,15.006,8.408,15.006z"/>
		<path fill-rule="evenodd" clip-rule="evenodd" fill="#FFFFFF" d="M9.133,14.373c0.18,0.186-0.434,0.578-0.361,0.361
			c0.045-0.044,0.09-0.089,0.135-0.135C8.938,14.479,9.043,14.434,9.133,14.373z"/>
		<path fill-rule="evenodd" clip-rule="evenodd" fill="#FFFFFF" d="M2.399,14.51c0.057-0.154,0.104-0.318,0.182-0.453
			C2.633,14.167,2.5,14.41,2.399,14.51z"/>
		<path fill-rule="evenodd" clip-rule="evenodd" fill="#FFFFFF" d="M8.047,14.237c-0.066,0.114-0.203,0.159-0.316,0.225
			c-0.018-0.271,0.256-0.255,0.408-0.358C8.127,14.167,8.064,14.178,8.047,14.237z"/>
		<path fill-rule="evenodd" clip-rule="evenodd" fill="#FFFFFF" d="M10.623,14.237c0.369,0.09,0.805,0.037,1.131-0.046
			c-0.014,0.066-0.1,0.053-0.137,0.093c-0.053,0.007-0.127-0.01-0.135,0.043C11.211,14.284,10.75,14.429,10.623,14.237z"/>
		<path fill-rule="evenodd" clip-rule="evenodd" fill="#FFFFFF" d="M11.346,14.462c-0.02-0.13-0.34,0.042-0.361-0.089
			c0.203-0.021,0.34,0.023,0.498,0.046C11.475,14.472,11.41,14.468,11.346,14.462z"/>
		<path fill-rule="evenodd" clip-rule="evenodd" fill="#FFFFFF" d="M6.42,15.006c0.123-0.032,0.092,0.09,0.182,0.09
			c-0.033,0.08-0.082,0.008-0.137,0c-0.088,0.002-0.057,0.124-0.182,0.092C6.272,15.067,6.461,15.15,6.42,15.006z"/>
		<path fill-rule="evenodd" clip-rule="evenodd" fill="#FFFFFF" d="M13.289,16.137c0.143,0.089,0.029,0.234,0.227,0.315
			c0,0.016,0,0.029,0,0.045c-0.057,0.003-0.063,0.057-0.135,0.047C13.342,16.443,13.229,16.188,13.289,16.137z"/>
		<path fill-rule="evenodd" clip-rule="evenodd" fill="#FFFFFF" d="M13.652,16.815c-0.027-0.098-0.113-0.132-0.092-0.271
			c0.107,0.151,0.354,0.479,0.137,0.677C13.738,17.042,13.732,16.96,13.652,16.815z"/>
		<path fill-rule="evenodd" clip-rule="evenodd" fill="#FFFFFF" d="M1.223,17.356c0.121-0.211,0.117-0.545,0.316-0.678
			c-0.035,0.205-0.166,0.315-0.18,0.542c-0.008,0.036-0.045,0.043-0.045,0.091C1.303,17.345,1.276,17.363,1.223,17.356z"/>
		<path fill-rule="evenodd" clip-rule="evenodd" fill="#FFFFFF" d="M12.07,16.994c-0.332-0.012-0.822-0.237-1.041,0.047
			c0.184-0.312,0.602-0.264,1.041-0.226C12.07,16.874,12.07,16.935,12.07,16.994z"/>
		<path fill-rule="evenodd" clip-rule="evenodd" fill="#FFFFFF" d="M12.928,17.13c0.111-0.005,0.219-0.007,0.271,0.046
			c0.061,0,0.121,0,0.182,0c0.008,0.036,0.045,0.043,0.045,0.088c-0.207-0.047-0.455-0.056-0.633-0.134
			C12.838,17.13,12.883,17.13,12.928,17.13z"/>
		<path fill-rule="evenodd" clip-rule="evenodd" fill="#FFFFFF" d="M10.352,17.719c-0.082,0.138,0.041,0.201-0.045,0.314
			C10.311,18.144,10.178,17.713,10.352,17.719z"/>
		<path fill-rule="evenodd" clip-rule="evenodd" fill="#FFFFFF" d="M4.342,20.158c-0.09-0.031-0.121-0.12-0.137-0.226
			c0.082-0.104,0.162,0.139,0.227,0.088C4.411,20.077,4.383,20.124,4.342,20.158z"/>
		<path fill-rule="evenodd" clip-rule="evenodd" fill="#FFFFFF" d="M4.657,20.609c-0.184-0.209-0.094-0.225,0.137-0.225
			c-0.037,0.053-0.059,0.12-0.045,0.225C4.719,20.609,4.69,20.609,4.657,20.609z"/>
		<path fill-rule="evenodd" clip-rule="evenodd" fill="#FFFFFF" d="M11.844-0.088c-0.025,0.079,0.055,0.265-0.045,0.271
			c-0.037-0.151-0.041-0.236-0.09-0.452c0.045,0,0.053,0.037,0.09,0.045C11.822-0.187,11.846-0.15,11.844-0.088z"/>
		<path fill-rule="evenodd" clip-rule="evenodd" fill="#FFFFFF" d="M7.008,0.997c-0.121,0-0.242,0-0.361,0c-0.121,0-0.242,0-0.363,0
			c0.086-0.2,0.555-0.057,0.725-0.045C7.008,0.967,7.008,0.981,7.008,0.997z"/>
		<path fill-rule="evenodd" clip-rule="evenodd" fill="#FFFFFF" d="M14.283,2.352c-0.033-0.147,0.09-0.068,0.092,0
			C14.492,2.571,14.303,2.549,14.283,2.352z"/>
		<path fill-rule="evenodd" clip-rule="evenodd" fill="#FFFFFF" d="M11.166,2.398c-0.023-0.115-0.078-0.176,0.09-0.181
			c0.01,0.037-0.018,0.041-0.045,0.045c0.012,0.056,0.09,0.045,0.09,0c0.113,0.019,0.002,0.175-0.09,0.136
			C11.195,2.398,11.182,2.398,11.166,2.398z"/>
		<path fill-rule="evenodd" clip-rule="evenodd" fill="#FFFFFF" d="M0.366,2.578C0.393,2.717,0.307,2.969,0.409,3.03
			c0,0.044,0,0.091,0,0.136c-0.146-0.076-0.07-0.381-0.09-0.588C0.329,2.526,0.366,2.553,0.366,2.578z"/>
		<path fill-rule="evenodd" clip-rule="evenodd" fill="#FFFFFF" d="M9.539,3.393c0.275-0.079,0.869-0.087,1.084,0.045
			C10.262,3.529,9.963,3.438,9.539,3.393z"/>
		<path fill-rule="evenodd" clip-rule="evenodd" fill="#FFFFFF" d="M0.637,3.98C0.659,3.838,0.555,3.819,0.59,3.664
			C0.67,3.492,0.797,4.052,0.637,3.98z"/>
		<path fill-rule="evenodd" clip-rule="evenodd" fill="#FFFFFF" d="M0.59,4.703c0-0.017,0-0.03,0-0.046
			C0.833,4.445,0.62,4.861,0.772,4.975C0.713,4.859,0.549,5.016,0.545,4.93c0-0.092,0.125-0.059,0.092-0.183
			C0.645,4.709,0.62,4.705,0.59,4.703z"/>
		<path fill-rule="evenodd" clip-rule="evenodd" fill="#FFFFFF" d="M2.083,5.064c0,0.104,0,0.211,0,0.315
			c-0.01,0.035,0,0.089-0.047,0.092c-0.1-0.137-0.018-0.389,0-0.542C2.09,4.935,2.075,5.01,2.083,5.064z"/>
		<path fill-rule="evenodd" clip-rule="evenodd" fill="#FFFFFF" d="M5.608,6.51c0.014,0,0.029,0,0.045,0c0,0.03,0,0.06,0,0.09
			C5.547,6.54,5.397,6.524,5.292,6.466C5.411,6.466,5.549,6.448,5.608,6.51z"/>
		<path fill-rule="evenodd" clip-rule="evenodd" fill="#FFFFFF" d="M6.331,7.142c0.016,0,0.029,0,0.045,0
			c0.025,0.141,0.16,0.172,0.227,0.271C6.604,7.471,6.659,7.478,6.647,7.55C6.54,7.484,6.563,7.453,6.42,7.504
			C6.446,7.348,6.266,7.265,6.331,7.142z"/>
		<path fill-rule="evenodd" clip-rule="evenodd" fill="#FFFFFF" d="M2.127,7.957c0.074,0.046,0.049,0.191,0.09,0.271
			c0,0.029,0,0.06,0,0.091C2.124,8.289,2.043,8.015,2.127,7.957z"/>
		<path fill-rule="evenodd" clip-rule="evenodd" fill="#FFFFFF" d="M0.682,8.679c-0.029-0.107,0.057-0.327-0.045-0.36
			c0-0.016,0-0.031,0-0.046C0.713,8.102,0.502,7.99,0.59,7.957c0.242,0.115,0.068,0.375,0.227,0.587
			C0.731,8.549,0.786,8.693,0.682,8.679z"/>
		<path fill-rule="evenodd" clip-rule="evenodd" fill="#FFFFFF" d="M6.737,9.537c0.285,0,0.572,0,0.857,0c0.047,0,0.092,0,0.137,0
			c-0.014,0.062-0.113,0.038-0.18,0.045c-0.271,0-0.543,0-0.814,0C6.737,9.569,6.737,9.552,6.737,9.537z"/>
		<path fill-rule="evenodd" clip-rule="evenodd" fill="#FFFFFF" d="M14.51,10.396c0.031-0.163,0.063-0.327,0.045-0.542
			c0.102,0.104,0.035,0.427,0,0.542C14.541,10.396,14.525,10.396,14.51,10.396z"/>
		<path fill-rule="evenodd" clip-rule="evenodd" fill="#FFFFFF" d="M13.336,10.983c0.09,0,0.18,0,0.27,0
			c-0.145,0.066-0.293,0.13-0.496,0.136C13.088,10.979,13.316,11.086,13.336,10.983z"/>
		<path fill-rule="evenodd" clip-rule="evenodd" fill="#FFFFFF" d="M1.811,11.119c0-0.12-0.125-0.114-0.18-0.181
			c0.139-0.003,0.25,0.022,0.316,0.091c-0.006,0.056-0.014,0.106-0.092,0.09C1.842,11.119,1.827,11.119,1.811,11.119z"/>
		<path fill-rule="evenodd" clip-rule="evenodd" fill="#FFFFFF" d="M4.387,13.424c-0.014,0.063-0.113,0.037-0.182,0.045
			c-0.066-0.008-0.166,0.018-0.18-0.045C4.129,13.396,4.297,13.335,4.387,13.424z"/>
		<path fill-rule="evenodd" clip-rule="evenodd" fill="#FFFFFF" d="M11.617,14.284c0.037-0.04,0.123-0.026,0.137-0.093
			c0.016,0,0.029,0,0.045,0c0.115,0.051,0.215-0.135,0.271,0C12.004,14.293,11.662,14.442,11.617,14.284z"/>
		<path fill-rule="evenodd" clip-rule="evenodd" fill="#FFFFFF" d="M12.703,14.78c-0.063,0.102-0.346-0.193-0.182-0.318
			c0.01,0.142,0.125,0.179,0.182,0.272C12.703,14.75,12.703,14.765,12.703,14.78z"/>
		<path fill-rule="evenodd" clip-rule="evenodd" fill="#FFFFFF" d="M8.455,15.006c0.381-0.128,0.123-0.021,0.316,0.182
			c-0.09-0.062-0.217-0.088-0.316-0.135c0.164,0.178-0.207,0.173-0.271,0.089c0.066-0.053,0.109-0.131,0.225-0.136
			C8.424,15.006,8.439,15.006,8.455,15.006z"/>
		<path fill-rule="evenodd" clip-rule="evenodd" fill="#FFFFFF" d="M13.199,15.773c0,0.046,0,0.091,0,0.136
			c-0.121-0.03-0.135-0.165-0.227-0.226c0.086-0.009,0.1,0.051,0.182,0.046C13.191,15.721,13.197,15.747,13.199,15.773z"/>
		<path fill-rule="evenodd" clip-rule="evenodd" fill="#FFFFFF" d="M1.811,16.001c0.076-0.137,0.203,0.141,0.09,0.179
			c-0.01-0.033,0-0.086-0.045-0.089c0.025,0.217-0.037,0.172-0.135,0.089C1.727,16.098,1.75,16.03,1.811,16.001z"/>
		<path fill-rule="evenodd" clip-rule="evenodd" fill="#FFFFFF" d="M1.586,16.497c0.064-0.071,0.059-0.211,0.135-0.271
			C1.917,16.251,1.704,16.777,1.586,16.497z"/>
		<path fill-rule="evenodd" clip-rule="evenodd" fill="#FFFFFF" d="M9.041,17.719c-0.07-0.065-0.115-0.157-0.135-0.272
			c0.006-0.055,0.014-0.107,0.09-0.09c-0.039,0.146,0.117,0.094,0.137,0.181C9.008,17.578,9.221,17.704,9.041,17.719z"/>
		<path fill-rule="evenodd" clip-rule="evenodd" fill="#FFFFFF" d="M2.036,5.788c0,0.436,0,0.873,0,1.31
			c-0.1-0.033-0.016-0.253-0.043-0.362c0-0.255,0-0.512,0-0.767C1.997,5.896,1.971,5.796,2.036,5.788z"/>
		<path fill-rule="evenodd" clip-rule="evenodd" fill="#FFFFFF" d="M12.883,5.833c0.105,0.286,0.016,0.767,0.045,1.13
			c0.008,0.053-0.01,0.08-0.045,0.09C12.883,6.646,12.883,6.239,12.883,5.833z"/>
		<path fill-rule="evenodd" clip-rule="evenodd" fill="#FFFFFF" d="M8.094,0.997c0.205,0.018,0.51-0.06,0.586,0.089
			C8.463,1.079,8.25,1.065,8.094,0.997z"/>
	</g>
</g>
</svg>
