<?xml version="1.0" encoding="utf-8"?>
<!-- Generator: Adobe Illustrator 14.0.0, SVG Export Plug-In . SVG Version: 6.00 Build 43363)  -->
<!DOCTYPE svg PUBLIC "-//W3C//DTD SVG 1.1//EN" "http://www.w3.org/Graphics/SVG/1.1/DTD/svg11.dtd">
<svg version="1.1" id="Layer_1" xmlns="http://www.w3.org/2000/svg" xmlns:xlink="http://www.w3.org/1999/xlink" x="0px" y="0px"
	 width="30px" height="30px" viewBox="-7.5 -7.5 30 30" enable-background="new -7.5 -7.5 30 30" xml:space="preserve">
<g>
	<g>
		<g>
			<g>
				<path fill="#D0D2D3" d="M14.304-1.862l2.005-2.76C13.833-6.424,10.796-7.5,7.5-7.5v3.414
					C10.045-4.087,12.392-3.254,14.304-1.862z"/>
				<path fill="none" stroke="#FFFFFF" stroke-width="0.25" d="M14.304-1.862l2.005-2.76C13.833-6.424,10.796-7.5,7.5-7.5v3.414
					C10.045-4.087,12.392-3.254,14.304-1.862z"/>
			</g>
			<g>
				<path fill="#D0D2D3" d="M7.499-4.087L7.499-4.087L7.5-7.5H7.499c-3.295,0-6.332,1.076-8.807,2.878l2.004,2.758
					C2.609-3.254,4.954-4.087,7.499-4.087z"/>
				<path fill="none" stroke="#FFFFFF" stroke-width="0.25" d="M7.499-4.087L7.499-4.087L7.5-7.5H7.499
					c-3.295,0-6.332,1.076-8.807,2.878l2.004,2.758C2.609-3.254,4.954-4.087,7.499-4.087z"/>
			</g>
			<g>
				<path fill="#D0D2D3" d="M19.086,7.5c0,1.251-0.204,2.451-0.57,3.581l3.247,1.055C22.237,10.674,22.5,9.118,22.5,7.5
					s-0.263-3.173-0.737-4.635l-3.247,1.057C18.882,5.048,19.086,6.249,19.086,7.5z"/>
				<path fill="none" stroke="#FFFFFF" stroke-width="0.25" d="M19.086,7.5c0,1.251-0.204,2.451-0.57,3.581l3.247,1.055
					C22.237,10.674,22.5,9.118,22.5,7.5s-0.263-3.173-0.737-4.635l-3.247,1.057C18.882,5.048,19.086,6.249,19.086,7.5z"/>
			</g>
			<g>
				<path fill="#D0D2D3" d="M0.697-1.864l-2.004-2.758c-2.531,1.841-4.468,4.447-5.455,7.487l3.247,1.057
					C-2.753,1.572-1.258-0.441,0.697-1.864z"/>
				<path fill="none" stroke="#FFFFFF" stroke-width="0.25" d="M0.697-1.864l-2.004-2.758c-2.531,1.841-4.468,4.447-5.455,7.487
					l3.247,1.057C-2.753,1.572-1.258-0.441,0.697-1.864z"/>
			</g>
			<g>
				<path fill="#D0D2D3" d="M18.516,3.921l3.247-1.057c-0.988-3.039-2.924-5.645-5.454-7.487l-2.005,2.76
					C16.26-0.44,17.754,1.573,18.516,3.921z"/>
				<path fill="none" stroke="#FFFFFF" stroke-width="0.25" d="M18.516,3.921l3.247-1.057c-0.988-3.039-2.924-5.645-5.454-7.487
					l-2.005,2.76C16.26-0.44,17.754,1.573,18.516,3.921z"/>
			</g>
			<g>
				<path fill="#FFFFFF" d="M7.5,19.086v3.415c3.295,0,6.333-1.076,8.808-2.879l-2.004-2.757
					C12.392,18.255,10.045,19.086,7.5,19.086z"/>
			</g>
			<g>
				<path fill="#D0D2D3" d="M21.763,12.136l-3.247-1.055c-0.764,2.347-2.258,4.36-4.212,5.784l2.004,2.757
					C18.839,17.781,20.774,15.176,21.763,12.136z"/>
				<path fill="none" stroke="#FFFFFF" stroke-width="0.25" d="M21.763,12.136l-3.247-1.055c-0.764,2.347-2.258,4.36-4.212,5.784
					l2.004,2.757C18.839,17.781,20.774,15.176,21.763,12.136z"/>
			</g>
			<g>
				<path fill="#D0D2D3" d="M-4.087,7.5c0-1.251,0.204-2.452,0.571-3.579l-3.247-1.057C-7.237,4.327-7.5,5.882-7.5,7.5
					c0,1.619,0.263,3.174,0.738,4.636l3.247-1.055C-3.883,9.951-4.087,8.751-4.087,7.5z"/>
				<path fill="none" stroke="#FFFFFF" stroke-width="0.25" d="M-4.087,7.5c0-1.251,0.204-2.452,0.571-3.579l-3.247-1.057
					C-7.237,4.327-7.5,5.882-7.5,7.5c0,1.619,0.263,3.174,0.738,4.636l3.247-1.055C-3.883,9.951-4.087,8.751-4.087,7.5z"/>
			</g>
			<g>
				<path fill="#D0D2D3" d="M7.499,19.086c-2.545,0-4.89-0.829-6.801-2.221l-2.005,2.758c2.476,1.802,5.511,2.878,8.807,2.878H7.5
					L7.499,19.086L7.499,19.086z"/>
				<path fill="none" stroke="#FFFFFF" stroke-width="0.25" d="M7.499,19.086c-2.545,0-4.89-0.829-6.801-2.221l-2.005,2.758
					c2.476,1.802,5.511,2.878,8.807,2.878H7.5L7.499,19.086L7.499,19.086z"/>
			</g>
			<g>
				<path fill="#D0D2D3" d="M-3.516,11.081l-3.247,1.055c0.987,3.041,2.924,5.646,5.455,7.487l2.005-2.758
					C-1.257,15.442-2.753,13.428-3.516,11.081z"/>
				<path fill="none" stroke="#FFFFFF" stroke-width="0.25" d="M-3.516,11.081l-3.247,1.055c0.987,3.041,2.924,5.646,5.455,7.487
					l2.005-2.758C-1.257,15.442-2.753,13.428-3.516,11.081z"/>
			</g>
			<g>
				<rect x="7.5" y="7.5" fill="#D0D2D3" width="0" height="0.001"/>
				<rect x="7.5" y="7.5" fill="none" stroke="#FFFFFF" stroke-width="0.25" width="0" height="0.001"/>
			</g>
			<g>
				<polygon fill="#D0D2D3" points="7.501,7.5 7.501,7.5 7.5,7.5 				"/>
				<polygon fill="none" stroke="#FFFFFF" stroke-width="0.25" points="7.501,7.5 7.501,7.5 7.5,7.5 				"/>
			</g>
			<g>
				<rect x="7.5" y="7.5" fill="#D0D2D3" width="0.001" height="0.001"/>
				<rect x="7.5" y="7.5" fill="none" stroke="#FFFFFF" stroke-width="0.25" width="0.001" height="0.001"/>
			</g>
			<g>
				<rect x="7.5" y="7.5" fill="#D0D2D3" width="0" height="0"/>
				<rect x="7.5" y="7.5" fill="none" stroke="#FFFFFF" stroke-width="0.25" width="0" height="0"/>
			</g>
			<g>
				<polygon fill="#D0D2D3" points="7.5,7.5 7.5,7.5 7.5,7.5 				"/>
				<polygon fill="none" stroke="#FFFFFF" stroke-width="0.25" points="7.5,7.5 7.5,7.5 7.5,7.5 				"/>
			</g>
			<g>
				<polygon fill="#D0D2D3" points="7.5,7.5 7.5,7.5 7.5,7.5 				"/>
				<polygon fill="none" stroke="#FFFFFF" stroke-width="0.25" points="7.5,7.5 7.5,7.5 7.5,7.5 				"/>
			</g>
		</g>
	</g>
	<circle fill="none" stroke="#D0D2D3" cx="7.501" cy="7.5" r="9.714"/>
	<g>
		<g>
			<path fill="#808184" d="M3.054,4.051c0.451,0,0.813,0.053,1.085,0.16c0.273,0.107,0.476,0.284,0.61,0.527
				C4.883,4.982,4.972,5.31,5.014,5.719C5.057,6.128,5.079,6.639,5.079,7.25c0,0.715-0.046,1.292-0.139,1.732
				C4.85,9.423,4.709,9.761,4.52,9.995c-0.19,0.235-0.438,0.394-0.742,0.477c-0.307,0.083-0.674,0.124-1.101,0.124
				c-0.134,0-0.316-0.006-0.544-0.019c-0.23-0.012-0.479-0.049-0.747-0.109l0.073-0.44c0.141,0.013,0.265,0.021,0.371,0.027
				c0.107,0.006,0.226,0.011,0.358,0.015c0.131,0.003,0.294,0.004,0.49,0.004c0.337,0,0.62-0.037,0.854-0.11
				c0.23-0.073,0.417-0.209,0.558-0.408c0.141-0.198,0.244-0.483,0.308-0.856C4.46,8.326,4.491,7.84,4.491,7.241
				c0-0.507-0.011-0.934-0.036-1.279c-0.025-0.344-0.08-0.62-0.166-0.825c-0.085-0.205-0.226-0.351-0.422-0.44
				c-0.195-0.088-0.47-0.133-0.825-0.133c-0.377,0-0.667,0.065-0.866,0.193S1.843,5.072,1.769,5.316
				C1.696,5.561,1.66,5.856,1.66,6.205c0,0.33,0.036,0.613,0.109,0.848C1.843,7.288,1.973,7.466,2.16,7.589
				c0.186,0.122,0.445,0.184,0.774,0.184c0.214,0,0.411-0.028,0.591-0.083c0.18-0.055,0.364-0.148,0.55-0.279
				C4.262,7.278,4.47,7.094,4.703,6.855l0.036,0.312c-0.202,0.281-0.395,0.501-0.582,0.66C3.971,7.986,3.771,8.099,3.557,8.162
				C3.343,8.227,3.089,8.258,2.795,8.258c-0.433,0-0.774-0.085-1.021-0.256C1.527,7.831,1.349,7.59,1.242,7.282
				s-0.159-0.67-0.159-1.086c0-0.463,0.059-0.855,0.178-1.173C1.38,4.704,1.583,4.463,1.87,4.298
				C2.157,4.133,2.552,4.051,3.054,4.051z"/>
			<path fill="#808184" d="M8.498,4.042c0.524,0,0.94,0.115,1.247,0.343c0.304,0.229,0.524,0.585,0.659,1.068
				c0.134,0.483,0.201,1.106,0.201,1.87c0,0.757-0.067,1.379-0.201,1.865c-0.135,0.486-0.355,0.844-0.659,1.072
				c-0.307,0.229-0.723,0.345-1.247,0.345c-0.521,0-0.934-0.115-1.243-0.345c-0.309-0.229-0.529-0.586-0.66-1.072
				C6.464,8.703,6.398,8.081,6.398,7.324c0-0.764,0.066-1.387,0.197-1.87c0.131-0.483,0.352-0.839,0.66-1.068
				C7.564,4.157,7.978,4.042,8.498,4.042z M8.498,4.573c-0.287,0-0.528,0.052-0.72,0.156C7.585,4.833,7.431,4.995,7.314,5.215
				c-0.116,0.219-0.2,0.504-0.252,0.852C7.011,6.416,6.985,6.834,6.985,7.324c0,0.483,0.026,0.899,0.078,1.25
				c0.052,0.352,0.136,0.638,0.252,0.857c0.116,0.22,0.271,0.383,0.464,0.485c0.192,0.104,0.433,0.156,0.72,0.156
				c0.28,0,0.519-0.052,0.714-0.156c0.196-0.103,0.354-0.266,0.472-0.485c0.12-0.22,0.204-0.506,0.253-0.857
				c0.05-0.352,0.072-0.768,0.072-1.25c0-0.489-0.022-0.908-0.072-1.256C9.888,5.719,9.804,5.435,9.684,5.215
				c-0.118-0.22-0.275-0.382-0.472-0.486C9.017,4.625,8.778,4.573,8.498,4.573z"/>
			<path fill="#808184" d="M12.175,7.289c0.179,0,0.321,0.031,0.426,0.096c0.104,0.063,0.179,0.164,0.226,0.3
				C12.871,7.821,12.893,8,12.893,8.221c0,0.219-0.021,0.396-0.066,0.532c-0.047,0.137-0.122,0.237-0.226,0.303
				c-0.104,0.064-0.247,0.098-0.426,0.098c-0.176,0-0.316-0.033-0.42-0.098c-0.104-0.065-0.18-0.166-0.224-0.303
				c-0.043-0.137-0.065-0.313-0.065-0.532c0-0.221,0.022-0.399,0.065-0.536c0.044-0.136,0.119-0.237,0.224-0.3
				C11.858,7.32,11.999,7.289,12.175,7.289z M12.175,7.48c-0.121,0-0.216,0.024-0.286,0.072c-0.07,0.048-0.121,0.127-0.15,0.236
				c-0.03,0.109-0.046,0.254-0.046,0.432c0,0.179,0.016,0.323,0.046,0.433c0.029,0.109,0.08,0.188,0.15,0.236
				c0.07,0.048,0.165,0.072,0.286,0.072c0.124,0,0.223-0.024,0.294-0.072c0.07-0.049,0.121-0.127,0.149-0.236
				c0.029-0.109,0.044-0.254,0.044-0.433c0-0.178-0.015-0.323-0.044-0.432c-0.028-0.109-0.079-0.188-0.149-0.236
				C12.397,7.504,12.299,7.48,12.175,7.48z M14.399,7.348l-2.088,3.138h-0.214l2.083-3.138H14.399z M14.326,8.667
				c0.179,0,0.319,0.031,0.422,0.096c0.104,0.063,0.178,0.163,0.221,0.3c0.044,0.137,0.067,0.313,0.067,0.532
				c0,0.218-0.023,0.396-0.067,0.532c-0.043,0.136-0.117,0.236-0.221,0.3c-0.103,0.063-0.243,0.096-0.422,0.096
				c-0.176,0-0.316-0.032-0.422-0.096c-0.104-0.063-0.178-0.164-0.222-0.3c-0.045-0.137-0.065-0.314-0.065-0.532
				c0-0.219,0.021-0.396,0.065-0.532c0.044-0.137,0.118-0.237,0.222-0.3C14.01,8.698,14.15,8.667,14.326,8.667z M14.321,8.853
				c-0.121,0-0.217,0.024-0.286,0.073s-0.119,0.127-0.147,0.236c-0.029,0.109-0.044,0.253-0.044,0.433
				c0,0.175,0.015,0.319,0.044,0.429c0.028,0.111,0.078,0.19,0.147,0.239s0.165,0.073,0.286,0.073c0.125,0,0.223-0.024,0.293-0.073
				c0.071-0.049,0.122-0.128,0.151-0.239c0.028-0.109,0.043-0.254,0.043-0.429c0-0.18-0.015-0.323-0.043-0.433
				c-0.029-0.109-0.08-0.188-0.151-0.236C14.544,8.877,14.446,8.853,14.321,8.853z"/>
		</g>
	</g>
	<circle fill="none" stroke="#D0D2D3" stroke-width="0.25" cx="7.5" cy="7.5" r="13.207"/>
</g>
</svg>
