<?xml version="1.0" encoding="utf-8"?>
<!-- Generator: Adobe Illustrator 14.0.0, SVG Export Plug-In . SVG Version: 6.00 Build 43363)  -->
<!DOCTYPE svg PUBLIC "-//W3C//DTD SVG 1.1//EN" "http://www.w3.org/Graphics/SVG/1.1/DTD/svg11.dtd">
<svg version="1.1" id="Layer_1" xmlns="http://www.w3.org/2000/svg" xmlns:xlink="http://www.w3.org/1999/xlink" x="0px" y="0px"
	 width="17.436px" height="17.435px" viewBox="0 0 17.436 17.435" enable-background="new 0 0 17.436 17.435" xml:space="preserve">
<g>
	<g>
		<path fill-rule="evenodd" clip-rule="evenodd" fill="#39BBED" d="M5.984,7.785C6.268,7.75,6.49,7.652,6.654,7.488
			c0.162-0.165,0.242-0.38,0.242-0.648c0-0.256-0.07-0.464-0.209-0.624c-0.141-0.16-0.35-0.258-0.625-0.292
			C5.898,5.905,5.426,5.895,4.646,5.895H3.693v1.918h1.086C5.426,7.813,5.828,7.803,5.984,7.785z"/>
		<path fill-rule="evenodd" clip-rule="evenodd" fill="#39BBED" d="M12.666,7.88c-0.344,0-0.627,0.127-0.852,0.38
			s-0.334,0.596-0.33,1.029h2.352c-0.012-0.461-0.129-0.811-0.354-1.05S12.986,7.88,12.666,7.88z"/>
		<path fill-rule="evenodd" clip-rule="evenodd" fill="#39BBED" d="M6.502,9.312c-0.227-0.08-0.717-0.119-1.469-0.119h-1.34v2.218
			h1.535c0.596,0,0.977-0.017,1.137-0.052c0.246-0.044,0.447-0.154,0.602-0.33c0.156-0.176,0.232-0.41,0.232-0.704
			c0-0.249-0.061-0.461-0.178-0.634C6.9,9.518,6.729,9.391,6.502,9.312z"/>
		<path fill-rule="evenodd" clip-rule="evenodd" fill="#39BBED" d="M15.566,0H1.867C0.836,0,0,0.835,0,1.868v13.699
			c0,1.032,0.836,1.868,1.867,1.868h13.699c1.031,0,1.869-0.836,1.869-1.868V1.868C17.436,0.835,16.598,0,15.566,0z M10.361,4.491
			H14.6v1.285h-4.238V4.491z M8.652,11.503c-0.174,0.357-0.41,0.642-0.711,0.855c-0.301,0.213-0.67,0.343-1.111,0.393
			c-0.277,0.029-0.943,0.049-2,0.057H2.035V4.515h3.283c0.648,0,1.133,0.027,1.453,0.083C7.09,4.652,7.375,4.766,7.627,4.939
			C7.879,5.113,8.09,5.344,8.258,5.632S8.51,6.244,8.51,6.602c0,0.389-0.104,0.744-0.311,1.068c-0.207,0.326-0.488,0.568-0.842,0.73
			C7.855,8.548,8.24,8.799,8.51,9.153c0.27,0.355,0.404,0.771,0.404,1.25C8.914,10.781,8.826,11.148,8.652,11.503z M11.836,11.363
			c0.244,0.262,0.547,0.394,0.908,0.394c0.246,0,0.453-0.068,0.621-0.204c0.168-0.137,0.295-0.355,0.381-0.657h1.607
			c0,0-0.023,0.201-0.039,0.267c-0.146,0.597-0.52,1.022-0.955,1.326c-0.436,0.305-0.979,0.456-1.633,0.456
			c-1.033,0-1.799-0.342-2.295-1.025c-0.393-0.545-0.59-1.235-0.59-2.069c0-0.995,0.258-1.774,0.773-2.339s1.166-0.846,1.955-0.846
			c0.885,0,1.582,0.295,2.096,0.886c0.51,0.59,0.754,1.494,0.732,2.712h-3.943C11.467,10.733,11.594,11.1,11.836,11.363z"/>
	</g>
</g>
</svg>
