<?xml version="1.0" encoding="utf-8"?>
<!-- Generator: Adobe Illustrator 14.0.0, SVG Export Plug-In . SVG Version: 6.00 Build 43363)  -->
<!DOCTYPE svg PUBLIC "-//W3C//DTD SVG 1.1//EN" "http://www.w3.org/Graphics/SVG/1.1/DTD/svg11.dtd">
<svg version="1.1" id="Layer_1" xmlns="http://www.w3.org/2000/svg" xmlns:xlink="http://www.w3.org/1999/xlink" x="0px" y="0px"
	 width="15px" height="15px" viewBox="0 0 15 15" enable-background="new 0 0 15 15" xml:space="preserve">
<g>
	<path fill="#32BBED" d="M0,0v15h15V0H0z M13.674,13.654H1.326V1.345h12.347L13.674,13.654L13.674,13.654z"/>
	<path fill="#32BBED" d="M7.188,6.104C6.63,5.598,6.15,5.031,5.445,4.656C4.556,5.526,4.211,6.874,4.15,8.473
		c0.583-0.279,1.165-0.614,1.73-0.872C5.902,8.512,5.256,8.88,5.222,9.764c-0.033,0.844,0.458,1.457,0.99,1.894
		c0.531,0.437,1.282,0.843,2.274,0.722c0.906-0.105,1.463-0.531,1.766-1.211c-0.464,0.032-0.915,0.066-1.378,0.098
		c0.088,0.164,0.308,0.301,0.41,0.485c-0.431,0.226-1.142,0.38-1.601,0.124c-0.439-0.244-0.638-0.918-0.578-1.521
		c0.033-0.315,0.238-0.529,0.425-0.731c0.132-0.146,0.283-0.29,0.448-0.396c0.334-0.209,0.904-0.346,1.391-0.123
		C9.58,9.199,9.791,9.498,9.936,9.691c0.5,0.682,0.854,1.426,1.271,2.142c0.762-1.396,0.721-3.854,0.062-5.231
		c-0.455-0.948-1.181-1.735-2.016-2.34C8.816,3.949,8.354,3.69,7.836,3.444C6.837,2.97,5.616,2.53,4.103,2.606
		C3.796,2.624,3.498,2.67,3.23,2.741C5.404,3.113,6.579,4.358,7.188,6.104z M9.945,5.493c0.521,0.582,0.979,1.34,1.214,2.203
		c0.233,0.871,0.182,2.033-0.024,2.968c-0.199-0.445-0.436-0.906-0.779-1.313c-0.308-0.365-0.709-0.772-1.33-0.828
		c-0.648-0.057-1.099,0.271-1.459,0.56c0.565-0.688,1.015-1.969,0.778-3.268C8.322,5.698,8.3,5.427,8.238,5.328
		C8.167,5.219,7.885,5.141,7.777,5.049C7.989,5.644,8.161,6.502,8.002,7.24C7.938,7.531,7.809,7.833,7.695,8.107
		C7.583,8.384,7.437,8.648,7.294,8.896c-0.146,0.256-0.326,0.48-0.448,0.744c-0.21,0.461-0.409,1.25-0.103,1.779
		c-0.057,0.008-0.118-0.064-0.179-0.113c-0.385-0.316-0.779-0.814-0.825-1.418c-0.038-0.5,0.146-0.902,0.33-1.302
		c0.21-0.462,0.495-1.171,0.141-1.634C5.649,7.247,5.115,7.567,4.551,7.862c0.114-1.055,0.414-1.948,0.978-2.607
		C6.308,5.811,7.024,6.423,7.554,7.2c0.09-2.079-0.807-3.381-2.25-4.148C7.268,3.421,8.854,4.281,9.945,5.493z"/>
	<path fill="#32BBED" d="M9.475,6.227c0.387,0.625,0.66,1.315,0.883,2.05c0.031,0.105,0.035,0.24,0.082,0.33
		c0.047,0.092,0.192,0.186,0.283,0.279c0.047,0.047,0.086,0.1,0.129,0.143c0.047,0.046,0.105,0.121,0.145,0.105
		c-0.473-2.266-1.459-4.279-3.57-5.11C7.417,4.026,7.41,4.026,7.411,4.035C7.5,4.22,7.583,4.41,7.66,4.604
		C8.514,4.942,9.044,5.529,9.475,6.227z"/>
	<path fill="#32BBED" d="M5.139,7.128c0.312-0.182,0.621-0.365,0.906-0.57C5.886,6.399,5.736,6.23,5.563,6.083
		C5.412,6.421,5.197,6.707,5.139,7.128z"/>
</g>
</svg>
