<?xml version="1.0" encoding="utf-8"?>
<!-- Generator: Adobe Illustrator 14.0.0, SVG Export Plug-In . SVG Version: 6.00 Build 43363)  -->
<!DOCTYPE svg PUBLIC "-//W3C//DTD SVG 1.1//EN" "http://www.w3.org/Graphics/SVG/1.1/DTD/svg11.dtd">
<svg version="1.1" id="Layer_1" xmlns="http://www.w3.org/2000/svg" xmlns:xlink="http://www.w3.org/1999/xlink" x="0px" y="0px"
	 width="21.568px" height="21.568px" viewBox="0 0 21.568 21.568" enable-background="new 0 0 21.568 21.568" xml:space="preserve">
<g>
	<g>
		<path fill="#FFCA09" stroke="#0C5E91" stroke-width="0.15" d="M5.928,4.099l-1.431-1.97C2.728,3.412,1.327,5.237,0.6,7.476
			l2.318,0.753C3.479,6.5,4.562,5.091,5.928,4.099z"/>
		<path fill="#FFCA09" stroke="#0C5E91" stroke-width="0.15" d="M2.917,8.229L2.917,8.229L0.6,7.476l0,0
			c-0.728,2.237-0.667,4.537,0.01,6.614l2.316-0.753C2.402,11.732,2.356,9.956,2.917,8.229z"/>
		<path fill="#32BBED" stroke="#0C5E91" stroke-width="0.15" d="M13.34,2.917c0.849,0.277,1.619,0.68,2.305,1.178l1.433-1.972
			c-0.888-0.645-1.886-1.167-2.984-1.523s-2.213-0.521-3.309-0.521v2.436C11.631,2.516,12.491,2.642,13.34,2.917z"/>
		<path fill="#FFCA09" stroke="#0C5E91" stroke-width="0.15" d="M2.926,13.337L0.609,14.09c0.692,2.126,2.034,4.015,3.882,5.356
			l1.433-1.972C4.497,16.438,3.46,14.979,2.926,13.337z"/>
		<g>
			<path fill="#FFCA09" stroke="#0C5E91" stroke-width="0.15" d="M4.497,2.129l1.431,1.97C6.63,3.591,7.407,3.194,8.23,2.925
				L7.478,0.607C6.412,0.956,5.405,1.47,4.497,2.129z"/>
			<path fill="#32BBED" stroke="#0C5E91" stroke-width="0.15" d="M8.23,2.925c0.815-0.268,1.677-0.41,2.554-0.41V0.079
				C9.648,0.078,8.533,0.263,7.478,0.607L8.23,2.925z"/>
		</g>
		<path fill="#32BBED" stroke="#0C5E91" stroke-width="0.15" d="M18.651,13.341l2.317,0.752c0.728-2.236,0.667-4.537-0.011-6.615
			L18.643,8.23C19.166,9.835,19.212,11.612,18.651,13.341z"/>
		<path fill="#32BBED" stroke="#0C5E91" stroke-width="0.15" d="M17.077,2.123l-1.433,1.972c1.427,1.035,2.463,2.494,2.998,4.136
			l2.315-0.753C20.267,5.353,18.924,3.465,17.077,2.123z"/>
		<path fill="#FFCA09" stroke="#0C5E91" stroke-width="0.15" d="M8.229,18.651c-0.85-0.276-1.62-0.68-2.305-1.177l-1.433,1.972
			c0.887,0.645,1.885,1.166,2.983,1.522c1.1,0.356,2.214,0.521,3.31,0.521v-2.437C9.938,19.054,9.077,18.927,8.229,18.651z"/>
		<path fill="#32BBED" stroke="#0C5E91" stroke-width="0.15" d="M18.65,13.341c-0.562,1.728-1.643,3.137-3.009,4.128l1.431,1.97
			c1.77-1.282,3.17-3.107,3.896-5.345v-0.001L18.65,13.341L18.65,13.341z"/>
		<path fill="#32BBED" stroke="#0C5E91" stroke-width="0.15" d="M10.784,19.054v2.437c2.283,0.001,4.479-0.739,6.288-2.052
			l-1.431-1.97C14.244,18.482,12.548,19.054,10.784,19.054z"/>
		<rect x="10.784" y="10.784" fill="#FFCA09" stroke="#0C5E91" stroke-width="0.15" width="0" height="0"/>
		<polygon fill="#FFCA09" stroke="#0C5E91" stroke-width="0.15" points="10.784,10.784 10.784,10.784 10.784,10.784 		"/>
		<rect x="10.784" y="10.784" fill="#FFCA09" stroke="#0C5E91" stroke-width="0.15" width="0.001" height="0.001"/>
		<rect x="10.784" y="10.784" fill="#FFCA09" stroke="#0C5E91" stroke-width="0.15" width="0" height="0"/>
		<polygon fill="#FFCA09" stroke="#0C5E91" stroke-width="0.15" points="10.784,10.784 10.784,10.784 10.784,10.784 		"/>
		<polygon fill="#FFCA09" stroke="#0C5E91" stroke-width="0.15" points="10.784,10.784 10.784,10.784 10.784,10.784 		"/>
	</g>
	<circle fill="#0C5E91" stroke="#FFFFFF" stroke-width="0.3" cx="10.784" cy="10.784" r="6.935"/>
	<text transform="matrix(1 0 0 1 5.9751 12.6914)"><tspan x="0" y="0" fill="#FFFFFF" font-family="'Exo2-Thin'" font-size="6.5439">45</tspan><tspan x="7.335" y="0" fill="#FFFFFF" font-family="'Exo2-Thin'" font-size="3.2465">%</tspan></text>
</g>
</svg>
