<?xml version="1.0" encoding="utf-8"?>
<!-- Generator: Adobe Illustrator 14.0.0, SVG Export Plug-In . SVG Version: 6.00 Build 43363)  -->
<!DOCTYPE svg PUBLIC "-//W3C//DTD SVG 1.1//EN" "http://www.w3.org/Graphics/SVG/1.1/DTD/svg11.dtd">
<svg version="1.1" id="Layer_1" xmlns="http://www.w3.org/2000/svg" xmlns:xlink="http://www.w3.org/1999/xlink" x="0px" y="0px"
	 width="10px" height="10.025px" viewBox="43.438 43.545 10 10.025" enable-background="new 43.438 43.545 10 10.025"
	 xml:space="preserve">
<g>
	<path fill="#32BBED" d="M43.463,43.545c3.037,0,6.073,0,9.11,0c0,2.546,0,5.093,0,7.64c-0.062,0.024-0.393-0.239-0.433-0.386
		c-0.059-0.213,0-0.572,0-0.892c0-0.82,0-1.852,0-2.627c-0.232-0.056-0.569-0.008-0.842-0.024c-0.056,0.097-0.008,0.297-0.023,0.434
		c-0.14,0.054-0.32,0.193-0.433,0.193c0-1.293,0-2.587,0-3.88c-1.835-0.057-3.774-0.008-5.649-0.024
		c-0.056,1.253-0.008,2.611-0.024,3.904c0.617,0.056,1.337,0.008,1.995,0.024c0.118,0.091,0.204,0.341,0.24,0.434
		c-0.737,0-1.474,0-2.211,0c-0.056,1.253-0.008,2.611-0.024,3.904c1.18,0.044,2.657,0.024,3.966,0.024c0.464,0,0.956-0.083,1.322,0
		c0.217,0.049,0.376,0.305,0.48,0.434c-2.5,0-5,0-7.499,0c0-3.028,0-6.057,0-9.085C43.437,43.583,43.435,43.549,43.463,43.545z
		 M43.872,43.979c0,0.217,0,0.434,0,0.651c0.288,0,0.577,0,0.865,0c0-0.217,0-0.434,0-0.651
		C44.448,43.979,44.16,43.979,43.872,43.979z M51.275,43.979c0,0.217,0,0.434,0,0.651c0.288,0,0.576,0,0.865,0
		c0-0.217,0-0.434,0-0.651C51.851,43.979,51.563,43.979,51.275,43.979z M43.872,45.088c0,0.208,0,0.417,0,0.626
		c0.242,0.055,0.583,0.009,0.865,0.024c0-0.225,0-0.45,0-0.675C44.455,45.079,44.113,45.033,43.872,45.088z M51.275,45.063
		c0,0.225,0,0.45,0,0.675c0.281-0.015,0.623,0.031,0.865-0.024c0-0.209,0-0.418,0-0.626C51.898,45.033,51.556,45.079,51.275,45.063z
		 M43.872,46.172c0,0.217,0,0.434,0,0.65c0.288,0,0.577,0,0.865,0c0-0.217,0-0.434,0-0.65C44.448,46.172,44.16,46.172,43.872,46.172
		z M51.275,46.172c0,0.217,0,0.434,0,0.65c0.288,0,0.576,0,0.865,0c0-0.217,0-0.434,0-0.65
		C51.851,46.172,51.563,46.172,51.275,46.172z M43.872,47.256c0,0.217,0,0.434,0,0.651c0.288,0,0.577,0,0.865,0
		c0-0.217,0-0.434,0-0.651C44.448,47.256,44.16,47.256,43.872,47.256z M43.872,48.341c0,0.217,0,0.434,0,0.651
		c0.288,0,0.577,0,0.865,0c0-0.217,0-0.434,0-0.651C44.448,48.341,44.16,48.341,43.872,48.341z M43.872,49.425
		c0,0.217,0,0.434,0,0.65c0.288,0,0.577,0,0.865,0c0-0.217,0-0.434,0-0.65C44.448,49.425,44.16,49.425,43.872,49.425z
		 M43.872,50.534c0,0.209,0,0.418,0,0.627c0.242,0.055,0.583,0.009,0.865,0.023c0-0.225,0-0.449,0-0.674
		C44.455,50.525,44.113,50.479,43.872,50.534z M43.872,51.619c0,0.217,0,0.434,0,0.65c0.288,0,0.577,0,0.865,0
		c0-0.217,0-0.434,0-0.65C44.448,51.619,44.16,51.619,43.872,51.619z"/>
	<path fill="#32BBED" d="M53.438,52.751c0,0.063,0,0.128,0,0.192c-0.144,0.273-0.352,0.482-0.625,0.627c-0.064,0-0.128,0-0.192,0
		c-0.199-0.104-0.477-0.366-0.697-0.579c-0.564-0.542-1.104-1.053-1.635-1.542c-0.113-0.104-0.218-0.255-0.312-0.241
		c-0.155,0.278-0.228,0.64-0.385,0.916c-0.131-0.399-0.309-0.751-0.433-1.156c-0.403,0.165-0.751,0.388-1.154,0.554
		c0.16-0.394,0.342-0.766,0.505-1.156c-0.386-0.152-0.827-0.248-1.202-0.41c0.392-0.153,0.777-0.313,1.178-0.458
		c-0.154-0.4-0.429-0.807-0.553-1.157c0.403,0.158,0.765,0.358,1.178,0.506c0.123-0.415,0.246-0.83,0.409-1.205
		c0.136,0.403,0.304,0.772,0.433,1.181c0.424-0.138,0.803-0.448,1.178-0.555c-0.177,0.394-0.37,0.77-0.529,1.181
		c0.407,0.115,0.807,0.236,1.178,0.385c-0.294,0.131-0.578,0.272-0.889,0.386c0.361,0.429,0.825,0.779,1.273,1.229
		C52.524,51.811,53.163,52.343,53.438,52.751z M49.328,49.449c-0.132-0.092-0.309-0.14-0.457-0.217
		c0.051,0.19,0.179,0.303,0.216,0.506c-0.176,0.049-0.347,0.102-0.48,0.192c0.167,0.064,0.376,0.088,0.504,0.193
		c-0.074,0.135-0.205,0.34-0.192,0.481c0.136-0.097,0.307-0.157,0.456-0.241c0.085,0.181,0.134,0.397,0.24,0.555
		c0.151-0.387,0.2-0.876,0.722-0.892c0.038-0.091,0.184-0.073,0.24-0.145c-0.191-0.073-0.426-0.104-0.577-0.217
		c0.088-0.137,0.146-0.303,0.217-0.458c-0.189,0.051-0.302,0.179-0.505,0.217c-0.053-0.172-0.097-0.354-0.192-0.482
		C49.456,49.112,49.432,49.321,49.328,49.449z M51.083,51.04c-0.2-0.189-0.439-0.482-0.674-0.578
		c-0.11-0.045-0.235,0.093-0.24,0.193c-0.007,0.17,0.472,0.554,0.577,0.65c0.694,0.632,1.324,1.198,1.947,1.808
		c0.126-0.066,0.222-0.163,0.288-0.289C52.426,52.31,51.672,51.602,51.083,51.04z"/>
	<path fill="#32BBED" d="M46.371,50.317c0.087,0.154,0.135,0.347,0.216,0.506c0.153,0.097,0.332,0.165,0.529,0.217
		c-0.13,0.128-0.353,0.16-0.529,0.241c-0.053,0.188-0.15,0.331-0.192,0.53c-0.116-0.141-0.147-0.366-0.24-0.53
		c-0.159-0.089-0.392-0.105-0.505-0.241C46.072,50.981,46.282,50.709,46.371,50.317z"/>
	<path fill="#32BBED" d="M48.395,46.146c0.067,0.119,0.104,0.269,0.167,0.392c0.119,0.074,0.258,0.128,0.41,0.168
		c-0.101,0.099-0.274,0.124-0.41,0.187c-0.041,0.146-0.117,0.256-0.149,0.411c-0.09-0.109-0.114-0.284-0.186-0.411
		c-0.124-0.069-0.304-0.082-0.392-0.187C48.163,46.661,48.326,46.451,48.395,46.146z"/>
</g>
</svg>
