<?xml version="1.0" encoding="utf-8"?>
<!-- Generator: Adobe Illustrator 14.0.0, SVG Export Plug-In . SVG Version: 6.00 Build 43363)  -->
<!DOCTYPE svg PUBLIC "-//W3C//DTD SVG 1.1//EN" "http://www.w3.org/Graphics/SVG/1.1/DTD/svg11.dtd">
<svg version="1.1" id="Layer_1" xmlns="http://www.w3.org/2000/svg" xmlns:xlink="http://www.w3.org/1999/xlink" x="0px" y="0px"
	 width="17.436px" height="17.435px" viewBox="0 0 17.436 17.435" enable-background="new 0 0 17.436 17.435" xml:space="preserve">
<g>
	<g>
		<path fill="#39BBED" d="M8.736,7.45c-0.618,0-1.302,0.617-1.302,1.617c0,0.559,0.307,0.904,0.801,0.904
			c0.54,0,1.293-0.615,1.293-1.615C9.528,7.788,9.232,7.45,8.736,7.45z"/>
		<path fill="#39BBED" d="M15.567,0H1.868C0.835,0,0,0.836,0,1.868v13.7c0,1.031,0.835,1.867,1.868,1.867h13.699
			c1.031,0,1.868-0.836,1.868-1.867v-13.7C17.436,0.836,16.599,0,15.567,0z M10.889,11.46c-0.669,0-1.359,0-1.571-0.758
			c-0.392,0.504-1.066,0.852-1.667,0.852c-1.315,0-2.133-0.902-2.133-2.353c0-1.982,1.405-3.365,3.063-3.365
			c0.435,0,1.006,0.086,1.333,0.484V6.317c0.018-0.15,0.146-0.266,0.298-0.266h1c0.336,0,0.588,0.305,0.524,0.635l-0.521,2.691
			c-0.076,0.381-0.086,0.657,0.3,0.667c0.824-0.089,1.293-0.997,1.293-1.86c0-2.275-1.863-3.555-4.09-3.555
			c-2.254,0-4.088,1.834-4.088,4.088c0,2.255,1.834,4.089,4.088,4.089c0.785,0,1.555-0.227,2.21-0.646
			c0.227-0.146,0.526-0.096,0.697,0.113l0.227,0.275c0.201,0.248,0.143,0.613-0.123,0.787c-0.892,0.58-1.939,0.895-3.011,0.895
			c-3.046,0-5.511-2.467-5.511-5.513c0-3.047,2.466-5.51,5.511-5.51c3.068,0,5.512,1.947,5.512,4.977
			C14.229,9.87,13.309,11.46,10.889,11.46z"/>
	</g>
</g>
</svg>
