<?xml version="1.0" encoding="utf-8"?>
<!-- Generator: Adobe Illustrator 14.0.0, SVG Export Plug-In . SVG Version: 6.00 Build 43363)  -->
<!DOCTYPE svg PUBLIC "-//W3C//DTD SVG 1.1//EN" "http://www.w3.org/Graphics/SVG/1.1/DTD/svg11.dtd">
<svg version="1.1" id="Layer_1" xmlns="http://www.w3.org/2000/svg" xmlns:xlink="http://www.w3.org/1999/xlink" x="0px" y="0px"
	 width="24px" height="24px" viewBox="3 3 24 24" enable-background="new 3 3 24 24" xml:space="preserve">
<g>
	<circle fill="#A6A8AB" cx="15" cy="14.999" r="12"/>
	<g>
		<path fill="#FFFFFF" d="M15.19,9.99v5.895c0.332,0.086,0.578,0.386,0.578,0.744c0,0.424-0.345,0.768-0.769,0.768
			c-0.425,0-0.769-0.344-0.769-0.768c0-0.358,0.245-0.658,0.578-0.744V9.99h-0.236l-3.428,6.895l1.286,2.525h1.672h0.706h0.381
			h1.098h1.279l1.287-2.525L15.426,9.99H15.19z"/>
		<path fill="#FFFFFF" d="M17.945,19.785h-5.892c-0.108,0-0.193,0.088-0.193,0.194v1.065c0,0.105,0.085,0.193,0.193,0.193h5.892
			c0.108,0,0.193-0.088,0.193-0.193v-1.065C18.139,19.873,18.054,19.785,17.945,19.785z"/>
		<path fill="#FFFFFF" d="M12.372,22.751c0,0.106,0.086,0.192,0.193,0.192h4.868c0.108,0,0.193-0.086,0.193-0.192v-1.172h-5.255
			V22.751z"/>
		<path fill="#FFFFFF" d="M21.09,14.039h-0.383c-0.087-2.452-1.727-4.516-3.964-5.235h3.09c0.063,0.351,0.371,0.616,0.738,0.616
			c0.414,0,0.751-0.338,0.751-0.752s-0.337-0.752-0.751-0.752c-0.367,0-0.675,0.266-0.738,0.615h-4.121V8.149
			c0-0.106-0.088-0.193-0.194-0.193h-1.036c-0.106,0-0.193,0.087-0.193,0.193v0.382h-4.122c-0.064-0.35-0.37-0.615-0.738-0.615
			c-0.414,0-0.751,0.338-0.751,0.752S9.014,9.42,9.428,9.42c0.368,0,0.674-0.266,0.738-0.616h3.09
			c-2.237,0.72-3.877,2.783-3.964,5.235H8.91c-0.107,0-0.194,0.088-0.194,0.194v1.036c0,0.107,0.087,0.193,0.194,0.193h1.036
			c0.106,0,0.193-0.086,0.193-0.193v-1.036c0-0.106-0.087-0.194-0.193-0.194H9.565c0.099-2.665,2.124-4.845,4.723-5.188v0.335
			c0,0.106,0.087,0.193,0.193,0.193h1.036c0.106,0,0.194-0.087,0.194-0.193V8.852c2.598,0.343,4.623,2.522,4.722,5.188h-0.381
			c-0.106,0-0.193,0.088-0.193,0.194v1.036c0,0.107,0.087,0.193,0.193,0.193h1.037c0.106,0,0.193-0.086,0.193-0.193v-1.036
			C21.283,14.127,21.196,14.039,21.09,14.039z"/>
	</g>
</g>
</svg>
