<?xml version="1.0" encoding="utf-8"?>
<!-- Generator: Adobe Illustrator 14.0.0, SVG Export Plug-In . SVG Version: 6.00 Build 43363)  -->
<!DOCTYPE svg PUBLIC "-//W3C//DTD SVG 1.1//EN" "http://www.w3.org/Graphics/SVG/1.1/DTD/svg11.dtd">
<svg version="1.1" id="Layer_1" xmlns="http://www.w3.org/2000/svg" xmlns:xlink="http://www.w3.org/1999/xlink" x="0px" y="0px"
	 width="40px" height="40px" viewBox="20.125 -17.554 40 40" enable-background="new 20.125 -17.554 40 40" xml:space="preserve">
<g>
	<path fill-rule="evenodd" clip-rule="evenodd" fill="#32BBED" d="M55.837-17.554H24.41c-2.366,0-4.285,1.919-4.285,4.286V18.16
		c0,2.366,1.919,4.285,4.285,4.285h31.427c2.366,0,4.288-1.919,4.288-4.285v-31.429C60.125-15.635,58.203-17.554,55.837-17.554z"/>
	<path fill="#FFFFFF" d="M39.717-3.303l-9.835,8.101v8.743c0,0.472,0.384,0.854,0.853,0.854l5.979-0.016
		c0.469-0.002,0.851-0.384,0.851-0.854V8.419c0-0.473,0.382-0.854,0.853-0.854h3.414c0.472,0,0.854,0.381,0.854,0.854v5.102
		c-0.001,0.472,0.38,0.854,0.852,0.856c0,0,0.001,0,0.003,0l5.976,0.017c0.471,0,0.852-0.382,0.852-0.854V4.79l-9.833-8.094
		C40.295-3.495,39.955-3.495,39.717-3.303L39.717-3.303z M55.252,2.202l-4.46-3.676v-7.389c0-0.354-0.285-0.641-0.639-0.641h-2.987
		c-0.354,0-0.642,0.287-0.642,0.641v3.873l-4.773-3.93c-0.946-0.777-2.31-0.777-3.255,0L24.992,2.202
		c-0.271,0.225-0.311,0.629-0.084,0.902l0,0l1.359,1.653c0.225,0.272,0.627,0.312,0.901,0.087c0,0,0,0,0.001,0L39.717-5.491
		c0.238-0.191,0.578-0.191,0.815,0L53.081,4.845c0.273,0.225,0.677,0.188,0.901-0.085V4.759l1.361-1.653
		c0.224-0.273,0.185-0.677-0.088-0.901C55.255,2.204,55.254,2.203,55.252,2.202L55.252,2.202z"/>
</g>
</svg>
