<?xml version="1.0" encoding="utf-8"?>
<!-- Generator: Adobe Illustrator 14.0.0, SVG Export Plug-In . SVG Version: 6.00 Build 43363)  -->
<!DOCTYPE svg PUBLIC "-//W3C//DTD SVG 1.1//EN" "http://www.w3.org/Graphics/SVG/1.1/DTD/svg11.dtd">
<svg version="1.1" id="Layer_1" xmlns="http://www.w3.org/2000/svg" xmlns:xlink="http://www.w3.org/1999/xlink" x="0px" y="0px"
	 width="15px" height="15px" viewBox="0 0 15 15" enable-background="new 0 0 15 15" xml:space="preserve">
<g>
	<path fill="#32BBED" d="M0,0v15h15V0H0z M13.674,13.654H1.326V1.345h12.347L13.674,13.654L13.674,13.654z"/>
	<path fill="#32BBED" d="M5.536,9.422c0-1.371,0-2.742,0-4.115c1.001-0.234,2.031-0.485,3.021-0.7c0,2.027,0,4.1,0,6.095
		c-1.542-0.173-3.1-0.382-4.625-0.545c1.426,0.501,2.913,1.046,4.347,1.559c0.098,0.035,0.232,0.101,0.297,0.099
		c0.078,0,0.205-0.067,0.306-0.096c0.755-0.229,1.483-0.439,2.204-0.664c0-2.355,0-4.71,0-7.063
		c-0.848-0.266-1.688-0.536-2.527-0.808C7.019,3.766,5.46,4.328,3.913,4.905c0,1.747,0,3.498,0,5.244
		c0.407-0.178,0.826-0.354,1.23-0.529C5.28,9.561,5.415,9.501,5.536,9.422z"/>
</g>
</svg>
