<?xml version="1.0" encoding="utf-8"?>
<!-- Generator: Adobe Illustrator 14.0.0, SVG Export Plug-In . SVG Version: 6.00 Build 43363)  -->
<!DOCTYPE svg PUBLIC "-//W3C//DTD SVG 1.1//EN" "http://www.w3.org/Graphics/SVG/1.1/DTD/svg11.dtd">
<svg version="1.1" id="Layer_1" xmlns="http://www.w3.org/2000/svg" xmlns:xlink="http://www.w3.org/1999/xlink" x="0px" y="0px"
	 width="15px" height="15px" viewBox="0 0 15 15" enable-background="new 0 0 15 15" xml:space="preserve">
<g>
	<path fill="#32BBED" d="M4.044,8.294h0.843c0.585,0,1.032-0.032,1.341-0.099c0.228-0.053,0.451-0.161,0.671-0.327
		c0.22-0.167,0.399-0.395,0.541-0.684c0.143-0.289,0.214-0.649,0.214-1.076c0-0.551-0.124-1.002-0.37-1.35
		C7.036,4.408,6.729,4.182,6.363,4.08C6.125,4.009,5.612,3.975,4.825,3.975H2.751v6.938h1.293V8.294z M4.044,5.148h0.625
		c0.467,0,0.776,0.018,0.931,0.047C5.81,5.237,5.981,5.34,6.12,5.503c0.138,0.164,0.205,0.372,0.205,0.624
		c0,0.206-0.049,0.385-0.146,0.54C6.08,6.822,5.944,6.936,5.773,7.008C5.601,7.082,5.26,7.116,4.75,7.116H4.043L4.044,5.148
		L4.044,5.148z"/>
	<path fill="#32BBED" d="M10.141,10.064c-0.287,0-0.512-0.066-0.672-0.201s-0.268-0.33-0.32-0.588L7.917,9.479
		c0.114,0.477,0.354,0.854,0.724,1.129c0.368,0.279,0.868,0.416,1.5,0.416c0.696,0,1.221-0.164,1.575-0.494
		c0.356-0.332,0.533-0.729,0.533-1.189c0-0.422-0.128-0.753-0.384-0.986c-0.262-0.235-0.715-0.433-1.369-0.592
		C9.842,7.601,9.46,7.476,9.35,7.387C9.27,7.32,9.227,7.241,9.227,7.146c0-0.11,0.047-0.202,0.141-0.271
		c0.139-0.098,0.371-0.148,0.693-0.148c0.256,0,0.453,0.053,0.592,0.156c0.138,0.104,0.231,0.255,0.281,0.451l1.157-0.231
		c-0.116-0.439-0.327-0.77-0.636-0.995c-0.311-0.224-0.781-0.335-1.415-0.335c-0.667,0-1.159,0.148-1.478,0.445
		C8.247,6.514,8.088,6.88,8.088,7.315c0,0.483,0.184,0.86,0.551,1.13c0.264,0.197,0.891,0.41,1.881,0.65
		c0.211,0.053,0.35,0.111,0.41,0.174c0.059,0.066,0.088,0.148,0.088,0.252c0,0.148-0.056,0.267-0.164,0.354
		C10.695,10.002,10.456,10.064,10.141,10.064z"/>
	<path fill="#32BBED" d="M0,0v15h15V0H0z M13.674,13.654H1.326V1.345h12.347L13.674,13.654L13.674,13.654z"/>
</g>
</svg>
