<?xml version="1.0" encoding="utf-8"?>
<!-- Generator: Adobe Illustrator 14.0.0, SVG Export Plug-In . SVG Version: 6.00 Build 43363)  -->
<!DOCTYPE svg PUBLIC "-//W3C//DTD SVG 1.1//EN" "http://www.w3.org/Graphics/SVG/1.1/DTD/svg11.dtd">
<svg version="1.1" id="Layer_1" xmlns="http://www.w3.org/2000/svg" xmlns:xlink="http://www.w3.org/1999/xlink" x="0px" y="0px"
	 width="10px" height="9.406px" viewBox="43.772 46.841 10 9.406" enable-background="new 43.772 46.841 10 9.406"
	 xml:space="preserve">
<g>
	<g>
		<path fill="#32BBED" d="M44.446,54.965c-0.785-0.009-0.665-0.978-0.665-1.889c0-1.119,0-2.259,0-3.409
			c0-0.879-0.141-1.895,0.682-1.906c2.054,0,4.221,0,6.331,0c0.301,0,0.634-0.046,0.892,0c0.043,0.008,0.022,0.007,0.018,0.035
			c-0.192,0.175-0.267,0.469-0.525,0.578c-0.081,0-0.163,0-0.244,0c-1.819,0-3.778,0-5.683,0c-0.274,0-0.631-0.027-0.787,0.035
			c-0.031,0.016-0.061,0.032-0.052,0.087c-0.029,1.562-0.029,3.247,0,4.809c0.01,0.043,0.015,0.09,0.07,0.088
			c2.623,0.041,5.322,0.006,7.973,0.018c0.066,0.002,0.095-0.034,0.105-0.088c0.041-0.711,0.006-1.498,0.018-2.238
			c0.041-0.146,0.006-0.367,0.018-0.542c0.163-0.327,0.399-0.579,0.595-0.874c0,1.562,0,3.124,0,4.687
			c-0.067,0.346-0.274,0.553-0.63,0.611c-1.049,0.012-2.145-0.023-3.165,0.018c0.01,0.025-0.021,0.091,0.018,0.088
			c0.056,0.293,0.156,0.449,0.402,0.577c0.158,0.082,0.49,0.067,0.542,0.227c0,0.076,0,0.152,0,0.228
			c-0.007,0.081-0.063,0.111-0.14,0.123c-1.148,0-2.297,0-3.445,0c-0.096,0.002-0.127-0.06-0.157-0.123c0-0.069,0-0.14,0-0.21
			c0.066-0.17,0.458-0.198,0.647-0.314c0.229-0.141,0.279-0.27,0.315-0.577c-0.013-0.059-0.527-0.035-0.752-0.035
			C46.066,54.965,45.104,54.965,44.446,54.965z M48.59,54.546c0.281-0.063,0.323-0.469,0.105-0.63
			C48.117,53.491,47.887,54.704,48.59,54.546z"/>
		<path fill="#32BBED" d="M50.933,48.391c0-0.006,0-0.011,0-0.017c0.081,0,0.163,0,0.244,0
			C51.13,48.414,51.009,48.379,50.933,48.391z"/>
		<path fill="#32BBED" d="M44.411,48.496c0,1.603,0,3.206,0,4.809C44.381,51.743,44.381,50.057,44.411,48.496z"/>
		<path fill="#32BBED" d="M46.107,49.02c1.521-0.029,3.165-0.029,4.687,0C49.231,49.02,47.669,49.02,46.107,49.02z"/>
		<path fill="#32BBED" d="M45.984,50.07c-0.029-0.257-0.029-0.636,0-0.892C45.984,49.475,45.984,49.772,45.984,50.07z"/>
		<path fill="#32BBED" d="M53.189,49.667c0.028,1.521,0.028,3.165,0,4.687C53.189,52.792,53.189,51.229,53.189,49.667z"/>
		<path fill="#32BBED" d="M46.107,50.262c1.253,0,2.506,0,3.759,0C48.732,50.291,47.309,50.291,46.107,50.262z"/>
		<path fill="#32BBED" d="M52.577,51.066c0.012-0.169-0.023-0.385,0.018-0.524c-0.012,0.175,0.023,0.396-0.018,0.542
			C52.577,51.078,52.577,51.072,52.577,51.066z"/>
		<path fill="#32BBED" d="M46.107,50.594c0.396-0.029,0.915-0.029,1.311,0C46.981,50.594,46.544,50.594,46.107,50.594z"/>
		<path fill="#32BBED" d="M47.978,50.594c0.467-0.029,1.148-0.029,1.556,0C49.015,50.594,48.497,50.594,47.978,50.594z"/>
		<path fill="#32BBED" d="M47.873,50.629c0,0.069,0,0.14,0,0.21C47.844,50.809,47.844,50.659,47.873,50.629z"/>
		<path fill="#32BBED" d="M45.984,50.699c0,0.653,0,1.306,0,1.959C45.955,52.045,45.955,51.311,45.984,50.699z"/>
		<path fill="#32BBED" d="M47.541,50.699c0.029,0.612,0.029,1.347,0,1.959C47.541,52.004,47.541,51.352,47.541,50.699z"/>
		<path fill="#32BBED" d="M48.975,50.891c0.082-0.04,0.239-0.006,0.349-0.018C49.243,50.915,49.085,50.879,48.975,50.891z"/>
		<path fill="#32BBED" d="M47.908,51.223c0.402-0.029,0.927-0.029,1.329,0C48.794,51.223,48.351,51.223,47.908,51.223z"/>
		<path fill="#32BBED" d="M47.995,51.521c0.105-0.029,0.332-0.029,0.438,0C48.287,51.521,48.141,51.521,47.995,51.521z"/>
		<path fill="#32BBED" d="M48.485,51.521c0.03-0.029,0.18-0.029,0.21,0C48.625,51.521,48.555,51.521,48.485,51.521z"/>
		<path fill="#32BBED" d="M48.922,51.521c0.036-0.029,0.191-0.029,0.228,0C49.074,51.521,48.998,51.521,48.922,51.521z"/>
		<path fill="#32BBED" d="M49.674,51.835c0.011-0.053-0.022-0.15,0.017-0.175C49.68,51.714,49.714,51.811,49.674,51.835z"/>
		<path fill="#32BBED" d="M47.873,52.098c-0.029-0.03-0.029-0.18,0-0.21C47.873,51.958,47.873,52.028,47.873,52.098z"/>
		<path fill="#32BBED" d="M47.925,52.151c0.361,0,0.723,0,1.084,0C48.689,52.179,48.246,52.179,47.925,52.151z"/>
		<path fill="#32BBED" d="M47.978,52.465c0.251-0.029,0.624-0.029,0.875,0C48.561,52.465,48.269,52.465,47.978,52.465z"/>
		<path fill="#32BBED" d="M47.873,52.727c-0.029-0.03-0.029-0.18,0-0.21C47.873,52.587,47.873,52.658,47.873,52.727z"/>
		<path fill="#32BBED" d="M46.457,52.78c0.036-0.029,0.191-0.029,0.227,0C46.608,52.78,46.532,52.78,46.457,52.78z"/>
		<path fill="#32BBED" d="M46.911,52.78c0.036-0.029,0.191-0.029,0.227,0C47.063,52.78,46.987,52.78,46.911,52.78z"/>
		<path fill="#32BBED" d="M50.356,55.875c0.028,0.036,0.028,0.191,0,0.228C50.356,56.027,50.356,55.951,50.356,55.875z"/>
		<path fill="#32BBED" d="M46.614,55.892c0,0.07,0,0.141,0,0.21C46.585,56.072,46.585,55.922,46.614,55.892z"/>
		<path fill="#32BBED" d="M50.216,56.225c-1.108,0.028-2.338,0.028-3.445,0C47.919,56.225,49.068,56.225,50.216,56.225z"/>
		<path fill="#32BBED" d="M52.699,47.517c0.104-0.118,0.215-0.229,0.333-0.333C52.928,47.302,52.817,47.413,52.699,47.517z"/>
		<path fill="#32BBED" d="M52.612,47.621c0.018-0.046,0.069-0.059,0.087-0.105c0.118-0.103,0.229-0.214,0.333-0.332
			c0.022-0.006,0.027-0.031,0.052-0.035C52.934,47.314,52.777,47.471,52.612,47.621z"/>
		<path fill="#32BBED" d="M53.083,47.149c0.163-0.086,0.349-0.368,0.56-0.297c0.285,0.095,0.021,0.636-0.069,0.839
			c-0.354,0.794-0.889,1.579-1.329,2.186c-0.224-0.038-0.426-0.109-0.595-0.245c-0.096-0.077-0.294-0.3-0.297-0.402
			c-0.004-0.099,0.199-0.332,0.279-0.437c0.305-0.4,0.695-0.854,0.979-1.172C52.777,47.471,52.934,47.314,53.083,47.149z"/>
		<path fill="#32BBED" d="M47.576,55c-1.002-0.053-2.127,0.018-3.13-0.035c0.658,0,1.621,0,2.378,0
			C47.048,54.965,47.563,54.942,47.576,55z"/>
		<path fill="#32BBED" d="M49.412,55.071c-0.038,0.003-0.008-0.063-0.018-0.088c1.021-0.04,2.116-0.006,3.165-0.018
			c-0.501,0.041-1.078,0.006-1.608,0.018c-0.269,0-0.536,0-0.805,0c-0.134,0-0.268,0-0.402,0
			C49.636,55.016,49.384,54.904,49.412,55.071z"/>
		<path fill="#32BBED" d="M44.463,48.408c0.156-0.062,0.513-0.035,0.787-0.035c1.905,0,3.864,0,5.683,0c0,0.006,0,0.011,0,0.017
			C48.782,48.402,46.585,48.367,44.463,48.408z"/>
		<path fill="#32BBED" d="M44.463,47.761c2.364-0.018,4.912-0.052,7.274,0.018c-0.014,0.003-0.017,0.017-0.034,0.017
			c0.005-0.028,0.025-0.027-0.018-0.035c-0.258-0.046-0.592,0-0.893,0C48.684,47.761,46.517,47.761,44.463,47.761z"/>
		<path fill="#32BBED" d="M50.845,52.028c-0.092,0.129-0.198,0.245-0.332,0.332c0.103-0.113,0.226-0.205,0.314-0.332
			C50.833,52.028,50.839,52.028,50.845,52.028z"/>
		<path fill="#32BBED" d="M51.737,50.489c0.024-0.051,0.081-0.07,0.105-0.122c0.02-0.004,0.027-0.02,0.035-0.035
			C52.091,50.142,51.824,50.425,51.737,50.489z"/>
		<path fill="#32BBED" d="M49.691,51.661c0.081-0.643,0.426-1.02,1.05-1.119c0.075-0.362,0.189-0.685,0.35-0.961
			c0.211,0.296,0.456,0.558,0.874,0.647c-0.018,0.046-0.069,0.059-0.087,0.104c-0.008,0.016-0.016,0.031-0.035,0.035
			c-0.065,0.051-0.124,0.109-0.175,0.175c-0.147,0.121-0.304,0.233-0.49,0.314c0.145,0.477-0.117,0.893-0.332,1.172
			c-0.006,0-0.012,0-0.018,0c-0.089,0.127-0.212,0.22-0.314,0.332c-0.25,0.243-0.819,0.493-1.241,0.245
			c-0.018-0.165,0.152-0.203,0.228-0.298c0.099-0.123,0.139-0.27,0.175-0.472C49.714,51.811,49.68,51.714,49.691,51.661z"/>
		<path fill="#32BBED" d="M51.667,50.542c0.051-0.065,0.109-0.124,0.175-0.175c-0.024,0.052-0.081,0.071-0.105,0.122
			C51.702,50.495,51.703,50.537,51.667,50.542z"/>
		<path fill="#32BBED" d="M49.534,50.594c-0.054,0.109-0.099,0.227-0.21,0.279c-0.11,0.012-0.268-0.022-0.349,0.018
			c-0.356-0.011-0.757,0.022-1.084-0.018c-0.003-0.014-0.018-0.018-0.018-0.034c0-0.07,0-0.141,0-0.21
			c0.003-0.015,0.018-0.018,0.018-0.035c0.029,0,0.058,0,0.087,0C48.497,50.594,49.015,50.594,49.534,50.594z"/>
		<path fill="#32BBED" d="M49.219,51.958c-0.02,0.115-0.092,0.177-0.21,0.193c-0.361,0-0.723,0-1.084,0c-0.012,0-0.023,0-0.035,0
			c-0.009-0.015-0.019-0.029-0.018-0.053c0-0.07,0-0.141,0-0.21c0-0.012,0-0.023,0-0.035c0.028,0.005,0.03-0.017,0.052-0.018
			c0.431,0,0.863,0,1.294,0C49.219,51.876,49.219,51.917,49.219,51.958z"/>
		<path fill="#32BBED" d="M47.925,51.835c0.195-0.03,0.656-0.018,0.979-0.018c0.183,0,0.416-0.049,0.315,0.14
			c0-0.04,0-0.081,0-0.122C48.788,51.835,48.356,51.835,47.925,51.835z"/>
		<path fill="#32BBED" d="M49.237,51.223c0.005,0.116-0.007,0.215-0.035,0.298c-0.018,0-0.036,0-0.053,0
			c-0.036-0.029-0.191-0.029-0.228,0c-0.076,0-0.151,0-0.227,0c-0.03-0.029-0.18-0.029-0.21,0c-0.018,0-0.035,0-0.053,0
			c-0.105-0.029-0.332-0.029-0.437,0c-0.043,0.002-0.084,0.002-0.105-0.018c-0.05-0.057-0.055-0.244,0.018-0.28
			C48.351,51.223,48.794,51.223,49.237,51.223z"/>
		<path fill="#32BBED" d="M52.559,53.322c0.012-0.746-0.023-1.539,0.018-2.256c0,0.006,0,0.012,0,0.018
			C52.565,51.824,52.6,52.611,52.559,53.322z"/>
		<path fill="#32BBED" d="M44.48,53.392c2.652,0.011,5.351-0.023,7.974,0.018C49.802,53.398,47.104,53.433,44.48,53.392z"/>
		<path fill="#32BBED" d="M45.984,49.178c-0.009-0.102,0.028-0.159,0.122-0.158c1.563,0,3.125,0,4.686,0
			c-0.201,0.323-0.327,0.722-0.454,1.119c-0.117,0.081-0.299,0.098-0.473,0.123c-1.253,0-2.506,0-3.759,0
			c-0.091-0.014-0.134-0.076-0.122-0.193C45.984,49.772,45.984,49.475,45.984,49.178z"/>
		<path fill="#32BBED" d="M45.984,50.699c0.016-0.06,0.043-0.108,0.122-0.104c0.438,0,0.875,0,1.312,0
			c0.077-0.002,0.115,0.037,0.123,0.104c0,0.653,0,1.306,0,1.959c-0.014,0.16-0.233,0.116-0.402,0.122
			c-0.036-0.029-0.191-0.029-0.227,0c-0.076,0-0.152,0-0.228,0c-0.036-0.029-0.191-0.029-0.227,0
			c-0.184-0.015-0.453,0.057-0.472-0.122C45.984,52.004,45.984,51.352,45.984,50.699z"/>
		<path fill="#32BBED" d="M47.978,52.465c0.292,0,0.583,0,0.875,0c0.021,0.101,0.04,0.205,0.052,0.314
			c-0.292-0.031-0.868,0.063-1.031-0.053c0-0.069,0-0.14,0-0.21C47.871,52.463,47.926,52.465,47.978,52.465z"/>
	</g>
</g>
</svg>
