<?xml version="1.0" encoding="utf-8"?>
<!-- Generator: Adobe Illustrator 14.0.0, SVG Export Plug-In . SVG Version: 6.00 Build 43363)  -->
<!DOCTYPE svg PUBLIC "-//W3C//DTD SVG 1.1//EN" "http://www.w3.org/Graphics/SVG/1.1/DTD/svg11.dtd">
<svg version="1.1" id="Layer_1" xmlns="http://www.w3.org/2000/svg" xmlns:xlink="http://www.w3.org/1999/xlink" x="0px" y="0px"
	 width="22px" height="22px" viewBox="-0.216 -0.216 22 22" enable-background="new -0.216 -0.216 22 22" xml:space="preserve">
<g>
	<g>
		<path fill="#FFCA09" stroke="#0C5E91" stroke-width="0.15" d="M15.642,4.1l1.432-1.972c-1.768-1.286-3.936-2.053-6.289-2.053
			v2.438C12.602,2.514,14.276,3.105,15.642,4.1z"/>
		<path fill="#FFCA09" stroke="#0C5E91" stroke-width="0.15" d="M10.784,2.514L10.784,2.514V0.076l0,0
			c-2.353,0-4.521,0.769-6.288,2.053L5.928,4.1C7.292,3.105,8.967,2.514,10.784,2.514z"/>
		<path fill="#32BBED" stroke="#0C5E91" stroke-width="0.15" d="M19.056,10.783c0,0.893-0.146,1.75-0.407,2.557l2.316,0.755
			c0.34-1.046,0.527-2.154,0.527-3.312c0-1.154-0.188-2.266-0.527-3.307l-2.316,0.752C18.91,9.033,19.056,9.891,19.056,10.783z"/>
		<path fill="#FFCA09" stroke="#0C5E91" stroke-width="0.15" d="M5.928,4.1L4.496,2.129C2.689,3.443,1.308,5.305,0.603,7.477
			L2.92,8.229C3.465,6.553,4.531,5.115,5.928,4.1z"/>
		<path fill="#FFCA09" stroke="#0C5E91" stroke-width="0.15" d="M18.648,8.229l2.316-0.752c-0.705-2.172-2.086-4.031-3.893-5.349
			L15.642,4.1C17.037,5.115,18.104,6.553,18.648,8.229z"/>
		<path fill="#32BBED" stroke="#0C5E91" stroke-width="0.15" d="M10.784,19.057v2.438c2.354,0,4.521-0.77,6.288-2.055l-1.431-1.971
			C14.276,18.463,12.602,19.057,10.784,19.057z"/>
		<path fill="#32BBED" stroke="#0C5E91" stroke-width="0.15" d="M20.966,14.094l-2.316-0.755c-0.545,1.679-1.611,3.113-3.007,4.13
			l1.431,1.971C18.88,18.125,20.261,16.264,20.966,14.094z"/>
		<path fill="#FFCA09" stroke="#0C5E91" stroke-width="0.15" d="M2.513,10.783c0-0.893,0.146-1.75,0.406-2.555L0.603,7.477
			c-0.339,1.041-0.527,2.151-0.527,3.307c0,1.156,0.188,2.269,0.527,3.312L2.92,13.34C2.658,12.535,2.513,11.676,2.513,10.783z"/>
		<path fill="#FFCA09" stroke="#0C5E91" stroke-width="0.15" d="M10.784,19.057c-1.817,0-3.492-0.595-4.855-1.586L4.496,19.44
			c1.769,1.287,3.937,2.055,6.288,2.055l0,0V19.057L10.784,19.057z"/>
		<path fill="#FFCA09" stroke="#0C5E91" stroke-width="0.15" d="M2.92,13.34l-2.316,0.755c0.705,2.17,2.087,4.03,3.894,5.346
			l1.433-1.969C4.532,16.455,3.465,15.018,2.92,13.34z"/>
		<rect x="10.785" y="10.785" fill="#FFCA09" stroke="#0C5E91" stroke-width="0.15" width="0" height="0.001"/>
		<polygon fill="#FFCA09" stroke="#0C5E91" stroke-width="0.15" points="10.785,10.785 10.785,10.783 10.784,10.783 		"/>
		<polygon fill="#FFCA09" stroke="#0C5E91" stroke-width="0.15" points="10.784,10.785 10.784,10.785 10.784,10.785 		"/>
		<polygon fill="#FFCA09" stroke="#0C5E91" stroke-width="0.15" points="10.784,10.783 10.784,10.783 10.784,10.783 		"/>
		<path fill="#FFCA09" stroke="#0C5E91" stroke-width="0.15" d="M10.784,10.783L10.784,10.783L10.784,10.783z"/>
		<polygon fill="#FFCA09" stroke="#0C5E91" stroke-width="0.15" points="10.784,10.783 10.784,10.785 10.784,10.785 		"/>
	</g>
	<circle fill="#0C5E91" stroke="#FFFFFF" stroke-width="0.3" cx="10.784" cy="10.783" r="6.935"/>
	<text transform="matrix(1 0 0 1 6.0793 12.6912)" fill="#FFFFFF" font-family="'Exo2-Thin'" font-size="6.5439">70</text>
	<text transform="matrix(1 0 0 1 13.2058 12.6912)" fill="#FFFFFF" font-family="'Exo2-Thin'" font-size="3.2465">%</text>
</g>
</svg>
