<?xml version="1.0" encoding="utf-8"?>
<!-- Generator: Adobe Illustrator 14.0.0, SVG Export Plug-In . SVG Version: 6.00 Build 43363)  -->
<!DOCTYPE svg PUBLIC "-//W3C//DTD SVG 1.1//EN" "http://www.w3.org/Graphics/SVG/1.1/DTD/svg11.dtd">
<svg version="1.1" id="Layer_1" xmlns="http://www.w3.org/2000/svg" xmlns:xlink="http://www.w3.org/1999/xlink" x="0px" y="0px"
	 width="80.25px" height="4.891px" viewBox="0 0 80.25 4.891" enable-background="new 0 0 80.25 4.891" xml:space="preserve">
<g>
	<path fill="none" stroke="#FFFFFF" stroke-width="0.25" d="M78.379,0.146c-0.016,0-0.027,0.005-0.044,0.006V0.146H0.125v4.639
		h78.21V4.781c0.017,0,0.028,0.006,0.044,0.006c0.964,0,1.746-1.039,1.746-2.321C80.125,1.183,79.343,0.146,78.379,0.146z"/>
	<g>
		<rect x="3.905" y="1.212" fill="#FFCB0C" width="4.4" height="2.509"/>
		<rect x="11.466" y="1.212" fill="#FFCB0C" width="4.399" height="2.509"/>
		<rect x="19.024" y="1.212" fill="#FFCB0C" width="4.4" height="2.509"/>
		<rect x="26.584" y="1.212" fill="#FFCB0C" width="4.4" height="2.509"/>
		<rect x="34.145" y="1.212" fill="#FFCB0C" width="4.397" height="2.509"/>
		<rect x="41.705" y="1.212" fill="#39BBED" width="4.396" height="2.509"/>
		<rect x="49.264" y="1.212" fill="#39BBED" width="4.398" height="2.509"/>
		<rect x="56.822" y="1.212" fill="#39BBED" width="4.4" height="2.509"/>
		<rect x="64.385" y="1.212" fill="#39BBED" width="4.397" height="2.509"/>
		<rect x="71.944" y="1.212" fill="#39BBED" width="4.399" height="2.509"/>
	</g>
</g>
</svg>
