<?xml version="1.0" encoding="utf-8"?>
<!-- Generator: Adobe Illustrator 14.0.0, SVG Export Plug-In . SVG Version: 6.00 Build 43363)  -->
<!DOCTYPE svg PUBLIC "-//W3C//DTD SVG 1.1//EN" "http://www.w3.org/Graphics/SVG/1.1/DTD/svg11.dtd">
<svg version="1.1" id="Layer_1" xmlns="http://www.w3.org/2000/svg" xmlns:xlink="http://www.w3.org/1999/xlink" x="0px" y="0px"
	 width="17.436px" height="17.435px" viewBox="0 0 17.436 17.435" enable-background="new 0 0 17.436 17.435" xml:space="preserve">
<path fill="#39BBED" d="M15.567,0h-13.7C0.836,0-0.001,0.836-0.001,1.868v13.7c0,1.031,0.837,1.868,1.868,1.868h13.7
	c1.031,0,1.869-0.837,1.869-1.868v-13.7C17.437,0.836,16.599,0,15.567,0z M14.929,11.962l-0.584,2.53
	c-0.061,0.265-0.297,0.452-0.568,0.452C7.549,14.945,2.49,9.897,2.49,3.658C2.5,3.389,2.683,3.16,2.941,3.089l2.53-0.584
	c0.044-0.009,0.087-0.014,0.132-0.015C5.833,2.502,6.039,2.637,6.14,2.844l1.167,2.725C7.336,5.642,7.352,5.72,7.354,5.798
	C7.345,5.972,7.269,6.134,7.141,6.25L5.666,7.458c0.894,1.894,2.417,3.418,4.312,4.312l1.207-1.476
	c0.117-0.127,0.279-0.204,0.451-0.214c0.078,0.003,0.158,0.019,0.23,0.048l2.725,1.167c0.207,0.102,0.342,0.307,0.354,0.537
	C14.944,11.875,14.938,11.919,14.929,11.962z"/>
</svg>
