<?xml version="1.0" encoding="utf-8"?>
<!-- Generator: Adobe Illustrator 14.0.0, SVG Export Plug-In . SVG Version: 6.00 Build 43363)  -->
<!DOCTYPE svg PUBLIC "-//W3C//DTD SVG 1.1//EN" "http://www.w3.org/Graphics/SVG/1.1/DTD/svg11.dtd">
<svg version="1.1" id="Layer_1" xmlns="http://www.w3.org/2000/svg" xmlns:xlink="http://www.w3.org/1999/xlink" x="0px" y="0px"
	 width="10px" height="10.038px" viewBox="43.705 44.109 10 10.038" enable-background="new 43.705 44.109 10 10.038"
	 xml:space="preserve">
<g>
	<path fill="#32BBED" d="M46.053,44.571c0.678,0,1.356,0,2.035,0c0.044-0.117-0.021-0.345,0.064-0.419
		c0.313-0.045,0.876-0.072,1.163,0.016c0.06,0.08,0.021,0.258,0.032,0.388c0.646,0.038,1.362,0.005,2.035,0.016
		c0.141-0.298,0.382-0.536,0.791-0.436c0.34,0.083,0.54,0.497,0.404,0.84c-0.199,0.504-1.062,0.448-1.18-0.097
		c-0.446,0-0.894,0-1.34,0c0.661,0.426,1.199,0.975,1.405,1.857c0.169,0.009,0.384-0.029,0.484,0.048
		c0.086,0.279,0.062,0.826,0.016,1.131c-0.272,0.097-0.946,0.118-1.194-0.017c-0.027-0.324-0.027-0.757,0-1.082
		c0.064-0.081,0.201-0.089,0.354-0.081c-0.266-0.913-0.854-1.505-1.776-1.76c-0.037,0.098,0.009,0.277-0.064,0.339
		c-0.342,0.017-0.832,0.047-1.147-0.016c-0.071-0.053-0.043-0.204-0.048-0.323c-0.886,0.223-1.509,0.849-1.777,1.744
		c0.106,0.034,0.284-0.003,0.339,0.081c0.063,0.299,0.033,0.773,0.016,1.098c-0.243,0.131-0.913,0.117-1.179,0.017
		c-0.045-0.307-0.07-0.85,0.016-1.131c0.093-0.074,0.292-0.042,0.453-0.048c0.251-0.836,0.726-1.449,1.421-1.841
		c-0.409-0.038-0.888-0.005-1.324-0.016c-0.083,0.105-0.096,0.211-0.178,0.291c-0.595,0.574-1.437-0.356-0.872-0.888
		C45.332,43.97,45.955,44.128,46.053,44.571z"/>
	<path fill="#32BBED" d="M45.842,46.138c-0.024,0.115-0.076,0.204-0.113,0.307c-0.401,0.019-0.88-0.041-1.228,0.032
		c-0.087,0.399-0.048,0.87-0.048,1.341c0,1.345,0,2.763,0,4.119c2.805,0.038,5.68,0.005,8.512,0.017
		c0.017-1.777,0.048-3.71-0.017-5.459c-0.329-0.107-0.852-0.021-1.26-0.048c-0.027-0.113-0.081-0.198-0.112-0.307
		c0.251,0,0.489,0,0.727,0c0.424,0,0.821-0.062,0.953,0.259c0.121,0.294,0.032,1.052,0.032,1.437c0,1.41,0.025,3.136-0.032,4.377
		c-0.325,0.088-0.704,0.049-1.099,0.049c-2.609,0-5.385,0.026-7.962-0.032c-0.086-0.204-0.048-0.45-0.048-0.694
		c0-1.403,0-2.923,0-4.377c0-0.507-0.061-0.943,0.355-1.018C44.959,46.055,45.34,46.198,45.842,46.138z"/>
	<path fill="#32BBED" d="M48.54,46.25c0.038,0.49,0.006,1.05,0.016,1.567c-0.124,0.107-0.259,0.151-0.323,0.291
		c-0.165,0.364,0.079,0.721,0.355,0.775c0.699,0.139,0.89-0.848,0.291-1.05c0-0.517,0-1.034,0-1.55
		c0.063-0.022,0.076,0.067,0.097,0.097c0.434,0.614,0.876,1.266,1.325,1.922c0.072,0.106,0.174,0.245,0.178,0.323
		c0.009,0.169-0.152,0.41-0.227,0.582c-0.085,0.198-0.153,0.379-0.242,0.549c-0.861,0-1.723,0-2.584,0
		c-0.067-0.193-0.154-0.365-0.242-0.565c-0.073-0.166-0.229-0.405-0.226-0.565c0.002-0.157,0.257-0.447,0.371-0.614
		C47.726,47.433,48.2,46.768,48.54,46.25z"/>
	<path fill="#32BBED" d="M48.653,48.141c0.193-0.053,0.287,0.056,0.291,0.194c0.008,0.286-0.444,0.318-0.453,0.016
		C48.488,48.239,48.541,48.171,48.653,48.141z"/>
	<path fill="#32BBED" d="M50.123,50.111c0.045,0.241,0.07,0.722-0.017,0.937c-0.846,0.054-1.916,0.054-2.761,0
		c-0.046-0.068-0.123-0.888,0.016-0.953c0.244-0.114,1.062-0.031,1.437-0.031C49.292,50.063,49.778,50.026,50.123,50.111z"/>
	<path fill="#32BBED" d="M53.692,52.615c0.102,0.762-0.413,1.369-1.066,1.502c-0.265,0.054-0.621,0.016-0.969,0.016
		c-1.907,0-3.968,0-5.895,0c-0.339,0-0.683,0.041-0.953-0.016c-0.475-0.1-0.909-0.509-1.05-0.985
		c-0.069-0.234-0.104-0.52,0.097-0.565c0.301-0.068,0.905,0,1.244,0c2.478,0,4.942,0,7.414,0
		C52.911,52.566,53.309,52.527,53.692,52.615z M48.281,53.47c0.222,0.053,0.65,0.053,0.872,0c0.047-0.06,0.035-0.162,0-0.226
		C48.924,53.185,48.098,53.065,48.281,53.47z"/>
</g>
</svg>
