<?xml version="1.0" encoding="utf-8"?>
<!-- Generator: Adobe Illustrator 14.0.0, SVG Export Plug-In . SVG Version: 6.00 Build 43363)  -->
<!DOCTYPE svg PUBLIC "-//W3C//DTD SVG 1.1//EN" "http://www.w3.org/Graphics/SVG/1.1/DTD/svg11.dtd">
<svg version="1.1" id="Layer_1" xmlns="http://www.w3.org/2000/svg" xmlns:xlink="http://www.w3.org/1999/xlink" x="0px" y="0px"
	 width="24px" height="24px" viewBox="3 3 24 24" enable-background="new 3 3 24 24" xml:space="preserve">
<g>
	<circle fill="#A6A8AB" cx="15" cy="14.998" r="12"/>
	<g>
		<path fill-rule="evenodd" clip-rule="evenodd" fill="#FFFFFF" d="M11.684,6.799c0.248,0.219,0.303,1.211-0.077,1.236
			C11.205,8.061,10.822,6.551,11.684,6.799z"/>
		<path fill-rule="evenodd" clip-rule="evenodd" fill="#FFFFFF" d="M14.617,7.531c0.097,0.566-0.331,0.928-0.888,0.967
			C13.572,8.053,14.078,7.156,14.617,7.531z"/>
		<path fill-rule="evenodd" clip-rule="evenodd" fill="#FFFFFF" d="M9.638,8.961C9.235,9.002,8.593,8.686,8.594,8.305
			C8.596,7.564,9.925,8.281,9.638,8.961z"/>
		<path fill-rule="evenodd" clip-rule="evenodd" fill="#FFFFFF" d="M11.645,8.844c1.652-0.201,2.625,0.744,2.973,1.932
			c0.12,0.408,0.071,0.791,0.155,1.313c0.056,0.352,0.285,0.398,0.27,0.695c-0.018,0.359-0.548,0.666-0.772,0.889
			c-0.215,0.217-0.548,0.74-0.85,0.773c-0.279,0.029-0.437-0.197-0.656-0.232c-0.535-0.086-0.967,0.006-1.428-0.117
			c-1.132-0.301-2.128-1.42-1.97-2.971C9.473,10.094,10.297,9.008,11.645,8.844z M10.254,10.389c-0.056,0.094-0.21,0.275-0.27,0.813
			c-0.105,0.951,0.398,1.816,1.158,2.162c1.606,0.729,3.18-0.664,2.935-2.277c-0.156-1.035-1.168-1.797-2.354-1.623
			C11.017,9.566,10.521,9.951,10.254,10.389z"/>
		<path fill-rule="evenodd" clip-rule="evenodd" fill="#FFFFFF" d="M20.022,13.672c0.21,0.826,0.956,1.752,0.426,2.625
			c0.007,0.395,1.082,1.313,1.003,1.775c-0.054,0.32-0.462,0.242-0.733,0.426c0.079,0.57-0.172,0.996-0.076,1.43
			c-0.481,0.508,0.182,1.332-0.155,1.893c-0.363,0.604-1.621,0.102-2.471,0.271c-0.022,0.334,0.047,0.768-0.038,1.041
			c-1.559,0.129-3.653,0.129-5.214,0c0.056-1.148,0.556-2.289,0.425-3.553c-0.191-1.879-1.974-2.904-2.008-4.904
			c0.451,0.189,0.821,0.096,1.275,0.154c0.572,0.074,0.889,0.49,1.312,0.541c0.899,0.107,1.784-0.836,2.046-1.467
			c0.313-0.754-0.23-1.172-0.385-1.893c-0.156-0.725-0.021-1.465-0.387-1.93c1.591-0.266,4.712-0.055,5.6,1.08
			C21.267,11.965,20.987,13.404,20.022,13.672z"/>
		<path fill-rule="evenodd" clip-rule="evenodd" fill="#FFFFFF" d="M11.916,10.545c0.568,0.475,1.154,0.93,1.62,1.504
			c-0.432-0.117-0.786-0.318-1.196-0.461c-0.071,0.25-0.09,0.553-0.116,0.85c-0.59-0.453-1.171-0.916-1.621-1.508
			c0.369,0.16,0.769,0.289,1.12,0.465C11.852,11.178,11.844,10.818,11.916,10.545z"/>
		<path fill-rule="evenodd" clip-rule="evenodd" fill="#FFFFFF" d="M8.594,10.93c-0.116,0.426-0.852,0.438-1.234,0.271
			C7.029,10.361,8.406,10.57,8.594,10.93z"/>
		<path fill-rule="evenodd" clip-rule="evenodd" fill="#FFFFFF" d="M9.136,13.248c0.206,0.584-1.02,1.344-1.082,0.656
			C8.016,13.48,8.662,13.164,9.136,13.248z"/>
		<path fill-rule="evenodd" clip-rule="evenodd" fill="#FFFFFF" d="M15.275,13.248c-0.114,0.854-0.722,1.414-1.508,1.467
			C14.215,14.197,14.763,13.574,15.275,13.248z"/>
	</g>
</g>
</svg>
