<?xml version="1.0" encoding="utf-8"?>
<!-- Generator: Adobe Illustrator 14.0.0, SVG Export Plug-In . SVG Version: 6.00 Build 43363)  -->
<!DOCTYPE svg PUBLIC "-//W3C//DTD SVG 1.1//EN" "http://www.w3.org/Graphics/SVG/1.1/DTD/svg11.dtd">
<svg version="1.1" id="Layer_1" xmlns="http://www.w3.org/2000/svg" xmlns:xlink="http://www.w3.org/1999/xlink" x="0px" y="0px"
	 width="24px" height="24px" viewBox="3 3 24 24" enable-background="new 3 3 24 24" xml:space="preserve">
<g>
	<circle fill="#A6A8AB" cx="15" cy="14.999" r="12"/>
	<path fill="#FFFFFF" d="M21.591,9.053h-1.769V8.41h0.48c0.178,0,0.323-0.146,0.323-0.322c0-0.178-0.146-0.321-0.323-0.321h-1.606
		c-0.177,0-0.321,0.144-0.321,0.321c0,0.177,0.145,0.322,0.321,0.322h0.482v0.643h-3.857V8.41h0.482
		c0.177,0,0.321-0.146,0.321-0.322c0-0.178-0.145-0.321-0.321-0.321h-1.607c-0.177,0-0.321,0.144-0.321,0.321
		c0,0.177,0.145,0.322,0.321,0.322h0.482v0.643h-3.857V8.41h0.481c0.178,0,0.322-0.146,0.322-0.322c0-0.178-0.145-0.321-0.322-0.321
		H9.695c-0.176,0-0.321,0.144-0.321,0.321c0,0.177,0.146,0.322,0.321,0.322h0.482v0.643H8.409c-0.354,0-0.642,0.287-0.642,0.643
		v5.787c0,0.355,0.288,0.643,0.642,0.643h2.573v0.965H9.695c-0.176,0-0.321,0.145-0.321,0.322c0,0.176,0.146,0.32,0.321,0.32h4.18
		v3.857h-2.572c-0.177,0-0.32,0.146-0.32,0.322c0,0.178,0.144,0.321,0.32,0.321h7.394c0.178,0,0.321-0.144,0.321-0.321
		c0-0.177-0.144-0.322-0.321-0.322h-2.571v-3.857h4.178c0.178,0,0.323-0.145,0.323-0.32c0-0.178-0.146-0.322-0.323-0.322h-1.285
		v-0.965h2.573c0.354,0,0.641-0.287,0.641-0.643V9.695C22.231,9.34,21.944,9.053,21.591,9.053z M13.875,17.09h-2.25v-0.965h2.25
		V17.09z M15.482,21.59h-0.965v-5.465h0.965V21.59z M18.375,17.09h-2.25v-0.965h2.25V17.09z M21.591,15.482H8.409V9.695h13.182
		V15.482z M9.374,10.98c0-0.176,0.146-0.32,0.321-0.32h3.538c0.177,0,0.319,0.145,0.319,0.32c0,0.178-0.143,0.322-0.319,0.322H9.695
		C9.52,11.303,9.374,11.158,9.374,10.98z M9.374,12.588c0-0.176,0.146-0.32,0.321-0.32h3.538c0.177,0,0.319,0.145,0.319,0.32
		c0,0.178-0.143,0.322-0.319,0.322H9.695C9.52,12.91,9.374,12.766,9.374,12.588z M9.374,14.197c0-0.178,0.146-0.322,0.321-0.322
		h3.538c0.177,0,0.319,0.145,0.319,0.322c0,0.176-0.143,0.32-0.319,0.32H9.695C9.52,14.518,9.374,14.373,9.374,14.197z
		 M14.84,14.518h5.463c0.117,0,0.223-0.061,0.28-0.16s0.058-0.224,0-0.323l-1.871-3.216c-0.057-0.098-0.164-0.158-0.276-0.158
		c-0.115,0-0.22,0.061-0.278,0.158l-0.587,1.007l-0.583-1.007c-0.061-0.098-0.165-0.158-0.279-0.158
		c-0.112,0-0.221,0.061-0.277,0.158l-1.87,3.216c-0.057,0.1-0.057,0.224,0,0.323S14.723,14.518,14.84,14.518z M18.436,11.621
		l1.31,2.254h-0.983l-0.819-1.41L18.436,11.621z M16.708,11.621l1.313,2.254h-2.622L16.708,11.621z"/>
</g>
</svg>
