<?xml version="1.0" encoding="utf-8"?>
<!-- Generator: Adobe Illustrator 14.0.0, SVG Export Plug-In . SVG Version: 6.00 Build 43363)  -->
<!DOCTYPE svg PUBLIC "-//W3C//DTD SVG 1.1//EN" "http://www.w3.org/Graphics/SVG/1.1/DTD/svg11.dtd">
<svg version="1.1" id="Layer_1" xmlns="http://www.w3.org/2000/svg" xmlns:xlink="http://www.w3.org/1999/xlink" x="0px" y="0px"
	 width="80.25px" height="4.891px" viewBox="5 0 80.25 4.891" enable-background="new 5 0 80.25 4.891" xml:space="preserve">
<g>
	<path fill="none" stroke="#FFFFFF" stroke-width="0.25" d="M83.379,0.125c-0.015,0-0.028,0.005-0.044,0.006V0.125H5.125v4.64h78.21
		V4.76c0.016,0.001,0.029,0.006,0.044,0.006c0.964,0,1.746-1.039,1.746-2.32C85.125,1.162,84.343,0.125,83.379,0.125z"/>
	<g>
		<rect x="9.329" y="1.192" fill="#FFCB0C" width="4.4" height="2.506"/>
		<rect x="16.889" y="1.192" fill="#FFCB0C" width="4.4" height="2.506"/>
		<rect x="24.448" y="1.192" fill="#FFCB0C" width="4.4" height="2.506"/>
		<rect x="32.008" y="1.192" fill="#FFCB0C" width="4.4" height="2.506"/>
		<rect x="39.568" y="1.192" fill="#FFCB0C" width="4.398" height="2.506"/>
		<rect x="47.129" y="1.192" fill="#FFCB0C" width="4.397" height="2.506"/>
		<rect x="54.687" y="1.192" fill="#FFCB0C" width="4.399" height="2.506"/>
		<rect x="62.246" y="1.192" fill="#FFCB0C" width="4.4" height="2.506"/>
		<rect x="69.808" y="1.192" fill="#39BBED" width="4.398" height="2.506"/>
		<rect x="77.368" y="1.192" fill="#39BBED" width="4.399" height="2.506"/>
	</g>
</g>
</svg>
