<?xml version="1.0" encoding="utf-8"?>
<!-- Generator: Adobe Illustrator 14.0.0, SVG Export Plug-In . SVG Version: 6.00 Build 43363)  -->
<!DOCTYPE svg PUBLIC "-//W3C//DTD SVG 1.1//EN" "http://www.w3.org/Graphics/SVG/1.1/DTD/svg11.dtd">
<svg version="1.1" id="Layer_1" xmlns="http://www.w3.org/2000/svg" xmlns:xlink="http://www.w3.org/1999/xlink" x="0px" y="0px"
	 width="15px" height="15px" viewBox="0 0 15 15" enable-background="new 0 0 15 15" xml:space="preserve">
<g>
	<path fill="#32BBED" d="M4.458,8.344h0.835c0.58,0,1.022-0.031,1.328-0.097C6.846,8.193,7.066,8.085,7.284,7.92
		c0.217-0.165,0.397-0.39,0.538-0.678C7.964,6.954,8.034,6.6,8.034,6.179c0-0.546-0.123-0.993-0.368-1.34
		C7.422,4.496,7.118,4.27,6.754,4.167C6.518,4.098,6.01,4.065,5.231,4.065H3.177v6.871h1.281V8.344z M4.458,5.226h0.618
		c0.462,0,0.768,0.017,0.921,0.047C6.206,5.315,6.376,5.416,6.511,5.58c0.135,0.163,0.203,0.368,0.203,0.617
		c0,0.204-0.048,0.383-0.146,0.534C6.473,6.885,6.341,6.996,6.169,7.069C6,7.142,5.662,7.176,5.157,7.176H4.458V5.226z"/>
	<path fill="#32BBED" d="M10.063,9.398c0-0.846,0.033-1.403,0.102-1.668s0.159-0.449,0.277-0.55
		c0.121-0.104,0.265-0.153,0.435-0.153c0.176,0,0.366,0.072,0.569,0.216l0.377-1.149c-0.258-0.166-0.522-0.25-0.801-0.25
		c-0.196,0-0.373,0.055-0.524,0.159c-0.151,0.108-0.328,0.329-0.521,0.663V5.958H8.848v4.978h1.215V9.398z"/>
	<path fill="#32BBED" d="M0,0v15h15V0H0z M13.674,13.654H1.326V1.345h12.347L13.674,13.654L13.674,13.654z"/>
</g>
</svg>
