<?xml version="1.0" encoding="utf-8"?>
<!-- Generator: Adobe Illustrator 14.0.0, SVG Export Plug-In . SVG Version: 6.00 Build 43363)  -->
<!DOCTYPE svg PUBLIC "-//W3C//DTD SVG 1.1//EN" "http://www.w3.org/Graphics/SVG/1.1/DTD/svg11.dtd">
<svg version="1.1" id="Layer_1" xmlns="http://www.w3.org/2000/svg" xmlns:xlink="http://www.w3.org/1999/xlink" x="0px" y="0px"
	 width="17.436px" height="17.435px" viewBox="0 0 17.436 17.435" enable-background="new 0 0 17.436 17.435" xml:space="preserve">
<g>
	<g>
		<path fill-rule="evenodd" clip-rule="evenodd" fill="#39BBED" d="M12.775,4.492c-1.074-0.929-4.291-0.637-6.227-0.503
			C3.816,4.178,3.906,5.684,3.906,8.517c0,1.813-0.158,4.038,1.07,4.717c1.098,0.607,6.506,0.541,7.484,0
			c1.242-0.687,1.068-2.555,1.068-4.779C13.529,6.893,13.621,5.224,12.775,4.492z M11.77,9.334c-0.23,1.522-1.73,2.743-3.648,2.452
			c-1.672-0.251-3.252-2.458-2.139-4.527c0.355-0.66,1.176-1.349,2.201-1.51C10.174,5.438,12.141,6.875,11.77,9.334z M11.58,6.315
			c-0.477-0.137-0.742-1.114,0-1.383C12.975,4.428,12.896,6.696,11.58,6.315z"/>
		<path fill-rule="evenodd" clip-rule="evenodd" fill="#39BBED" d="M8.309,6.881C6.32,7.276,6.35,10.27,8.246,10.655
			C11.387,11.294,11.35,6.279,8.309,6.881z"/>
		<path fill-rule="evenodd" clip-rule="evenodd" fill="#39BBED" d="M15.566,0H1.867C0.836,0,0,0.835,0,1.868v13.699
			c0,1.032,0.836,1.868,1.867,1.868h13.699c1.031,0,1.869-0.836,1.869-1.868V1.868C17.436,0.835,16.598,0,15.566,0z M14.662,8.58
			c0,2.589,0.049,4.568-1.447,5.535c-0.99,0.641-3.018,0.565-4.527,0.565c-2.295,0-4.496,0.055-5.408-1.572
			c-0.52-0.919-0.506-2.662-0.506-4.276c0-1.699-0.023-3.457,0.441-4.34C3.84,3.307,4.982,2.949,6.549,2.857
			c3.188-0.188,6.648-0.349,7.672,1.635C14.703,5.424,14.662,7.302,14.662,8.58z"/>
	</g>
</g>
</svg>
