<?xml version="1.0" encoding="utf-8"?>
<!-- Generator: Adobe Illustrator 14.0.0, SVG Export Plug-In . SVG Version: 6.00 Build 43363)  -->
<!DOCTYPE svg PUBLIC "-//W3C//DTD SVG 1.1//EN" "http://www.w3.org/Graphics/SVG/1.1/DTD/svg11.dtd">
<svg version="1.1" id="Layer_1" xmlns="http://www.w3.org/2000/svg" xmlns:xlink="http://www.w3.org/1999/xlink" x="0px" y="0px"
	 width="30px" height="30px" viewBox="0 0 30 30" enable-background="new 0 0 30 30" xml:space="preserve">
<g>
	<path fill="#0C5E91" d="M0,15C0,6.717,6.715-0.001,15-0.001S30,6.717,30,15c0,8.286-6.715,15.001-15,15.001S0,23.286,0,15"/>
	<path fill="#FFFFFF" d="M16.24,16.946c-0.179,0.586-0.717,1.014-1.361,1.014c-0.643,0-1.181-0.428-1.358-1.014H7.966
		c-0.35,0-0.681-0.081-0.977-0.223v3.688c0,0.719,0.587,1.311,1.308,1.311h13.166c0.721,0,1.309-0.592,1.309-1.311v-3.686
		c-0.297,0.14-0.628,0.221-0.978,0.221H16.24z"/>
	<path fill="#FFFFFF" d="M21.738,9.985h-3.143C18.407,8.8,17.377,7.89,16.139,7.89H13.62c-1.237,0-2.268,0.91-2.457,2.096H8.021
		c-0.749,0-1.363,0.592-1.363,1.311v3.021c0,0.723,0.587,1.311,1.31,1.311h5.493c0.017-0.379,0.18-0.716,0.436-0.962
		c0.006-0.008,0.017-0.013,0.023-0.02c0.058-0.05,0.117-0.101,0.181-0.144c0.022-0.016,0.05-0.026,0.073-0.041
		c0.053-0.031,0.105-0.062,0.163-0.085c0.043-0.019,0.093-0.029,0.139-0.043c0.042-0.012,0.081-0.028,0.122-0.037
		c0.092-0.019,0.188-0.027,0.284-0.027c0.098,0,0.189,0.009,0.28,0.027c0.043,0.009,0.08,0.025,0.123,0.037
		c0.047,0.014,0.096,0.024,0.14,0.043c0.058,0.025,0.109,0.054,0.162,0.085c0.022,0.015,0.05,0.025,0.073,0.041
		c0.064,0.043,0.123,0.094,0.18,0.144c0.008,0.007,0.017,0.012,0.026,0.02c0.255,0.247,0.415,0.583,0.437,0.962h5.492
		c0.722,0,1.308-0.588,1.308-1.311v-3.021C23.102,10.577,22.488,9.985,21.738,9.985 M12.425,9.985
		c0.167-0.503,0.635-0.871,1.195-0.871h2.519c0.56,0,1.03,0.368,1.198,0.871H12.425z"/>
</g>
</svg>
