<?xml version="1.0" encoding="utf-8"?>
<!-- Generator: Adobe Illustrator 14.0.0, SVG Export Plug-In . SVG Version: 6.00 Build 43363)  -->
<!DOCTYPE svg PUBLIC "-//W3C//DTD SVG 1.1//EN" "http://www.w3.org/Graphics/SVG/1.1/DTD/svg11.dtd">
<svg version="1.1" id="Layer_1" xmlns="http://www.w3.org/2000/svg" xmlns:xlink="http://www.w3.org/1999/xlink" x="0px" y="0px"
	 width="24px" height="24px" viewBox="3 3 24 24" enable-background="new 3 3 24 24" xml:space="preserve">
<g>
	<circle fill="#A6A8AB" cx="15" cy="14.999" r="12"/>
	<g>
		<path fill-rule="evenodd" clip-rule="evenodd" fill="#FFFFFF" d="M15.214,7.279c0.53-0.125,1.318-0.024,1.961-0.024
			c0.294,0,0.637,0,0.969,0c0.401,0,0.808-0.028,0.993,0.168c0.224,0.237,0.161,0.981,0.161,1.651c0,1.328,0,2.264,0,3.638
			c0,0.701,0.097,1.652-0.255,1.89c-0.345,0.234-1.424,0.098-1.984,0.098c-0.363,0-0.65,0-1.038,0c-0.524,0-0.966,0.042-1.153-0.289
			c-0.188-0.329-0.092-1.271-0.092-1.651c0-1.049,0-2.417,0-3.493C14.775,8.521,14.585,7.427,15.214,7.279z M15.189,8.165
			c0,1.77,0,3.542,0,5.313c1.225,0,2.447,0,3.669,0c0-1.794,0-3.59,0-5.385c-1.207,0-2.414,0-3.622,0
			C15.208,8.103,15.188,8.123,15.189,8.165z M16.922,14.46c0.546,0.133,0.657-0.867,0.021-0.72
			C16.528,13.837,16.678,14.398,16.922,14.46z"/>
		<path fill-rule="evenodd" clip-rule="evenodd" fill="#FFFFFF" d="M14.014,9.288c0,0.239,0,0.479,0,0.719c-1.065,0-2.181,0-3.323,0
			c-0.299,0-0.905-0.059-1.016,0.072c-0.105,0.127-0.045,0.688-0.045,0.885c0,0.94,0,1.894,0,2.802c-0.231,0-0.463,0-0.692,0
			c0-0.733,0-1.455,0-2.25c0-1.094-0.17-2.127,0.853-2.228C11.082,9.163,12.648,9.385,14.014,9.288z"/>
		<path fill-rule="evenodd" clip-rule="evenodd" fill="#FFFFFF" d="M20.036,9.288c0.769-0.071,1.4,0.078,1.478,0.839
			c0.063,0.629,0,1.347,0,2.059c0,1.271,0,2.78,0,4.067c0,0.829,0.151,2.273-0.255,2.655c-0.377,0.356-1.591,0.218-2.238,0.218
			c-0.872,0-1.619,0-2.422,0c-0.021,0.871,0.099,1.34,0.622,1.674c0.136,0.087,0.61,0.291,0.554,0.479
			c-0.053,0.18-0.921,0.096-1.223,0.096c-1.258,0-2.682,0.039-3.831-0.046c0.132-0.465,0.66-0.468,0.923-0.791
			c0.242-0.296,0.229-0.814,0.277-1.411c-0.47,0-0.938,0-1.408,0c0-0.696,0-1.389,0-2.083c2.376,0,4.814,0,7.27,0
			c0.322,0,0.856,0.043,0.969-0.071c0.166-0.17,0.069-1.364,0.069-1.7c0-1.183,0-2.307,0-3.493c0-0.501,0.033-1.381-0.046-1.723
			c-0.188-0.085-0.504-0.036-0.762-0.049c0-0.215,0-0.43,0-0.646C20.011,9.327,20.009,9.293,20.036,9.288z M15.352,18.67
			c0.589-0.117,0.523-1.271-0.23-1.124C14.422,17.683,14.657,18.809,15.352,18.67z"/>
		<path fill-rule="evenodd" clip-rule="evenodd" fill="#FFFFFF" d="M7.528,14.602c0.257-0.066,0.796-0.023,1.132-0.023
			c0.352,0,0.708,0,1.084,0c0.602,0,1.833-0.123,2.032,0.167c0.15,0.224,0.068,1.137,0.068,1.58c0,1.122,0,2.09,0,3.303
			c0,0.576,0.102,1.326-0.068,1.579c-0.221,0.322-1.724,0.167-2.216,0.167c-0.396,0-0.775,0-1.177,0
			c-0.337,0-0.886,0.064-1.062-0.118c-0.185-0.19-0.116-1.171-0.116-1.556c0-0.959,0-2.392,0-3.351c0-0.489-0.134-1.622,0.276-1.748
			C7.498,14.598,7.516,14.606,7.528,14.602z M7.737,15.152c-0.118,0.148-0.069,0.9-0.069,1.244c0,1.325-0.038,2.755,0.045,3.878
			c1.102,0.078,2.521,0.078,3.623,0c0.077-1.61,0.077-3.538,0-5.122C10.243,15.073,8.831,15.073,7.737,15.152z M9.26,20.777
			c-0.161,0.458,0.614,0.625,0.578,0.094c-0.016-0.204-0.19-0.319-0.394-0.263C9.313,20.646,9.289,20.695,9.26,20.777z"/>
		<path fill-rule="evenodd" clip-rule="evenodd" fill="#FFFFFF" d="M17.313,9.908c-0.136,0.552-0.288,1.087-0.436,1.631
			c-0.053,0-0.104,0-0.157,0c0.146-0.543,0.301-1.076,0.438-1.631C17.209,9.908,17.263,9.908,17.313,9.908z"/>
		<path fill-rule="evenodd" clip-rule="evenodd" fill="#FFFFFF" d="M16.616,10.397c-0.266,0.104-0.517,0.224-0.786,0.325
			c0.247,0.132,0.516,0.24,0.786,0.344c0,0.067,0,0.135,0,0.201c-0.352-0.131-0.664-0.302-1.013-0.436c0-0.067,0-0.133,0-0.199
			c0.329-0.142,0.668-0.273,0.978-0.435C16.655,10.2,16.6,10.337,16.616,10.397z"/>
		<path fill-rule="evenodd" clip-rule="evenodd" fill="#FFFFFF" d="M17.419,10.198c0.35,0.144,0.696,0.292,1.031,0.452
			c0,0.055,0,0.109,0,0.163c-0.338,0.157-0.673,0.318-1.031,0.454c0-0.062,0-0.121,0-0.182c0.252-0.127,0.524-0.23,0.786-0.345
			c-0.243-0.134-0.521-0.234-0.786-0.344C17.419,10.33,17.419,10.265,17.419,10.198z"/>
		<path fill-rule="evenodd" clip-rule="evenodd" fill="#FFFFFF" d="M9.817,16.84c-0.137,0.552-0.288,1.088-0.437,1.63
			c-0.052,0-0.103,0-0.156,0c0.146-0.542,0.301-1.077,0.437-1.63C9.713,16.84,9.767,16.84,9.817,16.84z"/>
		<path fill-rule="evenodd" clip-rule="evenodd" fill="#FFFFFF" d="M9.12,17.328c-0.267,0.104-0.518,0.227-0.786,0.325
			c0.246,0.132,0.514,0.24,0.786,0.344c0,0.067,0,0.133,0,0.199c-0.352-0.131-0.664-0.3-1.014-0.434c0-0.066,0-0.133,0-0.198
			c0.331-0.141,0.669-0.274,0.979-0.436C9.158,17.132,9.101,17.269,9.12,17.328z"/>
		<path fill-rule="evenodd" clip-rule="evenodd" fill="#FFFFFF" d="M9.923,17.129c0.35,0.146,0.696,0.292,1.029,0.452
			c0,0.055,0,0.109,0,0.163c-0.337,0.158-0.672,0.317-1.029,0.452c0-0.061,0-0.119,0-0.181c0.251-0.125,0.523-0.229,0.785-0.344
			c-0.242-0.133-0.519-0.234-0.785-0.344C9.923,17.263,9.923,17.195,9.923,17.129z"/>
	</g>
</g>
</svg>
