<?xml version="1.0" encoding="utf-8"?>
<!-- Generator: Adobe Illustrator 14.0.0, SVG Export Plug-In . SVG Version: 6.00 Build 43363)  -->
<!DOCTYPE svg PUBLIC "-//W3C//DTD SVG 1.1//EN" "http://www.w3.org/Graphics/SVG/1.1/DTD/svg11.dtd">
<svg version="1.1" id="Layer_1" xmlns="http://www.w3.org/2000/svg" xmlns:xlink="http://www.w3.org/1999/xlink" x="0px" y="0px"
	 width="30px" height="30px" viewBox="-7.5 -7.5 30 30" enable-background="new -7.5 -7.5 30 30" xml:space="preserve">
<g>
	<g>
		<g>
			<g>
				<path fill="#FFFFFF" d="M14.305-1.861l2.005-2.76C13.834-6.423,10.797-7.5,7.501-7.5v3.414
					C10.046-4.086,12.393-3.254,14.305-1.861z"/>
			</g>
			<g>
				<path fill="#D0D2D3" d="M7.5-4.086L7.5-4.086L7.501-7.5H7.5c-3.295,0-6.332,1.076-8.807,2.879l2.004,2.758
					C2.609-3.254,4.955-4.086,7.5-4.086z"/>
				<path fill="none" stroke="#FFFFFF" stroke-width="0.25" d="M7.5-4.086L7.5-4.086L7.501-7.5H7.5
					c-3.295,0-6.332,1.076-8.807,2.879l2.004,2.758C2.609-3.254,4.955-4.086,7.5-4.086z"/>
			</g>
			<g>
				<path fill="#FFFFFF" d="M19.087,7.5c0,1.251-0.204,2.451-0.57,3.582l3.247,1.053C22.238,10.674,22.5,9.119,22.5,7.5
					c0-1.618-0.262-3.173-0.736-4.635l-3.247,1.057C18.883,5.049,19.087,6.25,19.087,7.5z"/>
			</g>
			<g>
				<path fill="#D0D2D3" d="M0.697-1.863l-2.004-2.758c-2.531,1.84-4.468,4.446-5.455,7.486l3.247,1.057
					C-2.752,1.572-1.258-0.44,0.697-1.863z"/>
				<path fill="none" stroke="#FFFFFF" stroke-width="0.25" d="M0.697-1.863l-2.004-2.758c-2.531,1.84-4.468,4.446-5.455,7.486
					l3.247,1.057C-2.752,1.572-1.258-0.44,0.697-1.863z"/>
			</g>
			<g>
				<path fill="#FFFFFF" d="M18.517,3.922l3.247-1.057C20.775-0.174,18.84-2.78,16.31-4.621l-2.005,2.76
					C16.261-0.439,17.755,1.573,18.517,3.922z"/>
			</g>
			<g>
				<path fill="#FFFFFF" d="M7.501,19.086V22.5c3.295,0,6.333-1.074,8.808-2.877l-2.004-2.758
					C12.393,18.254,10.046,19.086,7.501,19.086z"/>
			</g>
			<g>
				<path fill="#FFFFFF" d="M21.764,12.135l-3.247-1.053c-0.764,2.346-2.258,4.359-4.212,5.783l2.004,2.758
					C18.84,17.781,20.775,15.176,21.764,12.135z"/>
			</g>
			<g>
				<path fill="#D0D2D3" d="M-4.086,7.5c0-1.251,0.204-2.451,0.571-3.579l-3.247-1.057C-7.236,4.327-7.499,5.882-7.499,7.5
					c0,1.619,0.263,3.173,0.737,4.634l3.247-1.053C-3.882,9.951-4.086,8.752-4.086,7.5z"/>
				<path fill="none" stroke="#FFFFFF" stroke-width="0.25" d="M-4.086,7.5c0-1.251,0.204-2.451,0.571-3.579l-3.247-1.057
					C-7.236,4.327-7.499,5.882-7.499,7.5c0,1.619,0.263,3.173,0.737,4.634l3.247-1.053C-3.882,9.951-4.086,8.752-4.086,7.5z"/>
			</g>
			<g>
				<path fill="#D0D2D3" d="M7.5,19.086c-2.545,0-4.891-0.828-6.801-2.221l-2.006,2.758C1.169,21.426,4.205,22.5,7.5,22.5h0.001
					L7.5,19.086L7.5,19.086z"/>
				<path fill="none" stroke="#FFFFFF" stroke-width="0.25" d="M7.5,19.086c-2.545,0-4.891-0.828-6.801-2.221l-2.006,2.758
					C1.169,21.426,4.205,22.5,7.5,22.5h0.001L7.5,19.086L7.5,19.086z"/>
			</g>
			<g>
				<path fill="#D0D2D3" d="M-3.515,11.082l-3.247,1.053c0.987,3.043,2.924,5.646,5.455,7.488l2.006-2.758
					C-1.256,15.443-2.752,13.428-3.515,11.082z"/>
				<path fill="none" stroke="#FFFFFF" stroke-width="0.25" d="M-3.515,11.082l-3.247,1.053c0.987,3.043,2.924,5.646,5.455,7.488
					l2.006-2.758C-1.256,15.443-2.752,13.428-3.515,11.082z"/>
			</g>
			<g>
				<rect x="7.501" y="7.5" fill="#A6A8AB" width="0" height="0.001"/>
				<rect x="7.501" y="7.5" fill="none" stroke="#FFFFFF" stroke-width="0.25" width="0" height="0.001"/>
			</g>
			<g>
				<polygon fill="#A6A8AB" points="7.502,7.5 7.502,7.5 7.501,7.5 				"/>
				<polygon fill="none" stroke="#FFFFFF" stroke-width="0.25" points="7.502,7.5 7.502,7.5 7.501,7.5 				"/>
			</g>
			<g>
				<rect x="7.5" y="7.5" fill="#A6A8AB" width="0.001" height="0.001"/>
				<rect x="7.5" y="7.5" fill="none" stroke="#FFFFFF" stroke-width="0.25" width="0.001" height="0.001"/>
			</g>
			<g>
				<rect x="7.501" y="7.5" fill="#A6A8AB" width="0" height="0"/>
				<rect x="7.501" y="7.5" fill="none" stroke="#FFFFFF" stroke-width="0.25" width="0" height="0"/>
			</g>
			<g>
				<polygon fill="#A6A8AB" points="7.501,7.5 7.501,7.5 7.501,7.5 				"/>
				<polygon fill="none" stroke="#FFFFFF" stroke-width="0.25" points="7.501,7.5 7.501,7.5 7.501,7.5 				"/>
			</g>
			<g>
				<polygon fill="#A6A8AB" points="7.501,7.5 7.501,7.5 7.501,7.5 				"/>
				<polygon fill="none" stroke="#FFFFFF" stroke-width="0.25" points="7.501,7.5 7.501,7.5 7.501,7.5 				"/>
			</g>
		</g>
	</g>
	<circle fill="none" stroke="#D0D2D3" stroke-width="0.25" cx="7.501" cy="7.5" r="13.207"/>
	<circle fill="none" stroke="#D0D2D3" cx="7.502" cy="7.5" r="9.714"/>
	<g>
		<g>
			<path fill="#808184" d="M4.859,4.161L4.832,4.674H2.11L2.01,6.655l0.613,0.027c0.434,0.024,0.803,0.07,1.109,0.138
				c0.306,0.066,0.557,0.173,0.752,0.315C4.679,7.279,4.822,7.469,4.91,7.704c0.088,0.235,0.133,0.533,0.133,0.894
				c0,0.256-0.022,0.504-0.068,0.738S4.834,9.783,4.695,9.973c-0.141,0.189-0.344,0.342-0.61,0.453
				c-0.267,0.113-0.614,0.17-1.049,0.17c-0.238,0-0.516-0.02-0.829-0.059c-0.315-0.041-0.639-0.1-0.968-0.18l0.073-0.477
				c0.288,0.055,0.574,0.1,0.861,0.133s0.534,0.051,0.742,0.051c0.435,0,0.76-0.061,0.976-0.178
				c0.218-0.121,0.365-0.289,0.445-0.506s0.12-0.477,0.12-0.783C4.463,8.273,4.421,8.02,4.333,7.833
				C4.245,7.646,4.105,7.509,3.915,7.419C3.727,7.332,3.477,7.271,3.168,7.237C2.859,7.204,2.479,7.18,2.027,7.167L1.716,7.15
				C1.643,7.137,1.583,7.107,1.537,7.058s-0.066-0.11-0.06-0.183l0.138-2.714H4.859z"/>
			<path fill="#808184" d="M8.325,4.042c0.524,0,0.939,0.115,1.246,0.343c0.306,0.229,0.524,0.585,0.66,1.069
				c0.135,0.482,0.201,1.105,0.201,1.869c0,0.758-0.066,1.379-0.201,1.866c-0.136,0.486-0.354,0.844-0.66,1.072
				c-0.307,0.229-0.722,0.344-1.246,0.344c-0.52,0-0.935-0.115-1.243-0.344S6.554,9.676,6.423,9.189
				C6.291,8.703,6.226,8.082,6.226,7.324c0-0.764,0.065-1.387,0.197-1.869c0.131-0.483,0.351-0.84,0.659-1.069
				C7.391,4.157,7.806,4.042,8.325,4.042z M8.325,4.574c-0.288,0-0.527,0.053-0.721,0.156C7.413,4.833,7.259,4.996,7.143,5.216
				C7.025,5.435,6.941,5.719,6.891,6.068C6.839,6.417,6.812,6.835,6.812,7.324c0,0.483,0.027,0.899,0.079,1.25
				c0.051,0.352,0.135,0.639,0.252,0.857c0.116,0.221,0.271,0.383,0.462,0.486c0.193,0.104,0.433,0.156,0.721,0.156
				c0.281,0,0.519-0.053,0.714-0.156c0.196-0.104,0.354-0.266,0.473-0.486C9.63,9.213,9.714,8.926,9.765,8.574
				c0.048-0.352,0.072-0.767,0.072-1.25c0-0.488-0.024-0.907-0.072-1.256C9.714,5.719,9.63,5.435,9.512,5.216
				C9.393,4.996,9.235,4.833,9.039,4.73C8.844,4.626,8.606,4.574,8.325,4.574z"/>
			<path fill="#808184" d="M12.002,7.29c0.179,0,0.321,0.031,0.425,0.096c0.104,0.063,0.18,0.163,0.226,0.3
				C12.697,7.822,12.72,8,12.72,8.221c0,0.219-0.022,0.396-0.067,0.533c-0.046,0.137-0.121,0.236-0.226,0.303
				c-0.104,0.064-0.246,0.096-0.425,0.096c-0.177,0-0.317-0.031-0.421-0.096c-0.104-0.066-0.18-0.166-0.224-0.303
				c-0.043-0.137-0.064-0.314-0.064-0.533c0-0.221,0.021-0.399,0.064-0.536c0.044-0.137,0.12-0.237,0.224-0.3
				C11.685,7.321,11.825,7.29,12.002,7.29z M12.002,7.481c-0.122,0-0.216,0.023-0.286,0.072c-0.07,0.048-0.121,0.127-0.15,0.235
				c-0.03,0.109-0.046,0.254-0.046,0.432c0,0.18,0.016,0.324,0.046,0.434c0.029,0.109,0.08,0.188,0.15,0.236
				c0.07,0.047,0.164,0.072,0.286,0.072c0.124,0,0.223-0.025,0.294-0.072c0.07-0.049,0.12-0.127,0.148-0.236
				c0.03-0.109,0.045-0.254,0.045-0.434c0-0.178-0.015-0.323-0.045-0.432c-0.028-0.108-0.078-0.188-0.148-0.235
				C12.225,7.504,12.126,7.481,12.002,7.481z M14.226,7.348l-2.087,3.138h-0.215l2.084-3.138H14.226z M14.153,8.668
				c0.179,0,0.319,0.031,0.422,0.096c0.103,0.063,0.177,0.162,0.221,0.299s0.066,0.314,0.066,0.533c0,0.217-0.022,0.395-0.066,0.531
				s-0.118,0.236-0.221,0.301c-0.103,0.063-0.243,0.096-0.422,0.096c-0.177,0-0.317-0.033-0.422-0.096
				c-0.104-0.064-0.179-0.164-0.223-0.301s-0.065-0.314-0.065-0.531c0-0.219,0.021-0.396,0.065-0.533s0.118-0.236,0.223-0.299
				C13.836,8.699,13.977,8.668,14.153,8.668z M14.148,8.854c-0.121,0-0.218,0.023-0.287,0.072s-0.118,0.127-0.146,0.236
				c-0.029,0.109-0.044,0.254-0.044,0.434c0,0.174,0.015,0.318,0.044,0.428c0.028,0.111,0.077,0.191,0.146,0.24
				s0.166,0.072,0.287,0.072c0.124,0,0.222-0.023,0.292-0.072c0.071-0.049,0.122-0.129,0.151-0.24
				c0.028-0.109,0.043-0.254,0.043-0.428c0-0.18-0.015-0.324-0.043-0.434c-0.029-0.109-0.08-0.188-0.151-0.236
				C14.37,8.877,14.272,8.854,14.148,8.854z"/>
		</g>
	</g>
</g>
</svg>
