<?xml version="1.0" encoding="utf-8"?>
<!-- Generator: Adobe Illustrator 14.0.0, SVG Export Plug-In . SVG Version: 6.00 Build 43363)  -->
<!DOCTYPE svg PUBLIC "-//W3C//DTD SVG 1.1//EN" "http://www.w3.org/Graphics/SVG/1.1/DTD/svg11.dtd">
<svg version="1.1" id="Layer_1" xmlns="http://www.w3.org/2000/svg" xmlns:xlink="http://www.w3.org/1999/xlink" x="0px" y="0px"
	 width="10px" height="10.046px" viewBox="43.681 44.608 10 10.046" enable-background="new 43.681 44.608 10 10.046"
	 xml:space="preserve">
<g>
	<path fill="#32BBED" d="M51.833,46.882c-0.199,0.151-0.349,0.351-0.537,0.512c0.153,0.193,0.339,0.353,0.513,0.524
		c0.537-0.319,1.198-0.152,1.536,0.2c0.722,0.751,0.166,2.161-0.986,2.073c-0.742-0.056-1.366-0.881-1.037-1.699
		c-0.102-0.178-0.332-0.334-0.475-0.512c-0.366,0.313-0.727,0.706-1.124,1.074c-0.445,0.413-1.073,0.905-1.874,0.7
		c-0.012-0.065,0.063-0.11,0.1-0.15c0.681-0.739,1.488-1.453,2.174-2.199c-0.554-0.608-1.148-1.198-1.736-1.786
		c-0.191-0.191-0.408-0.363-0.55-0.587c0.755-0.202,1.41,0.275,1.849,0.674c0.407,0.371,0.773,0.764,1.137,1.087
		c0.199-0.134,0.344-0.322,0.513-0.487c-0.038-0.081-0.075-0.173-0.088-0.237c-0.147-0.766,0.456-1.441,1.149-1.461
		c1.1-0.032,1.713,1.31,0.937,2.086C53.025,47.002,52.325,47.218,51.833,46.882z M51.883,46.07c0.093,0.241,0.354,0.38,0.588,0.375
		c0.388-0.009,0.745-0.448,0.55-0.875c-0.092-0.198-0.357-0.392-0.675-0.337C51.992,45.293,51.727,45.66,51.883,46.07z
		 M50.785,47.569c0.199-0.009,0.245-0.448-0.075-0.337C50.491,47.307,50.64,47.576,50.785,47.569z M51.883,49.205
		c0.098,0.263,0.364,0.376,0.575,0.375c0.387-0.002,0.771-0.432,0.563-0.875c-0.096-0.202-0.349-0.393-0.675-0.337
		C51.99,48.429,51.731,48.794,51.883,49.205z"/>
	<path fill="#32BBED" d="M49.573,47.381c-0.126,0.099-0.231,0.347-0.4,0.387c-0.119,0.029-0.301,0-0.45,0c-0.997,0-2.151,0-3.123,0
		c0,0.879,0,1.757,0,2.636c1.278,0.028,2.61,0.004,3.91,0.012c0.065-0.223-0.045-0.416,0.013-0.637
		c0.027-0.104,0.241-0.216,0.337-0.3c0.336-0.294,0.661-0.67,0.987-0.899c-0.071,0.631,0.077,1.084,0.35,1.424
		c0.067,0.085,0.167,0.146,0.188,0.225c0.034,0.141,0,0.37,0,0.563c0,0.934,0.021,1.861,0,2.786
		c-0.009,0.355,0.017,0.717-0.075,1.036c-1.238,0.032-2.521,0.038-3.797,0.038c-1.278,0-2.564,0.017-3.785-0.05
		c-0.062-2.442-0.062-5.128,0-7.57c1.241-0.067,2.8-0.037,4.147-0.037c0.203,0,0.425,0,0.637,0c0.209,0,0.47-0.041,0.637,0
		C49.317,47.035,49.426,47.309,49.573,47.381z M44.352,47.956c-0.007,0.206-0.019,0.407-0.013,0.625c0.221,0,0.441,0,0.662,0
		c-0.002-0.215-0.021-0.413-0.013-0.637C44.771,47.955,44.539,47.9,44.352,47.956z M44.339,49.655c0,0.208,0,0.417,0,0.625
		c0.221,0,0.441,0,0.662,0c0-0.204,0-0.408,0-0.612C44.805,49.638,44.556,49.664,44.339,49.655z M50.123,49.655
		c0,0.208,0,0.417,0,0.625c0.212,0,0.425,0,0.637,0c0-0.204,0-0.408,0-0.612C50.572,49.638,50.331,49.664,50.123,49.655z
		 M45.601,51.266c0,0.866,0,1.732,0,2.599c1.308,0,2.615,0,3.922,0c0-0.879,0-1.757,0-2.636c-1.303,0-2.606,0-3.91,0
		C45.599,51.231,45.6,51.249,45.601,51.266z M44.339,51.354c0,0.208,0,0.416,0,0.624c0.221,0,0.441,0,0.662,0
		c0-0.208,0-0.416,0-0.624C44.78,51.354,44.56,51.354,44.339,51.354z M50.123,51.354c0,0.208,0,0.416,0,0.624
		c0.208-0.008,0.449,0.017,0.637-0.013c-0.008-0.199,0.017-0.433-0.013-0.611C50.539,51.354,50.331,51.354,50.123,51.354z
		 M44.339,53.052c0.005,0.211,0.019,0.414,0.013,0.638c0.212,0,0.425,0,0.637,0c-0.007-0.224,0.007-0.427,0.012-0.638
		C44.78,53.052,44.56,53.052,44.339,53.052z M50.123,53.052c0,0.217,0,0.434,0,0.65c0.212,0,0.425,0,0.637,0c0-0.217,0-0.434,0-0.65
		C50.547,53.052,50.334,53.052,50.123,53.052z"/>
</g>
</svg>
