<?xml version="1.0" encoding="utf-8"?>
<!-- Generator: Adobe Illustrator 14.0.0, SVG Export Plug-In . SVG Version: 6.00 Build 43363)  -->
<!DOCTYPE svg PUBLIC "-//W3C//DTD SVG 1.1//EN" "http://www.w3.org/Graphics/SVG/1.1/DTD/svg11.dtd">
<svg version="1.1" id="Layer_1" xmlns="http://www.w3.org/2000/svg" xmlns:xlink="http://www.w3.org/1999/xlink" x="0px" y="0px"
	 width="30px" height="30px" viewBox="-7.5 -7.5 30 30" enable-background="new -7.5 -7.5 30 30" xml:space="preserve">
<g>
	<path fill="#0C5E91" d="M7.5-7.5c-8.287,0-15,6.714-15,15c0,8.288,6.713,15,15,15c8.285,0,15-6.712,15-15
		C22.5-0.786,15.785-7.5,7.5-7.5z"/>
	<path fill="#FFFFFF" d="M10.629,4.108C10.115,0.952,8.908-1.264,7.5-1.264c-1.406,0-2.613,2.216-3.125,5.372H10.629z M4.11,7.499
		c0,0.785,0.043,1.539,0.115,2.262h6.548c0.074-0.723,0.117-1.477,0.117-2.262c0-0.783-0.043-1.537-0.117-2.26H4.225
		C4.153,5.962,4.11,6.716,4.11,7.499z M15.582,4.108c-1.01-2.4-3.055-4.254-5.582-5.004c0.863,1.195,1.455,2.994,1.766,5.004H15.582
		z M5-0.896c-2.523,0.75-4.572,2.604-5.58,5.004h3.816C3.545,2.099,4.137,0.3,5-0.896L5-0.896z M15.961,5.239h-4.053
		c0.074,0.742,0.115,1.501,0.115,2.26c0,0.761-0.041,1.52-0.115,2.262h4.049c0.195-0.723,0.305-1.477,0.305-2.262
		C16.262,6.716,16.152,5.962,15.961,5.239L15.961,5.239z M2.979,7.499c0-0.759,0.041-1.518,0.115-2.26h-4.051
		c-0.191,0.723-0.305,1.477-0.305,2.26c0,0.785,0.113,1.539,0.305,2.262h4.049C3.02,9.019,2.979,8.26,2.979,7.499z M4.375,10.892
		c0.512,3.156,1.719,5.372,3.125,5.372c1.408,0,2.615-2.216,3.128-5.372H4.375z M10.002,15.896c2.525-0.75,4.574-2.604,5.584-5.004
		H11.77C11.459,12.901,10.865,14.7,10.002,15.896z M-0.58,10.892c1.01,2.4,3.057,4.254,5.584,5.004
		c-0.863-1.195-1.457-2.994-1.768-5.004H-0.58z"/>
</g>
</svg>
