<?xml version="1.0" encoding="utf-8"?>
<!-- Generator: Adobe Illustrator 14.0.0, SVG Export Plug-In . SVG Version: 6.00 Build 43363)  -->
<!DOCTYPE svg PUBLIC "-//W3C//DTD SVG 1.1//EN" "http://www.w3.org/Graphics/SVG/1.1/DTD/svg11.dtd">
<svg version="1.1" id="Layer_1" xmlns="http://www.w3.org/2000/svg" xmlns:xlink="http://www.w3.org/1999/xlink" x="0px" y="0px"
	 width="24.646px" height="24.646px" viewBox="-5.708 -5.666 24.646 24.646" enable-background="new -5.708 -5.666 24.646 24.646"
	 xml:space="preserve">
<path fill="none" stroke="#D0D2D3" stroke-width="1.2" d="M18.445,1.48v13.311c0,1.226-0.992,2.22-2.217,2.22H-3
	c-1.225,0-2.218-0.994-2.218-2.22V1.48c0-1.225,0.993-2.218,2.218-2.218h4.068l0.568-1.521c0.323-0.864,1.15-1.438,2.075-1.438
	h5.799c0.926,0,1.752,0.573,2.076,1.438l0.572,1.521h4.068C17.453-0.737,18.445,0.256,18.445,1.48z M12.16,8.137
	c0-3.061-2.486-5.548-5.545-5.548c-3.06,0-5.546,2.487-5.546,5.548c0,3.059,2.486,5.546,5.546,5.546
	C9.674,13.683,12.16,11.195,12.16,8.137z M10.682,8.137c0,2.241-1.826,4.066-4.067,4.066c-2.241,0-4.067-1.825-4.067-4.066
	c0-2.243,1.826-4.068,4.067-4.068C8.855,4.068,10.682,5.894,10.682,8.137z"/>
</svg>
