<?xml version="1.0" encoding="utf-8"?>
<!-- Generator: Adobe Illustrator 14.0.0, SVG Export Plug-In . SVG Version: 6.00 Build 43363)  -->
<!DOCTYPE svg PUBLIC "-//W3C//DTD SVG 1.1//EN" "http://www.w3.org/Graphics/SVG/1.1/DTD/svg11.dtd">
<svg version="1.1" id="Layer_1" xmlns="http://www.w3.org/2000/svg" xmlns:xlink="http://www.w3.org/1999/xlink" x="0px" y="0px"
	 width="17.436px" height="17.435px" viewBox="0 0 17.436 17.435" enable-background="new 0 0 17.436 17.435" xml:space="preserve">
<path fill-rule="evenodd" clip-rule="evenodd" fill="#39BBED" d="M15.566,0H1.867C0.836,0,0,0.835,0,1.868v13.7
	c0,1.031,0.836,1.867,1.867,1.867h13.699c1.031,0,1.869-0.836,1.869-1.867v-13.7C17.436,0.835,16.598,0,15.566,0z M11.865,4.731
	C10.027,4.5,9.387,5.028,9.676,7.03c0.584,0.128,1.404,0.019,2.08,0.054c-0.033,0.807-0.154,1.525-0.273,2.244
	c-0.584,0-1.168,0-1.752,0c-0.129,1.715-0.02,3.668-0.055,5.475c-0.766,0-1.533,0-2.299,0c0-1.824,0-3.648,0-5.475
	c-0.602,0-1.205,0-1.807,0c0-0.746,0-1.495,0-2.244c0.584,0,1.168,0,1.752,0C6.994,3.825,8.488,2.14,11.865,2.761
	C11.865,3.417,11.865,4.074,11.865,4.731z"/>
</svg>
