<?xml version="1.0" encoding="utf-8"?>
<!-- Generator: Adobe Illustrator 14.0.0, SVG Export Plug-In . SVG Version: 6.00 Build 43363)  -->
<!DOCTYPE svg PUBLIC "-//W3C//DTD SVG 1.1//EN" "http://www.w3.org/Graphics/SVG/1.1/DTD/svg11.dtd">
<svg version="1.1" id="Layer_1" xmlns="http://www.w3.org/2000/svg" xmlns:xlink="http://www.w3.org/1999/xlink" x="0px" y="0px"
	 width="15px" height="15px" viewBox="0 0 15 15" enable-background="new 0 0 15 15" xml:space="preserve">
<g>
	<g>
		<path fill="#32BBED" d="M14.825,5.922c-0.042-0.192-0.218-0.328-0.415-0.328h-1.297c-0.375,0-0.562-0.452-0.297-0.717l0.916-0.916
			c0.141-0.139,0.168-0.362,0.062-0.528c-0.576-0.891-1.336-1.651-2.226-2.227c-0.168-0.107-0.392-0.078-0.53,0.061l-0.916,0.917
			C9.857,2.449,9.404,2.262,9.404,1.888V0.591c0-0.197-0.135-0.375-0.325-0.416C8.568,0.063,8.042,0,7.5,0S6.432,0.063,5.922,0.175
			C5.73,0.217,5.596,0.394,5.596,0.591v1.296c0,0.375-0.453,0.561-0.719,0.296L3.962,1.268C3.822,1.129,3.6,1.099,3.432,1.207
			c-0.89,0.576-1.648,1.336-2.226,2.227C1.099,3.6,1.128,3.822,1.268,3.961l0.916,0.916c0.265,0.266,0.078,0.717-0.296,0.717H0.591
			c-0.197,0-0.374,0.136-0.416,0.328C0.064,6.431,0,6.959,0,7.5c0,0.542,0.064,1.068,0.175,1.577
			c0.042,0.194,0.219,0.327,0.416,0.327h1.296c0.375,0,0.562,0.453,0.296,0.719l-0.916,0.914c-0.139,0.141-0.168,0.363-0.061,0.529
			c0.577,0.892,1.337,1.649,2.227,2.229C3.6,13.9,3.822,13.872,3.962,13.73l0.915-0.914c0.266-0.266,0.719-0.078,0.719,0.297v1.296
			c0,0.196,0.134,0.375,0.326,0.416C6.432,14.936,6.958,15,7.5,15s1.068-0.064,1.577-0.176c0.192-0.041,0.327-0.219,0.327-0.416
			v-1.297c0-0.375,0.453-0.562,0.718-0.297l0.916,0.916c0.14,0.141,0.362,0.168,0.53,0.063c0.889-0.578,1.648-1.337,2.226-2.229
			c0.106-0.166,0.079-0.39-0.062-0.529l-0.916-0.914c-0.265-0.266-0.078-0.719,0.297-0.719h1.297c0.197,0,0.374-0.133,0.415-0.327
			C14.936,8.568,15,8.042,15,7.5C15,6.959,14.936,6.431,14.825,5.922 M7.5,10.721c-1.779,0-3.22-1.443-3.22-3.221
			c0-1.779,1.441-3.22,3.22-3.22c1.779,0,3.221,1.441,3.221,3.22C10.721,9.277,9.279,10.721,7.5,10.721"/>
	</g>
</g>
</svg>
