<?xml version="1.0" encoding="utf-8"?>
<!-- Generator: Adobe Illustrator 14.0.0, SVG Export Plug-In . SVG Version: 6.00 Build 43363)  -->
<!DOCTYPE svg PUBLIC "-//W3C//DTD SVG 1.1//EN" "http://www.w3.org/Graphics/SVG/1.1/DTD/svg11.dtd">
<svg version="1.1" id="Layer_1" xmlns="http://www.w3.org/2000/svg" xmlns:xlink="http://www.w3.org/1999/xlink" x="0px" y="0px"
	 width="30px" height="30px" viewBox="-7.5 -7.5 30 30" enable-background="new -7.5 -7.5 30 30" xml:space="preserve">
<g>
	<path fill="#0C5E91" d="M7.5-7.5c-8.287,0-15,6.714-15,15c0,8.288,6.713,15,15,15c8.285,0,15-6.712,15-15
		C22.5-0.786,15.785-7.5,7.5-7.5z"/>
	<circle fill="#FFFFFF" cx="7.5" cy="3.629" r="5.323"/>
	<path fill="#FFFFFF" d="M7.5,19.113c-3.551,0-6.732-1.608-8.861-4.125c1.137-2.142,3.363-3.617,5.957-3.617
		c0.146,0,0.291,0.024,0.43,0.066c0.787,0.254,1.609,0.417,2.475,0.417c0.865,0,1.693-0.163,2.472-0.417
		c0.141-0.042,0.285-0.066,0.43-0.066c2.596,0,4.82,1.476,5.959,3.617C14.232,17.505,11.051,19.113,7.5,19.113z"/>
	<path fill="#0C5E91" d="M19.703,11.891c0.492-1.168-0.059-2.514-1.227-3.004c-0.686-0.288-1.432-0.215-2.031,0.129
		c-0.174-0.669-0.645-1.253-1.33-1.542c-1.168-0.49-2.514,0.059-3.004,1.227c-1.064,2.533,1.672,6.364,1.74,6.479
		c0.002,0,0,0.003,0,0.003h0.002l0.002,0.002l0.002-0.002C13.988,15.15,18.639,14.424,19.703,11.891z"/>
	<path fill="#FFFFFF" d="M14.268,14.283c-0.664-1.032-2.057-3.503-1.361-5.156c0.252-0.601,0.836-0.988,1.488-0.988
		c0.213,0,0.424,0.043,0.623,0.126c0.467,0.197,0.807,0.592,0.936,1.085L16.1,9.92l0.512-0.293c0.248-0.142,0.527-0.217,0.811-0.217
		c0.213,0,0.42,0.042,0.619,0.125c0.396,0.167,0.705,0.479,0.869,0.878c0.162,0.399,0.16,0.837-0.008,1.235
		C18.203,13.313,15.424,14.046,14.268,14.283L14.268,14.283z"/>
</g>
</svg>
