<?xml version="1.0" encoding="utf-8"?>
<!-- Generator: Adobe Illustrator 14.0.0, SVG Export Plug-In . SVG Version: 6.00 Build 43363)  -->
<!DOCTYPE svg PUBLIC "-//W3C//DTD SVG 1.1//EN" "http://www.w3.org/Graphics/SVG/1.1/DTD/svg11.dtd">
<svg version="1.1" id="Layer_1" xmlns="http://www.w3.org/2000/svg" xmlns:xlink="http://www.w3.org/1999/xlink" x="0px" y="0px"
	 width="24px" height="24px" viewBox="3 3 24 24" enable-background="new 3 3 24 24" xml:space="preserve">
<g>
	<circle fill="#A6A8AB" cx="15" cy="14.998" r="12"/>
	<g>
		<path fill-rule="evenodd" clip-rule="evenodd" fill="#FFFFFF" d="M14.817,5.791c0.008-0.046,0.1-0.008,0.143-0.021
			c0.033,0,0.067,0,0.101,0C15.02,5.816,14.893,5.777,14.817,5.791z"/>
		<path fill-rule="evenodd" clip-rule="evenodd" fill="#FFFFFF" d="M17.157,7.501c0.046,0.041,0.008,0.169,0.021,0.243
			c-0.003,0.03,0.008,0.075-0.021,0.082C17.157,7.718,17.157,7.609,17.157,7.501z"/>
		<path fill-rule="evenodd" clip-rule="evenodd" fill="#FFFFFF" d="M12.883,7.989c-0.031,0.119-0.031-0.405,0-0.285
			C12.883,7.8,12.883,7.894,12.883,7.989z"/>
		<path fill-rule="evenodd" clip-rule="evenodd" fill="#FFFFFF" d="M12.883,7.704c0.007,0,0.015,0,0.021,0c0,0.026,0,0.055,0,0.081
			c0,0.041,0,0.082,0,0.121c0,0.029,0,0.055,0,0.083c-0.007,0-0.015,0-0.021,0C12.883,7.894,12.883,7.8,12.883,7.704z"/>
		<path fill-rule="evenodd" clip-rule="evenodd" fill="#FFFFFF" d="M12.721,8.681c-0.013,0.076,0.026,0.203-0.021,0.244
			C12.713,8.849,12.675,8.722,12.721,8.681z"/>
		<path fill-rule="evenodd" clip-rule="evenodd" fill="#FFFFFF" d="M9.606,15.986c3.548-0.033,7.239-0.033,10.787,0
			C16.798,15.986,13.202,15.986,9.606,15.986z"/>
		<path fill-rule="evenodd" clip-rule="evenodd" fill="#FFFFFF" d="M20.739,16.333c0.017-0.002,0.02,0.009,0.021,0.021
			c0,0.453,0,0.908,0,1.362c-0.008,0-0.014,0-0.021,0C20.739,17.256,20.739,16.796,20.739,16.333z"/>
		<path fill-rule="evenodd" clip-rule="evenodd" fill="#FFFFFF" d="M9.221,17.717c0.013-0.446-0.027-0.949,0.021-1.362
			c0,0.453,0,0.908,0,1.362C9.233,17.717,9.227,17.717,9.221,17.717z"/>
		<path fill-rule="evenodd" clip-rule="evenodd" fill="#FFFFFF" d="M20.76,16.354c0.047,0.413,0.007,0.916,0.02,1.362
			c-0.005,0-0.013,0-0.02,0C20.76,17.263,20.76,16.808,20.76,16.354z"/>
		<path fill-rule="evenodd" clip-rule="evenodd" fill="#FFFFFF" d="M10.055,16.822c-0.014,0.293,0.026,0.637-0.02,0.895
			C10.047,17.426,10.008,17.081,10.055,16.822z"/>
		<path fill-rule="evenodd" clip-rule="evenodd" fill="#FFFFFF" d="M14.553,16.822c0.047,0.259,0.006,0.604,0.02,0.895
			C14.525,17.459,14.565,17.115,14.553,16.822z"/>
		<path fill-rule="evenodd" clip-rule="evenodd" fill="#FFFFFF" d="M15.428,17.717c0.014-0.291-0.026-0.636,0.021-0.895
			C15.435,17.115,15.476,17.459,15.428,17.717z"/>
		<path fill-rule="evenodd" clip-rule="evenodd" fill="#FFFFFF" d="M19.946,16.822c0.046,0.259,0.007,0.604,0.02,0.895
			C19.919,17.459,19.958,17.115,19.946,16.822z"/>
		<path fill-rule="evenodd" clip-rule="evenodd" fill="#FFFFFF" d="M14.593,17.738c0-0.007,0-0.014,0-0.021c0.007,0,0.014,0,0.021,0
			c0.258,0,0.516,0,0.773,0c0.007,0,0.015,0,0.021,0c0,0.008,0,0.015,0,0.021C15.136,17.738,14.864,17.738,14.593,17.738z"/>
		<path fill-rule="evenodd" clip-rule="evenodd" fill="#FFFFFF" d="M14.572,17.738c0.008,0,0.015,0,0.021,0c0.271,0,0.543,0,0.814,0
			c0.006,0,0.013,0,0.021,0C15.19,17.771,14.811,17.771,14.572,17.738z"/>
		<path fill-rule="evenodd" clip-rule="evenodd" fill="#FFFFFF" d="M20.678,18.431c0.434-0.034,1.011-0.034,1.445,0
			C21.642,18.431,21.159,18.431,20.678,18.431z"/>
		<path fill-rule="evenodd" clip-rule="evenodd" fill="#FFFFFF" d="M19.987,18.45c0.142-0.047,0.371-0.008,0.548-0.02
			c0,0.007,0,0.012,0,0.02c-0.04,0-0.081,0-0.121,0c-0.096,0-0.19,0-0.285,0C20.082,18.45,20.033,18.45,19.987,18.45z"/>
		<path fill-rule="evenodd" clip-rule="evenodd" fill="#FFFFFF" d="M20.535,18.45c0-0.008,0-0.013,0-0.02c0.048,0,0.096,0,0.143,0
			c0.481,0,0.964,0,1.445,0c0.024-0.004,0.036,0.005,0.041,0.02C21.621,18.45,21.078,18.45,20.535,18.45z"/>
		<path fill-rule="evenodd" clip-rule="evenodd" fill="#FFFFFF" d="M18.563,18.471c0.434-0.048,0.955-0.008,1.425-0.021
			c0.046,0,0.095,0,0.142,0c0,0.006,0,0.013,0,0.021C19.606,18.471,19.084,18.471,18.563,18.471z"/>
		<path fill-rule="evenodd" clip-rule="evenodd" fill="#FFFFFF" d="M20.129,18.471c0-0.008,0-0.015,0-0.021c0.095,0,0.189,0,0.285,0
			c0,0.006,0,0.013,0,0.021c-0.048,0-0.096,0-0.143,0C20.224,18.471,20.177,18.471,20.129,18.471z"/>
		<path fill-rule="evenodd" clip-rule="evenodd" fill="#FFFFFF" d="M20.414,18.471c0-0.008,0-0.015,0-0.021c0.04,0,0.081,0,0.121,0
			c0.543,0,1.086,0,1.629,0c0.018-0.005,0.019,0.008,0.02,0.021C21.595,18.471,21.004,18.471,20.414,18.471z"/>
		<path fill-rule="evenodd" clip-rule="evenodd" fill="#FFFFFF" d="M18.54,18.491c-0.002-0.018,0.01-0.02,0.022-0.021
			c0.521,0,1.044,0,1.566,0c0.048,0,0.095,0,0.143,0C19.735,18.518,19.111,18.477,18.54,18.491z"/>
		<path fill-rule="evenodd" clip-rule="evenodd" fill="#FFFFFF" d="M11.866,18.857c0.027,0.007,0.017,0.051,0.021,0.082
			c0,0.679,0,1.356,0,2.034c0,0.021,0,0.042,0,0.062c0.003,0.019-0.008,0.021-0.021,0.021
			C11.866,20.323,11.866,19.591,11.866,18.857z"/>
		<path fill-rule="evenodd" clip-rule="evenodd" fill="#FFFFFF" d="M12.742,18.919c-0.002-0.029-0.004-0.059,0.02-0.062
			c0,0.733,0,1.466,0,2.198c-0.017,0.004-0.019-0.008-0.02-0.021c0-0.014,0-0.026,0-0.04C12.742,20.304,12.742,19.611,12.742,18.919
			z"/>
		<path fill-rule="evenodd" clip-rule="evenodd" fill="#FFFFFF" d="M22.591,18.878c0.018-0.004,0.02,0.008,0.021,0.021
			c0,0.705,0,1.412,0,2.117c0.004,0.017-0.008,0.019-0.021,0.02C22.591,20.317,22.591,19.598,22.591,18.878z"/>
		<path fill-rule="evenodd" clip-rule="evenodd" fill="#FFFFFF" d="M7.389,18.919c-0.004-0.019,0.008-0.021,0.021-0.021
			c0,0.713,0,1.425,0,2.137c-0.018,0.005-0.021-0.007-0.021-0.02C7.389,20.317,7.389,19.618,7.389,18.919z"/>
		<path fill-rule="evenodd" clip-rule="evenodd" fill="#FFFFFF" d="M22.611,18.898c0.02,0,0.016,0.024,0.02,0.041
			c0,0.679,0,1.356,0,2.034c0.004,0.025-0.004,0.037-0.02,0.042C22.611,20.311,22.611,19.604,22.611,18.898z"/>
		<path fill-rule="evenodd" clip-rule="evenodd" fill="#FFFFFF" d="M7.369,18.959c-0.004-0.023,0.005-0.036,0.02-0.04
			c0,0.699,0,1.398,0,2.097c-0.02-0.001-0.015-0.024-0.02-0.042C7.369,20.304,7.369,19.632,7.369,18.959z"/>
		<path fill-rule="evenodd" clip-rule="evenodd" fill="#FFFFFF" d="M12.721,18.919c0.007,0,0.015,0,0.021,0c0,0.692,0,1.385,0,2.076
			C12.693,20.344,12.735,19.604,12.721,18.919z"/>
		<path fill-rule="evenodd" clip-rule="evenodd" fill="#FFFFFF" d="M18.073,18.919c0.02,0,0.016,0.024,0.02,0.04
			c0,0.673,0,1.345,0,2.015c0,0.014,0,0.028,0,0.042C18.045,20.357,18.086,19.611,18.073,18.919z"/>
		<path fill-rule="evenodd" clip-rule="evenodd" fill="#FFFFFF" d="M11.887,18.939c0.006,0,0.013,0,0.021,0
			c-0.015,0.672,0.027,1.397-0.021,2.034C11.887,20.296,11.887,19.618,11.887,18.939z"/>
		<path fill-rule="evenodd" clip-rule="evenodd" fill="#FFFFFF" d="M22.631,18.939c0.035,0.631,0.035,1.404,0,2.034
			C22.631,20.296,22.631,19.618,22.631,18.939z"/>
		<path fill-rule="evenodd" clip-rule="evenodd" fill="#FFFFFF" d="M7.369,18.959c0,0.673,0,1.345,0,2.015
			C7.334,20.351,7.334,19.584,7.369,18.959z"/>
		<path fill-rule="evenodd" clip-rule="evenodd" fill="#FFFFFF" d="M17.259,18.959c0.007,0,0.014,0,0.021,0
			c-0.015,0.667,0.025,1.385-0.021,2.015C17.259,20.304,17.259,19.632,17.259,18.959z"/>
		<path fill-rule="evenodd" clip-rule="evenodd" fill="#FFFFFF" d="M7.837,21.463c-0.018,0.005-0.02-0.008-0.021-0.021
			c1.213,0,2.428,0,3.644,0c0.002,0.019-0.009,0.02-0.021,0.021C10.238,21.463,9.036,21.463,7.837,21.463z"/>
		<path fill-rule="evenodd" clip-rule="evenodd" fill="#FFFFFF" d="M13.189,21.463c-0.018,0.005-0.02-0.008-0.021-0.021
			c1.222,0,2.441,0,3.662,0c0.004,0.019-0.007,0.02-0.021,0.021C15.604,21.463,14.396,21.463,13.189,21.463z"/>
		<path fill-rule="evenodd" clip-rule="evenodd" fill="#FFFFFF" d="M18.54,21.463c-0.017,0.005-0.018-0.008-0.02-0.021
			c1.222,0,2.443,0,3.663,0c0.004,0.019-0.008,0.02-0.02,0.021C20.957,21.463,19.749,21.463,18.54,21.463z"/>
		<path fill-rule="evenodd" clip-rule="evenodd" fill="#FFFFFF" d="M7.877,21.483c-0.023,0.003-0.036-0.005-0.04-0.021
			c1.199,0,2.401,0,3.602,0c-0.001,0.02-0.024,0.016-0.041,0.021C10.226,21.483,9.051,21.483,7.877,21.483z"/>
		<path fill-rule="evenodd" clip-rule="evenodd" fill="#FFFFFF" d="M13.23,21.483c-0.025,0.003-0.036-0.005-0.041-0.021
			c1.207,0,2.414,0,3.621,0c0,0.02-0.023,0.016-0.04,0.021C15.591,21.483,14.409,21.483,13.23,21.483z"/>
		<path fill-rule="evenodd" clip-rule="evenodd" fill="#FFFFFF" d="M18.563,21.483c-0.019,0.003-0.021-0.009-0.022-0.021
			c1.209,0,2.417,0,3.624,0c-0.001,0.02-0.025,0.016-0.041,0.021C20.937,21.483,19.749,21.483,18.563,21.483z"/>
		<path fill-rule="evenodd" clip-rule="evenodd" fill="#FFFFFF" d="M7.877,21.483c1.174,0,2.349,0,3.521,0
			C10.272,21.518,9.003,21.518,7.877,21.483z"/>
		<path fill-rule="evenodd" clip-rule="evenodd" fill="#FFFFFF" d="M13.23,21.483c1.179,0,2.36,0,3.54,0
			C15.639,21.518,14.361,21.518,13.23,21.483z"/>
		<path fill-rule="evenodd" clip-rule="evenodd" fill="#FFFFFF" d="M18.563,21.483c1.187,0,2.374,0,3.561,0
			C20.983,21.518,19.702,21.518,18.563,21.483z"/>
		<path fill-rule="evenodd" clip-rule="evenodd" fill="#FFFFFF" d="M13.392,6.564c0.087-0.104,0.183-0.198,0.285-0.285
			C13.591,6.383,13.496,6.479,13.392,6.564z"/>
		<path fill-rule="evenodd" clip-rule="evenodd" fill="#FFFFFF" d="M13.026,7.215c-0.001-0.17,0.069-0.269,0.163-0.345
			c-0.012,0.029-0.03,0.051-0.042,0.081c-0.021,0.1-0.087,0.156-0.102,0.264C13.04,7.215,13.033,7.215,13.026,7.215z"/>
		<path fill-rule="evenodd" clip-rule="evenodd" fill="#FFFFFF" d="M12.883,9.474c-0.065-0.056-0.117-0.187-0.08-0.284
			c0.022,0.003,0.021,0.031,0.019,0.062C12.825,9.344,12.873,9.391,12.883,9.474z"/>
		<path fill-rule="evenodd" clip-rule="evenodd" fill="#FFFFFF" d="M13.372,11.552c0.121-0.186,0.062-0.675,0.02-0.896
			c0.037,0.018,0.039,0.071,0.062,0.101c0,0.238,0,0.476,0,0.713c0.016,0.058-0.04,0.042-0.041,0.083c-0.007,0-0.013,0-0.021,0
			C13.386,11.552,13.379,11.552,13.372,11.552z"/>
		<path fill-rule="evenodd" clip-rule="evenodd" fill="#FFFFFF" d="M14.349,15.031c0.02,0.002,0.023,0.038,0.021,0.062
			c-0.02,0.146-0.747,0.081-0.936,0.081c-0.977,0-2.139,0.017-2.971-0.021c0-0.468,0-0.937,0-1.403
			c0.016,0.003,0.02,0.019,0.04,0.019c0,0.007,0,0.015,0,0.021c0,0.02,0,0.041,0,0.061c-0.048,0.379-0.007,0.849-0.021,1.263
			c0,0.006,0,0.014,0,0.02c1.216,0.021,2.651,0.061,3.866-0.02c0-0.021,0-0.041,0-0.063C14.349,15.045,14.349,15.037,14.349,15.031z
			"/>
		<path fill-rule="evenodd" clip-rule="evenodd" fill="#FFFFFF" d="M14.431,12.895c0.095,0.151,0.372,0.414,0.264,0.57
			C14.665,13.216,14.479,13.123,14.431,12.895z"/>
		<path fill-rule="evenodd" clip-rule="evenodd" fill="#FFFFFF" d="M15.407,12.914c0.114-0.3-0.026-0.438-0.162-0.609
			c0.216,0.047,0.276,0.375,0.183,0.609C15.42,12.914,15.413,12.914,15.407,12.914z"/>
		<path fill-rule="evenodd" clip-rule="evenodd" fill="#FFFFFF" d="M15.51,15.113c0.003,0.016,0.02,0.02,0.02,0.04
			c1.274,0,2.55,0,3.826,0c0.033-0.374,0.034-0.888,0-1.261c-0.005-0.101,0.035-0.155,0.021-0.265
			c-0.004-0.012,0.029-0.027,0.02-0.042c0.086,0.13,0,0.515,0,0.794c0,0.32,0.016,0.604-0.02,0.794
			c-1.268-0.026-2.655,0.053-3.888-0.041c0-0.027,0-0.053,0-0.082c0.013,0.001,0.024,0.004,0.021,0.021
			C15.51,15.085,15.51,15.099,15.51,15.113z"/>
		<path fill-rule="evenodd" clip-rule="evenodd" fill="#FFFFFF" d="M18.581,12.772c0.137,0.054,0.243,0.137,0.326,0.243
			c-0.122-0.061-0.203-0.163-0.326-0.223C18.581,12.786,18.581,12.778,18.581,12.772z"/>
		<path fill-rule="evenodd" clip-rule="evenodd" fill="#FFFFFF" d="M17.95,12.366c-0.008-0.025-0.025-0.044-0.061-0.042
			c0.193,0.011,0.379,0.205,0.51,0.347C18.248,12.57,18.105,12.463,17.95,12.366z"/>
		<path fill-rule="evenodd" clip-rule="evenodd" fill="#FFFFFF" d="M16.506,10.595c-0.018,0.26-0.061,0.69,0.021,0.916
			c-0.006,0-0.014,0-0.021,0c-0.013-0.001-0.023-0.004-0.021-0.02C16.464,11.242,16.428,10.808,16.506,10.595z"/>
		<path fill-rule="evenodd" clip-rule="evenodd" fill="#FFFFFF" d="M16.201,6.117c0.142,0.068,0.259,0.161,0.305,0.324
			c-0.093-0.082-0.158-0.192-0.265-0.264C16.234,6.15,16.205,6.146,16.201,6.117z"/>
		<path fill-rule="evenodd" clip-rule="evenodd" fill="#FFFFFF" d="M15.51,5.812c0.116-0.042,0.213,0.021,0.304,0.061
			c0,0.021-0.024,0.016-0.04,0.021c-0.107-0.002-0.149-0.068-0.264-0.062C15.51,5.824,15.51,5.817,15.51,5.812z"/>
		<path fill-rule="evenodd" clip-rule="evenodd" fill="#FFFFFF" d="M15.998,5.995c0.076,0.031,0.125,0.09,0.203,0.122
			c0.004,0.028,0.033,0.033,0.04,0.061c-0.076-0.057-0.153-0.117-0.243-0.163C15.998,6.007,15.998,6.001,15.998,5.995z"/>
		<path fill-rule="evenodd" clip-rule="evenodd" fill="#FFFFFF" d="M16.506,6.441c0.041,0.062,0.142,0.063,0.204,0.103
			c0.085,0.072,0.156,0.155,0.244,0.223c0.127,0.166,0.175,0.41,0.203,0.673c0,0.02,0,0.041,0,0.062c0,0.108,0,0.217,0,0.325
			c-0.001,0.086-0.034,0.142-0.021,0.245c0.002,0.163-0.029,0.295-0.061,0.427c-0.025,0.147,0.191,0.229,0.121,0.488
			c-0.074,0.402-0.129,0.93-0.528,0.996c-0.042,0.202-0.092,0.397-0.163,0.57c-0.103,0.191-0.083,0.715-0.021,0.938
			c-0.003,0.016,0.008,0.019,0.021,0.02c0.042,0.066,0.14,0.077,0.204,0.121c0.456,0.203,0.83,0.486,1.24,0.734
			c0.155,0.097,0.298,0.204,0.449,0.305c0.075,0.012,0.104,0.071,0.163,0.102c0.11,0.118,0.259,0.2,0.385,0.305
			c0.071-0.004,0.067,0.068,0.123,0.082c0.086,0.084,0.168,0.171,0.244,0.264c0.054,0.035,0.02,0.156,0.062,0.205
			c0.015,0.109-0.025,0.164-0.021,0.265c0,0.405,0,0.813,0,1.221c-1.276,0-2.552,0-3.826,0c0.004-0.024-0.005-0.037-0.02-0.041
			c0.003-0.018-0.009-0.021-0.021-0.021c-0.083-0.588-0.246-1.095-0.346-1.668c0.064-0.052,0.1-0.131,0.142-0.203
			c0-0.006,0-0.014,0-0.021c0.063-0.059,0.104-0.142,0.123-0.245c0.006,0,0.013,0,0.021,0c0.094-0.234,0.033-0.563-0.183-0.609
			c-0.043,0.009-0.055-0.015-0.082-0.021c-0.071-0.052-0.292-0.061-0.386-0.021c-0.316,0.016-0.47,0.303-0.347,0.632
			c0.049,0.229,0.234,0.321,0.264,0.57c-0.098,0.539-0.22,1.055-0.346,1.566c0,0.006,0,0.014,0,0.02
			c-0.023,0.004-0.017,0.038-0.021,0.063c-1.275,0-2.55,0-3.825,0c0-0.421,0-0.841,0-1.263c0-0.02,0-0.041,0-0.061
			c0.041-0.129,0.076-0.262,0.142-0.367c0-0.006,0-0.013,0-0.02c0.082-0.096,0.18-0.174,0.266-0.265
			c0.661-0.524,1.363-1.011,2.157-1.404c0.104-0.064,0.243-0.096,0.324-0.183c0.008,0,0.014,0,0.021,0
			c0.048-0.007,0.046-0.063,0.083-0.083c-0.015-0.217,0.026-0.486-0.021-0.671c0.004-0.024-0.005-0.037-0.021-0.042
			c-0.022-0.029-0.024-0.083-0.062-0.101c-0.098-0.254-0.139-0.566-0.264-0.795c-0.042-0.046-0.073-0.104-0.121-0.143
			c-0.042-0.073-0.09-0.142-0.103-0.244c-0.024-0.076-0.039-0.163-0.083-0.223c0.003-0.03,0.004-0.059-0.019-0.062
			c0.007-0.046-0.004-0.077-0.021-0.101c-0.019-0.077-0.006-0.186-0.039-0.245c-0.035-0.251,0.094-0.34,0.265-0.387
			c-0.017-0.019-0.023-0.046-0.021-0.081c-0.041-0.142-0.051-0.314-0.081-0.47c0-0.039,0-0.08,0-0.121
			c0.024-0.151,0.055-0.299,0.081-0.448c-0.011-0.063,0.063-0.045,0.041-0.122c0.007,0,0.014,0,0.02,0
			c0.015-0.107,0.081-0.164,0.102-0.264c0.109-0.123,0.189-0.272,0.306-0.387c0.09-0.127,0.224-0.21,0.325-0.325
			c0.116-0.076,0.203-0.178,0.347-0.225c0.072-0.043,0.163-0.067,0.224-0.121c0.13-0.062,0.29-0.092,0.469-0.103
			c0.075-0.014,0.202,0.025,0.243-0.021c0.115-0.005,0.182,0.037,0.306,0.021c0.047,0.007,0.077,0.032,0.144,0.021
			c0,0.006,0,0.013,0,0.021c0.114-0.007,0.156,0.06,0.264,0.062c0.063,0.046,0.145,0.071,0.225,0.102c0,0.006,0,0.012,0,0.02
			c0.09,0.046,0.167,0.106,0.243,0.163C16.348,6.249,16.413,6.359,16.506,6.441z"/>
		<path fill-rule="evenodd" clip-rule="evenodd" fill="#FFFFFF" d="M16.71,6.544c0.029,0.011,0.052,0.029,0.082,0.04
			c0.037,0.057,0.085,0.104,0.141,0.143c0.004,0.018,0.021,0.021,0.021,0.04C16.866,6.699,16.795,6.616,16.71,6.544z"/>
		<path fill-rule="evenodd" clip-rule="evenodd" fill="#FFFFFF" d="M17.076,8.498c0.047,0.143,0.221,0.267,0.121,0.488
			C17.268,8.727,17.051,8.646,17.076,8.498z"/>
		<path fill-rule="evenodd" clip-rule="evenodd" fill="#FFFFFF" d="M16.506,10.553c0,0.015,0,0.027,0,0.042
			c-0.078,0.213-0.042,0.647-0.021,0.896C16.423,11.268,16.403,10.744,16.506,10.553z"/>
		<path fill-rule="evenodd" clip-rule="evenodd" fill="#FFFFFF" d="M16.506,11.511c0.007,0,0.015,0,0.021,0
			c0.043,0.058,0.15,0.052,0.184,0.121C16.646,11.588,16.548,11.577,16.506,11.511z"/>
		<path fill-rule="evenodd" clip-rule="evenodd" fill="#FFFFFF" d="M18.563,12.772c0.006,0,0.012,0,0.019,0c0,0.006,0,0.014,0,0.021
			c0.123,0.06,0.204,0.162,0.326,0.223c0.008,0.026,0.036,0.032,0.04,0.062C18.821,12.973,18.673,12.891,18.563,12.772z"/>
		<path fill-rule="evenodd" clip-rule="evenodd" fill="#FFFFFF" d="M19.314,13.423c-0.076-0.093-0.158-0.18-0.244-0.264
			C19.197,13.203,19.271,13.297,19.314,13.423z"/>
		<path fill-rule="evenodd" clip-rule="evenodd" fill="#FFFFFF" d="M15.51,15.113c0-0.015,0-0.028,0-0.041
			c0.015,0.004,0.023,0.017,0.02,0.041c1.274,0,2.55,0,3.826,0C18.121,15.147,16.743,15.147,15.51,15.113z"/>
		<path fill-rule="evenodd" clip-rule="evenodd" fill="#FFFFFF" d="M15.143,13.383c0.042-0.072,0.078-0.151,0.142-0.203
			C15.242,13.252,15.207,13.331,15.143,13.383z"/>
		<path fill-rule="evenodd" clip-rule="evenodd" fill="#FFFFFF" d="M15.284,13.159c0.045-0.079,0.078-0.167,0.123-0.245
			C15.389,13.018,15.348,13.101,15.284,13.159z"/>
		<path fill-rule="evenodd" clip-rule="evenodd" fill="#FFFFFF" d="M14.349,15.051c0,0.021,0,0.042,0,0.063
			c-1.241,0.034-2.624,0.034-3.866,0c0.014-0.414-0.027-0.884,0.021-1.263c0,0.422,0,0.842,0,1.263c1.275,0,2.55,0,3.825,0
			C14.332,15.089,14.325,15.055,14.349,15.051z"/>
		<path fill-rule="evenodd" clip-rule="evenodd" fill="#FFFFFF" d="M10.503,13.769c0.009-0.151,0.064-0.26,0.142-0.346
			c-0.065,0.105-0.101,0.238-0.142,0.367C10.503,13.783,10.503,13.775,10.503,13.769z"/>
		<path fill-rule="evenodd" clip-rule="evenodd" fill="#FFFFFF" d="M13.067,11.734c0.072-0.09,0.221-0.104,0.305-0.183
			c0.007,0,0.014,0,0.02,0C13.311,11.639,13.171,11.67,13.067,11.734z"/>
		<path fill-rule="evenodd" clip-rule="evenodd" fill="#FFFFFF" d="M13.412,11.552c0.001-0.041,0.057-0.025,0.041-0.083
			c0.049-0.183,0.007-0.453,0.021-0.671c0.048,0.185,0.007,0.454,0.021,0.671C13.458,11.489,13.46,11.545,13.412,11.552z"/>
		<path fill-rule="evenodd" clip-rule="evenodd" fill="#FFFFFF" d="M13.007,9.718c0.048,0.039,0.079,0.097,0.121,0.143
			C13.043,9.857,13.043,9.771,13.007,9.718z"/>
		<path fill-rule="evenodd" clip-rule="evenodd" fill="#FFFFFF" d="M12.883,9.474c-0.01-0.083-0.058-0.13-0.062-0.223
			c0.044,0.06,0.059,0.146,0.083,0.223C12.897,9.474,12.89,9.474,12.883,9.474z"/>
		<path fill-rule="evenodd" clip-rule="evenodd" fill="#FFFFFF" d="M13.147,6.951c0.012-0.03,0.03-0.052,0.042-0.081
			c0.057-0.072,0.111-0.147,0.162-0.225c0.048-0.015,0.055-0.068,0.102-0.081C13.337,6.679,13.257,6.828,13.147,6.951z"/>
		<path fill-rule="evenodd" clip-rule="evenodd" fill="#FFFFFF" d="M14.125,6.015c0.051-0.064,0.14-0.091,0.224-0.121
			C14.288,5.947,14.197,5.972,14.125,6.015z"/>
		<path fill-rule="evenodd" clip-rule="evenodd" fill="#FFFFFF" d="M13.392,6.564c0.104-0.086,0.199-0.182,0.285-0.285
			c0.052,0.003,0.063-0.031,0.102-0.04c-0.102,0.115-0.235,0.198-0.325,0.325c-0.047,0.013-0.054,0.066-0.102,0.081
			C13.363,6.616,13.382,6.595,13.392,6.564z"/>
		<path fill-rule="evenodd" clip-rule="evenodd" fill="#FFFFFF" d="M16.933,6.727c-0.056-0.038-0.104-0.086-0.141-0.143
			C16.86,6.611,16.908,6.658,16.933,6.727z"/>
		<path fill-rule="evenodd" clip-rule="evenodd" fill="#FFFFFF" d="M10.645,13.403c0.045-0.132,0.145-0.209,0.266-0.265
			C10.824,13.229,10.727,13.308,10.645,13.403z"/>
		<path fill-rule="evenodd" clip-rule="evenodd" fill="#FFFFFF" d="M19.355,13.893c0.034,0.373,0.033,0.887,0,1.261
			c-1.276,0-2.552,0-3.826,0c0-0.021-0.017-0.024-0.02-0.04c1.233,0.034,2.611,0.034,3.846,0
			C19.355,14.705,19.355,14.298,19.355,13.893z"/>
		<path fill-rule="evenodd" clip-rule="evenodd" fill="#FFFFFF" d="M14.349,15.113c-1.215,0.08-2.65,0.04-3.866,0.02
			c0-0.006,0-0.014,0-0.02C11.725,15.147,13.107,15.147,14.349,15.113z"/>
		<path fill-rule="evenodd" clip-rule="evenodd" fill="#FFFFFF" d="M9.221,17.717c0.006,0,0.013,0,0.021,0
			c0.23,0.048,0.548,0.008,0.813,0.021c0.048-0.266,0.008-0.617,0.021-0.916c0.006,0,0.014,0,0.021,0
			c-0.014,0.306,0.026,0.664-0.021,0.936C9.802,17.733,9.426,17.811,9.221,17.717z"/>
		<path fill-rule="evenodd" clip-rule="evenodd" fill="#FFFFFF" d="M19.904,16.822c0.007,0,0.015,0,0.021,0c0,0.299,0,0.598,0,0.895
			c0.231,0.033,0.603,0.034,0.835,0c0.007,0,0.015,0,0.02,0c-0.205,0.081-0.634,0.042-0.875,0.021
			C19.904,17.432,19.904,17.126,19.904,16.822z"/>
		<path fill-rule="evenodd" clip-rule="evenodd" fill="#FFFFFF" d="M9.506,16.029c0.015-0.021,0.036-0.031,0.061-0.043
			c0.014,0,0.027,0,0.04,0c3.596,0,7.191,0,10.787,0c0.021,0,0.04,0,0.061,0c0,0.008,0,0.015,0,0.021
			C16.811,16.022,13.114,15.98,9.506,16.029z"/>
		<path fill-rule="evenodd" clip-rule="evenodd" fill="#FFFFFF" d="M20.454,16.008c0.173,0.031,0.238,0.168,0.285,0.325
			c0,0.463,0,0.923,0,1.384c-0.259,0-0.516,0-0.773,0c-0.013-0.291,0.026-0.636-0.02-0.895c0-0.007,0-0.015,0-0.021
			c-1.474-0.047-3.032-0.005-4.539-0.019c-0.047,0.271-0.008,0.63-0.021,0.935c-0.258,0-0.516,0-0.773,0c0-0.305,0-0.609,0-0.916
			c-1.473-0.033-3.087-0.033-4.559,0c0,0.007,0,0.015,0,0.021c-0.047,0.259-0.008,0.604-0.02,0.895c-0.258,0-0.517,0-0.774,0
			c0.062-0.556-0.154-1.389,0.184-1.669c0.016-0.01,0.033-0.021,0.062-0.019C13.114,15.98,16.811,16.022,20.454,16.008z"/>
		<path fill-rule="evenodd" clip-rule="evenodd" fill="#FFFFFF" d="M15.387,17.717c0.013-0.305-0.026-0.663,0.021-0.935
			c1.507,0.014,3.065-0.028,4.539,0.019c-0.007,0-0.015,0-0.021,0c-1.506,0-3.011,0-4.518,0c0,0.307,0,0.611,0,0.916
			C15.401,17.717,15.394,17.717,15.387,17.717z"/>
		<path fill-rule="evenodd" clip-rule="evenodd" fill="#FFFFFF" d="M10.055,16.801c1.472-0.033,3.086-0.033,4.559,0
			c0,0.307,0,0.611,0,0.916c-0.007,0-0.014,0-0.021,0c0-0.297,0-0.596,0-0.895c-1.465-0.048-3.019-0.007-4.518-0.021
			C10.068,16.801,10.062,16.801,10.055,16.801z"/>
		<path fill-rule="evenodd" clip-rule="evenodd" fill="#FFFFFF" d="M9.241,16.354c0.02-0.149,0.106-0.233,0.203-0.307
			c-0.338,0.28-0.122,1.113-0.184,1.669c-0.006,0-0.013,0-0.02,0C9.241,17.263,9.241,16.808,9.241,16.354z"/>
		<path fill-rule="evenodd" clip-rule="evenodd" fill="#FFFFFF" d="M10.055,16.822c0-0.007,0-0.015,0-0.021c0.007,0,0.014,0,0.021,0
			c0,0.007,0,0.015,0,0.021c-0.013,0.299,0.027,0.65-0.021,0.916c-0.266-0.014-0.583,0.026-0.813-0.021c0.007,0,0.014,0,0.02,0
			c0.258,0,0.517,0,0.774,0C10.081,17.459,10.041,17.115,10.055,16.822z"/>
		<path fill-rule="evenodd" clip-rule="evenodd" fill="#FFFFFF" d="M10.075,16.822c0-0.007,0-0.015,0-0.021
			c1.499,0.015,3.053-0.026,4.518,0.021c0,0.299,0,0.598,0,0.895c0,0.008,0,0.015,0,0.021c-0.006,0-0.013,0-0.021,0
			c0-0.007,0-0.014,0-0.021c-0.014-0.291,0.027-0.636-0.02-0.895c-1.485,0-2.972,0-4.457,0
			C10.089,16.822,10.081,16.822,10.075,16.822z"/>
		<path fill-rule="evenodd" clip-rule="evenodd" fill="#FFFFFF" d="M15.407,17.717c0-0.305,0-0.609,0-0.916c1.507,0,3.012,0,4.518,0
			c0,0.007,0,0.015,0,0.021c-0.006,0-0.014,0-0.021,0c-1.485,0-2.972,0-4.456,0c-0.047,0.259-0.007,0.604-0.021,0.895
			c0,0.008,0,0.015,0,0.021c-0.008,0-0.015,0-0.021,0C15.407,17.731,15.407,17.725,15.407,17.717z"/>
		<path fill-rule="evenodd" clip-rule="evenodd" fill="#FFFFFF" d="M19.925,16.822c0-0.007,0-0.015,0-0.021c0.007,0,0.015,0,0.021,0
			c0,0.007,0,0.015,0,0.021c0.012,0.293-0.027,0.637,0.02,0.895c0.258,0,0.515,0,0.773,0c0.007,0,0.013,0,0.021,0
			c-0.232,0.034-0.604,0.033-0.835,0C19.925,17.42,19.925,17.121,19.925,16.822z"/>
		<path fill-rule="evenodd" clip-rule="evenodd" fill="#FFFFFF" d="M9.2,18.45c0.651-0.08,1.533-0.042,2.219-0.02
			C10.685,18.442,9.899,18.403,9.2,18.45z"/>
		<path fill-rule="evenodd" clip-rule="evenodd" fill="#FFFFFF" d="M7.735,21.422c-0.197-0.007-0.275-0.131-0.306-0.305
			c0.077,0.12,0.144,0.25,0.306,0.286C7.735,21.409,7.735,21.415,7.735,21.422z"/>
		<path fill-rule="evenodd" clip-rule="evenodd" fill="#FFFFFF" d="M11.438,18.431c0.12,0.002,0.2,0.043,0.245,0.122
			c-0.03-0.012-0.053-0.03-0.083-0.043c-0.062,0.003-0.097-0.023-0.141-0.039c-0.002-0.013-0.004-0.025-0.021-0.021
			C11.438,18.442,11.438,18.438,11.438,18.431z"/>
		<path fill-rule="evenodd" clip-rule="evenodd" fill="#FFFFFF" d="M16.914,18.51c0.169,0.008,0.256,0.097,0.283,0.246
			c-0.086-0.082-0.142-0.198-0.283-0.224C16.914,18.524,16.914,18.518,16.914,18.51z"/>
		<path fill-rule="evenodd" clip-rule="evenodd" fill="#FFFFFF" d="M13.209,18.431c0.692-0.022,1.579-0.061,2.239,0.02
			C14.742,18.403,13.949,18.442,13.209,18.431z"/>
		<path fill-rule="evenodd" clip-rule="evenodd" fill="#FFFFFF" d="M22.57,21.117c-0.016,0.188-0.117,0.289-0.305,0.305
			c0.12-0.076,0.251-0.143,0.284-0.305C22.556,21.117,22.563,21.117,22.57,21.117z"/>
		<path fill-rule="evenodd" clip-rule="evenodd" fill="#FFFFFF" d="M7.856,18.471c1.205,0.004,2.366-0.035,3.582-0.021
			c0.018-0.005,0.02,0.008,0.021,0.021c-1.229-0.017-2.404,0.024-3.623,0.021C7.833,18.474,7.844,18.472,7.856,18.471z"/>
		<path fill-rule="evenodd" clip-rule="evenodd" fill="#FFFFFF" d="M13.169,18.471c-0.004-0.018,0.008-0.02,0.021-0.021
			c1.222-0.015,2.39,0.023,3.603,0.021c0.016-0.003,0.018,0.008,0.019,0.021C15.587,18.495,14.404,18.455,13.169,18.471z"/>
		<path fill-rule="evenodd" clip-rule="evenodd" fill="#FFFFFF" d="M11.601,18.51c0.03,0.013,0.053,0.031,0.083,0.043
			c0.038,0.069,0.117,0.098,0.141,0.184c-0.074-0.068-0.118-0.166-0.224-0.204C11.601,18.524,11.601,18.518,11.601,18.51z"/>
		<path fill-rule="evenodd" clip-rule="evenodd" fill="#FFFFFF" d="M11.601,21.403c0.082-0.069,0.156-0.146,0.224-0.226
			C11.774,21.277,11.699,21.351,11.601,21.403z"/>
		<path fill-rule="evenodd" clip-rule="evenodd" fill="#FFFFFF" d="M7.43,18.817c0.04-0.123,0.11-0.216,0.224-0.265
			C7.562,18.622,7.491,18.715,7.43,18.817z"/>
		<path fill-rule="evenodd" clip-rule="evenodd" fill="#FFFFFF" d="M13.026,18.51c0.045-0.016,0.068-0.051,0.143-0.039
			c1.235-0.016,2.418,0.024,3.642,0.021c0.049-0.007,0.079,0.003,0.104,0.019c0,0.008,0,0.015,0,0.022
			c0.142,0.025,0.197,0.142,0.283,0.224c0,0.006,0,0.013,0,0.02c0.093,0.683,0.017,1.532,0.042,2.28
			c0.021,0.076-0.051,0.058-0.042,0.122c-0.068,0.08-0.143,0.156-0.223,0.226c-0.045,0.016-0.069,0.052-0.144,0.039
			c-1.221,0-2.44,0-3.662,0c-0.074,0.013-0.098-0.023-0.143-0.039c-0.081-0.069-0.155-0.146-0.224-0.226
			c0.01-0.064-0.063-0.046-0.041-0.122c0-0.732,0-1.465,0-2.198c-0.021-0.077,0.051-0.058,0.041-0.121
			C12.871,18.655,12.945,18.58,13.026,18.51z"/>
		<path fill-rule="evenodd" clip-rule="evenodd" fill="#FFFFFF" d="M17.197,18.775c0.043,0.041,0.061,0.104,0.062,0.184
			c0,0.673,0,1.345,0,2.015c0,0.021,0,0.042,0,0.062c0.003,0.019-0.008,0.021-0.02,0.021C17.214,20.308,17.29,19.458,17.197,18.775z
			"/>
		<path fill-rule="evenodd" clip-rule="evenodd" fill="#FFFFFF" d="M16.975,21.403c0.08-0.069,0.154-0.146,0.223-0.226
			C17.147,21.277,17.072,21.351,16.975,21.403z"/>
		<path fill-rule="evenodd" clip-rule="evenodd" fill="#FFFFFF" d="M13.026,21.403c-0.099-0.053-0.174-0.126-0.224-0.226
			C12.871,21.258,12.945,21.334,13.026,21.403z"/>
		<path fill-rule="evenodd" clip-rule="evenodd" fill="#FFFFFF" d="M12.803,18.736c0.05-0.1,0.125-0.174,0.224-0.227
			C12.945,18.58,12.871,18.655,12.803,18.736z"/>
		<path fill-rule="evenodd" clip-rule="evenodd" fill="#FFFFFF" d="M22.388,18.553c0.074,0.006,0.094,0.069,0.122,0.121
			c-0.055-0.021-0.069-0.08-0.122-0.103C22.388,18.566,22.388,18.559,22.388,18.553z"/>
		<path fill-rule="evenodd" clip-rule="evenodd" fill="#FFFFFF" d="M22.51,18.674c0.038,0.057,0.078,0.112,0.081,0.204
			c0,0.72,0,1.439,0,2.157c0.009,0.043-0.014,0.055-0.021,0.082c-0.007,0-0.015,0-0.021,0c-0.033,0.162-0.164,0.229-0.284,0.305
			c-0.019,0.016-0.046,0.022-0.082,0.021c-1.22,0-2.441,0-3.663,0c-0.057-0.023-0.116-0.045-0.183-0.061
			c-0.053-0.057-0.106-0.11-0.162-0.163c0-0.006,0-0.013,0-0.02c-0.048-0.056-0.046-0.158-0.083-0.226c0-0.67,0-1.342,0-2.015
			c0.05-0.256,0.187-0.425,0.447-0.468c0.571-0.015,1.195,0.026,1.731-0.021c0.047,0,0.095,0,0.143,0c0.59,0,1.181,0,1.77,0
			c0.104-0.009,0.142,0.048,0.204,0.082c0,0.006,0,0.014,0,0.019C22.44,18.594,22.455,18.652,22.51,18.674z"/>
		<path fill-rule="evenodd" clip-rule="evenodd" fill="#FFFFFF" d="M18.176,21.219c0.056,0.053,0.109,0.106,0.162,0.163
			C18.246,21.364,18.191,21.31,18.176,21.219z"/>
		<path fill-rule="evenodd" clip-rule="evenodd" fill="#FFFFFF" d="M18.176,21.199c-0.06-0.017-0.052-0.1-0.083-0.144
			c0-0.014,0-0.026,0-0.04s0-0.028,0-0.042C18.13,21.041,18.128,21.144,18.176,21.199z"/>
		<path fill-rule="evenodd" clip-rule="evenodd" fill="#FFFFFF" d="M15.346,5.77c-0.114-0.021-0.247-0.023-0.386-0.02
			c-0.064-0.031,0.317-0.031,0.386,0C15.346,5.757,15.346,5.765,15.346,5.77z"/>
		<path fill-rule="evenodd" clip-rule="evenodd" fill="#FFFFFF" d="M14.96,5.75c0.139-0.004,0.271-0.001,0.386,0.02
			c0.018-0.003,0.02,0.009,0.021,0.021c-0.124,0.016-0.19-0.026-0.306-0.021c-0.033,0-0.067,0-0.101,0
			C14.96,5.765,14.96,5.757,14.96,5.75z"/>
		<path fill-rule="evenodd" clip-rule="evenodd" fill="#FFFFFF" d="M12.985,7.337c-0.026,0.149-0.057,0.297-0.081,0.448
			c0-0.026,0-0.055,0-0.081C12.902,7.553,12.937,7.438,12.985,7.337z"/>
		<path fill-rule="evenodd" clip-rule="evenodd" fill="#FFFFFF" d="M17.157,7.439c-0.002-0.036,0.024-0.043,0.021-0.081
			c0.047,0.088,0.007,0.264,0.02,0.386c-0.007,0-0.013,0-0.02,0c-0.013-0.074,0.025-0.202-0.021-0.243
			C17.157,7.48,17.157,7.459,17.157,7.439z"/>
		<path fill-rule="evenodd" clip-rule="evenodd" fill="#FFFFFF" d="M17.197,7.744c-0.009,0.12,0.034,0.292-0.061,0.327
			c-0.014-0.104,0.02-0.159,0.021-0.245c0.028-0.007,0.018-0.052,0.021-0.082C17.185,7.744,17.19,7.744,17.197,7.744z"/>
		<path fill-rule="evenodd" clip-rule="evenodd" fill="#FFFFFF" d="M12.904,7.906c0.03,0.155,0.04,0.328,0.081,0.47
			c-0.064-0.093-0.08-0.232-0.081-0.387C12.904,7.961,12.904,7.936,12.904,7.906z"/>
		<path fill-rule="evenodd" clip-rule="evenodd" fill="#FFFFFF" d="M12.742,8.844c0.033,0.06,0.021,0.168,0.039,0.245
			C12.729,9.044,12.743,8.938,12.742,8.844z"/>
		<path fill-rule="evenodd" clip-rule="evenodd" fill="#FFFFFF" d="M15.163,12.284c-0.123-0.013-0.243-0.03-0.386-0.021
			C14.871,12.224,15.092,12.232,15.163,12.284z"/>
		<path fill-rule="evenodd" clip-rule="evenodd" fill="#FFFFFF" d="M20.394,15.986c-3.548-0.033-7.239-0.033-10.787,0
			c-0.013,0-0.026,0-0.04,0c0.669-0.071,1.95-0.04,2.748-0.04c2.258,0,4.468,0,6.776,0c0.48,0,1.027-0.031,1.363,0.04
			C20.434,15.986,20.414,15.986,20.394,15.986z"/>
		<path fill-rule="evenodd" clip-rule="evenodd" fill="#FFFFFF" d="M9.2,18.45c0.699-0.047,1.484-0.008,2.219-0.02
			c0.007,0,0.013,0,0.02,0c0,0.007,0,0.012,0,0.02c-1.216-0.015-2.377,0.024-3.582,0.021C8.265,18.423,8.76,18.463,9.2,18.45z"/>
		<path fill-rule="evenodd" clip-rule="evenodd" fill="#FFFFFF" d="M11.824,18.736c-0.009,0.063,0.063,0.044,0.042,0.121
			c0,0.733,0,1.466,0,2.198c0.021,0.076-0.051,0.058-0.042,0.122c-0.067,0.08-0.142,0.156-0.224,0.226
			c-0.044,0.016-0.069,0.052-0.141,0.039c-1.216,0-2.431,0-3.644,0c-0.043,0.009-0.054-0.014-0.081-0.021c0-0.007,0-0.013,0-0.019
			c-0.162-0.036-0.229-0.166-0.306-0.286c-0.017-0.019-0.021-0.045-0.021-0.082c0-0.712,0-1.424,0-2.137
			C7.4,18.855,7.424,18.844,7.43,18.817c0.062-0.103,0.132-0.195,0.224-0.265c0.061-0.021,0.091-0.073,0.184-0.062
			c1.219,0.004,2.394-0.037,3.623-0.021c0.044,0.016,0.079,0.042,0.141,0.039c0,0.008,0,0.015,0,0.022
			C11.706,18.57,11.75,18.668,11.824,18.736z"/>
		<path fill-rule="evenodd" clip-rule="evenodd" fill="#FFFFFF" d="M11.887,20.974c0.048-0.637,0.006-1.362,0.021-2.034
			c-0.001-0.09,0.034-0.004,0.021,0.039c0,0.05,0,0.097,0,0.146c0,0.087,0,0.175,0,0.264c0,0.183,0,0.366,0,0.549
			c-0.027,0.354,0.053,0.813-0.041,1.099C11.887,21.016,11.887,20.995,11.887,20.974z"/>
		<path fill-rule="evenodd" clip-rule="evenodd" fill="#FFFFFF" d="M17.259,20.974c0.047-0.63,0.007-1.348,0.021-2.015
			C17.279,18.87,17.314,18.957,17.3,19c0,0.048,0,0.096,0,0.143c0,0.088,0,0.177,0,0.266c0,0.176,0,0.352,0,0.528
			c0,0.359,0,0.719,0,1.079c-0.016,0.004-0.02,0.02-0.041,0.02C17.259,21.016,17.259,20.995,17.259,20.974z"/>
		<path fill-rule="evenodd" clip-rule="evenodd" fill="#FFFFFF" d="M12.721,18.919c0.015,0.685-0.027,1.425,0.021,2.076
			c0,0.014,0,0.026,0,0.04c-0.018-0.003-0.021-0.02-0.042-0.02C12.713,20.359,12.675,19.505,12.721,18.919z"/>
		<path fill-rule="evenodd" clip-rule="evenodd" fill="#FFFFFF" d="M18.073,18.919c0.013,0.692-0.028,1.438,0.02,2.097
			c0,0.014,0,0.026,0,0.04c-0.016-0.004-0.02-0.021-0.04-0.021C18.066,20.378,18.026,19.517,18.073,18.919z"/>
		<path fill-rule="evenodd" clip-rule="evenodd" fill="#FFFFFF" d="M13.209,18.431c0.74,0.012,1.533-0.027,2.239,0.02
			c0.44,0.013,0.936-0.027,1.344,0.021c-1.213,0.003-2.381-0.035-3.603-0.021C13.186,18.435,13.197,18.432,13.209,18.431z"/>
		<path fill-rule="evenodd" clip-rule="evenodd" fill="#FFFFFF" d="M13.453,10.756c0.016,0.005,0.024,0.018,0.021,0.042
			c-0.014,0.218,0.028,0.488-0.021,0.671C13.453,11.231,13.453,10.994,13.453,10.756z"/>
	</g>
</g>
</svg>
