<?xml version="1.0" encoding="utf-8"?>
<!-- Generator: Adobe Illustrator 14.0.0, SVG Export Plug-In . SVG Version: 6.00 Build 43363)  -->
<!DOCTYPE svg PUBLIC "-//W3C//DTD SVG 1.1//EN" "http://www.w3.org/Graphics/SVG/1.1/DTD/svg11.dtd">
<svg version="1.1" id="Layer_1" xmlns="http://www.w3.org/2000/svg" xmlns:xlink="http://www.w3.org/1999/xlink" x="0px" y="0px"
	 width="17.436px" height="17.435px" viewBox="0 0 17.436 17.435" enable-background="new 0 0 17.436 17.435" xml:space="preserve">
<path fill-rule="evenodd" clip-rule="evenodd" fill="#39BBED" d="M15.567,0H1.868C0.837,0-0.001,0.835-0.001,1.867v13.7
	c0,1.032,0.838,1.868,1.869,1.868h13.699c1.031,0,1.869-0.836,1.869-1.868v-13.7C17.437,0.835,16.599,0,15.567,0z M8.88,11.693
	c-0.406-0.119-0.564-0.366-0.998-0.63c-0.166,0.503-0.209,1.19-0.471,1.94C7.3,13.318,6.849,14.56,6.36,14.525
	c-0.801-0.058-0.279-2.36-0.156-2.885c0.113-0.482,0.201-0.986,0.314-1.469c0.109-0.466,0.363-1.026,0.367-1.416
	c0.002-0.33-0.195-0.683-0.211-1.049C6.642,6.833,7.001,5.898,7.776,5.765c1.301-0.222,1.314,1.096,1.049,2.047
	C8.63,8.515,8.261,9.08,8.354,9.701c0.076,0.498,0.811,1.063,1.73,0.733c1.113-0.399,1.791-1.956,1.625-3.567
	c-0.146-1.451-1.332-2.622-3.041-2.622c-2.078,0-4.098,2.204-2.99,4.458c0.09,0.18,0.285,0.254,0.314,0.525
	c0.047,0.414-0.129,0.579-0.314,1.049c-1.08-0.451-1.613-1.414-1.678-2.675c-0.137-2.635,1.766-4.45,4.248-4.669
	c3.023-0.266,5.154,1.618,5.193,4.196C13.478,9.556,11.597,12.497,8.88,11.693z"/>
</svg>
