<?xml version="1.0" encoding="utf-8"?>
<!-- Generator: Adobe Illustrator 14.0.0, SVG Export Plug-In . SVG Version: 6.00 Build 43363)  -->
<!DOCTYPE svg PUBLIC "-//W3C//DTD SVG 1.1//EN" "http://www.w3.org/Graphics/SVG/1.1/DTD/svg11.dtd">
<svg version="1.1" id="Layer_1" xmlns="http://www.w3.org/2000/svg" xmlns:xlink="http://www.w3.org/1999/xlink" x="0px" y="0px"
	 width="15px" height="15px" viewBox="0 0 15 15" enable-background="new 0 0 15 15" xml:space="preserve">
<g>
	<path fill="#32BBED" d="M3.986,9.318H6.52l0.553,1.561h1.392L5.928,4.008H4.573l-2.469,6.871h1.357L3.986,9.318z M5.235,5.609
		L6.11,8.16H4.378L5.235,5.609z"/>
	<path fill="#32BBED" d="M10.831,10.99c0.504,0,0.925-0.125,1.26-0.377c0.337-0.252,0.583-0.617,0.738-1.098l-1.21-0.224
		c-0.066,0.253-0.164,0.435-0.295,0.546c-0.129,0.113-0.288,0.168-0.479,0.168c-0.279,0-0.513-0.105-0.699-0.324
		C9.958,9.463,9.859,9.158,9.85,8.771h3.047c0.019-1.011-0.172-1.759-0.564-2.249c-0.398-0.49-0.938-0.735-1.62-0.735
		c-0.608,0-1.11,0.233-1.509,0.701c-0.398,0.468-0.6,1.113-0.6,1.939c0,0.691,0.151,1.262,0.455,1.715
		C9.441,10.708,10.031,10.99,10.831,10.99z M10.127,7.109c0.172-0.209,0.395-0.313,0.657-0.313c0.245,0,0.458,0.1,0.63,0.298
		c0.173,0.197,0.266,0.487,0.273,0.87H9.871C9.869,7.604,9.955,7.32,10.127,7.109z"/>
	<path fill="#32BBED" d="M0,0v15h15V0H0z M13.674,13.654H1.326V1.345h12.347L13.674,13.654L13.674,13.654z"/>
</g>
</svg>
