<?xml version="1.0" encoding="utf-8"?>
<!-- Generator: Adobe Illustrator 14.0.0, SVG Export Plug-In . SVG Version: 6.00 Build 43363)  -->
<!DOCTYPE svg PUBLIC "-//W3C//DTD SVG 1.1//EN" "http://www.w3.org/Graphics/SVG/1.1/DTD/svg11.dtd">
<svg version="1.1" id="Layer_1" xmlns="http://www.w3.org/2000/svg" xmlns:xlink="http://www.w3.org/1999/xlink" x="0px" y="0px"
	 width="10px" height="10.688px" viewBox="40.965 43.784 10 10.688" enable-background="new 40.965 43.784 10 10.688"
	 xml:space="preserve">
<g>
	<path fill="#32BBED" d="M41.455,52.551c2.577,0.06,5.353,0.032,7.962,0.032c0.395,0,0.773,0.039,1.099-0.048
		c0.058-1.241,0.032-2.967,0.032-4.377c0-0.385,0.089-1.143-0.032-1.438c-0.132-0.32-0.529-0.259-0.953-0.259
		c-0.237,0-0.475,0-0.727,0c0.031,0.109,0.085,0.195,0.113,0.307c0.407,0.028,0.931-0.059,1.26,0.048
		c0.064,1.75,0.032,3.683,0.016,5.459c-2.832-0.011-5.707,0.021-8.512-0.016c0-1.356,0-2.774,0-4.119
		c0-0.471-0.039-0.942,0.048-1.34c0.348-0.072,0.827-0.013,1.228-0.032c0.038-0.103,0.088-0.192,0.113-0.307
		c-0.502,0.061-0.883-0.082-1.341,0c-0.415,0.075-0.355,0.511-0.355,1.018c0,1.454,0,2.974,0,4.377
		C41.407,52.102,41.369,52.347,41.455,52.551z"/>
	<path fill="#32BBED" d="M50.952,52.939c-0.383-0.087-0.781-0.048-1.179-0.048c-2.472,0-4.935,0-7.414,0
		c-0.338,0-0.942-0.069-1.244,0c-0.201,0.046-0.166,0.33-0.097,0.564c0.141,0.478,0.574,0.886,1.05,0.985
		c0.27,0.057,0.614,0.017,0.953,0.017c1.927,0,3.988,0,5.896,0c0.347,0,0.704,0.037,0.969-0.017
		C50.54,54.308,51.053,53.702,50.952,52.939z M46.414,53.795c-0.222,0.053-0.65,0.053-0.872,0c-0.184-0.405,0.643-0.286,0.872-0.227
		C46.449,53.632,46.46,53.736,46.414,53.795z"/>
	<path fill="#32BBED" d="M43.709,49.584l-0.724,0.418l-0.077-0.373l-0.595,0.884l1.063-0.073l-0.285-0.252l0.724-0.419l2.066,1.193
		c0.024,0.033,0.063,0.055,0.107,0.055c0.044,0,0.083-0.021,0.106-0.055l2.067-1.193l0.724,0.419l-0.284,0.252l1.063,0.073
		l-0.595-0.884l-0.076,0.373l-0.725-0.418V46.63c0-0.003-0.001-0.006-0.001-0.009c0-0.003-0.001-0.007-0.002-0.011
		c-0.002-0.014-0.006-0.028-0.013-0.04c-0.001,0-0.001,0-0.001,0s0,0,0,0c-0.007-0.012-0.017-0.022-0.027-0.031
		c-0.003-0.002-0.006-0.004-0.009-0.006c-0.002-0.002-0.005-0.004-0.007-0.006l-2.113-1.22V44.62l0.361,0.12l-0.468-0.957
		l-0.468,0.957l0.361-0.121v0.687l-2.113,1.22c-0.003,0.001-0.005,0.004-0.008,0.006s-0.005,0.004-0.008,0.006
		c-0.011,0.009-0.021,0.02-0.028,0.032l0,0l0,0c-0.007,0.012-0.011,0.026-0.014,0.04c0,0.003-0.001,0.007-0.001,0.011
		c0,0.003-0.001,0.006-0.001,0.009V49.584L43.709,49.584z M43.95,46.839l1.907,1.101v0.404l-1.907,1.101V46.839z M45.857,48.591
		v2.078l-1.8-1.039L45.857,48.591z M46.122,50.669v-2.078l1.8,1.039L46.122,50.669z M46.122,48.344V47.94l1.907-1.101v2.606
		L46.122,48.344z M47.908,46.63l-1.819,1.051c0.005-0.012,0.008-0.025,0.008-0.039v-2.058L47.908,46.63z M45.89,47.681l-1.819-1.051
		l1.812-1.046v2.058C45.882,47.656,45.885,47.669,45.89,47.681z"/>
</g>
</svg>
