<?xml version="1.0" encoding="utf-8"?>
<!-- Generator: Adobe Illustrator 14.0.0, SVG Export Plug-In . SVG Version: 6.00 Build 43363)  -->
<!DOCTYPE svg PUBLIC "-//W3C//DTD SVG 1.1//EN" "http://www.w3.org/Graphics/SVG/1.1/DTD/svg11.dtd">
<svg version="1.1" id="Layer_1" xmlns="http://www.w3.org/2000/svg" xmlns:xlink="http://www.w3.org/1999/xlink" x="0px" y="0px"
	 width="30px" height="30px" viewBox="0 0 30 30" enable-background="new 0 0 30 30" xml:space="preserve">
<g>
	<path fill="#0C5E91" d="M0,15C0,6.717,6.715,0,15,0c8.283,0,15,6.717,15,15c0,8.285-6.717,15-15,15C6.715,30,0,23.285,0,15"/>
	<path fill="#FFFFFF" d="M17.133,16.738c-0.389-0.061-0.397-1.127-0.397-1.127s1.138-1.123,1.386-2.636
		c0.666,0,1.078-1.609,0.409-2.176c0.029-0.595,0.857-4.677-3.339-4.677c-4.195,0-3.367,4.082-3.34,4.677
		c-0.665,0.567-0.253,2.177,0.413,2.177c0.248,1.514,1.385,2.637,1.385,2.637s-0.008,1.064-0.395,1.125
		c-1.248,0.199-5.9,2.25-5.9,4.5h15.677C23.031,18.988,18.379,16.938,17.133,16.738"/>
	<path fill="#0C5E91" d="M18.414,15.813c0-2.548,2.067-4.617,4.617-4.617c2.549,0,4.617,2.068,4.617,4.617
		c0,2.551-2.068,4.617-4.617,4.617C20.481,20.43,18.414,18.363,18.414,15.813"/>
	<path fill="none" stroke="#FFFFFF" stroke-width="0.5" d="M19.479,15.813c0-1.96,1.59-3.552,3.552-3.552
		c1.963,0,3.553,1.592,3.553,3.552c0,1.963-1.59,3.553-3.553,3.553C21.069,19.365,19.479,17.775,19.479,15.813"/>
	<g>
		<path fill="#FFFFFF" d="M23.021,18.175c-0.359,0-0.607-0.271-0.607-0.628c0-0.372,0.256-0.627,0.621-0.627
			s0.607,0.255,0.613,0.627c0,0.357-0.24,0.628-0.613,0.628H23.021z M22.643,16.575l-0.152-3.124h1.09l-0.152,3.124H22.643z"/>
	</g>
</g>
</svg>
