<?xml version="1.0" encoding="utf-8"?>
<!-- Generator: Adobe Illustrator 14.0.0, SVG Export Plug-In . SVG Version: 6.00 Build 43363)  -->
<!DOCTYPE svg PUBLIC "-//W3C//DTD SVG 1.1//EN" "http://www.w3.org/Graphics/SVG/1.1/DTD/svg11.dtd">
<svg version="1.1" id="Layer_1" xmlns="http://www.w3.org/2000/svg" xmlns:xlink="http://www.w3.org/1999/xlink" x="0px" y="0px"
	 width="15px" height="15px" viewBox="0 0 15 15" enable-background="new 0 0 15 15" xml:space="preserve">
<g>
	<g>
		<polygon fill="#36BBED" points="8.964,3.613 8.964,4.669 10.856,5.695 8.964,6.733 8.964,7.796 11.675,6.151 11.675,5.248 		"/>
		<polygon fill="#36BBED" points="6.725,8.515 7.282,8.515 8.273,2.816 7.704,2.816 		"/>
		<polygon fill="#36BBED" points="3.323,6.151 6.033,7.793 6.033,6.727 4.143,5.684 6.033,4.678 6.033,3.607 3.323,5.239 		"/>
	</g>
	<path fill="#36BBED" d="M13.225,1.057h-0.707c-0.042,0-0.076,0.042-0.076,0.092c0,0.05,0.034,0.091,0.076,0.091h0.707
		c0.041,0,0.075-0.041,0.075-0.091C13.3,1.099,13.266,1.057,13.225,1.057z"/>
	<path fill="#36BBED" d="M13.225,1.384h-0.707c-0.042,0-0.076,0.042-0.076,0.092c0,0.051,0.034,0.09,0.076,0.09h0.707
		c0.041,0,0.075-0.039,0.075-0.09C13.3,1.426,13.266,1.384,13.225,1.384z"/>
	<path fill="#36BBED" d="M13.225,1.712h-0.707c-0.042,0-0.076,0.042-0.076,0.092s0.034,0.089,0.076,0.089h0.707
		c0.041,0,0.075-0.039,0.075-0.089S13.266,1.712,13.225,1.712z"/>
	<path fill="#36BBED" d="M14.078,0H0.921C0.617,0,0.371,0.297,0.371,0.664v10.668h14.258V0.664C14.628,0.297,14.382,0,14.078,0z
		 M14.157,10.566c0,0.052-0.036,0.093-0.079,0.093H0.921c-0.043,0-0.078-0.041-0.078-0.093V0.664c0-0.052,0.035-0.093,0.078-0.093
		h13.156c0.043,0,0.079,0.042,0.079,0.093V10.566z"/>
	<path fill-rule="evenodd" clip-rule="evenodd" fill="#36BBED" d="M14.981,12.225c0.151,1.38-0.62,2.479-1.6,2.72
		c-0.396,0.098-0.932,0.031-1.453,0.031c-2.861,0-5.953,0-8.843,0c-0.509,0-1.024,0.071-1.43-0.031
		c-0.713-0.181-1.363-0.92-1.574-1.784c-0.104-0.425-0.156-0.94,0.146-1.022c0.451-0.126,1.358,0,1.865,0c3.717,0,7.412,0,11.119,0
		C13.808,12.138,14.407,12.066,14.981,12.225z M6.866,13.775c0.332,0.096,0.975,0.096,1.307,0c0.07-0.107,0.054-0.295,0-0.41
		C7.83,13.258,6.589,13.042,6.866,13.775z"/>
	<circle fill="#36BBED" cx="1.842" cy="1.345" r="0.2"/>
	<circle fill="#36BBED" cx="2.452" cy="1.345" r="0.2"/>
	<circle fill="#36BBED" cx="3.062" cy="1.345" r="0.2"/>
</g>
</svg>
