<?xml version="1.0" encoding="utf-8"?>
<!-- Generator: Adobe Illustrator 14.0.0, SVG Export Plug-In . SVG Version: 6.00 Build 43363)  -->
<!DOCTYPE svg PUBLIC "-//W3C//DTD SVG 1.1//EN" "http://www.w3.org/Graphics/SVG/1.1/DTD/svg11.dtd">
<svg version="1.1" id="Layer_1" xmlns="http://www.w3.org/2000/svg" xmlns:xlink="http://www.w3.org/1999/xlink" x="0px" y="0px"
	 width="30px" height="30px" viewBox="25.125 -12.554 30 30" enable-background="new 25.125 -12.554 30 30" xml:space="preserve">
<g>
	<path fill-rule="evenodd" clip-rule="evenodd" fill="#32BBED" d="M51.908-12.554H28.339c-1.774,0-3.214,1.439-3.214,3.214v23.572
		c0,1.775,1.439,3.214,3.214,3.214h23.569c1.775,0,3.217-1.438,3.217-3.214V-9.341C55.125-11.115,53.684-12.554,51.908-12.554z"/>
	<path fill="#FFFFFF" d="M43.356-1.057c-0.529-3.262-1.777-5.551-3.23-5.551s-2.701,2.289-3.229,5.551H43.356z M36.623,2.445
		c0,0.812,0.043,1.59,0.119,2.336h6.765c0.076-0.746,0.12-1.524,0.12-2.336c0-0.81-0.044-1.588-0.12-2.334h-6.765
		C36.666,0.857,36.623,1.635,36.623,2.445z M48.474-1.057c-1.044-2.48-3.156-4.395-5.767-5.17c0.891,1.234,1.503,3.093,1.824,5.17
		H48.474z M37.541-6.227c-2.605,0.775-4.722,2.689-5.763,5.17h3.942C36.039-3.135,36.65-4.993,37.541-6.227L37.541-6.227z
		 M48.864,0.111h-4.188c0.078,0.767,0.121,1.551,0.121,2.334c0,0.786-0.043,1.569-0.121,2.336h4.184
		c0.202-0.746,0.314-1.524,0.314-2.336C49.175,1.635,49.063,0.857,48.864,0.111L48.864,0.111z M35.454,2.445
		c0-0.783,0.043-1.567,0.121-2.334h-4.188c-0.197,0.746-0.313,1.524-0.313,2.334c0,0.812,0.116,1.59,0.313,2.336h4.183
		C35.497,4.014,35.454,3.231,35.454,2.445z M36.897,5.948c0.527,3.262,1.775,5.551,3.229,5.551s2.701-2.289,3.23-5.551H36.897z
		 M42.711,11.118c2.606-0.774,4.723-2.689,5.768-5.17h-3.943C44.215,8.026,43.602,9.884,42.711,11.118z M31.778,5.948
		c1.044,2.48,3.157,4.396,5.768,5.17c-0.891-1.234-1.504-3.093-1.825-5.17H31.778z"/>
</g>
</svg>
