<?xml version="1.0" encoding="utf-8"?>
<!-- Generator: Adobe Illustrator 14.0.0, SVG Export Plug-In . SVG Version: 6.00 Build 43363)  -->
<!DOCTYPE svg PUBLIC "-//W3C//DTD SVG 1.1//EN" "http://www.w3.org/Graphics/SVG/1.1/DTD/svg11.dtd">
<svg version="1.1" id="Layer_1" xmlns="http://www.w3.org/2000/svg" xmlns:xlink="http://www.w3.org/1999/xlink" x="0px" y="0px"
	 width="15px" height="15px" viewBox="0 0 15 15" enable-background="new 0 0 15 15" xml:space="preserve">
<g>
	<path fill="#32BBED" d="M3.537,0.69c1.013,0,2.027,0,3.041,0c0.066-0.175-0.032-0.515,0.097-0.627
		c0.467-0.068,1.309-0.107,1.737,0.025C8.5,0.207,8.443,0.473,8.459,0.666c0.966,0.056,2.036,0.009,3.042,0.024
		c0.211-0.445,0.569-0.801,1.183-0.652c0.508,0.125,0.807,0.743,0.604,1.256c-0.297,0.753-1.585,0.671-1.762-0.144
		c-0.668,0-1.336,0-2.004,0c0.988,0.637,1.793,1.457,2.101,2.775c0.253,0.014,0.575-0.042,0.726,0.072
		c0.129,0.418,0.092,1.234,0.022,1.69c-0.408,0.145-1.414,0.176-1.785-0.025c-0.041-0.484-0.041-1.132,0-1.616
		c0.097-0.122,0.302-0.134,0.531-0.122C10.718,2.56,9.839,1.677,8.459,1.293C8.404,1.439,8.473,1.708,8.363,1.8
		C7.854,1.826,7.121,1.87,6.65,1.777c-0.106-0.08-0.065-0.306-0.073-0.484C5.253,1.627,4.323,2.563,3.922,3.9
		C4.081,3.951,4.346,3.896,4.43,4.021c0.094,0.447,0.049,1.154,0.024,1.641C4.09,5.858,3.09,5.837,2.692,5.687
		c-0.067-0.458-0.104-1.27,0.024-1.69c0.138-0.11,0.436-0.062,0.675-0.072c0.376-1.25,1.085-2.165,2.125-2.751
		C4.904,1.117,4.188,1.165,3.537,1.149C3.412,1.307,3.394,1.464,3.271,1.583C2.381,2.441,1.124,1.05,1.968,0.256
		C2.459-0.208,3.39,0.028,3.537,0.69z"/>
	<path fill="#32BBED" d="M3.222,3.031C3.187,3.204,3.11,3.337,3.054,3.491C2.455,3.519,1.739,3.43,1.219,3.538
		c-0.13,0.596-0.072,1.299-0.072,2.004c0,2.01,0,4.128,0,6.155c4.191,0.057,8.487,0.008,12.72,0.023
		c0.023-2.654,0.072-5.542-0.023-8.159c-0.492-0.159-1.273-0.03-1.883-0.071c-0.041-0.168-0.122-0.296-0.17-0.459
		c0.376,0,0.732,0,1.087,0c0.634,0,1.228-0.092,1.423,0.386c0.182,0.44,0.049,1.573,0.049,2.148c0,2.107,0.039,4.687-0.049,6.542
		c-0.484,0.131-1.052,0.072-1.641,0.072c-3.898,0-8.047,0.039-11.899-0.05c-0.128-0.304-0.072-0.672-0.072-1.037
		c0-2.098,0-4.368,0-6.541c0-0.758-0.09-1.409,0.531-1.521C1.902,2.908,2.472,3.122,3.222,3.031z"/>
	<path fill="#32BBED" d="M7.253,3.2c0.056,0.733,0.008,1.57,0.024,2.342C7.092,5.703,6.89,5.768,6.794,5.977
		C6.548,6.52,6.913,7.053,7.325,7.135C8.37,7.343,8.656,5.868,7.76,5.566c0-0.772,0-1.544,0-2.317
		C7.854,3.216,7.874,3.35,7.905,3.394c0.647,0.917,1.311,1.892,1.979,2.873c0.108,0.158,0.261,0.367,0.267,0.482
		c0.013,0.252-0.229,0.612-0.338,0.87c-0.129,0.295-0.23,0.564-0.362,0.82c-1.287,0-2.575,0-3.861,0
		c-0.102-0.291-0.23-0.547-0.362-0.844C5.117,7.346,4.885,6.99,4.889,6.75c0.004-0.235,0.384-0.668,0.555-0.917
		C6.037,4.966,6.746,3.973,7.253,3.2z"/>
	<path fill="#32BBED" d="M7.422,6.024c0.289-0.079,0.428,0.084,0.435,0.29C7.869,6.742,7.194,6.79,7.181,6.338
		C7.176,6.171,7.255,6.07,7.422,6.024z"/>
	<path fill="#32BBED" d="M9.619,8.971c0.066,0.359,0.105,1.077-0.023,1.399c-1.266,0.08-2.863,0.08-4.128,0
		C5.4,10.268,5.284,9.043,5.492,8.945C5.856,8.773,7.078,8.896,7.64,8.896C8.377,8.896,9.105,8.842,9.619,8.971z"/>
	<path fill="#32BBED" d="M14.953,12.71c0.15,1.14-0.616,2.046-1.594,2.244c-0.396,0.08-0.928,0.024-1.447,0.024
		c-2.852,0-5.93,0-8.81,0c-0.507,0-1.021,0.061-1.424-0.024c-0.711-0.149-1.358-0.761-1.568-1.472
		c-0.104-0.353-0.156-0.776,0.145-0.846c0.449-0.104,1.353,0,1.858,0c3.703,0,7.384,0,11.079,0
		C13.785,12.639,14.38,12.58,14.953,12.71z M6.867,13.99c0.332,0.078,0.972,0.078,1.303,0c0.068-0.09,0.053-0.243,0-0.34
		C7.828,13.563,6.592,13.384,6.867,13.99z"/>
</g>
</svg>
