<?xml version="1.0" encoding="utf-8"?>
<!-- Generator: Adobe Illustrator 14.0.0, SVG Export Plug-In . SVG Version: 6.00 Build 43363)  -->
<!DOCTYPE svg PUBLIC "-//W3C//DTD SVG 1.1//EN" "http://www.w3.org/Graphics/SVG/1.1/DTD/svg11.dtd">
<svg version="1.1" id="Layer_1" xmlns="http://www.w3.org/2000/svg" xmlns:xlink="http://www.w3.org/1999/xlink" x="0px" y="0px"
	 width="17.436px" height="17.435px" viewBox="0 0 17.436 17.435" enable-background="new 0 0 17.436 17.435" xml:space="preserve">
<g>
	<g>
		<path fill-rule="evenodd" clip-rule="evenodd" fill="#39BBED" d="M7.213,12.813c0.223-0.704,0.178-1.345,0.418-1.966
			c0.133-0.352,0.598-0.762,0.863-1.072c0.846-0.988,1.744-2.019,2.531-2.979C9.441,7.833,7.846,8.857,6.32,9.954
			C6.611,10.914,6.857,11.917,7.213,12.813z"/>
		<path fill-rule="evenodd" clip-rule="evenodd" fill="#39BBED" d="M7.779,12.605c0.326-0.25,0.643-0.511,0.893-0.835
			c-0.24-0.107-0.379-0.315-0.625-0.416C7.969,11.783,7.861,12.179,7.779,12.605z"/>
		<path fill-rule="evenodd" clip-rule="evenodd" fill="#39BBED" d="M15.566,0H1.867C0.836,0,0,0.835,0,1.868v13.7
			c0,1.031,0.836,1.867,1.867,1.867h13.699c1.031,0,1.869-0.836,1.869-1.867v-13.7C17.436,0.835,16.598,0,15.566,0z M14.6,4.206
			c-0.484,2.419-1.107,5.825-1.639,8.578c-0.139,0.718-0.252,1.397-1.131,1.31c-0.529-0.052-1.02-0.656-1.4-0.952
			c-0.482-0.374-0.891-0.663-1.311-1.013c-0.322,0.234-0.561,0.495-0.893,0.803c-0.236,0.219-0.605,0.73-1.014,0.687
			c-0.541-0.059-0.676-1.158-0.834-1.669c-0.215-0.693-0.402-1.283-0.566-1.936c-0.564-0.18-1.113-0.386-1.727-0.596
			C3.555,9.236,2.734,9.128,2.805,8.404c0.047-0.477,0.727-0.676,1.162-0.863c3.223-1.381,6.656-2.855,9.799-4.17
			c0.051-0.049,0.305-0.049,0.357,0c0.266,0.074,0.414,0.26,0.477,0.537C14.648,3.94,14.648,4.173,14.6,4.206z"/>
	</g>
</g>
</svg>
