<?xml version="1.0" encoding="utf-8"?>
<!-- Generator: Adobe Illustrator 14.0.0, SVG Export Plug-In . SVG Version: 6.00 Build 43363)  -->
<!DOCTYPE svg PUBLIC "-//W3C//DTD SVG 1.1//EN" "http://www.w3.org/Graphics/SVG/1.1/DTD/svg11.dtd">
<svg version="1.1" id="Layer_1" xmlns="http://www.w3.org/2000/svg" xmlns:xlink="http://www.w3.org/1999/xlink" x="0px" y="0px"
	 width="24.646px" height="24.646px" viewBox="-5.708 -5.666 24.646 24.646" enable-background="new -5.708 -5.666 24.646 24.646"
	 xml:space="preserve">
<path fill-rule="evenodd" clip-rule="evenodd" fill="none" stroke="#D0D2D3" stroke-width="1.2" d="M14.012,17.101v-1.742h-0.021
	c0.007-0.144,0.021-0.285,0.021-0.432v-7.4V5.353c0-4.086-3.312-7.397-7.397-7.397c-4.087,0-7.397,3.311-7.397,7.397v2.174v7.4
	c0,0.146,0.012,0.288,0.021,0.432h-0.021v1.742c0,0-4.352-0.072-4.352-4.786c0-2.673,1.398-3.854,2.611-4.373V5.353
	c0-5.048,4.091-9.139,9.139-9.139c5.045,0,9.139,4.09,9.139,9.139v2.589c1.21,0.52,2.611,1.7,2.611,4.373
	C18.365,17.028,14.012,17.101,14.012,17.101 M12.143,17.101h-1.638V7.527h1.638V17.101z M2.775,17.101H1.138V7.527h1.637V17.101z"/>
</svg>
