<?xml version="1.0" encoding="utf-8"?>
<!-- Generator: Adobe Illustrator 14.0.0, SVG Export Plug-In . SVG Version: 6.00 Build 43363)  -->
<!DOCTYPE svg PUBLIC "-//W3C//DTD SVG 1.1//EN" "http://www.w3.org/Graphics/SVG/1.1/DTD/svg11.dtd">
<svg version="1.1" id="Layer_1" xmlns="http://www.w3.org/2000/svg" xmlns:xlink="http://www.w3.org/1999/xlink" x="0px" y="0px"
	 width="17.436px" height="17.435px" viewBox="0 0 17.436 17.435" enable-background="new 0 0 17.436 17.435" xml:space="preserve">
<g>
	<g>
		<path fill-rule="evenodd" clip-rule="evenodd" fill="#39BBED" d="M7.647,10.041c0.969-0.455,1.904-0.943,2.816-1.457
			c-0.99-0.418-1.828-0.987-2.816-1.408C7.647,8.13,7.647,9.085,7.647,10.041z"/>
		<path fill-rule="evenodd" clip-rule="evenodd" fill="#39BBED" d="M15.567,0H1.868C0.837,0-0.001,0.835-0.001,1.867v13.7
			c0,1.032,0.838,1.868,1.869,1.868h13.699c1.031,0,1.869-0.836,1.869-1.868v-13.7C17.437,0.835,16.599,0,15.567,0z M13.282,12.226
			c-0.488,0.269-1.377,0.221-2.188,0.243c-1.707,0.048-3.057,0.009-4.758,0c-0.773-0.004-1.688-0.003-2.139-0.243
			c-0.879-0.467-0.875-1.966-0.875-3.497c0-1.392,0.039-2.888,0.682-3.399c0.6-0.479,1.742-0.313,2.332-0.34
			c0.734-0.035,2.232-0.049,3.689-0.049c1.396,0,2.998-0.008,3.498,0.438c0.678,0.602,0.582,2.201,0.582,3.545
			C14.106,10.167,14.206,11.718,13.282,12.226z"/>
	</g>
</g>
</svg>
