<?xml version="1.0" encoding="utf-8"?>
<!-- Generator: Adobe Illustrator 14.0.0, SVG Export Plug-In . SVG Version: 6.00 Build 43363)  -->
<!DOCTYPE svg PUBLIC "-//W3C//DTD SVG 1.1//EN" "http://www.w3.org/Graphics/SVG/1.1/DTD/svg11.dtd">
<svg version="1.1" id="Layer_1" xmlns="http://www.w3.org/2000/svg" xmlns:xlink="http://www.w3.org/1999/xlink" x="0px" y="0px"
	 width="24px" height="24px" viewBox="3 3 24 24" enable-background="new 3 3 24 24" xml:space="preserve">
<g>
	<circle fill="#A6A8AB" cx="15" cy="14.998" r="12"/>
	<g>
		<path fill-rule="evenodd" clip-rule="evenodd" fill="#FFFFFF" d="M9.58,6.885c1.63-0.308,1.984,2.211,0.363,2.366
			C9.146,9.328,8.603,8.626,8.608,8.037C8.615,7.35,9.072,6.98,9.58,6.885z"/>
		<path fill-rule="evenodd" clip-rule="evenodd" fill="#FFFFFF" d="M19.65,7.129c0.055,1.369,0.03,3.222,0.03,4.883
			c0,0.45,0.12,1.316-0.06,1.578c-0.175,0.254-0.819,0.151-1.153,0.151c-0.499,0-0.859,0-1.274,0c0.244,1.18,0.554,2.541,0.85,3.884
			c0.102,0.463,0.506,1.485-0.151,1.517c-0.49,0.025-0.503-0.695-0.606-1.153c-0.318-1.402-0.644-2.865-0.941-4.247
			c-0.222,0-0.443,0-0.667,0c-0.238,0.936-0.447,1.898-0.637,2.882c-0.366,0.01-0.713,0.197-0.91,0.273
			c0.202-1.062,0.461-2.065,0.667-3.124c-0.746-0.166-2.025,0.205-2.487-0.243c-0.058-0.245-0.02-0.587-0.03-0.88
			c0.314-0.098,0.624-0.366,0.79-0.516c0,0.264,0,0.526,0,0.789c1.869,0.071,3.871,0.01,5.793,0.029
			c0.07-1.667,0.011-3.469,0.029-5.187c-1.87-0.071-3.871-0.011-5.794-0.03c-0.07,0.515-0.01,1.162-0.028,1.729
			c-0.325,0.13-0.586,0.486-0.79,0.637c0-0.961,0-1.922,0-2.883c0.237-0.437,1.328-0.273,2.123-0.273c1.204,0,2.445,0,3.641,0
			C18.624,6.945,19.248,6.823,19.65,7.129z"/>
		<path fill-rule="evenodd" clip-rule="evenodd" fill="#FFFFFF" d="M15.069,9.948c0.348-0.114,0.559-0.634,0.911-0.636
			c0.423-0.003,0.533,0.744,0.91,0.939c0.438,0.05,1.318-0.182,1.213,0.334c-0.041,0.206-0.313,0.183-0.637,0.183
			c-0.258,0-0.618,0.049-0.789,0c-0.385-0.113-0.444-0.649-0.697-0.82c-0.331,0.018-0.631,0.688-1.031,0.638
			c-0.259-0.034-0.476-0.695-0.608-0.973c-0.193-0.405-0.42-0.766-0.454-1.12C14.486,7.932,14.788,9.631,15.069,9.948z"/>
		<path fill-rule="evenodd" clip-rule="evenodd" fill="#FFFFFF" d="M7.243,11.406c0.177-0.325,0.578-0.608,0.941-0.942
			c0.316-0.291,0.658-0.743,0.939-0.879c0.803-0.388,1.817,0.043,1.941,0.697c0.093,0.488,0,1.104,0,1.67c0,1.707,0,3.396,0,5.065
			c-0.098,0.054-0.251-0.163-0.424-0.242c-0.145-0.066-0.292-0.075-0.425-0.122c0-0.575,0-1.151,0-1.729
			c-0.082-0.069-0.293-0.011-0.425-0.029c0,0.576,0,1.152,0,1.729c-0.55,0.038-0.956,0.379-1.214,0.607
			c0.01-1.213-0.054-2.354-0.03-3.58c0.886,0.223,1.429-0.529,1.183-1.213c-0.145-0.406-0.629-0.695-0.788-0.971
			c0.104-0.25,0.276-0.433,0.424-0.638c-0.133,0.057-0.239,0.169-0.424,0.334c-0.063,0.057-0.446,0.329-0.454,0.394
			C8.479,11.63,8.672,11.8,8.699,11.83c0.211,0.241,0.621,0.545,0.667,0.819c0.059,0.337-0.106,0.685-0.575,0.638
			c-0.292-0.03-0.624-0.508-0.82-0.727c-0.283-0.323-0.586-0.636-0.728-0.912C7.243,11.567,7.243,11.487,7.243,11.406z"/>
		<path fill-rule="evenodd" clip-rule="evenodd" fill="#FFFFFF" d="M11.491,11.74c0-0.426,0-0.852,0-1.276
			c0.138-0.033,0.454,0.354,0.636,0.486c0.362-0.229,0.552-0.902,0.971-1.032c0.459-0.142,0.806,0.301,0.639,0.697
			c-0.115,0.272-0.398,0.543-0.639,0.821c-0.232,0.269-0.524,0.743-0.879,0.757C11.848,12.21,11.738,11.91,11.491,11.74z"/>
		<path fill-rule="evenodd" clip-rule="evenodd" fill="#FFFFFF" d="M14.099,11.83c-0.031-0.238,0.059-0.394,0.273-0.394
			c0.491,0,1.061,0,1.82,0c0.531,0,1.518-0.116,1.548,0.243c0.034,0.438-1.314,0.272-1.76,0.272
			C15.283,11.952,14.512,12.039,14.099,11.83z"/>
		<path fill-rule="evenodd" clip-rule="evenodd" fill="#FFFFFF" d="M9.671,17.049c1.777-0.305,2.072,2.357,0.484,2.608
			c-0.831,0.133-1.567-0.514-1.577-1.305c-0.007-0.561,0.198-0.767,0.364-0.94C9.1,17.246,9.326,17.107,9.671,17.049z"/>
		<path fill-rule="evenodd" clip-rule="evenodd" fill="#FFFFFF" d="M14.856,17.049c0.916-0.156,1.746,0.586,1.549,1.577
			c-0.288,1.455-2.526,1.269-2.639-0.152c-0.044-0.538,0.19-0.868,0.303-1.001C14.231,17.278,14.487,17.112,14.856,17.049z"/>
		<path fill-rule="evenodd" clip-rule="evenodd" fill="#FFFFFF" d="M20.045,17.049c0.781-0.134,1.442,0.337,1.547,1.061
			c0.094,0.646-0.328,1.44-1.091,1.548c-0.878,0.124-1.646-0.563-1.549-1.486c0.039-0.358,0.185-0.534,0.213-0.576
			C19.342,17.329,19.607,17.123,20.045,17.049z"/>
		<path fill-rule="evenodd" clip-rule="evenodd" fill="#FFFFFF" d="M12.188,22.024c-1.459,0.141-3.185,0.021-4.762,0.06
			c0.109-0.351,0.342-0.736,0.516-1.121c0.161-0.357,0.286-0.975,0.758-1.032c0.353-0.041,0.863,0,1.396,0
			c0.461,0,1.083-0.057,1.305,0.091c0.212,0.145,0.382,0.68,0.516,0.971C12.076,21.348,12.344,21.711,12.188,22.024z"/>
		<path fill-rule="evenodd" clip-rule="evenodd" fill="#FFFFFF" d="M17.588,22.981c-1.598,0.103-3.326,0.015-4.976,0.042
			c0.099-0.479,0.309-0.964,0.485-1.519c0.17-0.534,0.299-1.48,0.789-1.566c0.359-0.062,0.845,0,1.366,0
			c0.489,0,1.153-0.078,1.364,0.176c0.218,0.259,0.332,0.946,0.485,1.433C17.272,22.092,17.452,22.569,17.588,22.981z"/>
		<path fill-rule="evenodd" clip-rule="evenodd" fill="#FFFFFF" d="M22.775,22.054c0,0.011,0,0.021,0,0.03
			c-1.576-0.039-3.318,0.081-4.793-0.06c-0.128-0.302,0.109-0.677,0.273-1.032c0.137-0.3,0.323-0.834,0.546-0.971
			c0.302-0.186,1.03-0.091,1.425-0.091c0.424,0,1.209-0.083,1.487,0.062c0.209,0.107,0.439,0.703,0.546,0.94
			C22.462,21.383,22.615,21.804,22.775,22.054z"/>
	</g>
</g>
</svg>
