<?xml version="1.0" encoding="utf-8"?>
<!-- Generator: Adobe Illustrator 14.0.0, SVG Export Plug-In . SVG Version: 6.00 Build 43363)  -->
<!DOCTYPE svg PUBLIC "-//W3C//DTD SVG 1.1//EN" "http://www.w3.org/Graphics/SVG/1.1/DTD/svg11.dtd">
<svg version="1.1" id="Layer_1" xmlns="http://www.w3.org/2000/svg" xmlns:xlink="http://www.w3.org/1999/xlink" x="0px" y="0px"
	 width="24.646px" height="24.646px" viewBox="-5.708 -5.666 24.646 24.646" enable-background="new -5.708 -5.666 24.646 24.646"
	 xml:space="preserve">
<path fill="none" stroke="#D0D2D3" stroke-width="1.2" d="M11.011-0.67c0-2.428-1.968-4.396-4.396-4.396S2.219-3.098,2.219-0.67
	c0,2.429,1.969,4.396,4.396,4.396S11.011,1.759,11.011-0.67z M5.589,5.976C2.871,4.313-1.529,3.854-3.744,3.729
	c-0.743-0.042-1.364,0.524-1.364,1.24v10.202c0,0.656,0.53,1.205,1.214,1.24c1.999,0.104,6.043,0.488,8.839,1.896
	c0.429,0.217,0.938-0.078,0.938-0.543V6.5C5.883,6.286,5.776,6.09,5.589,5.976L5.589,5.976z M16.973,3.729
	c-2.214,0.125-6.615,0.583-9.332,2.246C7.453,6.09,7.348,6.294,7.348,6.508v11.256c0,0.467,0.51,0.762,0.94,0.545
	c2.796-1.406,6.839-1.791,8.837-1.896c0.682-0.035,1.213-0.582,1.213-1.238V4.97C18.338,4.254,17.717,3.688,16.973,3.729z"/>
</svg>
