<?xml version="1.0" encoding="utf-8"?>
<!-- Generator: Adobe Illustrator 14.0.0, SVG Export Plug-In . SVG Version: 6.00 Build 43363)  -->
<!DOCTYPE svg PUBLIC "-//W3C//DTD SVG 1.1//EN" "http://www.w3.org/Graphics/SVG/1.1/DTD/svg11.dtd">
<svg version="1.1" id="Layer_1" xmlns="http://www.w3.org/2000/svg" xmlns:xlink="http://www.w3.org/1999/xlink" x="0px" y="0px"
	 width="15px" height="15px" viewBox="0 0 15 15" enable-background="new 0 0 15 15" xml:space="preserve">
<g>
	<path fill="#32BBED" d="M0,0v15h15V0H0z M13.674,13.654H1.326V1.345h12.347L13.674,13.654L13.674,13.654z"/>
	<g>
		<rect x="3.542" y="3.75" fill="#32BBED" width="1.511" height="7.379"/>
		<path fill="#32BBED" d="M11.458,11.129h-1.333v-0.784c-0.222,0.304-0.483,0.531-0.785,0.681c-0.302,0.151-0.604,0.225-0.912,0.225
			c-0.621,0-1.155-0.249-1.599-0.741c-0.444-0.496-0.666-1.186-0.666-2.073c0-0.905,0.215-1.595,0.648-2.066
			C7.244,5.899,7.79,5.663,8.45,5.663c0.606,0,1.13,0.249,1.572,0.745V3.75h1.436V11.129z M7.627,8.342
			c0,0.569,0.08,0.982,0.24,1.238c0.232,0.368,0.556,0.553,0.971,0.553c0.33,0,0.61-0.138,0.842-0.415
			c0.232-0.276,0.349-0.69,0.349-1.242c0-0.613-0.114-1.055-0.338-1.325S9.18,6.745,8.827,6.745c-0.341,0-0.625,0.134-0.854,0.4
			C7.742,7.412,7.627,7.811,7.627,8.342"/>
	</g>
</g>
</svg>
