<?xml version="1.0" encoding="utf-8"?>
<!-- Generator: Adobe Illustrator 14.0.0, SVG Export Plug-In . SVG Version: 6.00 Build 43363)  -->
<!DOCTYPE svg PUBLIC "-//W3C//DTD SVG 1.1//EN" "http://www.w3.org/Graphics/SVG/1.1/DTD/svg11.dtd">
<svg version="1.1" id="Layer_1" xmlns="http://www.w3.org/2000/svg" xmlns:xlink="http://www.w3.org/1999/xlink" x="0px" y="0px"
	 width="17.436px" height="17.435px" viewBox="0 0 17.436 17.435" enable-background="new 0 0 17.436 17.435" xml:space="preserve">
<g>
	<g>
		<circle fill="#39BBED" cx="8.717" cy="7.164" r="1.941"/>
		<path fill="#39BBED" d="M15.567,0H1.868C0.835,0,0,0.836,0,1.867v13.701c0,1.031,0.835,1.867,1.868,1.867h13.699
			c1.031,0,1.868-0.836,1.868-1.867V1.867C17.436,0.836,16.599,0,15.567,0z M9.196,14.681c-0.23,0.334-0.727,0.334-0.957,0
			C4.711,9.567,4.057,9.043,4.057,7.164c0-2.574,2.087-4.661,4.66-4.661c2.575,0,4.661,2.087,4.661,4.661
			C13.378,9.043,12.724,9.567,9.196,14.681z"/>
	</g>
</g>
</svg>
