<?xml version="1.0" encoding="utf-8"?>
<!-- Generator: Adobe Illustrator 14.0.0, SVG Export Plug-In . SVG Version: 6.00 Build 43363)  -->
<!DOCTYPE svg PUBLIC "-//W3C//DTD SVG 1.1//EN" "http://www.w3.org/Graphics/SVG/1.1/DTD/svg11.dtd">
<svg version="1.1" id="Layer_1" xmlns="http://www.w3.org/2000/svg" xmlns:xlink="http://www.w3.org/1999/xlink" x="0px" y="0px"
	 width="15px" height="15px" viewBox="0 0 15 15" enable-background="new 0 0 15 15" xml:space="preserve">
<g>
	<path fill="#FFFFFF" d="M9.023,4.956l0.991,2.89l-2.02,0.037L9.023,4.956 M9.028,3.968L7.536,8.216l2.929-0.056L9.028,3.968
		L9.028,3.968z"/>
	<path fill="#FFFFFF" d="M8.043,1.964l1.71,0.222l3.501,9.587l-1.466,0.1c-0.092-0.263-0.181-0.524-0.271-0.787
		c-0.153-0.451-0.308-0.901-0.474-1.355c-0.048-0.128-0.168-0.213-0.303-0.213c-0.005,0-0.007,0-0.011,0L6.944,9.631
		c-0.126,0.005-0.24,0.083-0.288,0.2c-0.313,0.741-0.637,1.562-1.018,2.563l-1.937,0.156l-0.589-0.742l3.482-8.95L8.043,1.964
		 M7.972,1.629l-1.64,1.009l-3.588,9.227l0.812,1.022L5.868,12.7c0.349-0.92,0.706-1.839,1.087-2.744l3.786-0.113
		c0.289,0.793,0.54,1.577,0.822,2.37l2.111-0.144v-0.088L9.989,1.89L7.972,1.629L7.972,1.629z"/>
	<g>
		<path fill="#FFFFFF" d="M9.023,4.956l0.991,2.89L8.827,7.871l-0.416-1.17L9.023,4.956 M9.028,3.968L8.067,6.701L8.6,8.199
			l1.865-0.038L9.028,3.968L9.028,3.968z"/>
		<path fill="#FFFFFF" d="M10.674,9.845c0.024,0,0.044,0.003,0.058,0.003c0.01,0.018,0.018,0.039,0.022,0.056
			c0.003,0.014,0.006,0.03,0.011,0.045l0.639,1.815l-1.465-0.763L9.556,9.882l1.052-0.034C10.613,9.848,10.64,9.845,10.674,9.845
			 M10.674,9.521c-0.055,0-0.096,0.006-0.096,0.006L9.107,9.572l0.567,1.657l1.889,0.983l0.334-0.022l-0.825-2.348
			c0,0-0.037-0.187-0.163-0.275C10.854,9.528,10.751,9.521,10.674,9.521L10.674,9.521z"/>
	</g>
	<path fill="#FFFFFF" d="M1.863,0.67l12.531,0.723v11.664L1.863,14.313V0.67 M1.256,0.02v14.959L15,13.605V0.813L1.256,0.02
		L1.256,0.02z"/>
	<polygon fill="#FFFFFF" points="1.256,14.979 0,13.605 0,0.813 1.256,0.02 	"/>
	<path fill="#FFFFFF" d="M3.744,12.755c-0.018,0-0.038-0.003-0.057-0.01c-0.079-0.031-0.118-0.122-0.087-0.201l4.213-10.74
		c0.031-0.079,0.122-0.117,0.2-0.087C8.092,1.747,8.13,1.837,8.1,1.917L3.888,12.658C3.864,12.719,3.805,12.755,3.744,12.755
		L3.744,12.755z"/>
</g>
</svg>
