<?xml version="1.0" encoding="utf-8"?>
<!-- Generator: Adobe Illustrator 14.0.0, SVG Export Plug-In . SVG Version: 6.00 Build 43363)  -->
<!DOCTYPE svg PUBLIC "-//W3C//DTD SVG 1.1//EN" "http://www.w3.org/Graphics/SVG/1.1/DTD/svg11.dtd">
<svg version="1.1" id="Layer_1" xmlns="http://www.w3.org/2000/svg" xmlns:xlink="http://www.w3.org/1999/xlink" x="0px" y="0px"
	 width="15px" height="15px" viewBox="0 0 15 15" enable-background="new 0 0 15 15" xml:space="preserve">
<g>
	<path fill-rule="evenodd" clip-rule="evenodd" fill="#FFFFFF" d="M12.129,9.354c0.103,1.05-0.738,1.157-1.764,1.08
		c-0.311,0.864-0.604,1.749-0.893,2.637c0.336,0.019,0.584-0.035,0.809,0.02c0.953,0.233,0.866,1.592,0.043,1.848
		c-0.354,0.11-0.945,0.042-1.411,0.042c-0.932,0-1.903,0-2.865,0c-0.453,0-1.072,0.064-1.391-0.042
		c-0.236-0.079-0.464-0.313-0.541-0.457c-0.416-0.8,0.316-1.637,1.391-1.41c-0.217-0.862-0.595-1.744-0.851-2.637
		c-1.021,0.074-1.881-0.014-1.785-1.058C2.048,9.297,1.359,8.787,1.274,7.88c-0.092-0.977,0-2.071,0-3.197c0-0.545,0-1.083,0-1.598
		c0-0.546-0.049-1.089,0-1.578c0.078-0.796,0.722-1.399,1.452-1.473c0.752-0.079,1.584,0,2.387,0c1.59,0,3.169,0,4.774,0
		c0.802,0,1.607-0.072,2.366,0c0.775,0.071,1.401,0.67,1.473,1.494c0.063,0.693,0,1.443,0,2.179c0,0.723,0,1.453,0,2.18
		c0,0.739,0.102,1.507-0.02,2.158C13.568,8.791,12.984,9.308,12.129,9.354z M1.918,1.176C1.74,1.544,1.813,2.247,1.813,2.899
		c0,1.203,0,2.372,0,3.529c0,0.549-0.083,1.309,0.063,1.701c0.264,0.719,0.835,0.686,1.825,0.686c2.6,0,5.004,0,7.597,0
		c0.434,0,0.934,0.044,1.204-0.062c0.271-0.106,0.523-0.354,0.622-0.624c0.15-0.403,0.063-1.15,0.063-1.681c0-1.231,0-2.332,0-3.508
		c0-0.509,0.079-1.246-0.083-1.681c-0.266-0.707-0.854-0.685-1.826-0.685c-2.051,0-4.103,0-6.083,0
		c-0.786,0-1.742-0.078-2.449,0.021C2.398,0.643,2.071,0.858,1.918,1.176z M3.412,9.417c-0.104,0.672,0.719,0.478,1.39,0.478
		c0.705,0,1.625,0.204,1.453-0.541c-0.933,0-1.867,0-2.802,0C3.428,9.363,3.411,9.381,3.412,9.417z M6.836,9.354
		C6.81,9.363,6.795,9.381,6.795,9.417c0.054,0.545-0.213,0.77-0.498,0.976c0.082,0.271,0.204,0.584,0.311,0.934
		c0.092,0.299,0.51,1.247-0.021,1.225c-0.187-0.009-0.259-0.248-0.312-0.416c-0.193-0.61-0.347-1.151-0.519-1.701
		c-0.18,0-0.359,0-0.539,0c0.291,0.885,0.591,1.761,0.892,2.637c0.927,0,1.855,0,2.781,0c0.304-0.875,0.602-1.754,0.894-2.637
		c-0.18,0-0.36,0-0.539,0c-0.099,0.375-0.23,0.713-0.354,1.121c-0.077,0.26-0.164,1-0.497,0.996
		c-0.393-0.005-0.232-0.461-0.145-0.747c0.145-0.478,0.329-1.008,0.456-1.411c-0.3-0.206-0.56-0.452-0.499-1.017
		C7.791,9.326,7.287,9.368,6.836,9.354z M10.137,9.895c0.7,0,1.598,0.197,1.453-0.519c-0.899-0.05-1.889-0.007-2.823-0.022
		C8.56,10.088,9.439,9.895,10.137,9.895z M4.553,14.066c0.035,0.436,0.615,0.373,1.204,0.373c1.197,0,2.023,0,3.156,0
		c0.663,0,1.553,0.158,1.536-0.437c-0.014-0.471-0.606-0.395-1.08-0.395c-1.231,0-1.856,0-2.99,0c-0.451,0-1.138-0.075-1.515,0.021
		C4.666,13.681,4.535,13.839,4.553,14.066z"/>
	<path fill-rule="evenodd" clip-rule="evenodd" fill="#FFFFFF" d="M9.059,1.218c0.406-0.121,1.057-0.022,1.681-0.022
		c0.289,0,1.411-0.111,1.493,0.167c0.146,0.48-0.442,0.374-0.871,0.374c-0.674,0-1.063,0-1.785,0c-0.286,0-0.667,0.052-0.726-0.165
		C8.796,1.366,8.902,1.263,9.059,1.218z"/>
	<path fill-rule="evenodd" clip-rule="evenodd" fill="#FFFFFF" d="M3.017,3.315C2.58,2.966,3.07,2.78,3.453,2.608
		C4.167,2.287,4.875,1.913,5.55,1.632c0.198-0.082,0.672,0.21,0.851,0.292c0.458,0.209,0.901,0.439,1.432,0.684
		c0.27,0.124,0.614,0.197,0.603,0.457c-0.024,0.492-0.606,0.123-0.872,0c-0.489-0.224-0.798-0.358-1.288-0.58
		C6.099,2.404,5.809,2.196,5.653,2.193C5.472,2.189,5.194,2.39,4.989,2.484c-0.491,0.225-0.846,0.377-1.287,0.58
		C3.482,3.165,3.354,3.309,3.017,3.315z"/>
	<path fill-rule="evenodd" clip-rule="evenodd" fill="#FFFFFF" d="M9.037,2.151c0.006-0.002,0.001-0.02,0.021-0.021
		c0.523-0.038,1.037,0,1.722,0c0.379,0,1.452-0.13,1.474,0.25c0.017,0.295-0.307,0.291-0.685,0.291c-0.707,0-1.232,0-1.951,0
		c-0.336,0-0.716,0.042-0.768-0.187C8.805,2.284,8.915,2.192,9.037,2.151z"/>
	<path fill-rule="evenodd" clip-rule="evenodd" fill="#FFFFFF" d="M9.037,3.086c0.006-0.003,0.001-0.02,0.021-0.021
		c0.834-0.061,1.67,0,2.552,0c0.421,0,0.683-0.019,0.622,0.333c-0.041,0.245-0.396,0.207-0.746,0.207c-0.711,0-1.164,0-1.89,0
		c-0.333,0-0.693,0.043-0.746-0.187C8.807,3.23,8.894,3.132,9.037,3.086z"/>
	<path fill-rule="evenodd" clip-rule="evenodd" fill="#FFFFFF" d="M3.931,7.486C4.553,7.502,5.16,7.462,5.799,7.507
		c0.01-0.871-0.146-1.748,0.54-1.952C6.601,5.477,6.98,5.571,7.356,5.534c0.037-0.332,0.02-0.738,0.02-1.162
		c0-0.431-0.12-1.072,0.333-0.955C7.965,3.484,7.895,3.996,7.895,4.31c0,1.043,0,2.244,0,3.176c1.313,0.007,2.224,0,3.675,0
		c0.51,0,0.985-0.062,0.976,0.291c-0.01,0.352-0.705,0.249-1.079,0.249c-2.907,0-5.651,0.087-8.594,0
		C2.569,8.017,2.468,7.941,2.456,7.797c-0.033-0.418,0.56-0.292,0.915-0.312c0.038-0.866,0.021-1.995,0.021-3.03
		c0-0.388-0.117-1.06,0.27-1.058c0.377,0,0.27,0.672,0.27,1.1C3.931,5.436,3.931,6.653,3.931,7.486z M6.338,6.262
		c-0.101,0.354,0.075,0.777,0,1.224c0.347,0,0.691,0,1.038,0c-0.001-0.305-0.001-1.106,0-1.411C7.029,6.134,6.438,5.916,6.338,6.262
		z"/>
	<path fill-rule="evenodd" clip-rule="evenodd" fill="#FFFFFF" d="M4.575,3.501C4.866,3.406,5.22,3.465,5.218,3.75
		C5.215,4.119,4.466,4.122,4.388,3.854C4.327,3.65,4.397,3.558,4.575,3.501z"/>
	<path fill-rule="evenodd" clip-rule="evenodd" fill="#FFFFFF" d="M6.276,3.501C6.56,3.409,6.896,3.478,6.92,3.708
		C6.96,4.095,6.094,4.184,6.069,3.77C6.061,3.645,6.131,3.547,6.276,3.501z"/>
	<path fill-rule="evenodd" clip-rule="evenodd" fill="#FFFFFF" d="M9.037,4.019C9.043,4.018,9.038,4,9.059,3.999
		c0.914-0.068,1.508,0,2.428,0c0.32,0,0.888-0.095,0.746,0.373c-0.086,0.287-1.316,0.167-1.702,0.167
		c-0.387,0-1.605,0.133-1.68-0.187C8.807,4.164,8.894,4.065,9.037,4.019z"/>
	<path fill-rule="evenodd" clip-rule="evenodd" fill="#FFFFFF" d="M6.297,4.663C6.64,4.565,6.912,4.674,6.92,4.912
		c0.008,0.285-0.509,0.396-0.748,0.229C5.98,5.005,6.085,4.724,6.297,4.663z"/>
	<path fill-rule="evenodd" clip-rule="evenodd" fill="#FFFFFF" d="M4.595,4.954c0.318-0.092,0.604-0.025,0.624,0.228
		c0.03,0.42-0.994,0.458-0.831-0.083C4.4,5.056,4.472,4.989,4.595,4.954z"/>
	<path fill-rule="evenodd" clip-rule="evenodd" fill="#FFFFFF" d="M9.369,5.141c0.313-0.042,0.806-0.021,1.205-0.021
		c0.463,0,0.79-0.059,1.099,0.062c0.256,0.101,0.456,0.401,0.498,0.52c0.203,0.578-0.199,1.028-0.519,1.141
		c-0.294,0.104-0.824,0.042-1.267,0.042c-0.436,0-0.958,0.06-1.245-0.042C8.923,6.766,8.676,6.489,8.622,6.344
		C8.487,5.979,8.669,5.549,8.767,5.431C8.88,5.296,9.078,5.179,9.369,5.141z M9.1,6.033c0.021,0.438,0.68,0.312,1.266,0.312
		c0.599,0,1.288,0.123,1.308-0.312c0.022-0.491-0.656-0.374-1.12-0.374c-0.472,0-0.935-0.036-1.163,0.021
		C9.231,5.721,9.09,5.828,9.1,6.033z"/>
	<path fill-rule="evenodd" clip-rule="evenodd" fill="#FFFFFF" d="M4.637,6.405c0.241-0.051,0.572-0.037,0.582,0.25
		c0.008,0.301-0.576,0.4-0.769,0.208C4.257,6.67,4.445,6.448,4.637,6.405z"/>
</g>
</svg>
