<?xml version="1.0" encoding="utf-8"?>
<!-- Generator: Adobe Illustrator 14.0.0, SVG Export Plug-In . SVG Version: 6.00 Build 43363)  -->
<!DOCTYPE svg PUBLIC "-//W3C//DTD SVG 1.1//EN" "http://www.w3.org/Graphics/SVG/1.1/DTD/svg11.dtd">
<svg version="1.1" id="Layer_1" xmlns="http://www.w3.org/2000/svg" xmlns:xlink="http://www.w3.org/1999/xlink" x="0px" y="0px"
	 width="15px" height="15px" viewBox="0 0 15 15" enable-background="new 0 0 15 15" xml:space="preserve">
<path fill="#FFFFFF" d="M14.333,3.193h-1.834V2.346H13c0.184,0,0.333-0.191,0.333-0.424C13.333,1.691,13.184,1.5,13,1.5h-1.667
	c-0.184,0-0.332,0.191-0.332,0.422c0,0.233,0.148,0.424,0.332,0.424h0.5v0.847h-4V2.346h0.5c0.183,0,0.333-0.191,0.333-0.424
	c0-0.231-0.15-0.422-0.333-0.422H6.667c-0.184,0-0.333,0.191-0.333,0.422c0,0.233,0.15,0.424,0.333,0.424h0.5v0.847h-4V2.346h0.5
	C3.85,2.346,4,2.155,4,1.922C4,1.691,3.85,1.5,3.667,1.5H2c-0.184,0-0.333,0.191-0.333,0.422c0,0.233,0.15,0.424,0.333,0.424h0.5
	v0.847H0.667C0.298,3.193,0,3.573,0,4.041v8.612C0,13.121,0.298,13.5,0.667,13.5h13.666c0.369,0,0.667-0.379,0.667-0.847V4.041
	C15,3.573,14.702,3.193,14.333,3.193z M14.333,12.653H0.667V4.041h13.666V12.653z M1.667,6.353c0-0.232,0.15-0.422,0.333-0.422
	h3.667C5.85,5.931,6,6.121,6,6.353c0,0.234-0.15,0.424-0.333,0.424H2C1.816,6.777,1.667,6.587,1.667,6.353z M1.667,8.47
	c0-0.232,0.15-0.423,0.333-0.423h3.667C5.85,8.047,6,8.238,6,8.47c0,0.234-0.15,0.425-0.333,0.425H2
	C1.816,8.895,1.667,8.704,1.667,8.47z M1.667,10.589c0-0.233,0.15-0.426,0.333-0.426h3.667C5.85,10.163,6,10.355,6,10.589
	c0,0.23-0.15,0.422-0.333,0.422H2C1.816,11.011,1.667,10.819,1.667,10.589z M7.333,11.011H13c0.12,0,0.229-0.081,0.288-0.212
	c0.06-0.13,0.06-0.294,0-0.425L11.35,6.139c-0.06-0.129-0.17-0.208-0.288-0.208s-0.229,0.08-0.288,0.208l-0.607,1.326L9.56,6.139
	C9.5,6.01,9.39,5.931,9.271,5.931S9.043,6.01,8.983,6.139l-1.938,4.235c-0.06,0.131-0.06,0.295,0,0.425
	C7.103,10.93,7.213,11.011,7.333,11.011z M11.062,7.196l1.358,2.967h-1.018l-0.851-1.856L11.062,7.196z M9.271,7.196l1.359,2.967
	H7.913L9.271,7.196z"/>
</svg>
