<?xml version="1.0" encoding="utf-8"?>
<!-- Generator: Adobe Illustrator 14.0.0, SVG Export Plug-In . SVG Version: 6.00 Build 43363)  -->
<!DOCTYPE svg PUBLIC "-//W3C//DTD SVG 1.1//EN" "http://www.w3.org/Graphics/SVG/1.1/DTD/svg11.dtd">
<svg version="1.1" id="Layer_1" xmlns="http://www.w3.org/2000/svg" xmlns:xlink="http://www.w3.org/1999/xlink" x="0px" y="0px"
	 width="15px" height="15px" viewBox="0 0 15 15" enable-background="new 0 0 15 15" xml:space="preserve">
<g id="XMLID_2_">
	<g>
		<path fill="#FFFFFF" d="M11.063,14.325c0.064,0.845-1,0.657-1.937,0.657c-1.34,0-2.374,0-3.794,0
			c-0.758,0-1.336,0.022-1.395-0.503c-0.044-0.403,0.149-0.57,0.503-0.657c0.914-0.226,2.378-0.039,3.601-0.039
			C8.897,13.783,10.998,13.502,11.063,14.325z"/>
		<path fill="none" stroke="#FFFFFF" stroke-width="0.5" stroke-linecap="round" stroke-linejoin="round" d="M11.759,7.356
			c-1.192,1.454-2.164,3.126-2.284,5.652c-1.316,0-2.633,0-3.949,0c-0.119-2.54-1.123-4.192-2.284-5.692
			C4.551,4.911,5.801,2.444,7.074,0c0.09,1.472,0.012,3.111,0.039,4.646c-0.164,0.223-0.425,0.23-0.619,0.386
			c-1.07,0.865-0.561,2.789,0.968,2.827c0.965,0.022,2-0.995,1.51-2.207c-0.188-0.463-0.55-0.741-1.084-0.929
			c0-1.576,0-3.149,0-4.724C9.222,2.41,10.44,4.931,11.759,7.356z"/>
		<path fill="#FFFFFF" d="M7.384,5.499c0.537-0.081,1.055,0.299,0.89,1.006c-0.166,0.708-1.378,0.728-1.549,0
			C6.594,5.941,6.851,5.578,7.384,5.499z"/>
	</g>
</g>
</svg>
