<?xml version="1.0" encoding="utf-8"?>
<!-- Generator: Adobe Illustrator 14.0.0, SVG Export Plug-In . SVG Version: 6.00 Build 43363)  -->
<!DOCTYPE svg PUBLIC "-//W3C//DTD SVG 1.1//EN" "http://www.w3.org/Graphics/SVG/1.1/DTD/svg11.dtd">
<svg version="1.1" id="Layer_1" xmlns="http://www.w3.org/2000/svg" xmlns:xlink="http://www.w3.org/1999/xlink" x="0px" y="0px"
	 width="15px" height="15px" viewBox="0 0 15 15" enable-background="new 0 0 15 15" xml:space="preserve">
<g>
	<ellipse fill="#FFFFFF" cx="13.68" cy="2.263" rx="0.616" ry="0.224"/>
	<path fill="#FFFFFF" d="M9.83,7.326c0.028-0.045,0.035-0.101,0.021-0.153C9.748,6.809,9.549,6.42,9.338,6.007L9.281,5.898
		C9.248,5.834,9.215,5.76,9.178,5.681c-0.148-0.33-0.333-0.736-0.663-0.909C8.28,4.647,7.878,4.63,7.49,4.614
		C7.305,4.607,7.13,4.601,6.995,4.58c-0.172-0.022-0.4-0.035-0.7-0.035c-0.354,0-0.755,0.017-1.138,0.032L4.715,4.593
		c-0.59,0.019-1.148,0.033-1.423,0.179C2.816,5.022,2.533,5.756,2.285,6.403c-0.108,0.279-0.209,0.544-0.313,0.73
		c-0.029,0.053-0.031,0.12-0.004,0.175C1.994,7.364,2.042,7.41,2.096,7.394c2.658-0.134,5.027-0.134,7.616,0
		c0.001,0,0.003,0,0.006,0C9.761,7.394,9.804,7.369,9.83,7.326z M6.295,4.879c0.268,0,0.473,0.013,0.628,0.033l0,0l2.064,2.114
		c-2.23-0.095-4.338-0.092-6.649,0.019c0.068-0.154,0.133-0.325,0.202-0.5C2.769,5.95,3.027,5.277,3.405,5.079
		c0.222-0.117,0.804-0.135,1.317-0.15l0.444-0.017C5.545,4.897,5.944,4.879,6.295,4.879z M9.507,7.047
		c-0.023,0-0.046-0.002-0.069-0.003L7.391,4.947c0.03,0,0.058,0.001,0.089,0.004c0.345,0.016,0.736,0.03,0.921,0.128
		c0.241,0.127,0.395,0.465,0.53,0.761c0.039,0.084,0.075,0.162,0.11,0.234l0.056,0.106C9.26,6.499,9.406,6.784,9.507,7.047z"/>
	<path fill="#FFFFFF" d="M0.504,11.854c-0.029,0.652-0.058,1.33,0.474,1.509c0.202,0.068,0.687,0.076,0.885,0.076
		c0.154,0,0.934-0.008,1.2-0.124c0.2-0.09,0.357-0.313,0.409-0.563h4.833c0.141,0.625,0.663,0.625,1.017,0.625L9.83,13.37
		c0.084,0,0.171,0,0.259,0.002c0.455,0.016,0.928,0.039,1.119-0.352c0.167-0.336,0.132-0.765,0.098-1.175
		c-0.021-0.27-0.044-0.551-0.006-0.782c0.036-0.224,0.126-0.441,0.223-0.673c0.073-0.178,0.146-0.359,0.204-0.557l0.652,0.669
		c0.087,0.396,0.695,0.605,1.301,0.605c0.657,0,1.32-0.24,1.32-0.699V2.263c0-0.485-0.739-0.712-1.437-0.684l0,0l-0.155-0.018h-6.24
		L5.517,3.468l0.398,0.409C5.564,3.884,5.2,3.899,4.861,3.916l-0.27,0.015C3.742,3.97,3.009,4.006,2.557,4.44
		C2.012,4.964,1.633,5.886,1.353,6.6c-0.212-0.343-0.639-0.487-1.08-0.331C0.251,6.275,0.233,6.289,0.217,6.306
		C0.03,6.515-0.038,6.808,0.034,7.112c0.054,0.232,0.182,0.435,0.344,0.56C0.201,7.891,0.082,8.197,0.03,8.575
		c-0.123,0.886,0.151,1.956,0.48,2.478C0.528,11.313,0.516,11.586,0.504,11.854z M14.719,2.263c0,0.11-0.353,0.363-1.039,0.363
		c-0.685,0-1.038-0.253-1.038-0.363c0-0.022,0.019-0.048,0.044-0.078c0.005-0.002,0.008-0.008,0.014-0.014
		c0.029-0.029,0.072-0.06,0.126-0.09c0.008-0.004,0.018-0.009,0.026-0.015c0.129-0.064,0.316-0.125,0.567-0.154l0.044-0.002
		c0.068-0.006,0.141-0.012,0.217-0.012C14.366,1.898,14.719,2.154,14.719,2.263z M12.642,10.409V2.71
		c0.015,0.012,0.034,0.018,0.05,0.026c0.043,0.025,0.087,0.049,0.136,0.067c0.024,0.011,0.05,0.021,0.073,0.029
		c0.057,0.021,0.115,0.038,0.178,0.055c0.018,0.004,0.036,0.009,0.054,0.015c0.174,0.037,0.36,0.06,0.548,0.06
		c0.189,0,0.376-0.022,0.551-0.06c0.018-0.006,0.033-0.011,0.053-0.015c0.062-0.017,0.121-0.034,0.179-0.055
		c0.024-0.009,0.047-0.019,0.071-0.029c0.05-0.019,0.094-0.042,0.137-0.067c0.016-0.009,0.034-0.015,0.049-0.026v7.699
		c0,0.108-0.353,0.363-1.039,0.363C12.995,10.772,12.642,10.518,12.642,10.409z M11.805,9.473c0.004-0.036,0.012-0.068,0.015-0.104
		c0.064-0.685-0.11-1.347-0.434-1.707c0.021-0.017,0.043-0.033,0.064-0.049c0.114-0.083,0.243-0.179,0.317-0.354
		c0.011-0.024,0.016-0.051,0.016-0.075l0.001-0.072c0.006-0.301,0.013-0.61-0.168-0.774c-0.411-0.231-0.888-0.137-1.099,0.146
		c-0.012,0.014-0.021,0.028-0.031,0.046c-0.062-0.14-0.12-0.285-0.181-0.435c-0.231-0.574-0.473-1.166-0.946-1.612
		C8.917,4.064,8.268,4.019,7.643,3.974C7.435,3.961,7.228,3.944,7.031,3.919C6.847,3.89,6.619,3.877,6.343,3.871L5.941,3.46h1.283
		V1.963l0.057-0.064h5.254c-0.006,0.008-0.009,0.014-0.015,0.021C12.48,1.959,12.449,2,12.423,2.046
		c-0.005,0.012-0.014,0.021-0.02,0.035c-0.025,0.055-0.042,0.116-0.042,0.182v7.778L11.805,9.473z M0.307,8.629
		C0.364,8.222,0.502,7.931,0.72,7.767c0.048-0.037,0.073-0.104,0.064-0.173C0.774,7.528,0.729,7.475,0.673,7.46
		c-0.167-0.04-0.319-0.221-0.37-0.441c-0.023-0.096-0.041-0.281,0.081-0.44C0.791,6.451,1.153,6.654,1.21,7.033
		c0.012,0.073,0.06,0.127,0.12,0.139c0.063,0.011,0.119-0.03,0.145-0.098l0.086-0.215C1.834,6.16,2.209,5.206,2.733,4.701
		c0.38-0.365,1.069-0.399,1.868-0.435l0.272-0.015c0.425-0.022,0.891-0.045,1.313-0.045c0.338,0,0.603,0.015,0.811,0.043
		C7.2,4.279,7.413,4.295,7.626,4.31c0.582,0.041,1.187,0.084,1.561,0.437c0.42,0.397,0.647,0.957,0.865,1.494
		c0.11,0.272,0.225,0.554,0.362,0.811c0.034,0.064,0.104,0.094,0.165,0.067c0.061-0.025,0.1-0.1,0.093-0.176
		c-0.01-0.098,0.009-0.176,0.056-0.235c0.125-0.17,0.514-0.205,0.746-0.081c0.039,0.041,0.034,0.294,0.03,0.477v0.033
		c-0.044,0.075-0.118,0.129-0.201,0.192c-0.082,0.061-0.175,0.131-0.247,0.231c-0.027,0.037-0.039,0.086-0.033,0.137
		c0.008,0.047,0.031,0.091,0.066,0.116c0.276,0.199,0.521,0.784,0.452,1.518c-0.032,0.336-0.153,0.63-0.271,0.911
		c-0.1,0.24-0.203,0.491-0.248,0.757c-0.043,0.283-0.02,0.586,0.005,0.879c0.03,0.376,0.059,0.73-0.062,0.973
		c-0.11,0.224-0.518,0.197-0.871,0.188c-0.089-0.002-0.179-0.008-0.265-0.008l-0.508,0.008c-0.555,0-0.719-0.103-0.762-0.479
		c-0.009-0.086-0.068-0.146-0.14-0.146H3.349c-0.077,0-0.139,0.072-0.14,0.166c-0.002,0.196-0.125,0.367-0.242,0.419
		c-0.135,0.061-0.598,0.105-1.103,0.105c-0.378,0-0.696-0.026-0.811-0.065c-0.298-0.101-0.297-0.489-0.266-1.168
		c0.012-0.294,0.026-0.601-0.001-0.901c-0.003-0.031-0.014-0.062-0.03-0.086C0.45,10.432,0.198,9.42,0.307,8.629z"/>
	<path fill="#FFFFFF" d="M10.611,7.983c0,0-3.074,0.243-2.246,2.099c0,0-2.671-1.636-6.856-1.896
		C3.555,7.442,5.99,7.103,10.611,7.983z"/>
	<path fill="#FFFFFF" d="M10.569,8.51c0.29,0.094,0.476,0.304,0.443,0.752c-0.061,0.895-2.111,0.987-2.146,0.176
		C8.836,8.784,10.111,8.364,10.569,8.51z"/>
	<path fill="#FFFFFF" d="M1.608,8.51C2.05,8.567,3.114,8.823,2.903,9.615c-0.081,0.303-1.22,0.51-1.74,0.267
		C0.922,9.769,0.799,9.403,0.793,9.219C0.776,8.631,1.049,8.437,1.608,8.51z"/>
	<path fill="#FFFFFF" d="M4.161,10.991c-0.024,0-0.043-0.023-0.043-0.05c0-0.03,0.019-0.053,0.043-0.053h3.512
		c0.023,0,0.044,0.022,0.044,0.053c0,0.026-0.021,0.05-0.044,0.05H4.161z"/>
	<path fill="#FFFFFF" d="M3.99,11.223h3.852c0.025,0,0.046,0.024,0.046,0.054c0,0.03-0.021,0.056-0.046,0.056H3.99
		c-0.024,0-0.044-0.025-0.044-0.056C3.946,11.247,3.966,11.223,3.99,11.223z"/>
	<path fill="#FFFFFF" d="M4.161,11.563h3.512c0.023,0,0.044,0.023,0.044,0.053c0,0.027-0.021,0.05-0.044,0.05H4.161
		c-0.024,0-0.043-0.022-0.043-0.05C4.117,11.586,4.136,11.563,4.161,11.563z"/>
</g>
</svg>
