<?xml version="1.0" encoding="utf-8"?>
<!-- Generator: Adobe Illustrator 14.0.0, SVG Export Plug-In . SVG Version: 6.00 Build 43363)  -->
<!DOCTYPE svg PUBLIC "-//W3C//DTD SVG 1.1//EN" "http://www.w3.org/Graphics/SVG/1.1/DTD/svg11.dtd">
<svg version="1.1" id="Layer_1" xmlns="http://www.w3.org/2000/svg" xmlns:xlink="http://www.w3.org/1999/xlink" x="0px" y="0px"
	 width="15px" height="15px" viewBox="0 0 15 15" enable-background="new 0 0 15 15" xml:space="preserve">
<g>
	<path fill-rule="evenodd" clip-rule="evenodd" fill="#FFFFFF" d="M14.209,2.379c0.075,2.378,0.01,4.93,0.033,7.375
		c0.335,0.318,0.74,0.533,0.757,1.169c0.021,0.778-0.657,1.137-1.285,1.451c-1.234,0.615-2.333,1.135-3.526,1.734
		c-0.776,0.387-1.546,1.074-2.605,0.845c-0.601-0.13-1.208-0.543-1.812-0.845c-1.201-0.603-2.285-1.196-3.527-1.813
		c-0.814-0.406-2.303-0.687-2.242-2.057c0.026-0.564,0.356-0.946,0.792-1.208c0.021-2.312-0.045-4.729,0.033-6.974
		c1.727-0.759,3.607-1.32,5.339-2.016C6.21,0.024,6.247-0.004,6.298,0c0.632,0.071,1.338,0.36,2.01,0.565
		C10.228,1.148,12.337,1.714,14.209,2.379z M8.044,1.17C7.445,0.989,6.817,0.69,6.265,0.687C5.958,0.685,5.44,0.968,5.111,1.089
		c-1.154,0.423-2.247,0.88-3.428,1.249c0.031,0.189,0.398,0.5,0.561,0.525c1.12-0.437,1.998-0.746,3.065-1.169
		C5.627,1.569,6.008,1.3,6.331,1.292c0.463-0.013,1.085,0.329,1.615,0.483c1.181,0.343,2.099,0.59,3.264,0.927
		c0.706,0.203,1.884,0.843,2.109,0C11.634,2.213,9.734,1.683,8.044,1.17z M6.561,4.717C6.295,4.915,5.903,4.961,5.54,5.041
		c0,0.617,0,1.234,0,1.853C5.891,7.068,6.3,7.247,6.726,7.458c0.396,0.196,0.795,0.534,1.187,0.605
		C8.41,8.154,8.88,7.964,9.264,8.102c0.418,0.151,0.606,0.613,0.791,1.089c0.899,0.392,1.729,0.867,2.604,1.29
		c0-2.231,0-4.461,0-6.692C10.624,3.214,8.61,2.615,6.595,2.017C6.574,2.905,6.637,3.896,6.561,4.717z M2.375,3.509
		c0.023,2.094-0.043,4.298,0.033,6.327c0.406-0.255,0.851-0.464,1.286-0.687c0.022-1.383-0.043-2.873,0.033-4.191
		c0.696-0.33,1.549-0.47,2.339-0.686C6.045,3.548,6.111,2.715,6.034,2.058C4.83,2.56,3.583,3.01,2.375,3.509z M1.32,2.984
		c0,2.148,0,4.298,0,6.448c0.12,0.115,0.443,0.389,0.528,0.283c0-2.096,0-4.193,0-6.288C1.72,3.27,1.418,2.912,1.32,2.984z
		 M13.187,3.789c-0.102,0.411,0,1.096,0,1.654c0,1.626,0,3.504,0,4.955c0.132,0.015,0.358-0.205,0.527-0.28
		c-0.022-2.283,0.044-4.675-0.033-6.893C13.566,3.453,13.253,3.523,13.187,3.789z M4.947,5.201C4.732,5.302,4.479,5.357,4.221,5.402
		c0,0.619,0,1.237,0,1.855C4.498,7.151,4.728,6.99,5.012,6.894C4.97,6.356,5.099,5.605,4.947,5.201z M5.243,7.458
		C4.872,7.471,4.625,7.898,4.221,7.94c-0.02,0.513,0.042,1.127-0.033,1.573C3.926,9.766,3.55,9.913,3.166,10.118
		c-0.318,0.169-0.787,0.542-1.087,0.523c-0.46-0.028-1.026-0.765-1.351-0.846c-0.54,0.794,0.068,1.089,0.626,1.371
		c1.529,0.769,2.945,1.489,4.383,2.216c0.623,0.313,1.216,0.699,1.748,0.886c0.364,0.128,0.742,0.108,1.055,0
		c0.517-0.18,1.063-0.526,1.615-0.806c0.521-0.263,1.066-0.532,1.615-0.807c0.697-0.348,1.681-0.742,2.406-1.25
		c0.153-0.106,0.537-0.624,0.131-0.845c-0.309-0.169-0.966,0.716-1.384,0.724c-0.2,0.005-0.461-0.229-0.726-0.361
		c-0.786-0.395-1.427-0.674-2.175-1.088c-0.133,1.021,0.194,1.91-0.033,2.74c-0.222,0.811-1.26,0.645-2.076,0.645
		c-0.53,0-1.167,0.129-1.583-0.04c-0.634-0.258-0.528-1.286-0.528-2.418c0-1.345-0.061-2.357,0.758-2.661
		C6.105,8.003,5.699,7.441,5.243,7.458z M6.726,8.707c-0.117,0.186-0.43,0.326-0.362,0.604c0.957,0.041,2.227,0.12,3.097-0.041
		C9.385,8.289,7.651,8.858,6.726,8.707z M6.364,9.997c-0.037,0.744-0.093,1.859,0.033,2.539c0.935,0.067,2.096,0.067,3.033,0
		c0.147-0.692,0.025-1.714,0.065-2.539C8.451,9.997,7.407,9.997,6.364,9.997z"/>
	<path fill-rule="evenodd" clip-rule="evenodd" fill="#FFFFFF" d="M7.287,2.622c0.082-0.044,0.15-0.057,0.197-0.042
		c0.478,0.156-0.191,1.117-0.362,0.443C7.047,2.731,7.147,2.691,7.287,2.622z"/>
	<path fill-rule="evenodd" clip-rule="evenodd" fill="#FFFFFF" d="M8.343,2.944C8.423,2.9,8.491,2.888,8.539,2.904
		c0.479,0.155-0.191,1.115-0.362,0.443C8.102,3.053,8.203,3.016,8.343,2.944z"/>
	<path fill-rule="evenodd" clip-rule="evenodd" fill="#FFFFFF" d="M9.396,3.266c0.082-0.042,0.15-0.056,0.197-0.041
		c0.479,0.157-0.191,1.117-0.363,0.442C9.155,3.375,9.257,3.338,9.396,3.266z"/>
	<path fill-rule="evenodd" clip-rule="evenodd" fill="#FFFFFF" d="M11.571,4.958c0.059,0.557,0.033,1.237,0.033,1.895
		c0,0.653,0.074,1.341-0.099,1.815c-0.401,0.033-0.792-0.227-1.154-0.404C9.293,7.745,8.167,7.222,7.155,6.612
		C7.119,5.72,7.061,4.454,7.188,3.629C7.785,3.542,8.691,3.97,9.495,4.233C10.235,4.476,10.991,4.659,11.571,4.958z M7.648,6.249
		c1.163,0.525,2.272,1.117,3.429,1.652c0-0.833,0-1.667,0-2.5C9.921,5.055,8.824,4.638,7.648,4.313
		C7.648,4.958,7.648,5.603,7.648,6.249z"/>
	<path fill-rule="evenodd" clip-rule="evenodd" fill="#FFFFFF" d="M10.451,3.588c0.082-0.042,0.151-0.056,0.197-0.041
		c0.479,0.155-0.191,1.116-0.363,0.443C10.211,3.697,10.313,3.66,10.451,3.588z"/>
	<path fill-rule="evenodd" clip-rule="evenodd" fill="#FFFFFF" d="M11.506,3.91c0.082-0.042,0.15-0.055,0.197-0.039
		c0.479,0.156-0.19,1.116-0.363,0.442C11.266,4.021,11.366,3.982,11.506,3.91z"/>
</g>
</svg>
