<?xml version="1.0" encoding="utf-8"?>
<!-- Generator: Adobe Illustrator 14.0.0, SVG Export Plug-In . SVG Version: 6.00 Build 43363)  -->
<!DOCTYPE svg PUBLIC "-//W3C//DTD SVG 1.1//EN" "http://www.w3.org/Graphics/SVG/1.1/DTD/svg11.dtd">
<svg version="1.1" id="Layer_1" xmlns="http://www.w3.org/2000/svg" xmlns:xlink="http://www.w3.org/1999/xlink" x="0px" y="0px"
	 width="15px" height="15px" viewBox="0 0 15 15" enable-background="new 0 0 15 15" xml:space="preserve">
<g>
	<path fill="#FFFFFF" d="M2.954,15c-0.014,0-0.029-0.002-0.043-0.006c-0.087-0.022-0.163-0.06-0.23-0.104
		c-0.014-0.01-0.055-0.052-0.066-0.063c-0.016-0.013-0.04-0.046-0.049-0.063c-0.036-0.058-0.085-0.137-0.089-0.265l0.004-0.122
		c0.193-0.901,0.395-1.795,0.594-2.693c0.122-0.543,0.243-1.086,0.364-1.628H2.735C2.624,10.046,2.552,10,2.479,9.953
		c-0.016-0.011-0.06-0.051-0.072-0.068c-0.013-0.008-0.023-0.02-0.033-0.033c-0.041-0.058-0.072-0.122-0.099-0.21
		C2.271,9.626,2.268,9.608,2.268,9.593v-0.15c0-0.017,0.002-0.031,0.007-0.047C2.361,9.102,2.56,9.01,2.713,8.986
		C2.721,8.982,2.76,8.98,2.77,8.98h0.01c0.002-0.037,0.004-0.077,0.004-0.119c0-0.016,0.002-0.029,0.006-0.046l0,0
		c-0.002-0.014,0-0.066,0.003-0.081C2.796,8.721,2.796,8.69,2.795,8.662c0-0.005,0-0.042,0.001-0.046
		C2.807,8.51,2.811,8.4,2.813,8.288c0-0.015,0.003-0.031,0.006-0.043H2.818c0-0.014,0.001-0.068,0.004-0.081
		C2.824,8.148,2.824,8.117,2.824,8.09c0-0.007,0-0.045,0.002-0.054c0.009-0.067,0.009-0.137,0.009-0.21
		c0-0.016,0.002-0.032,0.008-0.045c-0.002-0.016,0-0.063,0.003-0.076c0.002-0.014,0.002-0.047,0.002-0.106
		c0-0.016,0.001-0.03,0.005-0.044c0-0.026,0-0.044,0-0.042c0-0.007,0-0.044,0.002-0.051c0.008-0.065,0.01-0.138,0.01-0.212
		c0-0.014,0.002-0.03,0.006-0.043c0-0.016,0.001-0.062,0.004-0.076c0.002-0.014,0.002-0.047,0.001-0.109
		c0.001-0.013,0.002-0.028,0.006-0.041c-0.001-0.018-0.002-0.041,0-0.043c0-0.008,0-0.044,0.001-0.051
		c0.009-0.065,0.01-0.134,0.01-0.205c0-0.017,0.003-0.032,0.007-0.047l0,0c-0.002-0.013,0-0.066,0.004-0.079
		C2.906,6.543,2.906,6.509,2.906,6.45c0-0.015,0.001-0.03,0.006-0.043c-0.001-0.027,0-0.045,0-0.043c0-0.008,0-0.042,0.001-0.05
		c0.009-0.064,0.01-0.134,0.01-0.206c0-0.016,0.003-0.031,0.007-0.046l0,0c-0.002-0.014,0-0.065,0.003-0.079
		c0.003-0.015,0.002-0.047,0.002-0.106c0-0.015,0.001-0.03,0.006-0.044c0-0.013,0-0.069,0-0.072c0-0.016,0.002-0.031,0.008-0.045
		H2.947c0-0.014,0-0.065,0.002-0.078C2.97,5.528,3.118,5.469,3.212,5.53c0.017,0.011,0.032,0.025,0.044,0.042
		C3.42,5.8,3.595,6.017,3.771,6.233l0.153,0.191c0.013,0.016,0.022,0.033,0.028,0.053c0.035,0.111,0.024,0.227,0.014,0.338
		C3.961,6.873,3.955,6.933,3.958,6.989c0.001,0.02,0,0.038-0.006,0.057c0.002,0.024,0.002,0.046,0,0.085
		C3.942,7.276,3.933,7.425,3.93,7.579c0,0.014-0.002,0.028-0.006,0.041c0.002,0.019,0.003,0.042,0,0.085
		c-0.012,0.146-0.02,0.294-0.022,0.448C3.9,8.167,3.899,8.181,3.895,8.193C3.896,8.2,3.896,8.209,3.897,8.22
		C3.926,8.17,3.955,8.122,3.984,8.073c0.149-0.25,0.299-0.499,0.444-0.754c0.042-0.07,0.142-0.1,0.217-0.066
		c0.068,0.032,0.116,0.084,0.159,0.131c0.018,0.019,0.037,0.04,0.08,0.077c0.041,0.044,0.083,0.086,0.127,0.126
		C5.017,7.59,5.021,7.593,5.024,7.597c0.012,0.009,0.023,0.019,0.034,0.03c0.024,0.028,0.044,0.049,0.081,0.075
		C5.592,8.103,6.063,8.519,6.636,8.81c0.026,0.012,0.047,0.034,0.063,0.06c0.034,0.034,0.069,0.069,0.106,0.104
		c0.031,0.029,0.05,0.065,0.053,0.107C6.881,9.334,6.955,9.564,7.08,9.783C7.09,9.801,7.096,9.819,7.1,9.838
		c0.012,0.041,0.01,0.082-0.008,0.12C7.091,9.962,7.09,9.964,7.089,9.966c0.047-0.011,0.097,0.002,0.136,0.031
		c0.039,0.03,0.073,0.068,0.104,0.106c0.003,0.002,0.035,0.039,0.038,0.042c0.009,0.014,0.036,0.033,0.069,0.057
		c0.143,0.117,0.306,0.22,0.501,0.316c0.052,0.026,0.088,0.077,0.092,0.137c0.009,0.13,0.008,0.271,0.006,0.412
		c0,0.079-0.001,0.16,0,0.236c0.881,0.008,1.813,0.008,2.678,0c-0.045-0.208-0.092-0.413-0.139-0.618
		c-0.048-0.219-0.097-0.438-0.145-0.658C10.424,10,10.425,9.975,10.432,9.95c-0.003-0.011-0.005-0.023-0.006-0.033
		c-0.011-0.189-0.062-0.349-0.156-0.485L10.231,9.38c-0.044-0.058-0.094-0.123-0.123-0.221c-0.033-0.112-0.054-0.229-0.073-0.342
		C10.012,8.688,9.991,8.566,9.95,8.456c-0.071-0.189-0.161-0.347-0.3-0.518C9.612,7.884,9.563,7.834,9.501,7.784
		C9.284,7.607,9.006,7.42,8.542,7.369c-0.095-0.037-0.15-0.1-0.195-0.15c-0.014-0.016-0.027-0.03-0.042-0.044
		C8.291,7.161,8.279,7.147,8.27,7.13C8.055,6.716,7.774,6.352,7.527,6.043C7.485,5.99,7.481,5.915,7.516,5.855
		c0.141-0.234,0.28-0.471,0.419-0.708c0.19-0.324,0.381-0.65,0.58-0.969C8.545,4.13,8.597,4.1,8.654,4.1
		c0.071-0.002,0.111,0.031,0.142,0.08l0.835,1.406c0.483,0.813,0.967,1.627,1.449,2.429c-0.092-1.904-0.189-3.8-0.288-5.692
		c-0.002-0.02-0.001-0.042,0.014-0.057c-2.19-0.01-4.417-0.01-6.608,0c-0.013,0.206-0.026,0.419-0.029,0.66
		c0,0.056-0.029,0.108-0.078,0.139c-0.047,0.029-0.107,0.034-0.158,0.01c-0.2-0.096-0.436-0.203-0.711-0.26
		C3.133,2.795,3.08,2.67,3.098,2.583c0-0.016,0.001-0.033,0.005-0.049c0-0.002,0-0.005,0-0.007c0.009-0.064,0.01-0.134,0.01-0.205
		c0-0.016,0.002-0.032,0.007-0.047H3.12c-0.001-0.014,0-0.067,0.004-0.08c0.003-0.014,0.003-0.047,0.002-0.106
		c0-0.016,0.003-0.03,0.005-0.043c0-0.027,0.001-0.044,0-0.042c0-0.008,0.001-0.044,0.001-0.051c0.009-0.064,0.01-0.134,0.011-0.206
		c0-0.014,0.002-0.03,0.006-0.044l0,0c-0.002-0.016,0-0.066,0.003-0.081c0.001-0.014,0.001-0.047,0.001-0.107
		c0-0.016,0.003-0.03,0.005-0.043c0-0.014,0-0.068,0-0.072c0-0.016,0.003-0.033,0.007-0.047c0.001-0.015,0.004-0.03,0.007-0.04
		c0.022-0.063,0.081-0.109,0.149-0.111C3.583,1.19,3.847,1.188,4.115,1.188l0.879,0.004c0.162,0,0.324-0.001,0.482-0.005
		c0.07-0.176,0.216-0.291,0.439-0.327l0.19-0.001L6.649,0.86c0.104,0,0.208-0.001,0.311-0.004c0-0.049-0.001-0.1-0.001-0.149
		C6.958,0.638,6.958,0.57,6.958,0.502C6.962,0.38,7.01,0.299,7.057,0.223C7.068,0.202,7.14,0.128,7.159,0.113
		C7.222,0.067,7.299,0.031,7.431,0h0.133c0.017,0,0.054,0.009,0.071,0.015c0.069,0.021,0.156,0.048,0.22,0.136
		c0.029,0.011,0.054,0.031,0.074,0.056C7.975,0.27,8.025,0.352,8.035,0.479c0.002,0.07,0.001,0.14,0,0.211c0,0.057,0,0.111,0,0.166
		C8.136,0.859,8.238,0.86,8.34,0.86l0.538-0.002l0.214,0.002c0.203,0.033,0.348,0.145,0.419,0.324
		c0.254,0.005,0.514,0.005,0.771,0.005l0.999-0.001l0.379,0.001c0.079,0,0.146,0.057,0.159,0.133
		c0.003,0.008,0.003,0.03,0.003,0.049c0.003,0.009,0.006,0.018,0.007,0.028c0,0.009-0.012,0.053-0.012,0.061
		c0.012,0.023,0.017,0.049,0.017,0.075c-0.001,0.041-0.001,0.079,0.005,0.113c0.004,0.019,0.004,0.041,0.001,0.073
		c0.004,0.015,0.005,0.029,0.005,0.044c0.003,0.02,0.003,0.043,0,0.079c0-0.001,0-0.034-0.026-0.069
		c0.023,0.029,0.035,0.096,0.034,0.131c0,0.026-0.001,0.059,0.004,0.085c0.001,0.004,0.001,0.045,0.001,0.068
		c0.003,0.016,0.006,0.031,0.006,0.048c0,0.04-0.001,0.078,0.005,0.116c0.003,0.019,0.003,0.04,0.001,0.072
		c0.004,0.014,0.005,0.029,0.005,0.043c0.002,0.021,0.001,0.043,0,0.079c0-0.002,0-0.035-0.026-0.067
		c0.022,0.028,0.033,0.094,0.033,0.131c0,0.025,0,0.058,0.005,0.084c0.001,0.005,0.001,0.045,0.001,0.067
		c0.004,0.016,0.006,0.034,0.005,0.05c0,0.039,0,0.078,0.005,0.113c0.005,0.025,0.003,0.046,0.002,0.072
		c0.003,0.016,0.005,0.032,0.005,0.045c0.002,0.02,0.002,0.042,0,0.079c0-0.001,0-0.036-0.028-0.07
		c0.023,0.029,0.036,0.097,0.035,0.134c0,0.026-0.001,0.059,0.005,0.085c0.001,0.004,0,0.044,0,0.067
		c0.004,0.016,0.007,0.033,0.007,0.049c-0.001,0.041-0.002,0.079,0.004,0.114c0.004,0.018,0.004,0.04,0.002,0.072
		c0.004,0.016,0.005,0.032,0.005,0.045c0.001,0.019,0.001,0.043,0,0.079c0-0.001,0-0.034-0.026-0.069
		c0.021,0.028,0.033,0.095,0.032,0.13c-0.001,0.028-0.001,0.061,0.005,0.087c0.002,0.004,0.002,0.045,0.002,0.067
		c0.004,0.016,0.006,0.033,0.006,0.049c-0.002,0.04-0.002,0.079,0.004,0.112c0.004,0.026,0.003,0.048,0,0.075
		c0.005,0.014,0.006,0.028,0.006,0.042c0.004,0.026,0.002,0.051,0.001,0.08c0-0.001,0-0.034-0.027-0.069
		c0.022,0.029,0.034,0.097,0.034,0.134c-0.001,0.025-0.001,0.058,0.004,0.082c0,0.006,0,0.046,0,0.069
		c0.005,0.015,0.007,0.031,0.006,0.048c0,0.04,0,0.079,0.006,0.115c0.002,0.018,0.002,0.039,0,0.073
		c0.005,0.014,0.007,0.03,0.007,0.043c0.001,0.019,0.001,0.042,0,0.077c0-0.001,0-0.033-0.028-0.069
		c0.023,0.03,0.034,0.096,0.034,0.133c0,0.027-0.001,0.059,0.005,0.084c0,0.005,0,0.047,0,0.068c0.005,0.016,0.007,0.032,0.007,0.05
		c-0.001,0.04-0.002,0.077,0.003,0.114c0.004,0.019,0.004,0.041,0.002,0.072c0.004,0.015,0.006,0.03,0.006,0.044
		c0.002,0.02,0.002,0.043,0.001,0.08c0-0.002-0.001-0.035-0.028-0.068c0.022,0.028,0.034,0.094,0.034,0.13
		c-0.001,0.027-0.001,0.059,0.004,0.085c0.001,0.005,0.001,0.046,0.001,0.068c0.005,0.016,0.006,0.033,0.006,0.05
		c-0.001,0.039-0.001,0.077,0.005,0.114c0.003,0.019,0.003,0.041,0.001,0.071c0.004,0.015,0.005,0.031,0.005,0.045
		c0.003,0.02,0.003,0.042,0.001,0.079c0,0,0-0.035-0.027-0.069c0.021,0.029,0.033,0.097,0.033,0.133
		c-0.001,0.026-0.001,0.059,0.006,0.085c0,0.005,0,0.043,0,0.067c0.004,0.017,0.007,0.032,0.007,0.05
		c-0.001,0.039-0.002,0.077,0.003,0.112c0.004,0.024,0.003,0.047,0.001,0.073c0.004,0.014,0.005,0.028,0.005,0.044
		c0.004,0.025,0.003,0.049,0.002,0.079c0-0.002,0-0.035-0.028-0.071c0.022,0.03,0.035,0.097,0.034,0.133
		c0,0.026-0.001,0.059,0.005,0.086c0.001,0.005,0.001,0.045,0.001,0.067c0.003,0.015,0.006,0.032,0.005,0.049
		c0,0.039-0.001,0.078,0.006,0.114c0.002,0.019,0.002,0.041,0,0.072c0.004,0.015,0.006,0.03,0.006,0.043
		c0.003,0.02,0.002,0.044,0.001,0.08c0-0.002,0-0.035-0.027-0.069c0.022,0.028,0.032,0.095,0.032,0.131
		c0,0.026-0.001,0.06,0.005,0.084c0,0.005,0,0.045,0,0.068c0.005,0.016,0.008,0.033,0.008,0.051
		c-0.001,0.039-0.001,0.077,0.004,0.114c0.002,0.017,0.002,0.04,0.001,0.072c0.003,0.014,0.005,0.03,0.005,0.043
		c0.003,0.019,0.003,0.042,0,0.079c0-0.002,0-0.035-0.026-0.07c0.021,0.028,0.033,0.095,0.033,0.131c0,0.026,0,0.06,0.007,0.106
		c0.001,0.076,0.004,0.149,0.01,0.212c0.002,0.018,0.002,0.039,0.001,0.072c0.003,0.014,0.005,0.028,0.005,0.042
		c0.004,0.026,0.003,0.051,0.001,0.081c0-0.002-0.001-0.035-0.027-0.07c0.021,0.028,0.033,0.096,0.032,0.133
		c0,0.026,0,0.06,0.007,0.103c0.002,0.077,0.006,0.151,0.01,0.212c0.004,0.024,0.002,0.047,0.002,0.073
		c0.003,0.014,0.005,0.028,0.005,0.042c0.003,0.021,0.003,0.043,0,0.081c0-0.002,0-0.036-0.026-0.071
		c0.021,0.03,0.032,0.096,0.032,0.133c0,0.026,0,0.059,0.007,0.114c-0.002,0.025,0.001,0.048,0.003,0.069h0.02
		c0.01,0,0.053,0.002,0.062,0.006c0.219,0.038,0.366,0.176,0.437,0.416c0.005,0.014,0.007,0.029,0.007,0.045v0.134
		c0,0.018-0.01,0.058-0.014,0.073c-0.023,0.067-0.05,0.153-0.129,0.225c-0.014,0.012-0.027,0.023-0.051,0.052
		c-0.069,0.066-0.157,0.108-0.282,0.125h-0.141l-0.419-0.004c-0.048,0-0.098,0.002-0.146,0.004c0.13,0.587,0.262,1.173,0.393,1.761
		c0.19,0.856,0.382,1.707,0.569,2.602l-0.002,0.092c-0.018,0.174-0.107,0.396-0.477,0.49l-0.149-0.004
		c-0.371-0.063-0.441-0.388-0.492-0.626c-0.142-0.658-0.295-1.348-0.441-1.981c-2.294-0.008-4.625-0.008-6.918,0
		c-0.071,0.333-0.149,0.678-0.229,1.02c-0.069,0.308-0.139,0.612-0.203,0.904L3.59,14.37C3.537,14.626,3.47,14.942,3.075,15H2.954
		L2.954,15z M11.198,9.979c-0.014-0.021-0.021-0.045-0.023-0.068c-0.004-0.046,0.01-0.091,0.039-0.124
		c0.029-0.035,0.073-0.054,0.117-0.058c0.119-0.006,0.243-0.006,0.366-0.006l0.537,0.002c0.049-0.005,0.065-0.021,0.062-0.016
		c0.026-0.033,0.057-0.063,0.08-0.08c0.007-0.009,0.016-0.037,0.027-0.073V9.474c-0.039-0.119-0.097-0.151-0.152-0.163l-0.023-0.163
		l-0.043,0.163h-0.051c-0.046,0-0.082-0.002-0.113-0.01c-0.031-0.007-0.061-0.022-0.084-0.048c-0.019-0.021-0.034-0.06-0.043-0.096
		c-0.017-0.044-0.014-0.088-0.01-0.119c-0.007-0.044-0.011-0.089-0.005-0.102C11.872,8.895,11.87,8.85,11.87,8.792
		c-0.009-0.038-0.007-0.069-0.005-0.092c0-0.003,0-0.012,0-0.022c-0.01-0.039-0.008-0.073-0.007-0.103
		c-0.006-0.079-0.01-0.159-0.008-0.211c-0.009-0.042-0.009-0.086-0.009-0.146c-0.01-0.035-0.008-0.068-0.005-0.091
		c-0.001-0.003-0.001-0.012-0.002-0.022c-0.008-0.039-0.007-0.074-0.006-0.104c-0.006-0.079-0.011-0.16-0.008-0.212
		c-0.009-0.042-0.009-0.087-0.009-0.146c-0.01-0.037-0.007-0.068-0.005-0.092c0-0.003,0-0.012-0.001-0.019
		C11.798,7.496,11.8,7.46,11.802,7.438c-0.005-0.041-0.008-0.088-0.008-0.137c-0.008-0.035-0.005-0.066-0.001-0.087
		c-0.008-0.042-0.01-0.083-0.01-0.144C11.774,7.034,11.776,7,11.779,6.977c-0.001-0.003-0.002-0.01-0.002-0.021
		c-0.008-0.037-0.007-0.069-0.004-0.092c-0.006-0.041-0.008-0.089-0.007-0.137c-0.01-0.035-0.008-0.066-0.003-0.086
		c-0.009-0.043-0.01-0.085-0.01-0.145c-0.009-0.035-0.006-0.068-0.003-0.091c-0.002-0.004-0.002-0.014-0.002-0.023
		c-0.009-0.036-0.008-0.07-0.005-0.093c-0.006-0.041-0.008-0.087-0.008-0.136c-0.008-0.035-0.005-0.067-0.003-0.087
		c-0.007-0.041-0.008-0.085-0.008-0.144c-0.01-0.035-0.008-0.069-0.005-0.093c0-0.003-0.001-0.011-0.001-0.02
		c-0.009-0.038-0.007-0.07-0.005-0.093c-0.006-0.042-0.008-0.088-0.007-0.137c-0.009-0.035-0.006-0.067-0.003-0.086
		c-0.009-0.043-0.01-0.086-0.01-0.145c-0.008-0.036-0.005-0.069-0.003-0.093c0-0.001,0-0.011-0.001-0.02
		c-0.01-0.037-0.008-0.071-0.005-0.092c-0.006-0.042-0.009-0.089-0.007-0.139c-0.01-0.035-0.007-0.066-0.004-0.086
		c-0.008-0.042-0.009-0.085-0.009-0.144c-0.009-0.036-0.006-0.07-0.004-0.092c-0.001-0.004-0.001-0.012-0.002-0.021
		c-0.009-0.037-0.007-0.07-0.005-0.093c-0.004-0.041-0.006-0.089-0.006-0.138c-0.01-0.033-0.007-0.064-0.003-0.085
		c-0.009-0.041-0.01-0.084-0.01-0.144c-0.009-0.035-0.006-0.068-0.003-0.092c-0.001-0.002-0.001-0.011-0.001-0.022
		c-0.011-0.037-0.008-0.07-0.006-0.092c-0.006-0.043-0.008-0.088-0.007-0.138c-0.009-0.034-0.006-0.066-0.003-0.087
		c-0.009-0.042-0.01-0.085-0.009-0.144c-0.009-0.035-0.006-0.068-0.004-0.092c-0.001-0.004-0.002-0.013-0.002-0.021
		c-0.009-0.036-0.007-0.07-0.005-0.092c-0.005-0.042-0.007-0.089-0.006-0.138c-0.01-0.034-0.006-0.065-0.003-0.084
		c-0.01-0.043-0.01-0.086-0.01-0.146c-0.009-0.037-0.006-0.07-0.004-0.093c0-0.003,0-0.011,0-0.021
		c-0.012-0.037-0.009-0.07-0.006-0.092c-0.006-0.042-0.008-0.089-0.008-0.137c-0.008-0.035-0.006-0.068-0.003-0.088
		c-0.008-0.042-0.009-0.084-0.009-0.143c-0.008-0.037-0.006-0.07-0.004-0.093c0-0.003,0-0.012-0.001-0.021
		c-0.01-0.037-0.008-0.07-0.005-0.092c-0.006-0.042-0.007-0.089-0.007-0.138c-0.009-0.034-0.006-0.066-0.002-0.085
		c-0.01-0.042-0.011-0.086-0.011-0.145c-0.007-0.036-0.005-0.069-0.004-0.092c0-0.003,0-0.011,0-0.021
		c-0.011-0.037-0.008-0.072-0.005-0.093c-0.007-0.044-0.008-0.091-0.008-0.142C11.502,1.543,11.5,1.53,11.499,1.518L11.28,1.517
		l-0.999,0.002c-0.3,0-0.6-0.001-0.897-0.006C9.307,1.509,9.236,1.442,9.223,1.367C9.203,1.255,9.15,1.203,9.063,1.188L8.878,1.188
		L8.34,1.188c-0.158,0-0.316-0.001-0.469-0.007C7.788,1.179,7.72,1.113,7.713,1.031c-0.01-0.108-0.008-0.224-0.007-0.343
		c0-0.068,0.002-0.135,0-0.19C7.704,0.471,7.698,0.451,7.682,0.428C7.651,0.405,7.628,0.379,7.611,0.357
		c-0.01-0.007-0.04-0.017-0.079-0.03L7.475,0.324C7.426,0.337,7.386,0.355,7.387,0.348C7.36,0.38,7.331,0.41,7.328,0.41
		C7.3,0.455,7.288,0.477,7.288,0.511c-0.001,0.063,0,0.127,0,0.192c0,0.113,0.002,0.227-0.006,0.328
		c-0.007,0.084-0.075,0.148-0.158,0.15C6.969,1.188,6.81,1.188,6.649,1.188L5.946,1.185c-0.107,0.02-0.159,0.071-0.181,0.179l0,0
		C5.762,1.375,5.759,1.389,5.754,1.401C5.732,1.465,5.673,1.51,5.603,1.513C5.403,1.518,5.2,1.52,4.994,1.52L4.115,1.516
		c-0.211,0-0.42,0.002-0.627,0.008C3.487,1.531,3.485,1.538,3.484,1.545l0,0c0,0.045,0.001,0.095-0.006,0.138
		c0.001,0.024,0.003,0.058-0.005,0.093C3.471,1.854,3.468,1.932,3.46,2.028c0.001,0.023,0.003,0.056-0.006,0.091h0.001
		c0,0.045,0,0.095-0.007,0.137C3.45,2.28,3.453,2.315,3.443,2.352C3.442,2.406,3.44,2.462,3.432,2.527
		C3.583,2.567,3.72,2.618,3.845,2.672c0.008-0.169,0.018-0.332,0.028-0.49V2.102c0-0.091,0.073-0.164,0.165-0.164
		c2.286-0.009,4.613-0.009,6.903,0c0.089,0,0.168,0.079,0.168,0.169V2.14c0.014,0.047,0.013,0.101,0.011,0.162
		c0.11,2.111,0.22,4.222,0.319,6.344c0.004,0.075-0.044,0.142-0.116,0.164c-0.071,0.022-0.149-0.007-0.189-0.072
		C10.539,7.76,9.943,6.756,9.35,5.755L8.651,4.583C8.505,4.824,8.361,5.069,8.22,5.314C8.099,5.519,7.979,5.724,7.857,5.927
		C8.089,6.222,8.342,6.564,8.55,6.954C8.563,6.968,8.577,6.983,8.592,7c0.029,0.034,0.045,0.054,0.027,0.052
		c0.507,0.049,0.835,0.27,1.087,0.475c0.087,0.068,0.155,0.14,0.206,0.212c0.155,0.191,0.264,0.383,0.346,0.604
		c0.051,0.138,0.076,0.282,0.101,0.417c0.018,0.102,0.035,0.205,0.064,0.305c0.013,0.039,0.03,0.064,0.068,0.113l0.05,0.067
		c0.127,0.183,0.195,0.39,0.213,0.632c0.01,0.036,0.011,0.078,0.006,0.119c0.045,0.206,0.09,0.411,0.137,0.615
		c0.061,0.273,0.122,0.546,0.18,0.821c0.011,0.046-0.002,0.098-0.033,0.136c-0.03,0.039-0.077,0.062-0.125,0.062
		c-0.976,0.01-2.046,0.01-3.042,0c-0.086,0-0.157-0.066-0.162-0.153c-0.01-0.131-0.009-0.272-0.007-0.412
		c0.001-0.1,0.002-0.201-0.001-0.294c-0.158-0.084-0.298-0.173-0.418-0.266c0,0.045,0,0.089,0,0.137
		c0,0.279,0.002,0.559-0.005,0.829c-0.003,0.087-0.074,0.159-0.164,0.159c-0.992,0.01-2.065,0.01-3.047,0
		c-0.05,0-0.095-0.022-0.126-0.062c-0.031-0.036-0.043-0.088-0.034-0.135c0.055-0.271,0.115-0.537,0.176-0.804
		c0.055-0.244,0.109-0.485,0.157-0.735c0-0.09,0.072-0.161,0.162-0.165c0.332-0.006,0.668-0.006,1.006-0.006l1.146,0.002
		l0.124-0.002C6.609,9.551,6.561,9.367,6.537,9.173c-0.031-0.027-0.06-0.06-0.088-0.089C5.856,8.773,5.381,8.354,4.936,7.96
		c-0.042-0.03-0.082-0.064-0.12-0.11C4.813,7.847,4.812,7.847,4.81,7.845C4.803,7.84,4.797,7.836,4.792,7.831
		C4.74,7.784,4.689,7.733,4.664,7.702C4.647,7.688,4.63,7.673,4.613,7.658c-0.114,0.196-0.23,0.39-0.346,0.585
		C4.129,8.472,3.991,8.7,3.862,8.921C3.816,9.019,3.664,9.052,3.587,8.975c-0.052-0.054-0.05-0.119-0.049-0.19
		C3.537,8.764,3.535,8.729,3.543,8.692c0.004-0.15,0.012-0.299,0.024-0.481C3.565,8.188,3.563,8.155,3.573,8.118
		c0.003-0.15,0.011-0.299,0.022-0.481C3.594,7.616,3.592,7.581,3.602,7.544c0.003-0.151,0.012-0.301,0.023-0.481
		C3.624,7.043,3.622,7.012,3.629,6.978c-0.001-0.063,0.003-0.128,0.01-0.192C3.645,6.718,3.65,6.649,3.644,6.601L3.515,6.44
		C3.428,6.333,3.341,6.226,3.256,6.118c-0.001,0.007-0.003,0.014-0.004,0.02c0,0.076-0.003,0.153-0.01,0.251
		c0,0.021,0.002,0.054-0.008,0.09h0.001c0,0.045,0.001,0.095-0.006,0.138c0.001,0.023,0.003,0.058-0.006,0.095
		c0,0.075-0.003,0.153-0.011,0.25c0,0.022,0.003,0.057-0.007,0.094h0.001c0,0.042,0,0.092-0.006,0.132
		C3.202,7.21,3.203,7.243,3.193,7.28C3.192,7.358,3.19,7.438,3.183,7.537C3.184,7.56,3.186,7.592,3.176,7.628l0,0
		c0.001,0.044,0.001,0.095-0.005,0.137c0.001,0.021,0.002,0.054-0.006,0.091C3.164,7.933,3.161,8.009,3.153,8.087
		c0,0.043,0.001,0.094-0.006,0.138c0.001,0.022,0.004,0.058-0.005,0.094C3.139,8.432,3.134,8.543,3.124,8.66
		c0.001,0.044,0.001,0.094-0.007,0.137c0.002,0.024,0.005,0.058-0.005,0.095c-0.001,0.061-0.003,0.12-0.011,0.192
		c0,0.02,0,0.044-0.006,0.065C3.091,9.222,3.042,9.283,2.971,9.301C2.94,9.309,2.906,9.311,2.86,9.311
		c-0.003,0-0.092-0.002-0.094-0.002c-0.074,0.014-0.13,0.045-0.17,0.158v0.1c0.012,0.032,0.022,0.058,0.034,0.077
		c0.024,0.019,0.04,0.038,0.046,0.046c0.039,0.024,0.052,0.034,0.068,0.034h0.898c0.05,0,0.096,0.023,0.129,0.062
		c0.034,0.044,0.049,0.112,0.031,0.167C3.801,9.962,3.796,9.973,3.79,9.981c-0.13,0.591-0.263,1.183-0.394,1.774
		c-0.2,0.894-0.401,1.79-0.591,2.656v0.079c0.002,0.029,0.011,0.05,0.038,0.096c0.015,0.014,0.03,0.029,0.042,0.044
		c0.027,0.014,0.06,0.029,0.094,0.04l0.072,0.002c0.128-0.019,0.159-0.091,0.217-0.369l0.012-0.06
		c0.063-0.296,0.133-0.602,0.204-0.908c0.089-0.385,0.178-0.773,0.254-1.145c0.016-0.075,0.083-0.129,0.161-0.129
		c2.381-0.012,4.804-0.012,7.185,0c0.077,0,0.143,0.052,0.159,0.127c0.155,0.667,0.319,1.407,0.47,2.114
		c0.059,0.266,0.095,0.347,0.199,0.367l0.079,0.005c0.147-0.04,0.183-0.107,0.191-0.183l0.004-0.041
		c-0.183-0.859-0.374-1.71-0.564-2.563C11.479,11.254,11.338,10.618,11.198,9.979L11.198,9.979z M6.957,11.304
		c0.005-0.219,0.004-0.44,0.003-0.661c-0.001-0.173-0.002-0.347-0.001-0.518c0.001-0.026,0.007-0.053,0.019-0.075
		c-0.01,0.002-0.023,0.006-0.033,0.006H6.559l-1.146-0.004c-0.289,0-0.577,0.004-0.862,0.005c-0.045,0.217-0.094,0.431-0.143,0.646
		c-0.044,0.2-0.09,0.399-0.132,0.602C5.147,11.312,6.079,11.312,6.957,11.304L6.957,11.304z"/>
	<path fill-rule="evenodd" clip-rule="evenodd" fill="#FFFFFF" d="M5.308,3.568c0,0.057,0,0.112,0,0.169
		c0.002,0.037,0.073,0.077,0.116,0.11c0.274,0.21,0.551,0.438,0.806,0.654c0.042,0,0.085,0,0.128,0
		c0.5-0.057,0.821-0.294,0.898-0.777c0-0.048,0-0.097,0-0.145C7.253,3.486,7.225,3.419,7.198,3.348
		c-0.024-0.012-0.029-0.044-0.04-0.068c-0.023-0.063-0.066-0.105-0.104-0.15c-0.002,0-0.003,0-0.005,0
		c-0.025-0.02-0.046-0.042-0.064-0.064C6.834,2.926,6.642,2.83,6.375,2.809c-0.064,0-0.127,0-0.191,0
		C5.927,2.831,5.738,2.92,5.592,3.053c-0.031,0.032-0.057,0.07-0.1,0.092C5.403,3.258,5.326,3.382,5.308,3.568z"/>
	<path fill-rule="evenodd" clip-rule="evenodd" fill="#FFFFFF" d="M3.093,3.262C3.27,3.286,3.438,3.347,3.592,3.417
		c0.144,0.066,0.282,0.144,0.407,0.215C4.796,4.093,5.474,4.66,6.12,5.25c0.054,0.06,0.116,0.112,0.174,0.168
		c0.015,0.007,0.019,0.024,0.034,0.03C6.44,5.563,6.555,5.677,6.671,5.789c0.008,0.019,0.026,0.024,0.034,0.042
		c0.026,0.026,0.047,0.058,0.082,0.076C7.195,6.343,7.617,6.842,7.9,7.431C7.95,7.534,7.988,7.747,8.121,7.673
		C8.189,7.721,8.236,7.791,8.3,7.841c0.002,0,0.004,0,0.007,0c0.012-0.01,0.042-0.003,0.063-0.005c0.046,0,0.092,0,0.139,0
		c0.308,0.018,0.506,0.145,0.685,0.291c0,0.001,0,0.003,0,0.005c0.028,0.033,0.059,0.064,0.093,0.093c0.002,0,0.003,0,0.006,0
		c0.048,0.066,0.103,0.126,0.14,0.203c0.008,0.032,0.015,0.062,0.039,0.075c0.115,0.232,0.117,0.474,0.181,0.731
		C9.683,9.36,9.73,9.46,9.791,9.553c0.07,0.109,0.155,0.188,0.167,0.326c0,0.048,0,0.099,0,0.149
		c-0.044,0.212-0.171,0.344-0.395,0.377c-0.039,0-0.08,0-0.121,0c-0.701-0.067-1.32-0.219-1.733-0.574c0-0.002,0-0.004,0-0.006
		C7.68,9.791,7.65,9.761,7.616,9.733c-0.002,0-0.003,0-0.006,0C7.465,9.557,7.345,9.354,7.32,9.06c0-0.067,0-0.135,0-0.202
		c0-0.01,0-0.021,0-0.029C7.265,8.767,7.207,8.709,7.146,8.653c-0.002,0-0.004,0-0.006,0C7.228,8.517,7.016,8.485,6.915,8.44
		C6.357,8.185,5.899,7.754,5.488,7.39C5.435,7.333,5.375,7.284,5.32,7.228c-0.02-0.009-0.028-0.03-0.046-0.04
		C5.172,7.08,5.067,6.976,4.961,6.874C4.95,6.856,4.93,6.846,4.919,6.828c-0.059-0.06-0.112-0.123-0.174-0.181
		C4.338,6.219,3.943,5.745,3.563,5.209C3.3,4.841,3.014,4.435,2.832,3.975C2.745,3.753,2.617,3.288,2.948,3.262
		C2.997,3.262,3.044,3.262,3.093,3.262z M8.312,8.307c-0.049,0.01-0.099,0.081-0.146,0.126C8.039,8.563,7.896,8.69,7.784,8.821
		c0.004,0.03-0.01,0.042-0.006,0.07c-0.01,0.021-0.01,0.083,0,0.104c0.01,0.172,0.073,0.29,0.151,0.394
		c0.025,0.042,0.057,0.079,0.098,0.105c0.352,0.283,0.887,0.386,1.456,0.451C9.488,9.92,9.462,9.896,9.448,9.879
		c-0.117-0.161-0.209-0.355-0.261-0.6C9.13,9.01,9.112,8.711,8.943,8.538c0-0.002,0-0.003,0-0.005
		c-0.018-0.024-0.04-0.045-0.063-0.064c-0.003,0-0.005,0-0.008,0C8.778,8.386,8.668,8.319,8.509,8.3
		c-0.023-0.018-0.114-0.018-0.139,0C8.344,8.296,8.338,8.311,8.312,8.307z"/>
</g>
</svg>
