<?xml version="1.0" encoding="utf-8"?>
<!-- Generator: Adobe Illustrator 14.0.0, SVG Export Plug-In . SVG Version: 6.00 Build 43363)  -->
<!DOCTYPE svg PUBLIC "-//W3C//DTD SVG 1.1//EN" "http://www.w3.org/Graphics/SVG/1.1/DTD/svg11.dtd">
<svg version="1.1" id="Layer_1" xmlns="http://www.w3.org/2000/svg" xmlns:xlink="http://www.w3.org/1999/xlink" x="0px" y="0px"
	 width="15px" height="15px" viewBox="0 0 15 15" enable-background="new 0 0 15 15" xml:space="preserve">
<g>
	<path fill-rule="evenodd" clip-rule="evenodd" fill="#FFFFFF" d="M0.244,3.46C0.698,3.844,1.122,4.3,1.573,4.741
		c0.142,0.138,0.294,0.33,0.45,0.422C2.426,5.4,3.218,5.457,3.858,5.51C4.08,5.529,4.346,5.595,4.551,5.548
		C4.743,5.5,4.994,5.167,5.15,5.016c0.086-0.085,0.503-0.411,0.543-0.568c0.04-0.155-0.017-0.463-0.038-0.694
		C5.601,3.138,5.539,2.393,5.281,1.978c-0.184-0.297-0.569-0.595-0.862-0.88c-0.193-0.189-0.418-0.409-0.655-0.64
		C3.703,0.397,3.541,0.28,3.54,0.255C3.535,0.163,3.752,0.093,3.801,0C4.079,0.244,4.391,0.575,4.7,0.878
		c0.282,0.276,0.716,0.578,0.899,0.897C5.874,2.258,5.974,3.087,6.03,3.808C6.047,4.03,6.117,4.382,6.068,4.577
		C6.041,4.683,5.832,4.825,5.73,4.923c-0.24,0.235-0.417,0.428-0.674,0.678C4.973,5.682,4.816,5.881,4.7,5.913
		c-0.18,0.049-0.545-0.015-0.823-0.038C3.148,5.816,2.273,5.762,1.76,5.419C1.427,5.197,1.189,4.86,0.88,4.558
		c-0.189-0.184-0.426-0.417-0.655-0.64C0.152,3.846,0,3.732,0,3.715C-0.004,3.619,0.213,3.572,0.244,3.46z"/>
	<path fill-rule="evenodd" clip-rule="evenodd" fill="#FFFFFF" d="M14.757,3.46C14.782,3.568,14.996,3.619,15,3.698
		c0.002,0.055-0.337,0.347-0.431,0.439c-0.169,0.165-0.324,0.299-0.449,0.42c-0.285,0.278-0.572,0.655-0.88,0.861
		c-0.486,0.324-1.365,0.397-2.116,0.456c-0.28,0.023-0.606,0.085-0.806,0.038C10.2,5.885,10.032,5.688,9.943,5.601
		c-0.251-0.244-0.44-0.43-0.693-0.678C9.157,4.832,8.955,4.667,8.933,4.577C8.885,4.385,8.953,4.005,8.97,3.789
		C9.022,3.112,9.128,2.165,9.438,1.72c0.216-0.31,0.585-0.59,0.843-0.842c0.32-0.314,0.628-0.602,0.917-0.878
		c0.044,0.089,0.26,0.163,0.263,0.236c0.003,0.059-0.33,0.343-0.432,0.441c-0.331,0.323-0.555,0.541-0.88,0.859
		C10,1.685,9.81,1.817,9.719,1.957c-0.25,0.388-0.319,1.179-0.375,1.796C9.325,3.979,9.272,4.268,9.308,4.431
		C9.344,4.599,9.732,4.9,9.85,5.016C9.999,5.16,10.257,5.5,10.431,5.548c0.201,0.053,0.478-0.021,0.693-0.038
		c0.625-0.051,1.449-0.129,1.835-0.346c0.353-0.201,0.629-0.598,0.898-0.861C14.166,4,14.45,3.719,14.757,3.46z"/>
	<path fill-rule="evenodd" clip-rule="evenodd" fill="#FFFFFF" d="M0.73,3.477C2.216,3.435,3.783,3.471,5.299,3.46
		C5.263,3.765,5.418,4.02,5.356,4.302c-0.04,0.176-0.323,0.371-0.45,0.494C4.788,4.912,4.563,5.203,4.419,5.235
		C4.271,5.27,3.991,5.212,3.82,5.199c-0.506-0.045-1.207-0.1-1.592-0.293C1.974,4.779,1.685,4.412,1.479,4.209
		C1.178,3.916,0.953,3.668,0.73,3.477z"/>
	<path fill-rule="evenodd" clip-rule="evenodd" fill="#FFFFFF" d="M9.719,3.46c1.505,0,3.009,0,4.514,0
		c0.027,0.049-0.085,0.1-0.15,0.165c-0.296,0.293-0.59,0.613-0.918,0.933c-0.127,0.125-0.261,0.282-0.393,0.348
		c-0.382,0.193-1.063,0.246-1.592,0.293c-0.168,0.013-0.435,0.064-0.581,0.036c-0.163-0.032-0.374-0.313-0.505-0.439
		C9.98,4.685,9.686,4.478,9.645,4.319C9.568,4.035,9.73,3.738,9.719,3.46z"/>
	<path fill-rule="evenodd" clip-rule="evenodd" fill="#FFFFFF" d="M4.962,6.206C5.426,5.762,5.895,5.322,6.33,4.851
		c0.207,0.261,0.689,0.49,0.824,0.804c0.173,0.405-0.24,0.657-0.468,0.88C6.477,6.74,6.28,7.096,5.861,6.994
		C5.479,6.899,5.282,6.378,4.962,6.206z"/>
	<path fill-rule="evenodd" clip-rule="evenodd" fill="#FFFFFF" d="M10.019,6.188C9.92,6.344,9.766,6.452,9.625,6.59
		C9.451,6.761,9.243,7.13,8.82,6.994C8.631,6.931,8.463,6.681,8.314,6.536c-0.222-0.218-0.646-0.464-0.468-0.88
		C7.98,5.343,8.462,5.143,8.633,4.851C9.108,5.285,9.545,5.754,10.019,6.188z"/>
	<path fill-rule="evenodd" clip-rule="evenodd" fill="#FFFFFF" d="M2.584,6.443C3.232,6.301,3.24,6.914,3.296,7.488
		c0.172,1.76,0.309,3.461,0.468,5.254c0.049,0.547,0.064,1.039,0.449,1.188c0.354,0.139,1.126,0.038,1.629,0.038
		c1.123,0,2.179,0,3.314,0c0.824,0,1.705,0.144,1.948-0.329c0.107-0.211,0.104-0.608,0.131-0.917
		c0.161-1.862,0.329-3.786,0.524-5.693c0.042-0.413,0.175-0.636,0.581-0.604c0.577,0.043,0.441,0.628,0.393,1.19
		c-0.14,1.579-0.283,3.066-0.412,4.539c-0.059,0.664-0.063,1.484-0.318,1.959c-0.227,0.42-0.705,0.805-1.255,0.861
		c-0.542,0.053-1.098,0-1.647,0c-1.036,0-2.179,0-3.259,0c-0.569,0-1.15,0.055-1.629,0c-0.671-0.079-1.178-0.602-1.348-1.154
		c-0.162-0.526-0.131-1.153-0.188-1.757c-0.136-1.448-0.281-2.912-0.412-4.412C2.221,7.141,2.063,6.559,2.584,6.443z"/>
	<path fill-rule="evenodd" clip-rule="evenodd" fill="#FFFFFF" d="M7.491,6.736c0.252,0.365,0.801,0.916,0.525,1.537
		c-0.093,0.208-0.333,0.34-0.6,0.312C7.11,8.553,6.957,8.294,6.929,8.054C6.862,7.484,7.23,7.062,7.454,6.791
		C7.467,6.776,7.467,6.742,7.491,6.736z M7.697,8.166c0.184-0.029,0.171-0.468,0-0.532C7.418,7.66,7.476,8.197,7.697,8.166z"/>
	<path fill-rule="evenodd" clip-rule="evenodd" fill="#FFFFFF" d="M4.157,9.062c2.235,0,4.47,0,6.704,0
		c-0.103,1.43-0.256,2.813-0.375,4.229c-1.991,0-3.982,0-5.973,0c-0.122-1.396-0.255-2.776-0.375-4.174
		C4.137,9.091,4.136,9.065,4.157,9.062z"/>
</g>
</svg>
