<?xml version="1.0" encoding="utf-8"?>
<!-- Generator: Adobe Illustrator 14.0.0, SVG Export Plug-In . SVG Version: 6.00 Build 43363)  -->
<!DOCTYPE svg PUBLIC "-//W3C//DTD SVG 1.1//EN" "http://www.w3.org/Graphics/SVG/1.1/DTD/svg11.dtd">
<svg version="1.1" id="Layer_1" xmlns="http://www.w3.org/2000/svg" xmlns:xlink="http://www.w3.org/1999/xlink" x="0px" y="0px"
	 width="15px" height="15px" viewBox="0 0 15 15" enable-background="new 0 0 15 15" xml:space="preserve">
<g>
	<g>
		<g>
			<path fill="#FFFFFF" d="M4.011,4.157c0.055-0.055,0.13-0.084,0.208-0.084s0.153,0.03,0.208,0.084
				C4.48,4.213,4.511,4.289,4.511,4.365c0,0.078-0.031,0.153-0.084,0.208c-0.055,0.053-0.13,0.085-0.208,0.085
				S4.066,4.626,4.011,4.573c-0.054-0.056-0.085-0.13-0.085-0.208C3.926,4.289,3.957,4.213,4.011,4.157z"/>
		</g>
	</g>
	<g>
		<g>
			<path fill="#FFFFFF" d="M10.313,8.553v2.344c0,0.163,0.131,0.294,0.293,0.294h2.343c0.163,0,0.295-0.131,0.295-0.294V8.553
				c0-0.16-0.132-0.291-0.295-0.291h-2.343C10.443,8.262,10.313,8.393,10.313,8.553z M10.898,8.848h1.758v1.758h-1.758V8.848z"/>
		</g>
	</g>
	<g>
		<g>
			<path fill="#FFFFFF" d="M0,6.415v8.291C0,14.867,0.131,15,0.292,15h8.292c0.119,0,0.225-0.073,0.271-0.182
				c0.045-0.108,0.021-0.234-0.063-0.318l-1.826-1.824c0,0,0,0,0,0s0,0,0-0.002L3.486,9.194c0,0,0,0,0,0V9.192L0.5,6.208
				C0.416,6.124,0.29,6.101,0.181,6.146C0.071,6.189,0,6.298,0,6.415z M0.585,7.124L1.704,8.24l-0.28,0.281
				c-0.114,0.114-0.114,0.299,0,0.414C1.481,8.991,1.557,9.02,1.632,9.02c0.075,0,0.149-0.028,0.207-0.085l0.279-0.28l0.745,0.747
				l-0.279,0.28c-0.114,0.113-0.114,0.301,0,0.413c0.057,0.058,0.132,0.086,0.208,0.086c0.074,0,0.149-0.028,0.207-0.086l0.28-0.281
				l0.746,0.748l-0.28,0.279c-0.114,0.114-0.114,0.299,0,0.415c0.058,0.058,0.133,0.085,0.207,0.085
				c0.075,0,0.151-0.027,0.207-0.085l0.28-0.279l0.745,0.745l-0.279,0.279c-0.114,0.114-0.114,0.299,0,0.415
				c0.058,0.057,0.132,0.085,0.208,0.085c0.075,0,0.15-0.028,0.208-0.085l0.279-0.28l0.746,0.744l-0.28,0.28
				c-0.114,0.115-0.114,0.301,0,0.414c0.057,0.057,0.132,0.086,0.208,0.086c0.075,0,0.15-0.029,0.207-0.086l0.279-0.276l1.118,1.114
				H0.585V7.124z"/>
		</g>
	</g>
	<g>
		<g>
			<path fill="#FFFFFF" d="M1.465,9.952v3.29c0,0.161,0.131,0.293,0.293,0.293h3.289c0.118,0,0.225-0.073,0.271-0.181
				c0.045-0.109,0.021-0.237-0.063-0.32l-3.29-3.289C1.881,9.66,1.755,9.638,1.646,9.682C1.536,9.726,1.465,9.834,1.465,9.952z
				 M2.05,10.659l2.29,2.289H2.05V10.659z"/>
		</g>
	</g>
	<g>
		<g>
			<path fill="#FFFFFF" d="M1.366,4.682l0.732,2.001C2.113,6.72,2.137,6.757,2.165,6.789l2.248,2.246c0.114,0.113,0.3,0.113,0.415,0
				c0.113-0.115,0.113-0.3,0-0.415L2.782,6.574l0.854-0.854l5.352,5.353l-0.854,0.854l-1.87-1.873c-0.115-0.115-0.301-0.115-0.415,0
				c-0.115,0.116-0.115,0.301,0,0.415l2.469,2.473c0.232,0.23,0.536,0.347,0.843,0.347c0.305,0,0.607-0.116,0.84-0.347
				c0.463-0.466,0.463-1.22,0-1.685l-0.264-0.263c0.012-0.029,0.018-0.062,0.018-0.098V7.5c0-0.164-0.131-0.293-0.292-0.293H7.12
				c-0.163,0-0.292,0.129-0.292,0.293c0,0.162,0.13,0.291,0.292,0.291h2.05v2.635L4.825,6.082l3.466-3.467l4.3,4.302
				c0.055,0.054,0.13,0.084,0.208,0.084h1.029v7.411H9.463c-0.162,0-0.293,0.132-0.293,0.294C9.17,14.867,9.301,15,9.463,15h4.657
				c0.163,0,0.293-0.133,0.293-0.294V7.001h0.295c0.118,0,0.224-0.072,0.27-0.181c0.046-0.108,0.021-0.235-0.063-0.32L8.498,0.086
				c-0.115-0.115-0.301-0.115-0.415,0L4.745,3.425c-0.115,0.116-0.115,0.302,0,0.415c0.113,0.114,0.299,0.114,0.414,0l3.133-3.133
				L14,6.415h-1.08L8.498,1.996C8.442,1.94,8.369,1.91,8.291,1.91c-0.077,0-0.153,0.03-0.208,0.085L4.411,5.669L3.849,5.105
				c-0.03-0.029-0.067-0.054-0.107-0.067l-2-0.733C1.635,4.267,1.513,4.293,1.434,4.372C1.354,4.455,1.327,4.575,1.366,4.682z
				 M9.402,11.487l0.185,0.185c0.113,0.113,0.176,0.267,0.176,0.427c0,0.162-0.063,0.313-0.176,0.425
				c-0.114,0.116-0.266,0.178-0.428,0.178c-0.16,0-0.312-0.062-0.426-0.178l-0.185-0.183L9.402,11.487z M2.133,5.073l0.968,0.353
				L2.488,6.04L2.133,5.073z"/>
		</g>
	</g>
	<g>
		<g>
			<path fill="#FFFFFF" d="M5.135,9.343C5.19,9.289,5.267,9.257,5.343,9.257c0.077,0,0.154,0.032,0.208,0.086
				C5.605,9.397,5.637,9.472,5.637,9.55c0,0.077-0.032,0.152-0.086,0.207C5.497,9.813,5.421,9.843,5.343,9.843
				c-0.076,0-0.152-0.03-0.208-0.086C5.081,9.702,5.05,9.626,5.05,9.55C5.05,9.472,5.081,9.397,5.135,9.343z"/>
		</g>
	</g>
	<g>
		<g>
			<path fill="#FFFFFF" d="M7.178,5.536c0,0.614,0.5,1.115,1.113,1.115s1.112-0.501,1.112-1.115c0-0.612-0.499-1.111-1.112-1.111
				S7.178,4.923,7.178,5.536z M7.763,5.536c0-0.289,0.236-0.527,0.528-0.527c0.291,0,0.527,0.238,0.527,0.527
				c0,0.293-0.236,0.528-0.527,0.528C8,6.064,7.763,5.829,7.763,5.536z"/>
		</g>
	</g>
</g>
</svg>
