<?xml version="1.0" encoding="utf-8"?>
<!-- Generator: Adobe Illustrator 14.0.0, SVG Export Plug-In . SVG Version: 6.00 Build 43363)  -->
<!DOCTYPE svg PUBLIC "-//W3C//DTD SVG 1.1//EN" "http://www.w3.org/Graphics/SVG/1.1/DTD/svg11.dtd">
<svg version="1.1" id="Layer_1" xmlns="http://www.w3.org/2000/svg" xmlns:xlink="http://www.w3.org/1999/xlink" x="0px" y="0px"
	 width="15px" height="15px" viewBox="0 0 15 15" enable-background="new 0 0 15 15" xml:space="preserve">
<g>
	<path fill="#FFFFFF" d="M13.109,15c-0.36,0-0.736-0.016-1.075-0.026c-0.273-0.014-0.522-0.023-0.718-0.023h-9.03
		c-0.146,0-0.31,0.006-0.478,0.013c-0.182,0.006-0.369,0.011-0.543,0.011c-0.417,0-0.659-0.036-0.814-0.12
		c-0.461-0.259-0.458-1.271-0.408-2.568c0.008-0.213,0.017-0.407,0.017-0.556c0-0.166-0.009-0.378-0.021-0.607
		c-0.055-1.246-0.061-2.218,0.412-2.484c0.16-0.087,0.348-0.1,0.528-0.1l0.323,0.008c0.04-0.931,0.033-1.922,0.026-2.885
		C1.326,5.08,1.321,4.498,1.327,3.925C1.323,3.924,1.319,3.924,1.316,3.924C0.907,3.872,0.397,3.81,0.149,3.261
		c-0.19-0.42-0.192-2.038-0.044-2.493C0.327,0.093,0.995,0,1.685,0c0.157,0,0.321,0.005,0.491,0.008
		C2.35,0.015,2.529,0.021,2.709,0.021l10.588-0.006c0.65,0,1.307,0.051,1.567,0.667c0.165,0.387,0.196,2.123,0,2.577
		c-0.225,0.518-0.705,0.637-1.182,0.656v4.627c0.046,0.002,0.093,0.005,0.137,0.005l0.203-0.002c0.175,0,0.374,0.005,0.536,0.094
		c0.495,0.272,0.453,1.287,0.414,2.268c-0.012,0.231-0.021,0.454-0.021,0.646v1.484c0,0.111,0.003,0.233,0.006,0.361
		c0.015,0.562,0.015,0.945-0.104,1.158C14.679,14.872,14.175,15,13.109,15L13.109,15z M2.286,14.52h9.03
		c0.199,0,0.455,0.008,0.734,0.021c0.334,0.013,0.704,0.029,1.059,0.029c1.186,0,1.348-0.185,1.369-0.222
		c0.068-0.126,0.057-0.615,0.048-0.939c-0.002-0.127-0.005-0.255-0.005-0.371v-1.484c0-0.198,0.009-0.425,0.019-0.665
		c0.027-0.646,0.072-1.728-0.189-1.868c-0.078-0.045-0.252-0.045-0.328-0.045l-0.203,0.003c-0.14,0-0.287-0.008-0.419-0.05
		L13.251,8.88V3.484l0.219,0.001c0,0,0,0,0.001,0c0.69,0,0.894-0.161,0.998-0.402c0.146-0.333,0.122-1.944,0-2.234
		c-0.146-0.341-0.509-0.402-1.172-0.402l-0.641,0.005H2.709c-0.185,0-0.369-0.005-0.547-0.01C1.998,0.437,1.837,0.431,1.685,0.431
		c-0.741,0-1.058,0.128-1.17,0.475C0.392,1.282,0.41,2.791,0.542,3.082C0.683,3.395,0.949,3.443,1.37,3.494
		c0.07,0.01,0.14,0.021,0.209,0.03l0.184,0.028L1.761,3.739c-0.009,0.631-0.004,1.274,0,1.92c0.006,1.038,0.015,2.111-0.036,3.109
		l-0.01,0.196L1.52,8.975c-0.125,0.005-0.248,0.003-0.366,0L0.98,8.97c-0.108,0-0.244,0.008-0.318,0.05
		c-0.278,0.151-0.22,1.456-0.192,2.081c0.011,0.239,0.02,0.455,0.02,0.629c0,0.153-0.008,0.353-0.016,0.574
		c-0.022,0.554-0.079,2.022,0.188,2.17c0.045,0.027,0.183,0.068,0.603,0.068c0.169,0,0.351-0.007,0.529-0.013
		C1.967,14.524,2.138,14.52,2.286,14.52L2.286,14.52z"/>
	<path fill="#FFFFFF" d="M13.078,8.975H1.924V3.807c-0.018-0.254,0.148-0.309,0.22-0.322h10.935V8.975L13.078,8.975z M2.356,8.542
		h10.292V3.917H2.354L2.356,8.542L2.356,8.542z"/>
	<path fill-rule="evenodd" clip-rule="evenodd" fill="#FFFFFF" d="M10.921,2.677c0,0.105-0.085,0.189-0.188,0.189H4.267
		c-0.103,0-0.188-0.084-0.188-0.189V1.309c0-0.104,0.085-0.19,0.188-0.19h6.465c0.104,0,0.188,0.085,0.188,0.19V2.677z"/>
	<path fill-rule="evenodd" clip-rule="evenodd" fill="#FFFFFF" d="M12.521,10.987c0,0.08-0.122,0.146-0.274,0.146H2.755
		c-0.154,0-0.276-0.066-0.276-0.146V9.932c0-0.081,0.123-0.146,0.276-0.146h9.491c0.152,0,0.274,0.065,0.274,0.146V10.987z"/>
	<path fill-rule="evenodd" clip-rule="evenodd" fill="#FFFFFF" d="M11.608,11.597c0,0.013-0.101,0.023-0.226,0.023H3.617
		c-0.125,0-0.226-0.011-0.226-0.023v-0.174c0-0.013,0.101-0.022,0.226-0.022h7.766c0.125,0,0.226,0.01,0.226,0.022V11.597z"/>
	<path fill-rule="evenodd" clip-rule="evenodd" fill="#FFFFFF" d="M11.608,12.032c0,0.015-0.101,0.023-0.226,0.023H3.617
		c-0.125,0-0.226-0.009-0.226-0.023v-0.173c0-0.014,0.101-0.023,0.226-0.023h7.766c0.125,0,0.226,0.01,0.226,0.023V12.032z"/>
	<path fill-rule="evenodd" clip-rule="evenodd" fill="#FFFFFF" d="M7.334,4.373c1.569-0.307,1.34,2.282-0.141,1.804
		C6.226,5.864,6.532,4.531,7.334,4.373z"/>
	<path fill-rule="evenodd" clip-rule="evenodd" fill="#FFFFFF" d="M8.398,6.211c0.585,0.477,0.942,1.178,0.988,2.194
		C8.198,8.488,6.86,8.417,5.613,8.44c0.009-1.064,0.394-1.749,0.988-2.229C6.985,6.629,8.013,6.616,8.398,6.211z"/>
</g>
</svg>
