<?xml version="1.0" encoding="utf-8"?>
<!-- Generator: Adobe Illustrator 14.0.0, SVG Export Plug-In . SVG Version: 6.00 Build 43363)  -->
<!DOCTYPE svg PUBLIC "-//W3C//DTD SVG 1.1//EN" "http://www.w3.org/Graphics/SVG/1.1/DTD/svg11.dtd">
<svg version="1.1" id="Layer_1" xmlns="http://www.w3.org/2000/svg" xmlns:xlink="http://www.w3.org/1999/xlink" x="0px" y="0px"
	 width="15px" height="15px" viewBox="0 0 15 15" enable-background="new 0 0 15 15" xml:space="preserve">
<g id="_x30_31---Laser-Cutting" transform="translate(0 -1)">
	<path id="Shape" fill="#FFFFFF" d="M2.125,2.5c-0.415,0-0.75,0.335-0.75,0.75V3.5c0,0.415,0.334,0.75,0.75,0.75h0.5V5.75
		c-0.137,0-0.249,0.111-0.249,0.249c0,0.139,0.112,0.25,0.249,0.25H2.72l0.656,1.31v1.69c0,0.138,0.111,0.25,0.25,0.25
		c0.138,0,0.25-0.113,0.25-0.25V7.56L4.53,6.25h0.096c0.138,0,0.25-0.112,0.25-0.25c0-0.138-0.111-0.249-0.25-0.249V4.25h3v7H5.876
		V9.5c0-0.139-0.112-0.25-0.25-0.25h-1c-0.117,0-0.12,0.027-1,0.688c-0.938-0.704-0.887-0.688-1-0.688h-1
		c-0.138,0-0.25,0.112-0.25,0.25v1.749h-0.25c-0.276,0-0.5,0.224-0.5,0.5V15.5c0,0.275,0.225,0.5,0.5,0.5h1.897
		c0.133-0.001,0.26-0.053,0.354-0.147l0.603-0.603h3.295l0.603,0.603C7.969,15.947,8.097,15.999,8.228,16h1.897
		c0.276,0,0.5-0.225,0.5-0.5v-3.751c0-0.276-0.224-0.5-0.5-0.5H9.376v-7h0.749c0.414,0,0.752-0.335,0.752-0.75V3.25
		c0-0.414-0.338-0.75-0.752-0.75H9.376V1.749C9.376,1.335,9.04,1,8.625,1H8.376C7.961,1,7.625,1.335,7.625,1.749v0.729
		c-0.715-0.06-1.39-0.355-1.917-0.842C5.366,1.348,4.976,1.019,4.476,1C4.06,0.991,3.687,1.249,3.548,1.64
		C3.439,1.915,3.381,2.204,3.376,2.5H2.125L2.125,2.5z M4.456,1.499C4.99,1.52,5.36,2.107,6.056,2.5H3.882
		C3.905,2.066,4.022,1.475,4.456,1.499L4.456,1.499z M8.876,2.5H8.125V1.749c0-0.137,0.113-0.25,0.251-0.25h0.249
		c0.138,0,0.251,0.113,0.251,0.25V2.5z M1.125,11.749h9V15.5H8.228l-0.603-0.604c-0.093-0.092-0.22-0.147-0.352-0.147H3.979
		c-0.133,0-0.26,0.056-0.353,0.147L3.022,15.5H1.125V11.749z M5.376,11.249H1.875v-1.5h0.668l0.933,0.702
		c0.089,0.067,0.21,0.067,0.3,0l0.932-0.702h0.668V11.249z M8.125,4.25h0.751v7H8.125V4.25z M3.28,6.25h0.69l-0.345,0.69L3.28,6.25z
		 M3.125,4.25h1V5.75h-1V4.25z M1.875,3.25c0-0.139,0.113-0.25,0.25-0.25h8c0.139,0,0.252,0.112,0.252,0.25V3.5
		c0,0.139-0.113,0.249-0.252,0.249h-8c-0.138,0-0.25-0.11-0.25-0.249V3.25z"/>
	<path id="Shape_1_" fill="#FFFFFF" d="M6.803,6.822C6.85,6.868,6.877,6.934,6.877,7S6.85,7.13,6.803,7.177l-1.5,1.5
		c-0.099,0.098-0.257,0.098-0.355,0c-0.099-0.098-0.099-0.256,0-0.354l1.5-1.501c0.047-0.048,0.11-0.073,0.177-0.073
		C6.693,6.749,6.756,6.773,6.803,6.822z"/>
	<path id="Shape_2_" fill="#FFFFFF" d="M2.125,8.75C2.06,8.75,1.995,8.724,1.948,8.677l-1.5-1.5C0.35,7.08,0.35,6.92,0.448,6.822
		c0.098-0.098,0.257-0.098,0.355,0l1.5,1.501c0.072,0.07,0.093,0.179,0.054,0.272C2.319,8.689,2.228,8.75,2.125,8.75z"/>
	<path id="Shape_3_" fill="#FFFFFF" d="M4.748,7.715C4.63,7.645,4.59,7.49,4.66,7.373l0.75-1.25c0.039-0.087,0.125-0.145,0.22-0.146
		c0.096-0.004,0.185,0.048,0.229,0.133c0.044,0.084,0.037,0.186-0.019,0.264l-0.75,1.25C5.058,7.68,5.002,7.723,4.938,7.74
		C4.875,7.757,4.805,7.747,4.748,7.715z"/>
	<path id="Shape_4_" fill="#FFFFFF" d="M2.161,7.627l-0.75-1.25C1.357,6.261,1.401,6.123,1.513,6.059
		c0.11-0.065,0.252-0.035,0.327,0.069l0.75,1.25c0.056,0.077,0.063,0.179,0.02,0.264C2.565,7.726,2.476,7.776,2.38,7.773
		C2.286,7.771,2.2,7.714,2.161,7.627z"/>
	<path id="Shape_5_" fill="#FFFFFF" d="M1.875,12.249h0.75c0.139,0,0.251,0.112,0.251,0.251s-0.112,0.249-0.251,0.249h-0.75
		c-0.137,0-0.25-0.11-0.25-0.249S1.738,12.249,1.875,12.249z"/>
	<path id="Shape_6_" fill="#FFFFFF" d="M1.875,13.249h0.75c0.139,0,0.251,0.112,0.251,0.251s-0.112,0.249-0.251,0.249h-0.75
		c-0.137,0-0.25-0.11-0.25-0.249S1.738,13.249,1.875,13.249z"/>
	<path id="Shape_7_" fill="#FFFFFF" d="M14.625,10V7.5c0-0.276-0.224-0.5-0.499-0.5h-3.501c-0.275,0-0.5,0.224-0.5,0.5V10
		c0,0.276,0.225,0.5,0.5,0.5h0.501v5c0,0.275,0.224,0.5,0.5,0.5h1.5c0.275,0,0.499-0.225,0.499-0.5v-5h0.501
		C14.401,10.5,14.625,10.276,14.625,10z M11.626,10.5h1.5v5h-1.5V10.5z M14.126,10h-3.501V7.5h3.501V10z"/>
	<path id="Shape_8_" fill="#FFFFFF" d="M12.125,8.5h-0.499c-0.139,0-0.25-0.112-0.25-0.25s0.111-0.25,0.25-0.25h0.499
		c0.139,0,0.252,0.112,0.252,0.25S12.264,8.5,12.125,8.5z"/>
	<path id="Shape_9_" fill="#FFFFFF" d="M12.125,9.5h-0.499c-0.139,0-0.25-0.113-0.25-0.25c0-0.137,0.111-0.25,0.25-0.25h0.499
		c0.139,0,0.252,0.114,0.252,0.25C12.377,9.387,12.264,9.5,12.125,9.5z"/>
	<path id="Shape_10_" fill="#FFFFFF" d="M13.266,8.458c-0.085,0.06-0.197,0.062-0.283,0.005c-0.088-0.057-0.13-0.163-0.106-0.263
		c0.019-0.111,0.112-0.196,0.226-0.207c0.113-0.01,0.22,0.059,0.257,0.167S13.355,8.386,13.26,8.45L13.266,8.458z"/>
	<path id="Shape_11_" fill="#FFFFFF" d="M13.266,9.458c-0.095,0.063-0.223,0.055-0.307-0.021c-0.085-0.077-0.108-0.203-0.055-0.305
		c0.055-0.1,0.17-0.152,0.281-0.124c0.112,0.028,0.189,0.127,0.19,0.242C13.376,9.333,13.334,9.41,13.266,9.458z"/>
	<path id="Shape_12_" fill="#FFFFFF" d="M9.125,12.249h0.251c0.138,0,0.25,0.112,0.25,0.251s-0.112,0.249-0.25,0.249H9.125
		c-0.138,0-0.249-0.11-0.249-0.249S8.987,12.249,9.125,12.249z"/>
	<path id="Shape_13_" fill="#FFFFFF" d="M6.125,12.249h2c0.139,0,0.251,0.112,0.251,0.251s-0.112,0.249-0.251,0.249h-2
		c-0.139,0-0.25-0.11-0.25-0.249S5.987,12.249,6.125,12.249z"/>
</g>
</svg>
