<?xml version="1.0" encoding="utf-8"?>
<!-- Generator: Adobe Illustrator 14.0.0, SVG Export Plug-In . SVG Version: 6.00 Build 43363)  -->
<!DOCTYPE svg PUBLIC "-//W3C//DTD SVG 1.1//EN" "http://www.w3.org/Graphics/SVG/1.1/DTD/svg11.dtd">
<svg version="1.1" id="Layer_1" xmlns="http://www.w3.org/2000/svg" xmlns:xlink="http://www.w3.org/1999/xlink" x="0px" y="0px"
	 width="15px" height="15px" viewBox="0 0 15 15" enable-background="new 0 0 15 15" xml:space="preserve">
<g>
	<path fill-rule="evenodd" clip-rule="evenodd" fill="#FFFFFF" d="M3.787,1.121c0.949,0,1.899,0,2.849,0
		c0.062-0.163-0.03-0.482,0.091-0.587C7.164,0.47,7.952,0.433,8.354,0.556c0.084,0.112,0.03,0.361,0.046,0.543
		c0.904,0.053,1.906,0.008,2.849,0.021c0.197-0.416,0.535-0.75,1.107-0.609c0.476,0.115,0.756,0.694,0.565,1.176
		c-0.278,0.705-1.485,0.627-1.65-0.137c-0.625,0-1.251,0-1.877,0c0.926,0.598,1.68,1.365,1.968,2.601
		c0.236,0.013,0.538-0.04,0.678,0.068c0.121,0.391,0.087,1.155,0.022,1.583c-0.382,0.135-1.325,0.165-1.673-0.023
		c-0.037-0.454-0.037-1.061,0-1.515c0.09-0.114,0.282-0.125,0.497-0.113c-0.371-1.278-1.194-2.106-2.486-2.464
		C8.348,1.824,8.411,2.076,8.309,2.162C7.83,2.185,7.145,2.226,6.704,2.139C6.604,2.065,6.643,1.853,6.636,1.687
		c-1.24,0.312-2.112,1.189-2.487,2.441c0.148,0.048,0.396-0.004,0.475,0.113C4.711,4.66,4.67,5.324,4.646,5.779
		c-0.341,0.184-1.277,0.164-1.65,0.023c-0.063-0.43-0.098-1.189,0.022-1.583c0.13-0.104,0.408-0.059,0.633-0.068
		C4.003,2.98,4.668,2.123,5.641,1.574C5.067,1.521,4.397,1.566,3.787,1.55C3.671,1.699,3.653,1.847,3.538,1.958
		C2.705,2.761,1.526,1.458,2.317,0.714C2.778,0.281,3.65,0.501,3.787,1.121z"/>
	<path fill-rule="evenodd" clip-rule="evenodd" fill="#FFFFFF" d="M3.493,3.314c-0.035,0.162-0.106,0.287-0.158,0.43
		C2.773,3.771,2.104,3.688,1.616,3.789C1.494,4.347,1.549,5.005,1.549,5.666c0,1.883,0,3.868,0,5.765
		c3.926,0.053,7.951,0.008,11.915,0.022c0.022-2.487,0.067-5.192-0.022-7.641c-0.461-0.15-1.192-0.029-1.764-0.068
		c-0.039-0.156-0.114-0.277-0.158-0.43c0.353,0,0.686,0,1.018,0c0.593,0,1.149-0.086,1.334,0.362
		c0.169,0.412,0.045,1.474,0.045,2.013c0,1.973,0.036,4.388-0.045,6.126c-0.455,0.122-0.986,0.067-1.538,0.067
		c-3.652,0-7.539,0.037-11.146-0.045c-0.12-0.286-0.067-0.63-0.067-0.973c0-1.965,0-4.09,0-6.126c0-0.71-0.084-1.319,0.497-1.425
		C2.256,3.199,2.79,3.399,3.493,3.314z"/>
	<path fill-rule="evenodd" clip-rule="evenodd" fill="#FFFFFF" d="M7.269,3.472c0.053,0.687,0.008,1.471,0.022,2.193
		C7.118,5.816,6.928,5.877,6.84,6.073C6.608,6.582,6.949,7.082,7.337,7.158c0.979,0.195,1.246-1.187,0.407-1.469
		c0-0.725,0-1.447,0-2.171C7.831,3.486,7.85,3.613,7.88,3.654c0.606,0.859,1.227,1.771,1.854,2.69
		c0.102,0.148,0.243,0.343,0.248,0.452C9.994,7.033,9.769,7.37,9.665,7.611C9.546,7.888,9.45,8.14,9.326,8.378
		c-1.206,0-2.412,0-3.617,0c-0.095-0.271-0.216-0.511-0.34-0.791c-0.103-0.231-0.32-0.566-0.316-0.791
		c0.004-0.221,0.36-0.625,0.521-0.859C6.129,5.126,6.793,4.196,7.269,3.472z"/>
	<path fill-rule="evenodd" clip-rule="evenodd" fill="#FFFFFF" d="M7.427,6.119C7.697,6.044,7.828,6.197,7.834,6.39
		C7.846,6.79,7.213,6.835,7.201,6.412C7.196,6.255,7.271,6.162,7.427,6.119z"/>
	<path fill-rule="evenodd" clip-rule="evenodd" fill="#FFFFFF" d="M9.484,8.876c0.063,0.337,0.099,1.01-0.022,1.312
		c-1.185,0.075-2.682,0.075-3.866,0c-0.063-0.097-0.172-1.243,0.022-1.335c0.343-0.16,1.486-0.045,2.013-0.045
		C8.321,8.808,9.003,8.757,9.484,8.876z"/>
	<path fill-rule="evenodd" clip-rule="evenodd" fill="#FFFFFF" d="M14.481,12.38c0.142,1.067-0.578,1.917-1.492,2.103
		c-0.371,0.076-0.87,0.022-1.356,0.022c-2.671,0-5.556,0-8.253,0c-0.475,0-0.956,0.058-1.334-0.022
		c-0.665-0.14-1.272-0.711-1.47-1.379c-0.097-0.328-0.146-0.727,0.136-0.791c0.421-0.097,1.268,0,1.741,0c3.469,0,6.917,0,10.377,0
		C13.387,12.313,13.945,12.258,14.481,12.38z M6.907,13.578c0.31,0.074,0.91,0.074,1.221,0c0.065-0.083,0.05-0.228,0-0.316
		C7.807,13.179,6.649,13.011,6.907,13.578z"/>
</g>
</svg>
