<?xml version="1.0" encoding="utf-8"?>
<!-- Generator: Adobe Illustrator 14.0.0, SVG Export Plug-In . SVG Version: 6.00 Build 43363)  -->
<!DOCTYPE svg PUBLIC "-//W3C//DTD SVG 1.1//EN" "http://www.w3.org/Graphics/SVG/1.1/DTD/svg11.dtd">
<svg version="1.1" id="Layer_1" xmlns="http://www.w3.org/2000/svg" xmlns:xlink="http://www.w3.org/1999/xlink" x="0px" y="0px"
	 width="91.931px" height="98.255px" viewBox="0 0 91.931 98.255" enable-background="new 0 0 91.931 98.255" xml:space="preserve">
<g>
	<path fill="#32AEC6" d="M4.506,80.605c23.693,0.542,49.215,0.297,73.202,0.297c3.623,0,7.107,0.36,10.096-0.445
		c0.535-11.411,0.299-27.276,0.299-40.238c0-3.539,0.814-10.508-0.299-13.214c-1.209-2.945-4.865-2.377-8.759-2.377
		c-2.179,0-4.367,0-6.683,0c0.289,0.999,0.787,1.788,1.039,2.822c3.752,0.256,8.557-0.541,11.582,0.444
		c0.592,16.087,0.299,33.853,0.148,50.187c-26.033-0.1-52.464,0.198-78.249-0.147c0-12.464,0-25.499,0-37.864
		c0-4.333-0.358-8.66,0.445-12.324c3.197-0.664,7.603-0.118,11.285-0.295c0.343-0.945,0.813-1.763,1.039-2.822
		c-4.615,0.555-8.121-0.758-12.324,0c-3.819,0.688-3.266,4.695-3.266,9.354c0,13.368,0,27.337,0,40.239
		C4.062,76.469,3.716,78.73,4.506,80.605z"/>
	<path fill="#32AEC6" d="M91.813,84.169c-3.518-0.803-7.186-0.445-10.84-0.445c-22.723,0-45.369,0-68.152,0
		c-3.108,0-8.667-0.633-11.433,0c-1.845,0.422-1.527,3.041-0.891,5.197c1.293,4.382,5.28,8.139,9.652,9.057
		c2.48,0.521,5.641,0.148,8.758,0.148c17.716,0,36.66,0,54.198,0c3.196,0,6.476,0.346,8.907-0.148
		C88.019,96.756,92.745,91.177,91.813,84.169z M50.091,92.038c-2.04,0.484-5.979,0.484-8.018,0c-1.69-3.727,5.907-2.625,8.018-2.078
		C50.415,90.542,50.518,91.49,50.091,92.038z"/>
	<path fill="#32AEC6" d="M25.226,53.325l-6.657,3.843l-0.702-3.428l-5.469,8.126l9.772-0.673l-2.618-2.32l6.658-3.844l18.995,10.966
		c0.221,0.305,0.577,0.506,0.983,0.506c0.405,0,0.762-0.201,0.982-0.506l18.995-10.966l6.658,3.844l-2.617,2.32l9.771,0.673
		l-5.469-8.126l-0.701,3.428l-6.657-3.843V26.172c0-0.03-0.01-0.058-0.013-0.087c-0.002-0.033-0.007-0.065-0.012-0.099
		c-0.023-0.13-0.059-0.255-0.124-0.367c-0.001,0-0.001-0.001-0.001-0.001s0-0.001,0-0.002c-0.066-0.111-0.156-0.207-0.257-0.289
		c-0.025-0.021-0.05-0.04-0.076-0.059c-0.024-0.018-0.046-0.04-0.071-0.055L47.172,13.999V7.691l3.319,1.106L46.188,0l-4.303,8.8
		l3.319-1.108v6.308L25.78,25.214c-0.027,0.015-0.047,0.037-0.072,0.055c-0.026,0.019-0.05,0.037-0.075,0.058
		c-0.102,0.083-0.192,0.179-0.257,0.29c0,0.001-0.001,0.001-0.001,0.001s0,0.002-0.001,0.002c-0.064,0.112-0.101,0.237-0.123,0.367
		c-0.006,0.033-0.01,0.065-0.013,0.099c-0.002,0.029-0.011,0.057-0.011,0.087V53.325z M27.44,28.09l17.532,10.122v3.713
		L27.44,52.046V28.09z M44.972,44.198v19.105l-16.546-9.553L44.972,44.198z M47.404,63.304V44.198l16.546,9.553L47.404,63.304z
		 M47.404,41.925v-3.713L64.936,28.09v23.956L47.404,41.925z M63.829,26.172l-16.73,9.658c0.044-0.112,0.072-0.229,0.072-0.358
		l0-18.918L63.829,26.172z M45.275,35.83l-16.728-9.658l16.656-9.618l0,18.918C45.204,35.599,45.232,35.718,45.275,35.83z"/>
</g>
</svg>
