<?xml version="1.0" encoding="utf-8"?>
<!-- Generator: Adobe Illustrator 14.0.0, SVG Export Plug-In . SVG Version: 6.00 Build 43363)  -->
<!DOCTYPE svg PUBLIC "-//W3C//DTD SVG 1.1//EN" "http://www.w3.org/Graphics/SVG/1.1/DTD/svg11.dtd">
<svg version="1.1" id="Layer_1" xmlns="http://www.w3.org/2000/svg" xmlns:xlink="http://www.w3.org/1999/xlink" x="0px" y="0px"
	 width="1852.912px" height="1022.125px" viewBox="0 0 1852.912 1022.125" enable-background="new 0 0 1852.912 1022.125"
	 xml:space="preserve">
<g opacity="0.07">
	<path fill="#6ECCDE" d="M359.958,644.736c4.534,0,8.22-3.686,8.22-8.221c0-4.534-3.686-8.22-8.22-8.22
		c-4.534,0-8.221,3.686-8.221,8.22C351.737,641.05,355.424,644.736,359.958,644.736z M417.503,644.736
		c4.534,0,8.22-3.686,8.22-8.221c0-4.534-3.687-8.22-8.22-8.22c-4.534,0-8.221,3.686-8.221,8.22
		C409.283,641.05,412.969,644.736,417.503,644.736z M421.614,648.847h-8.221c-2.261,0-4.304,0.912-5.794,2.388
		c5.177,2.84,8.851,7.965,9.647,14.053h8.478c2.274,0,4.111-1.837,4.111-4.11v-4.111
		C429.834,652.533,426.148,648.847,421.614,648.847z M388.73,648.847c7.952,0,14.386-6.435,14.386-14.386
		c0-7.952-6.434-14.387-14.386-14.387c-7.951,0-14.386,6.435-14.386,14.387C374.344,642.412,380.779,648.847,388.73,648.847z
		 M398.596,652.957h-1.066c-2.672,1.285-5.639,2.056-8.799,2.056c-3.16,0-6.114-0.771-8.799-2.056h-1.065
		c-8.17,0-14.797,6.628-14.797,14.797v3.7c0,3.403,2.762,6.165,6.166,6.165h36.994c3.404,0,6.166-2.762,6.166-6.165v-3.7
		C413.393,659.585,406.765,652.957,398.596,652.957z M369.861,651.235c-1.49-1.476-3.532-2.388-5.792-2.388h-8.221
		c-4.535,0-8.221,3.686-8.221,8.221v4.111c0,2.273,1.838,4.11,4.111,4.11h8.465C361.011,659.2,364.685,654.075,369.861,651.235
		L369.861,651.235z"/>
	<path fill="#6ECCDE" d="M769.357,969.604c0.946,0,1.712-0.766,1.712-1.712v-10.276c0-0.945-0.767-1.711-1.712-1.711H759.08
		c-0.946,0-1.713,0.766-1.713,1.711v1.714h-12.559v-3.425h1.712c0.946,0,1.713-0.769,1.713-1.714v-10.276
		c0-0.945-0.767-1.712-1.713-1.712h-10.275c-0.946,0-1.712,0.767-1.712,1.712v1.713h-31.97v-1.713c0-0.945-0.767-1.712-1.713-1.712
		h-10.276c-0.945,0-1.712,0.767-1.712,1.712v10.276c0,0.945,0.767,1.714,1.712,1.714h1.713v22.834h-1.713
		c-0.945,0-1.712,0.768-1.712,1.714v10.276c0,0.945,0.767,1.711,1.712,1.711h10.276c0.946,0,1.713-0.766,1.713-1.711v-1.714h12.559
		v3.425h-1.713c-0.945,0-1.712,0.769-1.712,1.714v10.274c0,0.946,0.767,1.714,1.712,1.714h10.276c0.946,0,1.712-0.768,1.712-1.714
		v-1.712h31.97v1.712c0,0.946,0.767,1.714,1.713,1.714h10.277c0.946,0,1.712-0.768,1.712-1.714v-10.274
		c0-0.945-0.767-1.714-1.712-1.714h-1.713v-22.836H769.357z M739.1,946.77h4.567v4.567H739.1V946.77z M739.1,983.306h4.567v4.567
		H739.1V983.306z M697.995,987.874h-4.567v-4.567h4.567V987.874z M697.995,951.337h-4.567v-4.567h4.567V951.337z M702.563,982.164
		v-1.711c0-0.946-0.767-1.714-1.713-1.714h-1.712v-22.834h1.712c0.946,0,1.713-0.769,1.713-1.714v-1.712h31.97v1.712
		c0,0.945,0.767,1.714,1.712,1.714h1.712v22.834h-1.712c-0.946,0-1.712,0.768-1.712,1.714v1.711H702.563z M720.831,1001.575h-4.567
		v-4.567h4.567V1001.575z M760.793,992.44h-1.713c-0.946,0-1.713,0.769-1.713,1.714v1.712h-31.97v-1.712
		c0-0.945-0.766-1.714-1.712-1.714h-1.712v-3.425h12.56v1.714c0,0.945,0.767,1.711,1.712,1.711h10.275
		c0.946,0,1.713-0.766,1.713-1.711v-10.276c0-0.946-0.767-1.714-1.713-1.714h-1.712V966.18h12.559v1.712
		c0,0.946,0.767,1.712,1.713,1.712h1.713V992.44z M766.502,1001.575h-4.567v-4.567h4.567V1001.575z M766.502,965.038h-4.567v-4.566
		h4.567V965.038z"/>
	<path fill="#6ECCDE" d="M239.531,484.539c0.946,0,1.712-0.766,1.712-1.712V472.55c0-0.945-0.767-1.711-1.712-1.711h-10.277
		c-0.946,0-1.713,0.766-1.713,1.711v1.714h-12.559v-3.425h1.712c0.946,0,1.713-0.769,1.713-1.714v-10.276
		c0-0.945-0.767-1.712-1.713-1.712h-10.275c-0.946,0-1.712,0.767-1.712,1.712v1.713h-31.97v-1.713c0-0.945-0.767-1.712-1.713-1.712
		h-10.276c-0.945,0-1.712,0.767-1.712,1.712v10.276c0,0.945,0.767,1.714,1.712,1.714h1.713v22.834h-1.713
		c-0.945,0-1.712,0.768-1.712,1.714v10.276c0,0.945,0.767,1.711,1.712,1.711h10.276c0.946,0,1.713-0.766,1.713-1.711v-1.714h12.559
		v3.425h-1.713c-0.945,0-1.712,0.769-1.712,1.714v10.274c0,0.946,0.767,1.714,1.712,1.714h10.276c0.946,0,1.712-0.768,1.712-1.714
		v-1.712h31.97v1.712c0,0.946,0.767,1.714,1.713,1.714h10.277c0.946,0,1.712-0.768,1.712-1.714v-10.274
		c0-0.945-0.767-1.714-1.712-1.714h-1.713v-22.836H239.531z M209.273,461.705h4.567v4.567h-4.567V461.705z M209.273,498.241h4.567
		v4.567h-4.567V498.241z M168.169,502.808h-4.567v-4.567h4.567V502.808z M168.169,466.272h-4.567v-4.567h4.567V466.272z
		 M172.737,497.098v-1.711c0-0.946-0.767-1.714-1.713-1.714h-1.712v-22.834h1.712c0.946,0,1.713-0.769,1.713-1.714v-1.712h31.97
		v1.712c0,0.945,0.767,1.714,1.712,1.714h1.712v22.834h-1.712c-0.946,0-1.712,0.768-1.712,1.714v1.711H172.737z M191.004,516.509
		h-4.567v-4.567h4.567V516.509z M230.967,507.375h-1.713c-0.946,0-1.713,0.769-1.713,1.714v1.712h-31.97v-1.712
		c0-0.945-0.766-1.714-1.712-1.714h-1.712v-3.425h12.56v1.714c0,0.945,0.767,1.711,1.712,1.711h10.275
		c0.946,0,1.713-0.766,1.713-1.711v-10.276c0-0.946-0.767-1.714-1.713-1.714h-1.712v-12.559h12.559v1.712
		c0,0.946,0.767,1.712,1.713,1.712h1.713V507.375z M236.676,516.509h-4.567v-4.567h4.567V516.509z M236.676,479.972h-4.567v-4.566
		h4.567V479.972z"/>
	<path fill="#6ECCDE" d="M1790.163,562.351c0.946,0,1.712-0.766,1.712-1.712v-10.276c0-0.945-0.766-1.711-1.712-1.711h-10.276
		c-0.946,0-1.713,0.766-1.713,1.711v1.714h-12.56v-3.425h1.712c0.947,0,1.713-0.769,1.713-1.714v-10.276
		c0-0.945-0.766-1.712-1.713-1.712h-10.275c-0.945,0-1.712,0.767-1.712,1.712v1.713h-31.97v-1.713c0-0.945-0.768-1.712-1.713-1.712
		h-10.276c-0.945,0-1.712,0.767-1.712,1.712v10.276c0,0.945,0.767,1.714,1.712,1.714h1.713v22.834h-1.713
		c-0.945,0-1.712,0.768-1.712,1.714v10.276c0,0.945,0.767,1.711,1.712,1.711h10.276c0.945,0,1.713-0.766,1.713-1.711v-1.714h12.559
		v3.425h-1.713c-0.945,0-1.712,0.769-1.712,1.714v10.274c0,0.946,0.767,1.714,1.712,1.714h10.276c0.946,0,1.712-0.768,1.712-1.714
		v-1.712h31.971v1.712c0,0.946,0.767,1.714,1.713,1.714h10.276c0.946,0,1.712-0.768,1.712-1.714v-10.274
		c0-0.945-0.766-1.714-1.712-1.714h-1.714v-22.836H1790.163z M1759.906,539.517h4.566v4.567h-4.566V539.517z M1759.906,576.053
		h4.566v4.567h-4.566V576.053z M1718.8,580.621h-4.566v-4.567h4.566V580.621z M1718.8,544.084h-4.566v-4.567h4.566V544.084z
		 M1723.369,574.911V573.2c0-0.946-0.768-1.714-1.713-1.714h-1.713v-22.834h1.713c0.945,0,1.713-0.769,1.713-1.714v-1.712h31.97
		v1.712c0,0.945,0.767,1.714,1.712,1.714h1.713v22.834h-1.713c-0.945,0-1.712,0.768-1.712,1.714v1.711H1723.369z M1741.636,594.322
		h-4.566v-4.567h4.566V594.322z M1781.599,585.187h-1.713c-0.946,0-1.713,0.769-1.713,1.714v1.712h-31.971v-1.712
		c0-0.945-0.766-1.714-1.712-1.714h-1.712v-3.425h12.56v1.714c0,0.945,0.767,1.711,1.712,1.711h10.275
		c0.947,0,1.713-0.766,1.713-1.711V573.2c0-0.946-0.766-1.714-1.713-1.714h-1.712v-12.559h12.56v1.712
		c0,0.946,0.767,1.712,1.713,1.712h1.713V585.187z M1787.308,594.322h-4.567v-4.567h4.567V594.322z M1787.308,557.785h-4.567v-4.566
		h4.567V557.785z"/>
	<path fill="#6ECCDE" d="M159.035,966.5v-2.056c0-1.135-0.92-2.056-2.056-2.056h-35.966v-5.138h9.25c2.269,0,4.109-1.841,4.109-4.11
		v-16.441c0-2.27-1.841-4.11-4.109-4.11h-24.664c-2.27,0-4.11,1.841-4.11,4.11v16.441c0,2.27,1.84,4.11,4.11,4.11h9.249v5.138
		H78.882c-1.136,0-2.056,0.921-2.056,2.056v2.056c0,1.135,0.92,2.055,2.056,2.055H92.24v5.138h-7.192
		c-2.271,0-4.111,1.841-4.111,4.111v16.44c0,2.271,1.84,4.111,4.111,4.111h20.551c2.27,0,4.111-1.841,4.111-4.111v-16.44
		c0-2.271-1.841-4.111-4.111-4.111h-7.193v-5.138h39.048v5.138h-7.192c-2.271,0-4.111,1.841-4.111,4.111v16.44
		c0,2.271,1.84,4.111,4.111,4.111h20.551c2.269,0,4.11-1.841,4.11-4.111v-16.44c0-2.271-1.841-4.111-4.11-4.111h-7.194v-5.138
		h13.359C158.115,968.554,159.035,967.634,159.035,966.5z M109.71,949.031v-8.222h16.441v8.222H109.71z M101.489,990.133H89.158
		v-8.221h12.331V990.133z M146.704,990.133h-12.332v-8.221h12.332V990.133z"/>
	<path fill="#6ECCDE" d="M375.029,868.301v2.284c0,3.783-3.067,6.851-6.852,6.851h-54.805c-3.783,0-6.85-3.067-6.85-6.851v-36.536
		c0-3.784,3.067-6.852,6.85-6.852h2.284v29.686c0,6.297,5.122,11.418,11.417,11.418H375.029z M388.73,856.883v-36.536
		c0-3.783-3.067-6.851-6.852-6.851h-54.805c-3.783,0-6.85,3.067-6.85,6.851v36.536c0,3.784,3.067,6.851,6.85,6.851h54.805
		C385.663,863.734,388.73,860.667,388.73,856.883z M343.058,827.198c0,3.784-3.067,6.852-6.85,6.852
		c-3.784,0-6.851-3.067-6.851-6.852c0-3.783,3.067-6.851,6.851-6.851C339.991,820.347,343.058,823.415,343.058,827.198z
		 M329.358,847.75l7.923-7.923c0.669-0.669,1.752-0.669,2.422,0l5.64,5.639l19.34-19.341c0.669-0.669,1.753-0.669,2.423,0
		l12.49,12.49V854.6h-50.238V847.75z"/>
	<path fill="#6ECCDE" d="M717.976,589.754v2.284c0,3.783-3.067,6.851-6.852,6.851h-54.805c-3.783,0-6.85-3.067-6.85-6.851v-36.536
		c0-3.784,3.067-6.852,6.85-6.852h2.284v29.686c0,6.297,5.122,11.418,11.417,11.418H717.976z M731.677,578.336V541.8
		c0-3.783-3.067-6.851-6.852-6.851h-54.805c-3.783,0-6.85,3.067-6.85,6.851v36.536c0,3.784,3.067,6.851,6.85,6.851h54.805
		C728.61,585.187,731.677,582.121,731.677,578.336z M686.005,548.651c0,3.784-3.067,6.852-6.85,6.852
		c-3.784,0-6.851-3.067-6.851-6.852c0-3.783,3.067-6.851,6.851-6.851C682.938,541.8,686.005,544.868,686.005,548.651z
		 M672.305,569.204l7.923-7.923c0.669-0.669,1.752-0.669,2.422,0l5.64,5.639l19.34-19.341c0.669-0.669,1.753-0.669,2.423,0
		l12.49,12.49v15.984h-50.238V569.204z"/>
	<path fill="#6ECCDE" d="M1207.391,693.697c-0.055,0-0.107,0.015-0.163,0.015l-6.295-10.487c0.814-1.473,1.32-3.142,1.32-4.943
		s-0.504-3.47-1.32-4.942l6.295-10.487c0.056,0.001,0.108,0.016,0.163,0.016c5.676,0,10.276-4.601,10.276-10.276
		c0-5.675-4.601-10.276-10.276-10.276c-3.794,0-7.07,2.08-8.851,5.138h-33.679c-1.779-3.058-5.056-5.138-8.85-5.138
		c-5.677,0-10.276,4.601-10.276,10.276c0,3.794,2.079,7.071,5.139,8.851v33.679c-3.06,1.78-5.139,5.057-5.139,8.852
		c0,5.676,4.6,10.275,10.276,10.275c3.794,0,7.07-2.08,8.85-5.138h33.679c1.78,3.058,5.056,5.138,8.85,5.138
		c5.677,0,10.276-4.6,10.276-10.275C1217.667,698.297,1213.067,693.697,1207.391,693.697z M1161.15,695.123v-33.68
		c1.539-0.895,2.817-2.174,3.712-3.712h33.455l-6.176,10.292c-0.056-0.002-0.106-0.016-0.163-0.016
		c-5.676,0-10.276,4.6-10.276,10.275c0,5.677,4.601,10.276,10.276,10.276c0.057,0,0.107-0.016,0.163-0.016l6.176,10.292h-33.455
		C1163.968,697.295,1162.689,696.016,1161.15,695.123z M1189.409,678.282c0-1.416,1.153-2.568,2.569-2.568s2.568,1.152,2.568,2.568
		c0,1.417-1.152,2.569-2.568,2.569S1189.409,679.699,1189.409,678.282z M1209.96,652.592c0,1.417-1.153,2.569-2.569,2.569
		c-1.415,0-2.568-1.152-2.568-2.569c0-1.416,1.153-2.568,2.568-2.568C1208.807,650.024,1209.96,651.177,1209.96,652.592z
		 M1156.012,650.024c1.416,0,2.568,1.153,2.568,2.568c0,1.417-1.152,2.569-2.568,2.569s-2.569-1.152-2.569-2.569
		C1153.443,651.177,1154.596,650.024,1156.012,650.024z M1153.443,703.973c0-1.417,1.153-2.57,2.569-2.57s2.568,1.152,2.568,2.57
		c0,1.416-1.152,2.568-2.568,2.568S1153.443,705.389,1153.443,703.973z M1207.391,706.542c-1.415,0-2.568-1.152-2.568-2.568
		c0-1.417,1.153-2.57,2.568-2.57c1.416,0,2.569,1.152,2.569,2.57C1209.96,705.389,1208.807,706.542,1207.391,706.542z"/>
	<path fill="#6ECCDE" d="M963.599,633.385l-37.573-25.047c-1.282-0.789-2.65-0.797-3.945,0l-37.571,25.047
		c-0.963,0.642-1.56,1.789-1.56,2.936v25.047c0,1.146,0.597,2.294,1.56,2.937l37.571,25.05c1.283,0.79,2.652,0.797,3.945,0
		l37.573-25.05c0.963-0.643,1.559-1.79,1.559-2.937v-25.047C965.158,635.174,964.562,634.027,963.599,633.385L963.599,633.385z
		 M927.586,617.878l27.662,18.442l-12.34,8.257l-15.322-10.23V617.878z M920.522,617.878v16.47l-15.322,10.23l-12.341-8.257
		L920.522,617.878z M890.015,642.926l8.854,5.918l-8.854,5.917V642.926L890.015,642.926z M920.522,679.81l-27.663-18.442
		l12.341-8.258l15.322,10.23V679.81z M924.054,657.193l-12.478-8.349l12.478-8.349l12.479,8.349L924.054,657.193z M927.586,679.81
		v-16.47l15.322-10.23l12.34,8.258L927.586,679.81z M958.093,654.762l-8.854-5.917l8.854-5.918V654.762L958.093,654.762z"/>
	<path fill="#6ECCDE" d="M1708.108,917.126l-37.573-25.047c-1.281-0.789-2.65-0.797-3.945,0l-37.57,25.047
		c-0.963,0.643-1.561,1.789-1.561,2.937v25.048c0,1.146,0.598,2.293,1.561,2.936l37.57,25.051c1.283,0.789,2.652,0.797,3.945,0
		l37.573-25.051c0.963-0.643,1.559-1.789,1.559-2.936v-25.048C1709.667,918.916,1709.071,917.769,1708.108,917.126L1708.108,917.126
		z M1672.095,901.621l27.662,18.442l-12.34,8.257l-15.322-10.229V901.621z M1665.031,901.621v16.47l-15.322,10.229l-12.341-8.257
		L1665.031,901.621z M1634.524,926.667l8.854,5.919l-8.854,5.917V926.667L1634.524,926.667z M1665.031,963.552l-27.663-18.441
		l12.341-8.258l15.322,10.229V963.552z M1668.563,940.935l-12.478-8.349l12.478-8.349l12.478,8.349L1668.563,940.935z
		 M1672.095,963.552v-16.47l15.322-10.229l12.34,8.258L1672.095,963.552z M1702.602,938.503l-8.854-5.917l8.854-5.919V938.503
		L1702.602,938.503z"/>
	<path fill="#6ECCDE" d="M941.147,814.638h-12.329c-2.271,0-4.111,1.84-4.111,4.11v12.331c0,2.27,1.841,4.11,4.111,4.11h12.329
		c2.271,0,4.111-1.841,4.111-4.11v-12.331C945.258,816.478,943.418,814.638,941.147,814.638z M920.596,821.831H909.71
		c-1.221-3.011-4.163-5.138-7.611-5.138c-4.539,0-8.22,3.681-8.22,8.222c0,4.54,3.681,8.22,8.22,8.22
		c3.448,0,6.39-2.127,7.611-5.138h10.241c-7.112,4.177-12.313,11.217-14.07,19.523h6.346c1.45-5.344,4.723-9.916,9.125-13.044
		c-0.476-1.037-0.755-2.183-0.755-3.396V821.831z M914.431,851.631h-12.332c-2.27,0-4.111,1.841-4.111,4.11v12.331
		c0,2.271,1.841,4.11,4.111,4.11h12.332c2.27,0,4.11-1.84,4.11-4.11v-12.331C918.541,853.472,916.7,851.631,914.431,851.631z
		 M967.866,816.693c-3.447,0-6.391,2.127-7.61,5.138h-10.887v9.249c0,1.214-0.281,2.359-0.755,3.396
		c4.401,3.128,7.673,7.7,9.125,13.044h6.345c-1.757-8.307-6.957-15.347-14.069-19.523h10.241c1.22,3.011,4.163,5.138,7.61,5.138
		c4.539,0,8.221-3.68,8.221-8.22C976.086,820.374,972.405,816.693,967.866,816.693z M967.866,851.631h-12.332
		c-2.27,0-4.109,1.841-4.109,4.11v12.331c0,2.271,1.84,4.11,4.109,4.11h12.332c2.27,0,4.11-1.84,4.11-4.11v-12.331
		C971.976,853.472,970.135,851.631,967.866,851.631z"/>
	<path fill="#6ECCDE" d="M556.843,816.694c0,21.992,17.829,39.819,39.82,39.819s39.819-17.827,39.819-39.819
		s-17.827-39.82-39.819-39.82S556.843,794.702,556.843,816.694z M596.664,846.237V787.15c16.33,0,29.543,13.216,29.543,29.544
		C626.207,833.024,612.99,846.237,596.664,846.237z"/>
	<path fill="#6ECCDE" d="M1513.106,729.77c0,21.992,17.829,39.819,39.82,39.819s39.819-17.827,39.819-39.819
		s-17.828-39.82-39.819-39.82S1513.106,707.778,1513.106,729.77z M1552.926,759.313v-59.087c16.329,0,29.544,13.216,29.544,29.544
		C1582.47,746.1,1569.253,759.313,1552.926,759.313z"/>
	<path fill="#6ECCDE" d="M1379.037,825.156h-65.625c-3.624,0-6.563,2.938-6.563,6.563v48.125c0,3.623,2.938,6.563,6.563,6.563
		h65.625c3.623,0,6.563-2.939,6.563-6.563v-48.125C1385.6,828.094,1382.66,825.156,1379.037,825.156z M1330.912,838.281
		c4.825,0,8.75,3.923,8.75,8.75c0,4.826-3.925,8.751-8.75,8.751c-4.827,0-8.75-3.925-8.75-8.751
		C1322.162,842.204,1326.084,838.281,1330.912,838.281z M1346.224,870.656c0,1.45-1.368,2.625-3.063,2.625h-24.499
		c-1.696,0-3.063-1.175-3.063-2.625v-2.626c0-4.347,4.116-7.874,9.188-7.874h0.685c1.681,0.698,3.514,1.095,5.441,1.095
		c1.926,0,3.773-0.396,5.44-1.095h0.684c5.073,0,9.188,3.527,9.188,7.874V870.656z M1376.849,863.438
		c0,0.601-0.492,1.092-1.094,1.092h-19.688c-0.602,0-1.093-0.491-1.093-1.092v-2.188c0-0.604,0.491-1.095,1.093-1.095h19.688
		c0.602,0,1.094,0.491,1.094,1.095V863.438z M1376.849,854.687c0,0.603-0.492,1.095-1.094,1.095h-19.688
		c-0.602,0-1.093-0.492-1.093-1.095v-2.188c0-0.601,0.491-1.094,1.093-1.094h19.688c0.602,0,1.094,0.493,1.094,1.094V854.687z
		 M1376.849,845.937c0,0.602-0.492,1.094-1.094,1.094h-19.688c-0.602,0-1.093-0.492-1.093-1.094v-2.188
		c0-0.602,0.491-1.093,1.093-1.093h19.688c0.602,0,1.094,0.491,1.094,1.093V845.937z"/>
	<path fill="#6ECCDE" d="M956.866,395.887h-65.625c-3.624,0-6.563,2.938-6.563,6.563v48.125c0,3.623,2.938,6.563,6.563,6.563h65.625
		c3.623,0,6.563-2.939,6.563-6.563V402.45C963.429,398.826,960.489,395.887,956.866,395.887z M908.741,409.012
		c4.825,0,8.75,3.923,8.75,8.75c0,4.826-3.925,8.751-8.75,8.751c-4.827,0-8.75-3.925-8.75-8.751
		C899.991,412.935,903.914,409.012,908.741,409.012z M924.053,441.387c0,1.45-1.368,2.625-3.063,2.625h-24.499
		c-1.696,0-3.063-1.175-3.063-2.625v-2.626c0-4.347,4.116-7.874,9.188-7.874h0.685c1.681,0.698,3.514,1.095,5.441,1.095
		c1.926,0,3.773-0.396,5.44-1.095h0.684c5.073,0,9.188,3.527,9.188,7.874V441.387z M954.678,434.169
		c0,0.601-0.492,1.092-1.094,1.092h-19.688c-0.602,0-1.093-0.491-1.093-1.092v-2.188c0-0.604,0.491-1.095,1.093-1.095h19.688
		c0.602,0,1.094,0.491,1.094,1.095V434.169z M954.678,425.418c0,0.603-0.492,1.095-1.094,1.095h-19.688
		c-0.602,0-1.093-0.492-1.093-1.095v-2.188c0-0.601,0.491-1.094,1.093-1.094h19.688c0.602,0,1.094,0.493,1.094,1.094V425.418z
		 M954.678,416.668c0,0.602-0.492,1.094-1.094,1.094h-19.688c-0.602,0-1.093-0.492-1.093-1.094v-2.188
		c0-0.602,0.491-1.093,1.093-1.093h19.688c0.602,0,1.094,0.491,1.094,1.093V416.668z"/>
	<path fill="#6ECCDE" d="M59.259,726.363c0-21.071,17.072-38.144,38.145-38.144c21.072,0,38.145,17.072,38.145,38.144
		c0,21.073-17.073,38.145-38.145,38.145C76.332,764.507,59.259,747.436,59.259,726.363z M104.172,744.206v-17.843h10.905
		c1.646,0,2.477-1.999,1.308-3.152l-17.673-17.58c-0.723-0.724-1.876-0.724-2.599,0l-17.688,17.58
		c-1.169,1.169-0.339,3.152,1.308,3.152h10.904v17.843c0,1.015,0.831,1.846,1.845,1.846h9.845
		C103.341,746.051,104.172,745.22,104.172,744.206z"/>
	<path fill="#6ECCDE" d="M1347.456,584.107c0-21.072,17.072-38.144,38.146-38.144c21.072,0,38.145,17.072,38.145,38.144
		c0,21.073-17.072,38.145-38.145,38.145C1364.528,622.251,1347.456,605.18,1347.456,584.107z M1392.369,601.95v-17.843h10.904
		c1.646,0,2.477-1.999,1.309-3.152l-17.674-17.58c-0.723-0.723-1.876-0.723-2.599,0l-17.688,17.58
		c-1.17,1.169-0.339,3.152,1.309,3.152h10.904v17.843c0,1.015,0.83,1.846,1.845,1.846h9.845
		C1391.538,603.795,1392.369,602.964,1392.369,601.95z"/>
	<path fill="#6ECCDE" d="M1173.356,976.316c0.802,0.802,2.104,0.802,2.907,0l1.451-1.453c0.804-0.804,0.804-2.104,0-2.907
		l-4.587-4.588l4.586-4.587c0.804-0.803,0.804-2.104,0-2.907l-1.452-1.452c-0.803-0.803-2.104-0.803-2.907,0l-7.494,7.493
		c-0.801,0.803-0.801,2.104,0,2.906L1173.356,976.316z M1185.687,974.863l1.453,1.453c0.804,0.804,2.105,0.804,2.907,0l7.493-7.493
		c0.804-0.804,0.804-2.104,0-2.906l-7.493-7.495c-0.802-0.802-2.104-0.802-2.907,0l-1.453,1.453c-0.802,0.803-0.802,2.104,0,2.906
		l4.588,4.587l-4.588,4.589C1184.885,972.76,1184.885,974.061,1185.687,974.863L1185.687,974.863z M1220.75,996.142h-31.144
		c-0.095,2.544-1.89,4.109-4.205,4.109h-7.811c-2.4,0-4.241-2.244-4.209-4.109h-30.729c-1.131,0-2.054,0.925-2.054,2.054v2.056
		c0,4.522,3.698,8.222,8.22,8.222h65.766c4.521,0,8.222-3.699,8.222-8.222v-2.056
		C1222.805,997.067,1221.879,996.142,1220.75,996.142z M1214.583,948.871c0-3.39-2.774-6.164-6.164-6.164h-53.436
		c-3.391,0-6.166,2.774-6.166,6.164v43.16h65.766V948.871z M1206.363,983.81h-49.324v-32.884h49.324V983.81z"/>
	<path fill="#6ECCDE" d="M607.71,382.874c4.534,0,8.22-3.686,8.22-8.221c0-4.534-3.686-8.22-8.22-8.22
		c-4.534,0-8.221,3.686-8.221,8.22C599.489,379.188,603.176,382.874,607.71,382.874z M665.255,382.874
		c4.534,0,8.22-3.686,8.22-8.221c0-4.534-3.687-8.22-8.22-8.22c-4.534,0-8.221,3.686-8.221,8.22
		C657.035,379.188,660.721,382.874,665.255,382.874z M669.366,386.985h-8.221c-2.261,0-4.304,0.912-5.794,2.388
		c5.177,2.84,8.851,7.965,9.647,14.053h8.478c2.274,0,4.111-1.837,4.111-4.11v-4.111C677.586,390.671,673.9,386.985,669.366,386.985
		z M636.482,386.985c7.952,0,14.386-6.435,14.386-14.386c0-7.952-6.434-14.387-14.386-14.387c-7.951,0-14.386,6.435-14.386,14.387
		C622.096,380.55,628.531,386.985,636.482,386.985z M646.348,391.095h-1.066c-2.672,1.285-5.639,2.056-8.799,2.056
		c-3.16,0-6.114-0.771-8.799-2.056h-1.065c-8.17,0-14.797,6.628-14.797,14.797v3.7c0,3.403,2.762,6.165,6.166,6.165h36.994
		c3.404,0,6.166-2.762,6.166-6.165v-3.7C661.145,397.724,654.517,391.095,646.348,391.095z M617.613,389.373
		c-1.49-1.476-3.532-2.388-5.792-2.388h-8.221c-4.535,0-8.221,3.686-8.221,8.221v4.111c0,2.273,1.838,4.11,4.111,4.11h8.465
		C608.763,397.338,612.437,392.213,617.613,389.373L617.613,389.373z"/>
	<path fill="#6ECCDE" d="M239.531,58.026c0.946,0,1.712-0.766,1.712-1.712V46.038c0-0.945-0.767-1.711-1.712-1.711h-10.277
		c-0.946,0-1.713,0.766-1.713,1.711v1.714h-12.559v-3.425h1.712c0.946,0,1.713-0.769,1.713-1.714V32.337
		c0-0.945-0.767-1.712-1.713-1.712h-10.275c-0.946,0-1.712,0.767-1.712,1.712v1.713h-31.97v-1.713c0-0.945-0.767-1.712-1.713-1.712
		h-10.276c-0.945,0-1.712,0.767-1.712,1.712v10.276c0,0.945,0.767,1.714,1.712,1.714h1.713v22.834h-1.713
		c-0.945,0-1.712,0.768-1.712,1.714v10.276c0,0.945,0.767,1.711,1.712,1.711h10.276c0.946,0,1.713-0.766,1.713-1.711v-1.714h12.559
		v3.425h-1.713c-0.945,0-1.712,0.769-1.712,1.714v10.274c0,0.946,0.767,1.714,1.712,1.714h10.276c0.946,0,1.712-0.768,1.712-1.714
		v-1.712h31.97v1.712c0,0.946,0.767,1.714,1.713,1.714h10.277c0.946,0,1.712-0.768,1.712-1.714V82.576
		c0-0.945-0.767-1.714-1.712-1.714h-1.713V58.026H239.531z M209.273,35.192h4.567v4.567h-4.567V35.192z M209.273,71.729h4.567v4.567
		h-4.567V71.729z M168.169,76.296h-4.567v-4.567h4.567V76.296z M168.169,39.76h-4.567v-4.567h4.567V39.76z M172.737,70.586v-1.711
		c0-0.946-0.767-1.714-1.713-1.714h-1.712V44.327h1.712c0.946,0,1.713-0.769,1.713-1.714v-1.712h31.97v1.712
		c0,0.945,0.767,1.714,1.712,1.714h1.712v22.834h-1.712c-0.946,0-1.712,0.768-1.712,1.714v1.711H172.737z M191.004,89.997h-4.567
		V85.43h4.567V89.997z M230.967,80.862h-1.713c-0.946,0-1.713,0.769-1.713,1.714v1.712h-31.97v-1.712
		c0-0.945-0.766-1.714-1.712-1.714h-1.712v-3.425h12.56v1.714c0,0.945,0.767,1.711,1.712,1.711h10.275
		c0.946,0,1.713-0.766,1.713-1.711V68.875c0-0.946-0.767-1.714-1.713-1.714h-1.712V54.603h12.559v1.712
		c0,0.946,0.767,1.712,1.713,1.712h1.713V80.862z M236.676,89.997h-4.567V85.43h4.567V89.997z M236.676,53.46h-4.567v-4.566h4.567
		V53.46z"/>
	<path fill="#6ECCDE" d="M1768.669,96.17c0.946,0,1.712-0.766,1.712-1.712V84.182c0-0.945-0.766-1.711-1.712-1.711h-10.276
		c-0.946,0-1.713,0.766-1.713,1.711v1.714h-12.56v-3.425h1.712c0.947,0,1.713-0.769,1.713-1.714V70.481
		c0-0.945-0.766-1.712-1.713-1.712h-10.275c-0.945,0-1.712,0.767-1.712,1.712v1.713h-31.97v-1.713c0-0.945-0.768-1.712-1.713-1.712
		h-10.276c-0.945,0-1.712,0.767-1.712,1.712v10.276c0,0.945,0.767,1.714,1.712,1.714h1.713v22.834h-1.713
		c-0.945,0-1.712,0.768-1.712,1.714v10.276c0,0.945,0.767,1.711,1.712,1.711h10.276c0.945,0,1.713-0.766,1.713-1.711v-1.714h12.559
		v3.425h-1.713c-0.945,0-1.712,0.769-1.712,1.714v10.274c0,0.946,0.767,1.714,1.712,1.714h10.276c0.946,0,1.712-0.768,1.712-1.714
		v-1.712h31.971v1.712c0,0.946,0.767,1.714,1.713,1.714h10.276c0.946,0,1.712-0.768,1.712-1.714V120.72
		c0-0.945-0.766-1.714-1.712-1.714h-1.714V96.17H1768.669z M1738.413,73.336h4.566v4.567h-4.566V73.336z M1738.413,109.873h4.566
		v4.567h-4.566V109.873z M1697.307,114.44h-4.566v-4.567h4.566V114.44z M1697.307,77.904h-4.566v-4.567h4.566V77.904z
		 M1701.875,108.73v-1.711c0-0.946-0.768-1.714-1.713-1.714h-1.713V82.471h1.713c0.945,0,1.713-0.769,1.713-1.714v-1.712h31.97
		v1.712c0,0.945,0.767,1.714,1.712,1.714h1.713v22.834h-1.713c-0.945,0-1.712,0.768-1.712,1.714v1.711H1701.875z M1720.143,128.141
		h-4.566v-4.567h4.566V128.141z M1760.106,119.006h-1.713c-0.946,0-1.713,0.769-1.713,1.714v1.712h-31.971v-1.712
		c0-0.945-0.766-1.714-1.712-1.714h-1.712v-3.425h12.56v1.714c0,0.945,0.767,1.711,1.712,1.711h10.275
		c0.947,0,1.713-0.766,1.713-1.711v-10.276c0-0.946-0.766-1.714-1.713-1.714h-1.712V92.747h12.56v1.712
		c0,0.946,0.767,1.712,1.713,1.712h1.713V119.006z M1765.815,128.141h-4.567v-4.567h4.567V128.141z M1765.815,91.604h-4.567v-4.566
		h4.567V91.604z"/>
	<path fill="#6ECCDE" d="M437.898,431.767v2.284c0,3.783-3.067,6.851-6.852,6.851h-54.805c-3.783,0-6.85-3.067-6.85-6.851v-36.536
		c0-3.784,3.067-6.852,6.85-6.852h2.284v29.686c0,6.297,5.122,11.418,11.417,11.418H437.898z M451.599,420.349v-36.536
		c0-3.783-3.067-6.851-6.852-6.851h-54.805c-3.783,0-6.85,3.067-6.85,6.851v36.536c0,3.784,3.067,6.851,6.85,6.851h54.805
		C448.532,427.2,451.599,424.133,451.599,420.349z M405.927,390.664c0,3.784-3.067,6.852-6.85,6.852
		c-3.784,0-6.851-3.067-6.851-6.852c0-3.783,3.067-6.851,6.851-6.851C402.86,383.813,405.927,386.88,405.927,390.664z
		 M392.227,411.216l7.923-7.923c0.669-0.669,1.752-0.669,2.422,0l5.64,5.639l19.34-19.341c0.669-0.669,1.753-0.669,2.423,0
		l12.49,12.49v15.984h-50.238V411.216z"/>
	<path fill="#6ECCDE" d="M693.27,123.574v2.284c0,3.783-3.067,6.851-6.852,6.851h-54.805c-3.783,0-6.85-3.067-6.85-6.851V89.322
		c0-3.784,3.067-6.852,6.85-6.852h2.284v29.686c0,6.297,5.122,11.418,11.417,11.418H693.27z M706.971,112.156V75.62
		c0-3.783-3.067-6.851-6.852-6.851h-54.805c-3.783,0-6.85,3.067-6.85,6.851v36.536c0,3.784,3.067,6.851,6.85,6.851h54.805
		C703.904,119.006,706.971,115.94,706.971,112.156z M661.299,82.47c0,3.784-3.067,6.852-6.85,6.852
		c-3.784,0-6.851-3.067-6.851-6.852c0-3.783,3.067-6.851,6.851-6.851C658.232,75.62,661.299,78.687,661.299,82.47z M647.599,103.023
		l7.923-7.923c0.669-0.669,1.752-0.669,2.422,0l5.64,5.639l19.34-19.341c0.669-0.669,1.753-0.669,2.423,0l12.49,12.49v15.984
		h-50.238V103.023z"/>
	<path fill="#6ECCDE" d="M1207.391,267.185c-0.055,0-0.107,0.015-0.163,0.015l-6.295-10.487c0.814-1.473,1.32-3.142,1.32-4.943
		s-0.504-3.47-1.32-4.942l6.295-10.487c0.056,0.001,0.108,0.016,0.163,0.016c5.676,0,10.276-4.601,10.276-10.276
		c0-5.675-4.601-10.276-10.276-10.276c-3.794,0-7.07,2.08-8.851,5.138h-33.679c-1.779-3.058-5.056-5.138-8.85-5.138
		c-5.677,0-10.276,4.601-10.276,10.276c0,3.794,2.079,7.071,5.139,8.851v33.679c-3.06,1.78-5.139,5.057-5.139,8.852
		c0,5.676,4.6,10.275,10.276,10.275c3.794,0,7.07-2.08,8.85-5.138h33.679c1.78,3.058,5.056,5.138,8.85,5.138
		c5.677,0,10.276-4.6,10.276-10.275C1217.667,271.785,1213.067,267.185,1207.391,267.185z M1161.15,268.61v-33.68
		c1.539-0.895,2.817-2.174,3.712-3.712h33.455l-6.176,10.292c-0.056-0.002-0.106-0.016-0.163-0.016
		c-5.676,0-10.276,4.6-10.276,10.275c0,5.677,4.601,10.276,10.276,10.276c0.057,0,0.107-0.016,0.163-0.016l6.176,10.292h-33.455
		C1163.968,270.783,1162.689,269.504,1161.15,268.61z M1189.409,251.77c0-1.416,1.153-2.568,2.569-2.568s2.568,1.152,2.568,2.568
		c0,1.417-1.152,2.569-2.568,2.569S1189.409,253.187,1189.409,251.77z M1209.96,226.08c0,1.417-1.153,2.569-2.569,2.569
		c-1.415,0-2.568-1.152-2.568-2.569c0-1.416,1.153-2.568,2.568-2.568C1208.807,223.512,1209.96,224.665,1209.96,226.08z
		 M1156.012,223.512c1.416,0,2.568,1.153,2.568,2.568c0,1.417-1.152,2.569-2.568,2.569s-2.569-1.152-2.569-2.569
		C1153.443,224.665,1154.596,223.512,1156.012,223.512z M1153.443,277.461c0-1.417,1.153-2.57,2.569-2.57s2.568,1.152,2.568,2.57
		c0,1.416-1.152,2.568-2.568,2.568S1153.443,278.877,1153.443,277.461z M1207.391,280.029c-1.415,0-2.568-1.152-2.568-2.568
		c0-1.417,1.153-2.57,2.568-2.57c1.416,0,2.569,1.152,2.569,2.57C1209.96,278.877,1208.807,280.029,1207.391,280.029z"/>
	<path fill="#6ECCDE" d="M934.73,206.873l-37.573-25.047c-1.282-0.789-2.65-0.797-3.945,0l-37.571,25.047
		c-0.963,0.642-1.56,1.789-1.56,2.936v25.047c0,1.146,0.597,2.294,1.56,2.937l37.571,25.05c1.283,0.79,2.652,0.797,3.945,0
		l37.573-25.05c0.963-0.643,1.559-1.79,1.559-2.937v-25.047C936.289,208.662,935.693,207.515,934.73,206.873L934.73,206.873z
		 M898.717,191.366l27.662,18.442l-12.34,8.257l-15.322-10.23V191.366z M891.653,191.366v16.47l-15.322,10.23l-12.341-8.257
		L891.653,191.366z M861.146,216.414l8.854,5.918l-8.854,5.917V216.414L861.146,216.414z M891.653,253.298l-27.663-18.442
		l12.341-8.258l15.322,10.23V253.298z M895.185,230.681l-12.478-8.349l12.478-8.349l12.478,8.349L895.185,230.681z M898.717,253.298
		v-16.47l15.322-10.23l12.34,8.258L898.717,253.298z M929.224,228.25l-8.854-5.917l8.854-5.918V228.25L929.224,228.25z"/>
	<path fill="#6ECCDE" d="M421.599,211.951c0,21.992,17.829,39.819,39.82,39.819s39.819-17.827,39.819-39.819
		s-17.827-39.82-39.819-39.82S421.599,189.958,421.599,211.951z M461.419,241.494v-59.087c16.33,0,29.543,13.216,29.543,29.544
		C490.963,228.281,477.746,241.494,461.419,241.494z"/>
	<path fill="#6ECCDE" d="M1513.106,226.188c0,21.992,17.829,39.819,39.82,39.819s39.819-17.827,39.819-39.819
		s-17.828-39.82-39.819-39.82S1513.106,204.196,1513.106,226.188z M1552.926,255.731v-59.087c16.329,0,29.544,13.216,29.544,29.544
		C1582.47,242.518,1569.253,255.731,1552.926,255.731z"/>
	<path fill="#6ECCDE" d="M1562.099,411.19h-65.625c-3.624,0-6.563,2.938-6.563,6.563v48.125c0,3.623,2.938,6.563,6.563,6.563h65.625
		c3.623,0,6.563-2.939,6.563-6.563v-48.125C1568.663,414.129,1565.722,411.19,1562.099,411.19z M1513.974,424.315
		c4.825,0,8.75,3.923,8.75,8.75c0,4.826-3.925,8.751-8.75,8.751c-4.827,0-8.75-3.925-8.75-8.751
		C1505.224,428.238,1509.147,424.315,1513.974,424.315z M1529.287,456.69c0,1.45-1.368,2.625-3.063,2.625h-24.499
		c-1.696,0-3.063-1.175-3.063-2.625v-2.626c0-4.347,4.116-7.874,9.188-7.874h0.685c1.681,0.698,3.514,1.095,5.441,1.095
		c1.926,0,3.773-0.396,5.44-1.095h0.684c5.073,0,9.188,3.527,9.188,7.874V456.69z M1559.912,449.473
		c0,0.601-0.492,1.092-1.094,1.092h-19.688c-0.602,0-1.093-0.491-1.093-1.092v-2.188c0-0.604,0.491-1.095,1.093-1.095h19.688
		c0.602,0,1.094,0.491,1.094,1.095V449.473z M1559.912,440.722c0,0.603-0.492,1.095-1.094,1.095h-19.688
		c-0.602,0-1.093-0.492-1.093-1.095v-2.188c0-0.601,0.491-1.094,1.093-1.094h19.688c0.602,0,1.094,0.493,1.094,1.094V440.722z
		 M1559.912,431.972c0,0.602-0.492,1.094-1.094,1.094h-19.688c-0.602,0-1.093-0.492-1.093-1.094v-2.188
		c0-0.602,0.491-1.093,1.093-1.093h19.688c0.602,0,1.094,0.491,1.094,1.093V431.972z"/>
	<path fill="#6ECCDE" d="M996.242,0h-65.625c-3.624,0-6.563,2.938-6.563,6.563v48.125c0,3.623,2.938,6.563,6.563,6.563h65.625
		c3.623,0,6.563-2.939,6.563-6.563V6.563C1002.805,2.938,999.865,0,996.242,0z M948.117,13.125c4.825,0,8.75,3.923,8.75,8.75
		c0,4.826-3.925,8.751-8.75,8.751c-4.827,0-8.75-3.925-8.75-8.751C939.367,17.048,943.29,13.125,948.117,13.125z M963.429,45.5
		c0,1.45-1.368,2.625-3.063,2.625h-24.499c-1.696,0-3.063-1.175-3.063-2.625v-2.626c0-4.347,4.116-7.874,9.188-7.874h0.685
		c1.681,0.698,3.514,1.095,5.441,1.095c1.926,0,3.773-0.396,5.44-1.095h0.684c5.073,0,9.188,3.527,9.188,7.874V45.5z
		 M994.054,38.282c0,0.601-0.492,1.092-1.094,1.092h-19.688c-0.602,0-1.093-0.491-1.093-1.092v-2.188
		c0-0.604,0.491-1.095,1.093-1.095h19.688c0.602,0,1.094,0.491,1.094,1.095V38.282z M994.054,29.531
		c0,0.603-0.492,1.095-1.094,1.095h-19.688c-0.602,0-1.093-0.492-1.093-1.095v-2.188c0-0.601,0.491-1.094,1.093-1.094h19.688
		c0.602,0,1.094,0.493,1.094,1.094V29.531z M994.054,20.781c0,0.602-0.492,1.094-1.094,1.094h-19.688
		c-0.602,0-1.093-0.492-1.093-1.094v-2.188c0-0.602,0.491-1.093,1.093-1.093h19.688c0.602,0,1.094,0.491,1.094,1.093V20.781z"/>
	<path fill="#6ECCDE" d="M61.104,290.45c0-21.072,17.072-38.144,38.145-38.144c21.072,0,38.145,17.072,38.145,38.144
		c0,21.073-17.073,38.145-38.145,38.145C78.177,328.595,61.104,311.523,61.104,290.45z M106.017,308.293V290.45h10.905
		c1.646,0,2.477-1.999,1.308-3.152l-17.673-17.58c-0.723-0.723-1.876-0.723-2.599,0l-17.688,17.58
		c-1.169,1.169-0.339,3.152,1.308,3.152h10.904v17.843c0,1.015,0.831,1.846,1.845,1.846h9.845
		C105.187,310.139,106.017,309.308,106.017,308.293z"/>
	<path fill="#6ECCDE" d="M1325.475,80.814c0-21.072,17.072-38.144,38.146-38.144c21.072,0,38.145,17.072,38.145,38.144
		c0,21.073-17.072,38.145-38.145,38.145C1342.547,118.959,1325.475,101.888,1325.475,80.814z M1370.388,98.657V80.814h10.904
		c1.646,0,2.477-1.999,1.309-3.152l-17.674-17.58c-0.723-0.723-1.876-0.723-2.599,0l-17.688,17.58
		c-1.17,1.169-0.339,3.152,1.309,3.152h10.904v17.843c0,1.015,0.83,1.846,1.845,1.846h9.845
		C1369.557,100.503,1370.388,99.672,1370.388,98.657z"/>
	<path fill="#6ECCDE" d="M1173.356,442.542c0.802,0.802,2.104,0.802,2.907,0l1.451-1.453c0.804-0.804,0.804-2.104,0-2.907
		l-4.587-4.588l4.586-4.587c0.804-0.803,0.804-2.104,0-2.907l-1.452-1.452c-0.803-0.803-2.104-0.803-2.907,0l-7.494,7.493
		c-0.801,0.803-0.801,2.104,0,2.906L1173.356,442.542z M1185.687,441.088l1.453,1.453c0.804,0.804,2.105,0.804,2.907,0l7.493-7.493
		c0.804-0.804,0.804-2.104,0-2.906l-7.493-7.495c-0.802-0.802-2.104-0.802-2.907,0l-1.453,1.453c-0.802,0.803-0.802,2.104,0,2.906
		l4.588,4.587l-4.588,4.589C1184.885,438.986,1184.885,440.287,1185.687,441.088L1185.687,441.088z M1220.75,462.368h-31.144
		c-0.095,2.544-1.89,4.109-4.205,4.109h-7.811c-2.4,0-4.241-2.244-4.209-4.109h-30.729c-1.131,0-2.054,0.925-2.054,2.054v2.056
		c0,4.522,3.698,8.222,8.22,8.222h65.766c4.521,0,8.222-3.699,8.222-8.222v-2.056
		C1222.805,463.292,1221.879,462.368,1220.75,462.368z M1214.583,415.096c0-3.39-2.774-6.164-6.164-6.164h-53.436
		c-3.391,0-6.166,2.774-6.166,6.164v43.16h65.766V415.096z M1206.363,450.036h-49.324v-32.884h49.324V450.036z"/>
</g>
</svg>
