<?xml version="1.0" encoding="utf-8"?>
<!-- Generator: Adobe Illustrator 14.0.0, SVG Export Plug-In . SVG Version: 6.00 Build 43363)  -->
<!DOCTYPE svg PUBLIC "-//W3C//DTD SVG 1.1//EN" "http://www.w3.org/Graphics/SVG/1.1/DTD/svg11.dtd">
<svg version="1.1" id="Layer_1" xmlns="http://www.w3.org/2000/svg" xmlns:xlink="http://www.w3.org/1999/xlink" x="0px" y="0px"
	 width="111.447px" height="113.386px" viewBox="0 0 111.447 113.386" enable-background="new 0 0 111.447 113.386"
	 xml:space="preserve">
<g>
	<g>
		<circle fill="#FFFFFF" cx="55.724" cy="58.846" r="54.54"/>
	</g>
	<g>
		<circle fill="#1D76BB" cx="55.724" cy="58.846" r="52.954"/>
	</g>
	<g>
		<defs>
			<circle id="SVGID_1_" cx="55.724" cy="58.846" r="52.954"/>
		</defs>
		<clipPath id="SVGID_2_">
			<use xlink:href="#SVGID_1_"  overflow="visible"/>
		</clipPath>
		<path opacity="0.5" clip-path="url(#SVGID_2_)" fill="#0C5F92" d="M55.739,77.317c-19.033,0-37.026-1.338-53.016-3.717h-6.756
			v10.647H114.57V73.6h-5.814C92.765,75.979,74.771,77.317,55.739,77.317z"/>
		<path clip-path="url(#SVGID_2_)" fill="#0C5F92" d="M55.849,100.119c23.105,0,44.949,3.736,64.359,10.378h8.202V80.769H-15.568
			v29.728h7.058C10.901,103.855,32.745,100.119,55.849,100.119z"/>
	</g>
	<g>
		<path fill="#0C5F92" d="M48.163,44.386c0,4.168,3.392,7.561,7.561,7.561c4.167,0,7.559-3.392,7.559-7.561V6.61
			c0-0.058,0.014-0.112,0.018-0.169c-2.476-0.355-5.004-0.549-7.577-0.549c-2.574,0-5.103,0.194-7.578,0.549
			c0.003,0.057,0.017,0.111,0.017,0.169V44.386z"/>
		<path fill="#0C5F92" d="M37.445,40.896L37.445,40.896l0,15.178c0,4.169,3.391,7.56,7.56,7.56c3.559,0,6.543-2.476,7.342-5.793
			c-6.025-1.511-10.5-6.97-10.5-13.455V7.742C31.6,10.518,22.592,16.291,15.811,24.066c1.367-0.347,2.798-0.534,4.271-0.534
			C29.657,23.532,37.445,31.322,37.445,40.896z"/>
		<path fill="#0C5F92" d="M59.097,57.841c0.8,3.317,3.785,5.793,7.343,5.793c4.169,0,7.56-3.391,7.56-7.56V40.896H74
			c0-9.574,7.789-17.364,17.363-17.364c1.474,0,2.905,0.187,4.272,0.534c-6.781-7.776-15.791-13.549-26.039-16.325v36.645
			C69.597,50.872,65.123,56.331,59.097,57.841z"/>
	</g>
	<g opacity="0.5">
		<g>
			<circle fill="#1D76BB" cx="91.365" cy="40.896" r="7.461"/>
		</g>
		<g>
			<circle fill="#1D76BB" cx="20.083" cy="40.896" r="7.461"/>
		</g>
	</g>
	<g>
		<g>
			<g>
				<path fill="#0C5F92" d="M18.808,60.316c4.344,0,8.334-1.514,11.445-4.027v1.815c0,7.737,6.447,14.035,14.37,14.035
					c4.466,0,8.464-2.001,11.102-5.133c2.637,3.132,6.634,5.133,11.1,5.133c7.924,0,14.37-6.298,14.37-14.035v-1.815
					c3.112,2.514,7.101,4.027,11.446,4.027c6.618,0,12.408-3.512,15.53-8.728c-1.332-9.713-5.294-18.582-11.149-25.873
					c-1.403-0.344-2.871-0.529-4.381-0.529c-9.918,0-17.984,7.878-17.984,17.562h-0.001v15.355c0,4.218-3.513,7.647-7.831,7.647
					c-3.686,0-6.777-2.504-7.605-5.858c6.241-1.53,10.875-7.051,10.875-13.614V8.066c0-0.064-0.016-0.125-0.02-0.189
					c-1.99-0.559-4.023-1.016-6.102-1.341c-0.258,0.457-0.418,0.973-0.418,1.531v38.213c0,4.218-3.514,7.648-7.831,7.648
					c-4.317,0-7.831-3.43-7.831-7.648V8.066c0-0.558-0.16-1.074-0.417-1.531c-2.078,0.326-4.112,0.782-6.103,1.342
					c-0.004,0.064-0.02,0.125-0.02,0.189v38.213c0,6.563,4.635,12.083,10.876,13.614c-0.828,3.354-3.919,5.858-7.606,5.858
					c-4.317,0-7.829-3.43-7.829-7.647V42.749h-0.001c0-9.683-8.067-17.562-17.984-17.562c-1.511,0-2.978,0.185-4.38,0.529
					c-5.857,7.291-9.818,16.16-11.15,25.873C6.399,56.804,12.189,60.316,18.808,60.316z M92.64,31.572
					c6.31,0,11.443,5.015,11.443,11.176c0,6.166-5.134,11.179-11.443,11.179c-6.313,0-11.446-5.014-11.446-11.179
					C81.194,36.587,86.328,31.572,92.64,31.572z M18.808,31.572c6.311,0,11.445,5.015,11.445,11.176
					c0,6.166-5.134,11.179-11.445,11.179c-6.311,0-11.445-5.014-11.445-11.179C7.363,36.587,12.497,31.572,18.808,31.572z"/>
			</g>
		</g>
	</g>
	<g>
		<path fill="#29ABE2" d="M91.364,23.532c-9.574,0-17.362,7.79-17.362,17.364H74v15.178c0,4.169-3.392,7.56-7.56,7.56
			c-3.559,0-6.543-2.476-7.343-5.793c6.024-1.511,10.499-6.97,10.499-13.455V6.61c0-1.743-1.414-3.156-3.156-3.156
			c-1.744,0-3.157,1.413-3.157,3.156v37.776c0,4.168-3.392,7.561-7.56,7.561c-4.169,0-7.561-3.392-7.561-7.561V6.61
			c0-1.743-1.415-3.156-3.157-3.156c-1.743,0-3.158,1.413-3.158,3.156v37.776c0,6.485,4.475,11.944,10.5,13.455
			c-0.799,3.317-3.783,5.793-7.342,5.793c-4.169,0-7.56-3.391-7.56-7.56V40.896h0c0-9.574-7.789-17.364-17.363-17.364
			S2.719,31.322,2.719,40.896s7.789,17.363,17.363,17.363c4.195,0,8.046-1.495,11.049-3.98v1.795c0,7.65,6.224,13.875,13.875,13.875
			c4.311,0,8.171-1.979,10.717-5.072c2.546,3.094,6.406,5.072,10.717,5.072c7.65,0,13.874-6.225,13.874-13.875v-1.795
			c3.003,2.485,6.854,3.98,11.049,3.98c9.575,0,17.363-7.789,17.363-17.363S100.939,23.532,91.364,23.532z M20.083,51.947
			c-6.093,0-11.05-4.959-11.05-11.051c0-6.093,4.957-11.048,11.05-11.048c6.092,0,11.049,4.955,11.049,11.048
			C31.132,46.988,26.175,51.947,20.083,51.947z M91.364,51.947c-6.092,0-11.049-4.959-11.049-11.051
			c0-6.093,4.957-11.048,11.049-11.048c6.093,0,11.05,4.955,11.05,11.048C102.414,46.988,97.457,51.947,91.364,51.947z"/>
		<path fill="#FFFFFF" d="M66.441,3.454c1.742,0,3.156,1.413,3.156,3.156v37.776c0,6.485-4.475,11.944-10.499,13.455
			c0.8,3.317,3.784,5.793,7.343,5.793c4.168,0,7.56-3.391,7.56-7.56V40.896h0.001c0-9.574,7.788-17.364,17.362-17.364
			c9.575,0,17.363,7.79,17.363,17.364s-7.788,17.363-17.363,17.363c-4.194,0-8.046-1.495-11.049-3.98v1.795
			c0,7.65-6.224,13.875-13.874,13.875c-4.312,0-8.171-1.979-10.717-5.072c-2.546,3.094-6.406,5.072-10.717,5.072
			c-7.65,0-13.875-6.225-13.875-13.875v-1.795c-3.003,2.485-6.854,3.98-11.049,3.98c-9.574,0-17.363-7.789-17.363-17.363
			s7.789-17.364,17.363-17.364s17.363,7.79,17.363,17.364h0v15.178c0,4.169,3.391,7.56,7.56,7.56c3.559,0,6.543-2.476,7.342-5.793
			c-6.025-1.511-10.5-6.97-10.5-13.455V6.61c0-1.743,1.415-3.156,3.158-3.156c1.742,0,3.157,1.413,3.157,3.156v37.776
			c0,4.168,3.392,7.561,7.561,7.561c4.168,0,7.56-3.392,7.56-7.561V6.61C63.284,4.867,64.697,3.454,66.441,3.454 M91.364,51.947
			c6.093,0,11.05-4.959,11.05-11.051c0-6.093-4.957-11.048-11.05-11.048c-6.092,0-11.049,4.955-11.049,11.048
			C80.315,46.988,85.272,51.947,91.364,51.947 M20.083,51.947c6.092,0,11.049-4.959,11.049-11.051
			c0-6.093-4.957-11.048-11.049-11.048c-6.093,0-11.05,4.955-11.05,11.048C9.033,46.988,13.99,51.947,20.083,51.947 M66.441,2.661
			c-2.178,0-3.95,1.771-3.95,3.949v37.776c0,3.731-3.036,6.768-6.767,6.768c-3.731,0-6.768-3.036-6.768-6.768V6.61
			c0-2.178-1.772-3.949-3.95-3.949c-2.178,0-3.951,1.771-3.951,3.949v37.776c0,6.459,4.196,12.102,10.302,14
			c-0.961,2.657-3.475,4.455-6.352,4.455c-3.731,0-6.767-3.036-6.767-6.767V40.896c0-10.012-8.146-18.157-18.157-18.157
			S1.926,30.884,1.926,40.896c0,10.011,8.145,18.156,18.156,18.156c3.664,0,7.25-1.121,10.256-3.183v0.205
			c0,8.087,6.58,14.667,14.667,14.667c4.086,0,7.942-1.688,10.717-4.663c2.776,2.975,6.631,4.663,10.717,4.663
			c8.088,0,14.667-6.58,14.667-14.667V55.87c3.007,2.062,6.592,3.183,10.256,3.183c10.012,0,18.156-8.145,18.156-18.156
			c0-10.012-8.145-18.157-18.156-18.157c-10.011,0-18.155,8.145-18.155,18.157l-0.001,15.178c0,3.731-3.035,6.767-6.767,6.767
			c-2.877,0-5.39-1.797-6.353-4.455c6.106-1.898,10.302-7.542,10.302-14V6.61C70.39,4.433,68.619,2.661,66.441,2.661L66.441,2.661z
			 M91.364,51.154c-5.655,0-10.256-4.602-10.256-10.258c0-5.655,4.601-10.255,10.256-10.255s10.257,4.601,10.257,10.255
			C101.621,46.552,97.019,51.154,91.364,51.154L91.364,51.154z M20.083,51.154c-5.656,0-10.257-4.602-10.257-10.258
			c0-5.655,4.601-10.255,10.257-10.255c5.655,0,10.256,4.601,10.256,10.255C30.339,46.552,25.738,51.154,20.083,51.154
			L20.083,51.154z"/>
	</g>
	<g>
		<circle fill="#0C5F92" cx="91.365" cy="23.186" r="5.262"/>
	</g>
	<g>
		<circle fill="#0C5F92" cx="20.083" cy="23.186" r="5.262"/>
	</g>
	<circle fill="#FFCB0B" cx="55.724" cy="5.26" r="5.262"/>
	<g>
		<circle fill="#FFCB0B" cx="91.365" cy="22.096" r="5.262"/>
	</g>
	<g>
		<circle fill="#FFCB0B" cx="20.083" cy="22.096" r="5.262"/>
	</g>
	<g>
		<g>
			<g>
				<path fill="#0C5F92" d="M39.559,32.941c-0.521,0-0.942,0.425-0.942,0.948v14.896c0,0.523,0.422,0.947,0.942,0.947
					c0.521,0,0.944-0.424,0.944-0.947V33.89C40.502,33.366,40.08,32.941,39.559,32.941z"/>
			</g>
			<g>
				<path fill="#0C5F92" d="M26.419,32.941c-0.521,0-0.941,0.425-0.941,0.948v14.896c0,0.523,0.42,0.947,0.941,0.947
					c0.521,0,0.943-0.424,0.943-0.947V33.89C27.362,33.366,26.939,32.941,26.419,32.941z"/>
			</g>
			<g>
				<path fill="#0C5F92" d="M22.826,34.295c-3.865,0-7.008,3.16-7.008,7.042c0,0.483,0.049,0.954,0.143,1.409
					c-0.025,1.99-1.644,3.605-3.631,3.605c-0.521,0-0.942,0.423-0.942,0.945c0,0.523,0.421,0.948,0.942,0.948
					c2.058,0,3.853-1.139,4.801-2.82c1.273,1.787,3.349,2.955,5.696,2.955c0.521,0,0.944-0.426,0.944-0.95V35.246
					C23.77,34.72,23.348,34.295,22.826,34.295z"/>
			</g>
			<g>
				<path fill="#0C5F92" d="M52.389,30.538c-5.926,0-10.748,4.845-10.748,10.8c0,5.953,4.822,10.798,10.748,10.798
					c0.52,0,0.942-0.426,0.942-0.949V31.486C53.331,30.964,52.909,30.538,52.389,30.538z"/>
			</g>
			<g>
				<path fill="#0C5F92" d="M30.015,34.295c-0.522,0-0.944,0.425-0.944,0.951v12.184c0,0.524,0.422,0.95,0.944,0.95
					c3.863,0,7.007-3.159,7.007-7.042C37.021,37.455,33.877,34.295,30.015,34.295z"/>
			</g>
			<g>
				<path fill="#0C5F92" d="M71.887,32.941c-0.521,0-0.943,0.425-0.943,0.948v14.896c0,0.523,0.423,0.947,0.943,0.947
					s0.942-0.424,0.942-0.947V33.89C72.83,33.366,72.408,32.941,71.887,32.941z"/>
			</g>
			<g>
				<path fill="#0C5F92" d="M85.028,32.941c-0.522,0-0.944,0.425-0.944,0.948v14.896c0,0.523,0.422,0.947,0.944,0.947
					c0.521,0,0.941-0.424,0.941-0.947V33.89C85.969,33.366,85.548,32.941,85.028,32.941z"/>
			</g>
			<g>
				<path fill="#0C5F92" d="M99.117,46.352c-1.988,0-3.605-1.615-3.629-3.604c0.092-0.455,0.141-0.927,0.141-1.41
					c0-3.882-3.144-7.042-7.008-7.042c-0.521,0-0.943,0.425-0.943,0.951v12.184c0,0.524,0.422,0.95,0.943,0.95
					c2.347,0,4.422-1.168,5.695-2.955c0.948,1.681,2.742,2.82,4.801,2.82c0.521,0,0.941-0.425,0.941-0.948
					C100.058,46.775,99.638,46.352,99.117,46.352z"/>
			</g>
			<g>
				<path fill="#0C5F92" d="M59.057,30.538c-0.522,0-0.943,0.426-0.943,0.948v19.702c0,0.523,0.421,0.949,0.943,0.949
					c5.926,0,10.746-4.845,10.746-10.798C69.803,35.383,64.983,30.538,59.057,30.538z"/>
			</g>
			<g>
				<path fill="#0C5F92" d="M81.432,34.295c-3.864,0-7.008,3.16-7.008,7.042c0,3.883,3.144,7.042,7.008,7.042
					c0.521,0,0.942-0.426,0.942-0.95V35.246C82.375,34.72,81.954,34.295,81.432,34.295z"/>
			</g>
			<g>
				<path fill="#0C5F92" d="M55.723,28.063c-0.521,0-0.943,0.425-0.943,0.95v25.36c0,0.527,0.422,0.951,0.943,0.951
					c0.52,0,0.943-0.424,0.943-0.951v-25.36C56.666,28.487,56.243,28.063,55.723,28.063z"/>
			</g>
		</g>
		<g>
			<g>
				<g>
					<path fill="#FFCB0B" d="M39.673,32.6c-0.518,0-0.936,0.419-0.936,0.937v14.722c0,0.518,0.418,0.936,0.936,0.936
						c0.517,0,0.937-0.418,0.937-0.936V33.536C40.609,33.019,40.19,32.6,39.673,32.6z"/>
				</g>
				<g>
					<path fill="#FFCB0B" d="M26.625,32.6c-0.518,0-0.936,0.419-0.936,0.937v14.722c0,0.518,0.417,0.936,0.936,0.936
						c0.516,0,0.936-0.418,0.936-0.936V33.536C27.562,33.019,27.141,32.6,26.625,32.6z"/>
				</g>
				<g>
					<path fill="#FFCB0B" d="M23.057,33.938c-3.836,0-6.959,3.122-6.959,6.958c0,0.479,0.049,0.943,0.142,1.393
						c-0.024,1.966-1.632,3.563-3.605,3.563c-0.518,0-0.935,0.419-0.935,0.935c0,0.517,0.417,0.937,0.935,0.937
						c2.043,0,3.826-1.125,4.767-2.786c1.265,1.766,3.325,2.919,5.655,2.919c0.518,0,0.938-0.42,0.938-0.938V34.876
						C23.995,34.359,23.575,33.938,23.057,33.938z"/>
				</g>
				<g>
					<path fill="#FFCB0B" d="M52.413,30.225c-5.885,0-10.672,4.789-10.672,10.674c0,5.883,4.787,10.67,10.672,10.67
						c0.517,0,0.936-0.42,0.936-0.937v-19.47C53.349,30.646,52.93,30.225,52.413,30.225z"/>
				</g>
				<g>
					<path fill="#FFCB0B" d="M30.196,33.938c-0.518,0-0.938,0.42-0.938,0.938v12.042c0,0.518,0.42,0.938,0.938,0.938
						c3.836,0,6.957-3.122,6.957-6.959C37.153,37.061,34.032,33.938,30.196,33.938z"/>
				</g>
				<g>
					<path fill="#FFCB0B" d="M71.773,32.6c-0.517,0-0.936,0.419-0.936,0.937v14.722c0,0.518,0.419,0.936,0.936,0.936
						c0.518,0,0.937-0.418,0.937-0.936V33.536C72.709,33.019,72.291,32.6,71.773,32.6z"/>
				</g>
				<g>
					<path fill="#FFCB0B" d="M84.822,32.6c-0.519,0-0.938,0.419-0.938,0.937v14.722c0,0.518,0.42,0.936,0.938,0.936
						c0.516,0,0.935-0.418,0.935-0.936V33.536C85.756,33.019,85.337,32.6,84.822,32.6z"/>
				</g>
				<g>
					<path fill="#FFCB0B" d="M98.811,45.852c-1.974,0-3.58-1.596-3.604-3.562c0.091-0.45,0.14-0.915,0.14-1.394
						c0-3.836-3.121-6.958-6.958-6.958c-0.517,0-0.937,0.42-0.937,0.938v12.042c0,0.518,0.42,0.938,0.937,0.938
						c2.33,0,4.391-1.153,5.655-2.919c0.941,1.661,2.723,2.786,4.767,2.786c0.518,0,0.936-0.42,0.936-0.937
						C99.747,46.271,99.329,45.852,98.811,45.852z"/>
				</g>
				<g>
					<path fill="#FFCB0B" d="M59.035,30.225c-0.519,0-0.938,0.421-0.938,0.937v19.47c0,0.517,0.419,0.937,0.938,0.937
						c5.883,0,10.67-4.787,10.67-10.67C69.705,35.013,64.917,30.225,59.035,30.225z"/>
				</g>
				<g>
					<path fill="#FFCB0B" d="M81.251,33.938c-3.837,0-6.959,3.122-6.959,6.958c0,3.837,3.122,6.959,6.959,6.959
						c0.518,0,0.936-0.42,0.936-0.938V34.876C82.187,34.359,81.769,33.938,81.251,33.938z"/>
				</g>
				<g>
					<path fill="#FFCB0B" d="M55.723,27.779c-0.517,0-0.937,0.42-0.937,0.938v25.064c0,0.519,0.42,0.938,0.937,0.938
						c0.516,0,0.936-0.42,0.936-0.938V28.716C56.659,28.199,56.239,27.779,55.723,27.779z"/>
				</g>
			</g>
		</g>
		<g>
			<g>
				<g>
					<g>
						<g>
							<path fill="#FFCB0B" d="M82.219,53.438c0,1.232,0.998,2.229,2.23,2.23v-4.46C83.217,51.207,82.219,52.205,82.219,53.438z"/>
						</g>
						<g>
							<path fill="#FFCB0B" d="M85.193,51.207h-0.002v4.46h0.002c1.23,0,2.228-0.998,2.228-2.23
								C87.42,52.205,86.423,51.207,85.193,51.207z"/>
						</g>
					</g>
					<g>
						<g>
							<path fill="#FFCB0B" d="M53.122,24.327c0,1.231,0.999,2.23,2.231,2.231v-4.461C54.12,22.097,53.122,23.095,53.122,24.327z"/>
						</g>
						<g>
							<path fill="#FFCB0B" d="M56.094,22.097h-0.001v4.461h0.001c1.232,0,2.229-1,2.229-2.231
								C58.324,23.095,57.326,22.097,56.094,22.097z"/>
						</g>
					</g>
					<g>
						<g>
							<path fill="#FFCB0B" d="M24.024,53.438c0,1.232,1,2.229,2.231,2.23v-4.46C25.023,51.207,24.024,52.205,24.024,53.438z"/>
						</g>
						<g>
							<path fill="#FFCB0B" d="M26.997,51.207L26.997,51.207v4.46l0,0c1.231,0,2.229-0.998,2.229-2.23
								C29.226,52.205,28.228,51.207,26.997,51.207z"/>
						</g>
					</g>
				</g>
			</g>
		</g>
		<g>
			<g>
				<path fill="#0C5F92" d="M22.12,45.895c-2.356-0.438-4.148-2.515-4.148-4.999s1.792-4.557,4.148-4.996V45.895z"/>
			</g>
			<g>
				<path fill="#0C5F92" d="M51.477,32.149c-4.414,0.469-7.863,4.214-7.863,8.749c0,4.535,3.449,8.28,7.863,8.748V32.149
					L51.477,32.149z"/>
			</g>
			<g>
				<path fill="#0C5F92" d="M31.13,35.9v9.995c2.361-0.438,4.15-2.515,4.15-4.999S33.491,36.339,31.13,35.9L31.13,35.9z"/>
			</g>
			<g>
				<path fill="#0C5F92" d="M89.325,45.895V35.9c2.358,0.439,4.149,2.512,4.149,4.996S91.683,45.457,89.325,45.895z"/>
			</g>
			<g>
				<path fill="#0C5F92" d="M59.97,32.149v17.497c4.412-0.468,7.861-4.213,7.861-8.748C67.832,36.363,64.382,32.619,59.97,32.149
					L59.97,32.149z"/>
			</g>
			<g>
				<path fill="#0C5F92" d="M80.315,35.9c-2.359,0.439-4.149,2.512-4.149,4.996s1.79,4.561,4.149,4.999V35.9L80.315,35.9z"/>
			</g>
		</g>
	</g>
	<path fill="#1D76BB" d="M111.447,89.317c0-5.187-4.082-9.407-9.206-9.655v-0.024H9.207v0.024C4.083,79.91,0,84.13,0,89.317
		s4.083,9.407,9.207,9.655v0.024h93.034v-0.024C107.365,98.724,111.447,94.503,111.447,89.317z"/>
	<path fill="#FFCB0B" d="M104.151,80.345H7.295c-0.391,0-0.708-0.317-0.708-0.708s0.317-0.708,0.708-0.708h96.855
		c0.391,0,0.708,0.317,0.708,0.708S104.542,80.345,104.151,80.345L104.151,80.345z"/>
	<path fill="#FFCB0B" d="M104.151,99.705H7.295c-0.391,0-0.708-0.317-0.708-0.708s0.317-0.708,0.708-0.708h96.855
		c0.391,0,0.708,0.317,0.708,0.708S104.542,99.705,104.151,99.705L104.151,99.705z"/>
	<g>
		<path fill="#FFCB0B" d="M24.104,96.398h-3.112l-1.234-3.222h-5.669l-1.16,3.222H9.889l5.52-14.162h3.027L24.104,96.398z
			 M18.834,90.792l-1.944-5.26l-1.921,5.26H18.834z"/>
		<path fill="#FFCB0B" d="M24.663,96.398V82.236h6.023c1.252,0,2.169,0.072,2.749,0.216c0.98,0.242,1.71,0.751,2.19,1.523
			c0.415,0.651,0.623,1.396,0.623,2.233c0,2.262-1.246,3.575-3.736,3.941c0.708,0.407,1.313,0.912,1.814,1.514
			c0.301,0.357,0.748,1.016,1.342,1.975l1.729,2.76h-3.414l-2.073-3.081c-0.623-0.923-0.963-1.426-1.02-1.504
			c-0.488-0.637-0.938-1.026-1.354-1.17c-0.3-0.108-0.78-0.161-1.438-0.161h-0.58v5.916H24.663z M27.519,88.226h2.116
			c1.052,0,1.656-0.01,1.813-0.031c0.766-0.086,1.289-0.333,1.568-0.741c0.193-0.286,0.29-0.64,0.29-1.063
			c0-0.987-0.487-1.56-1.46-1.718c-0.207-0.028-0.906-0.043-2.093-0.043h-2.234V88.226z"/>
		<path fill="#FFFFFF" d="M50.567,96.398V82.236h10.501v2.395h-7.644v3.135h7.117v2.395h-7.117v3.855h7.922v2.383H50.567z"/>
		<path fill="#FFFFFF" d="M61.132,91.792l2.779-0.269c0.323,1.804,1.354,2.706,3.094,2.706c0.715,0,1.327-0.14,1.836-0.419
			c0.63-0.35,0.945-0.859,0.945-1.525c0-0.672-0.441-1.162-1.32-1.47c-0.323-0.114-1.089-0.322-2.299-0.623
			c-1.531-0.38-2.605-0.845-3.221-1.396c-0.874-0.78-1.311-1.732-1.311-2.856c0-0.772,0.222-1.471,0.666-2.094
			c0.422-0.601,0.994-1.055,1.717-1.363c0.773-0.329,1.704-0.493,2.792-0.493c1.554,0,2.8,0.318,3.737,0.955
			c1.073,0.737,1.639,1.851,1.695,3.339l-2.865,0.118c-0.123-0.744-0.397-1.278-0.828-1.6c-0.399-0.293-0.99-0.439-1.771-0.439
			c-0.83,0-1.481,0.167-1.953,0.504c-0.301,0.222-0.451,0.516-0.451,0.881c0,0.336,0.143,0.622,0.43,0.859
			c0.35,0.299,1.234,0.633,2.652,0.997c1.582,0.409,2.601,0.73,3.059,0.967c1.418,0.752,2.127,1.986,2.127,3.704
			c0,0.854-0.232,1.626-0.697,2.318c-0.467,0.695-1.096,1.207-1.891,1.537c-0.822,0.342-1.851,0.514-3.081,0.514
			C63.458,96.644,61.511,95.027,61.132,91.792z"/>
		<path fill="#FFFFFF" d="M73.081,96.398V82.236h2.856v14.162H73.081z"/>
		<path fill="#FFFFFF" d="M83.564,91.191v-2.385h6.162v5.639c-0.687,0.664-1.631,1.205-2.834,1.621
			c-1.11,0.385-2.184,0.578-3.222,0.578c-3.092,0-5.211-1.201-6.356-3.607c-0.558-1.152-0.838-2.408-0.838-3.768
			c0-3.129,1.214-5.317,3.642-6.571c0.916-0.474,2.046-0.708,3.392-0.708c3.415,0,5.426,1.388,6.035,4.166l-2.846,0.536
			c-0.429-1.503-1.493-2.255-3.189-2.255c-1.373,0-2.416,0.449-3.124,1.354c-0.637,0.823-0.956,1.943-0.956,3.359
			c0,1.461,0.305,2.631,0.912,3.512c0.702,1.023,1.752,1.535,3.146,1.535c1.196,0,2.313-0.404,3.35-1.213v-1.793H83.564z"/>
		<path fill="#FFFFFF" d="M90.327,96.398V82.236h2.781l5.798,9.459v-9.459h2.651v14.162h-2.866l-5.713-9.233v9.233H90.327z"/>
		<path fill="#FFFFFF" d="M49.635,86.102c-0.65-1.912-1.814-3.11-3.488-3.599c-0.617-0.178-1.365-0.268-1.814-0.268h-0.342v2.395
			c1.026,0,1.705,0.477,2.048,0.805c0.737,0.688,1.106,1.983,1.106,3.888c0,1.095-0.096,1.96-0.29,2.598
			c-0.322,1.066-0.957,1.718-1.901,1.954c-0.356,0.094-0.938,0.141-1.739,0.141h-1.551v2.383h1.938c1.066,0,1.912-0.1,2.533-0.301
			c0.845-0.265,1.514-0.639,2.008-1.127c1.303-1.268,1.955-3.107,1.955-5.52C50.098,88.127,49.944,87.011,49.635,86.102z"/>
		<polygon fill="#FFCB0B" points="36.461,82.236 36.461,84.63 38.788,84.63 38.788,96.398 41.653,96.398 41.653,94.015 
			41.653,84.63 43.979,84.63 43.979,82.236 		"/>
	</g>
</g>
</svg>
