<?xml version="1.0" encoding="utf-8"?>
<!-- Generator: Adobe Illustrator 14.0.0, SVG Export Plug-In . SVG Version: 6.00 Build 43363)  -->
<!DOCTYPE svg PUBLIC "-//W3C//DTD SVG 1.1//EN" "http://www.w3.org/Graphics/SVG/1.1/DTD/svg11.dtd">
<svg version="1.1" id="Layer_1" xmlns="http://www.w3.org/2000/svg" xmlns:xlink="http://www.w3.org/1999/xlink" x="0px" y="0px"
	 width="822.675px" height="300.06px" viewBox="0 0 822.675 300.06" enable-background="new 0 0 822.675 300.06"
	 xml:space="preserve">
<g>
	<g>
		<path fill="#fff" stroke="#FFCB05" stroke-width="1"
    d="M455.714,217.683c-4.281-0.856-9.681-3.47-17.021-8.237c-7.007-4.555-11.802-10.245-14.262-16.913
			c-2.984-8.226-2.107-20.592,2.587-36.762c4.693-16.163,11.953-31.846,21.567-46.62c9.934-15.251,19.435-24.454,29.056-28.13
			c0.072,0,0.146-0.007,0.212-0.007c1.131,0,2.222,0.651,3.75,1.623c0.718,0.458,1.702,1.083,1.981,1.116
			c0.479-0.419,0.744-0.466,0.978-0.466c0.14,0,0.671,0.18,0.778,0.286c5.99,1.383,12.465,4.588,19.52,9.653
			c6.822,5.014,10.127,9.421,10.127,13.457c0,5.737-5.771,13.995-17.627,25.22c1.283-0.134,2.766-0.188,4.488-0.188
			c2.055,0,4.395,0.094,7.061,0.246c6.012,0.346,9.575,1.051,10.599,2.075c3.138,2.772,2.719,7.433-1.302,14.208
			c-0.081,0.14-0.228,0.232-0.387,0.272c-0.039,0-0.067,0.006-0.1,0.006c-0.141,0-0.26-0.053-0.365-0.139
			c-4.176-3.537-12.056-5.254-24.082-5.254l-1.734,0.015c-6.457,0.086-12.668,0.679-18.697,1.788
			c4.322-0.485,8.949-0.765,13.829-0.832c9.508,0,17.845,1.117,24.8,3.325c0.717,1.297,1.568,2.587,2.181,3.523l0.558,0.885
			c0.127,0.206,0.107,0.465-0.053,0.658c-0.105,0.126-0.266,0.187-0.426,0.187c-0.066,0-0.146-0.014-0.213-0.04
			c-7.301-2.952-14.945-4.475-23.391-4.641c-1.435-0.027-2.805-0.04-4.107-0.04c-6.077,0-10.897,0.306-14.321,0.903
			c-3.325,0.572-9.175,1.703-18.178,3.804c-10.372,22.394-13.583,38.741-9.161,48.282c1.21,2.944,2.972,4.423,5.244,4.423
			c0.5,0,1.02-0.074,1.564-0.22c7.074-0.859,14.467-6.782,22.053-17.634c7.439-10.657,12.193-21.834,14.122-33.236
			c0.032-0.206,0.179-0.385,0.379-0.438c0.053-0.021,0.119-0.027,0.173-0.027c0.146,0,0.285,0.054,0.398,0.159
			c0.879,0.239,1.343,0.306,1.729,0.705l0.093,0.564c1.749,0.193,2.919,0.552,3.671,1.104c1.529,0.545,2.445,0.892,3.005,1.436
			c1.423,0.453,8.271,2.653,8.271,2.653c2.061,0.645,4.615,1.662,4.967,2.846c0.055,0.166-0.086,0.837-0.198,0.983
			c-3.851,11.655-9.716,22.506-17.334,32.074c-7.374,9.254-15.438,15.842-23.976,19.579c-0.066,0.034-0.146,0.047-0.219,0.047
			c-0.213,0-0.42-0.112-0.512-0.318c-0.134-0.273-0.014-0.599,0.252-0.731c7.049-3.597,13.91-9.455,20.432-17.427
			c-1.344,1.529-2.732,3.012-4.175,4.455c-10.485,10.465-20.061,15.757-28.49,15.757C455.78,217.689,455.74,217.689,455.714,217.683
			z M496.576,98.253c-1.31,0-2.427,0.373-3.085,1.019c-8.404,6.063-18.855,18.961-31.986,39.444
			c4.854-1.562,15.738-4.12,15.857-4.147c4.667-1.21,9.162-5.552,13.337-12.904c4.261-7.333,7.034-15.026,8.251-22.873
			C498.877,98.719,498.038,98.253,496.576,98.253z"/>
	</g>
	<g>
		<path fill="#fff" stroke="#FFCB05" stroke-width="1"
    d="M534.627,222.338c-2.288,0-4.521-0.227-6.623-0.672c-8.723-1.962-14.288-8.637-16.567-19.858
			c-1.604-8.438-0.965-16.443,1.895-23.856c-2.479,4.315-4.115,8.981-4.945,14.128c-1.184,7.255-0.906,13.403,0.836,18.284
			c1.67,4.647,3.645,7.319,5.871,7.965l0.784,0.379c0.213,0.105,0.333,0.333,0.307,0.565c-0.014,0.232-0.187,0.426-0.413,0.485
			l-1.39,0.353c-0.504,0.1-0.89,0.14-1.157,0.14c-0.313,0-0.931-0.373-0.931-0.686c-9.8-10.073-11.979-25.724-5.685-41.473
			c5.434-13.425,13.671-26.044,23.19-35.565c0.106-0.105,0.878-0.411,1.024-0.411c1.276,0,3.205,1.502,5.857,4.601
			c3.179,4.108,5.712,8.47,7.533,12.984c1.995,4.874,2.035,8.139,0.114,9.202c-8.231,4.973-13.864,12.445-16.724,22.212
			c-3.043,9.947-1.449,16.07,4.881,18.744c1.617,0.658,3.299,0.99,5.021,0.99c7.265,0,13.955-5.691,18.342-15.61
			c2.208-5.087,2.022-11.649-0.545-20.054c-2.605-8.377-6.098-16.688-10.365-24.706c-3.877-7.294-7.467-15.192-11.283-24.846
			c-7.365-18.41-1.9-33.77,14.999-42.146c5.919-2.746,11.384-4.136,16.264-4.136c5.317,0,10.087,1.643,14.175,4.893
			c0.146,0.233,0.254,0.473,0.758,1.117l-0.426-1.17c-0.066-0.173-0.04-0.372,0.066-0.519c0.101-0.153,0.268-0.246,0.453-0.246
			c-0.134-0.054,0.173-0.837,0.406-1.402c0.725-1.814,1.209-2.932,2.033-2.932c2.546,0.817,5.764,1.488,8.863,2.134
			c5.931,1.243,11.063,2.313,12.16,4.269c0.26,0.458,0.306,0.957,0.139,1.441c-0.783,4.608-2.34,10.885-5.02,20.259l-2.373,7.767
			c-1.615,5.332-3.085,10.125-4.381,14.281l-3.139,9.201c-0.086,0.233-0.645,0.379-0.884,0.379
			c-0.134,0.126-0.466,0.227-0.732,0.227c-0.112,0-0.198-0.014-0.265-0.053c-0.213-0.135-0.645-0.293-0.586-0.539
			c0,0,1.477-5.519,1.529-5.685c-0.346,0.625-0.625,0.852-0.984,0.852c-0.425,0-2.027-0.055-4.469-0.713
			c-0.25-0.072-0.417-0.292-0.417-0.544c0-0.054,0.239-1.158,0.239-1.158c-7.308-2.06-11.962-3.742-14.196-5.125
			c-0.239-0.146-0.331-0.445-0.219-0.705c3.969-8.797,6.589-15.93,7.772-21.216c-1.477-4.833-4.946-7.846-10.298-8.677
			c-0.619-0.086-1.226-0.127-1.789-0.127c-4.056,0-6.382,2.103-7.107,6.41c-0.658,5.452,2.845,15.85,10.697,31.74
			c7.618,15.405,12.767,27.984,15.306,37.379c2.979,9.269,1.436,18.477-4.588,27.334c-6.051,8.814-14.002,15.418-23.648,19.626
			C547.14,220.809,540.624,222.338,534.627,222.338z"/>
	</g>
	<g>
		<path fill="#fff" stroke="#FFCB05" stroke-width="1"
    d="M606.565,217.689c-0.188,0-0.599-0.067-1.064-0.14c-0.531-0.086-1.156-0.199-1.607-0.199
			c-7.953-0.884-13.485-2.859-16.529-5.883c-0.08-0.087-0.187-0.2-0.146-0.871l-0.997,3.563c-0.573,0.126-1.03,0.186-1.397,0.186
			c-0.771,0-1.07-0.272-1.07-0.685c2.839-8.969,7.521-28.742,14.728-62.371c7.288-33.623,12.633-54.858,16.854-66.813
			c0.739-0.106,1.496-0.153,2.295-0.153c2.088,0,4.421,0.326,7.18,0.838l1.063-1.242c10.04,1.813,17.314,5.139,19.057,8.31
			c0.465,0.865,0.559,1.716,0.252,2.526c-5.504,9.401-12.74,28.184-20.971,54.406c-7.519,23.577-12.113,40.776-13.716,51.235
			c1.118-3.292,2.487-8.471,4.13-15.639c0.061-0.259,0.279-0.426,0.545-0.426c0.027,0,0.053,0,0.086,0
			c0.286,0.047,0.484,0.307,0.473,0.599l-1.742,23.404c-0.519,4.688-3.006,9.407-6.77,9.407
			C607.177,217.737,606.565,217.689,606.565,217.689z M640.727,78.107c-4.967-0.831-7.952-1.536-9.681-2.293
			c-1.616-0.725-2.553-1.47-4.521-3.597l0.4-1.656l-1.703,5.093c-0.52,0.134-1.064,0.22-1.556,0.22
			c-0.892,0-1.603-0.286-1.603-1.091c4.088-11.468,8.396-27.838,12.83-48.841c0.82-0.532,1.079-0.584,1.298-0.584
			c0.126,0,0.8,0.278,0.897,0.351c0.34,0.261,0.964,0.732,3.484,1.184l0.199-0.544c0.659-0.878,1.03-1.197,1.436-1.197
			c6.549,1.397,12.016,3.157,16.363,5.245c4.715,2.454,6.502,4.735,5.479,6.981c-2.461,4.169-5.439,9.814-8.856,16.828l-1.423,2.919
			c-2.966,6.063-5.299,10.857-7.246,14.606c-2.979,5.725-4.596,6.384-5.545,6.384C640.938,78.122,640.753,78.107,640.727,78.107z"/>
	</g>
	<g>
		<path fill="#fff" stroke="#FFCB05" stroke-width="1"
    d="M653.119,300.06c-0.173,0-0.345-0.087-0.451-0.227c-0.146-0.205-0.135-0.492,0.026-0.697
			c1.442-1.743,1.941-3.565,1.521-5.585c-1.236-5.903-10.377-13.191-27.173-21.654c-2.565-1.364-11.542-5.505-26.688-12.307
			l-0.698-0.346c-0.086,0-0.605-0.305-0.686-0.34c-1.954-0.862-2.121-4.88-0.491-11.906c1.749-7.766,3.112-12.114,4.581-14.562
			c2.146-4.859,10.857-8.363,26.575-10.664c6.635-0.972,12.965-1.456,18.855-1.456c7.751,0,15.038,0.851,21.702,2.54
			c0.138-0.665,0.365-1.51,0.637-2.579c0.287-1.079,0.632-2.401,0.997-3.978c0.146-1.729,1.038-5.053,2.394-10.039
			c-0.372,0.286-0.764,0.625-1.17,0.965c-1.756,1.488-3.922,3.33-6.316,3.689c-0.891,0.146-1.842,0.213-2.846,0.213
			c-3.963,0-8.85-1.104-14.946-3.37c-7.473-2.601-12.206-5.818-13.669-9.322c-3.392-6.07-4.355-14.295-2.806-24.4
			c1.315-9.787,3.305-18.79,6.089-27.473c2.646-8.131,5.62-15.797,8.855-22.791c9.043-19.642,20.439-33.662,33.87-41.688
			c0.093-0.054,0.185-0.08,0.292-0.08c0.186,0,0.379,0.093,0.479,0.273c0.154,0.265,0.08,0.604-0.186,0.771
			c-6.596,3.977-12.779,9.88-18.39,17.532c-0.187,0.254-0.373,0.506-0.56,0.759c1.609-1.98,3.298-3.916,5.066-5.812
			c8.949-9.666,18.197-14.573,27.46-14.573c1.382,0,3.363,1.455,5.104,2.738c0.904,0.665,1.756,1.303,2.209,1.464
			c6.541,2.127,12.764,7.679,18.47,16.515c0.153,0.246,0.112,0.565-0.12,0.744c-0.106,0.086-0.227,0.127-0.359,0.127
			s-0.279-0.053-0.399-0.16c-0.771-0.777-2.034-1.283-7.858-2.445c-1.023-0.167-2.061-0.273-3.051-0.273
			c-1.941,0-3.71,0.372-5.26,1.09c-13.324,3.943-25.292,16.855-35.623,38.402c-10.239,21.502-12.566,39.439-6.928,53.29
			c0.12,0.285-0.015,0.618-0.293,0.73c-0.08,0.026-0.146,0.041-0.227,0.041c-0.205,0-0.418-0.12-0.504-0.334
			c-3.26-7.373-5.08-12.697-5.592-16.268c-0.313-2.188-0.268-4.994,0.139-8.386c-6.475,22.739-1.05,30.598,1.814,33.011
			c0.687,0.626,1.484,0.933,2.387,0.933c5.053,0,14.828-10.153,24.302-32.453c0.033-0.072,0.433-0.465,0.473-0.525
			c10.465-40.098,15.823-58.893,17.192-62.724c0.094-0.232,0.308-0.372,0.532-0.372c0.054,0,0.106,0.007,0.146,0.021
			c2.154,0.584,3.312,1.409,3.532,2.514c-9.796,30.15-12.275,38.343-12.848,40.469h0.326c0.08-0.458,2.193-7.107,4.262-13.549
			c7.399-23.117,9.554-28.763,11.004-28.763c0.146,0,0.646,0.419,0.744,0.519l2.021-0.159l0.645-0.877
			c5.924,1.063,10.865,2.659,15.193,4.561c4.6,2.207,6.502,4.48,5.664,6.775c-15.212,34.539-28.563,72.024-39.692,111.438
			c-0.052,0.192-0.479,0.491-0.784,0.619c0.398,0.045,0.824,0.072,1.282,0.072c14.567,6.769,20.578,14.515,18.597,23.729
			c-1.45,7.035-7.074,11.849-16.728,14.302c-2.886,0.632-5.811,0.95-8.729,0.95c-4.582,0-9.262-0.791-13.942-2.347
			c-4.527-1.217-7.739-2.798-9.772-4.82c-0.414-0.425-1.664-1.688,5.795-31.873c-8.21-1.71-16.082-2.573-23.402-2.573
			c-11.516,0-22.127,2.128-31.561,6.356c31.945,18.271,49.22,28.622,51.359,30.763c2.887,2.893,5.16,5.452,5.813,6.521
			c1.303,3.332-0.015,8.424-3.976,15.646c-3.962,7.034-8.365,11.488-13.465,13.615C653.266,300.046,653.186,300.06,653.119,300.06z
			 M684.507,261.997c1.896,0.172,3.625,0.267,5.247,0.267c6.263,0,10.771-1.337,13.796-4.104c3.569-3.411,4.116-7.507,1.622-12.16
			c-2.626-4.754-7.161-8.078-13.856-10.139c-1.449,5.465-6.961,25.796-6.961,25.796c0,0.133-0.027,0.227-0.086,0.313
			C684.368,261.977,684.434,261.997,684.507,261.997z"/>
	</g>
	<g>
		<path fill="#fff" stroke="#FFCB05" stroke-width="1"
    d="M800.68,223.66c-3.366,0-6.961-0.433-10.717-1.296c-3.765-0.858-6.584-1.722-8.591-2.634
			c0.106,0.054-0.212,0.141-0.451,0.207c-0.527,0.152-1.199,0.352-1.723,0.352c-0.152,0-0.838-0.22-0.951-0.331
			c-8.284-4.389-12.3-9.542-12.127-15.672c0-3.258,2.845-14.946,8.695-35.697c2.154-7.646,4.018-14.34,5.506-19.818l-8.936,26.926
			c-2.946,9.515-4.494,14.887-4.848,16.097c-0.065,0.247-0.291,0.413-0.539,0.413c-0.04,0-0.072,0-0.112-0.014
			c-0.977-0.192-1.716-0.785-1.988-1.575c2.514-8.397,5.306-17.2,8.351-26.768l7.6-24.049c4.395-13.816,8.345-26.441,11.889-37.824
			l3.238-10.332c-3.883,3.989-8.851,10.592-14.814,19.681c-7.074,10.531-13.005,21.694-17.632,33.196
			c-12.991,33.07-18.11,58.634-15.226,75.98c0.028,0.167-0.012,0.333-0.127,0.46c-0.113,0.119-0.26,0.192-0.431,0.192
			c-12.892,0-19.201-0.187-20.691-0.359h-0.013c-0.571,0-0.878-0.751-1.316-1.902c-0.166-0.431-0.445-1.136-0.586-1.282
			c-3.67-0.83-5.844-2.926-6.036-5.824c15.817-56.773,23.563-101.984,23.058-134.568c0-0.146,0.059-0.293,0.16-0.406
			c0.105-0.113,0.244-0.166,0.396-0.166h3.645c0.678,0.465,0.811,0.611,0.04,10.492c-0.438,5.784-1.144,11.814-1.876,18.202
			l-0.385,3.319c-0.513,3.895-0.943,7.066-1.317,9.534c0.401-1.211,0.706-2.354,0.906-3.465c3.163-29.233,3.537-29.233,4.374-29.233
			c0.266,0,6.875,0.564,6.875,0.564c0.798,0.08,1.33,0.133,1.621,0.133l-0.191-0.645c-0.027-1.157,0.658-1.436,1.229-1.436
			c9.482,1.057,15.639,2.226,17.182,4.794c0.438,0.73,0.491,1.542,0.16,2.405c-1.231,2.627-3.672,9.608-7.274,20.765
			c-2.313,7.167-4.155,12.632-5.592,16.755c4.354-7.719,10.226-16.734,17.786-27.307c8.536-11.947,15.21-17.766,20.425-17.766
			c0.771,0,1.536,0.134,2.232,0.394c3.339,1.369,7.872,4.028,13.137,7.691c6.245,4.348,8.658,7.129,7.821,9.016l-0.699,1.409
			c-3.224,7.853-6.476,17.926-9.673,29.9c-3.75,13.477-6.75,26.282-9.188,39.142c-2.833,13.995-3.79,25.517-2.946,35.224
			c0.839,9.521,3.824,14.606,8.861,15.093c0.28,0.025,0.487,0.245,0.507,0.519c0.025,0.272-0.16,0.52-0.426,0.586
			C806.344,223.341,803.552,223.66,800.68,223.66z"/>
	</g>
	<g>
		<g>
			<path fill="#fff" stroke="#FFCB05" stroke-width="1"
      d="M280.106,246.871c-13.071,0-24.245-3.138-33.196-9.341c-12.453-8.598-16.605-20.411-12.357-35.113
				c5.043-17.938,21.063-33.808,47.622-47.172c3.753-1.881,7.516-3.742,11.343-5.512c4.092-1.895,8.191-3.629,12.187-5.152
				c0.064-0.02,0.137-0.032,0.2-0.032c0.149,0,0.299,0.059,0.409,0.173c0.149,0.166,0.196,0.411,0.099,0.611l-10.245,23.157
				c-1.912,0.957-3.521,1.669-5.12,2.426c-12.909,6.17-26.368,14.309-28.35,27.911c-1.333,9.229,3.321,15.957,14.228,20.559
				c6.353,2.806,13.264,4.228,20.568,4.228c9.626,0,20.235-2.459,31.531-7.34c22.333-9.973,42.159-28.27,59.053-54.485
				c-24.128,31.182-51.952,49.266-82.849,53.827c-0.026,0-0.053,0-0.083,0c-0.272,0-0.508-0.192-0.559-0.466
				c-0.046-0.305,0.16-0.591,0.459-0.645c32.054-5.703,60.979-26.92,85.991-63.057c9.162-13.184,15.917-25.677,20.046-37.152
				c8.238-27.092,6.728-46.393-4.488-57.364c-0.199-0.198-0.226-0.519-0.053-0.744c4.627-6.058,9.228-12.146,13.79-18.25
				c0.093-0.126,0.226-0.206,0.386-0.227c0.02,0,0.053,0,0.065,0c0.134,0,0.253,0.039,0.36,0.126
				c8.47,6.842,14.427,15.472,18.217,26.368c7.234,20.784,0.564,52.214-18.763,88.514c-13.417,25.804-32.672,47.639-57.219,64.878
				c-15.212,10.664-31.896,18.683-49.579,23.828C301.422,245.042,290.086,246.871,280.106,246.871L280.106,246.871z"/>
		</g>
	</g>
	<g>
		<path fill="#fff" stroke="#FFCB05" stroke-width="1"
    d="M318.911,210.224c-0.399-0.087-1.476-0.213-3.268-0.393c-2.288-0.266-5.672-0.624-10.206-0.998
			c-8.973-0.757-13.001-1.249-14.358-1.754c-0.006,0-0.02,0-0.026,0c-0.519,0-0.662-0.877-0.851-2.082
			c-0.07-0.432-0.183-1.156-0.286-1.322c-3.241-1.21-4.936-3.317-4.936-6.15c3.813-7.413,7.898-16.183,12.562-27.054l14.208-32.105
			c14.311-34.115,25.953-63.9,35.59-91.047c-9.891,0.91-20.246,3.098-31.628,6.655c-7.423,2.327-11.452,4.714-11.964,7.082
			c-0.243,1.135,0.336,2.313,1.771,3.603c0.17,0.152,0.233,0.398,0.15,0.618c-0.08,0.22-0.292,0.358-0.525,0.358
			c-5.25,0-6.433-0.685-6.875-1.284c-1.812-3.595-3.377-8.868-5.126-17.192c-0.287,0-0.675-0.126-0.708-0.405l-1.034-8.49
			c11.605-11.914,33.496-17.978,65.227-18.477c1.549-7.393,3.105-13.969,4.315-19.349C360.997,0.179,361.223,0,361.489,0h1.576
			c1.21,0.252,1.715,0.358,2.067,0.358c0.173,0,0.333,0.087,0.439,0.22c0.113,0.146,0.146,0.313,0.106,0.486
			c-1.623,6.349-3.55,12.897-5.718,19.453l-0.664,2.58l4.966-13.531c0.086-0.225,0.299-0.371,0.532-0.371
			c0.04,0,0.086,0.006,0.126,0.013c5.691,1.363,10.904,2.055,15.478,2.055l-0.199-0.652c0.246-0.938,0.811-1.143,1.237-1.143
			c10.704,2.286,15.279,4.116,16.283,6.382c0.326,0.745,0.266,1.53-0.193,2.321c-0.659,1.044-1.842,3.763-2.7,5.751l-0.385,0.863
			h0.864c9.202,2.787,16.754,6.403,23.27,11.085c0,0.126,0.187,0.717,0.12,0.811c-4.521,6.069-9.076,12.067-13.664,18.084
			c-0.086,0.119-0.232,0.199-0.379,0.219c-0.026,0-0.04,0-0.073,0c-0.125,0-0.259-0.045-0.352-0.132
			c-1.183-0.978-2.447-1.854-3.829-2.666c-2.095-1.224-4.468-2.048-7.274-2.54c-0.272-0.047-0.465-0.279-0.465-0.552
			c0-0.021,0-0.04,0.006-0.061c-2.367-0.798-4.235-1.19-5.564-1.19c-1.05,0-1.675,0.24-1.835,0.731l-4.528,0.386
			c0.073,0.731-1.27,3.644-3.444,8.371c-2.014,4.382-4.754,10.325-8.171,17.838c-2.792,6.05-5.179,11.189-7.147,15.405
			c6.589-10.917,15.378-23.908,22.772-29.453c0.066-0.007,0.146-0.014,0.219-0.014c1.383,0,1.729,1.809,1.729,2.194
			c-15.963,16.016-30.132,38.941-42.285,68.547l-11.539,28.982l-0.285,1.083c-8.016,21.868-12.351,37.412-12.902,46.261
			c-0.07,0.532-0.089,1.018-0.089,1.47c0,0.167-0.073,0.333-0.209,0.439c-0.104,0.079-0.227,0.12-0.356,0.12
			C318.994,210.23,318.954,210.23,318.911,210.224z"/>
	</g>
	<g>
		<path fill="#fff" stroke="#FFCB05" stroke-width="1"
    d="M34.159,254.563c-3.138,0-6.768-0.93-10.777-2.765c-0.369-0.333-0.565-0.639-0.791-0.991
			c-0.253-0.393-0.775-1.224-1.054-1.224c-10.355-5.365-17.482-11.741-21.465-19.002c-0.137-0.246-0.07-0.545,0.14-0.71
			c0.104-0.08,0.226-0.12,0.349-0.12c0.136,0,0.272,0.046,0.382,0.141c0.592,0.537,1.373,0.803,2.367,0.803
			c5.137,0,15.286-7.041,30.163-20.923c17.702-16.509,38.27-38.49,62.893-67.225l1.499-1.496h-2.118
			c-26.934,1.31-46.194,2.533-54.2,3.458c-0.02,0-0.04,0-0.06,0c-0.239,0-0.459-0.146-0.532-0.386l-0.349-1.038
			c-0.053-0.152-0.034-0.325,0.056-0.466c0.086-0.146,0.229-0.239,0.399-0.259c1.213-0.173,5.04-0.705,11.459-1.396
			c2.008-0.22,3.976-0.439,5.911-0.652l-3.028,0.207c-9.997,0.811-17.479,1.263-21.06,1.263c-0.668,0-1.184-0.014-1.566-0.046
			c-4.159-0.751-7.054-4.275-8.653-10.485l0.681-1.902c-1.616-7.766-1.2-14.009,1.273-18.948c0.096-0.192,0.292-0.306,0.502-0.306
			c0.049,0,0.096,0.006,0.143,0.02c0.259,0.066,0.428,0.299,0.422,0.566c-0.106,2.34,3.87,5.804,23.457,8.955
			c15.132,2.434,35.029,4.421,60.802,6.063c33.532-40.244,56.59-69.937,69.983-90.534c-2.201,0.186-6.951,0.823-14.966,2.187
			c-38.688,9.148-66.147,18.544-83.903,28.716c-7.469,4.195-11.206,7.807-11.113,10.751c0.056,1.795,1.629,3.443,4.664,4.9
			c0.247,0.113,0.369,0.386,0.299,0.646c-0.066,0.252-0.286,0.425-0.542,0.425c-0.007,0-0.023,0-0.03,0
			c-6.051-0.326-9.299-1.542-10.219-3.804c-0.851-2.08,0.382-4.887,3.767-8.583c8.278-6.975,24.188-14.407,47.432-22.159
			c-41.122,10.318-63.86,19.546-67.667,27.465c-1.074,2.307-0.136,4.281,2.896,6.03c0.229,0.133,0.332,0.405,0.256,0.651
			c-0.073,0.239-0.292,0.399-0.535,0.399c-0.013,0-0.037,0-0.05,0c-10.006-0.871-17.436-4.209-22.063-9.92
			c-6.163-6.15-3.989-11.542-0.722-16.441c1.509-2.076,4.029-4.003,7.497-5.738c7.27-3.458,12-4.967,17.283-6.29
			c39.633-9.076,82.413-15.319,127.192-18.557h6.101c0-0.079-0.196-0.646-0.164-0.711c0.286-0.632,0.961-1.376,2.52-1.376
			c1.802,0,4.515,0.977,8.265,2.978c1.586-1.914,2.287-3.038,2.37-3.237c1.526-1.575,1.666-2.44,1.762-3.019
			c0.116-0.684,0.299-1.256,1.479-1.256c0.435,0,1.08,0.066,2.068,0.206c0.034,0,0.076,0,0.11,0c1.422,0,3.228,0.107,5.418,0.233
			l1.872,0.113h4.262v-0.479c0.199-0.878,0.715-1.323,1.416-1.323c11.153,0.965,16.755,2.739,17.546,5.505
			c0.22,0.639,0.22,1.23-0.488,1.935c-6.327,6.323-12.928,19.029-19.637,37.765c-6.652,18.131-12.603,39.154-17.686,62.511
			c0.729-0.046,1.19-0.173,1.549-0.293c0,0,1.296-0.026,1.336-0.026c2.763,0,3.268,2.654,3.73,6.384c0,1.335-0.17,2.232-0.353,3.131
			l-6.931,6.376c-0.11,0.094-0.239,0.14-0.375,0.14c-0.11,0-0.223-0.033-0.319-0.1c-0.212-0.14-0.299-0.419-0.206-0.657
			c1.09-2.859,0.837-3.891,0.595-4.25c-0.063-0.092-0.253-0.372-0.935-0.372c0.053,0.12-0.203,0.245-0.578,0.312
			c-6.958,33.735-9.79,61.028-8.4,81.094c0.515,7.726,1.722,13.597,3.586,17.479c0.227,0.671,0.067,1.083-0.103,1.316
			c-0.346,0.471-1.014,0.704-2.111,0.704c-3.219,0-10.585-2.048-21.888-6.089c-6.373-2.255-10.252-3.937-12.602-5.446l0.442-4.056
			c0.166-2.154,0.129-3.059,0.089-3.418c-0.531,1.311-1.207,4.436-1.749,11.723c-0.532,0.725-0.98,0.918-1.493,0.918
			c-0.449,0-0.967-0.146-1.572-0.445c0.22-17.627,4.657-47.405,12.882-89.046c-0.006-1.431,2.39-1.862,5.166-2.366
			c0.429-0.074,0.877-0.16,1.316-0.247c-5.741,0.04-8.949,0.187-9.641,0.325c-8.601,0.18-19.859,0.532-33.559,1.051
			c-43.436,61.554-67.022,95.509-71.656,103.572c-0.103,0.174-0.612,0.579-0.817,0.579c-0.449,0-0.941-0.34-1.497-1.024
			c1.067-2.473,5.901-10.736,14.607-25.15c-0.978,1.509-2.015,3.111-3.119,4.826c-11.442,17.254-17.672,25.989-20.205,28.357
			C40.798,253.36,37.732,254.563,34.159,254.563z M136.166,126.457c13.59,0.565,21.875,0.645,25.648,0.645h3.62
			c0.049-0.951,0.239-2.859,0.974-3.776c5.442-25.944,11.03-47.358,16.532-63.568C172.248,75.436,156.012,98.426,136.166,126.457z"
			/>
	</g>
	<g>
		<path fill="#fff" stroke="#FFCB05" stroke-width="1"
    d="M229.084,206.323c-12.812,0-19.813-0.179-21.057-0.352l-0.771-0.997c-0.06-0.4-0.246-0.812-0.366-1.085
			c-0.207-0.445-0.396-0.877-0.396-1.257c-3.806-0.544-5.884-2.525-6.066-5.69c14.624-51.561,21.678-96.891,20.983-134.915
			c0-0.146,0.053-0.293,0.156-0.399c0.109-0.112,0.252-0.173,0.402-0.173h1.383c1.216,0.24,1.722,0.339,2.081,0.339
			c0.675,0.46,0.825,0.619,0.037,10.499c-0.429,5.618-1.104,11.488-1.818,17.692l-0.006,0.094c0.013-0.12,0.788-5.858,0.788-5.858
			c0.422-3.098,0.778-5.791,1.137-8.064l1.227-5.08c0.06-0.253,0.286-0.425,0.545-0.425c0.246,0,9.647,0.657,10.006,0.677v-0.464
			c0-1.316,0.682-1.597,1.253-1.597c7.782,0.891,15.455,1.994,17.083,4.821c0.422,0.725,0.449,1.528,0.08,2.373
			c-1.346,2.945-3.281,8.936-5.957,17.233c-1.074,3.344-2.267,7.027-3.567,10.99c-1.111,3.41-2.131,6.482-3.072,9.242
			c4.149-7.467,9.899-16.363,17.164-26.563c8.956-12.405,15.837-18.437,21.033-18.437c0.748,0,1.476,0.127,2.158,0.373
			c3.41,1.329,7.885,3.916,13.304,7.692c6.063,4.228,8.497,7.094,7.646,9.015c-0.03,0.067-0.415,0.459-0.465,0.519l0.166,0.646
			c-2.127,5.239-7.503,18.071-9.581,22.932c-2.443,5.758-5.522,14.833-6.21,19.454c-0.688,4.301-1.047,8.629,0.908,11.13
			c1.107,1.422,2.913,2.221,5.529,2.446c0.272,0.02,0.488,0.239,0.508,0.512c0.02,0.272-0.149,0.519-0.422,0.592
			c-1.313,0.339-2.792,0.512-4.385,0.512c-4.042,0-9.039-1.116-14.856-3.311c-0.21,0.006-0.549,0.519-0.705,0.771
			c-0.355,0.538-0.662,0.99-1.167,0.99c-7.759-2.38-12.071-5.034-13.351-8.145c-0.242-0.731-0.389-3.977-0.389-8.71
			c0-2.267,1.33-7.188,3.843-14.228c2.3-6.922,5.03-14.468,8.324-23.077c2.071-5.592,3.541-9.655,4.412-12.114
			c-3.926,4.081-8.896,10.776-14.508,19.561c-7.017,10.97-12.832,22.146-17.293,33.196c-12.988,33.076-18.117,58.654-15.222,75.994
			c0.026,0.159-0.02,0.333-0.13,0.451C229.37,206.257,229.254,206.323,229.084,206.323z"/>
	</g>
</g>
</svg>
