<?xml version="1.0" encoding="utf-8"?>
<!-- Generator: Adobe Illustrator 14.0.0, SVG Export Plug-In . SVG Version: 6.00 Build 43363)  -->
<!DOCTYPE svg PUBLIC "-//W3C//DTD SVG 1.1//EN" "http://www.w3.org/Graphics/SVG/1.1/DTD/svg11.dtd">
<svg version="1.1" id="Layer_1" xmlns="http://www.w3.org/2000/svg" xmlns:xlink="http://www.w3.org/1999/xlink" x="0px" y="0px"
	 width="42.847px" height="45.1px" viewBox="0 0 42.847 45.1" enable-background="new 0 0 42.847 45.1" xml:space="preserve">
<path fill="#FFFFFF" d="M7.762,45.085c-0.043,0-0.087-0.002-0.128-0.018c-0.259-0.065-0.49-0.176-0.69-0.313
	c-0.043-0.026-0.167-0.149-0.2-0.188c-0.047-0.036-0.119-0.139-0.148-0.189c-0.107-0.176-0.254-0.412-0.267-0.796l0.01-0.367
	c0.583-2.707,1.188-5.396,1.787-8.092c0.365-1.633,0.729-3.265,1.091-4.897H7.105c-0.333-0.021-0.551-0.162-0.771-0.302
	c-0.047-0.03-0.178-0.155-0.214-0.202c-0.038-0.031-0.072-0.063-0.101-0.104c-0.121-0.172-0.215-0.369-0.296-0.627
	c-0.014-0.05-0.023-0.1-0.023-0.148v-0.454c0-0.049,0.007-0.096,0.021-0.141c0.258-0.885,0.858-1.16,1.316-1.234
	c0.026-0.006,0.145-0.01,0.173-0.01h0.031c0.006-0.116,0.01-0.236,0.01-0.358c0-0.048,0.008-0.092,0.018-0.139l0,0
	c-0.003-0.042,0-0.197,0.01-0.241c0.01-0.042,0.01-0.141,0.008-0.222c0-0.018,0-0.126,0.002-0.142
	c0.031-0.316,0.046-0.647,0.05-0.988c0-0.045,0.007-0.091,0.018-0.13H7.355c0-0.042,0.001-0.201,0.01-0.24
	c0.009-0.045,0.008-0.144,0.008-0.224c0-0.021,0-0.137,0.004-0.161c0.025-0.195,0.028-0.41,0.028-0.633
	c0-0.046,0.008-0.092,0.021-0.135c-0.003-0.05,0-0.188,0.009-0.227c0.009-0.044,0.009-0.144,0.007-0.32
	c0-0.044,0.004-0.09,0.017-0.13c-0.003-0.081,0-0.135,0-0.129c0-0.021,0.001-0.131,0.004-0.151c0.025-0.194,0.03-0.412,0.03-0.634
	c0-0.044,0.008-0.089,0.019-0.132c-0.001-0.048,0.002-0.188,0.011-0.228C7.532,21.4,7.532,21.3,7.531,21.116
	c0.001-0.042,0.006-0.084,0.017-0.125c-0.003-0.053-0.008-0.121,0-0.13c0-0.021,0.001-0.13,0.004-0.151
	c0.024-0.192,0.028-0.401,0.029-0.616c0-0.048,0.008-0.092,0.021-0.138H7.601c-0.003-0.042,0-0.198,0.011-0.24
	c0.007-0.042,0.007-0.141,0.006-0.318c0-0.046,0.005-0.091,0.018-0.132c-0.004-0.082,0-0.134-0.002-0.129
	c0-0.021,0.002-0.129,0.004-0.151c0.026-0.19,0.03-0.4,0.031-0.615c0-0.048,0.008-0.093,0.021-0.138H7.688
	c-0.004-0.043,0-0.198,0.008-0.237c0.009-0.045,0.009-0.146,0.007-0.322c0.002-0.044,0.007-0.09,0.02-0.133
	c-0.002-0.035-0.002-0.206-0.002-0.213c0-0.049,0.008-0.093,0.021-0.138H7.741c-0.002-0.04,0-0.193,0.007-0.233
	c0.064-0.329,0.51-0.503,0.789-0.322c0.051,0.034,0.098,0.076,0.133,0.125c0.493,0.686,1.02,1.339,1.546,1.989l0.461,0.57
	c0.037,0.048,0.065,0.102,0.083,0.16c0.106,0.334,0.074,0.682,0.044,1.018c-0.016,0.174-0.034,0.354-0.024,0.524
	c0.006,0.058,0,0.114-0.015,0.168c0.003,0.071,0.005,0.139-0.001,0.257c-0.034,0.435-0.061,0.882-0.068,1.346
	c0,0.043-0.006,0.085-0.019,0.123c0.004,0.054,0.008,0.124,0,0.257c-0.035,0.435-0.06,0.881-0.068,1.345
	c-0.002,0.041-0.007,0.082-0.018,0.123c0.002,0.02,0.002,0.044,0.004,0.075c0.088-0.146,0.174-0.293,0.262-0.44
	c0.449-0.75,0.899-1.499,1.338-2.262c0.124-0.213,0.423-0.302,0.649-0.204c0.205,0.094,0.351,0.253,0.48,0.394
	c0.055,0.062,0.109,0.122,0.239,0.23c0.121,0.134,0.249,0.262,0.381,0.382c0.014,0.011,0.027,0.021,0.037,0.032
	c0.036,0.023,0.07,0.054,0.099,0.089c0.073,0.083,0.134,0.145,0.246,0.225c1.365,1.207,2.776,2.456,4.496,3.327
	c0.079,0.04,0.144,0.104,0.19,0.181c0.101,0.108,0.208,0.213,0.318,0.313c0.092,0.084,0.149,0.196,0.159,0.32
	c0.073,0.768,0.292,1.46,0.668,2.117c0.029,0.049,0.049,0.105,0.059,0.163c0.04,0.117,0.032,0.246-0.022,0.359
	c-0.003,0.012-0.008,0.021-0.011,0.023c0.142-0.029,0.292,0.004,0.41,0.094c0.117,0.092,0.217,0.205,0.315,0.319
	c0.008,0.009,0.101,0.117,0.11,0.13c0.029,0.042,0.109,0.096,0.21,0.167c0.427,0.353,0.919,0.663,1.505,0.95
	c0.158,0.079,0.267,0.233,0.275,0.409c0.026,0.393,0.024,0.816,0.018,1.239c0,0.238-0.004,0.479,0,0.71
	c2.647,0.024,5.445,0.022,8.047,0c-0.135-0.623-0.275-1.239-0.414-1.859c-0.146-0.658-0.294-1.313-0.438-1.975
	c-0.017-0.079-0.014-0.157,0.008-0.232c-0.01-0.034-0.018-0.068-0.019-0.104c-0.032-0.565-0.187-1.042-0.472-1.454l-0.115-0.158
	c-0.133-0.172-0.279-0.364-0.369-0.663c-0.1-0.337-0.16-0.684-0.223-1.025c-0.067-0.387-0.129-0.754-0.254-1.086
	c-0.211-0.567-0.482-1.04-0.898-1.558c-0.115-0.163-0.259-0.313-0.449-0.462c-0.652-0.531-1.486-1.093-2.882-1.244
	c-0.282-0.111-0.45-0.302-0.587-0.453c-0.041-0.045-0.079-0.091-0.125-0.131c-0.042-0.041-0.079-0.085-0.104-0.138
	c-0.649-1.242-1.491-2.337-2.231-3.265c-0.126-0.161-0.142-0.386-0.036-0.563c0.424-0.703,0.842-1.416,1.26-2.127
	c0.572-0.978,1.147-1.954,1.74-2.914c0.09-0.146,0.249-0.233,0.422-0.233c0.213-0.006,0.334,0.093,0.424,0.241l2.513,4.226
	c1.448,2.445,2.901,4.887,4.352,7.296c-0.272-5.721-0.567-11.417-0.864-17.102c-0.004-0.06-0.004-0.123,0.041-0.17
	c-6.584-0.03-13.271-0.03-19.856,0c-0.041,0.62-0.075,1.259-0.087,1.979c0,0.169-0.088,0.325-0.23,0.417
	c-0.143,0.09-0.325,0.104-0.478,0.029c-0.599-0.287-1.309-0.608-2.136-0.783C8.3,8.415,8.141,8.038,8.196,7.773
	C8.194,7.725,8.199,7.677,8.211,7.629c0-0.007,0-0.017,0-0.021C8.24,7.416,8.244,7.205,8.244,6.991c0-0.048,0.005-0.094,0.019-0.138
	H8.262c-0.002-0.044,0-0.202,0.01-0.244c0.01-0.042,0.009-0.143,0.007-0.317c0-0.046,0.007-0.088,0.016-0.131
	c-0.002-0.079,0.002-0.133,0-0.126c0-0.024,0.002-0.134,0.005-0.154c0.027-0.192,0.03-0.402,0.032-0.617
	c0-0.045,0.005-0.092,0.019-0.136H8.35c-0.003-0.045,0-0.199,0.01-0.24c0.007-0.043,0.007-0.143,0.005-0.32
	c0.002-0.047,0.008-0.089,0.019-0.13c0-0.044,0-0.207,0-0.217c0-0.049,0.007-0.096,0.021-0.14C8.409,4.034,8.416,3.99,8.427,3.956
	C8.492,3.766,8.67,3.63,8.874,3.623c0.777-0.033,1.572-0.042,2.377-0.042l2.642,0.011c0.486,0,0.971-0.002,1.447-0.014
	c0.211-0.527,0.652-0.873,1.321-0.983l0.573-0.002l1.633,0.004c0.313,0,0.624-0.002,0.932-0.009c0.001-0.147-0.001-0.3-0.003-0.451
	c-0.001-0.206-0.004-0.41-0.001-0.612c0.01-0.368,0.155-0.608,0.294-0.843c0.033-0.06,0.252-0.285,0.307-0.324
	c0.191-0.143,0.423-0.251,0.817-0.343h0.4c0.051,0,0.164,0.027,0.213,0.045c0.206,0.064,0.467,0.146,0.659,0.406
	c0.089,0.034,0.164,0.092,0.222,0.169c0.144,0.189,0.295,0.436,0.321,0.821c0.008,0.208,0.005,0.42,0,0.633
	c0,0.169-0.002,0.336,0,0.5c0.304,0.007,0.609,0.009,0.916,0.009l1.617-0.004l0.646,0.007c0.604,0.101,1.041,0.435,1.256,0.976
	c0.765,0.013,1.542,0.015,2.317,0.015l3.002-0.004l1.137,0.002c0.236,0.002,0.438,0.171,0.48,0.401
	c0.006,0.024,0.006,0.091,0.006,0.146c0.009,0.028,0.016,0.056,0.02,0.084c0.001,0.026-0.031,0.159-0.031,0.182
	c0.035,0.072,0.051,0.149,0.051,0.229c-0.004,0.121-0.004,0.236,0.013,0.34c0.009,0.057,0.009,0.124,0.003,0.22
	c0.01,0.045,0.016,0.09,0.016,0.134c0.006,0.058,0.006,0.129,0.002,0.234c0-0.004-0.002-0.102-0.08-0.207
	c0.065,0.088,0.102,0.287,0.101,0.396c-0.002,0.079-0.003,0.178,0.013,0.255c0.002,0.014,0.002,0.137,0.002,0.206
	c0.014,0.048,0.021,0.095,0.02,0.144c0,0.122-0.004,0.237,0.015,0.349c0.009,0.054,0.009,0.12,0.003,0.216
	c0.01,0.044,0.016,0.088,0.016,0.13c0.008,0.06,0.006,0.131,0,0.238c0-0.006,0-0.103-0.08-0.205
	c0.066,0.088,0.102,0.285,0.102,0.395c0,0.077-0.002,0.176,0.014,0.255c0.002,0.015,0.002,0.136,0.002,0.202
	c0.013,0.048,0.021,0.101,0.019,0.151c0,0.117-0.002,0.231,0.013,0.339c0.014,0.073,0.01,0.139,0.006,0.218
	c0.01,0.044,0.014,0.091,0.014,0.134c0.008,0.059,0.008,0.129,0.002,0.235c0-0.004,0-0.106-0.084-0.212
	c0.068,0.087,0.104,0.293,0.104,0.404c0,0.078-0.002,0.175,0.016,0.255c0.002,0.014,0,0.135,0,0.202
	c0.015,0.049,0.021,0.099,0.021,0.147c-0.003,0.121-0.005,0.235,0.013,0.342c0.01,0.053,0.01,0.122,0.004,0.215
	c0.012,0.047,0.016,0.093,0.016,0.137c0.009,0.059,0.007,0.129,0.002,0.235c0-0.004-0.002-0.1-0.08-0.206
	c0.064,0.085,0.102,0.284,0.1,0.395c-0.002,0.08-0.002,0.178,0.014,0.257c0.004,0.013,0.004,0.137,0.004,0.204
	c0.012,0.048,0.019,0.099,0.019,0.148c-0.004,0.117-0.004,0.234,0.013,0.338c0.012,0.075,0.01,0.145,0.004,0.222
	c0.011,0.043,0.015,0.085,0.015,0.127c0.011,0.08,0.006,0.153,0.003,0.241c0-0.004-0.001-0.103-0.079-0.208
	c0.063,0.087,0.099,0.293,0.099,0.4c-0.002,0.079-0.002,0.177,0.013,0.249c0.003,0.017,0.003,0.14,0.003,0.208
	c0.014,0.044,0.02,0.096,0.018,0.145c-0.002,0.121-0.002,0.236,0.016,0.346c0.008,0.054,0.008,0.12,0.002,0.218
	c0.012,0.042,0.017,0.091,0.017,0.134c0.007,0.056,0.007,0.126,0.001,0.231c0-0.004-0.001-0.103-0.083-0.208
	c0.068,0.087,0.104,0.288,0.103,0.398c0,0.08-0.002,0.177,0.015,0.254c0.001,0.017,0.001,0.14,0.001,0.206
	c0.016,0.048,0.021,0.098,0.021,0.149c-0.002,0.119-0.004,0.231,0.013,0.343c0.009,0.055,0.009,0.12,0.005,0.215
	c0.009,0.045,0.016,0.09,0.016,0.134c0.006,0.058,0.006,0.129,0.002,0.238c0-0.005-0.002-0.105-0.084-0.208
	c0.068,0.088,0.104,0.286,0.102,0.394c-0.002,0.081-0.002,0.178,0.013,0.256c0.003,0.018,0.003,0.138,0.003,0.205
	c0.016,0.048,0.021,0.098,0.02,0.149c-0.002,0.117-0.002,0.23,0.015,0.342c0.008,0.055,0.008,0.121,0.003,0.215
	c0.009,0.045,0.014,0.089,0.014,0.134c0.01,0.057,0.01,0.129,0.004,0.236c0-0.003-0.002-0.103-0.08-0.207
	c0.063,0.088,0.101,0.292,0.099,0.399c-0.001,0.079-0.001,0.177,0.017,0.255c0,0.014,0,0.133,0,0.203
	c0.014,0.047,0.021,0.095,0.021,0.146c-0.001,0.119-0.005,0.232,0.012,0.339c0.011,0.074,0.009,0.142,0.003,0.22
	c0.012,0.043,0.014,0.087,0.014,0.131c0.013,0.079,0.01,0.149,0.004,0.236c0-0.004,0-0.104-0.084-0.212
	c0.068,0.09,0.106,0.291,0.104,0.403c-0.002,0.077-0.002,0.176,0.015,0.257c0.002,0.016,0.002,0.137,0.002,0.203
	c0.014,0.046,0.021,0.097,0.02,0.148c-0.002,0.118-0.003,0.231,0.014,0.344c0.008,0.054,0.008,0.121,0.002,0.214
	c0.012,0.045,0.016,0.091,0.016,0.133c0.01,0.06,0.008,0.13,0.002,0.237c0-0.004,0-0.103-0.079-0.207
	c0.065,0.088,0.099,0.287,0.099,0.395c0,0.078-0.001,0.18,0.014,0.257c0.002,0.013,0.002,0.137,0.002,0.203
	c0.015,0.048,0.021,0.102,0.021,0.152c-0.002,0.116-0.004,0.229,0.011,0.341c0.008,0.053,0.008,0.12,0.004,0.215
	c0.01,0.044,0.017,0.089,0.017,0.133c0.007,0.059,0.007,0.129,0,0.235c0-0.004,0-0.104-0.08-0.209
	c0.065,0.087,0.101,0.283,0.101,0.395c0,0.081-0.003,0.181,0.02,0.316c0.003,0.229,0.015,0.45,0.029,0.64
	c0.008,0.055,0.008,0.117,0.002,0.217c0.011,0.041,0.016,0.084,0.016,0.127c0.012,0.08,0.007,0.151,0.003,0.242
	c0-0.007-0.002-0.106-0.082-0.211c0.065,0.086,0.103,0.287,0.103,0.398c-0.002,0.077-0.002,0.177,0.018,0.312
	c0.004,0.229,0.018,0.449,0.027,0.637c0.012,0.073,0.01,0.141,0.004,0.22c0.012,0.043,0.016,0.086,0.016,0.128
	c0.01,0.063,0.01,0.132,0.002,0.239c0-0.004,0-0.104-0.08-0.211c0.064,0.089,0.102,0.291,0.1,0.397c0,0.08,0,0.182,0.019,0.348
	c-0.005,0.078,0.001,0.146,0.009,0.212h0.063c0.027,0,0.156,0.004,0.185,0.01c0.657,0.115,1.101,0.535,1.312,1.252
	c0.016,0.046,0.021,0.093,0.021,0.139v0.401c0,0.051-0.03,0.17-0.045,0.217c-0.065,0.207-0.146,0.465-0.388,0.678
	c-0.041,0.033-0.077,0.068-0.151,0.156c-0.206,0.2-0.472,0.322-0.845,0.369l-0.426,0.001L34.06,30.22
	c-0.146,0-0.295,0.003-0.439,0.006c0.388,1.771,0.781,3.533,1.178,5.3c0.571,2.567,1.146,5.128,1.709,7.813l-0.003,0.28
	c-0.053,0.516-0.321,1.187-1.431,1.468l-0.451-0.009c-1.115-0.189-1.325-1.166-1.479-1.88c-0.426-1.98-0.887-4.052-1.322-5.952
	c-6.896-0.027-13.899-0.027-20.792,0c-0.211,0.998-0.448,2.032-0.685,3.06c-0.209,0.922-0.421,1.837-0.61,2.717l-0.037,0.177
	c-0.16,0.765-0.359,1.716-1.544,1.889H7.762V45.085z M32.534,30.001c-0.037-0.064-0.063-0.134-0.068-0.207
	c-0.014-0.135,0.029-0.271,0.117-0.372c0.089-0.102,0.216-0.163,0.352-0.171c0.358-0.017,0.729-0.021,1.103-0.021l1.612,0.01
	c0.144-0.019,0.195-0.063,0.185-0.049c0.079-0.1,0.169-0.189,0.24-0.243c0.019-0.025,0.048-0.108,0.084-0.221v-0.246
	c-0.121-0.354-0.291-0.456-0.46-0.487l-0.067-0.497L35.5,27.993l-0.153,0.002c-0.139,0-0.246-0.01-0.341-0.034
	c-0.096-0.021-0.182-0.071-0.249-0.142c-0.058-0.063-0.105-0.182-0.13-0.292c-0.05-0.133-0.041-0.264-0.032-0.354
	c-0.018-0.134-0.031-0.272-0.014-0.31c-0.023-0.127-0.027-0.259-0.027-0.436c-0.025-0.105-0.018-0.203-0.012-0.273
	c-0.002-0.011-0.003-0.037-0.003-0.065c-0.028-0.114-0.021-0.222-0.019-0.312c-0.021-0.234-0.033-0.479-0.025-0.638
	c-0.025-0.128-0.028-0.258-0.028-0.435c-0.026-0.107-0.021-0.206-0.013-0.274c-0.001-0.012-0.001-0.037-0.004-0.067
	c-0.026-0.115-0.021-0.223-0.018-0.311c-0.019-0.236-0.031-0.479-0.025-0.638c-0.025-0.128-0.027-0.26-0.027-0.437
	c-0.025-0.107-0.02-0.208-0.013-0.277c0-0.011-0.001-0.037-0.003-0.062c-0.026-0.111-0.021-0.214-0.014-0.28
	c-0.019-0.124-0.023-0.267-0.023-0.412c-0.023-0.104-0.016-0.197-0.006-0.259c-0.025-0.126-0.028-0.256-0.028-0.435
	c-0.024-0.107-0.019-0.208-0.013-0.279c-0.002-0.01-0.004-0.033-0.004-0.061c-0.026-0.112-0.021-0.21-0.014-0.279
	c-0.019-0.126-0.023-0.268-0.022-0.413c-0.025-0.104-0.019-0.2-0.007-0.258c-0.025-0.128-0.029-0.258-0.027-0.435
	c-0.025-0.107-0.02-0.206-0.012-0.275c-0.004-0.009-0.004-0.038-0.004-0.067c-0.027-0.107-0.021-0.209-0.016-0.277
	c-0.02-0.125-0.021-0.266-0.021-0.412c-0.023-0.105-0.018-0.2-0.006-0.261c-0.026-0.125-0.028-0.254-0.028-0.435
	c-0.025-0.105-0.021-0.208-0.013-0.278c-0.002-0.01-0.004-0.032-0.004-0.061c-0.027-0.11-0.02-0.21-0.013-0.279
	c-0.021-0.125-0.024-0.267-0.024-0.413c-0.023-0.104-0.017-0.196-0.006-0.259c-0.027-0.127-0.029-0.257-0.029-0.435
	c-0.025-0.107-0.018-0.207-0.012-0.278c0-0.007-0.002-0.033-0.004-0.059c-0.027-0.111-0.021-0.215-0.012-0.277
	c-0.02-0.127-0.025-0.271-0.023-0.418c-0.024-0.104-0.018-0.2-0.008-0.258c-0.027-0.128-0.029-0.259-0.027-0.434
	c-0.025-0.107-0.019-0.21-0.012-0.276c-0.002-0.012-0.004-0.037-0.006-0.065c-0.027-0.109-0.021-0.211-0.013-0.278
	c-0.019-0.125-0.022-0.268-0.022-0.415c-0.024-0.104-0.018-0.196-0.008-0.259c-0.023-0.123-0.029-0.253-0.027-0.43
	c-0.024-0.108-0.019-0.208-0.01-0.277c-0.004-0.009-0.004-0.034-0.005-0.063c-0.028-0.111-0.022-0.213-0.016-0.278
	c-0.021-0.128-0.024-0.268-0.022-0.415c-0.023-0.103-0.017-0.199-0.007-0.259c-0.026-0.127-0.03-0.257-0.028-0.436
	c-0.024-0.105-0.018-0.205-0.011-0.276c-0.002-0.01-0.004-0.035-0.004-0.063c-0.028-0.108-0.021-0.211-0.015-0.279
	c-0.02-0.126-0.023-0.267-0.022-0.411c-0.024-0.104-0.016-0.197-0.006-0.255c-0.026-0.129-0.028-0.26-0.028-0.438
	c-0.025-0.107-0.019-0.208-0.014-0.279c0-0.009,0-0.033,0-0.061c-0.029-0.112-0.021-0.213-0.016-0.279
	c-0.021-0.125-0.023-0.268-0.023-0.414c-0.023-0.103-0.018-0.198-0.007-0.26c-0.026-0.126-0.028-0.256-0.026-0.432
	c-0.027-0.109-0.021-0.208-0.014-0.28c-0.002-0.008-0.003-0.035-0.005-0.061c-0.026-0.111-0.021-0.214-0.011-0.28
	c-0.021-0.125-0.026-0.267-0.026-0.414c-0.022-0.104-0.017-0.199-0.004-0.257c-0.028-0.127-0.031-0.261-0.03-0.437
	c-0.021-0.106-0.016-0.207-0.012-0.276c0-0.011-0.002-0.034-0.002-0.063c-0.028-0.111-0.021-0.213-0.016-0.282
	c-0.021-0.127-0.023-0.271-0.023-0.424c-0.008-0.037-0.012-0.075-0.014-0.113l-0.657-0.001l-3.001,0.005
	c-0.903,0-1.803-0.003-2.699-0.019c-0.232-0.011-0.441-0.213-0.482-0.438c-0.063-0.337-0.218-0.49-0.478-0.538l-0.56-0.001
	l-1.617,0.004c-0.477,0-0.948-0.004-1.408-0.021c-0.25-0.008-0.456-0.204-0.475-0.455c-0.027-0.322-0.023-0.674-0.021-1.028
	c0.002-0.205,0.007-0.405,0.002-0.575c-0.008-0.073-0.027-0.13-0.074-0.201c-0.092-0.067-0.16-0.147-0.213-0.213
	c-0.028-0.021-0.12-0.051-0.238-0.088l-0.174-0.013c-0.145,0.039-0.265,0.096-0.264,0.07c-0.077,0.1-0.165,0.188-0.176,0.188
	c-0.081,0.137-0.118,0.203-0.122,0.304c-0.002,0.189-0.001,0.383,0,0.578c0.004,0.338,0.009,0.679-0.018,0.986
	c-0.022,0.252-0.226,0.443-0.474,0.451c-0.464,0.018-0.942,0.021-1.424,0.021l-2.115-0.011c-0.322,0.059-0.478,0.211-0.543,0.534
	l0,0c-0.008,0.038-0.02,0.078-0.033,0.114c-0.066,0.192-0.243,0.328-0.454,0.335c-0.598,0.017-1.211,0.022-1.83,0.022L11.25,4.57
	c-0.634,0-1.266,0.004-1.885,0.022C9.363,4.616,9.358,4.638,9.354,4.66l0,0c0.001,0.132,0.003,0.282-0.018,0.413
	c0.005,0.07,0.011,0.173-0.016,0.279C9.316,5.585,9.308,5.818,9.285,6.108c0.002,0.067,0.01,0.167-0.019,0.273h0.001
	c0,0.134,0.002,0.284-0.019,0.413C9.253,6.868,9.261,6.969,9.23,7.079C9.229,7.244,9.223,7.412,9.2,7.606
	c0.451,0.123,0.865,0.276,1.242,0.438c0.021-0.508,0.05-0.999,0.083-1.471V6.329c0-0.271,0.221-0.492,0.493-0.494
	c6.872-0.028,13.863-0.028,20.743,0c0.271,0,0.508,0.238,0.508,0.511v0.098c0.039,0.146,0.035,0.304,0.03,0.487
	c0.332,6.343,0.661,12.688,0.961,19.064c0.009,0.226-0.136,0.428-0.351,0.492c-0.215,0.067-0.449-0.021-0.568-0.214
	c-1.787-2.942-3.576-5.957-5.363-8.968l-2.097-3.521c-0.438,0.726-0.87,1.464-1.3,2.197c-0.359,0.615-0.723,1.231-1.088,1.841
	c0.699,0.889,1.461,1.915,2.083,3.087C24.619,20.954,24.66,21,24.7,21.045c0.094,0.104,0.141,0.166,0.084,0.16
	c1.521,0.146,2.511,0.809,3.268,1.425c0.26,0.204,0.469,0.421,0.619,0.638c0.465,0.573,0.793,1.146,1.037,1.812
	c0.154,0.415,0.23,0.847,0.305,1.26c0.053,0.306,0.105,0.614,0.194,0.914c0.035,0.116,0.092,0.194,0.203,0.339l0.149,0.203
	c0.379,0.549,0.588,1.171,0.64,1.896c0.028,0.113,0.032,0.236,0.016,0.356c0.136,0.621,0.272,1.235,0.412,1.854
	c0.185,0.816,0.367,1.638,0.54,2.465c0.033,0.145-0.006,0.296-0.096,0.41c-0.094,0.116-0.232,0.184-0.383,0.186
	c-2.926,0.031-6.145,0.031-9.138,0c-0.259-0.002-0.472-0.203-0.487-0.458c-0.028-0.396-0.025-0.82-0.02-1.244
	c0.001-0.299,0.007-0.601-0.003-0.884c-0.476-0.252-0.896-0.519-1.259-0.797c0,0.135,0.001,0.27,0.001,0.406
	c0.004,0.843,0.009,1.687-0.016,2.495c-0.009,0.267-0.223,0.479-0.49,0.48c-2.983,0.031-6.206,0.031-9.156,0
	c-0.149-0.002-0.287-0.068-0.379-0.186c-0.094-0.111-0.131-0.264-0.1-0.405c0.165-0.815,0.346-1.616,0.527-2.415
	c0.165-0.733,0.329-1.462,0.474-2.209c0-0.271,0.215-0.489,0.484-0.496c0.998-0.017,2.008-0.021,3.022-0.021l3.446,0.009
	l0.373-0.004c-0.224-0.523-0.367-1.07-0.44-1.655c-0.091-0.087-0.179-0.181-0.264-0.271c-1.781-0.927-3.209-2.188-4.547-3.375
	c-0.126-0.088-0.245-0.196-0.361-0.331c-0.005-0.006-0.011-0.011-0.017-0.015c-0.019-0.016-0.037-0.028-0.053-0.042
	c-0.158-0.145-0.312-0.295-0.385-0.392c-0.05-0.04-0.103-0.084-0.153-0.132c-0.342,0.59-0.692,1.172-1.042,1.756
	c-0.414,0.689-0.83,1.382-1.215,2.043c-0.137,0.295-0.598,0.395-0.826,0.158c-0.158-0.158-0.154-0.354-0.149-0.566
	c-0.004-0.066-0.009-0.168,0.019-0.278c0.01-0.455,0.036-0.903,0.07-1.448C9.6,24.621,9.594,24.52,9.622,24.408
	c0.01-0.453,0.034-0.899,0.067-1.445c-0.001-0.066-0.009-0.168,0.021-0.279c0.009-0.454,0.033-0.902,0.068-1.444
	c-0.004-0.062-0.01-0.155,0.014-0.257c-0.005-0.189,0.009-0.385,0.028-0.58c0.018-0.2,0.036-0.408,0.015-0.556l-0.387-0.479
	c-0.262-0.321-0.522-0.646-0.778-0.972c-0.002,0.02-0.007,0.041-0.013,0.061c0,0.229-0.012,0.462-0.033,0.756
	c0.003,0.065,0.009,0.164-0.02,0.272h0.002c0.001,0.133,0.002,0.285-0.018,0.414c0.002,0.07,0.01,0.173-0.019,0.283
	c-0.002,0.229-0.012,0.461-0.034,0.756c0.003,0.066,0.009,0.169-0.02,0.28h0.002c0.001,0.129,0.001,0.278-0.018,0.399
	c0.005,0.063,0.01,0.162-0.017,0.271c-0.003,0.236-0.012,0.474-0.036,0.773c0.004,0.065,0.01,0.165-0.018,0.273h0.001
	c0.002,0.13,0.002,0.283-0.018,0.406c0.004,0.063,0.009,0.166-0.018,0.274c-0.003,0.232-0.011,0.466-0.035,0.696
	c0.002,0.131,0.003,0.284-0.018,0.414c0.003,0.07,0.011,0.172-0.016,0.283c-0.008,0.339-0.026,0.674-0.053,1.025
	c0.001,0.132,0.002,0.285-0.02,0.413c0.004,0.069,0.011,0.173-0.016,0.282c-0.004,0.181-0.011,0.36-0.037,0.575
	c0.005,0.063,0,0.132-0.015,0.201c-0.012,0.215-0.163,0.399-0.375,0.451c-0.093,0.025-0.195,0.035-0.333,0.035
	c-0.006,0-0.276-0.01-0.28-0.01c-0.222,0.037-0.394,0.134-0.511,0.478v0.298c0.034,0.095,0.066,0.173,0.104,0.232
	c0.069,0.059,0.121,0.114,0.139,0.137c0.116,0.074,0.159,0.101,0.204,0.104h2.702c0.148,0,0.29,0.067,0.384,0.183
	c0.105,0.134,0.149,0.339,0.098,0.498c-0.012,0.031-0.025,0.063-0.043,0.093c-0.391,1.777-0.789,3.554-1.185,5.329
	c-0.602,2.688-1.203,5.382-1.776,7.981v0.239c0.004,0.09,0.033,0.153,0.113,0.289c0.045,0.043,0.088,0.085,0.126,0.129
	c0.082,0.046,0.178,0.09,0.283,0.121l0.217,0.006c0.383-0.059,0.477-0.272,0.65-1.109l0.037-0.177c0.19-0.89,0.4-1.812,0.613-2.73
	c0.267-1.157,0.533-2.322,0.763-3.438c0.047-0.228,0.25-0.393,0.482-0.393c7.157-0.03,14.435-0.03,21.593,0
	c0.229,0,0.427,0.159,0.479,0.384c0.462,2.009,0.958,4.229,1.413,6.354c0.171,0.799,0.28,1.043,0.597,1.104l0.236,0.015
	c0.441-0.118,0.55-0.326,0.576-0.548l0.009-0.124c-0.552-2.58-1.124-5.136-1.696-7.701C33.38,33.832,32.954,31.921,32.534,30.001
	L32.534,30.001z M19.79,33.98c0.013-0.652,0.009-1.32,0.006-1.987c-0.001-0.521-0.004-1.039-0.001-1.553
	c0.001-0.082,0.023-0.158,0.058-0.227c-0.033,0.006-0.067,0.012-0.101,0.012l-1.157,0.001l-3.446-0.007
	c-0.868,0-1.732,0.006-2.59,0.015c-0.136,0.652-0.281,1.294-0.428,1.939c-0.134,0.601-0.271,1.202-0.398,1.807
	C14.353,34.002,17.153,34.002,19.79,33.98L19.79,33.98z"/>
<path fill="#FFFFFF" d="M14.836,10.737c0,0.17,0,0.338,0,0.506c0.004,0.11,0.219,0.231,0.349,0.331
	c0.825,0.63,1.658,1.316,2.422,1.967c0.128,0,0.256,0,0.384,0c1.503-0.171,2.467-0.889,2.7-2.335c0-0.145,0-0.291,0-0.435
	c-0.01-0.28-0.095-0.484-0.174-0.697c-0.073-0.037-0.088-0.133-0.123-0.208c-0.068-0.188-0.198-0.313-0.314-0.453
	c-0.006,0-0.01,0-0.017,0c-0.073-0.057-0.136-0.121-0.191-0.192c-0.451-0.416-1.027-0.704-1.832-0.768c-0.192,0-0.381,0-0.574,0
	C16.695,8.521,16.13,8.79,15.69,9.187c-0.094,0.098-0.171,0.21-0.296,0.278C15.123,9.804,14.888,10.18,14.836,10.737z"/>
<path fill="#FFFFFF" d="M28.304,28.716c-0.181-0.276-0.322-0.578-0.419-0.956c-0.188-0.772-0.194-1.497-0.538-2.194
	c-0.074-0.046-0.099-0.136-0.121-0.229c-0.111-0.231-0.273-0.413-0.418-0.608c-0.009,0-0.014,0-0.02,0
	c-0.1-0.088-0.191-0.179-0.277-0.279c0-0.008,0-0.012,0-0.02c-0.539-0.436-1.134-0.818-2.058-0.87c-0.14,0-0.278,0-0.419,0
	c-0.063,0.007-0.152-0.015-0.189,0.019c-0.006,0-0.013,0-0.018,0c-0.194-0.154-0.335-0.363-0.541-0.505
	c-0.398,0.219-0.514-0.419-0.663-0.73c-0.849-1.769-2.12-3.267-3.345-4.583c-0.104-0.052-0.167-0.147-0.244-0.227
	c-0.025-0.052-0.08-0.07-0.104-0.123c-0.349-0.336-0.692-0.679-1.028-1.027c-0.045-0.017-0.058-0.069-0.104-0.088
	c-0.172-0.17-0.358-0.326-0.524-0.505c-1.941-1.773-3.975-3.479-6.375-4.861c-0.372-0.214-0.787-0.445-1.22-0.645
	c-0.463-0.216-0.968-0.396-1.498-0.47c-0.145,0-0.291,0-0.436,0C6.75,9.893,7.133,11.29,7.398,11.957
	c0.545,1.383,1.406,2.603,2.193,3.71c1.145,1.607,2.331,3.035,3.556,4.32c0.183,0.171,0.345,0.364,0.521,0.541
	c0.033,0.059,0.092,0.084,0.124,0.14c0.32,0.306,0.633,0.62,0.94,0.94c0.055,0.032,0.081,0.093,0.138,0.123
	c0.168,0.164,0.348,0.315,0.506,0.487c1.234,1.093,2.612,2.388,4.287,3.153c0.306,0.142,0.941,0.233,0.678,0.646
	c0.005,0,0.012,0,0.019,0c0.181,0.168,0.354,0.341,0.521,0.522c0,0.029,0,0.059,0,0.089c0,0.202,0,0.405,0,0.607
	c0.076,0.89,0.435,1.493,0.872,2.021c0.006,0,0.013,0,0.017,0c0.101,0.085,0.195,0.176,0.28,0.279c0,0.005,0,0.013,0,0.017
	c1.24,1.068,3.1,1.522,5.209,1.725c0.122,0,0.245,0,0.366,0c0.67-0.102,1.05-0.492,1.185-1.132c0-0.149,0-0.303,0-0.454
	C28.772,29.287,28.517,29.048,28.304,28.716z M27.96,30.044c-0.063,0.238-0.169,0.338-0.407,0.384h-0.294
	c-2.125-0.207-3.603-0.667-4.56-1.439c-0.113-0.138-0.238-0.26-0.373-0.374c-0.285-0.362-0.542-0.797-0.598-1.45l0.003-0.866
	l-0.225-0.333c-0.086-0.095-0.174-0.187-0.264-0.276c-0.011-0.077-0.029-0.144-0.046-0.194c-0.188-0.544-0.715-0.729-1.031-0.84
	c-0.053-0.019-0.104-0.035-0.146-0.054c-1.42-0.649-2.663-1.757-3.76-2.734l-0.32-0.285c-0.054-0.064-0.178-0.181-0.304-0.297
	c0,0-0.313-0.293-0.338-0.315c-0.272-0.283-0.548-0.561-0.83-0.833l-0.105-0.108l-0.011-0.02l-0.271-0.283
	c-0.115-0.124-0.23-0.247-0.353-0.361c-1.193-1.254-2.364-2.676-3.443-4.192c-0.741-1.043-1.581-2.226-2.095-3.529
	c-0.17-0.427-0.236-0.783-0.241-0.981l0.17,0c0.368,0.058,0.762,0.186,1.203,0.391c0.412,0.189,0.803,0.409,1.155,0.611
	c2.444,1.408,4.519,3.192,6.225,4.752c0.065,0.075,0.188,0.189,0.311,0.303l0.311,0.299c0,0,0.024,0.012,0.027,0.014
	c0.287,0.296,0.578,0.587,0.874,0.875l0.007,0.016l0.095,0.092l0.005,0.011l0.093,0.097c0.081,0.091,0.174,0.198,0.305,0.293
	c1.107,1.194,2.331,2.633,3.128,4.293c0.021,0.044,0.04,0.098,0.062,0.155c0.116,0.31,0.381,1.012,1.078,1.095
	c0.096,0.1,0.193,0.196,0.303,0.283l0.231,0.185h0.622l0.027-0.023l0.273,0.005c0.56,0.032,0.959,0.242,1.413,0.594
	c0.11,0.129,0.229,0.246,0.356,0.359l0.019,0.025c0.074,0.096,0.141,0.182,0.188,0.261c0.033,0.111,0.093,0.263,0.207,0.405
	c0.135,0.32,0.194,0.675,0.262,1.079c0.046,0.271,0.093,0.546,0.161,0.827c0.115,0.45,0.289,0.846,0.533,1.22
	c0.057,0.089,0.12,0.178,0.183,0.265c0.129,0.178,0.183,0.257,0.188,0.324L27.96,30.044z"/>
<path fill="#FFFFFF" d="M23.86,24.974c-0.146,0.032-0.297,0.244-0.436,0.381c-0.385,0.39-0.813,0.774-1.148,1.168
	c0.012,0.088-0.028,0.123-0.019,0.21c-0.028,0.064-0.028,0.247,0,0.313c0.03,0.518,0.22,0.875,0.455,1.186
	c0.074,0.127,0.169,0.236,0.294,0.313c1.059,0.854,2.664,1.161,4.375,1.357c0.018-0.077-0.064-0.151-0.105-0.208
	c-0.352-0.482-0.627-1.062-0.783-1.793c-0.172-0.813-0.225-1.714-0.73-2.229c0-0.007,0-0.011,0-0.02
	c-0.058-0.068-0.121-0.136-0.191-0.19c-0.006,0-0.014,0-0.02,0c-0.287-0.246-0.617-0.449-1.097-0.504
	c-0.073-0.058-0.345-0.058-0.419,0C23.96,24.942,23.938,24.985,23.86,24.974z"/>
</svg>
