<?xml version="1.0" encoding="utf-8"?>
<!-- Generator: Adobe Illustrator 14.0.0, SVG Export Plug-In . SVG Version: 6.00 Build 43363)  -->
<!DOCTYPE svg PUBLIC "-//W3C//DTD SVG 1.1//EN" "http://www.w3.org/Graphics/SVG/1.1/DTD/svg11.dtd">
<svg version="1.1" id="Layer_1" xmlns="http://www.w3.org/2000/svg" xmlns:xlink="http://www.w3.org/1999/xlink" x="0px" y="0px"
	 width="55.658px" height="57.333px" viewBox="0 -9.397 55.658 57.333" enable-background="new 0 -9.397 55.658 57.333"
	 xml:space="preserve">
<g>
	<ellipse fill="#FFFFFF" cx="50.761" cy="-2.107" rx="2.286" ry="0.695"/>
	<path fill="#FFFFFF" d="M36.474,23.848c0.104-0.144,0.135-0.314,0.079-0.479c-0.382-1.13-1.122-2.34-1.904-3.621l-0.207-0.337
		c-0.124-0.203-0.251-0.429-0.385-0.676c-0.556-1.021-1.24-2.285-2.46-2.822c-0.871-0.387-2.365-0.438-3.807-0.487
		c-0.685-0.02-1.336-0.041-1.836-0.104c-0.64-0.072-1.483-0.111-2.598-0.111c-1.313,0-2.803,0.052-4.223,0.103l-1.64,0.048
		c-2.19,0.058-4.265,0.103-5.279,0.555c-1.767,0.778-2.813,3.059-3.738,5.066c-0.398,0.868-0.775,1.688-1.159,2.265
		c-0.107,0.165-0.115,0.375-0.017,0.546c0.095,0.173,0.276,0.314,0.476,0.265c9.862-0.419,18.654-0.419,28.259,0
		c0.006,0,0.013,0,0.022,0C36.22,24.055,36.375,23.979,36.474,23.848z M23.357,16.248c0.993,0,1.754,0.038,2.333,0.103l0,0
		l7.662,6.564c-8.28-0.294-16.104-0.284-24.674,0.059c0.251-0.479,0.493-1.009,0.746-1.556c0.849-1.844,1.808-3.933,3.209-4.548
		c0.828-0.364,2.984-0.419,4.888-0.47l1.647-0.048C20.575,16.304,22.057,16.248,23.357,16.248z M35.274,22.979
		c-0.087,0-0.169-0.007-0.256-0.01l-7.594-6.514c0.111,0.004,0.216,0.008,0.331,0.015c1.279,0.051,2.735,0.095,3.421,0.398
		c0.894,0.395,1.463,1.441,1.966,2.357c0.142,0.264,0.276,0.508,0.409,0.729l0.205,0.334C34.361,21.278,34.9,22.164,35.274,22.979z"
		/>
	<path fill="#FFFFFF" d="M1.875,37.899c-0.105,2.031-0.215,4.133,1.756,4.688c0.75,0.214,2.55,0.234,3.285,0.234
		c0.571,0,3.467-0.021,4.454-0.385c0.741-0.277,1.322-0.971,1.513-1.751H30.82c0.521,1.938,2.46,1.938,3.769,1.938l1.884-0.016
		c0.315,0,0.64,0.002,0.961,0.01c1.688,0.047,3.443,0.117,4.156-1.096c0.615-1.041,0.487-2.371,0.361-3.644
		c-0.08-0.841-0.164-1.712-0.024-2.429c0.137-0.694,0.473-1.373,0.826-2.092c0.277-0.552,0.545-1.115,0.759-1.729l2.421,2.078
		c0.321,1.229,2.577,1.88,4.829,1.88c2.436,0,4.896-0.749,4.896-2.171V-2.105c0-1.507-2.745-2.211-5.33-2.122l0,0l-0.579-0.055
		H26.596l-6.125,16.146l1.478,1.271c-1.302,0.021-2.65,0.072-3.913,0.124l-1.002,0.044c-3.147,0.124-5.868,0.233-7.544,1.58
		c-2.021,1.632-3.428,4.487-4.469,6.707c-0.787-1.063-2.373-1.513-4.008-1.028c-0.079,0.021-0.146,0.066-0.207,0.117
		c-0.695,0.649-0.943,1.558-0.68,2.501c0.2,0.723,0.677,1.349,1.275,1.738c-0.657,0.68-1.099,1.632-1.292,2.803
		c-0.453,2.752,0.561,6.074,1.782,7.693C1.964,36.226,1.919,37.073,1.875,37.899z M54.615-2.105c0,0.342-1.311,1.128-3.854,1.128
		c-2.54,0-3.853-0.786-3.853-1.128c0-0.068,0.066-0.148,0.16-0.243c0.019-0.01,0.031-0.025,0.051-0.041
		c0.11-0.093,0.271-0.188,0.471-0.282c0.029-0.01,0.063-0.025,0.097-0.042c0.477-0.2,1.174-0.391,2.104-0.479l0.165-0.01
		c0.253-0.016,0.521-0.031,0.805-0.031C53.305-3.234,54.615-2.441,54.615-2.105z M46.909,33.418V-0.439
		c0.052,0.031,0.124,0.051,0.182,0.079c0.161,0.079,0.324,0.151,0.508,0.21c0.09,0.034,0.179,0.063,0.268,0.092
		c0.211,0.063,0.431,0.117,0.66,0.168c0.069,0.013,0.133,0.028,0.2,0.044c0.645,0.118,1.34,0.188,2.035,0.188
		c0.701,0,1.395-0.07,2.038-0.188c0.067-0.016,0.13-0.031,0.195-0.044c0.232-0.051,0.454-0.104,0.667-0.168
		c0.09-0.028,0.176-0.058,0.263-0.092c0.185-0.059,0.35-0.131,0.513-0.21c0.056-0.028,0.124-0.048,0.179-0.079v33.855
		c0,0.334-1.311,1.127-3.854,1.127C48.221,34.545,46.909,33.75,46.909,33.418z M43.8,30.511c0.017-0.11,0.047-0.213,0.058-0.321
		c0.238-2.125-0.41-4.183-1.608-5.3c0.077-0.051,0.157-0.103,0.239-0.152c0.422-0.26,0.9-0.555,1.179-1.101
		c0.038-0.073,0.058-0.153,0.058-0.229l0.005-0.228c0.021-0.935,0.046-1.896-0.625-2.402c-1.523-0.718-3.293-0.423-4.075,0.45
		c-0.045,0.045-0.082,0.089-0.117,0.144c-0.228-0.433-0.447-0.886-0.67-1.35c-0.863-1.78-1.757-3.618-3.509-5.002
		c-1.646-1.298-4.051-1.443-6.374-1.583c-0.771-0.039-1.537-0.09-2.27-0.172c-0.684-0.089-1.528-0.13-2.552-0.146l-1.492-1.275
		h4.762V-3.038l0.212-0.196h19.497c-0.025,0.022-0.034,0.041-0.06,0.063c-0.146,0.123-0.266,0.251-0.356,0.394
		c-0.023,0.031-0.057,0.063-0.072,0.104c-0.097,0.174-0.159,0.36-0.159,0.566v34.384L43.8,30.511z M1.142,27.891
		c0.207-1.263,0.724-2.167,1.531-2.678c0.181-0.114,0.271-0.324,0.236-0.536c-0.038-0.207-0.2-0.371-0.41-0.416
		c-0.618-0.127-1.185-0.688-1.371-1.368c-0.086-0.301-0.153-0.876,0.303-1.368c1.505-0.394,2.849,0.232,3.063,1.413
		c0.042,0.225,0.22,0.394,0.444,0.425c0.23,0.035,0.441-0.089,0.538-0.299l0.317-0.669c1.014-2.171,2.405-5.132,4.35-6.7
		c1.404-1.132,3.967-1.237,6.931-1.352l1.009-0.045c1.576-0.066,3.307-0.137,4.877-0.137c1.251,0,2.235,0.044,3.005,0.13
		c0.751,0.093,1.54,0.144,2.33,0.188c2.163,0.127,4.405,0.263,5.791,1.354c1.563,1.233,2.402,2.971,3.214,4.641
		c0.407,0.848,0.832,1.717,1.343,2.514c0.131,0.202,0.384,0.292,0.61,0.213c0.228-0.083,0.371-0.309,0.348-0.547
		c-0.035-0.304,0.031-0.546,0.205-0.731c0.467-0.526,1.906-0.64,2.77-0.251c0.143,0.127,0.125,0.914,0.113,1.479l-0.003,0.105
		c-0.163,0.23-0.438,0.398-0.747,0.596c-0.306,0.189-0.647,0.404-0.916,0.721c-0.102,0.114-0.146,0.268-0.12,0.42
		c0.023,0.148,0.113,0.285,0.244,0.365c1.024,0.615,1.931,2.438,1.675,4.713c-0.118,1.041-0.564,1.955-1.002,2.828
		c-0.367,0.748-0.751,1.522-0.917,2.352c-0.165,0.875-0.075,1.818,0.015,2.727c0.113,1.168,0.217,2.27-0.225,3.018
		c-0.413,0.695-1.92,0.615-3.233,0.588c-0.332-0.01-0.661-0.022-0.985-0.022l-1.884,0.022c-2.057,0-2.665-0.32-2.822-1.491
		c-0.036-0.265-0.256-0.45-0.518-0.45H12.427c-0.284,0-0.519,0.229-0.521,0.514c-0.009,0.612-0.465,1.144-0.897,1.303
		c-0.5,0.189-2.219,0.326-4.092,0.326c-1.401,0-2.583-0.08-3.008-0.201c-1.108-0.313-1.102-1.516-0.99-3.627
		c0.048-0.914,0.1-1.862-0.003-2.799c-0.01-0.096-0.05-0.189-0.112-0.267C1.672,33.487,0.735,30.348,1.142,27.891z"/>
	<path fill="#FFFFFF" d="M39.376,25.887c0,0-11.409,0.755-8.339,6.516c0,0-9.909-5.078-25.437-5.887
		C13.19,24.208,22.229,23.15,39.376,25.887z"/>
	<path fill="#FFFFFF" d="M39.219,27.52c1.078,0.293,1.763,0.943,1.646,2.336c-0.227,2.774-7.834,3.066-7.969,0.547
		C32.788,28.372,37.52,27.067,39.219,27.52z"/>
	<path fill="#FFFFFF" d="M5.967,27.52c1.645,0.182,5.59,0.973,4.811,3.432c-0.3,0.942-4.529,1.584-6.458,0.828
		c-0.896-0.353-1.354-1.484-1.374-2.06C2.88,27.895,3.892,27.293,5.967,27.52z"/>
	<path fill="#FFFFFF" d="M15.438,35.223c-0.089,0-0.161-0.072-0.161-0.152c0-0.099,0.072-0.164,0.161-0.164h13.033
		c0.088,0,0.161,0.065,0.161,0.164c0,0.08-0.073,0.152-0.161,0.152H15.438z"/>
	<path fill="#FFFFFF" d="M14.808,35.944h14.291c0.092,0,0.167,0.073,0.167,0.166c0,0.092-0.075,0.17-0.167,0.17H14.808
		c-0.091,0-0.167-0.078-0.167-0.17C14.641,36.017,14.718,35.944,14.808,35.944z"/>
	<path fill="#FFFFFF" d="M15.438,37h13.033c0.088,0,0.161,0.072,0.161,0.162c0,0.082-0.073,0.154-0.161,0.154H15.438
		c-0.089,0-0.161-0.072-0.161-0.154C15.276,37.073,15.349,37,15.438,37z"/>
</g>
</svg>
