<?xml version="1.0" encoding="utf-8"?>
<!-- Generator: Adobe Illustrator 14.0.0, SVG Export Plug-In . SVG Version: 6.00 Build 43363)  -->
<!DOCTYPE svg PUBLIC "-//W3C//DTD SVG 1.1//EN" "http://www.w3.org/Graphics/SVG/1.1/DTD/svg11.dtd">
<svg version="1.1" id="Layer_1" xmlns="http://www.w3.org/2000/svg" xmlns:xlink="http://www.w3.org/1999/xlink" x="0px" y="0px"
	 width="208.427px" height="70.406px" viewBox="0 0 208.427 70.406" enable-background="new 0 0 208.427 70.406"
	 xml:space="preserve">
<g>
	<g>
		<path fill="#FFD400" d="M165.033,63.352c1.582-1.08,2.375-2.941,2.375-5.58c0-1.535-0.266-2.697-0.793-3.488
			c-0.527-0.795-1.416-1.334-2.664-1.621c-1.247-0.289-3.049-0.434-5.398-0.434l-7.773-0.359c-1.585,1.15-2.654,2.162-3.205,3.023
			c-0.551,0.863-0.828,2.018-0.828,3.456c0,2.495,0.731,4.224,2.196,5.185c1.464,0.958,4.042,1.438,7.739,1.438
			C160.666,64.972,163.448,64.433,165.033,63.352z"/>
	</g>
	<polygon fill="#004FFF" points="36.598,4.907 0,32.032 0,37.176 36.598,64.208 36.598,57.757 5.208,34.575 36.598,11.305 	"/>
	<g>
		<g>
			<path fill="#FFFFFF" d="M38.797,57.685h0.772l1.138,6.021h0.28l1.36-5.963h0.869l1.36,5.963h0.28l1.139-6.021h0.762l-1.351,6.677
				h-1.36l-1.264-5.702l-1.264,5.702h-1.36L38.797,57.685z"/>
			<path fill="#FFFFFF" d="M49.584,58.341v2.306h2.74v0.646h-2.74v2.412h3.319v0.656h-4.062v-6.677h4.062v0.656H49.584z"/>
			<path fill="#FFFFFF" d="M55.142,57.685h2.421c0.675,0,1.176,0.14,1.5,0.42c0.325,0.279,0.487,0.715,0.487,1.307
				c0,0.393-0.071,0.706-0.212,0.941c-0.142,0.234-0.357,0.423-0.646,0.564c0.36,0.128,0.627,0.321,0.801,0.578
				c0.174,0.258,0.261,0.605,0.261,1.042c0,0.631-0.175,1.093-0.526,1.385c-0.351,0.293-0.864,0.439-1.539,0.439h-2.547V57.685z
				 M57.602,60.647c0.405,0,0.705-0.098,0.897-0.294s0.29-0.491,0.29-0.883c0-0.399-0.1-0.687-0.299-0.864
				c-0.199-0.177-0.518-0.265-0.955-0.265h-1.65v2.306H57.602z M57.66,63.706c0.438,0,0.77-0.093,0.999-0.28
				C58.886,63.239,59,62.937,59,62.519c0-0.45-0.125-0.768-0.376-0.95c-0.251-0.184-0.588-0.275-1.013-0.275h-1.727v2.412H57.66z"/>
			<path fill="#FFFFFF" d="M69.078,58.128c0.364,0.296,0.606,0.673,0.729,1.129c0.122,0.457,0.184,0.991,0.184,1.602
				c0,1.223-0.201,2.112-0.603,2.668c-0.402,0.557-1.024,0.835-1.867,0.835h-2.383v-6.677h2.383
				C68.195,57.685,68.715,57.833,69.078,58.128z M69.228,60.927c0-0.901-0.139-1.557-0.415-1.969
				c-0.276-0.411-0.708-0.617-1.293-0.617h-1.64v5.364h1.64C68.659,63.706,69.228,62.779,69.228,60.927z"/>
			<path fill="#FFFFFF" d="M73.067,58.341v2.306h2.74v0.646h-2.74v2.412h3.319v0.656h-4.062v-6.677h4.062v0.656H73.067z"/>
			<path fill="#FFFFFF" d="M78.036,57.685h0.772l1.534,6.021h0.54l1.534-6.021h0.772l-1.747,6.677h-1.659L78.036,57.685z"/>
			<path fill="#FFFFFF" d="M85.948,58.341v2.306h2.74v0.646h-2.74v2.412h3.319v0.656h-4.062v-6.677h4.062v0.656H85.948z"/>
			<path fill="#FFFFFF" d="M95.181,63.696v0.666h-3.676v-6.677h0.743v6.011H95.181z"/>
			<path fill="#FFFFFF" d="M97.7,64.101c-0.386-0.238-0.661-0.603-0.825-1.095s-0.246-1.144-0.246-1.954
				c0-0.804,0.083-1.458,0.251-1.964c0.167-0.505,0.444-0.881,0.83-1.129c0.386-0.247,0.904-0.371,1.554-0.371
				c0.649,0,1.167,0.124,1.553,0.371c0.386,0.248,0.664,0.624,0.834,1.129c0.17,0.506,0.256,1.166,0.256,1.983
				c0,0.816-0.082,1.47-0.246,1.958c-0.164,0.489-0.438,0.85-0.82,1.081c-0.382,0.231-0.905,0.348-1.568,0.348
				C98.61,64.458,98.085,64.339,97.7,64.101z M100.406,63.532c0.267-0.18,0.455-0.465,0.564-0.854
				c0.109-0.39,0.164-0.925,0.164-1.606s-0.056-1.226-0.169-1.631c-0.112-0.405-0.304-0.706-0.574-0.902
				c-0.271-0.196-0.646-0.294-1.129-0.294s-0.859,0.097-1.129,0.289c-0.27,0.193-0.462,0.492-0.574,0.897
				c-0.113,0.405-0.169,0.945-0.169,1.621s0.055,1.211,0.164,1.606s0.301,0.685,0.574,0.868s0.654,0.275,1.143,0.275
				S100.139,63.712,100.406,63.532z"/>
			<path fill="#FFFFFF" d="M104.231,57.685h2.441c0.727,0,1.264,0.175,1.611,0.525c0.347,0.351,0.521,0.893,0.521,1.626
				c0,1.519-0.711,2.277-2.132,2.277h-1.698v2.248h-0.743V57.685z M106.663,61.458c0.92,0,1.38-0.54,1.38-1.621
				c0-0.521-0.109-0.9-0.328-1.139c-0.219-0.237-0.569-0.356-1.052-0.356h-1.688v3.116H106.663z"/>
			<path fill="#FFFFFF" d="M117.382,57.685v6.677h-0.744v-5.886h-0.135l-1.939,5.645h-0.83l-1.938-5.645h-0.136v5.886h-0.742v-6.677
				h1.341l1.892,5.653l1.891-5.653H117.382z"/>
			<path fill="#FFFFFF" d="M120.73,58.341v2.306h2.74v0.646h-2.74v2.412h3.318v0.656h-4.062v-6.677h4.062v0.656H120.73z"/>
			<path fill="#FFFFFF" d="M131.169,57.685v6.677h-1.36l-2.595-6.021h-0.184v6.021h-0.743v-6.677h1.39l2.566,6.021h0.192v-6.021
				H131.169z"/>
			<path fill="#FFFFFF" d="M135.134,58.351h-2.055v-0.666h4.824v0.666h-2.036v6.011h-0.733V58.351z"/>
		</g>
	</g>
	<g>
		<g>
			<path fill="#2533AF" d="M16.434,52.273c-2.115-1.269-3.626-3.261-4.537-5.974c-0.911-2.712-1.368-6.324-1.368-10.834
				c0-5.712,0.961-10.271,2.879-13.677c1.921-3.41,5.639-5.112,11.161-5.112c1.438,0,2.926,0.07,4.461,0.214
				c1.538,0.146,3.624,0.457,6.266,0.938l-0.217,4.391c-3.793-0.431-6.696-0.647-8.711-0.647c-2.736,0-4.836,0.419-6.298,1.259
				c-1.464,0.841-2.496,2.255-3.096,4.248s-0.899,4.836-0.899,8.53c0,3.503,0.287,6.228,0.864,8.172
				c0.574,1.942,1.62,3.36,3.131,4.247c1.512,0.889,3.706,1.33,6.585,1.33l8.495-0.646l0.217,4.463
				c-4.608,0.672-8.062,1.008-10.367,1.008C21.399,54.182,18.543,53.543,16.434,52.273z"/>
		</g>
	</g>
	<g>
		<g>
			<path fill="#752DF9" d="M26.999,53.761c-3.664,0-6.624-0.665-8.798-1.975c-2.197-1.318-3.789-3.409-4.731-6.215
				c-0.923-2.75-1.391-6.443-1.391-10.979c0-5.761,0.988-10.437,2.937-13.897c1.997-3.544,5.884-5.341,11.553-5.341
				c1.457,0,2.972,0.072,4.503,0.216c1.561,0.148,3.682,0.466,6.305,0.942c0.222,0.041,0.38,0.239,0.369,0.465l-0.217,4.391
				c-0.006,0.125-0.063,0.24-0.158,0.321c-0.082,0.069-0.186,0.107-0.292,0.107c-0.017,0-0.034,0-0.051-0.002
				c-3.768-0.428-6.681-0.645-8.661-0.645c-2.646,0-4.689,0.404-6.074,1.2c-1.354,0.777-2.326,2.119-2.89,3.987
				c-0.584,1.938-0.88,4.764-0.88,8.4c0,3.447,0.285,6.153,0.846,8.044c0.539,1.82,1.523,3.162,2.928,3.988
				c1.434,0.841,3.573,1.268,6.357,1.268c0,0,8.483-0.648,8.495-0.648c0.109,0,0.215,0.04,0.298,0.113
				c0.091,0.08,0.146,0.193,0.151,0.315l0.217,4.465c0.011,0.231-0.155,0.434-0.384,0.467C32.744,53.43,29.332,53.761,26.999,53.761
				L26.999,53.761z"/>
		</g>
		<path fill="#FFFFFF" d="M26.568,15.804c1.438,0,2.926,0.07,4.461,0.214c1.538,0.146,3.624,0.457,6.266,0.938l-0.217,4.391
			c-3.793-0.431-6.696-0.647-8.711-0.647c-2.736,0-4.836,0.419-6.298,1.259c-1.464,0.841-2.496,2.255-3.096,4.248
			s-0.899,4.836-0.899,8.53c0,3.502,0.287,6.227,0.864,8.172c0.574,1.942,1.62,3.359,3.131,4.248c1.512,0.887,3.706,1.33,6.585,1.33
			l8.495-0.648l0.217,4.465c-4.608,0.67-8.062,1.008-10.367,1.008c-3.6,0-6.456-0.639-8.565-1.91
			c-2.115-1.269-3.626-3.26-4.537-5.973s-1.368-6.324-1.368-10.835c0-5.712,0.961-10.271,2.879-13.677
			C17.329,17.506,21.047,15.804,26.568,15.804 M26.568,14.904c-5.843,0-9.862,1.874-11.945,5.57
			c-1.987,3.529-2.995,8.279-2.995,14.119c0,4.584,0.476,8.327,1.415,11.122c0.978,2.91,2.635,5.083,4.927,6.458
			c2.243,1.353,5.281,2.038,9.028,2.038c2.355,0,5.788-0.332,10.496-1.017c0.459-0.066,0.792-0.471,0.77-0.935l-0.217-4.465
			c-0.012-0.242-0.121-0.47-0.304-0.631c-0.165-0.146-0.376-0.225-0.595-0.225c-0.023,0-0.045,0-0.068,0.002l-8.46,0.646
			c-2.686-0.003-4.737-0.409-6.096-1.206c-1.32-0.776-2.212-1.996-2.724-3.727c-0.549-1.851-0.827-4.515-0.827-7.917
			c0-3.593,0.29-6.375,0.861-8.271c0.536-1.779,1.414-2.999,2.683-3.727c1.316-0.756,3.284-1.14,5.85-1.14
			c1.962,0,4.859,0.216,8.61,0.642c0.034,0.004,0.068,0.006,0.102,0.006c0.212,0,0.419-0.075,0.583-0.214
			c0.189-0.161,0.304-0.394,0.316-0.642L38.194,17c0.022-0.451-0.293-0.849-0.738-0.93c-2.635-0.479-4.769-0.798-6.342-0.948
			C29.568,14.978,28.039,14.904,26.568,14.904L26.568,14.904z"/>
	</g>
	<polygon fill="#004FFF" points="171.828,4.907 208.427,32.032 208.427,37.176 171.828,64.208 171.828,57.757 203.218,34.575 
		171.828,11.305 	"/>
	<g>
		<path fill="#2533AF" d="M26.568,16.054c1.435,0,2.928,0.072,4.437,0.213c1.498,0.143,3.525,0.444,6.029,0.896l-0.192,3.906
			c-3.666-0.411-6.517-0.619-8.475-0.619c-2.77,0-4.931,0.435-6.423,1.292c-1.514,0.87-2.595,2.347-3.211,4.392
			c-0.604,2.003-0.91,4.897-0.91,8.603c0,3.514,0.294,6.288,0.875,8.244c0.59,1.995,1.682,3.474,3.245,4.393
			c1.542,0.904,3.798,1.363,6.724,1.363c0.002,0,0.004,0,0.007,0l8.238-0.629l0.193,3.981c-4.477,0.646-7.876,0.973-10.106,0.973
			c-3.535,0-6.373-0.631-8.437-1.875c-2.051-1.229-3.541-3.194-4.429-5.838c-0.899-2.677-1.355-6.296-1.355-10.755
			c0-5.639,0.958-10.2,2.847-13.554C17.489,17.731,21.171,16.054,26.568,16.054 M26.568,15.804c-5.521,0-9.239,1.702-11.161,5.112
			c-1.918,3.406-2.879,7.964-2.879,13.677c0,4.511,0.457,8.123,1.368,10.835s2.422,4.704,4.537,5.973
			c2.109,1.271,4.965,1.91,8.565,1.91c2.305,0,5.759-0.338,10.367-1.008l-0.217-4.465l-8.495,0.648c-2.88,0-5.074-0.443-6.585-1.33
			c-1.511-0.889-2.557-2.306-3.131-4.248c-0.577-1.945-0.864-4.67-0.864-8.172c0-3.694,0.299-6.538,0.899-8.53
			s1.632-3.407,3.096-4.248c1.462-0.84,3.562-1.259,6.298-1.259c2.015,0,4.918,0.217,8.711,0.647l0.217-4.391
			c-2.642-0.48-4.728-0.791-6.266-0.938C29.495,15.875,28.007,15.804,26.568,15.804L26.568,15.804z"/>
	</g>
	<g>
		<path fill="#FFD400" d="M52.58,47.299c1.392-0.887,2.364-2.305,2.915-4.247c0.554-1.944,0.829-4.692,0.829-8.243
			c0-3.744-0.287-6.623-0.864-8.639c-0.577-2.019-1.562-3.457-2.953-4.321c-1.391-0.864-3.383-1.294-5.973-1.294
			c-2.592,0-4.596,0.431-6.011,1.294c-1.418,0.864-2.426,2.302-3.026,4.321c-0.601,2.016-0.899,4.895-0.899,8.639
			c0,3.503,0.275,6.24,0.829,8.205c0.55,1.969,1.535,3.398,2.95,4.285c1.415,0.889,3.468,1.33,6.157,1.33
			C49.174,48.629,51.189,48.188,52.58,47.299z"/>
	</g>
	<g>
		<g>
			<path fill="#2533AF" d="M35.319,52.273c-2.255-1.269-3.864-3.249-4.825-5.938c-0.961-2.686-1.438-6.238-1.438-10.653
				c0-4.561,0.504-8.22,1.512-10.979s2.64-4.775,4.895-6.046c2.255-1.271,5.255-1.91,8.999-1.91c3.791,0,6.802,0.647,9.034,1.945
				c2.232,1.295,3.852,3.311,4.859,6.046s1.512,6.383,1.512,10.944c0,4.415-0.48,7.967-1.438,10.653
				c-0.961,2.689-2.557,4.67-4.786,5.938c-2.232,1.271-5.293,1.909-9.181,1.909C40.621,54.182,37.574,53.543,35.319,52.273z
				 M50.58,48.172c1.392-0.889,2.364-2.306,2.915-4.248c0.554-1.945,0.829-4.693,0.829-8.243c0-3.744-0.287-6.623-0.864-8.639
				c-0.577-2.019-1.562-3.457-2.953-4.321c-1.391-0.864-3.383-1.294-5.973-1.294c-2.592,0-4.596,0.431-6.011,1.294
				c-1.418,0.864-2.426,2.302-3.026,4.321c-0.601,2.016-0.899,4.895-0.899,8.639c0,3.502,0.275,6.239,0.829,8.205
				c0.55,1.969,1.535,3.397,2.95,4.286c1.415,0.887,3.468,1.33,6.157,1.33C47.174,49.502,49.189,49.059,50.58,48.172z"/>
		</g>
	</g>
	<g>
		<g>
			<path fill="#752DF9" d="M46.461,53.761c-3.896,0-7.046-0.662-9.363-1.969c-2.341-1.316-4.033-3.396-5.027-6.178
				c-0.972-2.717-1.464-6.353-1.464-10.805c0-4.592,0.518-8.337,1.539-11.133c1.041-2.85,2.756-4.964,5.097-6.284
				c2.317-1.306,5.419-1.967,9.22-1.967c3.854,0,6.97,0.675,9.26,2.005c2.314,1.343,4.015,3.456,5.056,6.28
				c1.021,2.773,1.539,6.508,1.539,11.1c0,4.444-0.493,8.08-1.464,10.805c-0.994,2.781-2.672,4.859-4.987,6.177
				C53.57,53.098,50.406,53.761,46.461,53.761L46.461,53.761z M46.534,21.005c-2.498,0-4.441,0.414-5.776,1.229
				c-1.313,0.8-2.265,2.168-2.829,4.065c-0.584,1.961-0.881,4.825-0.881,8.51c0,3.451,0.273,6.17,0.813,8.083
				c0.517,1.85,1.444,3.204,2.755,4.026c1.333,0.837,3.324,1.261,5.918,1.261c2.543,0,4.496-0.424,5.804-1.259
				c1.29-0.822,2.207-2.165,2.724-3.991c0.539-1.892,0.813-4.624,0.813-8.12c0-3.688-0.285-6.552-0.847-8.515
				c-0.542-1.896-1.47-3.263-2.758-4.063C50.958,21.418,49.029,21.005,46.534,21.005L46.534,21.005z"/>
		</g>
		<path fill="#FFFFFF" d="M46.461,15.875c3.791,0,6.802,0.647,9.034,1.945c2.232,1.295,3.852,3.311,4.859,6.046
			s1.512,6.383,1.512,10.944c0,4.414-0.48,7.967-1.438,10.654c-0.961,2.689-2.557,4.669-4.786,5.938
			c-2.232,1.271-5.293,1.91-9.181,1.91c-3.84,0-6.887-0.639-9.142-1.91c-2.255-1.269-3.864-3.248-4.825-5.938
			c-0.961-2.687-1.438-6.24-1.438-10.654c0-4.561,0.504-8.22,1.512-10.979s2.64-4.775,4.895-6.046
			C39.718,16.513,42.718,15.875,46.461,15.875 M46.534,48.629c2.64,0,4.655-0.441,6.046-1.33c1.392-0.887,2.364-2.305,2.915-4.247
			c0.554-1.944,0.829-4.692,0.829-8.243c0-3.744-0.287-6.623-0.864-8.639c-0.577-2.019-1.562-3.457-2.953-4.321
			c-1.391-0.864-3.383-1.294-5.973-1.294c-2.592,0-4.596,0.431-6.011,1.294c-1.418,0.864-2.426,2.302-3.026,4.321
			c-0.601,2.016-0.899,4.895-0.899,8.639c0,3.503,0.275,6.24,0.829,8.205c0.55,1.969,1.535,3.398,2.95,4.285
			C41.792,48.188,43.845,48.629,46.534,48.629 M46.461,14.975c-3.879,0-7.055,0.682-9.44,2.025c-2.437,1.374-4.22,3.568-5.298,6.522
			c-1.04,2.846-1.566,6.643-1.566,11.288c0,4.504,0.501,8.191,1.491,10.957c1.031,2.888,2.792,5.047,5.231,6.419
			c2.384,1.344,5.608,2.025,9.583,2.025c4.024,0,7.263-0.682,9.626-2.027c2.412-1.373,4.157-3.531,5.188-6.417
			c0.99-2.774,1.491-6.461,1.491-10.957c0-4.645-0.527-8.432-1.567-11.255c-1.078-2.925-2.845-5.117-5.252-6.514
			C53.587,15.67,50.396,14.975,46.461,14.975L46.461,14.975z M46.534,47.73c-2.508,0-4.419-0.401-5.679-1.192
			c-1.231-0.772-2.069-2.004-2.562-3.766c-0.528-1.875-0.796-4.553-0.796-7.962c0-3.642,0.29-6.462,0.862-8.382
			c0.539-1.813,1.4-3.058,2.632-3.809c1.265-0.772,3.129-1.163,5.542-1.163c2.41,0,4.259,0.39,5.498,1.159
			c1.207,0.75,2.045,1.994,2.563,3.804c0.55,1.922,0.83,4.746,0.83,8.391c0,3.455-0.268,6.145-0.794,7.997
			c-0.487,1.718-1.339,2.974-2.533,3.734C50.861,47.33,48.99,47.73,46.534,47.73L46.534,47.73z"/>
	</g>
	<g>
		<path fill="#2533AF" d="M46.461,16.125c3.729,0,6.727,0.643,8.909,1.911c2.169,1.259,3.768,3.249,4.75,5.917
			c0.993,2.695,1.496,6.348,1.496,10.857c0,4.364-0.479,7.92-1.424,10.57c-0.936,2.619-2.508,4.571-4.674,5.805
			c-2.188,1.245-5.234,1.877-9.057,1.877c-3.774,0-6.809-0.632-9.02-1.878c-2.191-1.232-3.776-3.185-4.712-5.804
			c-0.945-2.642-1.424-6.198-1.424-10.57c0-4.509,0.503-8.174,1.497-10.893c0.982-2.689,2.591-4.679,4.783-5.915
			C39.796,16.756,42.782,16.125,46.461,16.125 M46.534,48.879c2.679,0,4.758-0.461,6.18-1.369c1.439-0.917,2.455-2.394,3.021-4.39
			c0.557-1.954,0.839-4.75,0.839-8.311c0-3.752-0.294-6.682-0.874-8.708c-0.591-2.068-1.621-3.57-3.062-4.464
			c-1.423-0.884-3.478-1.332-6.104-1.332c-2.628,0-4.694,0.448-6.141,1.331c-1.466,0.893-2.521,2.395-3.136,4.463
			c-0.604,2.026-0.91,4.957-0.91,8.71c0,3.515,0.282,6.298,0.838,8.272c0.565,2.022,1.594,3.513,3.058,4.43
			C41.69,48.419,43.806,48.879,46.534,48.879 M46.461,15.875c-3.743,0-6.743,0.639-8.999,1.91c-2.255,1.271-3.887,3.287-4.895,6.046
			s-1.512,6.418-1.512,10.979c0,4.414,0.478,7.967,1.438,10.654c0.961,2.689,2.569,4.669,4.825,5.938
			c2.255,1.271,5.302,1.91,9.142,1.91c3.887,0,6.948-0.639,9.181-1.91c2.229-1.269,3.825-3.248,4.786-5.938
			c0.958-2.687,1.438-6.24,1.438-10.654c0-4.561-0.504-8.208-1.512-10.944s-2.627-4.751-4.859-6.046
			C53.263,16.522,50.251,15.875,46.461,15.875L46.461,15.875z M46.534,48.629c-2.689,0-4.742-0.441-6.157-1.33
			c-1.415-0.887-2.399-2.316-2.95-4.285c-0.554-1.965-0.829-4.701-0.829-8.205c0-3.744,0.299-6.623,0.899-8.639
			c0.6-2.019,1.608-3.457,3.026-4.321c1.415-0.864,3.418-1.294,6.011-1.294c2.59,0,4.582,0.431,5.973,1.294
			c1.392,0.864,2.376,2.302,2.953,4.321c0.577,2.016,0.864,4.895,0.864,8.639c0,3.55-0.275,6.298-0.829,8.243
			c-0.551,1.942-1.523,3.36-2.915,4.247C51.189,48.188,49.174,48.629,46.534,48.629L46.534,48.629z"/>
	</g>
	<g>
		<path fill="#FFD400" d="M77.962,47.874c1.631-0.406,3.023-0.873,4.177-1.402l1.438-0.648V21.42
			c-3.12-0.577-5.833-0.864-8.135-0.864c-3.793,0-6.444,1.104-7.956,3.31c-1.512,2.208-2.267,5.855-2.267,10.944
			c0,4.654,0.612,8.099,1.836,10.328c1.225,2.232,3.349,3.35,6.371,3.35C74.819,48.487,76.331,48.284,77.962,47.874z"/>
	</g>
	<g>
		<g>
			<path fill="#2533AF" d="M60.628,49.754c-1.969-2.951-2.95-7.496-2.95-13.643c0-6.863,1.187-11.805,3.563-14.828
				c2.375-3.026,6.301-4.538,11.77-4.538c2.736,0,5.592,0.313,8.568,0.938V1.772h5.328v51.689h-5.328v-2.448
				c-3.697,2.114-7.414,3.169-11.158,3.169C65.859,54.182,62.596,52.707,60.628,49.754z M75.962,48.747
				c1.631-0.408,3.023-0.873,4.177-1.404l1.438-0.646V22.292c-3.12-0.577-5.833-0.864-8.135-0.864c-3.793,0-6.444,1.104-7.956,3.31
				c-1.512,2.208-2.267,5.855-2.267,10.944c0,4.655,0.612,8.099,1.836,10.329c1.225,2.232,3.349,3.348,6.371,3.348
				C72.819,49.358,74.331,49.157,75.962,48.747z"/>
		</g>
	</g>
	<g>
		<g>
			<path fill="#752DF9" d="M72.42,53.761c-4.699,0-8.119-1.558-10.167-4.63c-2.007-3.008-3.025-7.682-3.025-13.891
				c0-6.935,1.231-12.018,3.659-15.106c2.452-3.125,6.531-4.709,12.123-4.709c2.583,0,5.312,0.281,8.119,0.836V0.9
				c0-0.249,0.201-0.45,0.45-0.45h5.328c0.249,0,0.45,0.201,0.45,0.45v51.69c0,0.248-0.201,0.45-0.45,0.45h-5.328
				c-0.249,0-0.45-0.202-0.45-0.45v-1.686C79.598,52.8,75.999,53.761,72.42,53.761L72.42,53.761z M75.443,21.005
				c-3.617,0-6.169,1.048-7.585,3.115c-1.452,2.121-2.188,5.718-2.188,10.689c0,4.559,0.6,7.96,1.781,10.111
				c1.15,2.098,3.105,3.116,5.977,3.116c1.354,0,2.842-0.201,4.425-0.6c1.599-0.398,2.978-0.86,4.1-1.375l1.176-0.53V21.795
				C80.206,21.271,77.623,21.005,75.443,21.005L75.443,21.005z"/>
		</g>
		<path fill="#FFFFFF" d="M88.906,0.9v51.69h-5.328v-2.449c-3.697,2.115-7.414,3.17-11.158,3.17c-4.561,0-7.824-1.477-9.792-4.43
			c-1.969-2.949-2.95-7.496-2.95-13.641c0-6.863,1.187-11.805,3.563-14.828c2.375-3.026,6.301-4.538,11.77-4.538
			c2.736,0,5.592,0.313,8.568,0.938V0.9H88.906 M73.428,48.487c1.392,0,2.903-0.203,4.535-0.613
			c1.631-0.406,3.023-0.873,4.177-1.402l1.438-0.648V21.42c-3.12-0.577-5.833-0.864-8.135-0.864c-3.793,0-6.444,1.104-7.956,3.31
			c-1.512,2.208-2.267,5.855-2.267,10.944c0,4.654,0.612,8.099,1.836,10.328C68.281,47.37,70.405,48.487,73.428,48.487 M88.906,0
			h-5.328c-0.497,0-0.9,0.403-0.9,0.9v14.817c-2.646-0.493-5.221-0.742-7.668-0.742c-5.737,0-9.935,1.643-12.478,4.882
			c-2.491,3.169-3.754,8.346-3.754,15.384c0,6.3,1.043,11.058,3.102,14.141c2.136,3.204,5.683,4.829,10.541,4.829
			c3.43,0,6.874-0.861,10.258-2.564v0.944c0,0.497,0.403,0.899,0.9,0.899h5.328c0.497,0,0.9-0.402,0.9-0.899V0.9
			C89.806,0.403,89.403,0,88.906,0L88.906,0z M73.428,47.587c-2.692,0-4.518-0.943-5.582-2.883
			c-1.145-2.084-1.726-5.413-1.726-9.895c0-4.879,0.71-8.39,2.11-10.436c1.346-1.964,3.705-2.918,7.213-2.918
			c2.061,0,4.491,0.241,7.235,0.717v23.069l-0.908,0.409c-1.102,0.505-2.454,0.958-4.025,1.35
			C76.196,47.39,74.744,47.587,73.428,47.587L73.428,47.587z"/>
	</g>
	<g>
		<path fill="#2533AF" d="M88.656,1.15v51.19h-4.828v-2.199V49.71l-0.374,0.214c-3.638,2.081-7.351,3.137-11.034,3.137
			c-4.45,0-7.675-1.453-9.584-4.318c-1.93-2.891-2.908-7.434-2.908-13.502c0-6.774,1.181-11.711,3.509-14.674
			c2.313-2.947,6.207-4.442,11.573-4.442c2.701,0,5.566,0.313,8.517,0.932l0.301,0.063v-0.308V1.15H88.656 M73.428,48.737
			c1.411,0,2.957-0.209,4.595-0.621c1.64-0.408,3.06-0.885,4.219-1.417l1.438-0.648l0.147-0.066v-0.161V21.42v-0.208l-0.205-0.038
			c-3.115-0.577-5.867-0.869-8.18-0.869c-3.862,0-6.608,1.15-8.163,3.419c-1.533,2.24-2.311,5.97-2.311,11.085
			c0,4.678,0.628,8.193,1.867,10.448C68.104,47.566,70.321,48.737,73.428,48.737 M88.906,0.9h-5.328v15.912
			c-2.977-0.624-5.833-0.938-8.568-0.938c-5.469,0-9.395,1.511-11.77,4.538c-2.376,3.023-3.563,7.965-3.563,14.828
			c0,6.145,0.981,10.692,2.95,13.641c1.968,2.953,5.231,4.43,9.792,4.43c3.744,0,7.46-1.055,11.158-3.17v2.449h5.328V0.9L88.906,0.9
			z M73.428,48.487c-3.022,0-5.146-1.117-6.371-3.35c-1.225-2.229-1.836-5.674-1.836-10.328c0-5.088,0.755-8.735,2.267-10.944
			c1.512-2.206,4.163-3.31,7.956-3.31c2.302,0,5.015,0.287,8.135,0.864v24.403l-1.438,0.648c-1.154,0.529-2.546,0.996-4.177,1.402
			C76.331,48.284,74.819,48.487,73.428,48.487L73.428,48.487z"/>
	</g>
	<g>
		<path fill="#FFD400" d="M110.826,32.504c0-4.364-0.697-7.473-2.088-9.321c-1.392-1.848-3.67-2.771-6.84-2.771
			c-3.31,0-5.759,0.97-7.341,2.915c-1.584,1.942-2.402,5.003-2.449,9.177H110.826z"/>
	</g>
	<g>
		<g>
			<path fill="#2533AF" d="M88.128,49.897c-2.279-2.854-3.419-7.352-3.419-13.498c0-6.67,1.225-11.611,3.671-14.828
				c2.449-3.217,6.286-4.825,11.518-4.825c4.798,0,8.387,1.379,10.762,4.139c2.375,2.762,3.564,6.995,3.564,12.707l-0.287,4.104
				H90.181c0,2.976,0.322,5.302,0.97,6.983c0.65,1.678,1.751,2.891,3.313,3.635c1.559,0.744,3.732,1.117,6.515,1.117
				c1.392,0,3-0.039,4.824-0.109c1.822-0.072,3.479-0.182,4.966-0.324l2.089-0.215L113,53.032c-5.324,0.764-9.742,1.15-13.246,1.15
				C94.282,54.182,90.407,52.753,88.128,49.897z M108.826,33.376c0-4.364-0.697-7.473-2.088-9.321
				c-1.392-1.848-3.67-2.771-6.84-2.771c-3.31,0-5.759,0.97-7.341,2.915c-1.584,1.942-2.402,5.003-2.449,9.177H108.826z"/>
		</g>
	</g>
	<g>
		<g>
			<path fill="#752DF9" d="M101.754,53.761c-5.589,0-9.619-1.499-11.978-4.455c-2.334-2.921-3.517-7.558-3.517-13.779
				c0-6.737,1.266-11.817,3.763-15.1c2.526-3.319,6.522-5.002,11.875-5.002c4.915,0,8.65,1.445,11.103,4.295
				c2.438,2.835,3.674,7.209,3.674,13l-0.288,4.135c-0.017,0.236-0.213,0.419-0.449,0.419H92.634
				c0.031,2.695,0.346,4.837,0.937,6.371c0.613,1.585,1.623,2.694,3.086,3.392c1.489,0.711,3.616,1.071,6.321,1.071
				c1.365,0,2.937-0.035,4.806-0.106c1.829-0.075,3.491-0.184,4.939-0.325c0,0,2.117-0.215,2.133-0.215
				c0.108,0,0.214,0.039,0.296,0.111c0.094,0.082,0.149,0.199,0.153,0.324l0.143,4.246c0.008,0.229-0.158,0.428-0.385,0.46
				C109.725,53.372,105.247,53.761,101.754,53.761L101.754,53.761z M110.374,32.054c-0.047-4.01-0.717-6.902-1.995-8.601
				c-1.295-1.72-3.476-2.592-6.481-2.592c-3.156,0-5.508,0.925-6.992,2.749c-1.456,1.784-2.242,4.623-2.339,8.444H110.374z"/>
		</g>
		<path fill="#FFFFFF" d="M101.897,15.875c4.798,0,8.387,1.379,10.762,4.139c2.375,2.762,3.564,6.995,3.564,12.707l-0.287,4.104
			H92.181c0,2.977,0.322,5.303,0.97,6.983c0.65,1.679,1.751,2.892,3.313,3.636c1.559,0.744,3.732,1.115,6.515,1.115
			c1.392,0,3-0.037,4.824-0.107c1.822-0.074,3.479-0.182,4.966-0.326l2.089-0.213L115,52.159c-5.324,0.766-9.742,1.152-13.246,1.152
			c-5.472,0-9.347-1.43-11.626-4.285c-2.279-2.854-3.419-7.354-3.419-13.499c0-6.67,1.225-11.611,3.671-14.828
			C92.829,17.482,96.666,15.875,101.897,15.875 M92.108,32.504h18.718c0-4.364-0.697-7.473-2.088-9.321
			c-1.392-1.848-3.67-2.771-6.84-2.771c-3.31,0-5.759,0.97-7.341,2.915C92.972,25.269,92.155,28.33,92.108,32.504 M101.897,14.975
			c-5.501,0-9.617,1.743-12.233,5.18c-2.558,3.363-3.855,8.535-3.855,15.373c0,6.326,1.216,11.057,3.616,14.061
			c2.448,3.067,6.596,4.623,12.329,4.623c3.514,0,8.014-0.391,13.374-1.161c0.454-0.065,0.787-0.462,0.771-0.921l-0.143-4.246
			c-0.009-0.249-0.12-0.483-0.308-0.647c-0.165-0.144-0.375-0.222-0.592-0.222c-0.03,0-0.061,0.001-0.091,0.004l-2.089,0.213
			c-1.437,0.14-3.09,0.248-4.912,0.322c-1.861,0.072-3.428,0.107-4.787,0.107c-2.638,0-4.699-0.346-6.127-1.028
			c-1.355-0.646-2.292-1.676-2.861-3.148c-0.538-1.396-0.84-3.331-0.898-5.759h22.845c0.473,0,0.864-0.365,0.897-0.837l0.287-4.104
			c0.002-0.021,0.002-0.042,0.002-0.063c0-5.902-1.272-10.375-3.781-13.293C110.799,16.473,106.949,14.975,101.897,14.975
			L101.897,14.975z M93.031,31.604c0.144-3.485,0.89-6.075,2.223-7.708c1.415-1.739,3.587-2.583,6.644-2.583
			c2.897,0,4.899,0.789,6.122,2.413c1.172,1.557,1.809,4.206,1.896,7.879H93.031L93.031,31.604z"/>
	</g>
	<g>
		<path fill="#2533AF" d="M101.897,16.125c4.702,0,8.258,1.363,10.573,4.052c2.325,2.704,3.504,6.924,3.505,12.526l-0.271,3.872
			H92.181h-0.25v0.25c0,2.994,0.332,5.374,0.987,7.073c0.671,1.735,1.829,3.004,3.438,3.771c1.584,0.756,3.812,1.14,6.623,1.14
			c1.374,0,2.955-0.035,4.833-0.107c1.844-0.075,3.519-0.186,4.981-0.327l1.822-0.187l0.126,3.755
			c-5.207,0.742-9.576,1.118-12.988,1.118c-5.365,0-9.211-1.41-11.431-4.191c-2.232-2.795-3.364-7.284-3.364-13.343
			c0-6.581,1.218-11.518,3.62-14.676C92.966,17.714,96.774,16.125,101.897,16.125 M91.855,32.754h0.253h18.718h0.25v-0.25
			c0-4.399-0.72-7.585-2.139-9.471c-1.434-1.905-3.803-2.871-7.04-2.871c-3.377,0-5.912,1.012-7.535,3.006
			c-1.615,1.979-2.458,5.119-2.505,9.333L91.855,32.754 M101.897,15.875c-5.231,0-9.069,1.608-11.518,4.825
			c-2.446,3.216-3.671,8.158-3.671,14.828c0,6.146,1.14,10.646,3.419,13.499c2.279,2.855,6.154,4.285,11.626,4.285
			c3.503,0,7.921-0.387,13.246-1.152l-0.143-4.246l-2.089,0.213c-1.487,0.145-3.144,0.252-4.966,0.326
			c-1.824,0.07-3.432,0.107-4.824,0.107c-2.783,0-4.956-0.371-6.515-1.115c-1.562-0.744-2.663-1.957-3.313-3.636
			c-0.647-1.681-0.97-4.007-0.97-6.983h23.756l0.287-4.104c0-5.712-1.189-9.945-3.564-12.707
			C110.285,17.254,106.696,15.875,101.897,15.875L101.897,15.875z M92.108,32.504c0.047-4.174,0.864-7.235,2.449-9.177
			c1.582-1.945,4.031-2.915,7.341-2.915c3.17,0,5.449,0.923,6.84,2.771c1.391,1.848,2.088,4.957,2.088,9.321H92.108L92.108,32.504z"
			/>
	</g>
	<g>
		<g>
			<path fill="#2533AF" d="M113.853,53.174l-2.159-0.359l0.287-4.682c5.615,0.818,9.743,1.225,12.382,1.225
				c2.879,0,5.027-0.469,6.445-1.402c1.414-0.938,2.123-2.435,2.123-4.5c0-1.488-0.349-2.615-1.043-3.383
				c-0.697-0.768-1.584-1.321-2.666-1.655c-1.078-0.337-2.604-0.65-4.569-0.938l-1.802-0.287c-2.879-0.48-5.135-1.054-6.766-1.728
				c-1.633-0.671-2.857-1.62-3.671-2.845c-0.817-1.224-1.225-2.915-1.225-5.073c0-3.887,1.175-6.646,3.526-8.281
				c2.354-1.628,5.689-2.446,10.007-2.446c3.407,0,6.887,0.313,10.44,0.935l2.016,0.36l-0.145,4.608
				c-5.185-0.767-9.238-1.151-12.168-1.151c-2.783,0-4.859,0.431-6.225,1.294c-1.368,0.864-2.053,2.208-2.053,4.031
				c0,1.298,0.336,2.294,1.007,2.988c0.671,0.697,1.55,1.201,2.628,1.512c1.08,0.313,2.604,0.638,4.572,0.972l1.799,0.36
				c2.977,0.53,5.278,1.14,6.91,1.837c1.631,0.694,2.844,1.691,3.639,2.988c0.791,1.295,1.186,3.094,1.186,5.398
				c0,3.887-1.139,6.732-3.418,8.53c-2.282,1.802-5.773,2.7-10.476,2.7C121.556,54.182,118.03,53.846,113.853,53.174z"/>
		</g>
	</g>
	<g>
		<g>
			<path fill="#752DF9" d="M126.436,53.761c-2.877,0-6.461-0.341-10.654-1.014l-2.162-0.361c-0.228-0.037-0.389-0.241-0.375-0.471
				l0.287-4.681c0.008-0.126,0.067-0.242,0.165-0.322c0.081-0.065,0.182-0.101,0.284-0.101c0.021,0,0.043,0.002,0.064,0.005
				c5.568,0.81,9.712,1.22,12.317,1.22c2.774,0,4.86-0.447,6.197-1.33c1.293-0.856,1.921-2.205,1.921-4.123
				c0-1.365-0.312-2.402-0.927-3.082c-0.641-0.705-1.47-1.219-2.465-1.526c-1.056-0.33-2.569-0.64-4.502-0.922l-1.807-0.288
				c-2.913-0.486-5.222-1.077-6.867-1.756c-1.709-0.703-3.013-1.716-3.874-3.012c-0.862-1.292-1.3-3.083-1.3-5.322
				c0-4.024,1.252-6.935,3.72-8.651c2.423-1.676,5.876-2.526,10.264-2.526c3.405,0,6.944,0.316,10.518,0.941l2.018,0.36
				c0.22,0.039,0.378,0.234,0.371,0.457l-0.145,4.608c-0.005,0.128-0.063,0.249-0.162,0.331c-0.081,0.068-0.184,0.104-0.288,0.104
				c-0.021,0-0.044-0.001-0.065-0.004c-5.141-0.761-9.212-1.146-12.103-1.146c-2.687,0-4.699,0.412-5.984,1.225
				c-1.24,0.784-1.843,1.978-1.843,3.65c0,1.171,0.296,2.071,0.88,2.675c0.612,0.636,1.429,1.104,2.43,1.393
				c1.065,0.309,2.587,0.632,4.522,0.961l1.813,0.362c3.037,0.542,5.33,1.152,6.998,1.865c1.71,0.728,3.004,1.793,3.846,3.166
				c0.831,1.36,1.252,3.256,1.252,5.635c0,4.015-1.208,7.003-3.59,8.883C134.837,52.82,131.219,53.761,126.436,53.761
				L126.436,53.761z"/>
		</g>
		<path fill="#FFFFFF" d="M126.723,15.948c3.407,0,6.887,0.313,10.44,0.935l2.016,0.36l-0.145,4.608
			c-5.185-0.767-9.238-1.151-12.168-1.151c-2.783,0-4.859,0.431-6.225,1.294c-1.368,0.864-2.053,2.208-2.053,4.031
			c0,1.298,0.336,2.294,1.007,2.988c0.671,0.697,1.55,1.201,2.628,1.512c1.08,0.313,2.604,0.638,4.572,0.972l1.799,0.36
			c2.977,0.53,5.278,1.14,6.91,1.837c1.631,0.694,2.844,1.69,3.639,2.988c0.791,1.295,1.186,3.093,1.186,5.399
			c0,3.887-1.139,6.73-3.418,8.529c-2.282,1.801-5.773,2.701-10.476,2.701c-2.88,0-6.406-0.338-10.583-1.008l-2.159-0.36
			l0.287-4.681c5.615,0.816,9.743,1.225,12.382,1.225c2.879,0,5.027-0.469,6.445-1.404c1.414-0.938,2.123-2.434,2.123-4.499
			c0-1.487-0.349-2.616-1.043-3.384c-0.697-0.768-1.584-1.32-2.666-1.654c-1.078-0.337-2.604-0.65-4.569-0.938l-1.802-0.287
			c-2.879-0.48-5.135-1.054-6.766-1.728c-1.633-0.671-2.857-1.62-3.671-2.845c-0.817-1.224-1.225-2.915-1.225-5.073
			c0-3.887,1.175-6.646,3.526-8.281C119.07,16.765,122.406,15.948,126.723,15.948 M126.723,15.048c-4.48,0-8.02,0.876-10.519,2.605
			c-2.598,1.806-3.914,4.841-3.914,9.021c0,2.331,0.463,4.206,1.376,5.573c0.91,1.371,2.282,2.44,4.077,3.178
			c1.698,0.701,3.976,1.285,6.959,1.783l1.809,0.288c1.92,0.28,3.41,0.585,4.442,0.908c0.933,0.287,1.674,0.745,2.269,1.4
			c0.536,0.593,0.81,1.528,0.81,2.778c0,1.755-0.563,2.981-1.721,3.749c-1.261,0.832-3.263,1.255-5.948,1.255
			c-2.584,0-6.706-0.409-12.252-1.216c-0.044-0.006-0.087-0.009-0.13-0.009c-0.205-0.001-0.406,0.07-0.567,0.201
			c-0.195,0.159-0.315,0.392-0.331,0.644l-0.287,4.681c-0.028,0.46,0.296,0.866,0.75,0.942l2.159,0.36
			c4.223,0.677,7.831,1.02,10.731,1.02c4.887,0,8.599-0.974,11.033-2.895c2.495-1.969,3.76-5.076,3.76-9.235
			c0-2.498-0.431-4.417-1.317-5.868c-0.892-1.456-2.255-2.581-4.054-3.347c-1.699-0.726-4.023-1.346-7.104-1.895l-1.78-0.357
			c-1.945-0.331-3.45-0.65-4.498-0.954c-0.925-0.267-1.675-0.694-2.23-1.271c-0.502-0.519-0.756-1.313-0.756-2.364
			c0-1.506,0.535-2.576,1.634-3.27c1.212-0.767,3.145-1.155,5.744-1.155c2.869,0,6.918,0.384,12.036,1.141
			c0.044,0.006,0.088,0.01,0.132,0.01c0.21,0,0.414-0.073,0.577-0.209c0.197-0.165,0.314-0.406,0.322-0.662l0.145-4.608
			c0.014-0.447-0.302-0.835-0.741-0.914l-2.016-0.36C133.719,15.367,130.155,15.048,126.723,15.048L126.723,15.048z"/>
	</g>
	<g>
		<path fill="#2533AF" d="M126.723,16.198c3.365,0,6.863,0.313,10.396,0.931l1.803,0.322l-0.129,4.112
			c-5.043-0.738-9.055-1.113-11.927-1.113c-2.821,0-4.96,0.449-6.358,1.333c-1.439,0.909-2.169,2.336-2.169,4.242
			c0,1.359,0.362,2.422,1.077,3.161c0.697,0.725,1.618,1.256,2.738,1.579c1.09,0.316,2.638,0.646,4.593,0.977l1.804,0.361
			c2.953,0.526,5.26,1.139,6.856,1.821c1.574,0.67,2.76,1.642,3.523,2.888c0.762,1.248,1.148,3.021,1.148,5.27
			c0,3.789-1.118,6.593-3.323,8.333c-2.226,1.757-5.698,2.647-10.32,2.647c-2.84,0-6.387-0.338-10.542-1.004l-1.937-0.324
			l0.257-4.185c5.466,0.789,9.552,1.188,12.148,1.188c2.914,0,5.129-0.486,6.583-1.446c1.483-0.982,2.235-2.566,2.235-4.707
			c0-1.544-0.373-2.739-1.107-3.552c-0.728-0.801-1.662-1.381-2.777-1.725c-1.089-0.341-2.64-0.659-4.604-0.946l-1.8-0.286
			c-2.857-0.478-5.115-1.054-6.712-1.713c-1.578-0.648-2.775-1.574-3.558-2.752c-0.785-1.175-1.183-2.835-1.183-4.935
			c0-3.782,1.15-6.499,3.419-8.076C119.162,17.006,122.48,16.198,126.723,16.198 M126.723,15.948c-4.317,0-7.653,0.817-10.007,2.446
			c-2.352,1.635-3.526,4.394-3.526,8.281c0,2.159,0.407,3.849,1.225,5.073c0.813,1.225,2.038,2.174,3.671,2.845
			c1.631,0.674,3.887,1.248,6.766,1.728l1.802,0.287c1.966,0.287,3.491,0.601,4.569,0.938c1.082,0.334,1.969,0.887,2.666,1.654
			c0.694,0.768,1.043,1.896,1.043,3.384c0,2.065-0.709,3.562-2.123,4.499c-1.418,0.936-3.566,1.404-6.445,1.404
			c-2.639,0-6.767-0.408-12.382-1.225l-0.287,4.681l2.159,0.36c4.177,0.67,7.703,1.008,10.583,1.008c4.702,0,8.193-0.9,10.476-2.701
			c2.279-1.799,3.418-4.643,3.418-8.529c0-2.307-0.395-4.104-1.186-5.399c-0.795-1.297-2.008-2.293-3.639-2.988
			c-1.632-0.697-3.934-1.307-6.91-1.837l-1.799-0.36c-1.969-0.334-3.492-0.659-4.572-0.972c-1.078-0.311-1.957-0.814-2.628-1.512
			c-0.671-0.694-1.007-1.69-1.007-2.988c0-1.822,0.685-3.167,2.053-4.031c1.365-0.864,3.441-1.294,6.225-1.294
			c2.93,0,6.983,0.384,12.168,1.151l0.145-4.608l-2.016-0.36C133.61,16.261,130.13,15.948,126.723,15.948L126.723,15.948z"/>
	</g>
	<g>
		<g>
			<path fill="#2533AF" d="M136.218,7.757h5.328v6.263h-5.328V7.757z M136.218,17.467h5.328v35.994h-5.328V17.467z"/>
		</g>
	</g>
	<g>
		<g>
			<path fill="#752DF9" d="M138.218,53.041c-0.248,0-0.45-0.202-0.45-0.45V16.595c0-0.249,0.202-0.45,0.45-0.45h5.328
				c0.248,0,0.45,0.201,0.45,0.45V52.59c0,0.248-0.202,0.45-0.45,0.45H138.218z M138.218,13.597c-0.248,0-0.45-0.201-0.45-0.45
				V6.885c0-0.249,0.202-0.45,0.45-0.45h5.328c0.248,0,0.45,0.201,0.45,0.45v6.263c0,0.249-0.202,0.45-0.45,0.45H138.218z"/>
		</g>
		<path fill="#FFFFFF" d="M143.546,6.885v6.263h-5.328V6.885H143.546 M143.546,16.595V52.59h-5.328V16.595H143.546 M143.546,5.985
			h-5.328c-0.497,0-0.899,0.403-0.899,0.9v6.263c0,0.497,0.402,0.9,0.899,0.9h5.328c0.497,0,0.899-0.403,0.899-0.9V6.885
			C144.446,6.388,144.043,5.985,143.546,5.985L143.546,5.985z M143.546,15.695h-5.328c-0.497,0-0.899,0.403-0.899,0.9V52.59
			c0,0.497,0.402,0.899,0.899,0.899h5.328c0.497,0,0.899-0.402,0.899-0.899V16.595C144.446,16.098,144.043,15.695,143.546,15.695
			L143.546,15.695z"/>
	</g>
	<g>
		<path fill="#2533AF" d="M143.296,7.135v5.763h-4.828V7.135H143.296 M143.296,16.845V52.34h-4.828V16.845H143.296 M143.546,6.885
			h-5.328v6.263h5.328V6.885L143.546,6.885z M143.546,16.595h-5.328V52.59h5.328V16.595L143.546,16.595z"/>
	</g>
	<g>
		<path fill="#FFD400" d="M161.719,34.232c1.248-1.198,1.872-3.24,1.872-6.119c0-2.83-0.624-4.845-1.872-6.046
			c-1.247-1.201-3.31-1.801-6.189-1.801c-2.976,0-5.101,0.612-6.371,1.836c-1.274,1.225-1.91,3.251-1.91,6.084
			c0,2.833,0.636,4.848,1.91,6.046c1.271,1.201,3.372,1.801,6.298,1.801S160.472,35.434,161.719,34.232z"/>
	</g>
	<g>
		<g>
			<path fill="#2533AF" d="M142.767,67.967c-2.231-1.607-3.348-4.281-3.348-8.025c0-1.538,0.179-2.797,0.539-3.779
				c0.36-0.984,0.922-1.863,1.693-2.627c0.768-0.768,1.918-1.752,3.453-2.953c-0.67-0.43-1.174-1.08-1.512-1.945
				c-0.336-0.863-0.504-1.775-0.504-2.732c0-0.624,0.145-1.31,0.434-2.054c0.287-0.743,0.959-2.05,2.016-3.923
				c-3.793-1.681-5.688-5.278-5.688-10.799c0-4.174,1.128-7.282,3.384-9.321c2.255-2.039,5.662-3.061,10.223-3.061
				c2.209,0,4.654,0.313,7.344,0.938l10.654-0.29v4.608l-6.84-0.144c0.816,0.817,1.414,1.813,1.801,2.988
				c0.384,1.177,0.574,2.677,0.574,4.5c0,4.271-1.104,7.32-3.311,9.142c-2.208,1.825-5.688,2.735-10.439,2.735
				c-1.488,0-2.709-0.096-3.67-0.287c-0.385,0.961-0.697,1.799-0.936,2.52c-0.242,0.721-0.359,1.345-0.359,1.872
				c0,1.247,0.488,2.065,1.473,2.446c0.984,0.387,2.508,0.576,4.573,0.576h2.806c3.17,0,5.725,0.24,7.67,0.721
				c1.941,0.48,3.441,1.453,4.498,2.915c1.055,1.464,1.586,3.589,1.586,6.371c0,4.177-1.299,7.224-3.891,9.142
				c-2.59,1.92-6.863,2.881-12.813,2.881C148.802,70.379,144.997,69.577,142.767,67.967z M163.033,64.224
				c1.582-1.081,2.375-2.94,2.375-5.58c0-1.534-0.266-2.698-0.793-3.489c-0.527-0.793-1.416-1.332-2.664-1.619
				c-1.247-0.291-3.049-0.434-5.398-0.434l-7.773-0.36c-1.585,1.151-2.654,2.161-3.205,3.022c-0.551,0.865-0.828,2.019-0.828,3.457
				c0,2.496,0.731,4.225,2.196,5.185c1.464,0.958,4.042,1.438,7.739,1.438C158.666,65.844,161.448,65.305,163.033,64.224z
				 M159.719,35.104c1.248-1.198,1.872-3.24,1.872-6.119c0-2.83-0.624-4.845-1.872-6.046c-1.247-1.201-3.31-1.801-6.189-1.801
				c-2.976,0-5.101,0.612-6.371,1.836c-1.274,1.225-1.91,3.251-1.91,6.084c0,2.833,0.636,4.848,1.91,6.046
				c1.271,1.201,3.372,1.801,6.298,1.801S158.472,36.305,159.719,35.104z"/>
		</g>
	</g>
	<g>
		<g>
			<path fill="#752DF9" d="M156.177,69.957c-5.449,0-9.377-0.84-11.673-2.495c-2.346-1.69-3.535-4.515-3.535-8.393
				c0-1.586,0.19-2.909,0.567-3.933c0.384-1.05,0.989-1.99,1.798-2.793c0.701-0.7,1.722-1.583,3.037-2.628
				c-0.51-0.455-0.911-1.054-1.197-1.785c-0.355-0.914-0.535-1.89-0.535-2.898c0-0.678,0.156-1.423,0.465-2.216
				c0.273-0.711,0.866-1.877,1.806-3.559c-3.656-1.834-5.51-5.532-5.51-11c0-4.288,1.188-7.537,3.532-9.655
				c2.332-2.108,5.873-3.177,10.524-3.177c2.211,0,4.696,0.315,7.389,0.936c0,0,10.605-0.289,10.609-0.289
				c0.117,0,0.229,0.045,0.313,0.127c0.087,0.084,0.137,0.201,0.137,0.322v4.608c0,0.121-0.049,0.237-0.136,0.321
				c-0.084,0.083-0.197,0.128-0.314,0.128c-0.003,0-5.837-0.122-5.837-0.122c0.523,0.695,0.934,1.491,1.226,2.376
				c0.396,1.215,0.597,2.776,0.597,4.64c0,4.392-1.169,7.584-3.475,9.489c-2.28,1.885-5.889,2.84-10.726,2.84
				c-1.318,0-2.456-0.077-3.388-0.229c-0.327,0.829-0.587,1.536-0.791,2.152c-0.224,0.665-0.336,1.247-0.336,1.73
				c0,1.069,0.376,1.713,1.185,2.025c0.926,0.364,2.409,0.548,4.411,0.548h2.806c3.189,0,5.807,0.247,7.777,0.734
				c2.04,0.504,3.64,1.543,4.755,3.087c1.109,1.54,1.672,3.772,1.672,6.635c0,4.306-1.37,7.503-4.073,9.504
				C166.599,68.958,162.198,69.957,156.177,69.957L156.177,69.957z M150.917,52.327c-1.46,1.071-2.457,2.016-2.964,2.809
				c-0.502,0.788-0.757,1.869-0.757,3.214c0,2.323,0.67,3.94,1.993,4.809c1.384,0.905,3.904,1.364,7.492,1.364
				c3.873,0,6.598-0.519,8.098-1.542c1.446-0.986,2.179-2.739,2.179-5.208c0-1.435-0.241-2.524-0.717-3.238
				c-0.459-0.691-1.263-1.173-2.391-1.433c-1.209-0.28-2.991-0.422-5.298-0.422L150.917,52.327z M155.53,20.715
				c-2.843,0-4.881,0.576-6.059,1.711c-1.177,1.13-1.772,3.068-1.772,5.76c0,2.691,0.595,4.615,1.769,5.718
				c1.179,1.114,3.193,1.679,5.989,1.679c2.794,0,4.796-0.564,5.95-1.676c1.151-1.105,1.734-3.054,1.734-5.795
				c0-2.689-0.583-4.615-1.733-5.722C160.252,21.279,158.275,20.715,155.53,20.715L155.53,20.715z"/>
		</g>
		<path fill="#FFFFFF" d="M155.457,15.875c2.209,0,4.654,0.313,7.344,0.938l10.654-0.29v4.608l-6.84-0.144
			c0.816,0.817,1.414,1.813,1.801,2.988c0.384,1.177,0.574,2.677,0.574,4.5c0,4.271-1.104,7.32-3.311,9.142
			c-2.208,1.824-5.688,2.736-10.439,2.736c-1.488,0-2.709-0.098-3.67-0.287c-0.385,0.961-0.697,1.799-0.936,2.519
			c-0.242,0.721-0.359,1.345-0.359,1.872c0,1.248,0.488,2.064,1.473,2.445c0.984,0.387,2.508,0.578,4.573,0.578h2.806
			c3.17,0,5.725,0.24,7.67,0.721c1.941,0.48,3.441,1.452,4.498,2.914c1.055,1.465,1.586,3.588,1.586,6.371
			c0,4.178-1.299,7.224-3.891,9.143c-2.59,1.918-6.863,2.879-12.813,2.879c-5.375,0-9.181-0.803-11.41-2.41
			c-2.231-1.608-3.348-4.283-3.348-8.027c0-1.537,0.179-2.797,0.539-3.777c0.36-0.984,0.922-1.863,1.693-2.629
			c0.768-0.767,1.918-1.751,3.453-2.952c-0.67-0.431-1.174-1.081-1.512-1.944c-0.336-0.865-0.504-1.775-0.504-2.734
			c0-0.623,0.145-1.309,0.434-2.053c0.287-0.744,0.959-2.051,2.016-3.922c-3.793-1.682-5.688-5.279-5.688-10.8
			c0-4.174,1.128-7.282,3.384-9.321C147.489,16.897,150.896,15.875,155.457,15.875 M155.457,36.034c2.926,0,5.016-0.6,6.263-1.801
			c1.248-1.198,1.872-3.24,1.872-6.119c0-2.83-0.624-4.845-1.872-6.046c-1.247-1.201-3.31-1.801-6.189-1.801
			c-2.976,0-5.101,0.612-6.371,1.836c-1.274,1.225-1.91,3.251-1.91,6.084c0,2.833,0.636,4.848,1.91,6.046
			C150.429,35.434,152.531,36.034,155.457,36.034 M156.681,64.972c3.984,0,6.767-0.539,8.352-1.62
			c1.582-1.08,2.375-2.941,2.375-5.58c0-1.535-0.266-2.697-0.793-3.488c-0.527-0.795-1.416-1.334-2.664-1.621
			c-1.247-0.289-3.049-0.434-5.398-0.434l-7.773-0.359c-1.585,1.15-2.654,2.162-3.205,3.023c-0.551,0.863-0.828,2.018-0.828,3.456
			c0,2.495,0.731,4.224,2.196,5.185C150.406,64.492,152.984,64.972,156.681,64.972 M155.457,14.975
			c-4.767,0-8.409,1.108-10.826,3.293c-2.442,2.207-3.68,5.568-3.68,9.989c0,5.447,1.796,9.205,5.343,11.184
			c-0.822,1.486-1.351,2.542-1.61,3.214c-0.327,0.844-0.493,1.644-0.493,2.377c0,1.065,0.189,2.095,0.564,3.061
			c0.241,0.614,0.557,1.145,0.945,1.585c-1.142,0.92-2.042,1.708-2.684,2.349c-0.854,0.848-1.495,1.843-1.902,2.956
			c-0.399,1.087-0.594,2.425-0.594,4.087c0,4.031,1.252,6.978,3.721,8.758c2.408,1.735,6.313,2.579,11.937,2.579
			c6.205,0,10.571-0.999,13.348-3.056c2.824-2.09,4.255-5.409,4.255-9.865c0-2.959-0.59-5.279-1.755-6.896
			c-1.182-1.635-2.867-2.731-5.013-3.262c-2.007-0.496-4.66-0.747-7.886-0.747h-2.806c-1.945,0-3.373-0.174-4.244-0.517
			c-0.448-0.173-0.902-0.498-0.902-1.607c0-0.435,0.105-0.969,0.313-1.585c0.175-0.527,0.39-1.12,0.653-1.8
			c0.884,0.12,1.922,0.181,3.1,0.181c4.944,0,8.649-0.989,11.013-2.942c2.413-1.993,3.637-5.303,3.637-9.835
			c0-1.912-0.208-3.52-0.618-4.778c-0.209-0.635-0.476-1.226-0.799-1.77l4.964,0.104c0.006,0,0.013,0,0.019,0
			c0.235,0,0.461-0.092,0.63-0.257c0.173-0.169,0.27-0.401,0.27-0.643v-4.608c0-0.243-0.098-0.476-0.271-0.645
			c-0.169-0.164-0.394-0.255-0.628-0.255c-0.008,0-0.017,0-0.024,0l-10.539,0.287C160.186,15.289,157.686,14.975,155.457,14.975
			L155.457,14.975z M155.457,35.134c-2.677,0-4.588-0.523-5.68-1.555c-1.081-1.017-1.629-2.83-1.629-5.392
			c0-2.565,0.55-4.394,1.634-5.436c1.093-1.052,3.026-1.585,5.748-1.585c2.625,0,4.497,0.521,5.565,1.55
			c1.06,1.02,1.597,2.835,1.597,5.398c0,2.613-0.537,4.454-1.596,5.47C160.028,34.612,158.13,35.134,155.457,35.134L155.457,35.134z
			 M156.681,64.073c-3.499,0-5.937-0.435-7.246-1.292c-1.204-0.79-1.79-2.239-1.79-4.432c0-1.258,0.231-2.258,0.688-2.972
			c0.321-0.503,1.055-1.354,2.723-2.594l7.455,0.344c2.314,0.001,4.063,0.14,5.237,0.412c1.014,0.232,1.726,0.65,2.117,1.241
			c0.427,0.641,0.644,1.646,0.644,2.991c0,2.344-0.649,3.926-1.983,4.837C163.102,63.58,160.462,64.073,156.681,64.073
			L156.681,64.073z"/>
	</g>
	<g>
		<path fill="#2533AF" d="M155.457,16.125c2.173,0,4.625,0.313,7.287,0.931l0.031,0.007l0.032-0.001l10.397-0.283v4.096
			l-6.585-0.138l-0.621-0.013l0.439,0.44c0.78,0.781,1.366,1.753,1.74,2.889c0.372,1.144,0.562,2.631,0.562,4.422
			c0,4.173-1.083,7.185-3.22,8.95c-2.151,1.777-5.61,2.679-10.28,2.679c-1.453,0-2.671-0.095-3.621-0.282l-0.204-0.04l-0.077,0.192
			c-0.396,0.992-0.705,1.82-0.94,2.531c-0.247,0.735-0.372,1.393-0.372,1.952c0,1.358,0.549,2.26,1.631,2.678
			c1.021,0.401,2.546,0.596,4.665,0.596h2.806c3.133,0,5.693,0.24,7.609,0.713c1.874,0.464,3.34,1.412,4.355,2.818
			c1.021,1.418,1.539,3.512,1.539,6.225c0,4.071-1.275,7.08-3.789,8.941c-2.536,1.878-6.797,2.83-12.664,2.83
			c-5.3,0-9.089-0.795-11.264-2.363c-2.152-1.551-3.244-4.184-3.244-7.824c0-1.504,0.176-2.745,0.523-3.691
			c0.35-0.954,0.899-1.808,1.636-2.538c0.761-0.76,1.915-1.746,3.431-2.932l0.277-0.217l-0.297-0.19
			c-0.62-0.399-1.096-1.014-1.413-1.825c-0.323-0.832-0.487-1.722-0.487-2.644c0-0.59,0.141-1.251,0.417-1.963
			c0.28-0.728,0.953-2.035,2-3.889l0.136-0.24l-0.252-0.111c-3.676-1.63-5.54-5.187-5.54-10.572c0-4.082,1.11-7.156,3.302-9.136
			C147.601,17.133,150.984,16.125,155.457,16.125 M155.457,36.284c2.981,0,5.147-0.629,6.436-1.871
			c1.294-1.241,1.949-3.361,1.949-6.299c0-2.887-0.655-4.982-1.948-6.227c-1.29-1.242-3.431-1.871-6.363-1.871
			c-3.029,0-5.231,0.642-6.544,1.906c-1.318,1.267-1.987,3.375-1.987,6.265c0,2.892,0.669,4.987,1.988,6.228
			C150.299,35.655,152.476,36.284,155.457,36.284 M156.681,65.222c4.073,0,6.852-0.544,8.492-1.664
			c1.648-1.125,2.484-3.071,2.484-5.786c0-1.575-0.281-2.796-0.835-3.627c-0.56-0.844-1.508-1.425-2.815-1.726
			c-1.259-0.292-3.092-0.44-5.438-0.44c-0.002,0-0.004,0-0.006,0l-7.773-0.359l-0.088-0.004l-0.07,0.052
			c-1.601,1.161-2.7,2.201-3.27,3.091c-0.575,0.902-0.867,2.11-0.867,3.591c0,2.574,0.777,4.389,2.31,5.394
			C150.305,64.724,152.955,65.222,156.681,65.222 M155.457,15.875c-4.561,0-7.968,1.022-10.223,3.061
			c-2.256,2.039-3.384,5.147-3.384,9.321c0,5.521,1.896,9.119,5.688,10.8c-1.057,1.871-1.729,3.178-2.016,3.922
			c-0.289,0.744-0.434,1.43-0.434,2.053c0,0.959,0.168,1.869,0.504,2.734c0.338,0.863,0.842,1.514,1.512,1.944
			c-1.535,1.201-2.686,2.186-3.453,2.952c-0.771,0.766-1.333,1.645-1.693,2.629c-0.36,0.98-0.539,2.24-0.539,3.777
			c0,3.744,1.116,6.419,3.348,8.027c2.229,1.607,6.035,2.41,11.41,2.41c5.949,0,10.223-0.961,12.813-2.879
			c2.592-1.919,3.891-4.965,3.891-9.143c0-2.783-0.531-4.906-1.586-6.371c-1.057-1.462-2.557-2.434-4.498-2.914
			c-1.945-0.48-4.5-0.721-7.67-0.721h-2.806c-2.065,0-3.589-0.191-4.573-0.578c-0.984-0.381-1.473-1.197-1.473-2.445
			c0-0.527,0.117-1.151,0.359-1.872c0.238-0.72,0.551-1.558,0.936-2.519c0.961,0.189,2.182,0.287,3.67,0.287
			c4.752,0,8.231-0.912,10.439-2.736c2.206-1.822,3.311-4.872,3.311-9.142c0-1.822-0.19-3.322-0.574-4.5
			c-0.387-1.175-0.984-2.171-1.801-2.988l6.84,0.144v-4.608l-10.654,0.29C160.111,16.188,157.666,15.875,155.457,15.875
			L155.457,15.875z M155.457,36.034c-2.926,0-5.027-0.6-6.298-1.801c-1.274-1.198-1.91-3.213-1.91-6.046
			c0-2.833,0.636-4.86,1.91-6.084c1.271-1.224,3.396-1.836,6.371-1.836c2.88,0,4.942,0.601,6.189,1.801
			c1.248,1.201,1.872,3.216,1.872,6.046c0,2.879-0.624,4.921-1.872,6.119C160.472,35.434,158.382,36.034,155.457,36.034
			L155.457,36.034z M156.681,64.972c-3.697,0-6.275-0.48-7.739-1.438c-1.465-0.961-2.196-2.689-2.196-5.185
			c0-1.438,0.277-2.593,0.828-3.456c0.551-0.861,1.62-1.873,3.205-3.023l7.773,0.359c2.35,0,4.151,0.145,5.398,0.434
			c1.248,0.287,2.137,0.826,2.664,1.621c0.527,0.791,0.793,1.953,0.793,3.488c0,2.639-0.793,4.5-2.375,5.58
			C163.448,64.433,160.666,64.972,156.681,64.972L156.681,64.972z"/>
	</g>
	<polyline fill="#752DF9" stroke="#2533AF" stroke-width="0.2598" points="162.77,17.022 167.161,11.784 170.986,14.99 
		166.595,20.228 	"/>
	<g>
		<g>
			<path fill="#2533AF" d="M165.408,17.467h5.328v2.519c2.159-1.198,4.14-2.039,5.941-2.519c1.799-0.48,3.682-0.721,5.65-0.721
				c3.07,0,5.445,0.577,7.127,1.728c1.678,1.151,2.867,2.988,3.563,5.507c0.696,2.519,1.045,6.011,1.045,10.475v19.004h-5.328
				V34.601c0-3.407-0.205-6.022-0.612-7.848c-0.407-1.822-1.14-3.143-2.194-3.958c-1.057-0.817-2.592-1.224-4.607-1.224
				c-1.631,0-3.301,0.205-5.004,0.612c-1.704,0.407-3.084,0.875-4.139,1.403l-1.367,0.647v29.228h-5.402V17.467z"/>
		</g>
	</g>
	<g>
		<g>
			<path fill="#752DF9" d="M190.734,53.041c-0.248,0-0.45-0.202-0.45-0.45V33.729c0-3.354-0.202-5.961-0.602-7.75
				c-0.382-1.709-1.064-2.955-2.03-3.7c-0.97-0.75-2.428-1.13-4.332-1.13c-1.586,0-3.234,0.202-4.899,0.6
				c-1.659,0.396-3.019,0.856-4.042,1.368l-1.118,0.53V52.59c0,0.248-0.202,0.45-0.45,0.45h-5.402c-0.248,0-0.45-0.202-0.45-0.45
				V16.595c0-0.249,0.202-0.45,0.45-0.45h5.328c0.248,0,0.45,0.201,0.45,0.45v1.763c1.931-1.022,3.736-1.761,5.375-2.198
				c1.828-0.488,3.769-0.736,5.767-0.736c3.146,0,5.63,0.607,7.381,1.807c1.763,1.209,3.021,3.146,3.742,5.759
				c0.704,2.547,1.062,6.112,1.062,10.595V52.59c0,0.248-0.202,0.45-0.45,0.45H190.734z"/>
		</g>
		<path fill="#FFFFFF" d="M184.328,15.875c3.07,0,5.445,0.577,7.127,1.728c1.678,1.151,2.867,2.988,3.563,5.507
			c0.696,2.519,1.045,6.011,1.045,10.475V52.59h-5.328V33.729c0-3.407-0.205-6.022-0.612-7.848c-0.407-1.822-1.14-3.143-2.194-3.958
			c-1.057-0.817-2.592-1.224-4.607-1.224c-1.631,0-3.301,0.205-5.004,0.612c-1.704,0.407-3.084,0.875-4.139,1.403l-1.367,0.647
			V52.59h-5.402V16.595h5.328v2.519c2.159-1.198,4.14-2.039,5.941-2.519C180.476,16.115,182.359,15.875,184.328,15.875
			 M184.328,14.975c-2.037,0-4.017,0.253-5.883,0.751c-1.482,0.396-3.095,1.031-4.81,1.894v-1.024c0-0.497-0.402-0.9-0.899-0.9
			h-5.328c-0.497,0-0.899,0.403-0.899,0.9V52.59c0,0.497,0.402,0.899,0.899,0.899h5.402c0.497,0,0.899-0.402,0.899-0.899V23.931
			l0.853-0.403c1.01-0.505,2.337-0.953,3.963-1.341c1.631-0.39,3.244-0.588,4.795-0.588c1.803,0,3.168,0.349,4.057,1.036
			c0.881,0.68,1.508,1.837,1.867,3.442c0.392,1.756,0.591,4.331,0.591,7.651V52.59c0,0.497,0.402,0.899,0.899,0.899h5.328
			c0.497,0,0.899-0.402,0.899-0.899V33.585c0-4.523-0.362-8.128-1.077-10.715c-0.75-2.717-2.069-4.739-3.921-6.009
			C190.135,15.609,187.566,14.975,184.328,14.975L184.328,14.975z"/>
	</g>
	<g>
		<path fill="#2533AF" d="M184.328,16.125c3.002,0,5.353,0.567,6.985,1.684c1.622,1.113,2.787,2.919,3.463,5.368
			c0.688,2.487,1.036,5.989,1.036,10.409V52.34h-4.828V33.729c0-3.405-0.208-6.063-0.618-7.902
			c-0.419-1.873-1.188-3.253-2.285-4.101c-1.096-0.847-2.697-1.276-4.761-1.276c-1.641,0-3.344,0.208-5.062,0.619
			c-1.712,0.408-3.122,0.887-4.188,1.42l-1.367,0.647l-0.143,0.068v0.158V52.34h-4.902V16.845h4.828v2.269v0.425l0.371-0.206
			c2.134-1.184,4.113-2.024,5.885-2.496C180.511,16.364,182.39,16.125,184.328,16.125 M184.328,15.875
			c-1.969,0-3.852,0.24-5.65,0.721c-1.802,0.48-3.782,1.321-5.941,2.519v-2.519h-5.328V52.59h5.402V23.362l1.367-0.647
			c1.055-0.527,2.435-0.996,4.139-1.403c1.703-0.407,3.373-0.612,5.004-0.612c2.016,0,3.551,0.407,4.607,1.224
			c1.055,0.814,1.787,2.136,2.194,3.958c0.407,1.825,0.612,4.441,0.612,7.848V52.59h5.328V33.585c0-4.464-0.349-7.956-1.045-10.475
			c-0.695-2.519-1.885-4.356-3.563-5.507C189.773,16.452,187.398,15.875,184.328,15.875L184.328,15.875z"/>
	</g>
</g>
</svg>
