<?xml version="1.0" encoding="utf-8"?>
<!-- Generator: Adobe Illustrator 14.0.0, SVG Export Plug-In . SVG Version: 6.00 Build 43363)  -->
<!DOCTYPE svg PUBLIC "-//W3C//DTD SVG 1.1//EN" "http://www.w3.org/Graphics/SVG/1.1/DTD/svg11.dtd">
<svg version="1.1" id="Layer_1" xmlns="http://www.w3.org/2000/svg" xmlns:xlink="http://www.w3.org/1999/xlink" x="0px" y="0px"
	 width="1767.789px" height="811.489px" viewBox="0 0 1767.789 811.489" enable-background="new 0 0 1767.789 811.489"
	 xml:space="preserve">
<g>
	<path fill="#F21D1D" d="M1612.342,794.219c0,9.538-7.733,17.27-17.271,17.27H578.04c-9.538,0-17.271-7.731-17.271-17.27l0,0
		c0-9.539,7.733-17.271,17.271-17.271h1017.03C1604.608,776.948,1612.342,784.68,1612.342,794.219L1612.342,794.219z"/>
	<path fill="#F41C1D" d="M1438.342,121.142c0,17.949-14.551,32.5-32.5,32.5h-1224c-17.949,0-32.5-14.551-32.5-32.5l0,0
		c0-17.949,14.551-32.5,32.5-32.5h1224C1423.791,88.642,1438.342,103.193,1438.342,121.142L1438.342,121.142z"/>
	<path fill="#1A6BD7" d="M1720.342,398.142c0,17.949-14.551,32.5-32.5,32.5h-1224c-17.949,0-32.5-14.551-32.5-32.5l0,0
		c0-17.949,14.551-32.5,32.5-32.5h1224C1705.791,365.642,1720.342,380.193,1720.342,398.142L1720.342,398.142z"/>
	<path fill="#DD1DB2" d="M1528.342,349.142c0,17.949-14.551,32.5-32.5,32.5h-1224c-17.949,0-32.5-14.551-32.5-32.5l0,0
		c0-17.949,14.551-32.5,32.5-32.5h1224C1513.791,316.642,1528.342,331.193,1528.342,349.142L1528.342,349.142z"/>
	<path fill="#E91D1C" d="M1407.409,306.142c0,17.949-14.551,32.5-32.5,32.5h-1224c-17.949,0-32.5-14.551-32.5-32.5l0,0
		c0-17.949,14.551-32.5,32.5-32.5h1224C1392.858,273.642,1407.409,288.193,1407.409,306.142L1407.409,306.142z"/>
	<path fill="#FFAE1C" d="M1503.342,199.142c0,17.949-14.551,32.5-32.5,32.5h-1224c-17.949,0-32.5-14.551-32.5-32.5l0,0
		c0-17.949,14.551-32.5,32.5-32.5h1224C1488.791,166.642,1503.342,181.193,1503.342,199.142L1503.342,199.142z"/>
	<path fill="#EFD71C" d="M1399.342,159.142c0,17.949-14.551,32.5-32.5,32.5h-1224c-17.949,0-32.5-14.551-32.5-32.5l0,0
		c0-17.949,14.551-32.5,32.5-32.5h1224C1384.791,126.642,1399.342,141.193,1399.342,159.142L1399.342,159.142z"/>
	<path fill="#FEAC1D" d="M1659.342,443.142c0,17.949-14.551,32.5-32.5,32.5h-1224c-17.949,0-32.5-14.551-32.5-32.5l0,0
		c0-17.949,14.551-32.5,32.5-32.5h1224C1644.791,410.642,1659.342,425.193,1659.342,443.142L1659.342,443.142z"/>
	<path fill="#DD1DB2" d="M1481.342,475.642c0,17.949-14.551,32.5-32.5,32.5h-1224c-17.949,0-32.5-14.551-32.5-32.5l0,0
		c0-17.949,14.551-32.5,32.5-32.5h1224C1466.791,443.142,1481.342,457.693,1481.342,475.642L1481.342,475.642z"/>
	<path fill="#F21D1D" d="M1380.342,410.642c0,17.949-14.551,32.5-32.5,32.5h-1224c-17.949,0-32.5-14.551-32.5-32.5l0,0
		c0-17.949,14.551-32.5,32.5-32.5h1224C1365.791,378.142,1380.342,392.693,1380.342,410.642L1380.342,410.642z"/>
	<path fill="#DD1DB2" d="M1618.342,662.142c0,17.949-14.551,32.5-32.5,32.5h-1224c-17.949,0-32.5-14.551-32.5-32.5l0,0
		c0-17.949,14.551-32.5,32.5-32.5h1224C1603.791,629.642,1618.342,644.193,1618.342,662.142L1618.342,662.142z"/>
	<path fill="#EFD71C" d="M1685.342,553.642c0,17.949-14.551,32.5-32.5,32.5h-1224c-17.949,0-32.5-14.551-32.5-32.5l0,0
		c0-17.949,14.551-32.5,32.5-32.5h1224C1670.791,521.142,1685.342,535.693,1685.342,553.642L1685.342,553.642z"/>
	<path fill="#F21D1D" d="M1652.342,613.142c0,17.949-14.551,32.5-32.5,32.5h-1224c-17.949,0-32.5-14.551-32.5-32.5l0,0
		c0-17.949,14.551-32.5,32.5-32.5h1224C1637.791,580.642,1652.342,595.193,1652.342,613.142L1652.342,613.142z"/>
	<path fill="#FFAE1E" d="M1561.342,580.642c0,17.949-14.551,32.5-32.5,32.5h-1224c-17.949,0-32.5-14.551-32.5-32.5l0,0
		c0-17.949,14.551-32.5,32.5-32.5h1224C1546.791,548.142,1561.342,562.693,1561.342,580.642L1561.342,580.642z"/>
	<path fill="#EFD71C" d="M1593.342,766.295c0,12.342-10.006,22.347-22.348,22.347H510.689c-12.342,0-22.348-10.005-22.348-22.347
		l0,0c0-12.342,10.006-22.348,22.348-22.348h1060.305C1583.336,743.948,1593.342,753.954,1593.342,766.295L1593.342,766.295z"/>
	<path fill="#119DFF" d="M1720.342,499.642c0,17.949-14.551,32.5-32.5,32.5h-1224c-17.949,0-32.5-14.551-32.5-32.5l0,0
		c0-17.949,14.551-32.5,32.5-32.5h1224C1705.791,467.142,1720.342,481.693,1720.342,499.642L1720.342,499.642z"/>
	<path fill="#119DFF" d="M1685.342,719.142c0,17.949-14.551,32.5-32.5,32.5h-1224c-17.949,0-32.5-14.551-32.5-32.5l0,0
		c0-17.949,14.551-32.5,32.5-32.5h1224C1670.791,686.642,1685.342,701.193,1685.342,719.142L1685.342,719.142z"/>
	<path fill="#FE4624" d="M1456.342,255.142c0,17.949-14.551,32.5-32.5,32.5h-1224c-17.949,0-32.5-14.551-32.5-32.5l0,0
		c0-17.949,14.551-32.5,32.5-32.5h1224C1441.791,222.642,1456.342,237.193,1456.342,255.142L1456.342,255.142z"/>
	<g>
		<path fill="#DB1DB7" d="M1232.342,68.948c0,12.342-10.006,22.347-22.348,22.347H139.689c-12.342,0-22.348-10.005-22.348-22.347
			l0,0c0-12.342,10.006-22.347,22.348-22.347h1070.305C1222.336,46.601,1232.342,56.606,1232.342,68.948L1232.342,68.948z"/>
		<path fill="#129BFF" d="M1280.675,37.872c0,9.539-7.733,17.271-17.271,17.271H274.947c-9.539,0-17.272-7.732-17.272-17.271l0,0
			c0-9.538,7.733-17.271,17.272-17.271h988.457C1272.941,20.601,1280.675,28.333,1280.675,37.872L1280.675,37.872z"/>
		<path fill="#1C73E3" d="M1238.092,12.571c0,6.943-5.629,12.571-12.572,12.571H312.831c-6.943,0-12.572-5.628-12.572-12.571l0,0
			C300.259,5.628,305.888,0,312.831,0h912.688C1232.463,0,1238.092,5.628,1238.092,12.571L1238.092,12.571z"/>
	</g>
	<circle fill="#DB1DB7" cx="59.659" cy="105.891" r="17.249"/>
	<circle fill="#DB1DB7" cx="71.056" cy="287.642" r="11.397"/>
	<circle fill="#DB1DB7" cx="225.739" cy="153.642" r="11.397"/>
	<circle fill="#DD1DB2" cx="1503.341" cy="287.642" r="11.397"/>
	<circle fill="#EFD71C" cx="1696.739" cy="613.142" r="11.397"/>
	<circle fill="#119DFF" cx="1612.342" cy="316.642" r="17.249"/>
	<circle fill="#EFD71C" cx="1561.342" cy="191.642" r="17.249"/>
	<circle fill="#EFD71C" cx="1364.842" cy="281.79" r="17.249"/>
	<circle fill="#119DFF" cx="23.724" cy="198.117" r="23.724"/>
	<circle fill="#119DFF" cx="420.065" cy="378.142" r="23.724"/>
	<circle fill="#F21D1D" cx="319.842" cy="766.295" r="23.724"/>
	<circle fill="#F21D1D" cx="1313.727" cy="548.142" r="23.724"/>
	<circle fill="#F21D1D" cx="1744.065" cy="685.866" r="23.724"/>
	<circle fill="#EFD71C" cx="149.342" cy="548.142" r="23.724"/>
	<circle fill="#EFD71C" cx="353.065" cy="78.866" r="23.724"/>
	<circle fill="#FFAE1C" cx="1337.451" cy="25.143" r="21.588"/>
</g>
</svg>
