<?xml version="1.0" encoding="utf-8"?>
<!-- Generator: Adobe Illustrator 14.0.0, SVG Export Plug-In . SVG Version: 6.00 Build 43363)  -->
<!DOCTYPE svg PUBLIC "-//W3C//DTD SVG 1.1//EN" "http://www.w3.org/Graphics/SVG/1.1/DTD/svg11.dtd">
<svg version="1.1" id="Layer_1" xmlns="http://www.w3.org/2000/svg" xmlns:xlink="http://www.w3.org/1999/xlink" x="0px" y="0px"
	 width="141.732px" height="164.861px" viewBox="0 0 141.732 164.861" enable-background="new 0 0 141.732 164.861"
	 xml:space="preserve">
<g>
	<path fill-rule="evenodd" clip-rule="evenodd" fill="#E7E7E7" d="M43.829,0.278c2.49,2.19,3.025,12.124-0.773,12.377
		C39.036,12.922,35.213-2.216,43.829,0.278z"/>
	<path fill-rule="evenodd" clip-rule="evenodd" fill="#E7E7E7" d="M73.228,7.626c0.964,5.676-3.307,9.278-8.897,9.67
		C62.755,12.84,67.816,3.86,73.228,7.626z"/>
	<path fill-rule="evenodd" clip-rule="evenodd" fill="#E7E7E7" d="M23.329,21.939c-4.021,0.412-10.454-2.766-10.443-6.576
		C12.905,7.958,26.215,15.136,23.329,21.939z"/>
	<path fill-rule="evenodd" clip-rule="evenodd" fill="#E7E7E7" d="M43.443,20.778c16.554-2.018,26.297,7.439,29.785,19.34
		c1.197,4.087,0.71,7.928,1.547,13.151c0.563,3.509,2.858,3.985,2.707,6.963c-0.182,3.59-5.498,6.658-7.736,8.896
		c-2.161,2.161-5.485,7.41-8.51,7.736c-2.808,0.302-4.381-1.968-6.575-2.321c-5.373-0.865-9.703,0.067-14.313-1.16
		c-11.34-3.019-21.32-14.23-19.727-29.784C21.677,33.288,29.951,22.422,43.443,20.778z M29.518,36.25
		c-0.57,0.939-2.11,2.734-2.708,8.123c-1.058,9.524,3.996,18.213,11.604,21.66c16.084,7.288,31.845-6.63,29.396-22.821
		C66.247,32.867,56.11,25.221,44.216,26.967C37.149,28.004,32.191,31.844,29.518,36.25z"/>
	<path fill-rule="evenodd" clip-rule="evenodd" fill="#E7E7E7" d="M127.38,69.128c2.109,8.262,9.578,17.556,4.254,26.303
		c0.064,3.948,10.848,13.135,10.058,17.793c-0.544,3.205-4.634,2.402-7.35,4.255c0.788,5.695-1.722,9.968-0.773,14.312
		c-4.812,5.085,1.833,13.337-1.547,18.953c-3.638,6.045-16.243,1.035-24.756,2.708c-0.229,3.381,0.478,7.697-0.387,10.444
		c-15.62,1.286-36.599,1.286-52.218,0c0.545-11.508,5.551-22.928,4.254-35.587c-1.927-18.811-19.781-29.091-20.113-49.124
		c4.521,1.902,8.235,0.961,12.764,1.548c5.735,0.742,8.914,4.909,13.152,5.415c9.005,1.074,17.875-8.375,20.5-14.698
		c3.135-7.549-2.313-11.745-3.868-18.954c-1.565-7.259-0.192-14.66-3.868-19.34c15.929-2.649,47.203-0.545,56.087,10.83
		C139.843,52.02,137.038,66.438,127.38,69.128z"/>
	<path fill-rule="evenodd" clip-rule="evenodd" fill="#E7E7E7" d="M46.151,37.797c5.702,4.741,11.572,9.314,16.245,15.086
		c-4.335-1.21-7.884-3.204-11.991-4.643c-0.704,2.519-0.898,5.548-1.16,8.51c-5.9-4.543-11.719-9.168-16.246-15.085
		c3.702,1.584,7.699,2.873,11.217,4.642C45.518,44.127,45.428,40.557,46.151,37.797z"/>
	<path fill-rule="evenodd" clip-rule="evenodd" fill="#E7E7E7" d="M12.885,41.666c-1.17,4.252-8.537,4.379-12.377,2.708
		C-2.793,35.967,11.006,38.064,12.885,41.666z"/>
	<path fill-rule="evenodd" clip-rule="evenodd" fill="#E7E7E7" d="M18.3,64.874C20.369,70.724,8.091,78.34,7.47,71.45
		C7.087,67.199,13.561,64.049,18.3,64.874z"/>
	<path fill-rule="evenodd" clip-rule="evenodd" fill="#E7E7E7" d="M79.803,64.874c-1.134,8.559-7.198,14.176-15.085,14.698
		C69.195,74.379,74.682,68.134,79.803,64.874z"/>
</g>
</svg>
