<?xml version="1.0" encoding="utf-8"?>
<!-- Generator: Adobe Illustrator 14.0.0, SVG Export Plug-In . SVG Version: 6.00 Build 43363)  -->
<!DOCTYPE svg PUBLIC "-//W3C//DTD SVG 1.1//EN" "http://www.w3.org/Graphics/SVG/1.1/DTD/svg11.dtd">
<svg version="1.1" id="Layer_1" xmlns="http://www.w3.org/2000/svg" xmlns:xlink="http://www.w3.org/1999/xlink" x="0px" y="0px"
	 width="43.564px" height="43.57px" viewBox="0 0 43.564 43.57" enable-background="new 0 0 43.564 43.57" xml:space="preserve">
<g>
	<g>
		<g>
			<path fill="#FFFFFF" d="M13.023,13.394c0.138-0.137,0.326-0.214,0.521-0.214c0.195,0,0.384,0.077,0.521,0.214
				c0.136,0.14,0.214,0.33,0.214,0.521c0,0.193-0.078,0.382-0.214,0.522c-0.135,0.134-0.326,0.214-0.521,0.214
				c-0.195,0-0.382-0.081-0.521-0.214c-0.136-0.139-0.215-0.329-0.215-0.522C12.808,13.723,12.886,13.534,13.023,13.394z"/>
		</g>
	</g>
	<g>
		<g>
			<path fill="#FFFFFF" d="M28.843,24.431v5.886c0,0.409,0.331,0.738,0.737,0.738h5.884c0.406,0,0.735-0.329,0.735-0.738v-5.886
				c0-0.403-0.329-0.732-0.735-0.732h-5.884C29.174,23.699,28.843,24.028,28.843,24.431z M30.315,25.17h4.412v4.413h-4.412V25.17z"
				/>
		</g>
	</g>
	<g>
		<g>
			<path fill="#FFFFFF" d="M2.952,19.062v20.819c0,0.405,0.329,0.737,0.733,0.737h20.819c0.298,0,0.564-0.182,0.68-0.455
				s0.053-0.59-0.158-0.8l-4.584-4.584c-0.001,0-0.001,0-0.001,0s0,0,0-0.002l-8.737-8.736c0,0,0,0-0.001,0v-0.003l-7.496-7.496
				c-0.209-0.211-0.523-0.274-0.801-0.156C3.131,18.497,2.952,18.768,2.952,19.062z M4.423,20.84l2.807,2.807l-0.702,0.702
				c-0.288,0.289-0.288,0.751,0,1.04c0.143,0.146,0.333,0.214,0.521,0.214c0.188,0,0.376-0.068,0.521-0.214l0.702-0.703l1.871,1.873
				l-0.701,0.704c-0.287,0.285-0.287,0.754,0,1.038c0.143,0.145,0.332,0.215,0.52,0.215c0.189,0,0.376-0.07,0.521-0.215l0.703-0.704
				l1.872,1.874l-0.702,0.703c-0.287,0.289-0.287,0.754,0,1.04c0.145,0.145,0.332,0.217,0.521,0.217c0.188,0,0.378-0.072,0.52-0.217
				l0.703-0.7l1.87,1.872l-0.702,0.701c-0.286,0.288-0.286,0.752,0,1.043c0.146,0.142,0.333,0.214,0.522,0.214
				c0.189,0,0.376-0.072,0.52-0.214l0.702-0.705l1.874,1.871l-0.702,0.705c-0.288,0.285-0.288,0.754,0,1.04
				c0.143,0.143,0.33,0.214,0.521,0.214c0.187,0,0.377-0.071,0.521-0.214l0.702-0.7l2.806,2.805H4.423V20.84z"/>
		</g>
	</g>
	<g>
		<g>
			<path fill="#FFFFFF" d="M6.629,27.944v8.259c0,0.408,0.33,0.737,0.737,0.737h8.261c0.296,0,0.563-0.182,0.676-0.451
				c0.116-0.276,0.054-0.594-0.157-0.805l-8.261-8.262c-0.21-0.208-0.526-0.269-0.802-0.158C6.808,27.375,6.629,27.646,6.629,27.944
				z M8.1,29.719l5.749,5.749H8.1V29.719z"/>
		</g>
	</g>
	<g>
		<g>
			<path fill="#FFFFFF" d="M6.381,14.708l1.84,5.024c0.036,0.098,0.094,0.189,0.167,0.266l5.643,5.641
				c0.286,0.286,0.752,0.286,1.041,0c0.286-0.287,0.286-0.754,0-1.043l-5.136-5.133l2.142-2.142l13.441,13.438l-2.144,2.143
				l-4.699-4.7c-0.288-0.288-0.755-0.288-1.039,0c-0.288,0.289-0.288,0.755,0,1.04l6.203,6.206c0.582,0.58,1.348,0.872,2.112,0.872
				c0.764,0,1.528-0.292,2.108-0.872c1.166-1.166,1.166-3.061,0-4.225l-0.659-0.662c0.029-0.072,0.045-0.156,0.045-0.244v-8.53
				c0-0.41-0.331-0.736-0.736-0.736h-5.885c-0.407,0-0.735,0.326-0.735,0.736c0,0.406,0.329,0.733,0.735,0.733h5.15v6.614
				l-10.91-10.909l8.703-8.702l10.795,10.798c0.139,0.137,0.325,0.213,0.52,0.213h2.587v18.611H26.711
				c-0.407,0-0.735,0.329-0.735,0.735c0,0.405,0.328,0.737,0.735,0.737h11.693c0.407,0,0.736-0.332,0.736-0.737V20.535h0.737
				c0.298,0,0.564-0.18,0.679-0.455c0.113-0.271,0.05-0.59-0.16-0.802L24.289,3.168c-0.287-0.289-0.753-0.289-1.042,0l-8.383,8.387
				c-0.289,0.288-0.289,0.754,0,1.039c0.287,0.288,0.752,0.288,1.04,0l7.866-7.866l14.333,14.333h-2.713L24.289,7.964
				c-0.138-0.14-0.323-0.214-0.52-0.214c-0.195,0-0.383,0.074-0.522,0.214l-9.219,9.224l-1.411-1.417
				c-0.078-0.073-0.168-0.134-0.269-0.17l-5.021-1.838c-0.271-0.098-0.574-0.033-0.774,0.17C6.351,14.138,6.283,14.44,6.381,14.708z
				 M26.56,31.798l0.462,0.463c0.286,0.288,0.445,0.67,0.445,1.073c0,0.404-0.159,0.784-0.445,1.069
				c-0.285,0.289-0.666,0.444-1.071,0.444c-0.403,0-0.785-0.155-1.07-0.444l-0.463-0.46L26.56,31.798z M8.306,15.69l2.43,0.889
				l-1.538,1.539L8.306,15.69z"/>
		</g>
	</g>
	<g>
		<g>
			<path fill="#FFFFFF" d="M15.847,26.415c0.137-0.141,0.327-0.22,0.521-0.22c0.192,0,0.383,0.079,0.521,0.22
				c0.136,0.135,0.216,0.323,0.216,0.52c0,0.194-0.08,0.383-0.216,0.518c-0.136,0.141-0.326,0.217-0.521,0.217
				c-0.193,0-0.382-0.076-0.521-0.217c-0.136-0.134-0.217-0.326-0.217-0.518C15.629,26.739,15.711,26.55,15.847,26.415z"/>
		</g>
	</g>
	<g>
		<g>
			<path fill="#FFFFFF" d="M20.973,16.856c0,1.542,1.254,2.795,2.796,2.795c1.54,0,2.794-1.254,2.794-2.795
				c0-1.539-1.254-2.792-2.794-2.792C22.228,14.063,20.973,15.317,20.973,16.856z M22.444,16.856c0-0.729,0.593-1.322,1.325-1.322
				c0.729,0,1.322,0.593,1.322,1.322c0,0.733-0.594,1.326-1.322,1.326C23.036,18.182,22.444,17.589,22.444,16.856z"/>
		</g>
	</g>
</g>
</svg>
