<?xml version="1.0" encoding="utf-8"?>
<!-- Generator: Adobe Illustrator 14.0.0, SVG Export Plug-In . SVG Version: 6.00 Build 43363)  -->
<!DOCTYPE svg PUBLIC "-//W3C//DTD SVG 1.1//EN" "http://www.w3.org/Graphics/SVG/1.1/DTD/svg11.dtd">
<svg version="1.1" id="Layer_1" xmlns="http://www.w3.org/2000/svg" xmlns:xlink="http://www.w3.org/1999/xlink" x="0px" y="0px"
	 width="141.732px" height="139.014px" viewBox="0 0 141.732 139.014" enable-background="new 0 0 141.732 139.014"
	 xml:space="preserve">
<g>
	<path fill-rule="evenodd" clip-rule="evenodd" fill="#E7E7E7" d="M21.317,0.238c14.885-2.812,18.112,20.18,3.319,21.591
		c-7.271,0.69-12.234-5.707-12.178-11.074C12.52,4.483,16.683,1.107,21.317,0.238z"/>
	<path fill-rule="evenodd" clip-rule="evenodd" fill="#E7E7E7" d="M113.222,2.45c0.495,12.497,0.274,29.404,0.274,44.567
		c0,4.102,1.091,12.005-0.549,14.394c-1.595,2.318-7.477,1.389-10.521,1.389c-4.555,0-7.844,0-11.627,0
		c2.228,10.764,5.059,23.178,7.751,35.431c0.931,4.223,4.616,13.55-1.381,13.84c-4.478,0.222-4.593-6.333-5.539-10.518
		c-2.898-12.799-5.867-26.149-8.583-38.753c-2.029,0-4.059,0-6.089,0c-2.174,8.529-4.081,17.321-5.813,26.294
		c-3.33,0.088-6.512,1.793-8.309,2.491c1.847-9.689,4.216-18.853,6.093-28.511c-6.802-1.503-18.482,1.876-22.702-2.213
		c-0.525-2.243-0.175-5.36-0.274-8.029c2.876-0.905,5.696-3.346,7.199-4.704c0,2.395,0,4.799,0,7.194
		c17.07,0.648,35.343,0.092,52.875,0.278c0.642-15.225,0.093-31.65,0.274-47.337C89.227,7.615,70.962,8.173,53.43,7.989
		c-0.648,4.704-0.096,10.608-0.278,15.777c-2.956,1.198-5.341,4.441-7.199,5.814c0-8.767,0-17.533,0-26.3
		c2.175-3.981,12.115-2.494,19.38-2.494c10.993,0,22.308,0,33.218,0C103.853,0.787,109.544-0.331,113.222,2.45z"/>
	<path fill-rule="evenodd" clip-rule="evenodd" fill="#E7E7E7" d="M71.42,28.191c3.174-1.052,5.097-5.786,8.309-5.81
		c3.86-0.026,4.867,6.802,8.301,8.579c3.998,0.47,12.039-1.659,11.07,3.045c-0.381,1.884-2.846,1.663-5.807,1.663
		c-2.35,0-5.646,0.45-7.202,0c-3.51-1.022-4.051-5.921-6.362-7.478c-3.021,0.153-5.753,6.287-9.415,5.814
		c-2.361-0.302-4.342-6.341-5.539-8.858c-1.77-3.715-3.838-7.004-4.15-10.238C66.091,9.789,68.856,25.304,71.42,28.191z"/>
	<path fill-rule="evenodd" clip-rule="evenodd" fill="#E7E7E7" d="M0,41.482c1.61-2.96,5.272-5.543,8.584-8.583
		c2.895-2.655,6.012-6.782,8.579-8.026c7.32-3.54,16.583,0.396,17.719,6.367c0.84,4.448,0,10.074,0,15.225
		c0,15.587,0,30.998,0,46.229c-0.892,0.485-2.3-1.487-3.876-2.215c-1.313-0.604-2.662-0.676-3.875-1.107c0-5.26,0-10.521,0-15.777
		c-0.747-0.641-2.671-0.099-3.876-0.278c0,5.261,0,10.521,0,15.777c-5.013,0.344-8.729,3.453-11.074,5.539
		c0.088-11.066-0.492-21.474-0.278-32.665c8.08,2.021,13.031-4.841,10.796-11.075c-1.327-3.7-5.745-6.343-7.194-8.856
		c0.953-2.277,2.51-3.949,3.875-5.814c-1.217,0.522-2.197,1.534-3.875,3.048c-0.568,0.507-4.078,2.991-4.15,3.594
		c-0.084,0.667,1.686,2.209,1.934,2.495c1.927,2.197,5.661,4.967,6.092,7.474c0.526,3.069-0.979,6.259-5.261,5.813
		c-2.665-0.279-5.688-4.628-7.473-6.642C4.044,49.066,1.282,46.213,0,43.695C0,42.959,0,42.223,0,41.482z"/>
	<path fill-rule="evenodd" clip-rule="evenodd" fill="#E7E7E7" d="M38.759,44.527c0-3.877,0-7.753,0-11.628
		c1.266-0.302,4.15,3.23,5.813,4.433c3.296-2.098,5.027-8.229,8.857-9.415c4.181-1.297,7.354,2.735,5.813,6.366
		c-1.053,2.477-3.624,4.941-5.813,7.474c-2.129,2.457-4.792,6.782-8.031,6.921C42.012,48.822,41.017,46.083,38.759,44.527z"/>
	<path fill-rule="evenodd" clip-rule="evenodd" fill="#E7E7E7" d="M62.562,45.358c-0.29-2.183,0.527-3.602,2.491-3.602
		c4.482,0,9.686,0,16.613,0c4.838,0,13.854-1.053,14.114,2.217c0.32,4.001-11.978,2.491-16.052,2.491
		C73.357,46.465,66.324,47.266,62.562,45.358z"/>
	<path fill-rule="evenodd" clip-rule="evenodd" fill="#E7E7E7" d="M22.149,92.97c16.22-2.767,18.909,21.516,4.425,23.808
		c-7.584,1.201-14.302-4.685-14.394-11.902c-0.065-5.126,1.805-6.992,3.323-8.582C16.938,94.785,19.005,93.508,22.149,92.97z"/>
	<path fill-rule="evenodd" clip-rule="evenodd" fill="#E7E7E7" d="M69.481,92.97c8.34-1.423,15.915,5.352,14.122,14.396
		c-2.632,13.264-23.049,11.563-24.086-1.385c-0.396-4.917,1.748-7.923,2.77-9.137C63.771,95.075,66.102,93.546,69.481,92.97z"/>
	<path fill-rule="evenodd" clip-rule="evenodd" fill="#E7E7E7" d="M116.822,92.97c7.126-1.217,13.153,3.09,14.114,9.689
		c0.862,5.886-2.998,13.139-9.964,14.118c-8.004,1.129-15.021-5.139-14.122-13.565c0.352-3.265,1.679-4.871,1.938-5.256
		C110.406,95.541,112.832,93.652,116.822,92.97z"/>
	<path fill-rule="evenodd" clip-rule="evenodd" fill="#E7E7E7" d="M45.121,138.369c-13.328,1.281-29.061,0.194-43.458,0.553
		c1.001-3.204,3.121-6.729,4.704-10.243c1.473-3.261,2.609-8.891,6.92-9.41c3.212-0.385,7.877,0,12.737,0
		c4.212,0,9.888-0.522,11.902,0.831c1.945,1.313,3.494,6.2,4.707,8.858C44.105,132.2,46.54,135.5,45.121,138.369z"/>
	<path fill-rule="evenodd" clip-rule="evenodd" fill="#E7E7E7" d="M94.399,138.647c-14.58,0.645-30.361,0.092-45.402,0.274
		c0.899-3.074,2.812-6.153,4.433-9.686c1.553-3.395,2.724-9.431,7.194-9.968c3.28-0.393,7.714,0,12.459,0
		c4.471,0,10.529-0.499,12.459,1.106c1.983,1.659,3.029,6.026,4.425,9.137C91.523,132.975,93.156,136.019,94.399,138.647z"/>
	<path fill-rule="evenodd" clip-rule="evenodd" fill="#E7E7E7" d="M141.732,138.647c0,0.092,0,0.183,0,0.274
		c-14.382-0.358-30.273,0.729-43.738-0.553c-1.161-2.755,1.006-6.165,2.494-9.411c1.251-2.738,2.96-7.614,4.982-8.858
		c2.753-1.697,9.406-0.831,13.008-0.831c3.867,0,11.032-0.752,13.564,0.553c1.916,0.988,4.014,6.42,4.982,8.583
		C138.879,132.518,140.283,136.37,141.732,138.647z"/>
</g>
</svg>
