<?xml version="1.0" encoding="utf-8"?>
<!-- Generator: Adobe Illustrator 14.0.0, SVG Export Plug-In . SVG Version: 6.00 Build 43363)  -->
<!DOCTYPE svg PUBLIC "-//W3C//DTD SVG 1.1//EN" "http://www.w3.org/Graphics/SVG/1.1/DTD/svg11.dtd">
<svg version="1.1" id="Layer_1" xmlns="http://www.w3.org/2000/svg" xmlns:xlink="http://www.w3.org/1999/xlink" x="0px" y="0px"
	 width="141.732px" height="146.053px" viewBox="0 0 141.732 146.053" enable-background="new 0 0 141.732 146.053"
	 xml:space="preserve">
<g>
	<path fill-rule="evenodd" clip-rule="evenodd" fill="#E7E7E7" d="M69.17,0.6c0.081-0.421,0.929-0.077,1.318-0.188
		c0.314,0,0.629,0,0.942,0C71.047,0.843,69.866,0.479,69.17,0.6z"/>
	<path fill-rule="evenodd" clip-rule="evenodd" fill="#E7E7E7" d="M90.83,16.421c0.432,0.384,0.068,1.564,0.189,2.261
		c-0.033,0.281,0.066,0.693-0.189,0.753C90.83,18.43,90.83,17.425,90.83,16.421z"/>
	<path fill-rule="evenodd" clip-rule="evenodd" fill="#E7E7E7" d="M51.278,20.94c-0.296,1.109-0.296-3.745,0-2.637
		C51.278,19.183,51.278,20.063,51.278,20.94z"/>
	<path fill-rule="evenodd" clip-rule="evenodd" fill="#E7E7E7" d="M51.278,18.304c0.063,0,0.125,0,0.188,0c0,0.252,0,0.503,0,0.754
		c0,0.377,0,0.753,0,1.13c0,0.251,0,0.503,0,0.753c-0.063,0-0.125,0-0.188,0C51.278,20.063,51.278,19.183,51.278,18.304z"/>
	<path fill-rule="evenodd" clip-rule="evenodd" fill="#E7E7E7" d="M49.771,27.346c-0.12,0.695,0.243,1.875-0.188,2.259
		C49.703,28.909,49.338,27.729,49.771,27.346z"/>
	<path fill-rule="evenodd" clip-rule="evenodd" fill="#E7E7E7" d="M20.953,94.962c32.835-0.313,66.989-0.313,99.827,0
		C87.504,94.962,54.227,94.962,20.953,94.962z"/>
	<path fill-rule="evenodd" clip-rule="evenodd" fill="#E7E7E7" d="M123.98,98.164c0.16-0.034,0.178,0.073,0.188,0.188
		c0,4.206,0,8.413,0,12.62c-0.063,0-0.125,0-0.188,0C123.98,106.702,123.98,102.434,123.98,98.164z"/>
	<path fill-rule="evenodd" clip-rule="evenodd" fill="#E7E7E7" d="M17.375,110.973c0.126-4.145-0.251-8.79,0.188-12.62
		c0,4.206,0,8.413,0,12.62C17.5,110.973,17.437,110.973,17.375,110.973z"/>
	<path fill-rule="evenodd" clip-rule="evenodd" fill="#E7E7E7" d="M124.168,98.353c0.439,3.83,0.063,8.476,0.189,12.62
		c-0.063,0-0.127,0-0.189,0C124.168,106.766,124.168,102.559,124.168,98.353z"/>
	<path fill-rule="evenodd" clip-rule="evenodd" fill="#E7E7E7" d="M25.097,102.685c-0.125,2.7,0.25,5.901-0.188,8.288
		C25.034,108.271,24.658,105.07,25.097,102.685z"/>
	<path fill-rule="evenodd" clip-rule="evenodd" fill="#E7E7E7" d="M66.721,102.685c0.44,2.386,0.064,5.587,0.189,8.288
		C66.471,108.586,66.847,105.385,66.721,102.685z"/>
	<path fill-rule="evenodd" clip-rule="evenodd" fill="#E7E7E7" d="M74.82,110.973c0.125-2.701-0.25-5.902,0.189-8.288
		C74.885,105.385,75.26,108.586,74.82,110.973z"/>
	<path fill-rule="evenodd" clip-rule="evenodd" fill="#E7E7E7" d="M116.635,102.685c0.439,2.386,0.063,5.587,0.188,8.288
		C116.385,108.586,116.76,105.385,116.635,102.685z"/>
	<path fill-rule="evenodd" clip-rule="evenodd" fill="#E7E7E7" d="M67.099,111.16c0-0.063,0-0.125,0-0.188c0.063,0,0.125,0,0.188,0
		c2.386,0,4.771,0,7.156,0c0.064,0,0.127,0,0.189,0c0,0.063,0,0.125,0,0.188C72.121,111.16,69.61,111.16,67.099,111.16z"/>
	<path fill-rule="evenodd" clip-rule="evenodd" fill="#E7E7E7" d="M66.911,111.16c0.063,0,0.126,0,0.188,0c2.511,0,5.022,0,7.534,0
		c0.063,0,0.125,0,0.188,0C72.623,111.474,69.109,111.474,66.911,111.16z"/>
	<path fill-rule="evenodd" clip-rule="evenodd" fill="#E7E7E7" d="M123.414,117.564c4.02-0.313,9.355-0.313,13.373,0
		C132.33,117.564,127.873,117.564,123.414,117.564z"/>
	<path fill-rule="evenodd" clip-rule="evenodd" fill="#E7E7E7" d="M117.012,117.752c1.32-0.438,3.451-0.063,5.086-0.188
		c0,0.063,0,0.125,0,0.188c-0.377,0-0.754,0-1.131,0c-0.879,0-1.758,0-2.637,0C117.891,117.752,117.451,117.752,117.012,117.752z"/>
	<path fill-rule="evenodd" clip-rule="evenodd" fill="#E7E7E7" d="M122.098,117.752c0-0.063,0-0.125,0-0.188
		c0.438,0,0.879,0,1.316,0c4.459,0,8.916,0,13.373,0c0.221-0.031,0.336,0.041,0.377,0.188
		C132.143,117.752,127.119,117.752,122.098,117.752z"/>
	<path fill-rule="evenodd" clip-rule="evenodd" fill="#E7E7E7" d="M103.826,117.941c4.02-0.439,8.854-0.063,13.186-0.189
		c0.439,0,0.879,0,1.318,0c0,0.063,0,0.126,0,0.189C113.496,117.941,108.662,117.941,103.826,117.941z"/>
	<path fill-rule="evenodd" clip-rule="evenodd" fill="#E7E7E7" d="M118.33,117.941c0-0.063,0-0.127,0-0.189c0.879,0,1.758,0,2.637,0
		c0,0.063,0,0.126,0,0.189c-0.439,0-0.879,0-1.318,0S118.77,117.941,118.33,117.941z"/>
	<path fill-rule="evenodd" clip-rule="evenodd" fill="#E7E7E7" d="M120.967,117.941c0-0.063,0-0.127,0-0.189
		c0.377,0,0.754,0,1.131,0c5.021,0,10.045,0,15.066,0c0.16-0.034,0.178,0.074,0.189,0.189
		C131.891,117.941,126.43,117.941,120.967,117.941z"/>
	<path fill-rule="evenodd" clip-rule="evenodd" fill="#E7E7E7" d="M103.639,118.129c-0.035-0.159,0.072-0.177,0.188-0.188
		c4.836,0,9.67,0,14.504,0c0.439,0,0.879,0,1.318,0C114.688,118.38,108.912,118.004,103.639,118.129z"/>
	<path fill-rule="evenodd" clip-rule="evenodd" fill="#E7E7E7" d="M41.86,121.52c0.256,0.059,0.156,0.472,0.188,0.754
		c0,6.278,0,12.557,0,18.834c0,0.188,0,0.377,0,0.565c0.034,0.16-0.073,0.178-0.188,0.188C41.86,135.08,41.86,128.3,41.86,121.52z"
		/>
	<path fill-rule="evenodd" clip-rule="evenodd" fill="#E7E7E7" d="M49.959,122.085c-0.017-0.268-0.031-0.534,0.188-0.565
		c0,6.78,0,13.561,0,20.342c-0.16,0.034-0.178-0.073-0.188-0.188c0-0.125,0-0.251,0-0.377
		C49.959,134.893,49.959,128.488,49.959,122.085z"/>
	<path fill-rule="evenodd" clip-rule="evenodd" fill="#E7E7E7" d="M141.119,121.708c0.162-0.035,0.18,0.073,0.189,0.188
		c0,6.529,0,13.059,0,19.588c0.035,0.16-0.074,0.178-0.189,0.188C141.119,135.018,141.119,128.363,141.119,121.708z"/>
	<path fill-rule="evenodd" clip-rule="evenodd" fill="#E7E7E7" d="M0.422,122.085c-0.034-0.161,0.074-0.179,0.189-0.188
		c0,6.592,0,13.184,0,19.776c-0.161,0.034-0.179-0.073-0.189-0.188C0.422,135.018,0.422,128.552,0.422,122.085z"/>
	<path fill-rule="evenodd" clip-rule="evenodd" fill="#E7E7E7" d="M141.309,121.896c0.184,0.005,0.146,0.23,0.188,0.377
		c0,6.278,0,12.557,0,18.834c0.031,0.219-0.041,0.336-0.188,0.377C141.309,134.955,141.309,128.426,141.309,121.896z"/>
	<path fill-rule="evenodd" clip-rule="evenodd" fill="#E7E7E7" d="M0.235,122.461c-0.031-0.219,0.041-0.335,0.188-0.376
		c0,6.467,0,12.933,0,19.399c-0.183-0.005-0.146-0.23-0.188-0.377C0.235,134.893,0.235,128.677,0.235,122.461z"/>
	<path fill-rule="evenodd" clip-rule="evenodd" fill="#E7E7E7" d="M49.771,122.085c0.063,0,0.125,0,0.188,0
		c0,6.403,0,12.808,0,19.211C49.519,135.27,49.896,128.426,49.771,122.085z"/>
	<path fill-rule="evenodd" clip-rule="evenodd" fill="#E7E7E7" d="M99.307,122.085c0.184,0.005,0.146,0.229,0.188,0.376
		c0,6.216,0,12.432,0,18.646c0,0.126,0,0.251,0,0.377C99.055,135.395,99.432,128.488,99.307,122.085z"/>
	<path fill-rule="evenodd" clip-rule="evenodd" fill="#E7E7E7" d="M42.048,122.273c0.063,0,0.125,0,0.188,0
		c-0.126,6.215,0.251,12.933-0.188,18.834C42.048,134.83,42.048,128.552,42.048,122.273z"/>
	<path fill-rule="evenodd" clip-rule="evenodd" fill="#E7E7E7" d="M141.496,122.273c0.314,5.839,0.314,12.996,0,18.834
		C141.496,134.83,141.496,128.552,141.496,122.273z"/>
	<path fill-rule="evenodd" clip-rule="evenodd" fill="#E7E7E7" d="M0.235,122.461c0,6.216,0,12.432,0,18.646
		C-0.079,135.332-0.079,128.237,0.235,122.461z"/>
	<path fill-rule="evenodd" clip-rule="evenodd" fill="#E7E7E7" d="M91.771,122.461c0.064,0,0.127,0,0.189,0
		c-0.125,6.153,0.252,12.809-0.189,18.646C91.771,134.893,91.771,128.677,91.771,122.461z"/>
	<path fill-rule="evenodd" clip-rule="evenodd" fill="#E7E7E7" d="M4.567,145.628c-0.16,0.034-0.178-0.073-0.188-0.188
		c11.238,0,22.477,0,33.714,0c0.035,0.16-0.072,0.178-0.188,0.188C26.792,145.628,15.68,145.628,4.567,145.628z"/>
	<path fill-rule="evenodd" clip-rule="evenodd" fill="#E7E7E7" d="M54.103,145.628c-0.161,0.034-0.178-0.073-0.188-0.188
		c11.301,0,22.601,0,33.902,0c0.035,0.16-0.072,0.178-0.188,0.188C76.453,145.628,65.278,145.628,54.103,145.628z"/>
	<path fill-rule="evenodd" clip-rule="evenodd" fill="#E7E7E7" d="M103.639,145.628c-0.16,0.034-0.178-0.073-0.188-0.188
		c11.299,0,22.6,0,33.902,0c0.033,0.16-0.074,0.178-0.189,0.188C125.99,145.628,114.813,145.628,103.639,145.628z"/>
	<path fill-rule="evenodd" clip-rule="evenodd" fill="#E7E7E7" d="M4.944,145.817c-0.22,0.029-0.335-0.042-0.377-0.189
		c11.113,0,22.225,0,33.338,0c-0.005,0.184-0.23,0.146-0.377,0.189C26.667,145.817,15.805,145.817,4.944,145.817z"/>
	<path fill-rule="evenodd" clip-rule="evenodd" fill="#E7E7E7" d="M54.48,145.817c-0.22,0.029-0.336-0.042-0.377-0.189
		c11.175,0,22.35,0,33.526,0c-0.006,0.184-0.23,0.146-0.377,0.189C76.328,145.817,65.404,145.817,54.48,145.817z"/>
	<path fill-rule="evenodd" clip-rule="evenodd" fill="#E7E7E7" d="M103.826,145.817c-0.16,0.034-0.178-0.074-0.188-0.189
		c11.174,0,22.352,0,33.525,0c-0.004,0.184-0.23,0.146-0.377,0.189C125.801,145.817,114.813,145.817,103.826,145.817z"/>
	<path fill-rule="evenodd" clip-rule="evenodd" fill="#E7E7E7" d="M4.944,145.817c10.861,0,21.723,0,32.584,0
		C27.106,146.131,15.365,146.131,4.944,145.817z"/>
	<path fill-rule="evenodd" clip-rule="evenodd" fill="#E7E7E7" d="M54.48,145.817c10.924,0,21.848,0,32.772,0
		C76.768,146.131,64.964,146.131,54.48,145.817z"/>
	<path fill-rule="evenodd" clip-rule="evenodd" fill="#E7E7E7" d="M103.826,145.817c10.986,0,21.975,0,32.961,0
		C126.24,146.131,114.375,146.131,103.826,145.817z"/>
	<path fill-rule="evenodd" clip-rule="evenodd" fill="#E7E7E7" d="M55.986,7.757c0.801-0.958,1.68-1.837,2.638-2.637
		C57.823,6.077,56.944,6.956,55.986,7.757z"/>
	<path fill-rule="evenodd" clip-rule="evenodd" fill="#E7E7E7" d="M52.595,13.784c-0.006-1.576,0.644-2.497,1.508-3.202
		c-0.099,0.279-0.279,0.475-0.377,0.754c-0.202,0.928-0.813,1.447-0.941,2.448C52.721,13.784,52.659,13.784,52.595,13.784z"/>
	<path fill-rule="evenodd" clip-rule="evenodd" fill="#E7E7E7" d="M51.278,34.69c-0.612-0.522-1.093-1.738-0.754-2.637
		c0.22,0.031,0.204,0.298,0.188,0.564C50.738,33.473,51.173,33.916,51.278,34.69z"/>
	<path fill-rule="evenodd" clip-rule="evenodd" fill="#E7E7E7" d="M55.798,53.901c1.119-1.712,0.563-6.227,0.188-8.286
		c0.331,0.171,0.345,0.659,0.565,0.941c0,2.197,0,4.395,0,6.592c0.137,0.515-0.374,0.379-0.377,0.753c-0.063,0-0.126,0-0.188,0
		S55.861,53.901,55.798,53.901z"/>
	<path fill-rule="evenodd" clip-rule="evenodd" fill="#E7E7E7" d="M64.838,86.109c0.176,0.024,0.218,0.352,0.188,0.565
		c-0.184,1.344-6.919,0.754-8.664,0.754c-9.028,0-19.796,0.149-27.499-0.188c0-4.332,0-8.664,0-12.996
		c0.152,0.035,0.188,0.188,0.377,0.188c0,0.063,0,0.127,0,0.189c0,0.188,0,0.376,0,0.564c-0.438,3.517-0.063,7.848-0.188,11.678
		c0,0.063,0,0.125,0,0.188c11.265,0.188,24.529,0.562,35.786-0.188c0-0.188,0-0.377,0-0.565
		C64.838,86.235,64.838,86.172,64.838,86.109z"/>
	<path fill-rule="evenodd" clip-rule="evenodd" fill="#E7E7E7" d="M65.592,66.333c0.884,1.406,3.448,3.83,2.448,5.274
		C67.762,69.312,66.049,68.45,65.592,66.333z"/>
	<path fill-rule="evenodd" clip-rule="evenodd" fill="#E7E7E7" d="M74.633,66.521c1.059-2.774-0.236-4.074-1.506-5.65
		c2.004,0.447,2.563,3.471,1.693,5.65C74.758,66.521,74.695,66.521,74.633,66.521z"/>
	<path fill-rule="evenodd" clip-rule="evenodd" fill="#E7E7E7" d="M75.574,86.863c0.035,0.152,0.189,0.188,0.189,0.377
		c11.803,0,23.605,0,35.408,0c0.311-3.457,0.316-8.222,0-11.678c-0.045-0.924,0.332-1.427,0.189-2.448
		c-0.033-0.108,0.275-0.245,0.188-0.378c0.787,1.206,0,4.762,0,7.347c0,2.96,0.143,5.591-0.188,7.346
		c-11.736-0.249-24.576,0.497-35.977-0.377c0-0.251,0-0.503,0-0.754c0.115,0.012,0.225,0.029,0.189,0.188
		C75.574,86.612,75.574,86.737,75.574,86.863z"/>
	<path fill-rule="evenodd" clip-rule="evenodd" fill="#E7E7E7" d="M104.016,65.203c1.256,0.502,2.25,1.267,3.014,2.26
		c-1.133-0.563-1.881-1.509-3.014-2.071C104.016,65.329,104.016,65.266,104.016,65.203z"/>
	<path fill-rule="evenodd" clip-rule="evenodd" fill="#E7E7E7" d="M98.176,61.437c-0.082-0.231-0.24-0.388-0.564-0.377
		c1.789,0.096,3.496,1.901,4.709,3.202C100.924,63.335,99.598,62.338,98.176,61.437z"/>
	<path fill-rule="evenodd" clip-rule="evenodd" fill="#E7E7E7" d="M84.803,45.05c-0.162,2.408-0.563,6.386,0.189,8.476
		c-0.064,0-0.127,0-0.189,0c-0.115-0.01-0.223-0.027-0.188-0.188C84.408,51.043,84.082,47.038,84.803,45.05z"/>
	<path fill-rule="evenodd" clip-rule="evenodd" fill="#E7E7E7" d="M81.979,3.613c1.311,0.635,2.396,1.495,2.824,3.013
		c-0.863-0.768-1.469-1.795-2.447-2.448C82.289,3.931,82.023,3.881,81.979,3.613z"/>
	<path fill-rule="evenodd" clip-rule="evenodd" fill="#E7E7E7" d="M75.574,0.787c1.084-0.381,1.971,0.191,2.826,0.565
		c-0.006,0.183-0.23,0.146-0.377,0.188c-0.992-0.012-1.383-0.627-2.449-0.565C75.574,0.913,75.574,0.851,75.574,0.787z"/>
	<path fill-rule="evenodd" clip-rule="evenodd" fill="#E7E7E7" d="M80.094,2.482c0.713,0.294,1.174,0.837,1.885,1.131
		c0.045,0.268,0.311,0.317,0.377,0.564c-0.723-0.533-1.422-1.089-2.262-1.506C80.094,2.608,80.094,2.545,80.094,2.482z"/>
	<path fill-rule="evenodd" clip-rule="evenodd" fill="#E7E7E7" d="M84.803,6.626c0.379,0.563,1.309,0.576,1.885,0.942
		c0.781,0.661,1.451,1.436,2.26,2.071c1.178,1.521,1.621,3.779,1.883,6.216c0,0.188,0,0.377,0,0.565c0,1.004,0,2.009,0,3.014
		c-0.014,0.802-0.314,1.317-0.188,2.26c0.018,1.525-0.277,2.737-0.564,3.956c-0.232,1.363,1.777,2.111,1.129,4.52
		c-0.688,3.722-1.191,8.613-4.896,9.229c-0.395,1.867-0.844,3.677-1.508,5.274c-0.953,1.771-0.764,6.609-0.188,8.664
		c-0.035,0.16,0.072,0.178,0.188,0.188c0.389,0.618,1.291,0.719,1.885,1.13c4.219,1.87,7.684,4.495,11.488,6.781
		c1.422,0.901,2.748,1.898,4.145,2.825c0.703,0.111,0.973,0.658,1.506,0.941c1.029,1.105,2.414,1.855,3.58,2.825
		c0.66-0.033,0.619,0.637,1.129,0.753c0.791,0.779,1.557,1.582,2.26,2.448c0.496,0.322,0.191,1.443,0.566,1.885
		c0.143,1.021-0.234,1.524-0.189,2.448c0,3.767,0,7.533,0,11.301c-11.803,0-23.605,0-35.408,0c0.029-0.22-0.043-0.335-0.189-0.377
		c0.035-0.159-0.074-0.177-0.189-0.188c-0.775-5.439-2.281-10.148-3.201-15.444c0.588-0.479,0.922-1.214,1.318-1.883
		c0-0.063,0-0.127,0-0.189c0.586-0.545,0.961-1.3,1.131-2.26c0.063,0,0.125,0,0.188,0c0.869-2.18,0.311-5.203-1.693-5.65
		c-0.395,0.08-0.5-0.129-0.754-0.188c-0.663-0.472-2.701-0.559-3.58-0.188c-2.908,0.136-4.338,2.788-3.201,5.839
		c0.457,2.117,2.17,2.979,2.448,5.274c-0.907,4.994-2.042,9.76-3.202,14.502c0,0.063,0,0.126,0,0.188
		c-0.221,0.031-0.158,0.344-0.188,0.565c-11.803,0-23.605,0-35.409,0c0-3.893,0-7.785,0-11.678c0-0.188,0-0.377,0-0.564
		c0.382-1.188,0.712-2.428,1.318-3.392c0-0.063,0-0.125,0-0.188c0.748-0.884,1.656-1.608,2.448-2.448
		c6.128-4.858,12.626-9.349,19.965-12.996c0.966-0.604,2.256-0.884,3.014-1.696c0.063,0,0.126,0,0.188,0
		c0.442-0.06,0.422-0.582,0.754-0.753c-0.125-2.01,0.25-4.519-0.189-6.215c0.031-0.22-0.041-0.336-0.188-0.377
		c-0.221-0.282-0.234-0.771-0.565-0.941c-0.907-2.358-1.29-5.24-2.448-7.347c-0.382-0.434-0.676-0.956-1.13-1.317
		c-0.373-0.696-0.816-1.318-0.942-2.261c-0.228-0.714-0.364-1.519-0.753-2.072c0.016-0.267,0.031-0.533-0.188-0.564
		c0.06-0.437-0.03-0.723-0.188-0.941c-0.169-0.71-0.057-1.702-0.376-2.261c-0.315-2.323,0.875-3.144,2.448-3.579
		c-0.146-0.167-0.202-0.424-0.188-0.753c-0.382-1.313-0.475-2.915-0.754-4.332c0-0.377,0-0.753,0-1.13
		c0.228-1.405,0.507-2.759,0.754-4.144c-0.091-0.594,0.578-0.427,0.376-1.13c0.063,0,0.126,0,0.189,0
		c0.129-1.001,0.739-1.521,0.941-2.448c1.002-1.134,1.746-2.523,2.825-3.579c0.833-1.176,2.072-1.946,3.014-3.014
		c1.062-0.696,1.872-1.645,3.202-2.071c0.666-0.401,1.511-0.625,2.071-1.131c1.202-0.556,2.683-0.833,4.332-0.941
		c0.695-0.12,1.877,0.243,2.261-0.188c1.063-0.059,1.674,0.334,2.825,0.188c0.441,0.06,0.707,0.298,1.318,0.188
		c0,0.063,0,0.126,0,0.188c1.066-0.062,1.457,0.554,2.449,0.565c0.566,0.438,1.34,0.668,2.07,0.941c0,0.063,0,0.126,0,0.189
		c0.84,0.417,1.539,0.973,2.262,1.506C83.334,4.831,83.939,5.858,84.803,6.626z"/>
	<path fill-rule="evenodd" clip-rule="evenodd" fill="#E7E7E7" d="M86.688,7.568c0.279,0.098,0.475,0.278,0.754,0.376
		c0.359,0.52,0.799,0.959,1.318,1.319c0.035,0.152,0.188,0.188,0.188,0.376C88.139,9.004,87.469,8.229,86.688,7.568z"/>
	<path fill-rule="evenodd" clip-rule="evenodd" fill="#E7E7E7" d="M90.078,25.65c0.434,1.324,2.041,2.475,1.129,4.52
		C91.855,27.762,89.846,27.014,90.078,25.65z"/>
	<path fill-rule="evenodd" clip-rule="evenodd" fill="#E7E7E7" d="M84.803,44.674c0,0.125,0,0.25,0,0.376
		c-0.721,1.988-0.395,5.993-0.188,8.288C84.039,51.283,83.85,46.445,84.803,44.674z"/>
	<path fill-rule="evenodd" clip-rule="evenodd" fill="#E7E7E7" d="M84.803,53.525c0.063,0,0.125,0,0.189,0
		c0.398,0.543,1.396,0.487,1.695,1.13C86.094,54.244,85.191,54.144,84.803,53.525z"/>
	<path fill-rule="evenodd" clip-rule="evenodd" fill="#E7E7E7" d="M103.826,65.203c0.063,0,0.125,0,0.189,0c0,0.063,0,0.126,0,0.188
		c1.133,0.563,1.881,1.509,3.014,2.071c0.066,0.248,0.332,0.297,0.377,0.565C106.24,67.059,104.855,66.309,103.826,65.203z"/>
	<path fill-rule="evenodd" clip-rule="evenodd" fill="#E7E7E7" d="M110.795,71.229c-0.703-0.866-1.469-1.669-2.26-2.448
		C109.697,69.189,110.402,70.055,110.795,71.229z"/>
	<path fill-rule="evenodd" clip-rule="evenodd" fill="#E7E7E7" d="M75.574,86.863c0-0.126,0-0.251,0-0.377
		c0.146,0.042,0.219,0.157,0.189,0.377c11.803,0,23.605,0,35.408,0C99.746,87.178,87,87.176,75.574,86.863z"/>
	<path fill-rule="evenodd" clip-rule="evenodd" fill="#E7E7E7" d="M72.184,70.854c0.398-0.67,0.73-1.404,1.318-1.883
		C73.105,69.64,72.771,70.374,72.184,70.854z"/>
	<path fill-rule="evenodd" clip-rule="evenodd" fill="#E7E7E7" d="M73.502,68.781c0.404-0.726,0.715-1.545,1.131-2.26
		C74.463,67.481,74.088,68.236,73.502,68.781z"/>
	<path fill-rule="evenodd" clip-rule="evenodd" fill="#E7E7E7" d="M64.838,86.298c0,0.188,0,0.377,0,0.565
		c-11.49,0.313-24.297,0.313-35.786,0c0.125-3.83-0.25-8.161,0.188-11.678c0,3.893,0,7.785,0,11.678c11.804,0,23.606,0,35.409,0
		C64.68,86.642,64.618,86.329,64.838,86.298z"/>
	<path fill-rule="evenodd" clip-rule="evenodd" fill="#E7E7E7" d="M29.241,74.432c0.091-1.415,0.599-2.414,1.318-3.202
		c-0.606,0.964-0.937,2.203-1.318,3.392C29.241,74.559,29.241,74.495,29.241,74.432z"/>
	<path fill-rule="evenodd" clip-rule="evenodd" fill="#E7E7E7" d="M52.972,55.598c0.673-0.835,2.051-0.964,2.826-1.696
		c0.063,0,0.125,0,0.188,0C55.228,54.714,53.938,54.993,52.972,55.598z"/>
	<path fill-rule="evenodd" clip-rule="evenodd" fill="#E7E7E7" d="M56.174,53.901c0.003-0.374,0.514-0.238,0.377-0.753
		c0.438-1.695,0.063-4.205,0.188-6.215c0.439,1.696,0.064,4.205,0.189,6.215C56.596,53.319,56.617,53.842,56.174,53.901z"/>
	<path fill-rule="evenodd" clip-rule="evenodd" fill="#E7E7E7" d="M52.408,36.951c0.454,0.361,0.748,0.884,1.13,1.317
		C52.75,38.241,52.75,37.425,52.408,36.951z"/>
	<path fill-rule="evenodd" clip-rule="evenodd" fill="#E7E7E7" d="M51.278,34.69c-0.104-0.774-0.54-1.218-0.565-2.072
		c0.389,0.554,0.525,1.358,0.753,2.072C51.403,34.69,51.34,34.69,51.278,34.69z"/>
	<path fill-rule="evenodd" clip-rule="evenodd" fill="#E7E7E7" d="M53.726,11.336c0.098-0.279,0.278-0.475,0.377-0.754
		c0.53-0.662,1.027-1.357,1.506-2.072c0.438-0.127,0.505-0.626,0.942-0.753C55.472,8.813,54.728,10.202,53.726,11.336z"/>
	<path fill-rule="evenodd" clip-rule="evenodd" fill="#E7E7E7" d="M62.767,2.672c0.471-0.597,1.287-0.848,2.071-1.131
		C64.278,2.047,63.433,2.271,62.767,2.672z"/>
	<path fill-rule="evenodd" clip-rule="evenodd" fill="#E7E7E7" d="M55.986,7.757c0.958-0.801,1.837-1.68,2.638-2.637
		c0.468,0.028,0.582-0.296,0.941-0.377c-0.941,1.067-2.181,1.838-3.014,3.014c-0.438,0.127-0.504,0.626-0.942,0.753
		C55.708,8.231,55.888,8.035,55.986,7.757z"/>
	<path fill-rule="evenodd" clip-rule="evenodd" fill="#E7E7E7" d="M88.76,9.264c-0.52-0.36-0.959-0.8-1.318-1.319
		C88.08,8.185,88.52,8.624,88.76,9.264z"/>
	<path fill-rule="evenodd" clip-rule="evenodd" fill="#E7E7E7" d="M30.559,71.042c0.417-1.215,1.33-1.935,2.448-2.448
		C32.215,69.434,31.307,70.158,30.559,71.042z"/>
	<path fill-rule="evenodd" clip-rule="evenodd" fill="#E7E7E7" d="M111.172,75.563c0.316,3.456,0.311,8.221,0,11.678
		c-11.803,0-23.605,0-35.408,0c0-0.189-0.154-0.225-0.189-0.377c11.426,0.313,24.172,0.314,35.598,0
		C111.172,83.096,111.172,79.329,111.172,75.563z"/>
	<path fill-rule="evenodd" clip-rule="evenodd" fill="#E7E7E7" d="M64.838,86.863c-11.257,0.75-24.521,0.376-35.786,0.188
		c0-0.063,0-0.126,0-0.188C40.542,87.177,53.348,87.177,64.838,86.863z"/>
	<path fill-rule="evenodd" clip-rule="evenodd" fill="#E7E7E7" d="M17.375,110.973c0.063,0,0.126,0,0.188,0
		c2.135,0.438,5.084,0.063,7.534,0.188c0.433-2.455,0.068-5.707,0.188-8.476c0.063,0,0.125,0,0.188,0
		c-0.12,2.831,0.244,6.146-0.188,8.664C22.757,111.113,19.28,111.829,17.375,110.973z"/>
	<path fill-rule="evenodd" clip-rule="evenodd" fill="#E7E7E7" d="M116.258,102.685c0.063,0,0.125,0,0.188,0
		c0,2.763,0,5.524,0,8.288c2.145,0.306,5.582,0.318,7.723,0c0.063,0,0.127,0,0.189,0c-1.91,0.737-5.879,0.384-8.1,0.188
		C116.258,108.335,116.258,105.51,116.258,102.685z"/>
	<path fill-rule="evenodd" clip-rule="evenodd" fill="#E7E7E7" d="M20.011,95.339c0.139-0.176,0.343-0.285,0.565-0.377
		c0.125,0,0.25,0,0.376,0c33.274,0,66.551,0,99.827,0c0.188,0,0.375,0,0.564,0c0,0.063,0,0.126,0,0.188
		C87.629,95.276,53.413,94.899,20.011,95.339z"/>
	<path fill-rule="evenodd" clip-rule="evenodd" fill="#E7E7E7" d="M121.344,95.15c1.6,0.284,2.203,1.563,2.637,3.014
		c0,4.27,0,8.538,0,12.809c-2.387,0-4.771,0-7.158,0c-0.125-2.701,0.252-5.902-0.188-8.288c0-0.063,0-0.126,0-0.188
		c-13.623-0.439-28.064-0.063-42.002-0.188c-0.432,2.518-0.068,5.833-0.189,8.664c-2.385,0-4.77,0-7.156,0c0-2.826,0-5.651,0-8.477
		c-13.625-0.313-28.566-0.314-42.19,0c0,0.063,0,0.126,0,0.188c-0.439,2.386-0.063,5.587-0.188,8.288c-2.386,0-4.771,0-7.157,0
		c0.561-5.153-1.431-12.858,1.694-15.445c0.151-0.1,0.307-0.197,0.565-0.188C53.413,94.899,87.629,95.276,121.344,95.15z"/>
	<path fill-rule="evenodd" clip-rule="evenodd" fill="#E7E7E7" d="M74.443,110.973c0.121-2.831-0.242-6.146,0.189-8.664
		c13.938,0.125,28.379-0.252,42.002,0.188c-0.063,0-0.127,0-0.189,0c-13.938,0-27.875,0-41.813,0c0,2.825,0,5.65,0,8.477
		C74.57,110.973,74.508,110.973,74.443,110.973z"/>
	<path fill-rule="evenodd" clip-rule="evenodd" fill="#E7E7E7" d="M25.097,102.496c13.624-0.314,28.565-0.313,42.19,0
		c0,2.825,0,5.65,0,8.477c-0.063,0-0.126,0-0.188,0c0-2.764,0-5.525,0-8.288c-13.562-0.439-27.938-0.063-41.813-0.188
		C25.223,102.496,25.16,102.496,25.097,102.496z"/>
	<path fill-rule="evenodd" clip-rule="evenodd" fill="#E7E7E7" d="M17.563,98.353c0.191-1.379,0.993-2.146,1.883-2.825
		c-3.125,2.587-1.134,10.292-1.694,15.445c-0.063,0-0.126,0-0.188,0C17.563,106.766,17.563,102.559,17.563,98.353z"/>
	<path fill-rule="evenodd" clip-rule="evenodd" fill="#E7E7E7" d="M25.097,102.685c0-0.063,0-0.126,0-0.188c0.063,0,0.126,0,0.188,0
		c0,0.063,0,0.126,0,0.188c-0.12,2.769,0.244,6.021-0.188,8.476c-2.45-0.125-5.399,0.251-7.534-0.188c0.063,0,0.125,0,0.188,0
		c2.386,0,4.771,0,7.157,0C25.347,108.586,24.972,105.385,25.097,102.685z"/>
	<path fill-rule="evenodd" clip-rule="evenodd" fill="#E7E7E7" d="M25.286,102.685c0-0.063,0-0.126,0-0.188
		c13.875,0.126,28.252-0.251,41.813,0.188c0,2.763,0,5.524,0,8.288c0,0.063,0,0.125,0,0.188c-0.063,0-0.126,0-0.188,0
		c0-0.063,0-0.125,0-0.188c-0.125-2.701,0.251-5.902-0.189-8.288c-13.749,0-27.498,0-41.248,0
		C25.411,102.685,25.348,102.685,25.286,102.685z"/>
	<path fill-rule="evenodd" clip-rule="evenodd" fill="#E7E7E7" d="M74.633,110.973c0-2.826,0-5.651,0-8.477
		c13.938,0,27.875,0,41.813,0c0,0.063,0,0.126,0,0.188c-0.063,0-0.125,0-0.188,0c-13.75,0-27.498,0-41.248,0
		c-0.439,2.386-0.064,5.587-0.189,8.288c0,0.063,0,0.125,0,0.188c-0.063,0-0.125,0-0.188,0
		C74.633,111.098,74.633,111.035,74.633,110.973z"/>
	<path fill-rule="evenodd" clip-rule="evenodd" fill="#E7E7E7" d="M116.445,102.685c0-0.063,0-0.126,0-0.188
		c0.063,0,0.127,0,0.189,0c0,0.063,0,0.126,0,0.188c0.125,2.7-0.25,5.901,0.188,8.288c2.387,0,4.771,0,7.158,0
		c0.063,0,0.125,0,0.188,0c-2.141,0.318-5.578,0.306-7.723,0C116.445,108.209,116.445,105.447,116.445,102.685z"/>
	<path fill-rule="evenodd" clip-rule="evenodd" fill="#E7E7E7" d="M17.186,117.752c6.034-0.746,14.184-0.381,20.531-0.188
		C30.933,117.688,23.657,117.317,17.186,117.752z"/>
	<path fill-rule="evenodd" clip-rule="evenodd" fill="#E7E7E7" d="M3.625,145.251c-1.821-0.061-2.544-1.222-2.825-2.825
		c0.709,1.112,1.325,2.317,2.825,2.638C3.625,145.126,3.625,145.188,3.625,145.251z"/>
	<path fill-rule="evenodd" clip-rule="evenodd" fill="#E7E7E7" d="M37.905,117.564c1.105,0.024,1.85,0.41,2.261,1.13
		c-0.279-0.099-0.476-0.278-0.755-0.377c-0.584,0.02-0.899-0.229-1.318-0.376c-0.01-0.115-0.027-0.224-0.188-0.189
		C37.905,117.689,37.905,117.627,37.905,117.564z"/>
	<path fill-rule="evenodd" clip-rule="evenodd" fill="#E7E7E7" d="M88.57,118.317c1.566,0.065,2.373,0.892,2.637,2.261
		c-0.811-0.76-1.303-1.838-2.637-2.072C88.57,118.443,88.57,118.38,88.57,118.317z"/>
	<path fill-rule="evenodd" clip-rule="evenodd" fill="#E7E7E7" d="M54.291,117.564c6.409-0.193,14.622-0.559,20.719,0.188
		C68.476,117.317,61.137,117.688,54.291,117.564z"/>
	<path fill-rule="evenodd" clip-rule="evenodd" fill="#E7E7E7" d="M140.932,142.426c-0.148,1.734-1.092,2.676-2.824,2.825
		c1.111-0.708,2.316-1.324,2.635-2.825C140.807,142.426,140.869,142.426,140.932,142.426z"/>
	<path fill-rule="evenodd" clip-rule="evenodd" fill="#E7E7E7" d="M4.755,117.941c11.148,0.035,21.896-0.33,33.149-0.189
		c0.16-0.034,0.178,0.074,0.188,0.189c-11.379-0.142-22.25,0.226-33.525,0.188C4.532,117.97,4.641,117.952,4.755,117.941z"/>
	<path fill-rule="evenodd" clip-rule="evenodd" fill="#E7E7E7" d="M53.915,117.941c-0.035-0.161,0.073-0.179,0.188-0.189
		c11.315-0.14,22.127,0.223,33.338,0.189c0.158-0.034,0.176,0.073,0.188,0.188C76.293,118.164,65.356,117.801,53.915,117.941z"/>
	<path fill-rule="evenodd" clip-rule="evenodd" fill="#E7E7E7" d="M39.411,118.317c0.279,0.099,0.476,0.278,0.755,0.377
		c0.355,0.648,1.091,0.918,1.317,1.695c-0.698-0.62-1.105-1.531-2.072-1.884C39.411,118.443,39.411,118.38,39.411,118.317z"/>
	<path fill-rule="evenodd" clip-rule="evenodd" fill="#E7E7E7" d="M39.411,145.063c0.742-0.64,1.434-1.33,2.072-2.072
		C41.012,143.902,40.323,144.593,39.411,145.063z"/>
	<path fill-rule="evenodd" clip-rule="evenodd" fill="#E7E7E7" d="M0.799,121.143c0.371-1.136,1.016-1.998,2.072-2.448
		C2.016,119.346,1.367,120.203,0.799,121.143z"/>
	<path fill-rule="evenodd" clip-rule="evenodd" fill="#E7E7E7" d="M52.595,118.317c0.408-0.157,0.643-0.487,1.319-0.376
		c11.441-0.141,22.378,0.223,33.714,0.188c0.438-0.061,0.723,0.03,0.941,0.188c0,0.063,0,0.126,0,0.188
		c1.334,0.234,1.826,1.313,2.637,2.072c0,0.063,0,0.125,0,0.188c0.854,6.305,0.145,14.171,0.377,21.096
		c0.201,0.703-0.467,0.537-0.377,1.13c-0.639,0.742-1.33,1.433-2.07,2.072c-0.408,0.157-0.643,0.487-1.32,0.376
		c-11.301,0-22.601,0-33.902,0c-0.677,0.111-0.911-0.219-1.319-0.376c-0.741-0.64-1.433-1.33-2.071-2.072
		c0.091-0.593-0.578-0.427-0.377-1.13c0-6.781,0-13.562,0-20.342c-0.201-0.703,0.468-0.537,0.377-1.13
		C51.163,119.647,51.854,118.957,52.595,118.317z"/>
	<path fill-rule="evenodd" clip-rule="evenodd" fill="#E7E7E7" d="M91.207,120.766c0.385,0.369,0.563,0.945,0.564,1.695
		c0,6.216,0,12.432,0,18.646c0,0.188,0,0.377,0,0.565c0.035,0.16-0.072,0.178-0.188,0.188
		C91.352,134.937,92.061,127.07,91.207,120.766z"/>
	<path fill-rule="evenodd" clip-rule="evenodd" fill="#E7E7E7" d="M89.137,145.063c0.74-0.64,1.432-1.33,2.07-2.072
		C90.736,143.902,90.047,144.593,89.137,145.063z"/>
	<path fill-rule="evenodd" clip-rule="evenodd" fill="#E7E7E7" d="M52.595,145.063c-0.91-0.471-1.601-1.161-2.071-2.072
		C51.163,143.733,51.854,144.424,52.595,145.063z"/>
	<path fill-rule="evenodd" clip-rule="evenodd" fill="#E7E7E7" d="M50.524,120.39c0.471-0.911,1.161-1.603,2.071-2.072
		C51.854,118.957,51.163,119.647,50.524,120.39z"/>
	<path fill-rule="evenodd" clip-rule="evenodd" fill="#E7E7E7" d="M139.236,118.694c0.689,0.064,0.861,0.645,1.131,1.13
		c-0.496-0.194-0.635-0.746-1.131-0.941C139.236,118.82,139.236,118.757,139.236,118.694z"/>
	<path fill-rule="evenodd" clip-rule="evenodd" fill="#E7E7E7" d="M140.367,119.824c0.361,0.518,0.719,1.038,0.752,1.884
		c0,6.655,0,13.31,0,19.965c0.08,0.394-0.129,0.499-0.188,0.753c-0.063,0-0.125,0-0.189,0c-0.318,1.501-1.523,2.117-2.635,2.825
		c-0.168,0.146-0.426,0.203-0.754,0.188c-11.303,0-22.604,0-33.902,0c-0.529-0.224-1.084-0.423-1.695-0.564
		c-0.482-0.523-0.984-1.025-1.508-1.507c0-0.063,0-0.126,0-0.188c-0.434-0.509-0.42-1.463-0.754-2.072c0-6.215,0-12.431,0-18.646
		c0.451-2.374,1.723-3.93,4.145-4.332c5.273-0.125,11.049,0.251,16.01-0.188c0.439,0,0.879,0,1.318,0c5.463,0,10.924,0,16.387,0
		c0.955-0.077,1.311,0.446,1.883,0.753c0,0.063,0,0.126,0,0.188C139.732,119.078,139.871,119.63,140.367,119.824z"/>
	<path fill-rule="evenodd" clip-rule="evenodd" fill="#E7E7E7" d="M100.248,143.368c0.523,0.481,1.025,0.983,1.508,1.507
		C100.91,144.715,100.408,144.213,100.248,143.368z"/>
	<path fill-rule="evenodd" clip-rule="evenodd" fill="#E7E7E7" d="M100.248,143.18c-0.543-0.146-0.471-0.911-0.754-1.318
		c0-0.126,0-0.251,0-0.377s0-0.251,0-0.377C99.828,141.717,99.814,142.671,100.248,143.18z"/>
	<path fill-rule="evenodd" clip-rule="evenodd" fill="#E7E7E7" d="M74.066,0.411c-1.057-0.199-2.287-0.223-3.578-0.188
		c-0.597-0.297,2.933-0.297,3.578,0C74.066,0.285,74.066,0.349,74.066,0.411z"/>
	<path fill-rule="evenodd" clip-rule="evenodd" fill="#E7E7E7" d="M70.489,0.223c1.291-0.034,2.521-0.011,3.578,0.188
		c0.162-0.035,0.178,0.073,0.189,0.188c-1.15,0.146-1.762-0.247-2.825-0.188c-0.313,0-0.628,0-0.942,0
		C70.489,0.349,70.489,0.285,70.489,0.223z"/>
	<path fill-rule="evenodd" clip-rule="evenodd" fill="#E7E7E7" d="M52.219,14.914c-0.247,1.385-0.526,2.738-0.754,4.144
		c0-0.251,0-0.502,0-0.754C51.45,16.906,51.757,15.833,52.219,14.914z"/>
	<path fill-rule="evenodd" clip-rule="evenodd" fill="#E7E7E7" d="M90.83,15.855c-0.023-0.338,0.23-0.397,0.189-0.753
		c0.436,0.818,0.064,2.446,0.188,3.579c-0.063,0-0.125,0-0.188,0c-0.121-0.696,0.242-1.877-0.189-2.261
		C90.83,16.232,90.83,16.044,90.83,15.855z"/>
	<path fill-rule="evenodd" clip-rule="evenodd" fill="#E7E7E7" d="M91.207,18.682c-0.088,1.104,0.307,2.691-0.564,3.013
		c-0.127-0.942,0.174-1.458,0.188-2.26c0.256-0.06,0.156-0.472,0.189-0.753C91.082,18.682,91.145,18.682,91.207,18.682z"/>
	<path fill-rule="evenodd" clip-rule="evenodd" fill="#E7E7E7" d="M51.465,20.188c0.279,1.417,0.372,3.019,0.754,4.332
		c-0.596-0.848-0.746-2.143-0.754-3.579C51.465,20.69,51.465,20.438,51.465,20.188z"/>
	<path fill-rule="evenodd" clip-rule="evenodd" fill="#E7E7E7" d="M49.959,28.852c0.319,0.559,0.207,1.551,0.376,2.261
		C49.854,30.715,49.967,29.723,49.959,28.852z"/>
	<path fill-rule="evenodd" clip-rule="evenodd" fill="#E7E7E7" d="M72.373,60.683c-1.137-0.119-2.245-0.267-3.58-0.188
		C69.672,60.124,71.71,60.211,72.373,60.683z"/>
	<path fill-rule="evenodd" clip-rule="evenodd" fill="#E7E7E7" d="M120.779,94.962c-32.838-0.313-66.992-0.313-99.827,0
		c-0.126,0-0.251,0-0.376,0c6.193-0.672,18.051-0.376,25.427-0.376c20.9,0,41.352,0,62.721,0c4.447,0,9.516-0.297,12.619,0.376
		C121.154,94.962,120.967,94.962,120.779,94.962z"/>
	<path fill-rule="evenodd" clip-rule="evenodd" fill="#E7E7E7" d="M17.186,117.752c6.471-0.435,13.747-0.064,20.531-0.188
		c0.063,0,0.125,0,0.188,0c0,0.063,0,0.125,0,0.188c-11.254-0.141-22.001,0.225-33.149,0.189
		C8.523,117.502,13.105,117.878,17.186,117.752z"/>
	<path fill-rule="evenodd" clip-rule="evenodd" fill="#E7E7E7" d="M41.483,120.39c-0.091,0.593,0.579,0.427,0.377,1.13
		c0,6.78,0,13.561,0,20.342c0.202,0.703-0.468,0.537-0.377,1.13c-0.639,0.742-1.33,1.433-2.072,2.072
		c-0.406,0.157-0.642,0.487-1.318,0.376c-11.237,0-22.476,0-33.714,0c-0.394,0.08-0.498-0.129-0.754-0.188c0-0.063,0-0.125,0-0.188
		c-1.5-0.32-2.116-1.525-2.825-2.638c-0.146-0.167-0.202-0.425-0.188-0.753c0-6.593,0-13.185,0-19.776
		c-0.08-0.394,0.129-0.499,0.188-0.754c0.567-0.939,1.217-1.797,2.072-2.448c0.566-0.187,0.84-0.667,1.695-0.565
		c11.275,0.038,22.146-0.329,33.525-0.188c0.419,0.146,0.734,0.396,1.318,0.376c0,0.063,0,0.126,0,0.188
		C40.377,118.858,40.785,119.77,41.483,120.39z"/>
	<path fill-rule="evenodd" clip-rule="evenodd" fill="#E7E7E7" d="M42.048,141.107c0.439-5.901,0.063-12.619,0.188-18.834
		c-0.004-0.822,0.324-0.032,0.188,0.376c0,0.439,0,0.88,0,1.318c0,0.816,0,1.633,0,2.448c0,1.695,0,3.391,0,5.087
		c-0.241,3.274,0.487,7.519-0.377,10.17C42.048,141.484,42.048,141.296,42.048,141.107z"/>
	<path fill-rule="evenodd" clip-rule="evenodd" fill="#E7E7E7" d="M91.771,141.107c0.441-5.838,0.064-12.493,0.189-18.646
		c-0.004-0.821,0.324-0.031,0.188,0.378c0,0.438,0,0.878,0,1.317c0,0.816,0,1.633,0,2.449c0,1.632,0,3.265,0,4.897
		c0,3.327,0,6.654,0,9.981c-0.152,0.036-0.186,0.189-0.377,0.188C91.771,141.484,91.771,141.296,91.771,141.107z"/>
	<path fill-rule="evenodd" clip-rule="evenodd" fill="#E7E7E7" d="M49.771,122.085c0.125,6.341-0.252,13.185,0.188,19.211
		c0,0.126,0,0.252,0,0.377c-0.152-0.036-0.188-0.188-0.377-0.188C49.704,135.416,49.338,127.505,49.771,122.085z"/>
	<path fill-rule="evenodd" clip-rule="evenodd" fill="#E7E7E7" d="M99.307,122.085c0.125,6.403-0.252,13.31,0.188,19.399
		c0,0.126,0,0.251,0,0.377c-0.152-0.036-0.188-0.189-0.377-0.188C99.238,135.577,98.873,127.61,99.307,122.085z"/>
	<path fill-rule="evenodd" clip-rule="evenodd" fill="#E7E7E7" d="M54.291,117.564c6.847,0.123,14.186-0.247,20.719,0.188
		c4.08,0.126,8.664-0.25,12.432,0.189c-11.211,0.033-22.023-0.329-33.338-0.189C54.068,117.592,54.176,117.574,54.291,117.564z"/>
	<path fill-rule="evenodd" clip-rule="evenodd" fill="#E7E7E7" d="M56.551,46.557c0.146,0.041,0.219,0.157,0.188,0.377
		c-0.124,2.01,0.25,4.52-0.188,6.215C56.551,50.951,56.551,48.754,56.551,46.557z"/>
</g>
</svg>
