<?xml version="1.0" encoding="utf-8"?>
<!-- Generator: Adobe Illustrator 14.0.0, SVG Export Plug-In . SVG Version: 6.00 Build 43363)  -->
<!DOCTYPE svg PUBLIC "-//W3C//DTD SVG 1.1//EN" "http://www.w3.org/Graphics/SVG/1.1/DTD/svg11.dtd">
<svg version="1.1" id="Layer_1" xmlns="http://www.w3.org/2000/svg" xmlns:xlink="http://www.w3.org/1999/xlink" x="0px" y="0px"
	 width="51.786px" height="52.25px" viewBox="0 0 51.786 52.25" enable-background="new 0 0 51.786 52.25" xml:space="preserve">
<g>
	<path fill="#FFFFFF" d="M49.056,11.661c0.264,6.717,0.036,13.925,0.113,20.829c1.157,0.897,2.563,1.502,2.616,3.3
		c0.064,2.196-2.271,3.213-4.438,4.098c-4.261,1.74-8.058,3.205-12.176,4.895c-2.681,1.1-5.338,3.035-8.994,2.393
		c-2.075-0.369-4.169-1.535-6.255-2.393c-4.146-1.697-7.886-3.374-12.177-5.121c-2.812-1.146-7.951-1.933-7.739-5.803
		c0.088-1.596,1.228-2.669,2.73-3.414C2.81,23.916,2.586,17.091,2.85,10.755c5.966-2.146,12.453-3.724,18.437-5.689
		c0.151-0.052,0.279-0.131,0.456-0.115c2.182,0.2,4.617,1.018,6.938,1.596C35.311,8.186,42.593,9.783,49.056,11.661z M27.773,8.249
		c-2.07-0.515-4.238-1.355-6.146-1.366c-1.062-0.005-2.845,0.797-3.982,1.136c-3.983,1.192-7.758,2.484-11.835,3.529
		c0.106,0.529,1.372,1.407,1.937,1.479c3.865-1.23,6.897-2.106,10.583-3.301c1.097-0.354,2.412-1.114,3.525-1.137
		c1.604-0.034,3.745,0.93,5.576,1.365c4.075,0.97,7.244,1.666,11.27,2.617c2.438,0.575,6.505,2.381,7.282,0
		C40.162,11.193,33.609,9.696,27.773,8.249z M22.652,18.262c-0.923,0.558-2.271,0.687-3.527,0.912c0,1.744,0,3.485,0,5.234
		C20.34,24.901,21.752,25.4,23.221,26c1.365,0.558,2.744,1.509,4.096,1.708c1.725,0.254,3.345-0.276,4.668,0.111
		c1.438,0.425,2.091,1.729,2.729,3.073c3.104,1.105,5.972,2.449,8.992,3.643c0-6.298,0-12.595,0-18.892
		c-7.025-1.624-13.98-3.317-20.94-5.006C22.693,13.147,22.913,15.944,22.652,18.262z M8.2,14.849
		c0.075,5.917-0.151,12.139,0.112,17.866c1.404-0.72,2.938-1.311,4.438-1.936c0.077-3.908-0.147-8.118,0.116-11.835
		c2.4-0.935,5.35-1.327,8.077-1.936c-0.073-2.049,0.152-4.4-0.111-6.259C16.674,12.171,12.372,13.445,8.2,14.849z M4.558,13.37
		c0,6.068,0,12.141,0,18.208c0.413,0.324,1.529,1.1,1.819,0.799c0-5.917,0-11.839,0-17.755C5.933,14.175,4.896,13.163,4.558,13.37z
		 M45.526,15.645c-0.351,1.155,0,3.093,0,4.666c0,4.595,0,9.893,0,13.998c0.458,0.039,1.238-0.582,1.82-0.797
		c-0.076-6.447,0.152-13.201-0.113-19.46C46.84,14.693,45.755,14.892,45.526,15.645z M17.077,19.627
		c-0.74,0.286-1.609,0.441-2.504,0.569c0,1.745,0,3.491,0,5.235c0.954-0.297,1.75-0.755,2.729-1.022
		C17.155,22.888,17.602,20.771,17.077,19.627z M18.101,26.001c-1.284,0.036-2.136,1.242-3.527,1.364
		c-0.07,1.446,0.146,3.185-0.113,4.439c-0.904,0.716-2.203,1.132-3.528,1.707c-1.102,0.477-2.714,1.529-3.755,1.479
		c-1.589-0.079-3.543-2.156-4.665-2.389c-1.863,2.246,0.235,3.074,2.16,3.867c5.28,2.175,10.17,4.209,15.136,6.259
		c2.146,0.888,4.196,1.979,6.032,2.505c1.257,0.359,2.563,0.307,3.642,0c1.785-0.508,3.671-1.49,5.576-2.273
		c1.799-0.744,3.684-1.507,5.576-2.277c2.41-0.982,5.803-2.102,8.309-3.527c0.531-0.304,1.855-1.766,0.452-2.391
		c-1.064-0.478-3.336,2.023-4.773,2.048c-0.695,0.012-1.597-0.648-2.507-1.022c-2.719-1.113-4.929-1.902-7.513-3.072
		c-0.458,2.884,0.672,5.392-0.112,7.737c-0.765,2.289-4.347,1.819-7.171,1.819c-1.827,0-4.028,0.365-5.462-0.112
		c-2.188-0.729-1.819-3.631-1.819-6.825c0-3.8-0.213-6.659,2.617-7.515C21.075,27.541,19.674,25.954,18.101,26.001z M23.221,29.529
		c-0.407,0.521-1.486,0.919-1.254,1.708c3.307,0.115,7.694,0.334,10.7-0.115C32.403,28.346,26.416,29.955,23.221,29.529z
		 M21.968,33.172c-0.126,2.103-0.317,5.252,0.115,7.17c3.229,0.188,7.241,0.188,10.47,0c0.51-1.957,0.09-4.842,0.229-7.17
		C29.178,33.172,25.571,33.172,21.968,33.172z"/>
	<path fill="#FFFFFF" d="M25.155,12.345c0.283-0.121,0.521-0.159,0.685-0.113c1.652,0.439-0.66,3.148-1.252,1.251
		C24.328,12.652,24.676,12.545,25.155,12.345z"/>
	<path fill="#FFFFFF" d="M28.799,13.256c0.283-0.12,0.517-0.158,0.682-0.113c1.652,0.44-0.66,3.149-1.253,1.251
		C27.971,13.562,28.319,13.457,28.799,13.256z"/>
	<path fill="#FFFFFF" d="M32.439,14.166c0.284-0.12,0.521-0.156,0.685-0.113c1.65,0.439-0.659,3.149-1.252,1.25
		C31.611,14.471,31.959,14.367,32.439,14.166z"/>
	<path fill="#FFFFFF" d="M39.949,18.946c0.203,1.571,0.114,3.489,0.114,5.349c0,1.843,0.255,3.786-0.341,5.12
		c-1.388,0.098-2.731-0.637-3.985-1.138c-3.653-1.464-7.542-2.94-11.038-4.667c-0.123-2.515-0.326-6.09,0.113-8.42
		c2.065-0.246,5.194,0.963,7.966,1.706C35.336,17.582,37.945,18.097,39.949,18.946z M26.408,22.587
		c4.015,1.484,7.845,3.155,11.837,4.667c0-2.352,0-4.705,0-7.058c-3.99-0.979-7.78-2.16-11.837-3.074
		C26.408,18.946,26.408,20.766,26.408,22.587z"/>
	<path fill="#FFFFFF" d="M36.082,15.076c0.283-0.117,0.518-0.156,0.681-0.113c1.653,0.438-0.659,3.148-1.25,1.252
		C35.252,15.383,35.603,15.277,36.082,15.076z"/>
	<path fill="#FFFFFF" d="M39.725,15.987c0.281-0.119,0.519-0.159,0.684-0.112c1.649,0.438-0.661,3.148-1.255,1.248
		C38.894,16.294,39.243,16.186,39.725,15.987z"/>
</g>
</svg>
