<?xml version="1.0" encoding="utf-8"?>
<!-- Generator: Adobe Illustrator 14.0.0, SVG Export Plug-In . SVG Version: 6.00 Build 43363)  -->
<!DOCTYPE svg PUBLIC "-//W3C//DTD SVG 1.1//EN" "http://www.w3.org/Graphics/SVG/1.1/DTD/svg11.dtd">
<svg version="1.1" id="Layer_1" xmlns="http://www.w3.org/2000/svg" xmlns:xlink="http://www.w3.org/1999/xlink" x="0px" y="0px"
	 width="222.618px" height="215.864px" viewBox="0 0 222.618 215.864" enable-background="new 0 0 222.618 215.864"
	 xml:space="preserve">
<g>
	<path fill-rule="evenodd" clip-rule="evenodd" fill="#60AAFF" d="M41.809,32.648c0.032-0.026,0.135,0.028,0.166,0
		c4.908-4.266,10.676-6.902,16.407-9.943C69.724,16.689,82.176,11.269,95.67,7.292c6.769-1.994,14.02-4.28,21.214-5.137
		c2.561-0.306,6.281,0.941,9.114,1.657c13.537,3.424,24.555,8.834,34.305,16.075c1.988,1.476,3.779,3.008,5.801,4.31
		c2.051,1.317,4.143,2.547,6.133,3.812c8.431,5.353,15.087,11.193,21.545,18.727c5.906,6.889,12.385,15.794,15.246,25.025
		c3.243,10.46,4.857,22.816,3.813,35.797c-2.375,29.506-16.813,51.91-34.803,65.96c-3.773,2.947-7.826,5.153-12.264,7.789
		c-1.457,0.864-3.219,3.736-4.641,5.469c-8.33,10.146-18.88,19.702-32.483,25.19c-2.161,0.871-5.165,2.211-7.292,2.32
		c-2.457,0.127-5.557-1.105-8.287-1.822c-15.673-4.123-29.327-10.8-41.432-18.728c-2.013-1.319-4.001-3.156-5.965-3.979
		c-3.157-1.318-6.994-1.069-9.944-2.65c-2.183-1.17-4.889-5.928-6.463-8.121c-2.148-2.992-4.519-5.548-6.796-7.624
		c-5.47-4.987-9.325-9.244-14.252-14.583c-7.606-8.243-15.185-18.813-20.716-29.997c-0.833-1.685-2.198-3.902-2.154-5.303
		c0.215-7.134,2.916-15.354,5.138-21.049c1.821-4.666,3.91-9.123,6.297-13.423c0.756-1.362,2.239-3.089,2.485-4.475
		c0.5-2.8,0.526-5.468,0.995-7.955c1.37-7.276,3.718-13.933,6.795-20.054c3.917-7.793,8.108-14.989,14.418-21.378
		C41.609,33.012,41.669,32.771,41.809,32.648z M170.249,42.261c-1.393-1.169-2.473-2.569-3.646-3.977
		c-7.996-9.597-17.074-17.977-28.836-23.534c-7.362-3.478-15.22-5.301-25.026-4.309c-8.345,0.845-15.472,3.528-22.869,7.126
		C76.639,24.002,64.81,32.519,54.902,42.427C44.824,52.504,35.724,63.228,28.385,75.903c-4.516,7.802-8.752,16.422-10.109,27.18
		c-0.265,2.098-0.938,4.213-1.161,6.298c-0.479,4.485,0.192,8.938,1.658,13.093c2.469,7.001,6.746,13.165,11.269,18.727
		c13.504,16.603,30.746,29.38,50.05,39.939c8.759,4.793,20.381,10.282,31.654,13.26c4.112,1.086,8.824,2.379,12.76,2.32
		c5.446-0.083,11.182-2.547,15.579-4.641c13.541-6.447,23.722-17.724,31.985-28.837c5.605-7.538,10.758-16.126,15.081-25.522
		c4.314-9.373,8.042-19.561,8.453-32.316c0.104-2.383,0.802-4.17,0.829-6.63c0.262-0.952,0.325-2.104,0.33-3.314
		c0.378-0.229,0.062-1.152,0.167-1.656c0-0.166,0-0.332,0-0.498c-0.107-0.611,0.214-1.65-0.167-1.988
		c-0.105-0.559,0.215-1.54-0.166-1.823c-0.157-3.212-0.762-5.977-1.49-8.617c-0.041-0.512-0.169-0.938-0.332-1.326
		c-0.064-0.434-0.086-0.909-0.332-1.16c-0.043-0.674-0.312-1.125-0.497-1.657c-0.2-0.628-0.32-1.337-0.662-1.823
		c-0.507-1.814-1.169-3.472-1.989-4.972c0.025-0.413-0.26-0.513-0.332-0.829c-0.697-1.566-1.346-3.184-2.32-4.474
		c0-0.056,0-0.11,0-0.166c-0.411-0.747-0.717-1.603-1.324-2.154c0-0.057,0-0.11,0-0.166c-0.695-1.295-1.535-2.444-2.32-3.646
		c-0.659-0.889-1.141-1.954-1.989-2.651c0-0.055,0-0.111,0-0.165c-0.575-0.642-0.928-1.504-1.657-1.989c0-0.055,0-0.11,0-0.166
		c-1.383-1.655-2.67-3.407-4.309-4.807c0-0.054,0-0.11,0-0.164c-1.092-1.23-2.252-2.391-3.48-3.481
		c-0.339-0.048-0.325-0.448-0.664-0.497c-0.666-0.935-1.658-1.545-2.485-2.32C170.359,42.261,170.303,42.261,170.249,42.261z"/>
	<path fill-rule="evenodd" clip-rule="evenodd" fill="#D1E3F8" d="M118.376,1.658c5.313-0.653,10.407-1.525,16.241-1.658
		c0.23,0.378,1.153,0.062,1.658,0.167c13.097,0.988,23.323,4.85,32.813,9.445c0.448,0.602,1.356,0.741,1.988,1.16
		c6.752,3.634,12.661,8.109,18.396,12.762c0.483,0.621,1.036,1.175,1.657,1.656c0.056,0,0.11,0,0.166,0
		c1.078,1.243,2.27,2.371,3.48,3.481c0.346,0.205,0.623,0.481,0.829,0.828c0.648,0.787,1.366,1.506,2.153,2.154
		c0.294,0.923,1.229,1.203,1.658,1.989c0.573,0.587,0.994,1.325,1.657,1.823c2.53,3.38,5.179,6.642,7.457,10.274
		c0.429,0.676,0.765,1.445,1.326,1.988c6.341,11.007,11.605,23.088,12.761,39.278c0,1.325,0,2.651,0,3.977
		c-0.739,10.808-3.223,19.87-5.469,29.169c-0.438,23.337-7.251,41.67-16.904,56.514c-2.559,3.934-5.031,6.927-8.452,10.108
		c-9.427,8.771-20.681,16.327-33.808,21.545c-0.69,0.083-0.967,0.579-1.658,0.663c-0.03-0.142,0.064-0.156,0.166-0.167
		c19.53-11.152,33.535-29.846,44.581-50.546c8.093-15.168,15.062-32.066,19.224-52.039c1.412-6.774,2.644-14.523,1.988-21.378
		c-1.32-13.827-6.017-25.544-11.932-35.632c-11.646-19.863-28.621-34.848-51.21-43.752c-11.235-4.43-26.125-6.648-40.768-3.646
		C118.376,1.769,118.376,1.713,118.376,1.658z"/>
	<path fill-rule="evenodd" clip-rule="evenodd" fill="#A5D6FF" d="M6.012,71.097c1.25-2.489,2.653-4.943,4.144-7.291
		C17.599,52.083,27.303,43.2,38.329,35.135c4.296-3.143,7.829-7.241,11.932-10.772c8.591-7.395,17.83-12.867,28.505-16.904
		c8.397-3.175,17.371-5.535,27.843-6.132c3.624-0.206,7.946,0.677,11.6,0.498c0.057,0,0.111,0,0.167,0
		c14.644-3.003,29.533-0.784,40.768,3.646c22.589,8.904,39.563,23.889,51.21,43.752c5.915,10.088,10.611,21.805,11.932,35.632
		c0.655,6.854-0.576,14.604-1.988,21.378c-4.162,19.973-11.131,36.871-19.224,52.039c-11.046,20.7-25.051,39.394-44.581,50.546
		c-0.102,0.011-0.196,0.025-0.166,0.167c-0.055,0-0.109,0-0.166,0c-7.873,4.196-17.675,7.069-30.328,5.965c-0.167,0-0.331,0-0.498,0
		c-2.268-0.613-5.232-0.633-7.292,0.167c-0.056,0-0.111,0-0.166,0c-23.52,3.765-40.321-7.353-52.702-18.064
		c-1.634-1.414-3.546-3.215-5.303-4.972c-1.573-1.572-3.053-4.179-4.806-5.304c-1.555-0.996-3.571-1.317-5.303-1.988
		c-11.82-4.575-22.462-11.147-30.66-19.888c-4.364-4.652-8.706-10.719-11.103-17.733c-2.42-7.084-3.422-15.987-2.984-25.521
		c0-0.056,0-0.111,0-0.165c-2.634-7.332-5.405-15.861-4.972-25.688c0.402-9.096,3.468-17.723,5.967-24.527
		C6.012,71.208,6.012,71.153,6.012,71.097z M41.478,33.146c-6.31,6.389-10.501,13.585-14.418,21.378
		c-3.077,6.121-5.425,12.777-6.795,20.054c-0.469,2.487-0.495,5.155-0.995,7.955c-0.246,1.386-1.729,3.112-2.485,4.475
		c-2.387,4.3-4.476,8.757-6.297,13.423c-2.222,5.694-4.923,13.915-5.138,21.049c-0.043,1.4,1.322,3.618,2.154,5.303
		c5.531,11.185,13.11,21.754,20.716,29.997c4.928,5.339,8.783,9.596,14.252,14.583c2.277,2.076,4.648,4.632,6.796,7.624
		c1.574,2.193,4.28,6.951,6.463,8.121c2.95,1.581,6.787,1.332,9.944,2.65c1.964,0.822,3.952,2.659,5.965,3.979
		c12.105,7.928,25.759,14.604,41.432,18.728c2.73,0.717,5.831,1.949,8.287,1.822c2.127-0.109,5.131-1.449,7.292-2.32
		c13.603-5.488,24.153-15.045,32.483-25.19c1.422-1.732,3.184-4.604,4.641-5.469c4.438-2.636,8.49-4.842,12.264-7.789
		c17.989-14.05,32.428-36.454,34.803-65.96c1.045-12.98-0.569-25.337-3.813-35.797c-2.861-9.231-9.34-18.137-15.246-25.025
		c-6.458-7.533-13.114-13.374-21.545-18.727c-1.99-1.265-4.082-2.494-6.133-3.812c-2.021-1.302-3.813-2.834-5.801-4.31
		c-9.75-7.241-20.768-12.651-34.305-16.075c-2.833-0.716-6.553-1.963-9.114-1.657c-7.194,0.856-14.445,3.143-21.214,5.137
		c-13.495,3.977-25.947,9.397-37.289,15.413c-5.731,3.041-11.499,5.678-16.407,9.943c-0.03,0.028-0.134-0.026-0.166,0
		C41.669,32.771,41.609,33.012,41.478,33.146z"/>
	<path fill-rule="evenodd" clip-rule="evenodd" fill="#D1E3F8" d="M66.005,12.761c1.586-0.016,2.313-0.891,3.48-1.326
		c0.809-0.461,1.769-0.771,2.487-1.325c10.163-4.641,21.394-8.215,35.298-9.114c0.608,0,1.215,0,1.824,0
		c2.499,0.152,4.784,0.519,7.292,0.663c0.283,0.379,1.265,0.061,1.822,0.166c-3.654,0.179-7.976-0.704-11.6-0.498
		C96.137,1.923,87.164,4.283,78.766,7.458c-10.676,4.037-19.915,9.51-28.505,16.904c-4.103,3.531-7.636,7.63-11.932,10.772
		C27.303,43.2,17.599,52.083,10.156,63.806c-1.491,2.348-2.894,4.802-4.144,7.291c0-0.164,0-0.33,0-0.496
		C7.995,57.118,11.514,45.85,18.11,37.123c6.559-8.675,16.026-14.291,26.516-19.059c0.055,0,0.11,0,0.167,0
		C51.171,15.604,58.414,14.01,66.005,12.761z"/>
	<path fill-rule="evenodd" clip-rule="evenodd" fill="#D1E3F8" d="M195.438,105.899c-0.483,12.586-4.422,22.268-8.451,31.489
		c-3.986,9.12-9.027,17.336-14.75,25.19c-5.488,7.534-11.452,14.72-19.059,20.882c-7.235,5.859-16.337,11.589-27.345,12.761
		c-5.264,0.561-11.563-1.441-16.572-2.982c-15.833-4.871-28.649-11.571-40.769-19.225c-16.659-10.52-30.597-22.275-42.095-37.951
		c-5.787-7.891-11.187-17.982-8.453-29.832c0.668-2.894,0.779-5.724,1.493-8.452c2.153-8.238,4.961-14.437,8.782-21.213
		c9.511-16.864,22.505-31.415,36.958-43.089c7.474-6.038,15.077-11.11,24.361-15.578c8.59-4.134,19.751-8.58,32.318-7.293
		c11.826,1.213,20.45,6.148,28.173,11.767c7.8,5.675,13.263,12.978,20.22,19.888c0.055,0,0.11,0,0.165,0
		c0.679,0.924,1.677,1.527,2.485,2.32c0.339,0.049,0.325,0.449,0.664,0.497c1.091,1.229,2.251,2.39,3.48,3.481
		c0,0.054,0,0.11,0,0.164c1.479,1.561,2.779,3.298,4.309,4.807c0,0.056,0,0.111,0,0.166c0.316,0.456,0.678,0.869,0.994,1.326
		c-4.018-4.82-8.172-9.508-13.092-13.425c-0.219-0.059-0.262-0.291-0.498-0.331c-2.42-2.663-5.682-4.482-8.783-6.464
		c-0.352-0.146-0.49-0.504-0.994-0.497c-2.182-1.52-4.703-2.699-7.292-3.813c-0.056,0-0.111,0-0.167,0
		c-1.293-0.803-2.887-1.309-4.474-1.821c-0.457-0.205-0.842-0.485-1.491-0.498c-2.2-0.894-4.669-1.519-7.293-1.988
		c-0.195-0.191-0.585-0.188-0.994-0.165c-0.468-0.251-1.144-0.293-1.823-0.332c-0.056,0-0.111,0-0.166,0
		c-0.576-0.252-1.358-0.3-2.155-0.332c-0.167,0-0.331,0-0.497,0c-2.414-0.546-6.174-0.427-8.618,0
		c-1.895,0.094-3.652,0.325-5.304,0.664c-1.058,0.046-2.035,0.175-2.817,0.496c-0.44,0.002-0.946-0.063-1.16,0.166
		c-2.144,0.287-4.185,0.677-5.966,1.326c-0.055,0-0.111,0-0.167,0c-1.024,0.08-1.913,0.297-2.65,0.663
		c-0.385-0.053-0.638,0.025-0.83,0.165c-1.386,0.327-2.829,0.596-3.978,1.16c-0.054,0-0.11,0-0.165,0
		c-0.947,0.215-1.921,0.4-2.652,0.828c-1.318,0.285-2.521,0.684-3.646,1.16c-1.305,0.352-2.577,0.738-3.646,1.326
		c-0.055,0-0.111,0-0.166,0c-1.475,0.459-2.899,0.968-4.144,1.657c-1.08,0.135-1.763,0.668-2.651,0.995
		c-2.778,1.088-5.473,2.261-7.955,3.646c-0.056,0-0.111,0-0.167,0c-1.197,0.571-2.425,1.109-3.48,1.822c-0.055,0-0.11,0-0.166,0
		c-3.066,1.63-6.233,3.158-8.95,5.138c-0.055,0-0.11,0-0.166,0c-12.305,7.581-23.235,16.54-30.659,29.003
		c-0.321,0.506-0.68,0.978-0.829,1.656c-1.39,1.98-2.296,4.445-3.149,6.962c-0.127,0.146-0.177,0.373-0.166,0.663
		c-0.542,0.617-0.561,1.758-0.828,2.651c-0.18,0.43-0.403,0.813-0.332,1.491c-0.426,0.955-0.512,2.25-0.663,3.48
		c0,0.056,0,0.11,0,0.165c-0.366,1.016-0.624,2.14-0.663,3.481c0,0.11,0,0.22,0,0.331c-0.055,0-0.11,0-0.166,0
		c-0.136,2.506-0.377,5.535,0.166,7.789c0,0.055,0,0.11,0,0.166c-0.041,1.643,0.325,2.88,0.663,4.143c0,0.055,0,0.111,0,0.166
		c0.112,0.938,0.275,1.823,0.663,2.486c0.049,1,0.38,1.718,0.663,2.485c0.465,1.745,1.033,3.388,1.823,4.807c0,0.054,0,0.11,0,0.165
		c0.607,1.603,1.242,3.178,2.154,4.476c0,0.056,0,0.109,0,0.165c10.475,19.963,26.195,34.683,44.083,47.233c0.056,0,0.111,0,0.167,0
		c0.377,0.615,1.162,0.825,1.656,1.325c0.056,0,0.111,0,0.167,0c1.769,1.767,3.973,3.098,6.132,4.475
		c0.35,0.146,0.49,0.504,0.995,0.497c0.387,0.495,1.063,0.703,1.656,0.993c0.631,0.256,1.101,0.668,1.824,0.83
		c2.705,1.327,5.595,2.471,8.287,3.812c0.581,0.192,0.895,0.651,1.657,0.662c1.342,0.868,3.029,1.393,4.641,1.989
		c0.054,0,0.11,0,0.166,0c1.345,0.698,2.872,1.216,4.474,1.657c0.056,0,0.111,0,0.166,0c0.654,0.45,1.597,0.614,2.486,0.829
		c0.994,0.332,1.885,0.767,3.149,0.828c0.77,0.336,1.658,0.552,2.652,0.663c0.195,0.19,0.585,0.188,0.994,0.166
		c0.757,0.292,1.619,0.479,2.651,0.496c0.826,0.224,1.769,0.331,2.817,0.332c2.669,0.476,6.958,0.544,9.612,0
		c0.056,0,0.111,0,0.167,0c1.299-0.082,2.515-0.247,3.479-0.663c0.056,0,0.111,0,0.167,0c0.995-0.164,1.907-0.412,2.651-0.828
		c0.347,0.07,0.44-0.114,0.664-0.166c1.013-0.312,2.064-0.587,2.817-1.16c0.268,0.048,0.285-0.156,0.498-0.165
		c3.11-1.365,6.01-2.94,8.452-4.972c0.055,0,0.11,0,0.165,0c5.781-4.053,10.584-9.084,15.081-14.419c0-0.056,0-0.11,0-0.166
		c2.635-2.944,4.95-6.209,7.127-9.611c0-0.056,0-0.111,0-0.166c0.504-0.269,0.705-0.842,0.994-1.326c0-0.056,0-0.111,0-0.165
		c3.215-4.575,5.887-9.693,8.452-14.916c0-0.056,0-0.111,0-0.166c0.688-0.968,1.177-2.138,1.656-3.314c0-0.055,0-0.11,0-0.166
		c0.598-0.783,0.937-1.826,1.327-2.817c0.389-0.771,0.834-1.485,0.994-2.485c1.155-2.159,1.995-4.634,2.817-7.127
		c0.353-0.751,0.677-1.532,0.829-2.485c0.486-0.782,0.744-1.796,0.994-2.817c0-0.056,0-0.11,0-0.166
		c0.591-1.287,0.987-2.769,1.325-4.309c0.236-0.593,0.474-1.184,0.497-1.989c0.328-0.392,0.391-1.046,0.497-1.656
		c0.14-0.193,0.22-0.445,0.167-0.829c0.283-0.545,0.438-1.219,0.496-1.989c0.14-0.192,0.219-0.444,0.166-0.829
		C195.172,107.623,195,106.456,195.438,105.899z"/>
	<path fill-rule="evenodd" clip-rule="evenodd" fill="#F4F1F2" d="M182.346,55.188c1.761,2.216,3.137,4.818,4.973,6.961
		c0,0.056,0,0.109,0,0.166c0.256,0.737,0.838,1.149,0.994,1.988c0.361,0.522,0.449,1.316,0.994,1.657
		c0.57,1.029,0.992,2.211,1.656,3.148c0.072,0.316,0.357,0.416,0.332,0.829c0.484,1.727,1.353,3.95,1.989,4.972
		c0.342,0.486,0.462,1.195,0.662,1.823c-0.371,0.267,0.458,2.335,0.497,1.657c0.246,0.251,0.268,0.727,0.332,1.16
		c-0.387,0.139,0.295,2.136,0.332,1.326c0.729,2.641,1.333,5.405,1.49,8.617c0.108,0.887-0.217,2.206,0.166,2.818
		c0.096,0.291-0.2,0.973,0.167,0.993c0,0.166,0,0.332,0,0.498c-0.227,0.051-0.139,0.415-0.167,0.662
		c-0.301,1.245-0.35,2.744-0.33,4.309c-0.027,2.46-0.726,4.247-0.829,6.63c-0.193,0.027-0.181,0.262-0.167,0.496
		c-0.438,0.557-0.266,1.724-0.662,2.32c1.48-7.917-0.879-16.033-2.983-23.201c-1.681-5.729-3.967-11.069-6.132-15.91
		c-4.628-10.343-10.569-19.392-16.406-27.511c4.92,3.917,9.074,8.604,13.092,13.425C182.346,55.077,182.346,55.132,182.346,55.188z"
		/>
</g>
</svg>
