<?xml version="1.0" encoding="utf-8"?>
<!-- Generator: Adobe Illustrator 14.0.0, SVG Export Plug-In . SVG Version: 6.00 Build 43363)  -->
<!DOCTYPE svg PUBLIC "-//W3C//DTD SVG 1.1//EN" "http://www.w3.org/Graphics/SVG/1.1/DTD/svg11.dtd">
<svg version="1.1" id="Layer_1" xmlns="http://www.w3.org/2000/svg" xmlns:xlink="http://www.w3.org/1999/xlink" x="0px" y="0px"
	 width="950.088px" height="859.123px" viewBox="0 0 950.088 859.123" enable-background="new 0 0 950.088 859.123"
	 xml:space="preserve">
<g>
	<path fill="#FF7312" stroke="#FFFFFF" stroke-width="1.6438" d="M855.211,579.53c2.318,2.362,1.709,6.289-1.193,7.882
		c-13.313,7.313-46.795,20.59-75.018-10.593c-36.133-39.929-124.16-226.221-135.014-274.062
		c-10.859-47.834-51.904-121.53-74.459-130.229c-22.552-8.696,47.807-3.75,67.396-3.419c19.586,0.332,33.703-9.373,22.053-13.832
		c0,0,59.578-23.252,104.261,45.924c27.004,41.808,113.938,234.985,186.004,256.18c2.668,0.786-12.453,11.053-13.627,13.573
		c-6.943,14.939-32.447,59.101-99.295,82.223C836.318,553.178,845,569.122,855.211,579.53z"/>
	
		<linearGradient id="SVGID_1_" gradientUnits="userSpaceOnUse" x1="666.8591" y1="129.6382" x2="751.2771" y2="129.6382" gradientTransform="matrix(-1 0 0 -1 1338.1348 884.0684)">
		<stop  offset="0" style="stop-color:#4F52FF"/>
		<stop  offset="1" style="stop-color:#4042E2"/>
	</linearGradient>
	<path fill="url(#SVGID_1_)" d="M589.238,750.348c14.463,1.245,39.563,3.278,59.348,4.15c11.896,0.521,18.746-0.643,22.689-2.223
		c-0.013,0.447-0.023,0.865-0.039,1.258c-0.095,2.079-1.785,3.749-3.89,3.863c-37.389,2.089-67.12,0.726-77.709,0.077
		c-2.184-0.134-3.491-2.511-2.37-4.378C587.828,752.165,588.502,751.247,589.238,750.348z"/>
	
		<linearGradient id="SVGID_2_" gradientUnits="userSpaceOnUse" x1="666.8542" y1="146.1836" x2="748.8962" y2="146.1836" gradientTransform="matrix(-1 0 0 -1 1338.1348 884.0684)">
		<stop  offset="0" style="stop-color:#09005D"/>
		<stop  offset="1" style="stop-color:#1A0F91"/>
	</linearGradient>
	<path fill="url(#SVGID_2_)" d="M648.586,754.498c-19.783-0.872-44.885-2.905-59.348-4.15
		c14.221-17.443,59.348-29.202,59.348-29.202h12.746c8.768,12.637,10.035,24.666,9.943,31.131
		C667.332,753.855,660.48,755.02,648.586,754.498z"/>
	
		<linearGradient id="SVGID_3_" gradientUnits="userSpaceOnUse" x1="666.8591" y1="-5566.8423" x2="751.2771" y2="-5566.8423" gradientTransform="matrix(-1 0 0 1 1338.1348 6325.8672)">
		<stop  offset="0" style="stop-color:#4F52FF"/>
		<stop  offset="1" style="stop-color:#4042E2"/>
	</linearGradient>
	<path opacity="0.2" fill="url(#SVGID_3_)" enable-background="new    " d="M589.238,762.595
		c14.463-1.245,39.737-1.509,59.521-2.381c11.896-0.521,18.572-1.127,22.517,0.453c-0.013-0.448-0.023-0.866-0.039-1.258
		c-0.095-2.079-1.996-3.018-4.103-2.945c-36.877,1.25-47.625,2-77.496-0.996c-2.178-0.219-3.492,2.511-2.371,4.378
		C587.828,760.777,588.502,761.695,589.238,762.595z"/>
	
		<linearGradient id="SVGID_4_" gradientUnits="userSpaceOnUse" x1="674.656" y1="169.2808" x2="698.4314" y2="169.2808" gradientTransform="matrix(-1 0 0 -1 1338.1348 884.0684)">
		<stop  offset="0" style="stop-color:#FEBBBA"/>
		<stop  offset="1" style="stop-color:#FF928E"/>
	</linearGradient>
	<path fill="url(#SVGID_4_)" d="M663.478,700.338l-1.193,23.6c-0.127,2.559-2.041,4.705-4.6,5.073
		c-2.548,0.363-5.957,0.412-9.576-0.796c-2.226-0.736-3.877-2.613-4.287-4.897l-4.119-22.979H663.478L663.478,700.338z"/>
	
		<linearGradient id="SVGID_5_" gradientUnits="userSpaceOnUse" x1="638.6179" y1="124.417" x2="638.6179" y2="70.583" gradientTransform="matrix(1 0 0 -1 -8.3599 884.0684)">
		<stop  offset="0" style="stop-color:#1A0F91"/>
		<stop  offset="1" style="stop-color:#FFFFFF"/>
	</linearGradient>
	<path opacity="0.2" fill="url(#SVGID_5_)" enable-background="new    " d="M671.275,760.667c-3.943-1.58-10.621-0.975-22.517-0.453
		c-19.783,0.872-45.059,1.136-59.521,2.381c11.395,13.979,42.635,24.306,54.598,27.856c-0.004,0.019-0.012,0.036-0.014,0.055
		l-4.119,22.979h23.775l-1.173-23.167C670.176,778.229,671.363,766.878,671.275,760.667z"/>
	<g>
		
			<linearGradient id="SVGID_6_" gradientUnits="userSpaceOnUse" x1="516.1931" y1="108.708" x2="548.5417" y2="108.708" gradientTransform="matrix(-1 0 0 -1 1338.1348 884.0684)">
			<stop  offset="0" style="stop-color:#4F52FF"/>
			<stop  offset="1" style="stop-color:#4042E2"/>
		</linearGradient>
		<path fill="url(#SVGID_6_)" d="M811.406,777.575c6.271-1.131,9.11-5.341,10.303-9.847c0.004,0.039,0.012,0.086,0.02,0.122
			c0.925,4.749-1.215,9.676-5.487,12.016c-5.174,2.821-10.822,3.311-15.209,3.073c-4.709-0.252-9.027-2.768-11.406-6.798
			l-0.033-0.063C794.318,779.104,800.947,779.459,811.406,777.575z"/>
		
			<linearGradient id="SVGID_7_" gradientUnits="userSpaceOnUse" x1="516.4255" y1="140.8965" x2="563.9099" y2="140.8965" gradientTransform="matrix(-1 0 0 -1 1338.1348 884.0684)">
			<stop  offset="0" style="stop-color:#09005D"/>
			<stop  offset="1" style="stop-color:#1A0F91"/>
		</linearGradient>
		<path fill="url(#SVGID_7_)" d="M781.84,707.614h10.51c16.013-0.431,26.066,43.217,29.359,60.114
			c-1.191,4.506-4.031,8.716-10.303,9.847c-10.459,1.884-17.088,1.526-21.814-1.496c-8.647-14.707-12.938-36.252-14.998-48.825
			C772.248,712.95,781.84,707.614,781.84,707.614z"/>
	</g>
	<g opacity="0.2">
		
			<linearGradient id="SVGID_8_" gradientUnits="userSpaceOnUse" x1="516.1931" y1="-5551.271" x2="548.5417" y2="-5551.271" gradientTransform="matrix(-1 0 0 1 1338.1348 6342.6445)">
			<stop  offset="0" style="stop-color:#4F52FF"/>
			<stop  offset="1" style="stop-color:#4042E2"/>
		</linearGradient>
		<path fill="url(#SVGID_8_)" d="M811.406,789.159c6.271,1.131,9.11,5.341,10.303,9.846c0.004-0.039,0.012-0.085,0.02-0.122
			c0.925-4.749-1.215-9.675-5.487-12.015c-5.174-2.821-10.822-3.312-15.209-3.073c-4.709,0.252-9.027,2.768-11.406,6.797
			l-0.033,0.063C794.318,787.632,800.947,787.275,811.406,789.159z"/>
		
			<linearGradient id="SVGID_9_" gradientUnits="userSpaceOnUse" x1="540.1677" y1="-5483.521" x2="540.1677" y2="-5554.6436" gradientTransform="matrix(-1 0 0 1 1338.1348 6342.6445)">
			<stop  offset="0.3818" style="stop-color:#FFFFFF"/>
			<stop  offset="1" style="stop-color:#1A0F91"/>
		</linearGradient>
		<path fill="url(#SVGID_9_)" d="M781.84,859.12h10.51c16.013,0.43,26.066-43.217,29.359-60.115
			c-1.191-4.505-4.031-8.715-10.303-9.846c-10.459-1.884-17.088-1.527-21.814,1.496c-8.647,14.707-12.938,36.252-14.998,48.825
			C772.248,853.784,781.84,859.12,781.84,859.12z"/>
	</g>
	
		<linearGradient id="SVGID_10_" gradientUnits="userSpaceOnUse" x1="541.1091" y1="181.6787" x2="569.5261" y2="181.6787" gradientTransform="matrix(-1 0 0 -1 1338.1348 884.0684)">
		<stop  offset="0" style="stop-color:#FEBBBA"/>
		<stop  offset="1" style="stop-color:#FF928E"/>
	</linearGradient>
	<path fill="url(#SVGID_10_)" d="M790.998,685.705l5.836,23.21c0.721,2.85-0.646,5.789-3.277,7.144
		c-3.264,1.675-7.86,3.436-12.086,2.927c-1.985-0.241-3.639-1.643-4.293-3.509l-8.569-24.429L790.998,685.705z"/>
	
		<linearGradient id="SVGID_11_" gradientUnits="userSpaceOnUse" x1="770.9636" y1="488.335" x2="528.3464" y2="90.9048" gradientTransform="matrix(-1 0 0 -1 1338.1348 884.0684)">
		<stop  offset="0" style="stop-color:#09005D"/>
		<stop  offset="1" style="stop-color:#1A0F91"/>
	</linearGradient>
	<path fill="url(#SVGID_11_)" d="M585.678,379.958c0,0,52.16,326.041,51.302,327.832c0,0,14.405,6.544,30.108,0.833
		c0,0-4.715-174.289-15.768-241.116c0,0,89.016,155.782,117.285,233.402c0,0,14.743-1.757,26.946-9.789
		c0,0-95.844-280.397-121.416-317.748L585.678,379.958z"/>
	
		<linearGradient id="SVGID_12_" gradientUnits="userSpaceOnUse" x1="1568.0046" y1="898.3887" x2="1343.7587" y2="418.6965" gradientTransform="matrix(-1 0 0 -1 1984.5469 884.0684)">
		<stop  offset="0" style="stop-color:#4F52FF"/>
		<stop  offset="1" style="stop-color:#4042E2"/>
	</linearGradient>
	<path fill="url(#SVGID_12_)" d="M649.24,465.568c0.235,0,0.473-0.066,0.688-0.198c0.609-0.378,0.795-1.187,0.414-1.789
		l-19.496-31.139c-0.186-0.302-0.492-0.511-0.842-0.581l-14.346-2.889c-0.701-0.148-1.389,0.313-1.531,1.017
		c-0.142,0.703,0.313,1.389,1.016,1.532l13.8,2.776l19.192,30.659C648.385,465.354,648.805,465.568,649.24,465.568z"/>
	<path fill="#5200FF" d="M480.429,243.048c3.75-24.823-7.088-32.763-1.74-39.867c23.084,10.425,49.612-35.476,87.84-48.719
		c3.524-1.226,7.203-1.938,10.926-2.158c20.354-1.191,87.41-3.371,142.9,14.962c11.678,3.861,21.137,12.492,26.01,23.675
		c15.012,34.449,39.311,112.9-28.15,152.504c-5.184-12.87-11.168-23.214-16.281-30.813c10.861-18.325,14.078-43.354-5.198-75.948
		c-14.058,37.958-20.652,93.349-22.027,117.857c-0.457,8.071,0.959,16.126,4.129,23.577l0.34,0.819
		c0.679,1.591-0.252,3.421-1.955,3.804c-37.981,8.532-77.483,6.213-89.282,5.239c-2.109-0.172-3.861-1.681-4.345-3.718
		c-18.463-77.818-18.51-130.903-13.989-164.457C552.33,223.667,522.432,274.317,480.429,243.048z"/>
	
		<linearGradient id="SVGID_13_" gradientUnits="userSpaceOnUse" x1="1558.1316" y1="818.4482" x2="1471.7711" y2="743.0541" gradientTransform="matrix(-1 0 0 -1 1984.5469 884.0684)">
		<stop  offset="0" style="stop-color:#4F52FF"/>
		<stop  offset="1" style="stop-color:#4042E2"/>
	</linearGradient>
	<path fill="url(#SVGID_13_)" d="M583.01,172.53c0,0-9.037,14.237-13.483,47.829L583.01,172.53z"/>
	
		<linearGradient id="SVGID_14_" gradientUnits="userSpaceOnUse" x1="681.1072" y1="685.6221" x2="693.4197" y2="750.2631" gradientTransform="matrix(-1 0 0 -1 1338.1348 884.0684)">
		<stop  offset="0" style="stop-color:#FEBBBA"/>
		<stop  offset="1" style="stop-color:#FF928E"/>
	</linearGradient>
	<path fill="url(#SVGID_14_)" d="M663.258,106.973c0,0,3.844,40.626,7.228,52.639c0.514,1.822-0.281,3.751-1.935,4.694
		c-5.742,3.277-19.514,8.632-38.352-0.6c-3.053-1.497-4.888-4.677-4.744-8.048l1.662-39.253L663.258,106.973z"/>
	<g>
		
			<linearGradient id="SVGID_15_" gradientUnits="userSpaceOnUse" x1="714.4246" y1="804.2197" x2="644.1707" y2="750.4647" gradientTransform="matrix(-1 0 0 -1 1338.1348 884.0684)">
			<stop  offset="0" style="stop-color:#FEBBBA"/>
			<stop  offset="1" style="stop-color:#FF928E"/>
		</linearGradient>
		<path fill="url(#SVGID_15_)" d="M626.287,54.998c0,0-12.289,28.233-13.115,43.047c-0.822,14.82-4.014,24.435,13.115,27.421
			c17.135,2.979,31.568-5.558,39.385-20.316c0,0,12.246-22.742,9.502-32.054C672.427,63.782,626.287,54.998,626.287,54.998z"/>
		
			<linearGradient id="SVGID_16_" gradientUnits="userSpaceOnUse" x1="664.9705" y1="846.7783" x2="730.3945" y2="762.5451" gradientTransform="matrix(-1 0 0 -1 1338.1348 884.0684)">
			<stop  offset="0" style="stop-color:#09005D"/>
			<stop  offset="1" style="stop-color:#1A0F91"/>
		</linearGradient>
		<path fill="url(#SVGID_16_)" d="M659.818,94.541l-0.976-0.433c-1.244-0.549-1.772-2.021-1.151-3.228
			c2.416-4.669,7.127-15.365,1.041-17.862c-7.843-3.212-38.9-9.549-45.599-20.568c-6.446-10.59-0.735-24.264,7.838-28.156
			c0.572-0.258,1.255-0.049,1.545,0.506l0.718,1.352c0.489,0.926,1.854,0.783,2.149-0.222l0,0c0.279-0.966,1.558-1.151,2.09-0.302
			c2.064,3.3,7.625,8.648,22.496,11.394c21.134,3.899,35.107,12.453,35.459,27.059c0.021,0.921,1.009,1.444,1.802,0.961
			c1.561-0.956,4.059-1.401,7.395,1.406c5.805,4.88,3.428,17.541-9.295,27.957c-0.604,0.493-0.602,1.438,0.055,1.862
			c2.308,1.503,5.746,5.078-3.164,9.839c-9.217,4.925-16.102,4.523-18.748,4.085c-0.659-0.111-1.088-0.747-0.938-1.399l2.826-12.838
			c0.162-0.725-0.396-1.412-1.14-1.412L659.818,94.541L659.818,94.541z"/>
		
			<linearGradient id="SVGID_17_" gradientUnits="userSpaceOnUse" x1="705.7068" y1="815.6084" x2="635.4585" y2="761.8577" gradientTransform="matrix(-1 0 0 -1 1338.1348 884.0684)">
			<stop  offset="0" style="stop-color:#FEBBBA"/>
			<stop  offset="1" style="stop-color:#FF928E"/>
		</linearGradient>
		<path fill="url(#SVGID_17_)" d="M659.285,97.25c0,0,4.688-18.032,12.774-12.981c8.082,5.063-4.198,20.211-10.7,20.881
			L659.285,97.25z"/>
	</g>
	
		<linearGradient id="SVGID_18_" gradientUnits="userSpaceOnUse" x1="733.5701" y1="615.4961" x2="693.2543" y2="555.0225" gradientTransform="matrix(-1 0 0 -1 1338.1348 884.0684)">
		<stop  offset="0" style="stop-color:#FEBBBA"/>
		<stop  offset="1" style="stop-color:#FF928E"/>
	</linearGradient>
	<path fill="url(#SVGID_18_)" d="M659.633,371.189l-55.461-1.211c0,0,48.359-13.664,51.361-9.941c0,0,29.973-19.699,46.399-47.405
		c5.113,7.599,11.099,17.942,16.281,30.813C703.49,352.087,684.15,367.104,659.633,371.189z"/>
	
		<linearGradient id="SVGID_19_" gradientUnits="userSpaceOnUse" x1="-6531.1367" y1="605.7197" x2="-6570.6367" y2="546.4696" gradientTransform="matrix(1 0 0 -1 7216.123 884.0684)">
		<stop  offset="0" style="stop-color:#FEBBBA"/>
		<stop  offset="1" style="stop-color:#FF928E"/>
	</linearGradient>
	<path fill="url(#SVGID_19_)" d="M661.195,361.586c0,0,1.141,22.095-27.859,18.889c-15.766-1.747-41.215-16.445-41.215-16.445
		S658.453,363.854,661.195,361.586z"/>
	<g>
		<path fill="#FFFFFF" stroke="#006ED1" stroke-width="1.8635" d="M523.666,770.34c0,7.866-6.377,14.245-14.244,14.245H23.776
			c-7.867,0-14.244-6.379-14.244-14.245V197.175c0-7.868,6.377-14.245,14.244-14.245h485.646c7.867,0,14.244,6.377,14.244,14.245
			V770.34z"/>
		<path opacity="0.5" fill="#0C5E91" enable-background="new    " d="M514.666,791.854c0,7.866-6.377,14.245-14.244,14.245H14.776
			c-7.867,0-14.244-6.379-14.244-14.245V218.688c0-7.868,6.377-14.245,14.244-14.245h485.646c7.867,0,14.244,6.377,14.244,14.245
			V791.854z"/>
		<path fill="#E1F5FF" stroke="#FFCB05" stroke-width="1.8635" d="M515.355,778.53c0,7.868-6.38,14.245-14.246,14.245H15.466
			c-7.867,0-14.245-6.377-14.245-14.245V205.364c0-7.865,6.377-14.246,14.245-14.246h485.644c7.866,0,14.246,6.381,14.246,14.246
			V778.53z"/>
	</g>
	
		<linearGradient id="SVGID_20_" gradientUnits="userSpaceOnUse" x1="-6804.1367" y1="696.5088" x2="-6765.2896" y2="696.5088" gradientTransform="matrix(1 0 0 -1 7216.123 884.0684)">
		<stop  offset="0" style="stop-color:#FEBBBA"/>
		<stop  offset="1" style="stop-color:#FF928E"/>
	</linearGradient>
	<path fill="url(#SVGID_20_)" d="M421.543,192.991c5.003,3.029,11.311,4.523,16.841,2.578c3.238-1.13,15.719-9.24,11.64-13.528
		c-0.681-0.718-1.651-1.081-2.603-1.4c-9.208-3.08-18.225-1.691-27.762-1.417c-2.712,0.077-6.901-0.202-7.594,3.355
		C411.16,187.246,418.302,191.029,421.543,192.991z"/>
	<g>
		<g>
			<path fill="#FF00AA" d="M510.502,40.47c0.346-0.109,0.707-0.136,1.088-0.086c6.715,0.865,13.387,1.866,19.998,2.997
				c1.432,0.241,2.932,0.177,4.342-0.203c1.42-0.374,2.738-1.049,3.838-1.961c5.074-4.216,10.271-8.352,15.605-12.403
				c0.301-0.23,0.635-0.39,0.979-0.461c0.65-0.138,1.363-0.01,1.912,0.352c0.365,0.242,0.813,0.691,0.847,1.466
				c0.246,6.073,0.53,12.132,0.854,18.19c0.146,2.663,1.73,5.07,4.195,6.451c5.61,3.146,11.137,6.381,16.565,9.696
				c0.998,0.616,0.998,1.549,0.955,1.917c-0.049,0.368-0.278,1.269-1.399,1.637c-6.063,2.01-12.047,4.129-17.961,6.364
				c-2.607,0.98-4.509,3.146-5.072,5.748c-1.297,5.925-2.492,11.85-3.599,17.771c-0.2,1.095-1.063,1.429-1.428,1.528
				c-0.354,0.095-1.276,0.229-2.041-0.614c-4.129-4.541-8.342-9.032-12.629-13.48c-1.883-1.958-4.666-2.876-7.416-2.442
				c-6.25,0.978-12.479,2.08-18.697,3.311c-1.147,0.23-1.823-0.429-2.063-0.725c-0.236-0.297-0.74-1.087-0.215-2.108
				c2.828-5.5,5.789-10.971,8.885-16.411c1.367-2.395,1.422-5.233,0.113-7.588c-2.976-5.358-5.982-10.706-9.025-16.033
				c-0.389-0.681-0.246-1.292-0.066-1.675C509.344,41.124,509.875,40.666,510.502,40.47z"/>
		</g>
		<g>
			<path fill="#5200FF" d="M419.059,13.561c0.407-0.121,0.842-0.147,1.291-0.076c7.951,1.218,15.836,2.603,23.639,4.129
				c1.689,0.329,3.463,0.284,5.161-0.133c1.686-0.417,3.282-1.203,4.611-2.272c6.149-4.975,12.437-9.851,18.871-14.616
				c0.367-0.275,0.764-0.45,1.182-0.538c0.772-0.154,1.613,0.028,2.245,0.472c0.429,0.308,0.943,0.862,0.954,1.802
				c0.1,7.348,0.247,14.688,0.436,22.023c0.088,3.229,1.883,6.171,4.755,7.906c6.538,3.941,12.968,7.988,19.271,12.134
				c1.171,0.769,1.138,1.896,1.07,2.34c-0.072,0.449-0.373,1.532-1.707,1.948c-7.215,2.279-14.365,4.7-21.436,7.26
				c-3.114,1.126-5.438,3.695-6.189,6.823c-1.729,7.134-3.338,14.266-4.836,21.403c-0.281,1.318-1.308,1.709-1.741,1.813
				c-0.435,0.104-1.525,0.241-2.404-0.79c-4.75-5.596-9.592-11.139-14.539-16.621c-2.169-2.417-5.441-3.607-8.726-3.151
				c-7.45,1.026-14.896,2.207-22.33,3.535c-1.378,0.248-2.158-0.565-2.438-0.933c-0.271-0.356-0.835-1.335-0.183-2.554
				c3.554-6.577,7.261-13.123,11.114-19.623c1.696-2.866,1.867-6.293,0.39-9.176c-3.35-6.557-6.746-13.095-10.189-19.617
				c-0.439-0.834-0.254-1.56-0.023-2.031C417.655,14.329,418.307,13.78,419.059,13.561z"/>
		</g>
		<g>
			<path fill="#FF7312" d="M345.644,8.233c0.439,0.179,0.841,0.436,1.187,0.797c6.115,6.381,12.059,12.844,17.828,19.382
				c1.246,1.419,2.834,2.564,4.597,3.328c1.763,0.769,3.689,1.144,5.577,1.099c8.775-0.22,17.599-0.264,26.472-0.126
				c0.505,0,0.972,0.109,1.39,0.323c0.778,0.379,1.39,1.094,1.636,1.905c0.165,0.55,0.229,1.378-0.4,2.201
				c-4.941,6.458-9.839,12.942-14.697,19.454c-2.138,2.865-2.586,6.622-1.273,10.048c2.997,7.786,5.819,15.589,8.473,23.396
				c0.486,1.444-0.31,2.398-0.677,2.746c-0.362,0.34-1.362,1.092-2.817,0.565c-7.84-2.822-15.72-5.484-23.636-7.974
				c-3.481-1.092-7.259-0.406-10.064,1.818c-6.387,5.051-12.679,10.18-18.876,15.391c-1.148,0.96-2.313,0.609-2.764,0.416
				c-0.449-0.191-1.499-0.807-1.554-2.294c-0.313-8.038-0.753-16.093-1.313-24.165c-0.241-3.553-2.29-6.77-5.469-8.565
				c-7.221-4.09-14.54-8.037-21.975-11.852c-1.371-0.701-1.498-1.935-1.488-2.435c0.014-0.5,0.178-1.725,1.594-2.347
				c7.62-3.342,15.352-6.559,23.192-9.64c3.447-1.351,5.934-4.223,6.628-7.717c1.56-7.942,3.074-15.904,4.533-23.871
				c0.193-1.016,0.846-1.525,1.373-1.781C343.892,7.967,344.838,7.932,345.644,8.233z"/>
		</g>
		<g>
			<path fill="#2EE321" d="M237.743,123.692c0.517-0.335,1.104-0.571,1.751-0.664c11.404-1.751,22.752-3.239,34.054-4.473
				c2.438-0.261,4.858-1.096,7.021-2.396c2.159-1.313,4.048-3.08,5.447-5.14c6.521-9.544,13.271-18.992,20.237-28.354
				c0.396-0.527,0.867-0.944,1.407-1.24c0.998-0.539,2.207-0.654,3.25-0.302c0.696,0.235,1.619,0.796,1.991,2.091
				c2.96,10.147,5.975,20.272,9.056,30.376c1.355,4.445,4.936,7.764,9.532,8.943c10.448,2.687,20.775,5.574,30.967,8.653
				c1.889,0.576,2.273,2.143,2.355,2.789c0.075,0.647,0.082,2.284-1.576,3.426c-8.966,6.221-17.801,12.623-26.492,19.185
				c-3.828,2.894-6.02,7.444-5.854,12.117c0.373,10.637,0.894,21.229,1.57,31.78c0.125,1.95-1.136,2.933-1.69,3.268
				c-0.551,0.335-1.992,0.987-3.598-0.072c-8.658-5.726-17.428-11.337-26.312-16.817c-3.909-2.422-8.856-2.65-13.188-0.609
				c-9.854,4.651-19.655,9.521-29.396,14.622c-1.802,0.939-3.189,0.158-3.707-0.231c-0.51-0.385-1.669-1.496-1.229-3.475
				c2.396-10.696,5.003-21.409,7.83-32.127c1.24-4.716,0.164-9.531-2.965-12.913c-7.117-7.654-14.287-15.27-21.508-22.847
				c-0.916-0.96-0.943-2.059-0.801-2.807C236.106,125.367,236.799,124.335,237.743,123.692z"/>
		</g>
	</g>
	<g>
		<g>
			<circle fill="#FFFFFF" cx="627.726" cy="240.851" r="37.739"/>
		</g>
		<g>
			<path fill="#1A75BB" d="M629.219,204.33c-20.17-0.823-37.188,14.859-38.014,35.03c-0.824,20.169,14.861,37.187,35.031,38.011
				c20.168,0.823,37.188-14.858,38.012-35.028C665.072,222.172,649.385,205.153,629.219,204.33z"/>
		</g>
		<g>
			<g>
				<defs>
					<path id="SVGID_21_" d="M629.219,204.33c-20.17-0.823-37.188,14.859-38.014,35.03c-0.824,20.169,14.861,37.187,35.031,38.011
						c20.168,0.823,37.188-14.858,38.012-35.028C665.072,222.172,649.385,205.153,629.219,204.33z"/>
				</defs>
				<clipPath id="SVGID_22_">
					<use xlink:href="#SVGID_21_"  overflow="visible"/>
				</clipPath>
				<path opacity="0.5" clip-path="url(#SVGID_22_)" fill="#0C5E91" enable-background="new    " d="M667.92,259.797l0.289-7.101
					l-4.01-0.163c-11.148,2.479-23.625,3.622-36.75,3.086c-13.127-0.536-25.469-2.692-36.377-6.072l-4.66-0.19l-0.289,7.101
					L667.92,259.797z"/>
			</g>
			<g>
				<defs>
					<path id="SVGID_23_" d="M629.219,204.33c-20.17-0.823-37.188,14.859-38.014,35.03c-0.824,20.169,14.861,37.187,35.031,38.011
						c20.168,0.823,37.188-14.858,38.012-35.028C665.072,222.172,649.385,205.153,629.219,204.33z"/>
				</defs>
				<clipPath id="SVGID_24_">
					<use xlink:href="#SVGID_23_"  overflow="visible"/>
				</clipPath>
				<path clip-path="url(#SVGID_24_)" fill="#0C5E91" d="M586.521,269.063L586.238,276c12.192-3.354,25.514-4.943,39.408-4.376
					c14.53,0.594,28.239,3.491,40.541,8.187l0.305-7.482L586.521,269.063z"/>
			</g>
		</g>
		<g>
			<g>
				<path fill="#0C5E91" d="M621.934,235.196c-0.135,3.314,2.451,6.121,5.769,6.257c3.313,0.136,6.121-2.451,6.256-5.766
					l1.227-30.039c0.009-0.192,0.041-0.377,0.091-0.557c-1.964-0.413-3.986-0.677-6.058-0.762c-2.074-0.085-4.11,0.014-6.102,0.266
					c0.035,0.183,0.053,0.369,0.045,0.563L621.934,235.196z"/>
			</g>
			<g>
				<path fill="#0C5E91" d="M613.525,232.073L613.525,232.073l-0.492,12.07c-0.135,3.315,2.451,6.121,5.768,6.257
					c2.828,0.115,5.281-1.756,6.025-4.368c-4.74-1.396-8.123-5.883-7.912-11.041l1.201-29.411
					c-7.406,2.017-13.908,6.311-18.668,12.115c0.274-0.006,0.555-0.005,0.836,0.006
					C607.896,218.013,613.836,224.459,613.525,232.073z"/>
			</g>
			<g>
				<path fill="#0C5E91" d="M630.193,246.251c0.528,2.665,2.821,4.729,5.649,4.846c3.314,0.135,6.123-2.451,6.258-5.767
					l0.492-12.069l0,0c0.312-7.614,6.758-13.556,14.371-13.244c0.281,0.011,0.562,0.033,0.836,0.063
					c-4.271-6.174-10.401-10.983-17.619-13.598l-1.2,29.411C638.768,241.05,635.033,245.246,630.193,246.251z"/>
			</g>
		</g>
		<g>
			<path fill="#1A75BB" d="M599.359,240.296c-4.847-0.198-8.625-4.301-8.429-9.146c0.199-4.846,4.302-8.625,9.146-8.427
				c4.845,0.198,8.625,4.299,8.426,9.145C608.305,236.713,604.205,240.494,599.359,240.296z"/>
		</g>
		<g>
			<path fill="#1A75BB" d="M656.043,242.61c-4.846-0.197-8.627-4.301-8.428-9.146c0.197-4.845,4.301-8.624,9.145-8.427
				c4.847,0.198,8.627,4.299,8.431,9.145C664.99,239.027,660.887,242.809,656.043,242.61z"/>
		</g>
		<g>
			<path fill="#1A75BB" stroke="#FFFFFF" stroke-width="0.6311" d="M666.623,265.186c0.156-3.825-2.727-7.059-6.498-7.397
				l0.002-0.019l-66.072-2.698v0.019c-3.785,0.03-6.922,3.018-7.078,6.843c-0.155,3.823,2.728,7.059,6.496,7.396v0.019l66.07,2.698
				l0.002-0.019C663.33,271.998,666.467,269.008,666.623,265.186z"/>
			
				<line fill="none" stroke="#FFCB05" stroke-width="0.9659" stroke-linecap="round" x1="594.078" y1="255.072" x2="660.1" y2="257.769"/>
			
				<line fill="none" stroke="#FFCB05" stroke-width="0.9659" stroke-linecap="round" x1="593.496" y1="269.348" x2="659.518" y2="272.044"/>
			<g>
				<path fill="#0C5E91" d="M602.715,268.203l-2.35-0.096l-0.832-2.434l-4.277-0.175l-0.973,2.359l-2.295-0.094l4.596-10.361
					l2.283,0.093L602.715,268.203z M598.908,263.872l-1.308-3.973l-1.608,3.854L598.908,263.872z"/>
				<path fill="#0C5E91" d="M603.135,268.221l0.431-10.532l4.545,0.186c0.942,0.038,1.633,0.119,2.065,0.243
					c0.732,0.211,1.269,0.611,1.605,1.2c0.295,0.498,0.428,1.058,0.401,1.682c-0.067,1.684-1.047,2.622-2.938,2.816
					c0.522,0.325,0.963,0.72,1.322,1.184c0.217,0.273,0.532,0.776,0.95,1.509l1.224,2.104l-2.576-0.104l-1.471-2.354
					c-0.441-0.706-0.685-1.089-0.726-1.149c-0.348-0.488-0.676-0.794-0.981-0.913c-0.226-0.087-0.586-0.142-1.082-0.162
					l-0.438-0.019l-0.18,4.399L603.135,268.221z M605.539,262.231l1.596,0.065c0.795,0.032,1.252,0.042,1.369,0.032
					c0.582-0.041,0.982-0.208,1.207-0.504c0.152-0.205,0.236-0.468,0.25-0.78c0.029-0.735-0.32-1.177-1.051-1.324
					c-0.154-0.027-0.68-0.059-1.578-0.095l-1.684-0.069L605.539,262.231z"/>
				<path fill="#0C5E91" d="M622.677,269.019l0.431-10.532l7.926,0.323l-0.074,1.781l-5.768-0.236l-0.095,2.332l5.369,0.219
					l-0.071,1.781l-5.371-0.22l-0.117,2.866l5.979,0.244l-0.071,1.773L622.677,269.019z"/>
				<path fill="#0C5E91" d="M630.789,265.918l2.104-0.113c0.191,1.352,0.939,2.055,2.255,2.108c0.539,0.021,1.004-0.063,1.397-0.256
					c0.484-0.241,0.738-0.611,0.758-1.104c0.021-0.501-0.297-0.878-0.95-1.135c-0.24-0.095-0.813-0.274-1.716-0.534
					c-1.145-0.33-1.94-0.709-2.387-1.139c-0.637-0.607-0.938-1.327-0.904-2.163c0.023-0.576,0.213-1.088,0.568-1.537
					c0.336-0.435,0.781-0.754,1.336-0.961c0.594-0.221,1.301-0.315,2.121-0.282c1.174,0.049,2.102,0.324,2.791,0.826
					c0.787,0.58,1.18,1.427,1.178,2.537l-2.166-0.001c-0.07-0.559-0.262-0.964-0.576-1.216c-0.293-0.231-0.733-0.357-1.321-0.382
					c-0.627-0.025-1.123,0.078-1.49,0.315c-0.232,0.155-0.355,0.369-0.367,0.642c-0.01,0.249,0.09,0.466,0.299,0.65
					c0.254,0.235,0.912,0.51,1.971,0.824c1.181,0.353,1.939,0.625,2.279,0.814c1.045,0.601,1.543,1.543,1.49,2.82
					c-0.025,0.635-0.225,1.203-0.598,1.702c-0.371,0.504-0.861,0.863-1.472,1.086c-0.633,0.229-1.412,0.325-2.342,0.287
					C632.396,269.6,630.978,268.337,630.789,265.918z"/>
				<path fill="#0C5E91" d="M639.666,269.712l0.43-10.532l2.154,0.088l-0.43,10.532L639.666,269.712z"/>
				<path fill="#0C5E91" d="M647.734,266.163l0.071-1.772l4.646,0.189l-0.17,4.192c-0.539,0.475-1.269,0.847-2.188,1.119
					c-0.85,0.252-1.666,0.363-2.448,0.331c-2.332-0.095-3.894-1.054-4.687-2.879c-0.387-0.874-0.559-1.818-0.518-2.829
					c0.094-2.326,1.076-3.918,2.946-4.773c0.705-0.326,1.564-0.465,2.582-0.424c2.576,0.105,4.05,1.201,4.425,3.285l-2.162,0.312
					c-0.277-1.132-1.058-1.723-2.336-1.774c-1.037-0.042-1.841,0.26-2.4,0.909c-0.506,0.595-0.779,1.417-0.822,2.47
					c-0.045,1.086,0.15,1.968,0.58,2.64c0.5,0.784,1.275,1.196,2.328,1.239c0.902,0.037,1.758-0.23,2.564-0.799l0.055-1.333
					L647.734,266.163z"/>
				<path fill="#0C5E91" d="M652.676,270.243l0.431-10.532l2.1,0.086l4.086,7.212l0.287-7.033l2.002,0.082l-0.432,10.531
					l-2.16-0.088l-4.029-7.043l-0.281,6.867L652.676,270.243z"/>
				<path fill="#0C5E91" d="M622.291,261.332c-0.434-1.443-1.275-2.369-2.525-2.783c-0.459-0.151-1.02-0.241-1.358-0.255
					l-0.256-0.01l-0.074,1.78c0.772,0.031,1.27,0.405,1.52,0.66c0.535,0.536,0.775,1.51,0.718,2.925
					c-0.033,0.816-0.134,1.459-0.298,1.926c-0.274,0.782-0.774,1.247-1.493,1.395c-0.273,0.058-0.714,0.074-1.316,0.049l-1.17-0.047
					l-0.072,1.772l1.463,0.06c0.804,0.033,1.443-0.014,1.918-0.145c0.646-0.171,1.162-0.428,1.552-0.777
					c1.022-0.903,1.567-2.25,1.643-4.045C622.578,262.854,622.492,262.018,622.291,261.332z"/>
				<polygon fill="#0C5E91" points="612.469,258.052 612.393,259.832 614.15,259.904 613.793,268.655 615.955,268.744 
					616.027,266.971 616.312,259.992 618.066,260.063 618.139,258.283 				"/>
			</g>
			<g>
				<path fill="#FFD400" d="M603.066,267.859l-2.316-0.095l-0.82-2.434l-4.217-0.172l-0.961,2.361l-2.26-0.093l4.535-10.365
					l2.252,0.092L603.066,267.859z M599.314,263.529l-1.285-3.971l-1.588,3.854L599.314,263.529z"/>
				<path fill="#FFD400" d="M603.48,267.877l0.432-10.533l4.479,0.183c0.931,0.038,1.609,0.117,2.037,0.242
					c0.722,0.211,1.25,0.61,1.584,1.2c0.287,0.497,0.42,1.057,0.396,1.681c-0.068,1.683-1.035,2.622-2.898,2.817
					c0.517,0.325,0.949,0.719,1.303,1.182c0.214,0.274,0.525,0.779,0.938,1.509l1.201,2.106l-2.539-0.104l-1.447-2.355
					c-0.434-0.706-0.672-1.09-0.713-1.15c-0.344-0.486-0.666-0.793-0.971-0.912c-0.222-0.088-0.574-0.142-1.064-0.162l-0.432-0.018
					l-0.181,4.401L603.48,267.877z M605.853,261.885l1.573,0.064c0.783,0.031,1.232,0.042,1.351,0.031
					c0.569-0.04,0.969-0.209,1.188-0.504c0.152-0.207,0.236-0.467,0.248-0.781c0.031-0.733-0.314-1.175-1.033-1.322
					c-0.151-0.027-0.672-0.058-1.557-0.095l-1.66-0.067L605.853,261.885z"/>
				<path fill="#FFFFFF" d="M622.75,268.663l0.43-10.533l7.812,0.319l-0.072,1.781l-5.686-0.232l-0.097,2.33l5.295,0.216
					l-0.071,1.782l-5.296-0.217l-0.116,2.867l5.893,0.24l-0.072,1.774L622.75,268.663z"/>
				<path fill="#FFFFFF" d="M630.748,265.558l2.076-0.116c0.184,1.353,0.924,2.055,2.217,2.107c0.533,0.021,0.992-0.063,1.379-0.255
					c0.48-0.242,0.73-0.611,0.75-1.107c0.021-0.499-0.293-0.876-0.938-1.133c-0.238-0.095-0.802-0.273-1.691-0.533
					c-1.127-0.328-1.912-0.707-2.352-1.137c-0.63-0.604-0.925-1.327-0.89-2.165c0.023-0.574,0.209-1.086,0.56-1.534
					c0.332-0.436,0.771-0.755,1.317-0.963c0.586-0.222,1.283-0.316,2.093-0.283c1.155,0.047,2.071,0.322,2.752,0.824
					c0.774,0.58,1.159,1.427,1.157,2.536l-2.135-0.001c-0.067-0.556-0.256-0.961-0.567-1.214c-0.287-0.23-0.722-0.356-1.304-0.381
					c-0.617-0.024-1.106,0.078-1.469,0.316c-0.229,0.156-0.35,0.37-0.361,0.642c-0.01,0.25,0.086,0.468,0.293,0.65
					c0.252,0.234,0.898,0.508,1.941,0.822c1.164,0.353,1.914,0.624,2.248,0.813c1.029,0.601,1.52,1.542,1.467,2.819
					c-0.025,0.634-0.221,1.201-0.588,1.703c-0.367,0.505-0.853,0.864-1.453,1.086c-0.623,0.23-1.393,0.327-2.307,0.29
					C632.33,269.238,630.93,267.976,630.748,265.558z"/>
				<path fill="#FFFFFF" d="M639.494,269.348l0.43-10.533l2.125,0.087l-0.43,10.533L639.494,269.348z"/>
				<path fill="#FFFFFF" d="M647.451,265.792l0.072-1.773l4.584,0.187l-0.173,4.194c-0.528,0.475-1.25,0.847-2.155,1.12
					c-0.838,0.253-1.644,0.364-2.414,0.333c-2.301-0.094-3.84-1.053-4.621-2.877c-0.377-0.874-0.549-1.818-0.508-2.828
					c0.096-2.326,1.063-3.919,2.908-4.778c0.694-0.324,1.545-0.465,2.545-0.424c2.541,0.104,3.993,1.198,4.362,3.283l-2.133,0.312
					c-0.272-1.13-1.043-1.721-2.305-1.772c-1.021-0.042-1.812,0.261-2.363,0.912c-0.5,0.592-0.771,1.417-0.813,2.47
					c-0.044,1.086,0.146,1.967,0.571,2.639c0.492,0.782,1.256,1.195,2.293,1.238c0.892,0.036,1.734-0.232,2.529-0.801l0.055-1.334
					L647.451,265.792z"/>
				<path fill="#FFFFFF" d="M652.324,269.871l0.43-10.533l2.068,0.085l4.024,7.209l0.287-7.033l1.974,0.08l-0.431,10.533
					l-2.133-0.087l-3.969-7.044l-0.279,6.871L652.324,269.871z"/>
				<path fill="#FFFFFF" d="M622.369,260.977c-0.426-1.443-1.254-2.369-2.486-2.782c-0.453-0.15-1.006-0.24-1.342-0.254l-0.252-0.01
					l-0.074,1.78c0.762,0.031,1.254,0.405,1.498,0.66c0.529,0.534,0.762,1.509,0.705,2.925c-0.033,0.814-0.131,1.456-0.293,1.924
					c-0.273,0.782-0.764,1.248-1.473,1.396c-0.271,0.058-0.703,0.074-1.3,0.05l-1.153-0.047l-0.072,1.774l1.441,0.059
					c0.793,0.032,1.424-0.017,1.893-0.146c0.639-0.173,1.146-0.431,1.529-0.78c1.008-0.903,1.547-2.251,1.621-4.045
					C622.65,262.497,622.57,261.66,622.369,260.977z"/>
				<polygon fill="#FFD400" points="612.687,257.702 612.615,259.482 614.344,259.554 613.986,268.306 616.121,268.393 
					616.193,266.619 616.478,259.641 618.205,259.711 618.279,257.931 				"/>
			</g>
		</g>
		<g>
			<g>
				<path fill="#0C5E91" d="M664.277,240.868c-1.752,1.991-4.384,3.217-7.275,3.099c-5.018-0.205-8.938-4.361-8.738-9.263
					c0.199-4.899,4.447-8.721,9.465-8.516c1.479,0.061,2.857,0.472,4.068,1.136c-0.84-2.157-1.881-4.219-3.098-6.158
					c-0.254-0.024-0.508-0.045-0.765-0.056c-7.885-0.322-14.557,5.682-14.87,13.381l0,0l-0.5,12.212
					c-0.138,3.354-3.041,5.966-6.476,5.825c-2.93-0.119-5.309-2.211-5.856-4.904c5.014-1.014,8.877-5.254,9.092-10.473l1.24-30.387
					c0.002-0.051-0.011-0.101-0.011-0.152c-1.563-0.509-3.168-0.938-4.811-1.264c-0.219,0.354-0.361,0.759-0.379,1.204
					l-1.242,30.387c-0.137,3.354-3.043,5.969-6.478,5.828c-3.432-0.14-6.114-2.983-5.979-6.337l1.24-30.387
					c0.02-0.445-0.092-0.86-0.279-1.231c-1.666,0.191-3.297,0.488-4.898,0.869c-0.004,0.05-0.02,0.099-0.021,0.149l-1.24,30.387
					c-0.213,5.219,3.293,9.76,8.205,11.18c-0.768,2.64-3.307,4.529-6.235,4.41c-3.437-0.141-6.115-2.98-5.979-6.334l0.498-12.212
					l0,0c0.313-7.699-5.846-14.227-13.73-14.549c-0.258-0.011-0.51-0.01-0.764-0.007c-1.375,1.833-2.578,3.804-3.592,5.885
					c1.26-0.563,2.668-0.86,4.147-0.8c5.019,0.204,8.937,4.359,8.736,9.259c-0.201,4.902-4.445,8.724-9.463,8.52
					c-2.893-0.118-5.414-1.553-6.998-3.68c-0.029,0.399-0.063,0.801-0.08,1.207c-0.078,1.903-0.006,3.779,0.199,5.616
					c1.967,1.137,4.234,1.835,6.672,1.935c3.453,0.142,6.674-0.934,9.23-2.832l-0.06,1.445c-0.252,6.152,4.67,11.369,10.971,11.627
					c3.552,0.146,6.796-1.314,8.994-3.721c1.996,2.577,5.109,4.296,8.66,4.441c6.301,0.257,11.631-4.541,11.883-10.693l0.06-1.445
					c2.393,2.101,5.516,3.435,8.971,3.575c2.438,0.1,4.754-0.411,6.807-1.384c0.355-1.814,0.578-3.678,0.656-5.582
					C664.273,241.673,664.273,241.271,664.277,240.868z"/>
			</g>
		</g>
		<g>
			<g>
				<path fill="#00ADEE" d="M636.094,256.441c-0.155,0-0.313-0.003-0.47-0.009c-3.278-0.134-6.305-1.662-8.363-4.209
					c-2.144,2.244-5.113,3.523-8.212,3.523c-0.155,0-0.312-0.003-0.468-0.009c-6.258-0.256-11.142-5.555-10.887-11.811l0.031-0.777
					c-2.363,1.635-5.116,2.495-8.005,2.495c-0.192,0-0.388-0.004-0.582-0.012c-7.786-0.319-13.861-6.913-13.545-14.699
					c0.312-7.603,6.512-13.559,14.116-13.559c0.193,0,0.389,0.004,0.583,0.012c7.786,0.319,13.862,6.913,13.545,14.7l-0.492,12.07
					c-0.128,3.141,2.324,5.8,5.466,5.929l0.233,0.005c2.426,0,4.597-1.568,5.383-3.85c-4.835-1.572-8.041-6.156-7.832-11.261
					l1.228-30.038c0.063-1.521,1.303-2.713,2.824-2.713l0.116,0.002c1.56,0.064,2.774,1.383,2.712,2.941l-1.228,30.038
					c-0.128,3.141,2.324,5.8,5.465,5.929l0.236,0.005c3.065,0,5.565-2.402,5.69-5.468l1.228-30.039
					c0.063-1.521,1.303-2.712,2.824-2.712l0.116,0.002c0.755,0.03,1.451,0.353,1.965,0.909c0.513,0.556,0.776,1.277,0.747,2.032
					l-1.228,30.039c-0.209,5.105-3.778,9.414-8.725,10.585c0.62,2.438,2.752,4.187,5.285,4.291l0.233,0.005
					c3.069,0,5.571-2.402,5.695-5.469l0.492-12.069c0.311-7.603,6.51-13.559,14.113-13.559c0.194,0,0.391,0.004,0.585,0.012
					c3.768,0.154,7.252,1.769,9.813,4.549c2.562,2.779,3.888,6.384,3.734,10.15c-0.313,7.603-6.513,13.558-14.115,13.558
					c0,0,0,0-0.001,0c-0.193,0-0.389-0.004-0.583-0.012c-3.053-0.125-5.995-1.247-8.356-3.176l-0.031,0.778
					C647.187,251.656,642.206,256.441,636.094,256.441L636.094,256.441z M656.396,225.346c-4.563,0-8.28,3.572-8.467,8.131
					c-0.093,2.259,0.702,4.421,2.238,6.089c1.537,1.667,3.628,2.637,5.887,2.729c0.118,0.005,0.234,0.007,0.353,0.007
					c4.561,0,8.278-3.572,8.467-8.133c0.19-4.67-3.456-8.625-8.127-8.816C656.63,225.349,656.512,225.346,656.396,225.346
					L656.396,225.346z M599.714,223.032c-4.561,0-8.279,3.572-8.467,8.132c-0.19,4.67,3.455,8.626,8.125,8.817
					c0.118,0.005,0.234,0.007,0.352,0.007c4.562,0,8.279-3.572,8.466-8.132c0.093-2.259-0.702-4.422-2.237-6.088
					c-1.536-1.667-3.626-2.636-5.886-2.728C599.947,223.034,599.831,223.032,599.714,223.032L599.714,223.032z"/>
			</g>
			<g>
				<path fill="#FFFFFF" d="M620.649,202.543c0.034,0,0.068,0,0.104,0.002c1.385,0.057,2.465,1.227,2.408,2.613l-1.228,30.038
					c-0.135,3.314,2.451,6.121,5.769,6.257c0.083,0.003,0.166,0.005,0.249,0.005c3.203,0,5.875-2.54,6.007-5.771l1.228-30.039
					c0.056-1.351,1.168-2.409,2.509-2.409c0.034,0,0.068,0,0.104,0.002c1.385,0.056,2.465,1.227,2.408,2.612l-1.227,30.039
					c-0.212,5.157-3.947,9.354-8.787,10.358c0.528,2.665,2.821,4.729,5.649,4.846c0.083,0.003,0.165,0.005,0.247,0.005
					c3.206,0,5.879-2.539,6.011-5.771l0.492-12.069c0.304-7.423,6.438-13.256,13.799-13.256c0.189,0,0.382,0.004,0.572,0.012
					c7.613,0.311,13.556,6.758,13.244,14.371c-0.305,7.424-6.438,13.255-13.801,13.255c-0.188,0-0.38-0.004-0.57-0.012
					c-3.336-0.136-6.35-1.45-8.658-3.523l-0.059,1.428c-0.242,5.93-5.143,10.59-11.025,10.59c-0.15,0-0.304-0.003-0.457-0.009
					c-3.428-0.14-6.434-1.837-8.354-4.381c-2.032,2.273-4.983,3.695-8.232,3.695c-0.149,0-0.303-0.003-0.455-0.009
					c-6.084-0.249-10.832-5.4-10.584-11.482l0.06-1.428c-2.328,1.771-5.228,2.817-8.348,2.817c-0.188,0-0.379-0.004-0.568-0.012
					c-7.613-0.312-13.553-6.757-13.242-14.371c0.303-7.423,6.438-13.256,13.801-13.256c0.189,0,0.38,0.004,0.57,0.012
					c7.613,0.312,13.553,6.758,13.242,14.372l-0.492,12.07c-0.135,3.315,2.451,6.121,5.768,6.257
					c0.083,0.003,0.165,0.005,0.247,0.005c2.724,0,5.057-1.837,5.778-4.373c-4.74-1.396-8.123-5.883-7.912-11.041l1.228-30.038
					C618.196,203.601,619.309,202.543,620.649,202.543 M599.722,240.303c4.687,0,8.588-3.712,8.78-8.435
					c0.199-4.846-3.58-8.946-8.426-9.145c-0.122-0.005-0.243-0.007-0.364-0.007c-4.685,0-8.588,3.71-8.782,8.434
					c-0.196,4.845,3.582,8.947,8.429,9.146C599.481,240.301,599.601,240.303,599.722,240.303 M656.407,242.618
					c4.686,0,8.588-3.712,8.782-8.435c0.196-4.846-3.584-8.946-8.431-9.145c-0.121-0.005-0.242-0.007-0.362-0.007
					c-4.685,0-8.59,3.711-8.781,8.434c-0.199,4.845,3.582,8.948,8.428,9.146C656.165,242.615,656.286,242.618,656.407,242.618
					 M620.649,201.912L620.649,201.912c-1.691,0-3.07,1.325-3.141,3.016l-1.227,30.038c-0.21,5.136,2.942,9.76,7.735,11.468
					c-0.82,1.994-2.786,3.341-4.972,3.341c-0.073,0-0.146-0.001-0.222-0.004c-2.967-0.122-5.283-2.634-5.162-5.601l0.492-12.07
					c0.324-7.961-5.889-14.703-13.849-15.028c-0.198-0.008-0.397-0.012-0.596-0.012c-7.775,0-14.114,6.088-14.432,13.861
					c-0.324,7.96,5.888,14.702,13.848,15.027c0.198,0.008,0.397,0.012,0.595,0.012c2.743,0,5.367-0.759,7.664-2.207l-0.007,0.161
					c-0.262,6.43,4.757,11.875,11.189,12.139c0.159,0.007,0.32,0.01,0.479,0.01c3.065,0,6.012-1.22,8.192-3.37
					c2.106,2.455,5.119,3.923,8.37,4.055c0.16,0.007,0.321,0.01,0.481,0.01c6.28,0,11.4-4.918,11.656-11.196l0.007-0.164
					c2.325,1.738,5.141,2.746,8.054,2.864c0.199,0.008,0.398,0.012,0.597,0.012c7.772,0,14.111-6.088,14.432-13.86
					c0.157-3.851-1.199-7.536-3.816-10.377c-2.619-2.842-6.183-4.493-10.032-4.65c-0.199-0.008-0.399-0.012-0.599-0.012
					c-7.773,0-14.111,6.088-14.43,13.861l-0.492,12.069c-0.117,2.897-2.479,5.167-5.38,5.167c-0.073,0-0.146-0.001-0.222-0.004
					c-2.286-0.094-4.228-1.604-4.905-3.75c4.917-1.311,8.438-5.662,8.647-10.798l1.227-30.039c0.034-0.839-0.261-1.641-0.83-2.259
					c-0.57-0.618-1.346-0.976-2.184-1.01c-0.043-0.002-0.087-0.003-0.131-0.003c-1.69,0-3.069,1.324-3.14,3.015l-1.227,30.039
					c-0.117,2.896-2.479,5.166-5.376,5.166c-0.074,0-0.148-0.001-0.225-0.004c-2.967-0.122-5.283-2.634-5.162-5.601l1.228-30.038
					c0.07-1.732-1.281-3.199-3.014-3.27C620.736,201.913,620.692,201.912,620.649,201.912L620.649,201.912L620.649,201.912z
					 M599.722,239.672c-0.111,0-0.226-0.002-0.339-0.007c-4.496-0.184-8.006-3.993-7.821-8.489c0.18-4.39,3.761-7.829,8.15-7.829
					c0.113,0,0.227,0.002,0.339,0.007c2.175,0.089,4.188,1.022,5.666,2.627c1.479,1.604,2.244,3.686,2.154,5.861
					C607.694,236.233,604.114,239.672,599.722,239.672L599.722,239.672z M656.407,241.987c-0.112,0-0.227-0.002-0.339-0.007
					c-2.176-0.089-4.188-1.022-5.667-2.627c-1.479-1.605-2.245-3.687-2.155-5.862c0.179-4.39,3.759-7.829,8.15-7.829
					c0.112,0,0.225,0.002,0.338,0.007c4.496,0.184,8.008,3.992,7.823,8.488C664.378,238.547,660.798,241.987,656.407,241.987
					L656.407,241.987z"/>
			</g>
		</g>
		<g>
			<circle fill="#0C5E91" cx="656.976" cy="219.741" r="4.188"/>
		</g>
		<g>
			<circle fill="#0C5E91" cx="600.294" cy="217.426" r="4.188"/>
		</g>
		<path fill="#00496D" d="M633.367,205.388c-0.096,2.312-2.047,4.107-4.355,4.014c-2.313-0.095-4.108-2.044-4.016-4.355
			c0.094-2.31,2.045-4.105,4.357-4.011C631.662,201.129,633.461,203.078,633.367,205.388z"/>
		<circle fill="#FFD400" cx="629.218" cy="204.329" r="4.188"/>
		<g>
			<circle fill="#FFD400" cx="657.011" cy="218.874" r="4.188"/>
		</g>
		<g>
			<circle fill="#FFD400" cx="600.329" cy="216.559" r="4.188"/>
		</g>
		<g>
			<g>
				<g>
					<path fill="#0C5E91" d="M615.465,225.817c-0.414-0.018-0.764,0.306-0.779,0.723l-0.483,11.846
						c-0.019,0.415,0.305,0.767,0.719,0.783c0.416,0.018,0.764-0.307,0.781-0.723l0.483-11.846
						C616.201,226.185,615.881,225.834,615.465,225.817z"/>
				</g>
				<g>
					<path fill="#0C5E91" d="M605.016,225.391c-0.416-0.018-0.764,0.306-0.778,0.723l-0.484,11.846
						c-0.018,0.415,0.303,0.767,0.719,0.783c0.412,0.017,0.763-0.307,0.779-0.723l0.484-11.846
						C605.752,225.758,605.428,225.407,605.016,225.391z"/>
				</g>
				<g>
					<path fill="#0C5E91" d="M602.115,226.349c-3.072-0.125-5.676,2.286-5.801,5.373c-0.017,0.385,0.008,0.762,0.065,1.125
						c-0.084,1.582-1.424,2.813-3.004,2.749c-0.414-0.017-0.762,0.306-0.779,0.721c-0.018,0.416,0.306,0.769,0.72,0.785
						c1.637,0.066,3.102-0.781,3.907-2.088c0.955,1.464,2.568,2.46,4.435,2.536c0.416,0.017,0.764-0.309,0.781-0.726l0.396-9.688
						C602.853,226.718,602.531,226.366,602.115,226.349z"/>
				</g>
				<g>
					<path fill="#0C5E91" d="M625.746,224.321c-4.713-0.192-8.703,3.504-8.896,8.24c-0.192,4.733,3.482,8.742,8.195,8.935
						c0.414,0.017,0.764-0.309,0.781-0.723l0.639-15.667C626.482,224.691,626.16,224.338,625.746,224.321z"/>
				</g>
				<g>
					<path fill="#0C5E91" d="M607.832,226.582c-0.414-0.017-0.764,0.309-0.781,0.726l-0.396,9.688
						c-0.017,0.418,0.305,0.77,0.721,0.787c3.07,0.125,5.674-2.285,5.801-5.372C613.302,229.323,610.904,226.708,607.832,226.582z"
						/>
				</g>
				<g>
					<path fill="#0C5E91" d="M641.172,226.867c-0.414-0.018-0.762,0.306-0.779,0.723l-0.483,11.845
						c-0.019,0.416,0.305,0.768,0.719,0.784c0.414,0.016,0.764-0.307,0.781-0.723l0.481-11.846
						C641.908,227.234,641.586,226.884,641.172,226.867z"/>
				</g>
				<g>
					<path fill="#0C5E91" d="M651.621,227.294c-0.414-0.018-0.764,0.306-0.781,0.723l-0.481,11.845
						c-0.019,0.416,0.305,0.768,0.719,0.784c0.414,0.018,0.762-0.307,0.778-0.723l0.484-11.846
						C652.355,227.661,652.035,227.311,651.621,227.294z"/>
				</g>
				<g>
					<path fill="#0C5E91" d="M662.387,238.414c-1.58-0.064-2.813-1.401-2.768-2.984c0.088-0.358,0.143-0.731,0.158-1.116
						c0.127-3.087-2.271-5.702-5.345-5.828c-0.414-0.017-0.764,0.309-0.78,0.726l-0.396,9.688c-0.018,0.418,0.305,0.77,0.717,0.787
						c1.867,0.076,3.556-0.786,4.627-2.166c0.699,1.367,2.089,2.332,3.726,2.399c0.414,0.017,0.764-0.309,0.781-0.724
						C663.125,238.781,662.803,238.431,662.387,238.414z"/>
				</g>
				<g>
					<path fill="#0C5E91" d="M631.049,224.538c-0.416-0.018-0.764,0.309-0.781,0.724l-0.639,15.667
						c-0.018,0.414,0.303,0.769,0.719,0.784c4.711,0.192,8.701-3.503,8.896-8.236C639.434,228.74,635.76,224.73,631.049,224.538z"/>
				</g>
				<g>
					<path fill="#0C5E91" d="M648.719,228.252c-3.072-0.125-5.676,2.286-5.803,5.373c-0.125,3.088,2.273,5.702,5.346,5.827
						c0.414,0.018,0.765-0.308,0.781-0.725l0.396-9.688C649.455,228.621,649.133,228.269,648.719,228.252z"/>
				</g>
				<g>
					<path fill="#0C5E91" d="M628.478,222.462c-0.414-0.017-0.767,0.307-0.783,0.725l-0.822,20.166
						c-0.018,0.42,0.307,0.771,0.721,0.787c0.412,0.017,0.763-0.306,0.779-0.726l0.824-20.166
						C629.213,222.829,628.891,222.479,628.478,222.462z"/>
				</g>
			</g>
			<g>
				<g>
					<g>
						<path fill="#FFD400" d="M615.566,225.549c-0.41-0.017-0.759,0.302-0.773,0.714l-0.479,11.707
							c-0.019,0.41,0.303,0.757,0.713,0.773c0.412,0.018,0.76-0.302,0.774-0.713l0.479-11.707
							C616.299,225.911,615.978,225.565,615.566,225.549z"/>
					</g>
					<g>
						<path fill="#FFD400" d="M605.191,225.125c-0.412-0.017-0.759,0.302-0.773,0.714l-0.479,11.707
							c-0.019,0.411,0.303,0.757,0.713,0.773c0.409,0.018,0.76-0.302,0.774-0.713l0.479-11.707
							C605.924,225.488,605.6,225.142,605.191,225.125z"/>
					</g>
					<g>
						<path fill="#FFD400" d="M602.309,226.073c-3.049-0.124-5.635,2.257-5.76,5.308c-0.016,0.381,0.01,0.751,0.068,1.113
							c-0.082,1.562-1.412,2.778-2.982,2.715c-0.412-0.018-0.756,0.302-0.772,0.713c-0.019,0.409,0.301,0.758,0.713,0.774
							c1.623,0.066,3.078-0.771,3.881-2.061c0.949,1.445,2.551,2.429,4.402,2.505c0.411,0.017,0.76-0.304,0.776-0.715l0.392-9.576
							C603.043,226.438,602.723,226.091,602.309,226.073z"/>
					</g>
					<g>
						<path fill="#FFD400" d="M625.775,224.074c-4.681-0.191-8.644,3.46-8.834,8.14c-0.191,4.679,3.461,8.642,8.141,8.832
							c0.41,0.018,0.758-0.304,0.773-0.715l0.633-15.483C626.506,224.438,626.184,224.091,625.775,224.074z"/>
					</g>
					<g>
						<path fill="#FFD400" d="M607.988,226.306c-0.412-0.018-0.761,0.303-0.777,0.715l-0.391,9.576
							c-0.019,0.411,0.303,0.759,0.715,0.775c3.051,0.125,5.633-2.256,5.758-5.308C613.418,229.014,611.039,226.43,607.988,226.306z
							"/>
					</g>
					<g>
						<path fill="#FFD400" d="M641.094,226.591c-0.412-0.017-0.758,0.303-0.774,0.714l-0.479,11.707
							c-0.016,0.411,0.303,0.758,0.715,0.774c0.41,0.017,0.758-0.303,0.775-0.713l0.479-11.707
							C641.824,226.954,641.504,226.607,641.094,226.591z"/>
					</g>
					<g>
						<path fill="#FFD400" d="M651.469,227.015c-0.412-0.017-0.76,0.303-0.776,0.714l-0.478,11.707
							c-0.018,0.411,0.303,0.757,0.715,0.774c0.41,0.017,0.759-0.303,0.773-0.714l0.479-11.707
							C652.199,227.378,651.879,227.031,651.469,227.015z"/>
					</g>
					<g>
						<path fill="#FFD400" d="M662.162,238.007c-1.568-0.064-2.793-1.386-2.748-2.948c0.086-0.355,0.141-0.724,0.156-1.104
							c0.123-3.051-2.256-5.635-5.308-5.759c-0.412-0.017-0.76,0.303-0.774,0.715l-0.392,9.576
							c-0.018,0.411,0.302,0.759,0.713,0.775c1.854,0.076,3.529-0.772,4.593-2.138c0.694,1.352,2.073,2.305,3.698,2.371
							c0.412,0.017,0.761-0.305,0.775-0.714C662.893,238.37,662.574,238.023,662.162,238.007z"/>
					</g>
					<g>
						<path fill="#FFD400" d="M631.039,224.289c-0.41-0.017-0.758,0.304-0.773,0.713l-0.633,15.483
							c-0.018,0.411,0.303,0.759,0.713,0.775c4.681,0.191,8.644-3.46,8.834-8.139C639.371,228.442,635.719,224.48,631.039,224.289z"
							/>
					</g>
					<g>
						<path fill="#FFD400" d="M648.588,227.963c-3.053-0.124-5.637,2.257-5.76,5.308c-0.125,3.052,2.256,5.635,5.307,5.76
							c0.41,0.017,0.758-0.304,0.773-0.715l0.393-9.576C649.316,228.327,648.998,227.979,648.588,227.963z"/>
					</g>
					<g>
						<path fill="#FFD400" d="M628.488,222.236c-0.412-0.017-0.761,0.304-0.777,0.715l-0.813,19.931
							c-0.019,0.412,0.303,0.761,0.715,0.777c0.408,0.018,0.758-0.304,0.772-0.717l0.814-19.931
							C629.219,222.601,628.896,222.253,628.488,222.236z"/>
					</g>
				</g>
			</g>
			<g>
				<g>
					<g>
						<path fill="#FFFFFF" d="M648.719,243.563c-0.041,0.979,0.722,1.806,1.701,1.847l0.146-3.547
							C649.586,241.822,648.76,242.583,648.719,243.563z"/>
					</g>
					<g>
						<path fill="#FFFFFF" d="M651.156,241.887L651.156,241.887l-0.146,3.546l0,0c0.98,0.041,1.806-0.722,1.845-1.701
							C652.896,242.752,652.135,241.927,651.156,241.887z"/>
					</g>
				</g>
				<g>
					<g>
						<path fill="#FFFFFF" d="M626.535,219.301c-0.039,0.979,0.721,1.805,1.701,1.846l0.145-3.548
							C627.4,217.559,626.576,218.32,626.535,219.301z"/>
					</g>
					<g>
						<path fill="#FFFFFF" d="M628.969,217.623h-0.002l-0.145,3.548h0.002c0.979,0.04,1.805-0.722,1.846-1.701
							C630.711,218.489,629.951,217.663,628.969,217.623z"/>
					</g>
				</g>
				<g>
					<g>
						<path fill="#FFFFFF" d="M602.445,241.673c-0.041,0.979,0.721,1.806,1.701,1.847l0.145-3.547
							C603.309,239.933,602.484,240.693,602.445,241.673z"/>
					</g>
					<g>
						<path fill="#FFFFFF" d="M604.881,239.997L604.881,239.997l-0.145,3.546l0,0c0.979,0.04,1.805-0.722,1.844-1.701
							C606.621,240.862,605.859,240.036,604.881,239.997z"/>
					</g>
				</g>
			</g>
			<g>
				<g>
					<path fill="#0C5E91" d="M601.177,235.551c-1.858-0.425-3.217-2.134-3.137-4.11c0.082-1.976,1.574-3.565,3.461-3.838
						L601.177,235.551z"/>
				</g>
				<g>
					<path fill="#0C5E91" d="M624.969,225.573c-3.524,0.229-6.391,3.096-6.537,6.701c-0.146,3.606,2.476,6.697,5.97,7.213
						L624.969,225.573L624.969,225.573z"/>
				</g>
				<g>
					<path fill="#0C5E91" d="M608.666,227.895l-0.324,7.948c1.894-0.271,3.383-1.864,3.463-3.84S610.529,228.321,608.666,227.895
						L608.666,227.895z"/>
				</g>
				<g>
					<path fill="#0C5E91" d="M654.617,237.733l0.326-7.949c1.86,0.427,3.217,2.133,3.137,4.108S656.508,237.461,654.617,237.733z"/>
				</g>
				<g>
					<path fill="#0C5E91" d="M631.721,225.85l-0.567,13.913c3.522-0.229,6.389-3.096,6.535-6.702
						C637.838,229.456,635.215,226.365,631.721,225.85L631.721,225.85z"/>
				</g>
				<g>
					<path fill="#0C5E91" d="M647.779,229.492c-1.892,0.272-3.383,1.862-3.463,3.839c-0.08,1.976,1.274,3.685,3.139,4.109
						L647.779,229.492L647.779,229.492z"/>
				</g>
			</g>
		</g>
	</g>
</g>
</svg>
