<?xml version="1.0" encoding="utf-8"?>
<!-- Generator: Adobe Illustrator 14.0.0, SVG Export Plug-In . SVG Version: 6.00 Build 43363)  -->
<!DOCTYPE svg PUBLIC "-//W3C//DTD SVG 1.1//EN" "http://www.w3.org/Graphics/SVG/1.1/DTD/svg11.dtd">
<svg version="1.1" id="Layer_1" xmlns="http://www.w3.org/2000/svg" xmlns:xlink="http://www.w3.org/1999/xlink" x="0px" y="0px"
	 width="786.082px" height="782.111px" viewBox="0 0 786.082 782.111" enable-background="new 0 0 786.082 782.111"
	 xml:space="preserve">
<g>
	
		<linearGradient id="SVGID_1_" gradientUnits="userSpaceOnUse" x1="891.6648" y1="416.002" x2="1673.033" y2="416.002" gradientTransform="matrix(-1 0 0 -1 1673.0332 807.0566)">
		<stop  offset="0" style="stop-color:#DAE3FE"/>
		<stop  offset="1" style="stop-color:#E9EFFD"/>
	</linearGradient>
	<path opacity="0.5" fill="url(#SVGID_1_)" d="M94.009,672.638c20.34,21.12,38.538,33.534,52.471,42.906
		c135.887,91.4,291.219,65.056,339.243,56.052c77.485-14.522,142.889-24.776,199.09-75.923
		c127.689-116.216,121.477-358.657,23.902-508.831C697.152,169.031,599.719,23.553,444.052,3.054
		c-3.809-0.502-6.646-0.792-9.135-1.056c-24.084-2.569-173.312-16.121-294.995,86.574c-17.417,14.701-45.445,41.214-71.443,81.657
		C-26.561,318.104-26.863,547.126,94.009,672.638z"/>
	<g>
		<g>
			<g>
				<path fill="#91B3FA" d="M774.809,261.18c0.352,0,0.691-0.208,0.835-0.555c0.482-1.124,0.948-2.261,1.396-3.403
					c0.186-0.472-0.046-1.005-0.517-1.187c-0.466-0.182-0.997,0.044-1.181,0.516c-0.444,1.127-0.901,2.246-1.38,3.355
					c-0.198,0.467,0.021,1.005,0.483,1.202C774.566,261.159,774.687,261.18,774.809,261.18z"/>
				<path fill="#91B3FA" d="M779.7,246.75c-0.484-0.142-0.763-0.647-0.62-1.13c0.659-2.268,1.269-4.585,1.803-6.88
					c0.114-0.495,0.604-0.802,1.098-0.688c0.489,0.116,0.797,0.604,0.683,1.099c-0.542,2.327-1.159,4.679-1.828,6.978
					c-0.12,0.401-0.485,0.658-0.878,0.658C779.871,246.788,779.784,246.779,779.7,246.75z M783.775,228.407
					c-0.502-0.07-0.852-0.532-0.78-1.03c0.328-2.336,0.595-4.719,0.799-7.073c0.037-0.5,0.487-0.879,0.981-0.829
					c0.505,0.038,0.879,0.482,0.835,0.982c-0.2,2.394-0.473,4.804-0.804,7.172c-0.065,0.456-0.455,0.784-0.904,0.784
					C783.858,228.413,783.817,228.413,783.775,228.407z M784.256,208.755c-0.008-2.355-0.084-4.749-0.22-7.109
					c-0.03-0.505,0.354-0.935,0.854-0.968c0.529-0.027,0.939,0.358,0.971,0.862c0.14,2.389,0.216,4.815,0.222,7.21
					c0.007,0.5-0.407,0.91-0.912,0.91l0,0C784.666,209.661,784.258,209.254,784.256,208.755z M782.842,190.154
					c-0.35-2.334-0.767-4.694-1.247-7.001c-0.099-0.494,0.22-0.978,0.714-1.082c0.494-0.099,0.979,0.221,1.08,0.714
					c0.485,2.339,0.907,4.728,1.265,7.1c0.07,0.499-0.271,0.967-0.773,1.038c-0.044,0.005-0.086,0.012-0.132,0.012
					C783.299,190.934,782.908,190.609,782.842,190.154z M778.751,171.958c-0.681-2.256-1.438-4.529-2.254-6.765
					c-0.173-0.472,0.067-0.994,0.545-1.169c0.479-0.17,1,0.07,1.173,0.549c0.826,2.256,1.596,4.562,2.287,6.852
					c0.146,0.484-0.125,0.994-0.609,1.137c-0.087,0.028-0.178,0.045-0.264,0.045C779.235,172.606,778.872,172.353,778.751,171.958z
					 M772.052,154.53c-1.006-2.146-2.087-4.283-3.206-6.357c-0.238-0.445-0.075-1,0.373-1.242c0.438-0.24,0.992-0.07,1.236,0.374
					c1.135,2.104,2.231,4.271,3.252,6.446c0.214,0.456,0.021,1-0.437,1.214c-0.127,0.06-0.261,0.087-0.391,0.087
					C772.538,155.051,772.209,154.861,772.052,154.53z M762.907,138.256c-1.304-1.967-2.679-3.927-4.093-5.825
					c-0.296-0.401-0.213-0.973,0.189-1.28c0.405-0.296,0.98-0.212,1.278,0.191c1.432,1.922,2.825,3.909,4.148,5.909
					c0.28,0.422,0.164,0.987-0.259,1.262c-0.152,0.105-0.329,0.153-0.506,0.153C763.372,138.667,763.081,138.525,762.907,138.256z
					 M751.51,123.475c-1.563-1.758-3.205-3.497-4.877-5.173c-0.354-0.354-0.354-0.938,0.003-1.295
					c0.356-0.357,0.938-0.353,1.29,0.006c1.696,1.694,3.36,3.464,4.952,5.242c0.335,0.379,0.302,0.96-0.076,1.297
					c-0.174,0.153-0.391,0.229-0.608,0.229C751.947,123.782,751.693,123.675,751.51,123.475z M738.125,110.484
					c-1.816-1.521-3.689-3.009-5.573-4.42c-0.399-0.302-0.482-0.873-0.181-1.274c0.302-0.405,0.874-0.489,1.279-0.186
					c1.904,1.433,3.809,2.938,5.645,4.479c0.391,0.323,0.439,0.9,0.115,1.284c-0.183,0.221-0.44,0.332-0.703,0.332
					C738.5,110.7,738.296,110.625,738.125,110.484z M723.005,99.559c-2.006-1.243-4.069-2.445-6.142-3.569
					c-0.442-0.238-0.607-0.798-0.365-1.236c0.242-0.445,0.797-0.61,1.24-0.368c2.101,1.142,4.194,2.361,6.229,3.618
					c0.431,0.265,0.563,0.829,0.299,1.258c-0.177,0.28-0.477,0.433-0.78,0.433C723.324,99.694,723.159,99.65,723.005,99.559z
					 M706.476,90.932c-2.155-0.935-4.381-1.824-6.602-2.643c-0.475-0.176-0.717-0.701-0.541-1.175
					c0.176-0.472,0.697-0.713,1.171-0.537c2.255,0.829,4.508,1.728,6.7,2.674c0.464,0.203,0.673,0.74,0.475,1.202
					c-0.147,0.347-0.481,0.555-0.841,0.555C706.722,91.008,706.598,90.981,706.476,90.932z M607.335,88.598
					c-0.182-0.467,0.049-1,0.519-1.181c2.235-0.873,4.521-1.693,6.796-2.432c0.479-0.166,0.997,0.104,1.152,0.581
					s-0.104,0.994-0.586,1.153c-2.239,0.729-4.489,1.538-6.697,2.398c-0.106,0.039-0.22,0.062-0.329,0.062
					C607.825,89.18,607.478,88.961,607.335,88.598z M688.864,84.792c-2.284-0.614-4.612-1.17-6.919-1.651
					c-0.493-0.108-0.809-0.588-0.705-1.082c0.104-0.495,0.591-0.813,1.085-0.709c2.339,0.495,4.7,1.055,7.012,1.675
					c0.488,0.138,0.779,0.638,0.647,1.126c-0.109,0.403-0.479,0.675-0.881,0.675C689.023,84.826,688.944,84.814,688.864,84.792z
					 M625.258,82.942c-0.114-0.497,0.193-0.982,0.685-1.097c2.338-0.539,4.721-1.011,7.074-1.417
					c0.499-0.088,0.974,0.248,1.056,0.746c0.088,0.493-0.247,0.966-0.743,1.055c-2.325,0.4-4.67,0.867-6.978,1.394
					c-0.065,0.023-0.138,0.029-0.202,0.029C625.732,83.652,625.353,83.364,625.258,82.942z M670.547,81.273
					c-2.345-0.274-4.728-0.487-7.087-0.641c-0.505-0.029-0.887-0.469-0.853-0.968c0.031-0.506,0.478-0.878,0.969-0.857
					c2.391,0.154,4.81,0.375,7.184,0.654c0.501,0.055,0.856,0.512,0.797,1.017c-0.049,0.461-0.443,0.802-0.899,0.802
					C670.618,81.28,670.585,81.28,670.547,81.273z M643.812,79.95c-0.037-0.504,0.334-0.942,0.841-0.981
					c2.378-0.192,4.803-0.325,7.204-0.386c0.521-0.011,0.928,0.391,0.938,0.896c0.012,0.5-0.39,0.924-0.89,0.939
					c-2.368,0.055-4.762,0.181-7.109,0.368c-0.021,0.005-0.05,0.005-0.072,0.005C644.251,80.791,643.85,80.428,643.812,79.95z"/>
				<path fill="#91B3FA" d="M594.219,95.604c0.146,0,0.295-0.038,0.43-0.109c1.067-0.571,2.142-1.126,3.229-1.664
					c0.451-0.225,0.632-0.773,0.407-1.225c-0.227-0.45-0.771-0.638-1.227-0.412c-1.097,0.55-2.189,1.115-3.269,1.692
					c-0.448,0.234-0.613,0.784-0.377,1.229C593.579,95.429,593.893,95.604,594.219,95.604z"/>
			</g>
			<g>
				<path fill="#91B3FA" d="M530.803,173.1c0.394,0,0.757-0.259,0.872-0.654c0.348-1.164,0.707-2.316,1.089-3.459
					c0.152-0.482-0.109-0.999-0.589-1.153c-0.48-0.163-0.994,0.099-1.153,0.576c-0.378,1.164-0.748,2.34-1.098,3.515
					c-0.142,0.48,0.132,0.994,0.614,1.136C530.627,173.088,530.715,173.1,530.803,173.1z"/>
				<path fill="#91B3FA" d="M649.825,340.02l-0.855-0.031c-2.22-0.11-4.464-0.274-6.675-0.494c-0.503-0.049-0.87-0.5-0.821-1
					c0.051-0.498,0.497-0.868,0.998-0.818c2.183,0.215,4.396,0.373,6.585,0.484l0.853,0.037c0.503,0.021,0.895,0.45,0.872,0.949
					c-0.021,0.496-0.425,0.873-0.91,0.873C649.855,340.02,649.841,340.02,649.825,340.02z M661.144,339.104
					c-0.023-0.506,0.359-0.938,0.866-0.961c2.478-0.125,4.978-0.324,7.423-0.593c0.507-0.061,0.953,0.308,1.009,0.807
					c0.055,0.501-0.309,0.951-0.808,1.012c-2.483,0.268-5.019,0.472-7.531,0.598l-0.049,0.005
					C661.573,339.971,661.169,339.593,661.144,339.104z M630.156,337.721c-2.464-0.483-4.945-1.037-7.369-1.658
					c-0.486-0.125-0.786-0.621-0.659-1.11c0.124-0.487,0.624-0.789,1.112-0.657c2.388,0.609,4.831,1.157,7.264,1.631
					c0.493,0.098,0.817,0.576,0.723,1.07c-0.086,0.438-0.466,0.74-0.896,0.74C630.271,337.737,630.215,337.733,630.156,337.721z
					 M680.682,336.745c-0.104-0.49,0.214-0.974,0.71-1.072c2.42-0.5,4.857-1.076,7.248-1.713c0.486-0.132,0.991,0.154,1.117,0.643
					c0.133,0.489-0.159,0.988-0.646,1.12c-2.421,0.647-4.896,1.235-7.352,1.741c-0.062,0.01-0.123,0.016-0.183,0.016
					C681.149,337.479,680.771,337.183,680.682,336.745z M611.054,332.471c-2.365-0.852-4.729-1.779-7.033-2.762
					c-0.464-0.197-0.681-0.729-0.482-1.196c0.201-0.467,0.732-0.682,1.203-0.482c2.267,0.966,4.6,1.883,6.932,2.717
					c0.476,0.171,0.724,0.691,0.552,1.169c-0.134,0.375-0.487,0.604-0.861,0.604C611.258,332.52,611.157,332.505,611.054,332.471z
					 M699.63,331.457c-0.174-0.474,0.067-1,0.542-1.177c2.319-0.861,4.643-1.8,6.904-2.794c0.46-0.203,1,0.006,1.202,0.467
					c0.203,0.462-0.005,1.006-0.468,1.209c-2.295,1.004-4.649,1.959-7.003,2.831c-0.104,0.041-0.212,0.062-0.314,0.062
					C700.12,332.054,699.771,331.823,699.63,331.457z M592.974,324.373c-2.195-1.191-4.393-2.465-6.524-3.791
					c-0.427-0.261-0.56-0.826-0.295-1.255c0.267-0.428,0.829-0.56,1.26-0.295c2.102,1.305,4.267,2.563,6.432,3.736
					c0.443,0.238,0.605,0.792,0.371,1.237c-0.169,0.307-0.481,0.478-0.808,0.478C593.26,324.483,593.112,324.447,592.974,324.373z
					 M576.336,313.638c-1.997-1.515-3.977-3.108-5.883-4.733c-0.38-0.328-0.427-0.905-0.102-1.29
					c0.324-0.384,0.906-0.428,1.288-0.099c1.88,1.599,3.832,3.175,5.802,4.663c0.399,0.307,0.477,0.878,0.176,1.282
					c-0.182,0.238-0.456,0.363-0.73,0.363C576.695,313.825,576.501,313.759,576.336,313.638z M561.499,300.51
					c-1.751-1.801-3.467-3.675-5.103-5.563c-0.329-0.384-0.291-0.961,0.094-1.289c0.379-0.33,0.954-0.292,1.29,0.093
					c1.607,1.86,3.303,3.707,5.03,5.49c0.354,0.357,0.344,0.939-0.018,1.29c-0.18,0.171-0.408,0.258-0.639,0.258
					C561.919,300.79,561.679,300.697,561.499,300.51z M548.803,285.307c-1.457-2.041-2.874-4.15-4.214-6.276
					c-0.27-0.423-0.143-0.989,0.286-1.258c0.423-0.268,0.989-0.142,1.264,0.286c1.316,2.092,2.719,4.173,4.153,6.188
					c0.294,0.406,0.194,0.978-0.212,1.274c-0.161,0.115-0.346,0.164-0.533,0.164C549.263,285.685,548.983,285.553,548.803,285.307z
					 M538.536,268.358c-1.132-2.235-2.216-4.536-3.219-6.836c-0.204-0.463,0.008-1.006,0.471-1.209
					c0.463-0.197,1.001,0.016,1.204,0.473c0.989,2.272,2.061,4.547,3.173,6.748c0.231,0.449,0.051,0.999-0.4,1.225
					c-0.132,0.071-0.273,0.104-0.409,0.104C539.016,268.862,538.693,268.675,538.536,268.358z M530.952,250.051
					c-0.782-2.377-1.504-4.821-2.146-7.258c-0.129-0.489,0.159-0.989,0.648-1.115c0.488-0.127,0.987,0.159,1.12,0.647
					c0.631,2.405,1.344,4.81,2.113,7.15c0.158,0.481-0.104,0.997-0.582,1.157c-0.099,0.033-0.192,0.05-0.285,0.05
					C531.433,250.683,531.079,250.435,530.952,250.051z M526.236,230.795c-0.409-2.471-0.753-4.985-1.017-7.484
					c-0.056-0.504,0.309-0.954,0.813-1.008c0.506-0.052,0.951,0.312,1.005,0.817c0.265,2.459,0.6,4.94,0.998,7.373
					c0.085,0.499-0.251,0.972-0.75,1.055c-0.05,0.004-0.1,0.008-0.149,0.008C526.698,231.556,526.308,231.241,526.236,230.795z
					 M524.495,211.068c-0.006-0.544-0.008-1.082-0.008-1.619c0-1.967,0.046-3.966,0.134-5.938c0.021-0.505,0.441-0.9,0.954-0.872
					c0.504,0.021,0.895,0.449,0.873,0.954c-0.088,1.938-0.136,3.908-0.136,5.854c0,0.53,0.006,1.063,0.013,1.597
					c0.006,0.506-0.396,0.917-0.901,0.923h-0.016C524.913,211.968,524.506,211.561,524.495,211.068z M526.514,192.319
					c-0.501-0.068-0.851-0.529-0.781-1.028c0.346-2.489,0.767-4.997,1.25-7.452c0.098-0.493,0.581-0.818,1.075-0.719
					c0.493,0.1,0.813,0.576,0.718,1.07c-0.481,2.422-0.894,4.899-1.233,7.347c-0.062,0.462-0.45,0.791-0.902,0.791
					C526.597,192.328,526.553,192.328,526.514,192.319z"/>
				<path fill="#91B3FA" d="M718.43,323.775c0.148,0,0.303-0.04,0.441-0.115c1.074-0.593,2.135-1.208,3.187-1.835
					c0.436-0.258,0.577-0.817,0.32-1.252c-0.257-0.438-0.818-0.581-1.251-0.323c-1.041,0.62-2.088,1.224-3.143,1.812
					c-0.445,0.248-0.602,0.803-0.356,1.247C717.8,323.603,718.109,323.775,718.43,323.775z"/>
			</g>
			<g>
				<path fill="#91B3FA" d="M732.985,272.207c0.479-0.462,0.607-1.175,0.324-1.779l-8.025-17.187
					c4.796-7.456,8.436-15.725,10.663-24.564l18.022-5.888c0.629-0.207,1.063-0.789,1.073-1.459l0.374-22.753
					c0.009-0.665-0.402-1.264-1.028-1.488l-17.821-6.474c-1.934-8.911-5.3-17.296-9.847-24.9l8.589-16.922
					c0.303-0.595,0.191-1.307-0.271-1.785l-15.823-16.356c-0.461-0.478-1.182-0.61-1.782-0.329l-17.189,8.027
					c-7.45-4.793-15.723-8.434-24.563-10.658l-5.885-18.025c-0.21-0.632-0.791-1.065-1.456-1.075l-22.754-0.375
					c-0.668-0.01-1.269,0.402-1.491,1.028l-6.479,17.821c-8.908,1.934-17.295,5.305-24.897,9.847l-16.919-8.588
					c-0.593-0.303-1.309-0.192-1.789,0.269l-16.354,15.829c-0.481,0.459-0.609,1.175-0.328,1.779l8.024,17.191
					c-4.791,7.452-8.434,15.72-10.656,24.561l-18.025,5.889c-0.631,0.205-1.063,0.787-1.072,1.457l-0.375,22.754
					c-0.015,0.663,0.398,1.262,1.025,1.487l17.822,6.479c1.932,8.911,5.298,17.296,9.85,24.899l-8.59,16.917
					c-0.299,0.594-0.195,1.313,0.269,1.789l15.826,16.353c0.463,0.483,1.179,0.609,1.78,0.328l17.191-8.026
					c7.449,4.793,15.719,8.434,24.564,10.657l5.883,18.026c0.206,0.63,0.792,1.063,1.458,1.075l22.753,0.373
					c0.665,0.011,1.267-0.4,1.494-1.025l6.474-17.823c8.909-1.934,17.296-5.298,24.899-9.846l16.917,8.589
					c0.592,0.299,1.313,0.191,1.79-0.27L732.985,272.207z"/>
				<g>
					<path fill="#BDD0FB" d="M649.696,229.148L649.696,229.148c-11.488-3.103-18.31-14.968-15.211-26.459
						c3.104-11.486,14.978-18.313,26.459-15.209c11.489,3.102,18.311,14.972,15.21,26.46c-2.599,9.608-11.328,15.953-20.838,15.953
						C653.458,229.893,651.571,229.653,649.696,229.148z M637.13,203.403c-2.701,10.031,3.254,20.392,13.28,23.1l0,0
						c10.027,2.706,20.389-3.25,23.096-13.277c2.707-10.025-3.25-20.386-13.275-23.094c-1.637-0.444-3.282-0.659-4.905-0.659
						C647.021,189.472,639.398,195.018,637.13,203.403z"/>
				</g>
				<g>
					<path fill="#BDD0FB" d="M655.019,264.229L655.019,264.229c3.705,0,7.4-0.363,11.006-1.076l-0.535-2.691
						c-3.71,0.732-7.544,1.087-11.354,1.017c-2.709-0.045-5.384-0.293-8.012-0.726l-0.021-0.006h-0.018
						c-11.215-1.872-21.499-7.252-29.552-15.571c-9.734-10.064-15.064-23.246-15.064-37.217c0-0.298,0.003-0.598,0.011-0.899
						c0.479-29.221,24.405-52.66,53.521-52.66c0.299,0,0.596,0,0.893,0.005c29.224,0.483,52.673,24.41,52.666,53.528
						c0,0.297-0.006,0.593-0.011,0.89c-0.159,9.701-2.938,19.168-8.04,27.36l2.329,1.449c5.362-8.616,8.286-18.563,8.45-28.766
						c0.009-0.313,0.012-0.62,0.012-0.934c0.004-30.61-24.64-55.763-55.362-56.269c-31.039-0.493-56.693,24.318-57.201,55.353
						c-0.007,0.317-0.007,0.63-0.007,0.942c0,14.682,5.601,28.542,15.836,39.122c10.452,10.806,24.493,16.891,39.526,17.136
						C654.399,264.223,654.709,264.229,655.019,264.229z"/>
				</g>
			</g>
		</g>
		<path fill="#91B3FA" d="M562.396,137.003l9.835-8.115c0.288-0.234,0.396-0.626,0.264-0.978l-3.724-9.954
			c3.012-3.952,5.41-8.411,7.049-13.249l10.326-2.487c0.359-0.087,0.63-0.396,0.666-0.77l1.222-12.688
			c0.032-0.373-0.172-0.725-0.513-0.878l-9.663-4.409c-0.687-5.063-2.193-9.895-4.395-14.342l5.547-9.07
			c0.196-0.318,0.165-0.725-0.069-1.012l-8.113-9.838c-0.238-0.285-0.634-0.391-0.979-0.259l-9.96,3.718
			c-3.943-3.009-8.405-5.407-13.244-7.045L544.157,35.3c-0.088-0.363-0.396-0.631-0.764-0.665L530.7,33.417
			c-0.374-0.038-0.726,0.17-0.878,0.506l-4.41,9.668c-5.061,0.682-9.893,2.191-14.345,4.394L502,42.438
			c-0.315-0.197-0.725-0.17-1.01,0.071l-9.84,8.11c-0.286,0.235-0.39,0.63-0.262,0.977l3.721,9.96
			c-3.01,3.947-5.407,8.406-7.045,13.249l-10.326,2.482c-0.363,0.088-0.632,0.4-0.665,0.769L475.35,90.75
			c-0.036,0.367,0.168,0.721,0.508,0.873l9.67,4.409c0.684,5.062,2.189,9.899,4.393,14.347l-5.552,9.065
			c-0.19,0.318-0.161,0.726,0.072,1.015l8.114,9.834c0.235,0.286,0.632,0.396,0.978,0.264l9.96-3.723
			c3.949,3.009,8.406,5.415,13.248,7.046l2.487,10.327c0.086,0.361,0.395,0.632,0.765,0.67l12.69,1.219
			c0.372,0.033,0.729-0.17,0.879-0.512l4.406-9.663c5.063-0.686,9.9-2.189,14.349-4.395l9.066,5.548
			C561.7,137.266,562.106,137.241,562.396,137.003z"/>
		<g>
			<path fill="#BDD0FB" d="M527.421,101.71L527.421,101.71c-6.588-2.356-10.037-9.637-7.684-16.225
				c1.14-3.191,3.456-5.751,6.519-7.199c3.065-1.454,6.511-1.625,9.703-0.482c3.193,1.136,5.752,3.453,7.204,6.517
				c1.45,3.065,1.62,6.506,0.481,9.702c-1.853,5.188-6.75,8.427-11.964,8.427C530.264,102.45,528.827,102.209,527.421,101.71z
				 M527.878,100.418h0.005H527.878z M527.431,80.763c-2.403,1.137-4.217,3.141-5.109,5.646c-1.847,5.165,0.854,10.869,6.021,12.721
				c5.175,1.839,10.877-0.861,12.724-6.029c0.892-2.504,0.757-5.205-0.378-7.607c-1.142-2.401-3.147-4.217-5.65-5.109
				c-1.093-0.39-2.224-0.587-3.354-0.587C530.228,79.796,528.784,80.12,527.431,80.763z"/>
		</g>
		<g>
			<path fill="#91B3FA" d="M584.09,134.572c0.264,0,0.521-0.11,0.703-0.324c0.791-0.943,1.563-1.915,2.301-2.899
				c0.303-0.409,0.22-0.977-0.182-1.285c-0.406-0.301-0.979-0.22-1.279,0.188c-0.72,0.956-1.471,1.905-2.24,2.821
				c-0.322,0.385-0.273,0.962,0.11,1.292C583.678,134.505,583.885,134.572,584.09,134.572z"/>
			<path fill="#91B3FA" d="M592.068,121.811c-0.447-0.23-0.626-0.781-0.396-1.229c1.061-2.066,2.026-4.218,2.877-6.408
				c0.183-0.467,0.709-0.703,1.182-0.518c0.469,0.179,0.701,0.715,0.521,1.181c-0.872,2.245-1.866,4.459-2.952,6.577
				c-0.161,0.313-0.483,0.495-0.813,0.495C592.347,121.91,592.203,121.877,592.068,121.811z M598.485,104.319
				c-0.494-0.1-0.816-0.584-0.711-1.077c0.469-2.289,0.822-4.622,1.054-6.94c0.047-0.506,0.482-0.861,0.993-0.818
				c0.506,0.05,0.873,0.495,0.823,0.994c-0.235,2.384-0.6,4.783-1.08,7.133c-0.093,0.434-0.474,0.731-0.896,0.731
				C598.608,104.341,598.546,104.334,598.485,104.319z M598.97,84.903c-0.166-2.316-0.462-4.666-0.869-6.968
				c-0.087-0.495,0.242-0.972,0.739-1.06c0.503-0.088,0.969,0.247,1.06,0.74c0.421,2.362,0.723,4.772,0.894,7.155
				c0.038,0.506-0.34,0.94-0.862,0.978c0,0-0.021,0.006-0.043,0.006C599.409,85.754,599.01,85.386,598.97,84.903z M595.155,66.926
				c-0.791-2.196-1.703-4.375-2.718-6.474c-0.221-0.455-0.027-0.999,0.429-1.219c0.452-0.22,0.999-0.027,1.219,0.428
				c1.036,2.152,1.979,4.387,2.788,6.644c0.17,0.479-0.074,0.999-0.549,1.17c-0.104,0.038-0.208,0.055-0.311,0.055
				C595.636,67.53,595.29,67.3,595.155,66.926z M586.642,50.642c-1.348-1.901-2.813-3.751-4.354-5.503
				c-0.335-0.378-0.297-0.954,0.082-1.29c0.38-0.335,0.956-0.297,1.291,0.083c1.58,1.801,3.086,3.699,4.469,5.649
				c0.297,0.413,0.198,0.982-0.214,1.273c-0.158,0.116-0.347,0.171-0.527,0.171C587.105,51.026,586.819,50.893,586.642,50.642z
				 M574.068,37.255c-1.815-1.467-3.729-2.849-5.688-4.119c-0.422-0.268-0.542-0.839-0.268-1.262
				c0.273-0.424,0.841-0.544,1.264-0.27c2.009,1.303,3.971,2.724,5.838,4.228c0.395,0.319,0.453,0.891,0.143,1.282
				c-0.186,0.228-0.45,0.344-0.719,0.344C574.437,37.458,574.234,37.392,574.068,37.255z M558.323,27.784
				c-1.296-0.561-2.625-1.082-3.951-1.554c-0.877-0.313-1.753-0.604-2.631-0.884c-0.483-0.149-0.753-0.66-0.601-1.143
				c0.148-0.482,0.659-0.753,1.144-0.6c0.901,0.28,1.807,0.583,2.701,0.906c1.366,0.484,2.729,1.021,4.061,1.594
				c0.464,0.197,0.678,0.734,0.48,1.196c-0.152,0.346-0.489,0.555-0.845,0.555C558.565,27.855,558.442,27.833,558.323,27.784z
				 M540.607,22.881c-2.31-0.313-4.665-0.501-6.992-0.572c-0.505-0.016-0.903-0.434-0.89-0.938c0.017-0.506,0.433-0.907,0.938-0.892
				c2.396,0.071,4.814,0.27,7.189,0.586c0.497,0.067,0.85,0.529,0.783,1.029c-0.063,0.461-0.456,0.79-0.905,0.79
				C540.692,22.885,540.651,22.885,540.607,22.881z"/>
			<path fill="#91B3FA" d="M518.461,23.579c0.061,0,0.121,0,0.181-0.018c1.164-0.23,2.362-0.433,3.554-0.605
				c0.499-0.07,0.845-0.53,0.773-1.03c-0.07-0.5-0.539-0.847-1.039-0.78c-1.219,0.182-2.447,0.391-3.645,0.624
				c-0.495,0.102-0.818,0.579-0.72,1.072C517.654,23.282,518.036,23.579,518.461,23.579z"/>
		</g>
		<g>
			<path fill="#91B3FA" d="M473.739,54.37c0.309,0,0.604-0.154,0.779-0.428c0.638-1.027,1.309-2.038,1.987-3.006
				c0.292-0.416,0.192-0.981-0.22-1.272s-0.983-0.192-1.274,0.22c-0.699,0.999-1.388,2.037-2.047,3.086
				c-0.267,0.428-0.137,0.993,0.29,1.263C473.41,54.326,473.579,54.37,473.739,54.37z"/>
			<path fill="#91B3FA" d="M526.021,158.797c-0.5-0.04-0.877-0.485-0.836-0.984c0.042-0.505,0.501-0.879,0.986-0.839
				c2.285,0.192,4.613,0.263,6.905,0.214c0.505-0.012,0.923,0.39,0.933,0.894c0.01,0.503-0.393,0.923-0.895,0.935
				c-0.479,0.012-0.957,0.012-1.433,0.012C529.798,159.028,527.893,158.95,526.021,158.797z M514.664,156.891
				c-2.1-0.536-4.214-1.181-6.272-1.916l-0.5-0.182c-0.475-0.171-0.721-0.697-0.549-1.17c0.172-0.472,0.698-0.72,1.17-0.549
				l0.49,0.181c2.01,0.715,4.066,1.342,6.112,1.868c0.49,0.121,0.784,0.619,0.659,1.108c-0.104,0.412-0.476,0.687-0.882,0.687
				C514.815,156.918,514.738,156.914,514.664,156.891z M497.44,149.962c-2.056-1.164-4.066-2.444-5.981-3.812
				c-0.413-0.291-0.51-0.86-0.215-1.273c0.291-0.412,0.861-0.506,1.272-0.214c1.867,1.329,3.826,2.58,5.823,3.71
				c0.439,0.249,0.595,0.803,0.343,1.243c-0.167,0.298-0.478,0.466-0.796,0.466C497.74,150.083,497.582,150.044,497.44,149.962z
				 M482.667,138.707c-1.662-1.669-3.255-3.438-4.738-5.271c-0.317-0.39-0.257-0.966,0.132-1.285
				c0.395-0.318,0.971-0.258,1.286,0.138c1.446,1.778,2.997,3.508,4.616,5.129c0.356,0.355,0.356,0.938,0,1.294
				c-0.18,0.177-0.414,0.265-0.647,0.265C483.081,138.975,482.844,138.887,482.667,138.707z M471.439,123.924
				c-1.163-2.047-2.229-4.183-3.181-6.341c-0.203-0.461,0.013-1,0.474-1.203c0.461-0.202,0.999,0.006,1.201,0.472
				c0.924,2.099,1.967,4.173,3.099,6.173c0.246,0.439,0.092,0.993-0.349,1.247c-0.142,0.076-0.296,0.115-0.448,0.115
				C471.917,124.387,471.608,124.222,471.439,123.924z M464.514,106.693c-0.575-2.288-1.044-4.627-1.388-6.954
				c-0.067-0.499,0.271-0.968,0.772-1.038c0.511-0.081,0.962,0.269,1.036,0.769c0.337,2.27,0.788,4.548,1.353,6.776
				c0.12,0.488-0.174,0.987-0.665,1.108c-0.072,0.021-0.147,0.027-0.223,0.027C464.994,107.381,464.62,107.106,464.514,106.693z
				 M463.312,89.174c-0.509-0.012-0.904-0.434-0.897-0.934c0.053-2.355,0.228-4.74,0.521-7.077c0.063-0.5,0.509-0.852,1.021-0.791
				c0.501,0.061,0.854,0.517,0.793,1.019c-0.284,2.276-0.457,4.594-0.51,6.889c-0.006,0.5-0.418,0.895-0.912,0.895L463.312,89.174
				L463.312,89.174z M465.931,71.033c-0.483-0.142-0.76-0.653-0.611-1.135c0.345-1.154,0.729-2.313,1.132-3.455
				c0.393-1.091,0.809-2.174,1.245-3.229c0.194-0.466,0.727-0.686,1.193-0.493c0.468,0.192,0.687,0.725,0.494,1.19
				c-0.423,1.026-0.829,2.087-1.208,3.146c-0.398,1.109-0.769,2.245-1.105,3.367c-0.119,0.394-0.484,0.646-0.876,0.646
				C466.107,71.071,466.018,71.061,465.931,71.033z"/>
			<path fill="#91B3FA" d="M544.433,157.825c0.06,0,0.115-0.006,0.175-0.017c1.202-0.23,2.415-0.494,3.612-0.791
				c0.493-0.12,0.792-0.615,0.669-1.103c-0.118-0.494-0.615-0.797-1.103-0.67c-1.172,0.284-2.352,0.543-3.523,0.768
				c-0.498,0.093-0.82,0.571-0.728,1.07C543.624,157.517,544.003,157.825,544.433,157.825z"/>
		</g>
		<g>
			<path fill="#BDD0FB" d="M531.573,121.675c0.479,0,0.955-0.013,1.434-0.034c0.773-0.033,1.533-0.1,2.298-0.182l-0.316-2.729
				c-2.069,0.241-4.172,0.264-6.258,0.065l0,0c-0.072-0.012-0.148-0.017-0.221-0.021c-7.273-0.754-13.876-4.108-18.751-9.502
				c-0.308-0.333-0.604-0.684-0.899-1.035c-4.386-5.315-6.723-11.854-6.723-18.651c0-0.951,0.045-1.905,0.139-2.867
				c1.55-16.132,15.944-28.002,32.074-26.448c15.185,1.455,26.588,14.287,26.588,29.242c0,0.935-0.044,1.879-0.138,2.828
				c-0.51,5.309-2.442,10.367-5.591,14.627l2.205,1.626c3.439-4.656,5.558-10.188,6.114-15.989c0.1-1.038,0.147-2.069,0.147-3.092
				c0.005-16.35-12.464-30.38-29.063-31.971c-17.623-1.707-33.369,11.277-35.066,28.918c-0.099,1.045-0.147,2.087-0.147,3.127
				c0,7.437,2.554,14.581,7.347,20.39c5.463,6.628,13.178,10.726,21.721,11.548C529.497,121.625,530.536,121.675,531.573,121.675z"
				/>
		</g>
	</g>
</g>
</svg>
