<?xml version="1.0" encoding="utf-8"?>
<!-- Generator: Adobe Illustrator 14.0.0, SVG Export Plug-In . SVG Version: 6.00 Build 43363)  -->
<!DOCTYPE svg PUBLIC "-//W3C//DTD SVG 1.1//EN" "http://www.w3.org/Graphics/SVG/1.1/DTD/svg11.dtd">
<svg version="1.1" id="Layer_1" xmlns="http://www.w3.org/2000/svg" xmlns:xlink="http://www.w3.org/1999/xlink" x="0px" y="0px"
	 width="97.409px" height="98.255px" viewBox="0 0 97.409 98.255" enable-background="new 0 0 97.409 98.255" xml:space="preserve">
<g>
	<path fill-rule="evenodd" clip-rule="evenodd" fill="#92278F" d="M24.323,7.234c6.236,0,12.472,0,18.706,0
		c0.406-1.077-0.199-3.169,0.595-3.859c2.877-0.413,8.053-0.658,10.69,0.149c0.55,0.736,0.198,2.375,0.297,3.563
		c5.939,0.345,12.522,0.049,18.709,0.147c1.296-2.738,3.512-4.929,7.275-4.009c3.123,0.764,4.962,4.563,3.713,7.722
		c-1.833,4.634-9.757,4.123-10.841-0.892c-4.107,0-8.215,0-12.322,0c6.078,3.918,11.028,8.966,12.917,17.075
		c1.555,0.081,3.534-0.267,4.454,0.446c0.794,2.567,0.566,7.59,0.148,10.395c-2.51,0.888-8.706,1.089-10.986-0.15
		c-0.245-2.982-0.245-6.965,0-9.947c0.592-0.745,1.854-0.819,3.266-0.743C68.5,18.737,63.098,13.298,54.61,10.947
		c-0.339,0.898,0.078,2.552-0.593,3.117c-3.141,0.158-7.644,0.429-10.542-0.147c-0.655-0.484-0.4-1.876-0.447-2.97
		c-8.145,2.05-13.868,7.81-16.332,16.036c0.975,0.313,2.605-0.03,3.118,0.742c0.576,2.751,0.307,7.104,0.148,10.096
		c-2.235,1.205-8.388,1.073-10.837,0.15c-0.417-2.822-0.642-7.809,0.146-10.395c0.853-0.682,2.685-0.383,4.158-0.446
		c2.311-7.686,6.674-13.319,13.064-16.926c-3.762-0.347-8.166-0.05-12.173-0.149c-0.767,0.968-0.879,1.944-1.634,2.672
		c-5.473,5.28-13.21-3.277-8.019-8.165C17.699,1.71,23.423,3.163,24.323,7.234z"/>
	<path fill-rule="evenodd" clip-rule="evenodd" fill="#92278F" d="M22.39,21.637c-0.225,1.06-0.696,1.877-1.039,2.822
		c-3.683,0.177-8.088-0.369-11.284,0.295c-0.803,3.664-0.444,7.991-0.444,12.324c0,12.365,0,25.401,0,37.865
		c25.784,0.346,52.214,0.048,78.249,0.147c0.149-16.334,0.443-34.1-0.148-50.187c-3.025-0.985-7.831-0.188-11.582-0.444
		c-0.253-1.034-0.751-1.823-1.039-2.822c2.314,0,4.504,0,6.682,0c3.896,0,7.551-0.568,8.76,2.377
		c1.113,2.706,0.298,9.675,0.298,13.214c0,12.962,0.237,28.828-0.298,40.239c-2.988,0.806-6.474,0.445-10.097,0.445
		c-23.987,0-49.507,0.245-73.2-0.297c-0.791-1.875-0.445-4.137-0.445-6.384c0-12.902,0-26.872,0-40.24
		c0-4.659-0.554-8.666,3.266-9.354C14.27,20.879,17.776,22.192,22.39,21.637z"/>
	<path fill-rule="evenodd" clip-rule="evenodd" fill="#92278F" d="M47.187,22.676c0.347,4.504,0.051,9.652,0.148,14.402
		c-1.14,0.989-2.387,1.392-2.969,2.673c-1.518,3.343,0.727,6.622,3.264,7.128c6.427,1.277,8.185-7.793,2.674-9.651
		c0-4.753,0-9.503,0-14.254c0.575-0.208,0.697,0.618,0.892,0.891c3.985,5.643,8.057,11.636,12.175,17.669
		c0.667,0.977,1.598,2.257,1.634,2.971c0.08,1.551-1.4,3.764-2.079,5.345c-0.782,1.821-1.411,3.481-2.228,5.048
		c-7.919,0-15.837,0-23.755,0c-0.621-1.783-1.417-3.362-2.229-5.196c-0.672-1.523-2.104-3.723-2.078-5.197
		c0.025-1.449,2.361-4.108,3.414-5.644C39.704,33.541,44.064,27.426,47.187,22.676z"/>
	<path fill-rule="evenodd" clip-rule="evenodd" fill="#92278F" d="M48.227,40.049c1.774-0.484,2.636,0.516,2.674,1.781
		c0.076,2.629-4.077,2.926-4.158,0.149C46.712,40.954,47.197,40.33,48.227,40.049z"/>
	<path fill-rule="evenodd" clip-rule="evenodd" fill="#92278F" d="M61.737,58.164c0.414,2.214,0.646,6.634-0.147,8.612
		c-7.778,0.494-17.612,0.494-25.389,0c-0.42-0.633-1.129-8.16,0.147-8.762c2.248-1.056,9.761-0.295,13.214-0.295
		C54.099,57.72,58.573,57.381,61.737,58.164z"/>
	<path fill-rule="evenodd" clip-rule="evenodd" fill="#92278F" d="M94.552,81.179c0.934,7.008-3.794,12.587-9.8,13.809
		c-2.433,0.494-5.711,0.148-8.907,0.148c-17.538,0-36.481,0-54.197,0c-3.118,0-6.279,0.372-8.76-0.148
		c-4.371-0.918-8.358-4.675-9.65-9.057c-0.638-2.156-0.955-4.775,0.891-5.197c2.766-0.633,8.324,0,11.432,0
		c22.784,0,45.43,0,68.152,0C87.367,80.733,91.035,80.376,94.552,81.179z M44.813,89.048c2.037,0.484,5.976,0.484,8.016,0
		c0.428-0.548,0.324-1.496,0-2.078C50.719,86.423,43.123,85.321,44.813,89.048z"/>
</g>
</svg>
