<?xml version="1.0" encoding="utf-8"?>
<!-- Generator: Adobe Illustrator 14.0.0, SVG Export Plug-In . SVG Version: 6.00 Build 43363)  -->
<!DOCTYPE svg PUBLIC "-//W3C//DTD SVG 1.1//EN" "http://www.w3.org/Graphics/SVG/1.1/DTD/svg11.dtd">
<svg version="1.1" id="Layer_1" xmlns="http://www.w3.org/2000/svg" xmlns:xlink="http://www.w3.org/1999/xlink" x="0px" y="0px"
	 width="141.733px" height="168.412px" viewBox="0 0 141.733 168.412" enable-background="new 0 0 141.733 168.412"
	 xml:space="preserve">
<g>
	<path fill="#E7E7E7" d="M73.003,23.229v66.078c3.719,0.951,6.471,4.315,6.471,8.33c0,4.754-3.854,8.607-8.608,8.607
		c-4.754,0-8.607-3.854-8.607-8.607c0-4.015,2.754-7.379,6.473-8.33V23.229h-2.646l-38.416,77.278l14.41,28.31h18.745h7.907h4.272
		h12.305h14.348l14.408-28.31L75.649,23.229H73.003z"/>
	<path fill="#E7E7E7" d="M103.894,133.024H37.839c-1.197,0-2.168,0.972-2.168,2.17v11.92c0,1.198,0.971,2.169,2.168,2.169h66.055
		c1.197,0,2.168-0.971,2.168-2.169v-11.92C106.062,133.996,105.091,133.024,103.894,133.024z"/>
	<path fill="#E7E7E7" d="M41.409,166.243c0,1.197,0.971,2.169,2.169,2.169h54.578c1.197,0,2.168-0.972,2.168-2.169v-13.134H41.409
		V166.243z"/>
	<path fill="#E7E7E7" d="M139.124,68.619h-4.287c-0.977-27.488-19.35-50.614-44.43-58.672h34.639
		c0.721,3.916,4.145,6.886,8.27,6.886c4.648,0,8.418-3.768,8.418-8.416S137.964,0,133.315,0c-4.125,0-7.549,2.97-8.27,6.887H78.843
		V2.608c0-1.197-0.971-2.169-2.168-2.169H65.058c-1.198,0-2.169,0.972-2.169,2.169v4.278H16.687C15.967,2.97,12.542,0,8.417,0
		C3.768,0,0,3.769,0,8.417s3.768,8.416,8.417,8.416c4.125,0,7.55-2.97,8.271-6.886h34.638C26.245,18.005,7.872,41.131,6.896,68.619
		H2.608c-1.198,0-2.168,0.972-2.168,2.17v11.615c0,1.198,0.971,2.169,2.168,2.169h11.617c1.198,0,2.169-0.971,2.169-2.169V70.789
		c0-1.198-0.971-2.17-2.169-2.17H9.957c1.113-29.875,23.816-54.31,52.932-58.134v3.739c0,1.197,0.971,2.169,2.169,2.169h11.617
		c1.197,0,2.168-0.972,2.168-2.169v-3.739c29.117,3.824,51.82,28.259,52.934,58.134h-4.268c-1.199,0-2.17,0.972-2.17,2.17v11.615
		c0,1.198,0.971,2.169,2.17,2.169h11.615c1.199,0,2.17-0.971,2.17-2.169V70.789C141.294,69.591,140.323,68.619,139.124,68.619z"/>
</g>
</svg>
