<?xml version="1.0" encoding="utf-8"?>
<!-- Generator: Adobe Illustrator 14.0.0, SVG Export Plug-In . SVG Version: 6.00 Build 43363)  -->
<!DOCTYPE svg PUBLIC "-//W3C//DTD SVG 1.1//EN" "http://www.w3.org/Graphics/SVG/1.1/DTD/svg11.dtd">
<svg version="1.1" id="Layer_1" xmlns="http://www.w3.org/2000/svg" xmlns:xlink="http://www.w3.org/1999/xlink" x="0px" y="0px"
	 width="566.929px" height="510.236px" viewBox="0 0 566.929 510.236" enable-background="new 0 0 566.929 510.236"
	 xml:space="preserve">
<g>
	
		<line fill="none" stroke="#243E8E" stroke-width="1.8107" stroke-dasharray="2.2634,3.3951" x1="217.843" y1="108.047" x2="439.717" y2="108.047"/>
	
		<line fill="none" stroke="#243E8E" stroke-width="1.529" stroke-dasharray="1.9113,2.8669" x1="449.661" y1="396.507" x2="449.661" y2="108.047"/>
	
		<line fill="none" stroke="#243E8E" stroke-width="1.529" stroke-dasharray="1.9113,2.8669" x1="367.694" y1="380.596" x2="367.694" y2="108.047"/>
	
		<line fill="none" stroke="#243E8E" stroke-width="1.8381" stroke-dasharray="2.2976,3.4464" x1="285.728" y1="452.803" x2="285.728" y2="35.932"/>
	
		<line fill="none" stroke="#243E8E" stroke-width="1.529" stroke-dasharray="1.9113,2.8669" x1="203.762" y1="396.507" x2="203.762" y2="108.047"/>
	
		<line fill="none" stroke="#243E8E" stroke-width="1.7221" stroke-dasharray="2.1526,3.2288" x1="121.795" y1="458.419" x2="121.795" y2="121.234"/>
	
		<line fill="none" stroke="#243E8E" stroke-width="1.8107" stroke-dasharray="2.2634,3.3951" x1="64.878" y1="180.162" x2="524.953" y2="180.162"/>
	
		<line fill="none" stroke="#243E8E" stroke-width="1.8107" stroke-dasharray="2.2634,3.3951" x1="127.079" y1="252.277" x2="531.628" y2="252.277"/>
	
		<line fill="none" stroke="#243E8E" stroke-width="1.8107" stroke-dasharray="2.2634,3.3951" x1="55.056" y1="324.392" x2="519.694" y2="324.392"/>
	
		<line fill="none" stroke="#243E8E" stroke-width="1.8107" stroke-dasharray="2.2634,3.3951" x1="387.583" y1="396.507" x2="436.596" y2="396.507"/>
	
		<line fill="none" stroke="#243E8E" stroke-width="1.8107" stroke-dasharray="2.2634,3.3951" x1="222.813" y1="396.507" x2="271.826" y2="396.507"/>
	
		<line fill="none" stroke="#243E8E" stroke-width="1.8107" stroke-dasharray="2.2634,3.3951" x1="55.056" y1="396.507" x2="104.069" y2="396.507"/>
	
		<line fill="none" stroke="#243E8E" stroke-width="1.8107" stroke-dasharray="2.2634,3.3951" x1="135.695" y1="396.507" x2="184.708" y2="396.507"/>
	
		<line fill="none" stroke="#243E8E" stroke-width="1.8107" stroke-dasharray="2.2634,3.3951" x1="531.628" y1="310.471" x2="531.628" y2="175.044"/>
</g>
<g>
	<circle fill="#4CC2C4" cx="449.661" cy="252.278" r="10.776"/>
	<path fill="#FFFFFF" d="M453.947,246.388c1.875,1.339,3.096,3.529,3.096,6.009c0,4.072-3.299,7.373-7.367,7.381
		c-4.063,0.009-7.39-3.304-7.396-7.369c-0.002-2.479,1.218-4.676,3.09-6.018c0.349-0.247,0.833-0.143,1.042,0.229l0.47,0.836
		c0.176,0.313,0.093,0.708-0.196,0.923c-1.235,0.917-2.024,2.369-2.024,4.015c-0.002,2.747,2.218,5.003,5.001,5.003
		c2.727,0,5.018-2.208,5-5.033c-0.009-1.542-0.735-3.029-2.026-3.988c-0.289-0.214-0.369-0.61-0.193-0.92l0.47-0.836
		C453.12,246.25,453.602,246.141,453.947,246.388L453.947,246.388z M450.852,252.634v-7.143c0-0.396-0.318-0.714-0.714-0.714h-0.953
		c-0.396,0-0.714,0.318-0.714,0.714v7.143c0,0.396,0.318,0.715,0.714,0.715h0.953C450.533,253.349,450.852,253.031,450.852,252.634z
		"/>
</g>
<g>
	<circle fill="#4CC2C4" cx="285.728" cy="324.392" r="10.776"/>
	<path fill="#FFFFFF" d="M290.014,318.502c1.874,1.339,3.096,3.529,3.096,6.009c0,4.071-3.299,7.372-7.367,7.382
		c-4.063,0.009-7.39-3.305-7.396-7.369c-0.002-2.479,1.218-4.677,3.09-6.019c0.348-0.247,0.833-0.143,1.042,0.229l0.47,0.836
		c0.176,0.313,0.092,0.708-0.196,0.923c-1.235,0.917-2.024,2.369-2.024,4.015c-0.003,2.747,2.218,5.003,5,5.003
		c2.727,0,5.018-2.208,5-5.033c-0.009-1.541-0.735-3.028-2.027-3.987c-0.288-0.215-0.368-0.61-0.192-0.92l0.47-0.836
		C289.187,318.366,289.668,318.255,290.014,318.502L290.014,318.502z M286.918,324.75v-7.143c0-0.396-0.318-0.715-0.714-0.715
		h-0.953c-0.396,0-0.714,0.318-0.714,0.715v7.143c0,0.396,0.318,0.715,0.714,0.715h0.953
		C286.6,325.464,286.918,325.146,286.918,324.75z"/>
</g>
<g>
	<circle fill="#4CC2C4" cx="203.761" cy="108.047" r="10.776"/>
	<path fill="#FFFFFF" d="M208.047,102.157c1.875,1.339,3.096,3.529,3.096,6.009c0,4.071-3.298,7.372-7.367,7.381
		c-4.063,0.009-7.39-3.304-7.396-7.369c-0.002-2.479,1.218-4.676,3.09-6.018c0.348-0.247,0.833-0.143,1.042,0.229l0.47,0.836
		c0.176,0.313,0.092,0.708-0.196,0.923c-1.235,0.917-2.024,2.369-2.024,4.015c-0.003,2.747,2.218,5.003,5,5.003
		c2.727,0,5.018-2.208,5-5.033c-0.009-1.542-0.735-3.029-2.027-3.988c-0.289-0.214-0.369-0.61-0.193-0.92l0.47-0.836
		C207.22,102.02,207.702,101.91,208.047,102.157L208.047,102.157z M204.952,108.404v-7.143c0-0.396-0.318-0.714-0.714-0.714h-0.953
		c-0.396,0-0.714,0.318-0.714,0.714v7.143c0,0.396,0.318,0.715,0.714,0.715h0.953C204.634,109.119,204.952,108.8,204.952,108.404z"
		/>
</g>
<g>
	<circle fill="#4CC2C4" cx="44.99" cy="396.507" r="10.776"/>
	<path fill="#FFFFFF" d="M49.275,390.618c1.875,1.339,3.096,3.529,3.096,6.009c0,4.072-3.298,7.373-7.367,7.382
		c-4.063,0.009-7.39-3.304-7.396-7.369c-0.002-2.479,1.218-4.677,3.089-6.019c0.349-0.247,0.833-0.143,1.042,0.229l0.47,0.836
		c0.176,0.313,0.092,0.709-0.196,0.923c-1.235,0.917-2.024,2.369-2.024,4.015c-0.002,2.747,2.218,5.004,5,5.004
		c2.727,0,5.018-2.209,5-5.034c-0.009-1.541-0.735-3.028-2.026-3.987c-0.289-0.215-0.369-0.61-0.193-0.92l0.47-0.836
		C48.448,390.481,48.93,390.371,49.275,390.618L49.275,390.618z M46.18,396.865v-7.143c0-0.396-0.318-0.715-0.714-0.715h-0.953
		c-0.396,0-0.714,0.318-0.714,0.715v7.143c0,0.396,0.318,0.715,0.714,0.715h0.953C45.861,397.58,46.18,397.261,46.18,396.865z"/>
</g>
<g>
	<circle fill="#4CC2C4" cx="203.76" cy="252.278" r="10.776"/>
	<path fill="#FFFFFF" d="M208.046,246.388c1.875,1.339,3.096,3.529,3.096,6.009c0,4.072-3.298,7.373-7.367,7.381
		c-4.063,0.009-7.39-3.304-7.396-7.369c-0.002-2.479,1.218-4.676,3.089-6.018c0.349-0.247,0.833-0.143,1.042,0.229l0.47,0.836
		c0.176,0.313,0.092,0.708-0.196,0.923c-1.235,0.917-2.024,2.369-2.024,4.015c-0.002,2.747,2.218,5.003,5,5.003
		c2.727,0,5.018-2.208,5-5.033c-0.009-1.542-0.735-3.029-2.027-3.988c-0.289-0.214-0.369-0.61-0.193-0.92l0.47-0.836
		C207.219,246.25,207.701,246.141,208.046,246.388L208.046,246.388z M204.951,252.634v-7.143c0-0.396-0.318-0.714-0.714-0.714
		h-0.953c-0.396,0-0.714,0.318-0.714,0.714v7.143c0,0.396,0.318,0.715,0.714,0.715h0.953
		C204.633,253.349,204.951,253.031,204.951,252.634z"/>
</g>
<path fill="#4CC2C4" d="M466.132,389.049c0.513,0,0.933-0.42,0.933-0.933v-3.107c0-0.513-0.42-0.933-0.933-0.933h-1.554v-3.729
	c0-2.06-1.67-3.729-3.729-3.729h-24.861c-2.059,0-3.729,1.67-3.729,3.729v32.319c0,2.06,1.671,3.729,3.729,3.729h24.861
	c2.06,0,3.729-1.67,3.729-3.729v-3.729h1.554c0.513,0,0.933-0.419,0.933-0.932v-3.107c0-0.513-0.42-0.933-0.933-0.933h-1.554v-4.973
	h1.554c0.513,0,0.933-0.419,0.933-0.932v-3.108c0-0.513-0.42-0.932-0.933-0.932h-1.554v-4.973H466.132z M448.418,386.563
	c2.742,0,4.973,2.229,4.973,4.973c0,2.742-2.23,4.972-4.973,4.972s-4.973-2.229-4.973-4.972
	C443.445,388.792,445.676,386.563,448.418,386.563z M457.119,404.96c0,0.823-0.776,1.492-1.74,1.492h-13.922
	c-0.964,0-1.74-0.669-1.74-1.492v-1.491c0-2.471,2.338-4.476,5.221-4.476h0.389c0.955,0.396,1.996,0.622,3.092,0.622
	s2.145-0.226,3.092-0.622h0.389c2.883,0,5.221,2.005,5.221,4.476V404.96z"/>
<path fill="#4CC2C4" d="M139.865,98.937c-0.433-1.633-1.711-2.919-3.334-3.356c-2.941-0.793-14.735-0.793-14.735-0.793
	s-11.794,0-14.735,0.793c-1.623,0.437-2.901,1.723-3.335,3.356c-0.788,2.96-0.788,9.137-0.788,9.137s0,6.177,0.788,9.137
	c0.434,1.633,1.712,2.866,3.335,3.303c2.941,0.793,14.735,0.793,14.735,0.793s11.794,0,14.735-0.793
	c1.623-0.437,2.901-1.669,3.334-3.303c0.789-2.96,0.789-9.137,0.789-9.137S140.653,101.897,139.865,98.937z M117.938,113.682
	v-11.215l9.857,5.608L117.938,113.682z"/>
<path fill="#4CC2C4" d="M289.056,22.672h-19.917c-1.823,0-3.301,1.478-3.301,3.301v19.917c0,1.823,1.478,3.301,3.301,3.301h19.917
	c1.823,0,3.302-1.478,3.302-3.301V25.974C292.357,24.15,290.879,22.672,289.056,22.672L289.056,22.672z M302.136,25.276
	l-7.568,5.221v10.87l7.568,5.214c1.464,1.008,3.48-0.021,3.48-1.782V27.058C305.616,25.304,303.606,24.268,302.136,25.276z"/>
<path fill="#4CC2C4" d="M517.705,322.404c2.194,0,3.978-1.784,3.978-3.979c0-2.193-1.783-3.978-3.978-3.978
	c-2.193,0-3.978,1.784-3.978,3.978C513.728,320.62,515.512,322.404,517.705,322.404z M545.55,322.404
	c2.194,0,3.978-1.784,3.978-3.979c0-2.193-1.783-3.978-3.978-3.978c-2.193,0-3.978,1.784-3.978,3.978
	C541.572,320.62,543.356,322.404,545.55,322.404z M547.539,324.392h-3.978c-1.095,0-2.083,0.441-2.804,1.156
	c2.505,1.374,4.282,3.854,4.668,6.8h4.102c1.101,0,1.989-0.889,1.989-1.988v-1.989C551.517,326.176,549.733,324.392,547.539,324.392
	z M531.628,324.392c3.847,0,6.961-3.113,6.961-6.961c0-3.847-3.114-6.961-6.961-6.961c-3.848,0-6.962,3.114-6.962,6.961
	C524.666,321.279,527.78,324.392,531.628,324.392z M536.401,326.381h-0.516c-1.293,0.622-2.729,0.995-4.258,0.995
	s-2.959-0.373-4.258-0.995h-0.516c-3.953,0-7.16,3.207-7.16,7.16v1.79c0,1.646,1.336,2.983,2.983,2.983h17.9
	c1.646,0,2.983-1.337,2.983-2.983v-1.79C543.562,329.588,540.354,326.381,536.401,326.381z M522.497,325.548
	c-0.721-0.715-1.709-1.156-2.803-1.156h-3.978c-2.194,0-3.979,1.784-3.979,3.979v1.989c0,1.1,0.889,1.988,1.989,1.988h4.096
	C518.215,329.402,519.992,326.922,522.497,325.548L522.497,325.548z"/>
<path fill="#4CC2C4" d="M299.401,452.803h-27.348c-2.059,0-3.729,1.67-3.729,3.729v27.348c0,2.06,1.67,3.729,3.729,3.729h27.348
	c2.059,0,3.729-1.67,3.729-3.729v-27.348C303.131,454.473,301.46,452.803,299.401,452.803z M295.603,465.14
	c0.016,0.218,0.016,0.443,0.016,0.66c0,6.736-5.128,14.498-14.498,14.498c-2.89,0-5.571-0.84-7.824-2.285
	c0.412,0.048,0.808,0.063,1.228,0.063c2.385,0,4.576-0.808,6.324-2.176c-2.237-0.046-4.118-1.515-4.762-3.534
	c0.785,0.116,1.492,0.116,2.3-0.094c-2.331-0.474-4.079-2.524-4.079-5.003v-0.063c0.676,0.381,1.468,0.614,2.3,0.646
	c-1.419-0.944-2.271-2.537-2.269-4.242c0-0.948,0.249-1.818,0.691-2.572c2.51,3.093,6.277,5.112,10.504,5.33
	c-0.722-3.457,1.865-6.262,4.973-6.262c1.469,0,2.789,0.613,3.722,1.607c1.149-0.217,2.253-0.644,3.231-1.228
	c-0.381,1.182-1.181,2.176-2.237,2.805c1.025-0.108,2.021-0.396,2.937-0.792C297.467,463.517,296.597,464.417,295.603,465.14z"/>
<path fill="#4CC2C4" d="M384.6,380.596h-33.812c-1.647,0-2.983,1.336-2.983,2.983v19.89c0,1.647,1.336,2.983,2.983,2.983h14.917
	v1.988h-10.938c-0.55,0-0.995,0.445-0.995,0.995v1.988c0,0.55,0.445,0.995,0.995,0.995h25.855c0.55,0,0.994-0.445,0.994-0.995
	v-1.988c0-0.55-0.444-0.995-0.994-0.995h-10.939v-1.988H384.6c1.648,0,2.983-1.336,2.983-2.983v-19.89
	C387.583,381.932,386.248,380.596,384.6,380.596z M383.605,402.475h-31.822v-17.9h31.822V402.475z"/>
<path fill="#4CC2C4" d="M109.984,321.907h-6.215c-1.03,0-1.865,0.835-1.865,1.864v18.646c0,1.029,0.835,1.864,1.865,1.864h6.215
	c1.03,0,1.865-0.835,1.865-1.864v-18.646C111.849,322.742,111.014,321.907,109.984,321.907z M106.877,341.174
	c-1.03,0-1.865-0.835-1.865-1.864c0-1.03,0.834-1.865,1.865-1.865c1.03,0,1.864,0.835,1.864,1.865
	C108.741,340.339,107.907,341.174,106.877,341.174z M131.738,310.832c0,3.296-2.018,5.144-2.585,7.346h7.903
	c2.595,0,4.615,2.155,4.627,4.514c0.006,1.394-0.587,2.894-1.511,3.822l-0.008,0.009c0.764,1.813,0.64,4.354-0.723,6.174
	c0.674,2.012-0.005,4.483-1.273,5.809c0.334,1.367,0.174,2.53-0.478,3.467c-1.586,2.278-5.516,2.311-8.839,2.311h-0.221
	c-3.752-0.001-6.822-1.367-9.289-2.465c-1.24-0.552-2.861-1.234-4.091-1.257c-0.508-0.01-0.916-0.424-0.916-0.933V323.02
	c0-0.249,0.1-0.487,0.276-0.662c3.078-3.041,4.401-6.261,6.924-8.788c1.15-1.152,1.569-2.893,1.973-4.576
	c0.345-1.438,1.068-4.49,2.636-4.49C128.009,304.503,131.738,305.125,131.738,310.832z"/>
<path fill="#4CC2C4" d="M466.016,311.006l-14.917-6.216c-0.918-0.38-1.949-0.38-2.867,0l-14.917,6.216
	c-1.391,0.575-2.3,1.935-2.3,3.442c0,15.421,8.896,26.08,17.209,29.546c0.917,0.38,1.95,0.38,2.866,0
	c6.659-2.774,17.218-12.354,17.218-29.546C468.308,312.941,467.398,311.582,466.016,311.006z M449.669,339.177l-0.008-29.601
	l13.666,5.695C463.07,327.035,456.948,335.557,449.669,339.177L449.669,339.177z"/>
<path fill="#4CC2C4" d="M221.164,310.719v27.348c0,2.06-1.669,3.729-3.729,3.729h-27.348c-2.06,0-3.729-1.669-3.729-3.729v-27.348
	c0-2.06,1.67-3.729,3.729-3.729h27.348C219.494,306.99,221.164,308.66,221.164,310.719z M209.976,327.5
	c-1.131,0-2.162,0.432-2.936,1.14l-5.28-3.168c0.181-0.708,0.181-1.45,0-2.159l5.28-3.168c0.774,0.708,1.804,1.14,2.936,1.14
	c2.403,0,4.351-1.947,4.351-4.351c0-2.402-1.948-4.351-4.351-4.351s-4.351,1.948-4.351,4.351c0,0.373,0.047,0.734,0.135,1.08
	l-5.28,3.168c-0.774-0.708-1.804-1.141-2.936-1.141c-2.402,0-4.35,1.948-4.35,4.352c0,2.402,1.948,4.351,4.35,4.351
	c1.132,0,2.162-0.432,2.936-1.14l5.28,3.167c-0.09,0.354-0.136,0.716-0.135,1.08c0,2.403,1.948,4.351,4.351,4.351
	c2.402,0,4.35-1.947,4.35-4.351S212.379,327.5,209.976,327.5z"/>
<path fill="#4CC2C4" d="M135.468,234.875H108.12c-2.06,0-3.729,1.669-3.729,3.729v27.348c0,2.06,1.67,3.729,3.729,3.729h27.348
	c2.06,0,3.729-1.67,3.729-3.729v-27.348C139.197,236.544,137.527,234.875,135.468,234.875z M111.694,264.708
	c-0.546,0-1.015-0.379-1.136-0.903l-1.165-5.05c-0.127-0.55,0.158-1.111,0.676-1.333l5.438-2.332
	c0.477-0.204,1.032-0.068,1.361,0.333l2.408,2.943c3.803-1.784,6.86-4.883,8.607-8.606l-2.943-2.408
	c-0.402-0.329-0.538-0.884-0.333-1.361l2.331-5.438c0.222-0.518,0.784-0.803,1.333-0.676l5.05,1.166
	c0.529,0.122,0.903,0.592,0.903,1.135C134.225,254.631,124.129,264.708,111.694,264.708z"/>
<path fill="#4CC2C4" d="M40.972,304.895c-7.723,1.507-13.945,7.715-15.469,15.414c-2.875,14.528,10.232,25.358,20.107,23.828
	c3.201-0.497,4.771-4.241,3.302-7.124c-1.795-3.527,0.769-7.646,4.731-7.646h6.192c2.781,0,5.034-2.299,5.042-5.073
	C64.839,312.05,53.698,302.417,40.972,304.895z M32.558,329.368c-1.375,0-2.486-1.11-2.486-2.486c0-1.375,1.111-2.485,2.486-2.485
	c1.375,0,2.486,1.11,2.486,2.485C35.044,328.257,33.933,329.368,32.558,329.368z M35.044,319.423c-1.375,0-2.486-1.111-2.486-2.486
	s1.111-2.486,2.486-2.486c1.375,0,2.486,1.111,2.486,2.486S36.419,319.423,35.044,319.423z M44.989,314.451
	c-1.375,0-2.486-1.11-2.486-2.485s1.111-2.486,2.486-2.486c1.375,0,2.486,1.111,2.486,2.486S46.364,314.451,44.989,314.451z
	 M54.933,319.423c-1.375,0-2.486-1.111-2.486-2.486s1.111-2.486,2.486-2.486c1.375,0,2.486,1.111,2.486,2.486
	S56.309,319.423,54.933,319.423z"/>
<path fill="#4CC2C4" d="M386.755,250.067c0.457,0,0.828-0.371,0.828-0.829v-4.972c0-0.458-0.371-0.829-0.828-0.829h-4.973
	c-0.458,0-0.829,0.371-0.829,0.829v0.829h-6.077v-1.657h0.829c0.458,0,0.829-0.371,0.829-0.829v-4.972
	c0-0.458-0.371-0.829-0.829-0.829h-4.973c-0.457,0-0.828,0.371-0.828,0.829v0.829h-15.47v-0.829c0-0.458-0.371-0.829-0.828-0.829
	h-4.973c-0.458,0-0.829,0.371-0.829,0.829v4.972c0,0.458,0.371,0.829,0.829,0.829h0.829v11.049h-0.829
	c-0.458,0-0.829,0.371-0.829,0.829v4.972c0,0.458,0.371,0.829,0.829,0.829h4.973c0.457,0,0.828-0.371,0.828-0.829v-0.829h6.077
	v1.658h-0.828c-0.458,0-0.829,0.371-0.829,0.828v4.973c0,0.457,0.371,0.829,0.829,0.829h4.972c0.458,0,0.829-0.372,0.829-0.829
	v-0.829h15.469v0.829c0,0.457,0.371,0.829,0.829,0.829h4.973c0.457,0,0.828-0.372,0.828-0.829v-4.973
	c0-0.457-0.371-0.828-0.828-0.828h-0.829v-11.05H386.755z M372.114,239.018h2.21v2.21h-2.21V239.018z M372.114,256.698h2.21v2.21
	h-2.21V256.698z M352.225,258.908h-2.21v-2.21h2.21V258.908z M352.225,241.228h-2.21v-2.21h2.21V241.228z M354.435,256.145v-0.828
	c0-0.458-0.371-0.829-0.828-0.829h-0.829v-11.049h0.829c0.457,0,0.828-0.371,0.828-0.829v-0.829h15.47v0.829
	c0,0.458,0.371,0.829,0.828,0.829h0.829v11.049h-0.829c-0.457,0-0.828,0.371-0.828,0.829v0.828H354.435z M363.274,265.537h-2.21
	v-2.21h2.21V265.537z M382.611,261.118h-0.829c-0.458,0-0.829,0.371-0.829,0.828v0.829h-15.469v-0.829
	c0-0.457-0.371-0.828-0.829-0.828h-0.828v-1.658h6.077v0.829c0,0.458,0.371,0.829,0.828,0.829h4.973
	c0.458,0,0.829-0.371,0.829-0.829v-4.972c0-0.458-0.371-0.829-0.829-0.829h-0.829v-6.077h6.077v0.829
	c0,0.458,0.371,0.829,0.829,0.829h0.829V261.118z M385.373,265.537h-2.21v-2.21h2.21V265.537z M385.373,247.857h-2.21v-2.209h2.21
	V247.857z"/>
<path fill="#4CC2C4" d="M551.517,252.775v-0.995c0-0.549-0.444-0.995-0.994-0.995h-17.403v-2.486h4.476
	c1.098,0,1.988-0.89,1.988-1.989v-7.956c0-1.098-0.891-1.989-1.988-1.989h-11.934c-1.099,0-1.989,0.891-1.989,1.989v7.956
	c0,1.099,0.891,1.989,1.989,1.989h4.475v2.486h-17.402c-0.55,0-0.995,0.445-0.995,0.995v0.995c0,0.549,0.445,0.994,0.995,0.994
	h6.464v2.486h-3.48c-1.099,0-1.989,0.891-1.989,1.989v7.955c0,1.099,0.891,1.989,1.989,1.989h9.944c1.098,0,1.988-0.891,1.988-1.989
	v-7.955c0-1.099-0.891-1.989-1.988-1.989h-3.481v-2.486h18.896v2.486h-3.48c-1.099,0-1.989,0.891-1.989,1.989v7.955
	c0,1.099,0.891,1.989,1.989,1.989h9.944c1.098,0,1.988-0.891,1.988-1.989v-7.955c0-1.099-0.891-1.989-1.988-1.989h-3.48v-2.486
	h6.464C551.072,253.769,551.517,253.324,551.517,252.775z M527.649,244.322v-3.978h7.956v3.978H527.649z M523.672,264.211h-5.967
	v-3.979h5.967V264.211z M545.55,264.211h-5.967v-3.979h5.967V264.211z"/>
<path fill="#4CC2C4" d="M376.396,304.503h-17.402c-2.06,0-3.729,1.67-3.729,3.729v32.319c0,2.06,1.67,3.729,3.729,3.729h17.402
	c2.059,0,3.729-1.67,3.729-3.729v-32.319C380.125,306.173,378.454,304.503,376.396,304.503z M367.694,341.795
	c-1.375,0-2.486-1.11-2.486-2.485s1.111-2.486,2.486-2.486s2.486,1.111,2.486,2.486S369.069,341.795,367.694,341.795z
	 M376.396,333.405c0,0.513-0.42,0.933-0.933,0.933h-15.538c-0.513,0-0.932-0.42-0.932-0.933v-24.24c0-0.513,0.419-0.932,0.932-0.932
	h15.538c0.513,0,0.933,0.419,0.933,0.932V333.405z"/>
<path fill="#4CC2C4" d="M300.645,234.875h-29.841c-1.368,0-2.479,1.126-2.479,2.51v29.787c0,1.383,1.111,2.51,2.479,2.51h29.841
	c1.367,0,2.486-1.127,2.486-2.51v-29.787C303.131,236.001,302.012,234.875,300.645,234.875z M278.844,264.708h-5.159v-16.611h5.167
	v16.611H278.844z M276.265,245.829c-1.655,0-2.991-1.344-2.991-2.991s1.336-2.991,2.991-2.991c1.647,0,2.991,1.344,2.991,2.991
	C279.256,244.493,277.919,245.829,276.265,245.829z M298.182,264.708h-5.159v-8.08c0-1.927-0.038-4.405-2.68-4.405
	c-2.688,0-3.1,2.098-3.1,4.266v8.22h-5.159v-16.611h4.949v2.269h0.069c0.691-1.305,2.378-2.68,4.887-2.68
	c5.221,0,6.192,3.442,6.192,7.917V264.708z"/>
<path fill="#4CC2C4" d="M531.628,176.018c-2.289,0.001-4.144,1.857-4.143,4.146c0.001,2.289,1.856,4.144,4.146,4.143
	c2.288,0,4.143-1.856,4.143-4.144C535.771,177.874,533.916,176.019,531.628,176.018z M541.316,172.833
	c-0.426-1.081-1.281-1.936-2.362-2.362c-1.632-0.644-5.516-0.5-7.326-0.5s-5.691-0.15-7.327,0.5
	c-1.081,0.426-1.937,1.282-2.362,2.362c-0.644,1.632-0.5,5.521-0.5,7.329s-0.144,5.692,0.503,7.329
	c0.427,1.081,1.281,1.937,2.362,2.363c1.632,0.644,5.517,0.5,7.327,0.5s5.69,0.15,7.326-0.5c1.081-0.426,1.937-1.282,2.363-2.363
	c0.648-1.631,0.499-5.52,0.499-7.329s0.149-5.691-0.499-7.329L541.316,172.833z M531.628,186.533c-3.519,0-6.371-2.853-6.371-6.371
	c0-3.518,2.853-6.371,6.371-6.371s6.37,2.853,6.37,6.371c0.005,3.514-2.841,6.367-6.354,6.371
	C531.638,186.533,531.633,186.533,531.628,186.533z M538.261,175.011c-0.821,0-1.487-0.665-1.487-1.486
	c-0.001-0.821,0.665-1.487,1.486-1.488s1.487,0.665,1.487,1.486v0c0.004,0.82-0.658,1.487-1.478,1.491c-0.002,0-0.004,0-0.004,0
	L538.261,175.011z M545.302,162.759h-27.348c-2.06,0-3.729,1.669-3.729,3.729v27.348c0,2.06,1.67,3.729,3.729,3.729h27.348
	c2.06,0,3.729-1.67,3.729-3.729v-27.348C549.031,164.429,547.361,162.759,545.302,162.759z M543.972,185.29
	c-0.101,1.991-0.555,3.756-2.009,5.205c-1.453,1.45-3.217,1.914-5.205,2.008c-2.052,0.116-8.203,0.116-10.256,0
	c-1.991-0.1-3.749-0.555-5.205-2.008c-1.456-1.453-1.913-3.218-2.008-5.205c-0.116-2.053-0.116-8.205,0-10.255
	c0.1-1.992,0.549-3.756,2.008-5.206s3.222-1.908,5.205-2.003c2.053-0.116,8.204-0.116,10.256,0c1.991,0.1,3.755,0.556,5.205,2.008
	c1.451,1.453,1.914,3.218,2.009,5.209C544.087,177.089,544.087,183.236,543.972,185.29z"/>
<path fill="#4CC2C4" d="M58.249,190.091v1.105c0,1.831-1.484,3.315-3.315,3.315H28.415c-1.831,0-3.315-1.484-3.315-3.315v-17.679
	c0-1.831,1.484-3.315,3.315-3.315h1.105v14.365c0,3.046,2.478,5.524,5.525,5.524H58.249z M64.879,184.567v-17.68
	c0-1.831-1.484-3.315-3.315-3.315H35.045c-1.831,0-3.315,1.484-3.315,3.315v17.68c0,1.831,1.484,3.314,3.315,3.314h26.519
	C63.395,187.881,64.879,186.397,64.879,184.567z M42.779,170.202c0,1.831-1.484,3.315-3.315,3.315c-1.831,0-3.314-1.484-3.314-3.315
	s1.484-3.315,3.314-3.315C41.295,166.887,42.779,168.372,42.779,170.202z M36.15,180.146l3.833-3.833
	c0.324-0.324,0.848-0.324,1.172,0l2.729,2.729l9.358-9.359c0.324-0.324,0.849-0.324,1.172,0l6.044,6.044v7.734H36.15V180.146z"/>
<path fill="#4CC2C4" d="M463.335,162.759h-27.348c-2.06,0-3.729,1.669-3.729,3.729v27.348c0,2.06,1.67,3.729,3.729,3.729h10.663
	v-11.833h-4.895v-5.57h4.895v-4.245c0-4.829,2.875-7.496,7.277-7.496c2.108,0,4.313,0.376,4.313,0.376v4.739h-2.43
	c-2.394,0-3.14,1.485-3.14,3.009v3.616h5.344l-0.854,5.57h-4.489v11.833h10.663c2.06,0,3.729-1.67,3.729-3.729v-27.348
	C467.064,164.429,465.395,162.759,463.335,162.759z"/>
<path fill="#4CC2C4" d="M140.591,181.556c1.456-1.457,1.456-3.818,0-5.274l-12.431-12.431c-1.457-1.457-3.818-1.457-5.274,0
	l-19.889,19.889c-1.457,1.456-1.457,3.817,0,5.274l7.458,7.458c0.7,0.699,1.648,1.092,2.637,1.092h27.658
	c0.515,0,0.933-0.417,0.933-0.933v-3.107c0-0.515-0.417-0.932-0.933-0.932h-11.197L140.591,181.556L140.591,181.556z
	 M117.079,176.69l10.673,10.673l-5.23,5.23h-8.915l-6.215-6.216L117.079,176.69L117.079,176.69z"/>
<path fill="#4CC2C4" d="M462.092,115.505c-0.027,0-0.052,0.008-0.079,0.008l-3.046-5.075c0.395-0.712,0.639-1.52,0.639-2.391
	c0-0.872-0.244-1.679-0.639-2.392l3.046-5.075c0.027,0,0.052,0.007,0.079,0.007c2.746,0,4.973-2.226,4.973-4.972
	c0-2.746-2.227-4.972-4.973-4.972c-1.836,0-3.422,1.006-4.282,2.486h-16.297c-0.861-1.48-2.446-2.486-4.282-2.486
	c-2.747,0-4.973,2.226-4.973,4.972c0,1.836,1.006,3.422,2.486,4.283v16.296c-1.48,0.861-2.486,2.447-2.486,4.283
	c0,2.746,2.226,4.972,4.973,4.972c1.836,0,3.421-1.006,4.282-2.486h16.296c0.861,1.48,2.446,2.486,4.282,2.486
	c2.747,0,4.973-2.226,4.973-4.972C467.064,117.731,464.838,115.505,462.092,115.505z M439.717,116.195V99.899
	c0.744-0.433,1.363-1.052,1.796-1.796H457.7l-2.987,4.98c-0.027-0.001-0.053-0.008-0.079-0.008c-2.747,0-4.973,2.226-4.973,4.973
	c0,2.746,2.226,4.972,4.973,4.972c0.026,0,0.052-0.008,0.079-0.008l2.987,4.98h-16.188
	C441.08,117.247,440.461,116.628,439.717,116.195z M453.391,108.047c0-0.686,0.558-1.243,1.243-1.243
	c0.685,0,1.242,0.558,1.242,1.243c0,0.685-0.558,1.243-1.242,1.243C453.948,109.29,453.391,108.732,453.391,108.047z
	 M463.335,95.616c0,0.686-0.559,1.243-1.243,1.243c-0.686,0-1.243-0.558-1.243-1.243c0-0.685,0.558-1.243,1.243-1.243
	C462.776,94.373,463.335,94.931,463.335,95.616z M437.23,94.373c0.686,0,1.243,0.558,1.243,1.243c0,0.686-0.558,1.243-1.243,1.243
	s-1.243-0.558-1.243-1.243C435.987,94.931,436.545,94.373,437.23,94.373z M435.987,120.478c0-0.686,0.558-1.243,1.243-1.243
	s1.243,0.558,1.243,1.243s-0.558,1.243-1.243,1.243S435.987,121.164,435.987,120.478z M462.092,121.721
	c-0.686,0-1.243-0.558-1.243-1.243s0.558-1.243,1.243-1.243c0.685,0,1.243,0.558,1.243,1.243S462.776,121.721,462.092,121.721z"/>
<path fill="#4CC2C4" d="M365.14,196.042l-3.791-1.1c-0.398-0.112-0.622-0.528-0.51-0.926l8.483-29.225
	c0.112-0.397,0.528-0.622,0.927-0.51l3.791,1.101c0.397,0.111,0.621,0.528,0.51,0.926l-8.484,29.225
	C365.947,195.93,365.537,196.16,365.14,196.042z M358.054,189.068l2.704-2.884c0.286-0.304,0.268-0.789-0.05-1.069l-5.631-4.954
	l5.631-4.954c0.317-0.28,0.342-0.765,0.05-1.069l-2.704-2.884c-0.279-0.298-0.752-0.317-1.057-0.031l-8.956,8.391
	c-0.316,0.292-0.316,0.795,0,1.087l8.956,8.397C357.302,189.385,357.774,189.373,358.054,189.068L358.054,189.068z M378.391,189.105
	l8.957-8.397c0.316-0.292,0.316-0.795,0-1.087l-8.957-8.403c-0.298-0.28-0.771-0.268-1.057,0.031l-2.703,2.884
	c-0.286,0.305-0.268,0.79,0.049,1.069l5.632,4.96l-5.632,4.954c-0.316,0.28-0.342,0.765-0.049,1.069l2.703,2.884
	C377.614,189.373,378.086,189.385,378.391,189.105L378.391,189.105z"/>
<path fill="#4CC2C4" d="M304.862,100.566l-18.181-12.12c-0.62-0.382-1.282-0.386-1.909,0l-18.18,12.12
	c-0.466,0.311-0.755,0.865-0.755,1.42v12.12c0,0.555,0.289,1.11,0.755,1.42l18.18,12.122c0.621,0.382,1.283,0.386,1.909,0
	l18.181-12.122c0.466-0.311,0.754-0.866,0.754-1.42v-12.12C305.616,101.431,305.328,100.876,304.862,100.566L304.862,100.566z
	 M287.437,93.063l13.386,8.923l-5.972,3.996l-7.414-4.95V93.063z M284.019,93.063v7.969l-7.414,4.95l-5.972-3.996L284.019,93.063z
	 M269.257,105.183l4.284,2.864l-4.284,2.863V105.183L269.257,105.183z M284.019,123.03l-13.386-8.923l5.972-3.996l7.414,4.95V123.03
	z M285.728,112.086l-6.038-4.04l6.038-4.04l6.038,4.04L285.728,112.086z M287.437,123.03v-7.969l7.414-4.95l5.972,3.996
	L287.437,123.03z M302.198,110.91l-4.284-2.863l4.284-2.864V110.91L302.198,110.91z"/>
<path fill="#4CC2C4" d="M361.187,105.781c-1.134-0.225-2.19,0.692-2.19,1.85v3.916c0,0.792,0.551,1.43,1.297,1.709
	c1.414,0.528,2.432,1.896,2.432,3.496c0,2.059-1.67,3.729-3.729,3.729c-2.06,0-3.729-1.67-3.729-3.729V97.484
	c0-1.034-0.832-1.865-1.865-1.865h-3.729c-1.034,0-1.865,0.831-1.865,1.865v19.267c0,6.954,6.379,12.446,13.597,10.932
	c4.227-0.886,7.637-4.304,8.522-8.523C371.278,112.719,367.052,106.946,361.187,105.781z M364.046,88.161
	c-0.715-0.039-1.321,0.528-1.321,1.243v2.455c0,0.66,0.513,1.204,1.166,1.235c10.053,0.543,18.133,8.701,18.716,18.762
	c0.039,0.653,0.582,1.166,1.235,1.166h2.494c0.714,0,1.281-0.606,1.242-1.321C386.918,99.022,376.725,88.829,364.046,88.161z
	 M364.069,95.619c-0.723-0.055-1.345,0.521-1.345,1.25v2.494c0,0.652,0.505,1.188,1.15,1.235
	c5.967,0.489,10.722,5.298,11.257,11.281c0.063,0.645,0.591,1.142,1.235,1.142h2.502c0.723,0,1.306-0.622,1.251-1.344
	C379.468,103.124,372.623,96.279,364.069,95.619L364.069,95.619z"/>
<path fill="#4CC2C4" d="M288.711,166.24h-5.967c-1.099,0-1.989,0.891-1.989,1.989v5.966c0,1.099,0.891,1.989,1.989,1.989h5.967
	c1.099,0,1.988-0.891,1.988-1.989v-5.966C290.699,167.13,289.81,166.24,288.711,166.24z M278.766,169.72h-5.268
	c-0.59-1.457-2.014-2.486-3.683-2.486c-2.197,0-3.978,1.781-3.978,3.978c0,2.197,1.781,3.978,3.978,3.978
	c1.668,0,3.092-1.029,3.683-2.486h4.956c-3.441,2.021-5.958,5.428-6.809,9.448h3.071c0.702-2.586,2.285-4.799,4.416-6.313
	c-0.23-0.502-0.366-1.056-0.366-1.644V169.72z M275.783,184.14h-5.967c-1.098,0-1.989,0.891-1.989,1.989v5.967
	c0,1.098,0.891,1.989,1.989,1.989h5.967c1.098,0,1.989-0.891,1.989-1.989v-5.967C277.771,185.031,276.881,184.14,275.783,184.14z
	 M301.639,167.234c-1.668,0-3.092,1.029-3.683,2.486h-5.268v4.475c0,0.587-0.136,1.141-0.365,1.644
	c2.13,1.513,3.713,3.726,4.415,6.313h3.07c-0.851-4.02-3.366-7.426-6.808-9.448h4.955c0.591,1.457,2.015,2.486,3.683,2.486
	c2.196,0,3.978-1.781,3.978-3.978C305.616,169.015,303.835,167.234,301.639,167.234z M301.639,184.14h-5.967
	c-1.098,0-1.988,0.891-1.988,1.989v5.967c0,1.098,0.891,1.989,1.988,1.989h5.967c1.099,0,1.989-0.891,1.989-1.989v-5.967
	C303.628,185.031,302.737,184.14,301.639,184.14z"/>
<path fill="#4CC2C4" d="M138.528,478.463c-1.501-1.612-4.31-4.039-4.31-11.986c0-6.037-4.233-10.87-9.94-12.056v-1.618
	c0-1.373-1.112-2.486-2.484-2.486s-2.484,1.113-2.484,2.486v1.618c-5.708,1.186-9.94,6.019-9.94,12.056
	c0,7.947-2.809,10.374-4.31,11.986c-0.466,0.501-0.673,1.101-0.669,1.688c0.009,1.273,1.009,2.485,2.494,2.485h29.818
	c1.485,0,2.486-1.212,2.494-2.485C139.201,479.564,138.994,478.963,138.528,478.463L138.528,478.463z M109.637,478.908
	c1.649-2.174,3.451-5.775,3.459-12.387c0-0.015-0.004-0.029-0.004-0.044c0-4.807,3.896-8.702,8.702-8.702s8.702,3.896,8.702,8.702
	c0,0.015-0.005,0.029-0.005,0.044c0.008,6.612,1.811,10.214,3.459,12.387H109.637z M121.794,490.095c2.744,0,4.97-2.227,4.97-4.973
	h-9.94C116.824,487.869,119.05,490.095,121.794,490.095z"/>
<path fill="#4CC2C4" d="M184.493,180.162c0,10.642,8.627,19.268,19.268,19.268s19.268-8.626,19.268-19.268
	c0-10.641-8.626-19.268-19.268-19.268S184.493,169.521,184.493,180.162z M203.761,194.458v-28.59
	c7.901,0,14.295,6.395,14.295,14.295C218.056,188.064,211.661,194.458,203.761,194.458z"/>
<path fill="#4CC2C4" d="M219.638,381.689h-31.755c-1.753,0-3.175,1.423-3.175,3.176v23.286c0,1.754,1.422,3.176,3.175,3.176h31.755
	c1.753,0,3.175-1.422,3.175-3.176v-23.286C222.813,383.112,221.391,381.689,219.638,381.689z M196.352,388.041
	c2.335,0,4.233,1.898,4.233,4.233c0,2.336-1.898,4.234-4.233,4.234c-2.335,0-4.234-1.898-4.234-4.234
	C192.117,389.939,194.016,388.041,196.352,388.041z M203.761,403.706c0,0.701-0.662,1.271-1.482,1.271h-11.855
	c-0.82,0-1.482-0.569-1.482-1.271v-1.271c0-2.104,1.992-3.811,4.446-3.811h0.331c0.814,0.338,1.7,0.529,2.633,0.529
	c0.932,0,1.826-0.191,2.633-0.529h0.331c2.455,0,4.446,1.707,4.446,3.811V403.706z M218.58,400.212c0,0.292-0.238,0.529-0.529,0.529
	h-9.527c-0.291,0-0.529-0.237-0.529-0.529v-1.059c0-0.291,0.238-0.529,0.529-0.529h9.527c0.291,0,0.529,0.238,0.529,0.529V400.212z
	 M218.58,395.979c0,0.291-0.238,0.529-0.529,0.529h-9.527c-0.291,0-0.529-0.238-0.529-0.529v-1.059c0-0.291,0.238-0.529,0.529-0.529
	h9.527c0.291,0,0.529,0.238,0.529,0.529V395.979z M218.58,391.745c0,0.291-0.238,0.529-0.529,0.529h-9.527
	c-0.291,0-0.529-0.238-0.529-0.529v-1.059c0-0.291,0.238-0.529,0.529-0.529h9.527c0.291,0,0.529,0.238,0.529,0.529V391.745z"/>
<path fill="#4CC2C4" d="M121.794,378.05c10.196,0,18.458,8.261,18.458,18.458c0,10.196-8.261,18.457-18.458,18.457
	s-18.458-8.261-18.458-18.457C103.336,386.311,111.598,378.05,121.794,378.05z M113.161,399.783h8.633v5.276
	c0,0.797,0.967,1.199,1.526,0.633l8.506-8.552c0.35-0.35,0.35-0.907,0-1.257l-8.506-8.56c-0.566-0.565-1.526-0.164-1.526,0.633
	v5.276h-8.633c-0.491,0-0.894,0.402-0.894,0.894v4.763C112.267,399.38,112.669,399.783,113.161,399.783z"/>
<path fill="#4CC2C4" d="M281.689,396.859c0.388,0.389,1.018,0.389,1.406,0l0.703-0.703c0.389-0.389,0.389-1.018,0-1.406l-2.22-2.22
	l2.219-2.22c0.389-0.389,0.389-1.019,0-1.406l-0.703-0.703c-0.388-0.389-1.018-0.389-1.406,0l-3.626,3.626
	c-0.388,0.389-0.388,1.018,0,1.406L281.689,396.859z M287.656,396.157l0.703,0.703c0.389,0.388,1.019,0.388,1.406,0l3.626-3.626
	c0.389-0.389,0.389-1.019,0-1.406l-3.626-3.627c-0.388-0.388-1.018-0.388-1.406,0l-0.703,0.703c-0.388,0.389-0.388,1.019,0,1.406
	l2.22,2.22l-2.22,2.221C287.269,395.139,287.269,395.768,287.656,396.157L287.656,396.157z M304.622,406.453h-15.069
	c-0.047,1.231-0.915,1.988-2.035,1.988h-3.779c-1.162,0-2.052-1.086-2.037-1.988h-14.869c-0.547,0-0.994,0.447-0.994,0.994v0.994
	c0,2.188,1.79,3.979,3.978,3.979h31.823c2.188,0,3.978-1.79,3.978-3.979v-0.994C305.616,406.9,305.169,406.453,304.622,406.453z
	 M301.639,383.58c0-1.641-1.343-2.983-2.983-2.983h-25.856c-1.641,0-2.983,1.343-2.983,2.983v20.884h31.823V383.58z
	 M297.661,400.486h-23.867v-15.911h23.867V400.486z"/>
</svg>
