<?xml version="1.0" encoding="utf-8"?>
<!-- Generator: Adobe Illustrator 14.0.0, SVG Export Plug-In . SVG Version: 6.00 Build 43363)  -->
<!DOCTYPE svg PUBLIC "-//W3C//DTD SVG 1.1//EN" "http://www.w3.org/Graphics/SVG/1.1/DTD/svg11.dtd">
<svg version="1.1" id="Layer_1" xmlns="http://www.w3.org/2000/svg" xmlns:xlink="http://www.w3.org/1999/xlink" x="0px" y="0px"
	 width="42.846px" height="45.1px" viewBox="0 0 42.846 45.1" enable-background="new 0 0 42.846 45.1" xml:space="preserve">
<g id="_x30_31---Laser-Cutting" transform="translate(0 -1)">
	<path id="Shape" fill="#FFFFFF" d="M5.263,5.509c-1.245,0-2.254,1.01-2.254,2.255v0.753c0,1.246,1.009,2.255,2.254,2.255h1.502
		v4.511c-0.411,0-0.749,0.334-0.749,0.75c0,0.415,0.338,0.752,0.749,0.752h0.287l1.972,3.938v5.081c0,0.414,0.334,0.752,0.749,0.752
		s0.753-0.338,0.753-0.752v-5.081l1.968-3.938h0.287c0.415,0,0.751-0.337,0.751-0.752c0-0.416-0.336-0.75-0.751-0.75v-4.511h9.02
		v21.044h-5.261v-5.26c0-0.416-0.336-0.752-0.753-0.752H12.78c-0.353,0-0.359,0.082-3.008,2.065
		c-2.819-2.111-2.668-2.065-3.008-2.065H3.761c-0.415,0-0.752,0.336-0.752,0.752v5.26H2.257c-0.83,0-1.504,0.674-1.504,1.505v11.276
		c0,0.828,0.674,1.503,1.504,1.503H7.96c0.4-0.004,0.781-0.16,1.063-0.444l1.811-1.811h9.907l1.811,1.811
		c0.28,0.284,0.662,0.44,1.059,0.444h5.706c0.831,0,1.504-0.675,1.504-1.503V33.321c0-0.831-0.673-1.505-1.504-1.505h-2.255V10.772
		h2.255c1.244,0,2.257-1.009,2.257-2.255V7.764c0-1.245-1.013-2.255-2.257-2.255h-2.255V3.253C27.062,2.009,26.053,1,24.807,1
		h-0.752C22.809,1,21.8,2.009,21.8,3.253v2.188c-2.151-0.179-4.179-1.068-5.765-2.531C15.006,2.044,13.833,1.058,12.331,1
		c-1.25-0.027-2.373,0.748-2.79,1.925C9.215,3.75,9.039,4.623,9.023,5.509H5.263L5.263,5.509z M12.271,2.502
		c1.606,0.061,2.719,1.827,4.81,3.007h-6.533C10.615,4.208,10.968,2.428,12.271,2.502L12.271,2.502z M25.559,5.509h-2.256V3.253
		c0-0.414,0.339-0.751,0.752-0.751h0.752c0.414,0,0.752,0.337,0.752,0.751V5.509z M2.257,33.321h27.06v11.276H23.61L21.8,42.785
		c-0.28-0.282-0.662-0.443-1.059-0.443h-9.907c-0.397,0-0.779,0.161-1.062,0.443L7.96,44.597H2.257V33.321z M15.035,31.816H4.512
		v-4.51h2.007l2.805,2.106c0.268,0.201,0.633,0.201,0.902,0l2.803-2.106h2.007V31.816z M23.303,10.772h2.256v21.044h-2.256V10.772z
		 M8.736,16.785h2.076l-1.04,2.075L8.736,16.785z M8.271,10.772h3.006v4.511H8.271V10.772z M4.512,7.764
		c0-0.415,0.338-0.753,0.751-0.753h24.054c0.415,0,0.753,0.338,0.753,0.753v0.753c0,0.416-0.338,0.75-0.753,0.75H5.263
		c-0.413,0-0.751-0.334-0.751-0.75V7.764z"/>
	<path id="Shape_1_" fill="#FFFFFF" d="M19.327,18.506c0.143,0.141,0.222,0.333,0.222,0.533c0,0.201-0.079,0.394-0.222,0.534
		l-4.509,4.509c-0.297,0.297-0.773,0.297-1.067,0c-0.297-0.296-0.297-0.771,0-1.066l4.51-4.51c0.142-0.145,0.332-0.223,0.533-0.223
		C18.996,18.284,19.186,18.362,19.327,18.506z"/>
	<path id="Shape_2_" fill="#FFFFFF" d="M5.263,24.301c-0.198,0.002-0.391-0.078-0.533-0.219l-4.508-4.509
		c-0.296-0.295-0.296-0.772,0-1.067c0.293-0.295,0.772-0.295,1.065,0l4.512,4.51c0.217,0.214,0.279,0.54,0.164,0.82
		C5.845,24.119,5.571,24.303,5.263,24.301z"/>
	<path id="Shape_3_" fill="#FFFFFF" d="M13.147,21.189c-0.355-0.212-0.474-0.674-0.263-1.029l2.256-3.759
		c0.117-0.261,0.375-0.433,0.662-0.439c0.287-0.012,0.555,0.146,0.688,0.398s0.111,0.562-0.056,0.794l-2.257,3.758
		c-0.099,0.174-0.265,0.3-0.456,0.353C13.528,21.318,13.32,21.288,13.147,21.189z"/>
	<path id="Shape_4_" fill="#FFFFFF" d="M5.369,20.926l-2.255-3.758c-0.159-0.351-0.028-0.767,0.309-0.958
		c0.333-0.195,0.758-0.105,0.983,0.206l2.255,3.758c0.169,0.231,0.19,0.539,0.058,0.793c-0.135,0.256-0.401,0.408-0.688,0.398
		C5.745,21.357,5.487,21.188,5.369,20.926z"/>
	<path id="Shape_5_" fill="#FFFFFF" d="M4.512,34.825h2.253c0.417,0,0.755,0.336,0.755,0.753c0,0.414-0.338,0.75-0.755,0.75H4.512
		c-0.415,0-0.751-0.336-0.751-0.75C3.761,35.161,4.097,34.825,4.512,34.825z"/>
	<path id="Shape_6_" fill="#FFFFFF" d="M4.512,37.831h2.253c0.417,0,0.755,0.337,0.755,0.751c0,0.417-0.338,0.752-0.755,0.752H4.512
		c-0.415,0-0.751-0.335-0.751-0.752C3.761,38.167,4.097,37.831,4.512,37.831z"/>
	<path id="Shape_7_" fill="#FFFFFF" d="M42.846,28.061v-7.519c0-0.83-0.674-1.503-1.502-1.503H30.82
		c-0.83,0-1.504,0.673-1.504,1.503v7.519c0,0.829,0.674,1.5,1.504,1.5h1.504v15.036c0,0.828,0.672,1.503,1.504,1.503h4.51
		c0.828,0,1.502-0.675,1.502-1.503V29.561h1.504C42.172,29.561,42.846,28.89,42.846,28.061z M33.828,29.561h4.51v15.036h-4.51
		V29.561z M41.344,28.061H30.82v-7.519h10.523V28.061z"/>
	<path id="Shape_8_" fill="#FFFFFF" d="M35.33,23.549h-1.502c-0.417,0-0.755-0.336-0.755-0.752c0-0.415,0.338-0.753,0.755-0.753
		h1.502c0.415,0,0.753,0.338,0.753,0.753C36.083,23.213,35.745,23.549,35.33,23.549z"/>
	<path id="Shape_9_" fill="#FFFFFF" d="M35.33,26.556h-1.502c-0.417,0-0.755-0.338-0.755-0.752s0.338-0.752,0.755-0.752h1.502
		c0.415,0,0.753,0.338,0.753,0.752S35.745,26.556,35.33,26.556z"/>
	<path id="Shape_10_" fill="#FFFFFF" d="M38.759,23.422c-0.256,0.181-0.594,0.188-0.854,0.016c-0.261-0.17-0.389-0.487-0.319-0.792
		c0.058-0.337,0.338-0.592,0.679-0.622c0.34-0.03,0.661,0.178,0.772,0.502c0.113,0.323-0.008,0.683-0.295,0.872L38.759,23.422z"/>
	<path id="Shape_11_" fill="#FFFFFF" d="M38.759,26.427c-0.288,0.193-0.669,0.168-0.925-0.062c-0.256-0.231-0.323-0.607-0.16-0.914
		c0.16-0.303,0.508-0.46,0.843-0.375c0.336,0.083,0.569,0.383,0.57,0.728C39.087,26.053,38.964,26.288,38.759,26.427z"/>
	<path id="Shape_12_" fill="#FFFFFF" d="M26.309,34.825h0.753c0.415,0,0.752,0.336,0.752,0.753c0,0.414-0.337,0.75-0.752,0.75
		h-0.753c-0.413,0-0.75-0.336-0.75-0.75C25.559,35.161,25.896,34.825,26.309,34.825z"/>
	<path id="Shape_13_" fill="#FFFFFF" d="M17.289,34.825h6.014c0.415,0,0.752,0.336,0.752,0.753c0,0.414-0.337,0.75-0.752,0.75
		h-6.014c-0.415,0-0.75-0.336-0.75-0.75C16.539,35.161,16.874,34.825,17.289,34.825z"/>
</g>
</svg>
