<?xml version="1.0" encoding="utf-8"?>
<!-- Generator: Adobe Illustrator 14.0.0, SVG Export Plug-In . SVG Version: 6.00 Build 43363)  -->
<!DOCTYPE svg PUBLIC "-//W3C//DTD SVG 1.1//EN" "http://www.w3.org/Graphics/SVG/1.1/DTD/svg11.dtd">
<svg version="1.1" id="Layer_1" xmlns="http://www.w3.org/2000/svg" xmlns:xlink="http://www.w3.org/1999/xlink" x="0px" y="0px"
	 width="41.945px" height="49.75px" viewBox="0 -4.583 41.945 49.75" enable-background="new 0 -4.583 41.945 49.75"
	 xml:space="preserve">
<g>
	<path fill="#FFFFFF" d="M24.807,12.518l2.494,7.27l-5.08,0.097L24.807,12.518 M24.817,10.03l-3.755,10.691l7.371-0.139
		L24.817,10.03L24.817,10.03z"/>
	<path fill="#FFFFFF" d="M22.34,4.987l4.302,0.56l8.812,24.128l-3.688,0.252c-0.232-0.663-0.456-1.323-0.682-1.981
		c-0.388-1.137-0.771-2.27-1.191-3.412c-0.118-0.323-0.424-0.537-0.766-0.537c-0.008,0-0.017,0-0.024,0l-9.526,0.291
		c-0.318,0.009-0.604,0.204-0.726,0.497c-0.788,1.867-1.605,3.931-2.564,6.453l-4.875,0.394l-1.48-1.866l8.764-22.53L22.34,4.987
		 M22.159,4.141l-4.125,2.544L9,29.906l2.044,2.572l5.821-0.469c0.876-2.32,1.774-4.626,2.735-6.908l9.526-0.288
		c0.731,2.001,1.364,3.968,2.075,5.968l5.31-0.36v-0.222L27.237,4.802L22.159,4.141L22.159,4.141z"/>
	<g>
		<path fill="#FFFFFF" d="M24.807,12.518l2.494,7.272l-2.986,0.063l-1.046-2.947L24.807,12.518 M24.817,10.03l-2.415,6.877
			l1.337,3.772l4.693-0.096L24.817,10.03L24.817,10.03z"/>
		<path fill="#FFFFFF" d="M28.962,24.822c0.06,0,0.11,0.002,0.143,0.006c0.022,0.042,0.046,0.1,0.056,0.141
			c0.008,0.038,0.019,0.077,0.03,0.114l1.606,4.569l-3.687-1.923l-0.963-2.813l2.648-0.089
			C28.808,24.824,28.874,24.822,28.962,24.822 M28.962,24.006c-0.139,0-0.241,0.011-0.241,0.011l-3.703,0.119l1.429,4.167
			l4.756,2.479l0.838-0.058l-2.08-5.911c0,0-0.089-0.466-0.406-0.69C29.415,24.024,29.153,24.006,28.962,24.006L28.962,24.006z"/>
	</g>
	<path fill="#FFFFFF" d="M6.786,1.731L38.322,3.55v29.361L6.786,36.068V1.731 M5.259,0.092v37.651l34.59-3.461V2.09L5.259,0.092
		L5.259,0.092z"/>
	<polygon fill="#FFFFFF" points="5.259,37.744 2.098,34.283 2.098,2.09 5.259,0.092 	"/>
	<path fill="#FFFFFF" d="M11.519,32.147c-0.046,0-0.095-0.009-0.143-0.028c-0.2-0.077-0.297-0.305-0.219-0.501L21.759,4.583
		c0.079-0.201,0.306-0.297,0.504-0.22c0.199,0.079,0.299,0.304,0.22,0.505l-10.601,27.03C11.821,32.051,11.674,32.147,11.519,32.147
		L11.519,32.147z"/>
</g>
</svg>
