<?xml version="1.0" encoding="utf-8"?>
<!-- Generator: Adobe Illustrator 14.0.0, SVG Export Plug-In . SVG Version: 6.00 Build 43363)  -->
<!DOCTYPE svg PUBLIC "-//W3C//DTD SVG 1.1//EN" "http://www.w3.org/Graphics/SVG/1.1/DTD/svg11.dtd">
<svg version="1.1" id="Layer_1" xmlns="http://www.w3.org/2000/svg" xmlns:xlink="http://www.w3.org/1999/xlink" x="0px" y="0px"
	 width="541.875px" height="413.568px" viewBox="0 0 541.875 413.568" enable-background="new 0 0 541.875 413.568"
	 xml:space="preserve">
<g>
	<g>
		<g>
			<g>
				<path fill="#00CC37" d="M66.272,199.31c-3.101,3.165-5.03,3.122-6.271,1.906c-1.241-1.216-1.324-3.143,1.777-6.308
					c5.65-5.767,10.628-6.354,10.628-6.354S72.005,193.459,66.272,199.31z"/>
			</g>
			<g>
				<path fill="#00CC37" d="M73.603,227.077c-1.911,3.999-3.75,4.582-5.317,3.833c-1.567-0.749-2.27-2.545-0.359-6.545
					c3.479-7.284,8-9.449,8-9.449S77.133,219.687,73.603,227.077z"/>
			</g>
			<g>
				<g>
					<g>
						<path fill="#00CC37" d="M91.457,299.675l-0.826,0.148c-0.023-0.126-2.4-12.926-11.582-30.128
							c-8.473-15.872-24.636-38.847-53.53-58.164l0.467-0.697c29.052,19.424,45.304,42.534,53.82,58.5
							C89.041,286.645,91.433,299.547,91.457,299.675z"/>
					</g>
				</g>
				<g>
					<g>
						<path fill="#00CC37" d="M56.341,236.885l-0.801-0.252c9.145-29.058-8.561-56.529-8.741-56.802l0.7-0.46
							C47.681,179.647,65.606,207.441,56.341,236.885z"/>
					</g>
				</g>
				<g>
					<g>
						<path fill="#00CC37" d="M40.589,227.054c-8.223,2.23-15.554-0.202-15.639-0.23l0.271-0.794
							c0.094,0.031,9.484,3.136,18.775-1.087l0.347,0.762C43.087,226.276,41.826,226.719,40.589,227.054z"/>
					</g>
				</g>
				<g>
					<g>
						<path fill="#00CC37" d="M23.754,207.164c5.331,2.702,6.279,4.762,5.495,6.312c-0.786,1.549-3.009,2.002-8.34-0.7
							c-9.71-4.924-12.982-10.108-12.982-10.108S13.902,202.169,23.754,207.164z"/>
					</g>
				</g>
				<g>
					<g>
						<path fill="#00CC37" d="M26.412,223.616c5.898,0.97,7.424,2.647,7.143,4.362c-0.282,1.713-2.265,2.814-8.163,1.846
							c-10.743-1.766-15.426-5.723-15.426-5.723S15.512,221.825,26.412,223.616z"/>
					</g>
				</g>
				<g>
					<g>
						<path fill="#00CC37" d="M45.372,211.914c2.105,3.899,1.492,5.729-0.037,6.553c-1.529,0.825-3.394,0.335-5.499-3.565
							c-3.834-7.105-2.919-12.033-2.919-12.033S41.483,204.706,45.372,211.914z"/>
					</g>
				</g>
				<g>
					<g>
						<path fill="#00CC37" d="M48.317,175.628c2.866,5.245,2.481,7.48,0.958,8.313c-1.526,0.832-3.613-0.053-6.478-5.297
							c-5.22-9.555-4.982-15.681-4.982-15.681S43.022,165.934,48.317,175.628z"/>
					</g>
				</g>
			</g>
		</g>
	</g>
	<g>
		<path fill="#FFCB05" d="M177.403,386.964c0,0,22.785-121.301-10.361-126.246c-33.147-4.946,2.742,84.664-5.01,119.766
			L177.403,386.964z"/>
	</g>
	<g>
		<g>
			<g>
				<path fill="#2EE321" d="M29.016,291.925c17.753,12.309,2.27,40.487,26.768,44.228c24.503,3.728,23.25,1.54,29.938,15.627
					c0,0,0.293,11.058,8.49,16.274c32.34,20.582,101.414-11.225,76.814-54.735c-1.777-3.142-5.274-5.519-9.234-7.938
					c-21.483-13.107-33.013-5.532-39.882-40.104c-6.874-34.581-47.529-5.946-62.366-13.7c-14.839-7.753-26.499-18.001-45.269-6.656
					C-4.501,256.28,11.255,279.629,29.016,291.925z"/>
			</g>
		</g>
		<g>
			<g>
				<g>
					<path fill="#00CC37" d="M144.354,346.236l1.183-0.786c-0.345-0.521-35.779-52.744-135.949-97.039l-0.575,1.299
						C108.807,293.841,144.009,345.717,144.354,346.236z"/>
				</g>
			</g>
			<g>
				<g>
					<path fill="#00CC37" d="M97.613,281.086c18.32-6.476,24.618-15.035,24.878-15.396l-1.154-0.829
						c-0.061,0.085-6.348,8.575-24.198,14.886L97.613,281.086z"/>
				</g>
			</g>
			<g>
				<g>
					<path fill="#00CC37" d="M89.432,294.289c6.485-5.052,10.078-14.72,10.386-27.956c0.231-9.911-1.464-18.462-1.481-18.548
						l-1.393,0.279c0.066,0.335,6.528,33.486-8.388,45.104L89.432,294.289z"/>
				</g>
			</g>
			<g>
				<g>
					<path fill="#00CC37" d="M63.757,280.972c2.139-0.671,3.354-1.18,3.41-1.203l-0.559-1.306
						c-0.255,0.109-25.88,10.778-52.251-1.098l-0.583,1.296C35.024,288.229,55.789,283.47,63.757,280.972z"/>
				</g>
			</g>
			<g>
				<g>
					<path fill="#00CC37" d="M38.058,305.885c8.913-4.272,13.468-10.346,15.72-14.688c2.45-4.727,2.777-8.41,2.791-8.564
						l-1.417-0.116c-0.011,0.141-1.391,14.266-17.709,22.089L38.058,305.885z"/>
				</g>
			</g>
		</g>
	</g>
	<g>
		<path fill="#FFCB05" d="M310.85,205.671c0,0-33.116-163.478,11.581-170.796c44.698-7.319-2.082,114.461,9.065,161.746
			L310.85,205.671z"/>
	</g>
	<g>
		<g>
			<g>
				<path fill="#2EE321" d="M449.087,106.765c-14.504,13.64,3.45,37.215-18.37,43.963c-18.458,5.697-20.704,5.028-23.481,13.005
					c-0.953,2.734-1.47,5.598-1.619,8.489c-0.182,3.465-1.212,9.029-5.578,12.821c-26.672,23.169-93.968,3.594-77.476-39.42
					c1.19-3.106,4.056-5.749,7.334-8.494c17.795-14.877,29.336-9.543,30.886-41.991c1.552-32.457,42.512-11.898,54.979-20.988
					c12.469-9.09,21.7-20.02,40.356-12.237C474.78,69.707,463.6,93.138,449.087,106.765z"/>
			</g>
		</g>
		<g>
			<g>
				<g>
					<path fill="#00CC37" d="M351.359,171.993l-1.185-0.555c0.243-0.522,25.423-52.954,110.689-106.984l0.7,1.106
						C376.618,119.388,351.603,171.473,351.359,171.993z"/>
				</g>
			</g>
			<g>
				<g>
					<path fill="#00CC37" d="M385.084,106.237c-17.579-3.406-24.488-10.349-24.773-10.642l0.938-0.913
						c0.066,0.068,6.952,6.95,24.086,10.27L385.084,106.237z"/>
				</g>
			</g>
			<g>
				<g>
					<path fill="#00CC37" d="M394.341,117.156c-6.602-3.721-11.193-12.043-13.277-24.065c-1.563-9.003-1.184-17.029-1.179-17.107
						l1.307,0.064c-0.016,0.313-1.386,31.412,13.793,39.968L394.341,117.156z"/>
				</g>
			</g>
			<g>
				<g>
					<path fill="#00CC37" d="M415.927,101.517c-2.039-0.32-3.218-0.617-3.272-0.63l0.332-1.267
						c0.248,0.065,25.06,6.295,47.477-8.124l0.709,1.102C443.108,104.217,423.53,102.709,415.927,101.517z"/>
				</g>
			</g>
			<g>
				<g>
					<path fill="#00CC37" d="M442.748,120.722c-8.705-2.679-13.685-7.594-16.331-11.246c-2.877-3.973-3.677-7.286-3.711-7.425
						l1.274-0.3c0.03,0.127,3.215,12.813,19.153,17.72L442.748,120.722z"/>
				</g>
			</g>
		</g>
	</g>
	<g>
		<path fill="#2EE321" d="M353.228,47.206c-0.007-6.442,2.038-8.361,4.561-8.365c2.527-0.004,4.577,1.91,4.584,8.353
			c0.019,11.735-4.548,17.414-4.548,17.414S353.247,59.113,353.228,47.206z"/>
	</g>
	<g>
		<path fill="#2EE321" d="M373.729,51.666c4.437-4.673,7.239-4.654,9.071-2.917c1.832,1.739,1.997,4.538-2.438,9.211
			c-8.079,8.512-15.301,9.479-15.301,9.479S365.534,60.302,373.729,51.666z"/>
	</g>
	<g>
		<g>
			<ellipse fill="#00ADEE" cx="288.02" cy="380.686" rx="248.063" ry="31.565"/>
		</g>
	</g>
	<g>
		<g>
			<path fill="#6F4975" d="M153.323,387.56c-0.195,0-0.396-0.03-0.593-0.091c-1.043-0.322-1.621-1.413-1.294-2.438l43.445-135.75
				c0.328-1.024,1.432-1.597,2.48-1.272c1.043,0.323,4.729,0.83,4.402,1.854l-46.553,136.335
				C154.945,387.027,154.166,387.56,153.323,387.56z"/>
		</g>
		<g>
			<path fill="#6F4975" d="M168.026,247.411h125.819c1.188,0,2.151,0.903,2.151,2.019l0,0c0,1.114-0.009,4.763-1.197,4.763
				l-126.077-1.662c-1.983,0.079-2.847-1.986-2.847-3.101l0,0C165.876,248.314,166.838,247.411,168.026,247.411z"/>
		</g>
		<g>
			<path fill="#74A1BD" d="M409.363,376.123l-184.597,13.709c-7.555,0.561-14.344-4.601-15.821-12.031l-18.716-94.162l-2.432-12.232
				l-3.71-18.672l-1.058-5.324l-20.612-103.703c-1.842-9.276,5.254-17.919,14.708-17.919h183.129
				c7.052,0,13.152,4.913,14.652,11.803l6.036,27.708l41.963,192.679C424.844,366.884,418.455,375.448,409.363,376.123z"/>
		</g>
	</g>
	<g>
		<g>
			<path fill="#B400E6" d="M112.649,246.947c0,0,11.567,101.538,6.53,104.459c-5.037,2.922-7.22-3.637-9.858-14.158
				c-2.639-10.521-15.537-86.93-15.537-86.93L112.649,246.947z"/>
		</g>
		<g>
			<polygon fill="#74A1BD" points="111.94,231.028 112.649,246.947 93.783,250.318 91.005,234.77 			"/>
		</g>
		<g>
			<path fill="#2F1A31" d="M111.94,231.028c0,0,9.433-17.211,1.519-27.555c-4.171-5.451-11.503-10.366-17.507-13.795
				c-3.969-2.266-8.915,0.658-8.807,5.227c0.145,6.147-0.439,13.748-3.485,18.831c-4.708,7.854,7.345,21.034,7.345,21.034
				L111.94,231.028z"/>
		</g>
	</g>
	<g>
		<g>
			<path fill="#EC008C" d="M142.422,270.331c0,0-12.788,77.31-17.116,78.408c-4.329,1.098-4.56-4.198-4.297-12.511
				c0.263-8.313,6.792-67.371,6.792-67.371L142.422,270.331z"/>
		</g>
		<g>
			<polygon fill="#74A1BD" points="145.241,258.441 142.422,270.331 127.801,268.857 129.015,256.806 			"/>
		</g>
		<g>
			<path fill="#2F1A31" d="M145.241,258.441c0,0,9.939-9.071,6.274-18.36c-1.976-5.01-6.328-10.777-9.919-15.028
				c-1.888-2.235-5.518-1.252-6.037,1.626c-0.827,4.582-2.871,10.374-7.759,15.036c-5.081,4.847,1.215,15.091,1.215,15.091
				L145.241,258.441z"/>
		</g>
	</g>
	<g>
		<path fill="#74A1BD" d="M90.834,310.927l-10.629,51.652c-1.441,7.005,5.389,13.364,14.354,13.364h46.051
			c8.328,0,14.955-5.525,14.522-12.111l-3.389-51.65c-0.401-6.119-6.784-10.918-14.522-10.918h-32.032
			C98.059,301.264,91.981,305.355,90.834,310.927z"/>
	</g>
	<g>
		<g>
			<path fill="#2F1A31" d="M463.377,364.096c0,0-0.101,3.986-2.797,5.111c-2.697,1.123-10.512,2.139-7.593,4.701
				c1.676,1.472,9.572,0.521,11.803,0.521c2.229,0,4.321,0.972,5.98-0.521c1.819-1.643,0-9.813,0-9.813s-1.928,1.003-3.655,0.958
				C464.621,364.988,463.377,364.096,463.377,364.096z"/>
		</g>
		<g>
			<path fill="#2F1A31" d="M494.352,364.095c0,0-0.101,3.987-2.799,5.111c-2.697,1.124-10.512,2.139-7.591,4.701
				c1.675,1.472,9.572,0.521,11.801,0.521c2.229-0.001,4.323,0.971,5.98-0.521c1.823-1.643-0.002-9.813-0.002-9.813
				s-1.924,1.003-3.653,0.958C495.595,364.988,494.352,364.095,494.352,364.095z"/>
		</g>
		<g>
			<path fill="#436E8E" d="M443.33,254.824c0,0-0.499,16.686,4.826,48.692c3.845,23.106,8.384,46.392,10.609,57.555
				c0.796,3.994,4.154,6.913,8.136,7.072l2.14,0.087c4.303,0.173,7.796-3.524,7.479-7.919l-5.401-75.523l-1.331-24.856
				L443.33,254.824z"/>
		</g>
		<g>
			<path fill="#2F1A31" d="M492.043,269.508c-0.244,2.03-11.727,1.783-25.786,0.004s-25.004-4.825-24.758-6.855
				c0.247-2.03,11.587-2.278,25.646-0.498C481.203,263.938,492.29,267.477,492.043,269.508z"/>
		</g>
		<g>
			<path fill="#436E8E" d="M459.469,266.741l30.017,96.42c1.256,4.036,4.89,6.802,9.029,6.872l1.803,0.031
				c4.261,0.073,7.518-3.865,6.74-8.151l-16.419-90.6c-0.239-1.076-1.033-1.933-2.073-2.232
				C482.938,267.457,458.919,262.753,459.469,266.741z"/>
		</g>
		<g>
			<path fill="#5200FF" d="M487.347,213.994c0,0-3.991-11.235-18.219-10.725c-14.225,0.511-24.97,19.206-27.63,59.387
				c0,0,23.296-5.109,50.586,6.809C492.085,269.465,493.596,230.371,487.347,213.994z"/>
		</g>
		<g>
			<path fill="#5200FF" d="M497.34,213.318l-10.078,6.451c0,0-25.907,2.592-32.782,1.345c-6.879-1.249-7.95-6.305-7.95-6.305
				s6.542-8.975,18.991-11.203c1.172-0.212,2.351-0.246,3.608-0.336c2.111-0.15,4.223-0.085,6.292,0.138
				C487.722,204.736,497.34,213.318,497.34,213.318z"/>
		</g>
		<g>
			<path fill="#020202" d="M472.885,309.837l-6.453-19.623c-1.453-4.412-4.438-8.096-8.407-10.37l0.252-0.437
				c4.076,2.336,7.144,6.118,8.634,10.649l6.454,19.623L472.885,309.837z"/>
		</g>
		<g>
			<g>
				<path fill="#FF0000" d="M459.373,200.768c-0.08-0.019-1.912-0.466-2.459-1.781c-0.286-0.694-0.156-1.495,0.389-2.382
					c0.243-0.395,0.467-0.751,0.672-1.078c1.425-2.272,1.905-3.038,1.533-4.815l0.16-0.035c0.387,1.843-0.141,2.686-1.554,4.938
					c-0.203,0.327-0.428,0.683-0.671,1.077c-0.517,0.839-0.641,1.59-0.376,2.23c0.513,1.236,2.325,1.68,2.345,1.684L459.373,200.768
					z"/>
			</g>
			<g>
				<path fill="#FF0000" d="M459.589,190.695c0,0,0.63,2.853-1.262,5.839c-1.888,2.986,0.167,5.169,2.729,4.021
					c2.561-1.148,3.536,2.116,6.81,0.312C471.139,199.062,459.589,190.695,459.589,190.695z"/>
			</g>
			<g>
				<path fill="#F7B686" d="M474.719,203.312c-1.414-0.152-2.644-1.04-3.205-2.346l-1.764-4.095l-0.513-1.189l-3.008-6.987
					l0.521,7.241l0.313,4.347l0.091,1.239c0.071,1.011-0.634,1.906-1.633,2.085l-0.017,0.003c-0.534,0.871-1.273,2.641,0.935,3.343
					c2.597,0.827,6.796-1.217,8.304-3.639C474.733,203.313,474.726,203.312,474.719,203.312z"/>
			</g>
			<g>
				<path fill="#2F1A31" d="M469.757,196.75c-0.001,0.041-0.003,0.08-0.007,0.12c-0.173,2.334-2.669,3.424-2.669,3.424l-0.019-0.012
					l-0.313-4.347c0.765-0.28,1.852-0.567,2.487-0.254C469.57,195.846,469.778,196.173,469.757,196.75z"/>
			</g>
			<g>
				<ellipse fill="#F7B686" cx="465.899" cy="189.853" rx="6.804" ry="8.394"/>
			</g>
			<g>
				<path fill="#F7B686" d="M471.795,191.119c-0.771,0.736-1.849,0.812-2.408,0.168c-0.559-0.642-0.388-1.76,0.383-2.495
					c0.772-0.736,1.849-0.813,2.408-0.168C472.735,189.265,472.564,190.382,471.795,191.119z"/>
			</g>
			<g>
				<path fill="#DB6B49" d="M462.236,195.284c0,0,2.323,0.054,4.648-0.763c0,0,0.194,2.291-2.325,2.444
					C463.096,197.056,462.236,195.284,462.236,195.284z"/>
			</g>
			<g>
				<path fill="#FFFFFF" d="M462.236,195.284c0,0,0.563,0.467,1.875,0.461c1.313-0.006,2.773-1.224,2.773-1.224
					S464.084,195.291,462.236,195.284z"/>
			</g>
			<g>
				<g>
					<path fill="#060633" d="M465.241,189.935c-0.045-0.013-0.082-0.045-0.103-0.093c-0.03-0.08,0.006-0.169,0.087-0.201
						c0.047-0.019,1.087-0.554,2.003,0.446c0.058,0.063,0.056,0.16-0.006,0.22c-0.063,0.059-0.147,0.042-0.219-0.005
						c-0.711-0.479-1.624-0.389-1.663-0.373C465.306,189.941,465.274,189.942,465.241,189.935z"/>
				</g>
			</g>
			<g>
				
					<ellipse transform="matrix(0.9995 -0.0322 0.0322 0.9995 -5.931 15.1082)" fill="#060633" cx="465.982" cy="191.649" rx="0.485" ry="0.67"/>
			</g>
			<g>
				<g>
					<path fill="#060633" d="M459.718,190.741c-0.046,0.005-0.095-0.009-0.129-0.046c-0.06-0.062-0.06-0.158,0.002-0.219
						c0.035-0.035,0.795-0.927,2.022-0.35c0.079,0.036,0.113,0.126,0.079,0.205c-0.036,0.078-0.12,0.095-0.205,0.078
						c-0.839-0.171-1.65,0.261-1.679,0.289C459.781,190.722,459.751,190.736,459.718,190.741z"/>
				</g>
			</g>
			<g>
				
					<ellipse transform="matrix(0.912 -0.4102 0.4102 0.912 -38.2029 206.0006)" fill="#060633" cx="461.054" cy="192.045" rx="0.485" ry="0.67"/>
			</g>
			<g>
				<path fill="#FF0000" d="M463.011,182.981c0,0,0.146,2.912,3.783,3.408c3.637,0.498,6.146,2.036,5.656,4.656
					c-0.487,2.621-6.352,8.055-2.043,10.161c4.311,2.106,3.393-1.821,8.063-0.911c4.672,0.911,5.515-5.327,2.298-8.947
					c-3.216-3.62-1.913-13.199-13.975-12.774c-12.063,0.425-7.644,10.047-7.644,10.047S463.018,186.196,463.011,182.981z"/>
			</g>
			<g>
				<path fill="#FFFFFF" d="M471.65,201.745c-0.907-0.367-1.465-0.913-1.659-1.622c-0.529-1.953,1.747-4.904,3.754-7.506
					c0.529-0.686,1.028-1.333,1.473-1.95c1.228-1.714,1.332-3.679,0.28-5.254c-1.149-1.727-3.346-2.457-5.73-1.904
					c-2.372,0.55-4.004,0.054-4.956-0.46c-1.035-0.559-1.497-1.237-1.518-1.266l0.083-0.056c0.019,0.028,1.892,2.725,6.369,1.686
					c2.425-0.563,4.66,0.185,5.835,1.946c1.059,1.586,0.95,3.642-0.284,5.364c-0.442,0.62-0.943,1.267-1.473,1.953
					c-1.994,2.585-4.254,5.515-3.736,7.422c0.186,0.688,0.71,1.197,1.599,1.556L471.65,201.745z"/>
			</g>
			<g>
				<g>
					<path fill="#6F4975" d="M459.466,196.111c-1.021-0.378-1.922-1.507-2.402-3.02c-0.786-2.468-0.235-5.211,1.228-6.118
						c0.547-0.346,1.159-0.397,1.771-0.175c1.021,0.376,1.919,1.506,2.401,3.015l0,0c0.784,2.463,0.233,5.211-1.231,6.121
						c-0.327,0.206-0.68,0.307-1.04,0.307C459.952,196.242,459.709,196.198,459.466,196.111z M462.175,189.91
						c-0.453-1.426-1.283-2.48-2.219-2.827c-0.529-0.188-1.044-0.14-1.503,0.146c-1.354,0.84-1.849,3.431-1.1,5.771
						c0.451,1.422,1.279,2.481,2.217,2.826c0.522,0.184,1.044,0.14,1.501-0.144C462.425,194.836,462.92,192.247,462.175,189.91
						L462.175,189.91z"/>
				</g>
			</g>
			<g opacity="0.3">
				<path fill="#FFFFFF" d="M470.333,188.213c0.547,2.396-0.325,4.969-1.947,5.746c-1.623,0.778-3.38-0.534-3.927-2.931
					c-0.546-2.396,0.327-4.97,1.949-5.748C468.029,184.503,469.788,185.815,470.333,188.213z"/>
			</g>
			<g opacity="0.3">
				<path fill="#FFFFFF" d="M462.527,190.015c0.547,2.408-0.182,5.019-1.627,5.832c-1.447,0.813-3.063-0.479-3.61-2.888
					c-0.547-2.408,0.182-5.019,1.629-5.831C460.364,186.314,461.98,187.607,462.527,190.015z"/>
			</g>
			<g>
				<g>
					<path fill="#6F4975" d="M466.122,193.993c-1.046-0.508-1.845-1.655-2.192-3.147c-0.594-2.56,0.374-5.325,2.163-6.165
						c0.718-0.337,1.481-0.333,2.21,0.017c1.044,0.508,1.84,1.654,2.182,3.142l0,0c0.598,2.565-0.371,5.33-2.16,6.166
						c-0.354,0.171-0.72,0.255-1.087,0.255C466.863,194.26,466.489,194.167,466.122,193.993z M466.219,184.953
						c-1.663,0.783-2.558,3.395-1.994,5.823c0.322,1.383,1.082,2.486,2.03,2.944c0.636,0.298,1.311,0.303,1.942,0.014
						c1.664-0.783,2.559-3.395,1.995-5.824l0,0c-0.32-1.378-1.078-2.477-2.022-2.94c-0.326-0.158-0.66-0.237-0.995-0.237
						C466.854,184.733,466.532,184.808,466.219,184.953z"/>
				</g>
			</g>
			<g>
				<g>
					<path fill="#6F4975" d="M462.205,190.912c0.065,0,0.128-0.021,0.182-0.065l0,0c0.031-0.026,0.764-0.599,2.029-0.359
						c0.146,0.022,0.3-0.07,0.331-0.223c0.032-0.153-0.07-0.302-0.222-0.328c-1.53-0.319-2.459,0.441-2.5,0.473
						c-0.119,0.101-0.135,0.281-0.034,0.398C462.045,190.877,462.124,190.912,462.205,190.912z"/>
				</g>
			</g>
		</g>
		<g>
			<path fill="#2F1A31" d="M497.484,213.541c0.351,1.016-2.288,2.914-5.888,4.243c-3.601,1.328-6.805,1.582-7.153,0.566
				c-0.35-1.014,2.287-2.913,5.887-4.241C493.931,212.781,497.135,212.526,497.484,213.541z"/>
		</g>
		<g>
			<path fill="#436E8E" d="M480.739,267.308c0,0-28.06-5.361-37.156-2.832l4.363,6.465l16.216,0.917L480.739,267.308z"/>
		</g>
		<g>
			<g>
				<path fill="#CED891" d="M508.256,292.521c1.128,7.179-48.615,32.371-55.151,31.181c-3.11-0.566-11.508-18.513-19.834-38.58
					c-5.69-13.716-11.347-28.422-15.262-39.249c-2.388-6.607-4.128-11.771-4.825-14.383c-3.525-13.149,3.632-22.081,3.632-22.081
					s7.37-8.563,15.523-8.777c8.154-0.213,16.248,4.493,20.655,8.837c0.993,0.979,4.283,5.362,8.799,11.649
					c6.229,8.674,14.791,20.977,22.868,32.959C496.733,271.986,507.733,289.188,508.256,292.521z"/>
			</g>
			<g>
				<path fill="#5200FF" d="M425.562,195.788l-2.156-3.183l-7.404,4.186l1.291,3.082c1.058,2.528,0.837,5.411-0.598,7.744
					c-1.616,2.626-3.425,6.147-3.202,8.444c0,0,16.946-0.357,25.22-14.667c0,0-3.034-0.958-6.527-1.467
					C429.495,199.534,427.087,198.039,425.562,195.788z"/>
			</g>
			<g>
				<g>
					<path fill="#FF0000" d="M403.052,196.515l1.944,5.804c0.81,2.421,3.626,3.502,5.847,2.247l21.72-12.281
						c2.16-1.221,2.729-4.075,1.202-6.031l-3.739-4.791c-1.237-1.584-3.447-2.025-5.196-1.036l-19.925,11.265
						C403.215,192.649,402.435,194.67,403.052,196.515z"/>
				</g>
				<g>
					
						<rect x="400.726" y="197.896" transform="matrix(0.2827 0.9592 -0.9592 0.2827 482.5564 -249.2274)" fill="#C4634D" width="14.387" height="0.285"/>
				</g>
				<g>
					
						<rect x="405.329" y="195.384" transform="matrix(0.3527 0.9357 -0.9357 0.3527 449.941 -259.4088)" fill="#C4634D" width="14.3" height="0.284"/>
				</g>
				<g>
					
						<rect x="411.016" y="192.216" transform="matrix(0.4716 0.8818 -0.8818 0.4716 390.5287 -267.0276)" fill="#C4634D" width="14.132" height="0.283"/>
				</g>
				<g>
					
						<rect x="421.33" y="186.298" transform="matrix(0.661 0.7504 -0.7504 0.661 285.1785 -258.3734)" fill="#C4634D" width="14.439" height="0.284"/>
				</g>
				<g>
					
						<rect x="416.329" y="189.194" transform="matrix(0.5764 0.8171 -0.8171 0.5764 334.0591 -265.805)" fill="#C4634D" width="14.198" height="0.283"/>
				</g>
			</g>
			<g>
				<path fill="#FF0000" d="M484.661,254.077c0,0-9.983,21.317-51.391,31.044c-5.69-13.716-11.347-28.422-15.262-39.249
					c0,0,27.767-6.886,43.784-24.754C468.022,229.792,476.584,242.095,484.661,254.077z"/>
			</g>
			<g>
				<path fill="#C5CC7D" d="M443.335,320.495c0,0,5.126,9.448,7.618,9.248c2.491-0.2,57.066-26.932,62.797-34.077
					c0,0,0.614-6.209-0.803-9.099c-1.418-2.891-5.182-2.499-9.841,0.135C498.449,289.337,440.924,316.485,443.335,320.495z"/>
			</g>
		</g>
		<g>
			<g>
				<path fill="#F7B686" d="M472.764,248.646l-0.122-7.364c-0.015-1.007,0.759-1.852,1.764-1.923
					c5.105-0.364,8.678-1.948,10.636-4.718c2.72-3.844,2.432-9.816,1.674-13.959c-0.387-2.118,0.313-3.536,2.873-4.894
					c0,0,2.202-1.213,4.919-1.675c1.088-0.186,2.168,0.252,2.447,1.319c0.439,1.67,1.008,4.269,1.279,7.326
					c0.645,7.263-0.756,13.58-4.051,18.271c-4.044,5.755-10.562,8.939-19.393,9.48C473.708,250.576,472.78,249.732,472.764,248.646z
					"/>
			</g>
		</g>
		<g opacity="0.5">
			<path fill="#E08B65" d="M491.538,239.11c-0.358,0-0.681-0.105-0.941-0.316c-0.803-0.647-0.715-2.092,0.192-3.222
				c0.432-0.533,0.98-0.923,1.55-1.095c0.601-0.184,1.155-0.106,1.557,0.22c0.803,0.646,0.716,2.092-0.192,3.22
				c-0.431,0.535-0.979,0.924-1.55,1.098C491.94,239.078,491.734,239.11,491.538,239.11z M492.952,234.874
				c-0.147,0-0.306,0.025-0.472,0.076c-0.473,0.144-0.936,0.475-1.307,0.932c-0.725,0.902-0.85,2.06-0.268,2.528
				c0.273,0.218,0.664,0.264,1.104,0.131c0.474-0.144,0.938-0.476,1.307-0.933l0,0c0.728-0.902,0.85-2.06,0.269-2.526
				C493.417,234.944,493.199,234.874,492.952,234.874z"/>
		</g>
		<g>
			<g>
				<g>
					<path fill="#F7B686" d="M476.279,238.893c0,0-1.792-5.427-4.862-6.756c-3.069-1.327-7.997-0.705-6.269,0.523
						c1.728,1.228,4.371,2.187,4.371,2.187s-5.741-1.783-5.577-0.26c0.163,1.522,5.172,3.024,5.172,3.024s-6.999-1.576-6.378-0.188
						c0.621,1.388,5.946,2.549,5.946,2.549s-6.57-1.207-5.812,0.388c0.76,1.597,5.436,0.963,5.601,2.485
						c0.164,1.523,1.332,7.517,5.623,7.577L476.279,238.893z"/>
				</g>
			</g>
			<g>
				<path fill="#DD8964" d="M471.564,236.107c-0.416-0.876-2.049-1.136-2.064-1.139l0.036-0.244
					c0.073,0.011,1.779,0.283,2.251,1.278L471.564,236.107z"/>
			</g>
			<g>
				<path fill="#DD8964" d="M471.593,239.129c-0.871-1.164-2.479-1.393-2.496-1.395l0.032-0.244c0.072,0.009,1.729,0.244,2.66,1.491
					L471.593,239.129z"/>
			</g>
			<g>
				<path fill="#DD8964" d="M470.986,241.371c-0.361-0.968-2.302-1.274-2.321-1.276l0.036-0.244
					c0.086,0.014,2.102,0.331,2.518,1.434L470.986,241.371z"/>
			</g>
		</g>
		<g>
			<g>
				<path fill="#F7B686" d="M414.429,244.072c0,0-1.944-3.79,1.529-5.539c4.424-2.229,12.073-0.763,9.287,0.688
					c-2.468,1.286-4.415,1.708-4.415,1.708s8.066-1.804,7.843,0.453c-0.221,2.257-8.901,4.177-8.901,4.177s10.013-1.383,9.112,0.683
					c-0.899,2.064-8.771,3.856-8.771,3.856s9.714-1.879,8.612,0.494c-1.102,2.374-6.322,2.328-8.536,2.813
					c-2.095,0.459-3.068-0.742-3.367-2.794c0,0-1.483-1.87-1.341-3.26c0.058-0.532-0.525-0.923-0.648-1.279
					C414.596,245.39,414.429,244.072,414.429,244.072z"/>
			</g>
		</g>
	</g>
	<g>
		<polygon fill="#DEEBE9" points="406.114,349.118 236.596,350.188 210.017,255.577 198.163,213.372 179.954,148.563 
			342.178,135.879 		"/>
	</g>
	<g>
		<g>
			<path fill="#00DEFF" d="M57.322,372.237c0,0-10.481-10.688-6.875-16.772c3.607-6.087,9.693,13.074,9.693,13.074
				s-3.156-22.657,3.381-23.052c6.538-0.393,0,23.052,0,23.052s2.423-5.467,4.79-5.805c2.367-0.339,1.691,4.635-2.535,9.503H57.322z
				"/>
		</g>
		<g>
			<path fill="#5170C2" d="M58.073,372.506c-0.494-0.504-12.047-12.413-7.854-19.489c0.664-1.118,1.46-1.634,2.367-1.528
				c1.808,0.205,3.932,3.061,6.312,8.484c0.725,1.652,1.368,3.304,1.871,4.67c-0.577-5.931-1.248-17.746,2.018-21.733
				c0.708-0.864,1.574-1.334,2.57-1.395c0.974-0.062,1.77,0.289,2.372,1.034c2.936,3.634,0.282,16.474-1.175,22.481
				c1.086-1.762,2.63-3.727,4.206-3.952c0.747-0.105,1.341,0.173,1.674,0.784c0.952,1.747-0.361,6.199-4.207,10.627l-0.579-0.504
				c3.78-4.352,4.816-8.462,4.112-9.756c-0.179-0.329-0.461-0.452-0.891-0.392c-2.028,0.29-4.396,4.689-5.137,6.359l-0.72-0.258
				c0.014-0.052,1.446-5.217,2.408-10.87c1.257-7.395,1.157-12.249-0.288-14.038c-0.444-0.55-1.008-0.794-1.729-0.751
				c-0.785,0.047-1.447,0.412-2.022,1.115c-4.124,5.036-1.483,24.399-1.456,24.595l-0.746,0.169
				c-1.367-4.306-5.593-15.558-8.679-15.909c-0.589-0.065-1.118,0.312-1.619,1.158c-3.895,6.571,7.625,18.441,7.741,18.56
				L58.073,372.506z"/>
		</g>
	</g>
	<g>
		<path fill="#CED891" d="M380.943,165.299c-24.479,0.343-28.587,13.283-28.587,13.283l-50.237-7.29
			c1.215-19.194,11.141-36.81,23.725-45.504h34.411c7.052,0,13.152,4.913,14.652,11.803L380.943,165.299z"/>
	</g>
	<g>
		<g>
			<g>
				<path fill="#436E8E" d="M306.442,244.716L306.442,244.716c2.343,0.704,4.811-0.624,5.514-2.968l7.479-24.907
					c0.702-2.341-0.626-4.81-2.968-5.513l0,0c-2.342-0.702-4.809,0.626-5.512,2.967l-7.479,24.907
					C302.773,241.545,304.101,244.014,306.442,244.716z"/>
			</g>
			<g>
				<path fill="#436E8E" d="M296.097,210.909l36.317,10.903c2.93,0.879,6.02-0.783,6.9-3.714l2.631-8.76l-46.931-14.091
					l-2.631,8.761C291.505,206.939,293.166,210.029,296.097,210.909z"/>
			</g>
			<g>
				
					<rect x="295.036" y="195.104" transform="matrix(-0.9578 -0.2876 0.2876 -0.9578 568.412 481.0457)" fill="#96A7E2" width="49.001" height="7.345"/>
			</g>
			<g>
				<path fill="#2F1A31" d="M353.61,182.612c-0.077,1.11-0.48,2.222-1.254,3.188c-3.587,4.494-7.603,10.676-8.301,16.504
					l-46.929-14.091c0,0,0.93-7.288,3.565-14.227c0.373-0.973,0.852-1.874,1.427-2.693c0.307-0.442,0.641-0.859,1.001-1.253
					c2.111-2.315,26.112,1.241,40.359,5.768C350.307,177.978,353.67,181.776,353.61,182.612z"/>
			</g>
		</g>
		<g>
			<g>
				<path fill="#F7B686" d="M415.299,301.352L415.299,301.352c0.606-0.05,1.143,0.406,1.193,1.015l0.769,9.43
					c0.05,0.607-0.409,1.145-1.014,1.195l0,0c-0.608,0.05-1.146-0.406-1.195-1.015l-0.769-9.43
					C414.231,301.939,414.69,301.401,415.299,301.352z"/>
			</g>
			<g>
				<path fill="#F7B686" d="M412.469,301.581L412.469,301.581c0.608-0.049,1.145,0.407,1.194,1.016l0.858,10.546
					c0.049,0.608-0.406,1.145-1.013,1.194l0,0c-0.608,0.05-1.145-0.407-1.195-1.015l-0.86-10.546
					C411.405,302.169,411.863,301.631,412.469,301.581z"/>
			</g>
			<g>
				<path fill="#F7B686" d="M411.263,296.155l0.325,0.22c0.614,0.41,0.779,1.246,0.367,1.858l-3.999,5.964
					c-0.412,0.61-1.249,0.776-1.858,0.366l-0.328-0.22c-0.613-0.411-0.777-1.248-0.367-1.86l4.001-5.962
					C409.812,295.909,410.649,295.745,411.263,296.155z"/>
			</g>
			<g>
				<path fill="#F7B686" d="M409.641,301.813L409.641,301.813c0.606-0.05,1.146,0.406,1.195,1.015l0.688,8.453
					c0.051,0.607-0.406,1.145-1.013,1.195l0,0c-0.608,0.049-1.146-0.407-1.195-1.015l-0.689-8.455
					C408.578,302.399,409.033,301.861,409.641,301.813z"/>
			</g>
			<g>
				<path fill="#F7B686" d="M416.778,295.824c0,0,3.643,5.184,2.339,9.49c-0.451,1.492-8.795,1.941-9.684,0.44
					c-0.892-1.501-0.8-7.256-0.8-7.256L416.778,295.824z"/>
			</g>
			<g>
				<path fill="#F7B686" d="M418.106,301.114L418.106,301.114c0.606-0.049,1.143,0.406,1.191,1.013l0.688,8.437
					c0.049,0.605-0.407,1.142-1.014,1.191l0,0c-0.606,0.05-1.143-0.406-1.191-1.013l-0.688-8.436
					C417.043,301.7,417.5,301.163,418.106,301.114z"/>
			</g>
		</g>
		<g>
			<g>
				<path fill="#F7B686" d="M308.26,235.92l-0.251,0.177c-0.428,0.305-1.029,0.202-1.331-0.227l-3.362-4.74
					c-0.303-0.428-0.201-1.027,0.227-1.33l0.25-0.179c0.43-0.304,1.028-0.201,1.332,0.228l3.361,4.739
					C308.789,235.018,308.686,235.616,308.26,235.92z"/>
			</g>
			<g>
				<path fill="#F7B686" d="M310.557,234.29l-0.219,0.154c-0.438,0.311-1.048,0.207-1.357-0.23l-4.375-6.171
					c-0.311-0.438-0.206-1.048,0.23-1.358l0.22-0.154c0.436-0.312,1.048-0.207,1.357,0.231l4.376,6.17
					C311.098,233.369,310.996,233.979,310.557,234.29z"/>
			</g>
			<g>
				<path fill="#F7B686" d="M314.257,238.419l-0.395-0.022c-0.737-0.041-1.304-0.676-1.265-1.412l0.397-7.169
					c0.041-0.735,0.675-1.305,1.413-1.264l0.393,0.021c0.736,0.04,1.305,0.678,1.265,1.413l-0.397,7.168
					C315.627,237.891,314.991,238.459,314.257,238.419z"/>
			</g>
			<g>
				<path fill="#F7B686" d="M312.763,232.727L312.763,232.727c-0.498,0.353-1.192,0.233-1.545-0.264l-4.907-6.919
					c-0.353-0.497-0.234-1.192,0.263-1.545l0,0c0.498-0.352,1.193-0.233,1.546,0.263l4.905,6.919
					C313.378,231.679,313.26,232.373,312.763,232.727z"/>
			</g>
			<g>
				<path fill="#F7B686" d="M309.68,241.517c0,0-5.775-2.6-6.854-6.968c-0.375-1.513,5.309-7.799,6.841-6.962
					c1.531,0.837,5.652,7.475,5.652,7.475L309.68,241.517z"/>
			</g>
			<g>
				<path fill="#F7B686" d="M306.002,237.531l-0.32,0.228c-0.41,0.289-0.979,0.192-1.27-0.217l-2.705-3.813
					c-0.289-0.408-0.192-0.979,0.217-1.27l0.318-0.226c0.408-0.289,0.979-0.193,1.271,0.216l2.704,3.813
					C306.506,236.671,306.408,237.242,306.002,237.531z"/>
			</g>
		</g>
		<g>
			<g>
				<path fill="#F7B686" d="M407.222,299.704c-4.288-11.595-11.349-27.918-20.649-39.846c-2.154-2.764-3.019-3.786-4.502-5.212
					c-1.194-1.148-0.53-4.559,1.411-6.622c1.821-1.937,5.282-2.636,6.002-2.113c1.223,0.888,2.784,2.798,5.237,5.838
					c8.517,10.566,15.861,25.202,22.533,44.828L407.222,299.704z"/>
			</g>
		</g>
		<g opacity="0.5">
			<path fill="#E08B65" d="M402.452,272.23c-0.297,0-0.606-0.094-0.913-0.279c-0.473-0.287-0.88-0.767-1.145-1.348
				c-0.56-1.23-0.304-2.557,0.571-2.954c0.874-0.396,2.04,0.279,2.602,1.511l0,0c0.561,1.231,0.305,2.555-0.57,2.953
				C402.824,272.192,402.64,272.23,402.452,272.23z M401.505,267.996c-0.12,0-0.239,0.023-0.349,0.072
				c-0.643,0.293-0.796,1.345-0.342,2.345c0.227,0.497,0.57,0.904,0.963,1.146c0.369,0.222,0.734,0.271,1.029,0.136
				c0.643-0.293,0.795-1.345,0.342-2.344C402.779,268.538,402.09,267.996,401.505,267.996z"/>
		</g>
		<g>
			<path fill="#F7B686" d="M362.716,240.93l-1.282-5.573l-0.372-1.622l-2.196-9.54l-1.07,9.247l-0.641,5.551l-0.203,1.756
				c-0.139,1.191-0.888,1.39-1.851,2.364c-0.393,0.395-2.883,2.776-0.356,4.124c3.145,1.68,9.39-0.044,11.913-2.723
				C366.638,244.508,363.131,242.73,362.716,240.93z"/>
		</g>
		<g>
			
				<ellipse transform="matrix(-0.9791 -0.2034 0.2034 -0.9791 664.2853 523.6746)" fill="#F7B686" cx="359.048" cy="227.708" rx="8.31" ry="10.019"/>
		</g>
		<g>
			<path fill="#2F1A31" d="M354.639,223.88c-4.749-0.175-6.844-3.08-6.711-5.615c0.171-3.25,2.428-5.973,4.719-4.589
				c2.289,1.383,1.488-1.651,3.801-1.796c4.319-0.269,4.896,2.833,8.384,3.241c4.602,0.539,9.294,8.622,5.007,13.948
				C369.839,229.069,358.392,224.018,354.639,223.88z"/>
		</g>
		<g>
			<path fill="#2F1A31" d="M350.664,220.293c0,0,4.701,5.25,3.828,7.942c-0.871,2.693-0.781,3.781,2.066,5.463
				c2.847,1.683,0.06,3.864,3.986,4.329c3.929,0.464,9.102-3.833,9.67-11.486c0.316-4.268-1.928-7.242-1.928-7.242L350.664,220.293z
				"/>
		</g>
		<g>
			
				<ellipse transform="matrix(-0.7725 -0.635 0.635 -0.7725 480.6569 630.095)" fill="#F7B686" cx="353.193" cy="228.951" rx="1.616" ry="1.808"/>
		</g>
		<g>
			<path fill="#2F1A31" d="M368.84,227.98c-0.049,0-0.096-0.03-0.113-0.079c-0.373-0.993-1.435-1.443-1.443-1.448
				c-0.064-0.026-0.094-0.098-0.066-0.16c0.025-0.063,0.097-0.091,0.158-0.065c0.049,0.02,1.17,0.494,1.58,1.587
				c0.023,0.064-0.009,0.134-0.074,0.158C368.869,227.979,368.854,227.98,368.84,227.98z"/>
		</g>
		<g>
			<path fill="#2F1A31" d="M367.245,225.874c-0.058,0-0.106-0.041-0.118-0.099c-0.015-0.066,0.028-0.131,0.095-0.144
				c0.011-0.004,1.27-0.274,1.313-1.284c0.003-0.067,0.063-0.117,0.128-0.116c0.066,0.003,0.12,0.061,0.116,0.128
				c-0.05,1.199-1.493,1.509-1.508,1.511C367.263,225.873,367.253,225.874,367.245,225.874z"/>
		</g>
		<g>
			<path fill="#2F1A31" d="M353.439,213.536c-0.103,0-0.207-0.021-0.313-0.061c-0.387-0.146-0.666-0.372-0.934-0.591
				c-0.499-0.403-0.931-0.752-1.94-0.508c-0.066,0.018-0.131-0.024-0.147-0.09s0.025-0.131,0.09-0.147
				c1.129-0.272,1.646,0.148,2.152,0.555c0.254,0.207,0.517,0.42,0.866,0.553c0.178,0.066,0.336,0.058,0.487-0.028
				c0.563-0.322,0.781-1.56,0.785-1.571c0.011-0.067,0.075-0.112,0.14-0.101c0.067,0.011,0.112,0.075,0.1,0.141
				c-0.008,0.056-0.239,1.365-0.903,1.744C353.698,213.501,353.571,213.536,353.439,213.536z"/>
		</g>
		<g>
			<path fill="#2F1A31" d="M364.756,214.7c-1.809,0-3.144-1.444-3.201-1.51c-0.045-0.049-0.042-0.127,0.007-0.172
				c0.051-0.046,0.128-0.042,0.173,0.008c0.015,0.016,1.456,1.574,3.29,1.418c0.062-0.005,0.124,0.044,0.132,0.111
				c0.005,0.066-0.046,0.126-0.112,0.132C364.947,214.696,364.849,214.7,364.756,214.7z"/>
		</g>
		<g>
			<path fill="#2F1A31" d="M353.113,230.778c-0.257,0-0.424-0.068-0.43-0.069c-0.029-0.014-0.043-0.048-0.03-0.079
				c0.013-0.029,0.048-0.043,0.077-0.03c0.041,0.018,1.042,0.421,1.875-0.974c0.019-0.027,0.055-0.037,0.081-0.019
				c0.03,0.016,0.038,0.052,0.02,0.08C354.161,230.602,353.525,230.778,353.113,230.778z"/>
		</g>
		<g>
			<g>
				<path fill="#F7B686" d="M308.757,240.872c-0.952-2.299,6.447-6.255,6.447-6.255c0.808-0.173,7.038,14.077,20.546,15.34
					c4.813,0.449,13.82-4.496,14.709-5.419c0.117-0.123,8.027,7.202,8.027,7.202c-1.611,1.674-5.169,7.617-11.514,9.889
					C333.849,266.329,312.524,256.31,308.757,240.872z"/>
			</g>
		</g>
		<g>
			<path fill="#2F1A31" d="M367.29,395.279c0,0-0.088,3.501-2.456,4.487c-2.369,0.987-9.233,1.879-6.668,4.129
				c1.472,1.292,8.406,0.457,10.364,0.457s3.798,0.854,5.252-0.457c1.6-1.441,0-8.616,0-8.616s-1.69,0.88-3.209,0.841
				C368.383,396.063,367.29,395.279,367.29,395.279z"/>
		</g>
		<g>
			<path fill="#436E8E" d="M346.854,289.637c0,0-0.472,15.798,4.569,46.104c3.639,21.879,7.937,43.925,10.044,54.494
				c0.755,3.78,3.933,6.545,7.701,6.696l2.026,0.082c4.075,0.163,7.381-3.338,7.084-7.498l-5.113-71.507l-1.261-23.536
				L346.854,289.637z"/>
		</g>
		<g>
			<path fill="#2F1A31" d="M389.722,395.279c0,0-0.087,3.501-2.455,4.487c-2.368,0.987-9.232,1.879-6.666,4.129
				c1.47,1.292,8.404,0.457,10.364,0.457c1.956,0,3.796,0.854,5.25-0.457c1.602-1.441,0-8.616,0-8.616s-1.689,0.88-3.209,0.841
				C390.816,396.063,389.722,395.279,389.722,395.279z"/>
		</g>
		<g>
			<path fill="#436E8E" d="M369.288,289.637c0,0-0.472,15.798,4.569,46.104c3.64,21.879,7.936,43.925,10.045,54.494
				c0.754,3.78,3.934,6.545,7.702,6.696l2.025,0.082c4.074,0.163,7.381-3.338,7.085-7.498l-5.114-71.507l-1.262-23.536
				L369.288,289.637z"/>
		</g>
		<g>
			<path fill="#92278F" d="M384.974,248.318c0,0-3.888-9.542-22.318-7.055c-26.579,3.59-20.69,27.646-17.933,65.079
				c0,0,25.639-7.377,51.165-5.542C395.888,300.801,392.864,262.624,384.974,248.318z"/>
		</g>
		<g>
			<path fill="#92278F" d="M394.672,249.458c0,0-2.586,8.852-10.901,11.912c-7.9,2.908-35.637,7.917-41.463,3.763
				c-12.86-9.17-7.449-16.427-7.449-16.427s9.406-2.547,21.621-6.848c3.039-1.07,8.003-1.646,11.604-1.546
				C387.671,240.851,394.672,249.458,394.672,249.458z"/>
		</g>
		<g>
			<path fill="#6F4975" d="M395.94,301.267c0.216,1.895-11.092,4.249-25.269,5.793c-14.179,1.543-25.732,1.178-25.948-0.717
				c-0.218-1.894,10.983-4.599,25.162-6.144C384.064,298.655,395.724,299.373,395.94,301.267z"/>
		</g>
		<g>
			<path fill="#2F1A31" d="M374.907,342.507c-0.072,0-0.137-0.05-0.151-0.125c-2.934-16.161,5.079-26.567,5.16-26.67
				c0.052-0.066,0.148-0.078,0.214-0.026c0.066,0.052,0.077,0.148,0.025,0.215c-0.081,0.103-8.009,10.406-5.098,26.427
				c0.015,0.083-0.041,0.163-0.124,0.179C374.925,342.507,374.918,342.507,374.907,342.507z"/>
		</g>
		<g>
			<path fill="#E6EDA6" d="M353.61,182.612c-0.61,0.461-1.339,0.827-2.206,1.023c-4.629,1.04-4.818-5.103-6.712-6.898
				c-1.886-1.797-3.869,0.377-8.596,0.945c-4.726,0.566-4.062-3.779-7.845-4.854c-3.777-1.071-5.289,2.962-7.557,2.03
				c-2.269-0.933-0.474-3.223-2.175-3.98c-1.7-0.757-3.308,4.252-9.07,3.969c-5.763-0.284-7.331-3.555-7.331-3.555l1.001-1.253
				c3.123-3.425,8.04-4.924,12.731-3.515l33.632,10.098C352.231,177.446,353.794,180.032,353.61,182.612z"/>
		</g>
	</g>
	<g>
		<g>
			<path fill="#92278F" d="M308.52,331.265c6.96,2.085,8.181,57.83,4.285,63.209c-1.856,2.561-21.669,2.378-43.366,1.214
				c-14.827-0.796-30.534-2.05-41.989-3.2c-6.992-0.702-12.401-1.364-15.058-1.863c-13.381-2.502-18.342-12.818-18.342-12.818
				s-4.537-10.347-1.206-17.792c3.331-7.445,11.071-12.709,16.896-14.809c1.312-0.474,6.686-1.545,14.308-2.899
				c10.514-1.869,25.309-4.272,39.604-6.378C285.024,332.78,305.289,330.296,308.52,331.265z"/>
		</g>
		<g>
			<path fill="#74A1BD" d="M185.549,364.031l-3.802,0.57l0.575,8.484l3.337,0.169c2.737,0.138,5.242,1.582,6.726,3.886
				c1.67,2.592,4.063,5.745,6.232,6.535c0,0,6.999-15.436-2.328-29.081c0,0-2.175,2.323-4.146,5.253
				C190.626,362.104,188.237,363.628,185.549,364.031z"/>
		</g>
		<g>
			<g>
				<path fill="#FF0000" d="M176.476,384.643l6.075,0.758c2.532,0.315,4.724-1.757,4.552-4.302l-1.687-24.895
					c-0.169-2.475-2.497-4.223-4.92-3.69l-5.935,1.302c-1.963,0.431-3.316,2.234-3.181,4.239l1.548,22.834
					C173.06,382.829,174.548,384.402,176.476,384.643z"/>
			</g>
			<g>
				
					<rect x="172.759" y="380.773" transform="matrix(0.9872 0.1597 -0.1597 0.9872 63.1494 -23.8519)" fill="#C4634D" width="14.387" height="0.283"/>
			</g>
			<g>
				
					<rect x="172.509" y="375.575" transform="matrix(0.9962 0.0865 -0.0865 0.9962 33.1868 -14.1374)" fill="#C4634D" width="14.298" height="0.284"/>
			</g>
			<g>
				
					<rect x="179.082" y="362.228" transform="matrix(0.0449 0.999 -0.999 0.0449 540.0902 173.6568)" fill="#C4634D" width="0.283" height="14.133"/>
			</g>
			<g>
				
					<rect x="178.268" y="350.078" transform="matrix(0.2692 0.9631 -0.9631 0.2692 474.4772 89.2754)" fill="#C4634D" width="0.283" height="14.439"/>
			</g>
			<g>
				
					<rect x="178.665" y="356.067" transform="matrix(0.1672 0.9859 -0.9859 0.1672 506.9664 126.1572)" fill="#C4634D" width="0.283" height="14.199"/>
			</g>
		</g>
		<g>
			<path fill="#FF0000" d="M263.654,335.928c0,0,14.91,18.217,5.786,59.76c-14.827-0.796-30.534-2.05-41.989-3.2
				c0,0,5.79-28.016-3.401-50.182C234.564,340.437,249.359,338.033,263.654,335.928z"/>
		</g>
		<g>
			<path fill="#5C3B63" d="M305.69,401.898c0,0,10.735-0.539,11.632-2.872c0.897-2.334,0.376-63.102-3.592-71.356
				c0,0-5.333-3.237-8.551-3.209c-3.221,0.028-4.492,3.593-4.131,8.933S301.032,402.341,305.69,401.898z"/>
		</g>
	</g>
	<g>
		<path fill="#FF0000" d="M332.6,324.462c-6.614-0.164-6.614-12.449-10.771-14.527c-4.158-2.079-0.433,7.37-6.832,8.881
			c-6.398,1.515-8.015-8.881-14.01-14.174c-5.995-5.291-2.403,5.482-10.341,3.025c-7.937-2.458-17.093-60.407-80.629-52.09
			l-11.854-42.205c31.683,1.2,138.796,12.173,140.484,105.633C338.647,319.005,339.214,324.624,332.6,324.462z"/>
	</g>
	<g>
		<path fill="#00DEFF" d="M212.496,202.409c0,0,48.495,2.728,73.865-31.702c0,0,2.836-4.64-3.907-7.103
			c-6.744-2.465-3.688-7.029-9.559-7.026c-5.87,0.001-21.6,25.143-42.017,21.783c-20.417-3.36-21.126,0.42-19.146,3.433
			c1.98,3.011-3.372,3.648-1.931,8.099C211.243,194.345,206.79,200.22,212.496,202.409z"/>
	</g>
	<g>
		<path fill="#00DEFF" d="M224.471,175.022c-5.719,0-9.449-0.898-9.657-0.949c-0.531-0.131-0.856-0.669-0.726-1.201
			c0.131-0.532,0.67-0.857,1.201-0.727l0,0c0.065,0.016,6.701,1.604,15.715,0.489c8.282-1.024,20.341-4.612,30.754-15.884
			c0.371-0.403,1.001-0.427,1.403-0.056c0.402,0.372,0.428,1,0.054,1.401c-10.844,11.741-23.415,15.463-32.05,16.518
			C228.733,174.91,226.479,175.022,224.471,175.022z"/>
	</g>
	<g>
		<path fill="#00DEFF" d="M267.401,199.993c-0.35,0-0.688-0.186-0.87-0.513c-0.265-0.481-0.09-1.083,0.389-1.348
			c20.784-11.486,20.847-25.999,20.845-26.144c-0.008-0.548,0.432-0.998,0.979-1.005c0.004,0,0.007,0,0.013,0
			c0.542,0,0.984,0.437,0.992,0.98c0.002,0.165,0.018,4.083-2.704,9.505c-2.479,4.931-7.813,12.127-19.164,18.4
			C267.728,199.952,267.564,199.993,267.401,199.993z"/>
	</g>
	<g>
		<path fill="#FF0000" d="M269.767,308.84c-0.708,0-1.32-0.528-1.408-1.246c-1.2-9.923-4.148-18.351-8.765-25.053
			c-3.67-5.328-8.403-9.593-14.068-12.674c-9.664-5.255-18.737-5.245-18.837-5.249c-0.003,0-0.007,0-0.011,0
			c-0.778,0-1.411-0.627-1.417-1.407c-0.005-0.782,0.624-1.422,1.408-1.427c0.396-0.003,9.911-0.009,20.212,5.593
			c6.061,3.296,11.124,7.857,15.049,13.557c4.879,7.083,7.989,15.938,9.247,26.319c0.092,0.777-0.462,1.482-1.238,1.576
			C269.88,308.838,269.823,308.84,269.767,308.84z"/>
	</g>
	<g>
		<path fill="#FF0000" d="M297.127,239.943c-0.336,0-0.671-0.118-0.943-0.358c-7.785-6.926-17.811-12.725-29.798-17.233
			c-9.635-3.624-20.545-6.428-32.43-8.333c-20.282-3.25-36.567-2.739-36.729-2.734c-0.787,0.029-1.439-0.585-1.465-1.368
			c-0.027-0.781,0.585-1.438,1.367-1.465c0.165-0.006,16.677-0.526,37.219,2.76c12.081,1.933,23.184,4.785,33.005,8.476
			c12.327,4.636,22.662,10.616,30.714,17.78c0.585,0.52,0.638,1.417,0.118,2.001C297.906,239.783,297.517,239.943,297.127,239.943z"
			/>
	</g>
	<g>
		<g>
			<path fill="#F7B686" d="M126.35,62.757c0,0-6.695-1.241-8.598-4.116c-1.567-2.372-1.111-7.217,2.786-9.727
				c1.996-1.285,7.428-1.306,8.691-1.422c3.59-0.333,7.046,7.522,7.046,7.522L126.35,62.757z"/>
		</g>
		<g>
			<g>
				<path fill="#F7B686" d="M189.365,71.036l-7.636-12.334l3.817,6.167l-3.811-6.173c-5.027,3.096-20.246,10.688-30.164,8.677
					c-7.72-1.565-14.084-10.731-15.705-13.819l-12.845,6.742c0.242,0.461,2.48,4.635,6.5,9.216
					c5.722,6.52,12.35,10.696,19.167,12.079c7.619,1.545,16.854,0.186,27.453-4.039C183.629,74.568,189.134,71.179,189.365,71.036z"
					/>
			</g>
		</g>
		<g>
			<path fill="#2F1A31" d="M148.938,184.895c0,0-1.128,7.362-4.13,11.115c-1.98,2.474-7.441,7.374-3.557,9.006
				c3.101,1.303,9.073-4.501,11.012-5.945c1.939-1.444,4.862-4.177,4.214-6.506c-1.343-4.825-0.901-10.891-0.901-10.891
				L148.938,184.895z"/>
		</g>
		<g>
			<path fill="#2F1A31" d="M163.935,179.185c0,0,1.501,7.295-0.01,11.857c-0.995,3.008-4.412,9.5-0.203,9.681
				c3.36,0.145,6.942-7.375,8.259-9.403c1.315-2.028,3.107-5.607,1.688-7.565c-2.938-4.057-4.63-9.897-4.63-9.897L163.935,179.185z"
				/>
		</g>
		<g>
			<g>
				<path fill="#FF0000" d="M161.83,184.34c-40.26-26.856-38.272-50.383-32.692-59.584c6.479-10.685,16.739-19.134,32.462-22.903
					c4.192-1.005,8.183-1.586,11.518-1.92c4.828-0.484,8.987,3.372,8.859,8.223l-0.36,13.701l0.031,0
					c-6.718-0.14-27.098,1.908-32.437,12.769c-1.111,2.257,25.991,34.087,24.98,39.799
					C173.046,180.886,165.767,186.965,161.83,184.34z"/>
			</g>
		</g>
		<g>
			<g>
				<path fill="#FF0000" d="M146.22,188.362c-4.63,0.023-8.322-3.866-8.049-8.488c0.607-10.276,2.516-27.765,8.499-40.978
					c3.395-7.494,8.79-14.307,16.037-20.252c5.464-4.482,12.005-8.488,19.439-11.906c12.366-5.685,21.271-4.892,21.271-4.892
					l12.625,10.77c-0.09,0.018,2.087,15.083-13.619,23.845c-16.085,8.971-28.366,2.301-34.885,15.059
					c-4.654,9.107-6.432,21.183-7.023,29.622c-0.283,4.036-3.636,7.167-7.682,7.188L146.22,188.362z"/>
			</g>
		</g>
		<g>
			<path fill="#020202" d="M139.699,165.701l-0.249-0.017c0.007-0.092,0.648-9.289,3.491-19.688
				c2.626-9.609,7.724-22.239,17.09-27.845l0.127,0.212c-5.13,3.07-12.24,10.368-16.977,27.694
				C140.346,156.433,139.705,165.61,139.699,165.701z"/>
		</g>
		<g>
			<path fill="#020202" d="M160.22,183.167l-0.249-0.002c0.102-14.309,4.782-25.355,4.83-25.464l0.228,0.098
				C164.982,157.909,160.321,168.91,160.22,183.167z"/>
		</g>
		<g>
			<path fill="#B400E6" d="M210.355,64.011c0,0-4.228-11.221-19.931-10.378c-15.704,0.842-26.543,4.395-28.823,48.22
				c0,0,13.217,13.063,45.893,15.056c4.831,0.295,10.683,1.961,10.95-2.873C218.975,104.41,216.994,86.024,210.355,64.011z"/>
		</g>
		<g>
			<path fill="#92278F" d="M224.151,65.932l-13.798,4.371c0,0-28.568,3.344-36.184,2.123s-9.791-7.242-9.791-7.242
				s7.952-9.242,21.665-11.919c1.288-0.254,2.626-0.447,4.014-0.571c2.33-0.206,4.569-0.418,6.854-0.179
				C219.253,54.858,224.151,65.932,224.151,65.932z"/>
		</g>
		<g>
			<path fill="#2F1A31" d="M224.151,65.932c0.739,1.645-2.494,3.189-6.456,4.658c-3.963,1.469-7.498,1.765-7.894,0.662
				c-0.396-1.103,2.493-3.189,6.457-4.658C220.219,65.125,223.67,64.862,224.151,65.932z"/>
		</g>
		<g>
			<path fill="#F7B686" d="M192.888,50.578l-2.366-4.17l-0.688-1.215l-4.047-7.139l1.354,7.687l0.813,4.614l0.258,1.459
				c0.173,0.991-0.38,1.329-0.922,2.342c-0.219,0.41-1.65,2.921,0.701,3.398c2.93,0.597,7.534-2.283,8.92-5.039
				C196.896,52.514,193.652,51.926,192.888,50.578z"/>
		</g>
		<g>
			<g>
				<path fill="#56335B" d="M179.053,36.513c0,0-0.079,1.959,0.915,4.178c0.992,2.218,2.106-4.011,2.106-4.011L179.053,36.513z"/>
			</g>
			<g>
				
					<ellipse transform="matrix(-0.9964 0.0847 -0.0847 -0.9964 376.3335 65.7069)" fill="#F7B686" cx="186.773" cy="40.833" rx="6.967" ry="8.401"/>
			</g>
			<g>
				<path fill="#2F1A31" d="M193.372,37.856l-3.37,0.379c-0.74,0.083-1.488-0.162-2.014-0.689c-0.907-0.909-1.838-1.273-4.886-0.486
					c-3.859,0.997-6.935-0.76-7.801-2.705c-0.883-1.984,0.8-3.828,2.97-3.265c2.172,0.563,0.801-1.683,2.625-2.352
					c3.407-1.25,4.656,1.313,7.513,0.596c3.746-0.94,11.126,0.448,9.374,7.785L193.372,37.856z"/>
			</g>
			<g>
				<g>
					<path fill="#060633" d="M186.341,40.568c-0.04-0.015-0.073-0.047-0.087-0.092c-0.023-0.074,0.019-0.153,0.093-0.175
						c0.043-0.014,1.032-0.422,1.788,0.557c0.049,0.061,0.04,0.149-0.021,0.198c-0.061,0.049-0.138,0.027-0.199-0.021
						c-0.61-0.488-1.448-0.476-1.485-0.464C186.4,40.579,186.368,40.577,186.341,40.568z"/>
				</g>
			</g>
			<g>
				
					<ellipse transform="matrix(0.9987 0.0513 -0.0513 0.9987 2.4093 -9.5289)" fill="#060633" cx="186.884" cy="42.184" rx="0.443" ry="0.61"/>
			</g>
			<g>
				<g>
					<path fill="#060633" d="M181.146,41.275c-0.033,0-0.065-0.018-0.088-0.054c-0.039-0.06-0.034-0.148,0.012-0.198
						c0.027-0.028,0.605-0.775,1.442-0.148c0.052,0.04,0.073,0.125,0.045,0.192c-0.028,0.068-0.09,0.077-0.148,0.054
						c-0.582-0.226-1.174,0.097-1.197,0.121C181.193,41.263,181.169,41.273,181.146,41.275z"/>
				</g>
			</g>
			<g>
				
					<ellipse transform="matrix(0.9431 -0.3324 0.3324 0.9431 -3.7818 63.0131)" fill="#060633" cx="182.297" cy="42.561" rx="0.443" ry="0.61"/>
			</g>
			<g>
				<path fill="#56335B" d="M197.783,37.12c0,0-1.201,5.407-4.349,6.473c0,0,1.791-4.312-4.207-5.39
					C189.227,38.203,194.102,36.304,197.783,37.12z"/>
			</g>
			<g>
				
					<ellipse transform="matrix(0.7049 0.7094 -0.7094 0.7049 85.2033 -125.0498)" fill="#F7B686" cx="192.873" cy="39.863" rx="1.355" ry="1.516"/>
			</g>
			<g>
				<path fill="#56335B" d="M189.227,38.203c0,0,1.342,4.023,0.674,4.986c-0.668,0.962-6.131,2.508-8.935,2.074l0,0
					c0.536,2.655,2.912,4.584,5.617,4.452c0.896-0.043,1.789-0.239,2.642-0.587l0,0c1.739-0.712,3.335-1.845,3.713-3.686
					c0.116-0.561-1.231-3.558-1.231-3.558s-0.651-1.789,0.21-2.983C191.918,38.902,190.437,38.06,189.227,38.203z"/>
			</g>
			<g>
				<path fill="#FFFFFF" d="M182.656,46.452c0,0,2.247,0.111,4.516-0.622c0,0,0.13,2.221-2.31,2.306
					C183.443,48.186,182.656,46.452,182.656,46.452z"/>
			</g>
			<g>
				<path fill="#2F1A31" d="M178.563,30.687l-0.034-0.188c0.901-0.168,0.825-0.903,0.821-0.935l0.188-0.023
					C179.539,29.551,179.644,30.484,178.563,30.687z"/>
			</g>
			<g>
				<path fill="#FFFFFF" d="M181.761,36.211c-0.011-0.001-1.138-0.081-2.331-0.423c-1.588-0.455-2.572-1.168-2.844-2.063
					c-0.19-0.624-0.171-1.073,0.056-1.376c0.362-0.481,1.172-0.471,1.888-0.46c0.106,0.001,0.211,0.004,0.309,0.003v0.095
					c-0.1-0.001-0.203-0.002-0.31-0.003c-0.693-0.01-1.478-0.021-1.811,0.423c-0.208,0.275-0.221,0.699-0.041,1.291
					c0.638,2.095,5.046,2.416,5.091,2.418L181.761,36.211z"/>
			</g>
			<g>
				<path fill="#FFFFFF" d="M187.228,30.298c-0.712,0-1.311-0.1-1.778-0.224c-1.106-0.292-1.712-0.755-1.737-0.775l0.058-0.075
					c0.006,0.005,0.619,0.474,1.708,0.76c1.004,0.265,2.633,0.421,4.683-0.326l0.033,0.09
					C189.07,30.157,188.07,30.298,187.228,30.298z"/>
			</g>
		</g>
		<g>
			<g>
				<path fill="#F7B686" d="M208.558,117.053l-5.19-12.743c10.536-4.293,9.217-24.854,7.661-32.392c0,0-0.213-2.309,5.092-3.954
					c2.986-0.925,5.114-0.871,6.156-0.745c0.433,0.053,0.786,0.366,0.894,0.789c0.593,2.31,2.488,10.277,2.048,19.177
					C224.253,106.656,215.627,114.174,208.558,117.053z"/>
			</g>
		</g>
		<g>
			<path fill="#F7B686" d="M207.197,105.928c0,0-20.112-0.155-18.257,6.623c0.917,3.349,11.601,5.158,15.558,4.258
				C208.455,115.91,207.197,105.928,207.197,105.928z"/>
		</g>
		<g>
			<g>
				<path fill="#EDF9F7" d="M156.484,121.776c1.813,7.076,12.146,23.328,32.884,16.457c20.735-6.871,32.585-27.718,17.263-34.764
					c-15.321-7.045-34.529,0-34.529,0C167.489,104.813,154.671,114.7,156.484,121.776z M198.229,105.566
					c0,0,5.083,0.069,6.996,2.161c1.911,2.091-3.099,5.657-7.567,3.524C193.192,109.121,194.9,106.541,198.229,105.566z"/>
			</g>
			<g>
				<path fill="#FF0000" d="M192.902,120.664c1.101-0.813,2.491-1.124,3.852-0.976c1.791,0.195,4.666,0.736,6.036,2.236
					c2.073,2.268-3.36,6.134-8.205,3.822C190.952,124.014,191.085,122.006,192.902,120.664z"/>
			</g>
			<g>
				<path fill="#74A1BD" d="M181.084,127.402c0.659-0.278,1.377-0.37,2.09-0.313c1.826,0.147,5.562,0.669,7.237,2.503
					c2.263,2.476-3.666,6.697-8.956,4.173C176.66,131.477,177.876,128.751,181.084,127.402z"/>
			</g>
			<g>
				<path fill="#74A1BD" d="M166.807,125.689c0.769-0.386,1.638-0.518,2.495-0.436c1.62,0.155,4.484,0.632,5.815,2.087
					c1.911,2.091-3.099,5.656-7.566,3.525C163.722,129.04,164.429,126.882,166.807,125.689z"/>
			</g>
			<g>
				<path fill="#9BBCB6" d="M163.911,114.017c0.951-0.486,2.025-0.675,3.088-0.577c2.002,0.188,5.626,0.773,7.298,2.603
					c2.375,2.6-3.851,7.032-9.405,4.382C160.161,118.168,161,115.506,163.911,114.017z"/>
			</g>
			<g>
				<path fill="#B2C9C6" d="M179.212,106.446c0.333-0.121,0.688-0.172,1.042-0.151c1.338,0.08,4.942,0.453,6.484,2.14
					c1.91,2.091-3.099,5.657-7.567,3.526C174.948,109.945,176.245,107.527,179.212,106.446z"/>
			</g>
		</g>
		<g>
			<path fill="#F7B686" d="M203.588,106.914c-1.913-2.232-11.162-5.022-11.816-3.469c-0.63,1.494,5.857,4.966,5.857,4.966
				S204.587,108.081,203.588,106.914z"/>
		</g>
		<g>
			<g>
				<path fill="#6F4975" d="M125.989,35.062c0,0,13.003,56.211,10.451,58.142c-2.553,1.931-4.174-1.616-6.307-7.356
					c-2.132-5.74-14.203-47.796-14.203-47.796L125.989,35.062z"/>
			</g>
			<g>
				<polygon fill="#74A1BD" points="124.552,26.184 125.989,35.062 115.929,38.051 113.388,29.501 				"/>
			</g>
			<g>
				<path fill="#9BBCB6" d="M124.552,26.184c0,0,4.004-10.193-0.991-15.527c-4.995-5.333-16.068-8.921-16.068-8.921
					s3.107,9.516-0.296,13.253c-3.404,3.737,6.191,14.512,6.191,14.512L124.552,26.184z"/>
			</g>
			<g>
				<path fill="#FF0000" d="M121.347,8.675c0,0,0.208,3.205-2.937,2.981s-2.605,3.39-5.286,4.406
					c-2.682,1.018-5.296-1.965-5.296-1.965s0.307-9.87-0.336-12.361C106.848-0.754,121.347,8.675,121.347,8.675z"/>
			</g>
		</g>
		<g>
			<g>
				<path fill="#F7B686" d="M116.721,57.89c0,0-0.682,3.956,2.932,4.553c4.606,0.76,15.289-3.667,3.37-4.587
					c-0.297-0.023,7.648-0.13,6.814-2.098c-0.835-1.968-7.723-1.481-7.723-1.481s8.39-0.795,7-2.399
					c-1.391-1.604-6.787-1.711-6.787-1.711s7.079-0.333,5.421-2.158c-1.66-1.825-6.341-0.316-8.47-0.13
					c-2.012,0.177-2.55,1.53-2.242,3.458c0,0-0.808,2.099-0.289,3.309c0.199,0.463-0.213,0.977-0.224,1.332
					C116.502,56.658,116.721,57.89,116.721,57.89z"/>
			</g>
		</g>
		<g>
			<path fill="#F7B686" d="M136.495,54.653l-2.16-0.311c-0.849,0.523-1.956,0.282-2.46-0.537c0,0-2.251-5.47-4.644-8.5
				c-3.145-3.982,0.323-4.234,2.869-1.907C136.987,49.692,135.937,52.046,136.495,54.653z"/>
		</g>
	</g>
	<g>
		<g>
			<path fill="#00DEFF" d="M333.007,394.938c0,0-10.483-10.687-6.875-16.772c3.604-6.087,9.691,13.074,9.691,13.074
				s-3.156-22.658,3.384-23.052c6.535-0.393,0,23.052,0,23.052s2.423-5.466,4.789-5.806c2.367-0.337,1.69,4.636-2.536,9.504H333.007
				z"/>
		</g>
		<g>
			<path fill="#5170C2" d="M333.758,395.207c-0.495-0.505-12.048-12.412-7.856-19.489c0.664-1.118,1.462-1.634,2.368-1.528
				c1.808,0.206,3.933,3.06,6.313,8.484c0.725,1.652,1.365,3.304,1.869,4.671c-0.577-5.933-1.247-17.747,2.018-21.734
				c0.71-0.865,1.573-1.335,2.57-1.395c0.972-0.061,1.771,0.289,2.372,1.034c2.934,3.634,0.281,16.473-1.177,22.481
				c1.087-1.763,2.631-3.726,4.208-3.951c0.741-0.105,1.339,0.171,1.674,0.783c0.95,1.747-0.362,6.199-4.206,10.627l-0.582-0.504
				c3.781-4.353,4.818-8.462,4.112-9.756c-0.18-0.328-0.462-0.452-0.891-0.391c-2.028,0.289-4.396,4.688-5.138,6.358l-0.719-0.257
				c0.013-0.054,1.445-5.217,2.408-10.872c1.258-7.394,1.159-12.248-0.288-14.037c-0.444-0.55-1.008-0.793-1.728-0.751
				c-0.786,0.047-1.449,0.412-2.022,1.115c-4.125,5.036-1.483,24.399-1.456,24.594l-0.745,0.17
				c-1.368-4.307-5.594-15.558-8.681-15.91c-0.587-0.065-1.117,0.313-1.619,1.159c-3.896,6.57,7.625,18.441,7.744,18.561
				L333.758,395.207z"/>
		</g>
	</g>
	<g>
		<g>
			<path fill="#00DEFF" d="M435.356,359.233c0,0-6.988-7.125-4.584-11.182c2.405-4.058,6.462,8.716,6.462,8.716
				s-2.104-15.105,2.255-15.368c4.358-0.262,0,15.368,0,15.368s1.616-3.644,3.192-3.869c1.578-0.226,1.129,3.091-1.689,6.335
				H435.356z"/>
		</g>
		<g>
			<path fill="#5170C2" d="M435.857,359.413c-0.021-0.02-2.02-2.068-3.657-4.658c-2.231-3.532-2.765-6.337-1.578-8.335
				c0.438-0.746,0.97-1.091,1.574-1.02c2.048,0.233,4.293,5.562,5.451,8.736c-0.383-3.966-0.82-11.805,1.351-14.455
				c0.473-0.578,1.049-0.891,1.713-0.931c0.649-0.039,1.179,0.192,1.58,0.689c1.958,2.423,0.189,10.982-0.782,14.989
				c0.723-1.176,1.754-2.484,2.804-2.635c0.495-0.07,0.895,0.114,1.115,0.522c0.636,1.165-0.24,4.133-2.802,7.084l-0.387-0.336
				c2.52-2.901,3.211-5.641,2.741-6.503c-0.119-0.219-0.31-0.303-0.595-0.261c-1.352,0.192-2.932,3.125-3.425,4.239l-0.48-0.172
				c0.009-0.035,0.967-3.479,1.605-7.248c0.839-4.929,0.772-8.166-0.192-9.359c-0.294-0.366-0.668-0.526-1.15-0.499
				c-0.525,0.03-0.966,0.274-1.35,0.744c-2.748,3.355-0.988,16.265-0.972,16.396l-0.495,0.112
				c-0.912-2.871-3.729-10.372-5.786-10.606c-0.393-0.046-0.747,0.207-1.08,0.772c-2.597,4.381,5.083,12.295,5.162,12.374
				L435.857,359.413z"/>
		</g>
	</g>
	<g>
		<g>
			<path fill="#00DEFF" d="M425.058,395.548c0,0-6.988-7.125-4.584-11.183s6.463,8.717,6.463,8.717s-2.104-15.105,2.253-15.367
				c4.359-0.263,0,15.367,0,15.367s1.616-3.645,3.193-3.87c1.578-0.226,1.128,3.091-1.69,6.336H425.058z"/>
		</g>
		<g>
			<path fill="#5170C2" d="M425.558,395.727c-0.02-0.02-2.019-2.068-3.655-4.658c-2.233-3.532-2.766-6.337-1.582-8.335
				c0.443-0.745,0.974-1.089,1.579-1.019c2.046,0.232,4.29,5.562,5.449,8.735c-0.383-3.965-0.82-11.803,1.35-14.455
				c0.474-0.577,1.052-0.89,1.714-0.931c0.649-0.038,1.181,0.193,1.582,0.69c1.958,2.422,0.188,10.982-0.785,14.988
				c0.724-1.175,1.753-2.484,2.804-2.634c0.497-0.071,0.895,0.114,1.118,0.522c0.634,1.164-0.243,4.132-2.804,7.083l-0.388-0.335
				c2.521-2.901,3.211-5.641,2.741-6.504c-0.118-0.219-0.308-0.303-0.594-0.26c-1.352,0.192-2.93,3.125-3.423,4.239l-0.482-0.172
				c0.009-0.035,0.967-3.479,1.605-7.249c0.839-4.929,0.771-8.165-0.191-9.359c-0.295-0.364-0.669-0.526-1.151-0.499
				c-0.525,0.031-0.967,0.274-1.35,0.743c-2.748,3.357-0.988,16.267-0.971,16.396l-0.496,0.113
				c-0.913-2.871-3.729-10.372-5.786-10.607c-0.396-0.045-0.747,0.209-1.08,0.773c-2.599,4.382,5.084,12.295,5.161,12.374
				L425.558,395.727z"/>
		</g>
	</g>
	<g>
		<g>
			<path fill="#00DEFF" d="M523.011,378.3c0,0-6.988-7.124-4.584-11.183c2.406-4.058,6.463,8.717,6.463,8.717
				s-2.104-15.106,2.255-15.367c4.359-0.264,0,15.367,0,15.367s1.616-3.645,3.194-3.869c1.575-0.227,1.125,3.09-1.691,6.335H523.011
				z"/>
		</g>
		<g>
			<path fill="#5170C2" d="M523.511,378.479c-0.02-0.02-2.019-2.069-3.656-4.657c-2.232-3.533-2.763-6.337-1.579-8.336
				c0.443-0.746,0.972-1.091,1.577-1.021c2.048,0.235,4.292,5.563,5.453,8.738c-0.386-3.966-0.824-11.806,1.348-14.456
				c0.472-0.577,1.05-0.891,1.714-0.931c0.649-0.037,1.179,0.193,1.58,0.689c1.956,2.424,0.187,10.984-0.785,14.989
				c0.726-1.175,1.755-2.484,2.806-2.635c0.497-0.071,0.893,0.115,1.116,0.522c0.636,1.165-0.241,4.133-2.804,7.084l-0.388-0.335
				c2.521-2.901,3.211-5.642,2.743-6.504c-0.119-0.219-0.312-0.303-0.594-0.262c-1.354,0.193-2.932,3.127-3.427,4.241l-0.48-0.173
				c0.011-0.034,0.966-3.479,1.607-7.247c0.838-4.931,0.771-8.166-0.193-9.359c-0.295-0.365-0.667-0.526-1.151-0.501
				c-0.523,0.031-0.967,0.275-1.348,0.744c-2.75,3.357-0.988,16.266-0.973,16.397l-0.496,0.11
				c-0.913-2.869-3.729-10.371-5.786-10.604c-0.389-0.045-0.745,0.207-1.078,0.771c-2.599,4.381,5.08,12.295,5.159,12.374
				L523.511,378.479z"/>
		</g>
	</g>
	<g>
		<g>
			<path fill="#00DEFF" d="M132.325,382.354c0,0-6.989-7.126-4.584-11.183c2.404-4.059,6.462,8.716,6.462,8.716
				s-2.104-15.104,2.255-15.367c4.358-0.264,0,15.367,0,15.367s1.616-3.645,3.192-3.869c1.579-0.226,1.128,3.09-1.69,6.336H132.325z
				"/>
		</g>
		<g>
			<path fill="#5170C2" d="M132.824,382.532c-0.02-0.021-2.019-2.07-3.655-4.658c-2.233-3.533-2.765-6.337-1.581-8.336
				c0.441-0.745,0.971-1.09,1.577-1.02c2.047,0.235,4.291,5.563,5.452,8.736c-0.384-3.965-0.822-11.804,1.349-14.455
				c0.473-0.576,1.049-0.89,1.713-0.929c0.648-0.041,1.18,0.193,1.581,0.688c1.958,2.424,0.188,10.982-0.784,14.988
				c0.725-1.176,1.754-2.484,2.806-2.635c0.497-0.07,0.893,0.115,1.115,0.523c0.634,1.164-0.241,4.132-2.804,7.084l-0.386-0.335
				c2.52-2.902,3.21-5.643,2.741-6.505c-0.12-0.219-0.309-0.301-0.594-0.261c-1.354,0.192-2.932,3.126-3.426,4.24l-0.48-0.173
				c0.01-0.034,0.965-3.478,1.605-7.246c0.838-4.931,0.772-8.167-0.191-9.36c-0.296-0.365-0.674-0.529-1.152-0.501
				c-0.524,0.032-0.965,0.274-1.349,0.745c-2.75,3.356-0.988,16.266-0.971,16.396l-0.497,0.111
				c-0.912-2.869-3.729-10.37-5.786-10.605c-0.395-0.046-0.746,0.208-1.08,0.772c-2.597,4.38,5.083,12.295,5.161,12.374
				L132.824,382.532z"/>
		</g>
	</g>
</g>
</svg>
