<?xml version="1.0" encoding="utf-8"?>
<!-- Generator: Adobe Illustrator 14.0.0, SVG Export Plug-In . SVG Version: 6.00 Build 43363)  -->
<!DOCTYPE svg PUBLIC "-//W3C//DTD SVG 1.1//EN" "http://www.w3.org/Graphics/SVG/1.1/DTD/svg11.dtd">
<svg version="1.1" id="Layer_1" xmlns="http://www.w3.org/2000/svg" xmlns:xlink="http://www.w3.org/1999/xlink" x="0px" y="0px"
	 width="541.875px" height="413.568px" viewBox="0 0 541.875 413.568" enable-background="new 0 0 541.875 413.568"
	 xml:space="preserve">
<g>
	<polyline fill="none" stroke="#0024A8" stroke-width="1.1995" stroke-miterlimit="10" stroke-dasharray="3.5974,3.5974" points="
		449.601,61.167 449.601,27.387 90.949,27.387 90.949,42.415 90.949,131.332 30.983,131.332 30.983,244.464 105.558,244.464 	"/>
	
		<line fill="none" stroke="#0024A8" stroke-width="1.1995" stroke-miterlimit="10" x1="62.127" y1="313.09" x2="62.127" y2="311.293"/>
	
		<line fill="none" stroke="#0024A8" stroke-width="1.1995" stroke-miterlimit="10" stroke-dasharray="3.4028,3.4028" x1="62.127" y1="307.89" x2="62.127" y2="268.753"/>
	<polyline fill="none" stroke="#0024A8" stroke-width="1.1995" stroke-miterlimit="10" points="62.127,267.049 62.127,265.25 
		60.328,265.25 	"/>
	
		<line fill="none" stroke="#0024A8" stroke-width="1.1995" stroke-miterlimit="10" stroke-dasharray="3.4073,3.4073" x1="56.92" y1="265.25" x2="4.104" y2="265.25"/>
	<polyline fill="none" stroke="#0024A8" stroke-width="1.1995" stroke-miterlimit="10" points="2.399,265.25 0.6,265.25 
		0.6,263.451 	"/>
	
		<line fill="none" stroke="#0024A8" stroke-width="1.1995" stroke-miterlimit="10" stroke-dasharray="3.6514,3.6514" x1="0.601" y1="259.801" x2="0.601" y2="203.206"/>
	<polyline fill="none" stroke="#0024A8" stroke-width="1.1995" stroke-miterlimit="10" points="0.601,201.378 0.601,199.579 
		2.4,199.579 	"/>
	
		<line fill="none" stroke="#0024A8" stroke-width="1.1995" stroke-miterlimit="10" stroke-dasharray="3.4725,3.4725" x1="5.871" y1="199.581" x2="73.587" y2="199.581"/>
	<polyline fill="none" stroke="#0024A8" stroke-width="1.1995" stroke-miterlimit="10" points="75.323,199.581 77.123,199.581 
		77.123,197.78 	"/>
	
		<line fill="none" stroke="#0024A8" stroke-width="1.1995" stroke-miterlimit="10" stroke-dasharray="3.5524,3.5524" x1="77.123" y1="194.23" x2="77.123" y2="46.803"/>
	<polyline fill="none" stroke="#0024A8" stroke-width="1.1995" stroke-miterlimit="10" points="77.123,45.028 77.123,43.228 
		78.921,43.228 	"/>
	
		<line fill="none" stroke="#0024A8" stroke-width="1.1995" stroke-miterlimit="10" stroke-dasharray="3.6278,3.6278" x1="82.549" y1="43.229" x2="204.071" y2="43.229"/>
	<polyline fill="none" stroke="#0024A8" stroke-width="1.1995" stroke-miterlimit="10" points="205.886,43.229 207.685,43.229 
		207.685,41.431 	"/>
	
		<line fill="none" stroke="#0024A8" stroke-width="1.1995" stroke-miterlimit="10" stroke-dasharray="3.5479,3.5479" x1="207.683" y1="37.883" x2="207.683" y2="4.172"/>
	<polyline fill="none" stroke="#0024A8" stroke-width="1.1995" stroke-miterlimit="10" points="207.683,2.4 207.683,0.6 
		209.483,0.6 	"/>
	
		<line fill="none" stroke="#0024A8" stroke-width="1.1995" stroke-miterlimit="10" stroke-dasharray="3.6076,3.6076" x1="213.089" y1="0.6" x2="269" y2="0.6"/>
	<polyline fill="none" stroke="#0024A8" stroke-width="1.1995" stroke-miterlimit="10" points="270.803,0.6 272.602,0.6 
		272.602,2.4 	"/>
	
		<line fill="none" stroke="#0024A8" stroke-width="1.1995" stroke-miterlimit="10" stroke-dasharray="3.7302,3.7302" x1="272.602" y1="6.129" x2="272.602" y2="41.562"/>
	<polyline fill="none" stroke="#0024A8" stroke-width="1.1995" stroke-miterlimit="10" points="272.602,43.427 272.602,45.226 
		274.401,45.226 	"/>
	
		<line fill="none" stroke="#0024A8" stroke-width="1.1995" stroke-miterlimit="10" stroke-dasharray="3.6413,3.6413" x1="278.042" y1="45.226" x2="334.485" y2="45.226"/>
	<polyline fill="none" stroke="#0024A8" stroke-width="1.1995" stroke-miterlimit="10" points="336.306,45.226 338.105,45.226 
		338.105,47.025 	"/>
	
		<line fill="none" stroke="#0024A8" stroke-width="1.1995" stroke-miterlimit="10" stroke-dasharray="4.1139,4.1139" x1="338.105" y1="51.14" x2="338.105" y2="57.312"/>
	<polyline fill="none" stroke="#0024A8" stroke-width="1.1995" stroke-miterlimit="10" points="338.105,59.368 338.105,61.167 
		339.903,61.167 	"/>
	
		<line fill="none" stroke="#0024A8" stroke-width="1.1995" stroke-miterlimit="10" stroke-dasharray="3.4804,3.4804" x1="343.382" y1="61.167" x2="446.062" y2="61.167"/>
	<polyline fill="none" stroke="#0024A8" stroke-width="1.1995" stroke-miterlimit="10" points="447.803,61.167 449.601,61.167 
		449.601,62.968 	"/>
	
		<line fill="none" stroke="#0024A8" stroke-width="1.1995" stroke-miterlimit="10" stroke-dasharray="3.27,3.27" x1="449.601" y1="66.235" x2="449.601" y2="84.221"/>
	<polyline fill="none" stroke="#0024A8" stroke-width="1.1995" stroke-miterlimit="10" points="449.601,85.855 449.601,87.654 
		451.399,87.654 	"/>
	
		<line fill="none" stroke="#0024A8" stroke-width="1.1995" stroke-miterlimit="10" stroke-dasharray="3.7876,3.7876" x1="455.188" y1="87.652" x2="506.327" y2="87.652"/>
	<polyline fill="none" stroke="#0024A8" stroke-width="1.1995" stroke-miterlimit="10" points="508.22,87.652 510.018,87.652 
		510.018,89.453 	"/>
	
		<line fill="none" stroke="#0024A8" stroke-width="1.1995" stroke-miterlimit="10" stroke-dasharray="3.6424,3.6424" x1="510.018" y1="93.095" x2="510.018" y2="142.273"/>
	<polyline fill="none" stroke="#0024A8" stroke-width="1.1995" stroke-miterlimit="10" points="510.018,144.093 510.018,145.894 
		508.22,145.894 	"/>
	
		<line fill="none" stroke="#0024A8" stroke-width="1.1995" stroke-miterlimit="10" stroke-dasharray="3.9035,3.9035" x1="504.318" y1="145.894" x2="467.228" y2="145.894"/>
	<polyline fill="none" stroke="#0024A8" stroke-width="1.1995" stroke-miterlimit="10" points="465.277,145.894 463.478,145.894 
		463.478,147.693 	"/>
	
		<line fill="none" stroke="#0024A8" stroke-width="1.1995" stroke-miterlimit="10" stroke-dasharray="3.5164,3.5164" x1="463.478" y1="151.207" x2="463.478" y2="283.074"/>
	
		<line fill="none" stroke="#0024A8" stroke-width="1.1995" stroke-miterlimit="10" x1="463.478" y1="284.834" x2="463.478" y2="286.633"/>
	<rect x="35.388" y="396.081" fill="#4779F6" width="466.923" height="17.487"/>
	<polygon fill="#006ED1" points="443,334.173 94.699,334.173 35.389,396.081 502.311,396.081 	"/>
	<path fill="#003296" d="M439.003,366.289c0,8.905-77.144,16.125-172.307,16.125c-95.163,0-172.307-7.22-172.307-16.125
		c0-8.91,77.145-16.128,172.307-16.128C361.86,350.161,439.003,357.379,439.003,366.289"/>
	<polygon fill="#054DDD" points="232.177,309.697 224.75,361.226 312.95,361.226 304.593,309.697 	"/>
	<rect x="194.114" y="368.652" fill="#054DDD" width="149.474" height="3.715"/>
	<polygon fill="#4779F6" points="224.75,361.226 194.113,368.652 343.587,368.652 312.95,361.226 	"/>
	<path fill="#130751" d="M441.156,283.169H96.543V104.446c0-7.883,6.389-14.271,14.271-14.271h316.07
		c7.884,0,14.271,6.389,14.271,14.271V283.169z"/>
	<path fill="#4779F6" d="M426.943,316.198H110.755c-7.85,0-14.213-6.363-14.213-14.212v-18.817h344.613v18.817
		C441.156,309.835,434.792,316.198,426.943,316.198"/>
	<rect x="109.258" y="101.313" fill="#B6CEFF" width="319.185" height="169.9"/>
	<path fill="#130751" d="M275.582,298.369c0,3.718-3.014,6.732-6.731,6.732s-6.731-3.015-6.731-6.732
		c0-3.717,3.014-6.731,6.731-6.731S275.582,294.652,275.582,298.369"/>
	<rect x="159.58" y="120.708" fill="#4779F6" width="113.022" height="131.925"/>
	<rect x="175.914" y="138.699" fill="#E4EAFE" width="80.354" height="7.194"/>
	<rect x="175.914" y="151.89" fill="#E4EAFE" width="80.354" height="7.198"/>
	<rect x="175.914" y="165.082" fill="#E4EAFE" width="80.354" height="7.197"/>
	<rect x="175.914" y="178.275" fill="#E4EAFE" width="80.354" height="7.196"/>
	<rect x="175.914" y="191.468" fill="#E4EAFE" width="80.354" height="7.196"/>
	<rect x="175.914" y="204.658" fill="#E4EAFE" width="80.354" height="7.196"/>
	<rect x="175.914" y="217.854" fill="#E4EAFE" width="80.354" height="7.195"/>
	<rect x="175.914" y="231.044" fill="#E4EAFE" width="80.354" height="7.198"/>
	<path fill="#130751" d="M348.705,168.561v-11.496h-7.155c-0.604-2.613-1.617-5.07-2.97-7.297l5.1-5.098l-8.131-8.13l-5.06,5.059
		c-2.212-1.38-4.656-2.42-7.261-3.054v-7.215h-11.496v7.155c-2.613,0.603-5.072,1.614-7.297,2.972l-5.099-5.098l-8.129,8.128
		l5.058,5.06c-1.378,2.213-2.421,4.655-3.054,7.261H286v11.495h7.153c0.605,2.614,1.614,5.071,2.972,7.298l-5.099,5.097l8.129,8.129
		l5.06-5.059c2.211,1.382,4.656,2.424,7.26,3.055v7.213h11.497v-7.154c2.613-0.603,5.07-1.614,7.295-2.97l5.1,5.098l8.129-8.13
		l-5.059-5.057c1.382-2.216,2.422-4.656,3.054-7.262H348.705z M317.351,173.733c-6.102,0-11.051-4.948-11.051-11.048
		c0-6.104,4.949-11.051,11.051-11.051c6.103,0,11.049,4.946,11.049,11.051C328.4,168.785,323.454,173.733,317.351,173.733"/>
	<path fill="#130751" d="M391.583,203.816v-9.053h-5.631c-0.477-2.055-1.274-3.989-2.339-5.742l4.012-4.016l-6.398-6.397
		l-3.983,3.983c-1.742-1.088-3.667-1.91-5.717-2.406v-5.679h-9.051v5.634c-2.059,0.475-3.992,1.269-5.744,2.336l-4.016-4.012
		l-6.398,6.4l3.981,3.982c-1.087,1.742-1.905,3.666-2.403,5.715h-5.68v9.055h5.632c0.476,2.055,1.273,3.989,2.341,5.741
		l-4.015,4.017l6.399,6.397l3.983-3.981c1.741,1.086,3.664,1.908,5.717,2.402v5.681h9.05v-5.63c2.059-0.48,3.992-1.272,5.744-2.34
		l4.014,4.012l6.4-6.398l-3.982-3.986c1.088-1.74,1.908-3.662,2.404-5.715H391.583z M366.899,207.89c-4.805,0-8.7-3.896-8.7-8.697
		c0-4.808,3.896-8.699,8.7-8.699s8.7,3.892,8.7,8.699C375.599,203.994,371.704,207.89,366.899,207.89"/>
	<path fill="#130751" d="M342.034,224.76v-6.423h-3.995c-0.337-1.46-0.902-2.833-1.659-4.073l2.849-2.852l-4.541-4.54l-2.828,2.827
		c-1.233-0.77-2.599-1.354-4.054-1.707v-4.027h-6.423v3.993c-1.459,0.339-2.832,0.904-4.075,1.661l-2.848-2.846l-4.542,4.54
		l2.826,2.825c-0.771,1.235-1.352,2.599-1.705,4.055h-4.029v6.421h3.995c0.339,1.46,0.903,2.835,1.661,4.075l-2.849,2.85l4.541,4.54
		l2.826-2.827c1.236,0.773,2.602,1.355,4.056,1.707v4.031h6.421v-3.998c1.462-0.338,2.833-0.899,4.077-1.658l2.848,2.848
		l4.541-4.541l-2.825-2.826c0.77-1.235,1.352-2.601,1.704-4.055H342.034z M324.523,227.646c-3.409,0-6.174-2.762-6.174-6.169
		c0-3.409,2.765-6.174,6.174-6.174c3.405,0,6.172,2.765,6.172,6.174C330.695,224.884,327.928,227.646,324.523,227.646"/>
	<g opacity="0.24">
		<g>
			<rect x="192.11" y="101.313" fill="none" width="105.989" height="169.9"/>
			<polygon fill="#FFFFFF" points="260.73,101.313 192.11,271.213 230.092,271.213 298.099,101.313 			"/>
		</g>
	</g>
	<g opacity="0.24">
		<g>
			<rect x="257.657" y="101.313" fill="none" width="80.446" height="169.9"/>
			<polygon fill="#FFFFFF" points="321.726,101.313 257.657,271.213 272.923,271.213 338.105,101.313 			"/>
		</g>
	</g>
	<path fill="#054DDD" d="M379.018,65.456c-0.389,0-0.781-0.087-1.154-0.267c-2.396-1.169-4.75-0.057-4.849-0.011
		c-1.302,0.629-2.88,0.101-3.522-1.196c-0.642-1.292-0.136-2.856,1.149-3.511c0.19-0.101,4.732-2.36,9.533-0.022
		c1.308,0.638,1.853,2.215,1.214,3.526C380.932,64.911,379.994,65.456,379.018,65.456"/>
	<path fill="#054DDD" d="M385.417,58.299c-0.522,0-1.051-0.154-1.512-0.479c-8.478-5.941-16.597-0.096-16.678-0.037
		c-1.174,0.863-2.822,0.612-3.688-0.558c-0.863-1.172-0.612-2.821,0.56-3.685c3.857-2.846,13.592-6.514,22.833-0.039
		c1.191,0.835,1.48,2.479,0.645,3.672C387.065,57.906,386.247,58.299,385.417,58.299"/>
	<path fill="#054DDD" d="M391.818,51.608c-0.563,0-1.132-0.179-1.611-0.55c-15.698-12.135-28.502-0.649-29.039-0.151
		c-1.068,0.984-2.735,0.921-3.722-0.144c-0.987-1.063-0.934-2.727,0.129-3.716c0.164-0.152,16.555-15.084,35.856-0.158
		c1.153,0.89,1.363,2.545,0.474,3.696C393.384,51.259,392.605,51.608,391.818,51.608"/>
	<path fill="#FCA232" d="M490.545,87.652c0,22.615-18.331,40.945-40.944,40.945s-40.943-18.33-40.943-40.945
		c0-22.613,18.33-40.943,40.943-40.943S490.545,65.039,490.545,87.652"/>
	<path fill="#F98816" d="M418.391,61.167c-6.066,7.141-9.733,16.384-9.733,26.485c0,22.615,18.33,40.945,40.943,40.945
		c11.038,0,21.048-4.375,28.409-11.476C431.117,110.496,420.456,79.775,418.391,61.167"/>
	<text transform="matrix(1 0 0 1 419.1313 97.9971)" fill="#FBFFFD" font-family="'Montserrat-Black'" font-size="35.1481">PSD</text>
	<path fill="#4779F6" d="M479.387,341.131l3.024,0.008c16.908-0.709,30.132-14.489,30.132-31.434s-13.224-30.727-30.132-31.436
		l-2.995-0.009c-0.009,0.006-0.02,0.009-0.029,0.017c-16.713,0.889-29.786,14.662-29.786,31.428
		C449.601,326.467,462.674,340.246,479.387,341.131 M460.384,330.049c1.996-1.45,4.156-2.693,6.437-3.701
		c2.164,4.525,5.174,8.521,8.96,11.9C469.968,337.167,464.565,334.297,460.384,330.049 M479.857,338.447
		c-4.605-3.46-8.313-7.938-10.771-13.009c3.454-1.254,7.071-1.972,10.771-2.141V338.447z M479.857,320.865
		c-4.044,0.173-7.995,0.961-11.755,2.343c-1.435-3.572-2.278-7.353-2.512-11.253l14.267-0.007V320.865z M479.857,309.512
		l-14.344,0.011c0.019-3.999,0.678-7.912,1.96-11.642c3.951,1.556,8.113,2.438,12.384,2.625V309.512z M485.949,338.324
		c3.962-3.514,7.073-7.684,9.263-12.411c2.449,0.995,4.774,2.254,6.922,3.755C497.796,334.242,492.114,337.275,485.949,338.324
		 M503.744,327.828c-2.35-1.67-4.902-3.064-7.597-4.158c1.442-3.731,2.288-7.673,2.516-11.73l11.355-0.008
		C509.576,317.771,507.414,323.251,503.744,327.828 M504.653,292.779c3.531,4.901,5.414,10.673,5.457,16.718l-11.376,0.011
		c-0.021-4.146-0.689-8.217-1.989-12.11C499.547,296.182,502.205,294.63,504.653,292.779 M503.152,290.863
		c-2.251,1.699-4.686,3.125-7.253,4.247c-2.172-5.331-5.593-10.145-9.954-14.028C492.646,282.217,498.694,285.648,503.152,290.863
		 M482.29,281.218c5.07,3.898,8.977,8.991,11.349,14.792c-3.648,1.305-7.464,2.006-11.349,2.089V281.218z M482.29,300.535
		c4.166-0.083,8.26-0.837,12.185-2.242c1.191,3.611,1.806,7.38,1.826,11.215l-14.011,0.004V300.535z M482.29,311.946l13.937-0.006
		c-0.227,3.763-1.021,7.418-2.362,10.883c-3.726-1.244-7.614-1.91-11.574-1.988V311.946z M482.29,323.266
		c3.631,0.076,7.2,0.68,10.623,1.805c-2.396,5.091-6.053,9.604-10.623,13.12V323.266z M479.857,280.963v17.106
		c-3.965-0.185-7.833-1.012-11.512-2.463C470.783,289.845,474.75,284.801,479.857,280.963 M475.785,281.158
		c-4.188,3.75-7.507,8.376-9.671,13.479c-2.392-1.139-4.658-2.544-6.749-4.188C463.682,285.587,469.45,282.326,475.785,281.158
		 M457.827,292.335c2.294,1.808,4.781,3.347,7.402,4.577c-1.408,4.034-2.132,8.273-2.149,12.61l-11.042,0.006
		C452.073,303.275,454.072,297.342,457.827,292.335 M452.129,311.963l11.023-0.008c0.238,4.221,1.144,8.307,2.691,12.164
		c-2.52,1.116-4.903,2.498-7.1,4.115C454.87,323.58,452.59,317.971,452.129,311.963"/>
	<rect x="41.86" y="186.673" fill="#4779F6" width="89.27" height="18.828"/>
	<g>
		<path fill="none" d="M45.792,195.064c0,3.217,2.606,5.822,5.823,5.822c3.214,0,5.818-2.605,5.818-5.822
			c0-3.213-2.604-5.819-5.818-5.819C48.398,189.245,45.792,191.852,45.792,195.064"/>
		<path fill="#FFFFFF" d="M57.434,195.064c0,3.215-2.605,5.822-5.82,5.822c-3.214,0-5.822-2.607-5.822-5.822
			c0-3.212,2.607-5.819,5.822-5.819C54.829,189.245,57.434,191.853,57.434,195.064"/>
		<path fill="#4779F6" d="M53.643,192.939c0,1.121-0.908,2.029-2.029,2.029c-1.12,0-2.028-0.908-2.028-2.029
			c0-1.122,0.908-2.029,2.028-2.029C52.734,190.91,53.643,191.817,53.643,192.939"/>
		<path fill="#4779F6" d="M55.637,200.965h-8.045v-2.492c0-1.86,1.508-3.369,3.37-3.369h1.306c1.862,0,3.37,1.509,3.37,3.369
			V200.965z"/>
	</g>
	<rect x="60.277" y="191.468" fill="#FFFFFF" width="59.414" height="0.896"/>
	<rect x="60.277" y="194.168" fill="#FFFFFF" width="59.414" height="0.896"/>
	<rect x="60.277" y="196.871" fill="#FFFFFF" width="59.414" height="0.895"/>
	<rect x="60.277" y="199.572" fill="#FFFFFF" width="59.414" height="0.896"/>
	<rect x="41.86" y="212.035" fill="#4779F6" width="89.27" height="18.832"/>
	<g>
		<path fill="none" d="M45.792,220.432c0,3.215,2.606,5.821,5.823,5.821c3.214,0,5.818-2.606,5.818-5.821s-2.604-5.822-5.818-5.822
			C48.398,214.609,45.792,217.217,45.792,220.432"/>
		<path fill="#FFFFFF" d="M57.434,220.432c0,3.215-2.605,5.819-5.82,5.819c-3.214,0-5.822-2.604-5.822-5.819
			c0-3.217,2.607-5.82,5.822-5.82C54.829,214.611,57.434,217.215,57.434,220.432"/>
		<path fill="#4779F6" d="M53.643,218.305c0,1.12-0.908,2.031-2.029,2.031c-1.12,0-2.028-0.911-2.028-2.031
			c0-1.121,0.908-2.029,2.028-2.029C52.734,216.275,53.643,217.184,53.643,218.305"/>
		<path fill="#4779F6" d="M55.637,226.329h-8.045v-2.489c0-1.861,1.508-3.369,3.37-3.369h1.306c1.862,0,3.37,1.508,3.37,3.369
			V226.329z"/>
	</g>
	<rect x="60.277" y="216.834" fill="#FFFFFF" width="59.414" height="0.896"/>
	<rect x="60.277" y="219.535" fill="#FFFFFF" width="59.414" height="0.896"/>
	<rect x="60.277" y="222.235" fill="#FFFFFF" width="59.414" height="0.898"/>
	<rect x="60.277" y="224.938" fill="#FFFFFF" width="59.414" height="0.896"/>
	<linearGradient id="SVGID_1_" gradientUnits="userSpaceOnUse" x1="7.2031" y1="42.416" x2="187.3257" y2="42.416">
		<stop  offset="0" style="stop-color:#FFFFFF"/>
		<stop  offset="1" style="stop-color:#D4D5D7"/>
	</linearGradient>
	<path fill="url(#SVGID_1_)" d="M167.609,58.057c-0.276,0-0.553,0.014-0.826,0.022c0.536-2.208,0.826-4.51,0.826-6.886
		c0-16.088-13.043-29.132-29.133-29.132c-6.775,0-13.005,2.323-17.954,6.203c-4.651-9.906-14.709-16.768-26.378-16.768
		c-13.948,0-25.599,9.804-28.456,22.892c-3.016-1.056-6.258-1.637-9.638-1.637c-14.793,0-27.002,11.03-28.875,25.313
		c-0.085,0-0.171-0.008-0.255-0.008c-8.3,0-15.535,4.546-19.364,11.281c-1.014,1.779,0.269,3.997,2.318,3.997h38.186h20.084h58.263
		h20.059h38.186c2.051,0,3.333-2.218,2.318-3.997C183.144,62.603,175.908,58.057,167.609,58.057"/>
	<polygon fill="#4779F6" points="96.81,79.326 77.123,45.226 57.434,79.326 70.553,79.326 70.553,121.905 83.689,121.905 
		83.689,79.326 	"/>
	<polygon fill="#FCA232" points="97.717,87.807 117.406,121.907 137.095,87.807 123.975,87.807 123.975,45.226 110.838,45.226 
		110.838,87.807 	"/>
	<g opacity="0.51">
		<g>
			<rect x="406.904" y="161.199" fill="none" width="134.972" height="73.211"/>
			<rect x="406.904" y="161.199" fill="#4779F6" width="134.97" height="73.211"/>
			<rect x="413.026" y="168.652" fill="#E4EAFE" width="112.414" height="5.265"/>
			<rect x="413.025" y="177.206" fill="#E4EAFE" width="78.591" height="5.265"/>
			<rect x="413.025" y="185.758" fill="#E4EAFE" width="96.178" height="5.268"/>
			<rect x="413.026" y="194.313" fill="#E4EAFE" width="112.414" height="5.268"/>
			<rect x="413.026" y="202.865" fill="#E4EAFE" width="103.738" height="5.268"/>
			<rect x="413.025" y="211.422" fill="#E4EAFE" width="92.188" height="5.267"/>
			<rect x="413.026" y="219.976" fill="#E4EAFE" width="105.955" height="5.266"/>
		</g>
	</g>
	<rect x="18.695" y="290.914" fill="#FCA232" width="86.862" height="50.568"/>
	<polygon fill="#FFB564" points="18.698,341.482 62.127,313.09 105.558,341.482 	"/>
	<polygon fill="#F98816" points="18.698,290.914 62.127,325.779 105.558,290.914 	"/>
	<path fill="#130751" d="M275.228,17.094h-23.629c-2.852,0-5.164,2.315-5.164,5.167v45.933c0,2.852,2.312,5.164,5.164,5.164h23.629
		c2.852,0,5.163-2.313,5.163-5.164V22.261C280.391,19.409,278.08,17.094,275.228,17.094"/>
	<g>
		<path fill="none" d="M253.557,19.759c-2.38,0-4.309,1.929-4.309,4.308v38.326c0,2.377,1.929,4.306,4.309,4.306h19.717
			c2.377,0,4.307-1.929,4.307-4.306V24.066c0-2.379-1.93-4.308-4.307-4.308H253.557z"/>
		<path fill="#B6CEFF" d="M273.272,19.759h-19.716c-2.379,0-4.308,1.929-4.308,4.308v38.324c0,2.379,1.929,4.308,4.308,4.308h19.716
			c2.379,0,4.309-1.929,4.309-4.308V24.066C277.581,21.688,275.651,19.759,273.272,19.759"/>
		<linearGradient id="SVGID_2_" gradientUnits="userSpaceOnUse" x1="248.9146" y1="41.3354" x2="277.936" y2="41.3354">
			<stop  offset="0" style="stop-color:#FFFFFF"/>
			<stop  offset="1" style="stop-color:#D4D5D7"/>
		</linearGradient>
		<polygon fill="url(#SVGID_2_)" points="248.915,53.043 272.327,21.582 277.936,21.582 248.915,61.089 		"/>
		<linearGradient id="SVGID_3_" gradientUnits="userSpaceOnUse" x1="251.1094" y1="48.2861" x2="278.9106" y2="48.2861">
			<stop  offset="0" style="stop-color:#FFFFFF"/>
			<stop  offset="1" style="stop-color:#D4D5D7"/>
		</linearGradient>
		<polygon fill="url(#SVGID_3_)" points="251.109,65.479 278.911,26.704 278.911,30.36 251.109,69.868 		"/>
	</g>
	<path fill="#FFFFFF" d="M265.078,69.697c0,0.916-0.744,1.66-1.663,1.66c-0.92,0-1.666-0.744-1.666-1.66
		c0-0.921,0.746-1.667,1.666-1.667C264.333,68.03,265.078,68.776,265.078,69.697"/>
	<rect x="272.965" y="29.912" fill="#FFFFFF" width="45.605" height="34.662"/>
	<polygon fill="#054DDD" points="287.09,57.306 277.272,47.487 287.226,37.536 288.893,39.205 280.609,47.487 288.758,55.636 	"/>
	<polygon fill="#054DDD" points="303.946,57.306 302.279,55.636 310.562,47.354 302.413,39.205 304.082,37.536 313.9,47.354 	"/>
	
		<rect x="294.406" y="38.412" transform="matrix(0.9237 0.3832 -0.3832 0.9237 40.8807 -109.6209)" fill="#054DDD" width="2.36" height="18.773"/>
	<rect x="272.965" y="25.876" fill="#054DDD" width="45.605" height="4.038"/>
</g>
</svg>
