<?xml version="1.0" encoding="utf-8"?>
<!-- Generator: Adobe Illustrator 14.0.0, SVG Export Plug-In . SVG Version: 6.00 Build 43363)  -->
<!DOCTYPE svg PUBLIC "-//W3C//DTD SVG 1.1//EN" "http://www.w3.org/Graphics/SVG/1.1/DTD/svg11.dtd">
<svg version="1.1" id="Layer_1" xmlns="http://www.w3.org/2000/svg" xmlns:xlink="http://www.w3.org/1999/xlink" x="0px" y="0px"
	 width="401.805px" height="378.043px" viewBox="0 0 401.805 378.043" enable-background="new 0 0 401.805 378.043"
	 xml:space="preserve">
<g>
	
		<linearGradient id="SVGID_1_" gradientUnits="userSpaceOnUse" x1="3318.9431" y1="349.561" x2="3525.9373" y2="349.561" gradientTransform="matrix(-1 0 0 1 3576.9727 0)">
		<stop  offset="0" style="stop-color:#14141E"/>
		<stop  offset="0.0076" style="stop-color:#14151F"/>
		<stop  offset="0.2491" style="stop-color:#0E283A"/>
		<stop  offset="0.4941" style="stop-color:#0A354E"/>
		<stop  offset="0.7427" style="stop-color:#083D59"/>
		<stop  offset="1" style="stop-color:#07405D"/>
	</linearGradient>
	<path fill="url(#SVGID_1_)" d="M258.029,350.623c0,0-69.087-26.489-161.879-29.544l-45.116,19.707v3.769
		c0,0,124.06,31.071,143.729,32.602c19.667,1.528,13.614,1.016,25.716-1.019c12.108-2.037,37.55-23.476,37.55-23.476V350.623z"/>
	
		<linearGradient id="SVGID_2_" gradientUnits="userSpaceOnUse" x1="3318.6902" y1="347.5259" x2="3526.0847" y2="347.5259" gradientTransform="matrix(-1 0 0 1 3576.9727 0)">
		<stop  offset="0" style="stop-color:#ADD6ED"/>
		<stop  offset="0.0475" style="stop-color:#B3D6EC"/>
		<stop  offset="0.1984" style="stop-color:#BED6EA"/>
		<stop  offset="0.4105" style="stop-color:#C5D6E8"/>
		<stop  offset="1" style="stop-color:#C7D6E8"/>
	</linearGradient>
	<path fill="url(#SVGID_2_)" d="M257.023,348.584c0,0-68.082-26.489-160.873-29.542l-45.116,21.437c0,0-0.844,1.07,1.513,2.035
		c2.358,0.97,122.547,31.077,142.215,32.604c19.667,1.531,13.614,1.02,25.716-1.018c12.108-2.038,37.55-23.478,37.55-23.478
		S259.039,350.113,257.023,348.584z"/>
	<path fill="#222F37" d="M139.407,331.536l48.476,2.848l-1.839,39.916c-11.588-1.975-31.879-6.466-53.284-11.468L139.407,331.536z"
		/>
	
		<linearGradient id="SVGID_3_" gradientUnits="userSpaceOnUse" x1="3389.2546" y1="324.7603" x2="3415.197" y2="324.7603" gradientTransform="matrix(-1 0 0 1 3576.9727 0)">
		<stop  offset="0" style="stop-color:#064463"/>
		<stop  offset="0.0143" style="stop-color:#07415F"/>
		<stop  offset="0.128" style="stop-color:#0C3147"/>
		<stop  offset="0.2564" style="stop-color:#0F2435"/>
		<stop  offset="0.4081" style="stop-color:#121B28"/>
		<stop  offset="0.6038" style="stop-color:#141620"/>
		<stop  offset="1" style="stop-color:#14141E"/>
	</linearGradient>
	<path fill="url(#SVGID_3_)" d="M187.023,312.287l0.695,22.474c0,0-3.708,6.556-15.992,3.979
		c-12.278-2.575-9.732-28.558-9.732-28.558L187.023,312.287z"/>
	
		<linearGradient id="SVGID_4_" gradientUnits="userSpaceOnUse" x1="3401.5369" y1="321.0815" x2="3444.6423" y2="321.0815" gradientTransform="matrix(-1 0 0 1 3576.9727 0)">
		<stop  offset="0" style="stop-color:#14141E"/>
		<stop  offset="0.0039" style="stop-color:#131722"/>
		<stop  offset="0.0287" style="stop-color:#0F2638"/>
		<stop  offset="0.0577" style="stop-color:#0B3249"/>
		<stop  offset="0.0939" style="stop-color:#093A54"/>
		<stop  offset="0.1447" style="stop-color:#073F5B"/>
		<stop  offset="0.2857" style="stop-color:#07405D"/>
		<stop  offset="1" style="stop-color:#065782"/>
	</linearGradient>
	<path fill="url(#SVGID_4_)" d="M132.329,308.207c0,0,3.479,17.555,7.649,25.049l34.529,6.085l0.927-36.518L132.329,308.207z"/>
	<path fill="#8BC1DB" d="M352.404,19.283c11.636-2.714,19.195-4.431,20.963-4.732c12.191-2.087,27.707,6.285,27.707,19.347
		c0,0-25.276,294.808-25.512,294.124c0,9.924-14.15,14.128-21.657,13.726c-1.354-0.075-11.211-2.348-27.017-5.862L352.404,19.283z"
		/>
	<g>
		
			<linearGradient id="SVGID_5_" gradientUnits="userSpaceOnUse" x1="3179.2322" y1="178.0254" x2="3570.8699" y2="178.0254" gradientTransform="matrix(-1 0 0 1 3576.9727 0)">
			<stop  offset="0" style="stop-color:#ADD6ED"/>
			<stop  offset="0.0821" style="stop-color:#C1E4F3"/>
			<stop  offset="0.1859" style="stop-color:#D2F0F9"/>
			<stop  offset="0.3152" style="stop-color:#DDF9FC"/>
			<stop  offset="0.4965" style="stop-color:#E4FEFE"/>
			<stop  offset="1" style="stop-color:#E6FFFF"/>
		</linearGradient>
		<path fill="url(#SVGID_5_)" d="M52.639,21.257C61.317,19.313,369.673,8.58,381.984,6.347c12.31-2.229,15.501,8.968,15.756,11.972
			c0,0-25.276,326.415-25.516,325.688c0,2.191-1.047,6.39-8.624,5.957c-3.903-0.223-351.246-56.157-352.929-56.852
			c-4.467-1.827-4.569-8.537-4.569-8.537L44.148,29.97C44.148,29.97,43.963,23.201,52.639,21.257z"/>
		<path fill="#5E8C9E" d="M371.305,348.117c1.153-1.346,1.414-2.941,1.424-4.054l0,0v-0.003l0,0
			c0.008-0.022,0.008-0.037,0.008-0.056l0,0c0-0.029,0-0.062,0.003-0.104l0,0c0-0.079,0.003-0.199,0.005-0.355l0,0
			c0.003-0.308,0.008-0.766,0.019-1.365l0,0c0.003-1.203,0.013-2.978,0.021-5.273l0,0c0.008-4.601,0.023-11.28,0.031-19.637l0,0
			c0.018-16.716-20.522-42.766-20.522-69.522l0,0c0-107.349,45.953-229.429,45.95-229.469l0,0
			c-0.232-2.858-2.989-12.69-13.167-12.732l0,0c-0.99,0-2.054,0.095-3.185,0.302l0,0C369.542,8.089,61.214,18.815,52.528,20.76l0,0
			l0.111,0.497l0.107,0.493C61.42,19.81,369.804,9.071,382.075,6.846l0,0c1.075-0.194,2.075-0.281,3.001-0.281l0,0
			c9.359-0.042,11.934,9.18,12.16,11.754l0,0c0,0.027,0.005,10.083,0.018,26.888l0,0c0.008,16.806-48.753,11.985-48.737,38.86l0,0
			c0.021,53.758,2.768,110.003,2.768,163.681l0,0c0.002,51.623,20.519,93.499,20.454,96.068l0,0l-0.019,0.017v0.172
			c-0.071,1.947-0.681,5.416-7.063,5.479l0,0c-0.322,0-0.667-0.013-1.027-0.03l0,0c-3.733-0.2-346.156-55.264-352.744-56.809l0,0
			l-0.02-0.004c-2.026-0.823-3.104-2.793-3.668-4.636l0,0c-0.563-1.825-0.59-3.435-0.59-3.435v0.003L44.653,30.015
			c0-0.013,0-0.039,0-0.076l0,0c0.034-0.434,0.065-6.373,8.094-8.189l0,0l-0.107-0.493l-0.111-0.497
			c-8.608,1.91-8.918,8.585-8.885,9.179l0,0h0.126l-0.126,0.031L5.602,284.583c0.029,0.03,0.011,6.922,4.878,9.002l0,0
			c0.292,0.101,1.54,0.324,4.071,0.798l0,0c2.492,0.459,6.094,1.112,10.651,1.933l0,0c9.112,1.64,21.763-0.261,37.243,2.481l0,0
			c30.962,5.488,72.124,12.749,113.359,19.994l0,0c82.498,14.485,185.695,31.554,187.772,31.681l0,0
			c0.373,0.018,0.733,0.029,1.079,0.029l0,0c0.014,0,0.018,0,0.033,0l0,0C368.069,350.501,370.131,349.481,371.305,348.117
			L371.305,348.117z"/>
	</g>
	
		<linearGradient id="SVGID_6_" gradientUnits="userSpaceOnUse" x1="3389.2546" y1="311.0464" x2="3444.1912" y2="311.0464" gradientTransform="matrix(-1 0 0 1 3576.9727 0)">
		<stop  offset="0" style="stop-color:#14141E"/>
		<stop  offset="0.0076" style="stop-color:#14151F"/>
		<stop  offset="0.2491" style="stop-color:#0E283A"/>
		<stop  offset="0.4941" style="stop-color:#0A354E"/>
		<stop  offset="0.7427" style="stop-color:#083D59"/>
		<stop  offset="1" style="stop-color:#07405D"/>
	</linearGradient>
	<path fill="url(#SVGID_6_)" d="M187.718,319.781c-18.262-3.207-36.69-6.447-54.406-9.567c-0.341-1.557-0.531-2.516-0.531-2.516
		l43.106-5.386l-0.219,8.475l11.8,0.992L187.718,319.781z"/>
	
		<linearGradient id="SVGID_7_" gradientUnits="userSpaceOnUse" x1="3381.156" y1="341.7759" x2="3381.156" y2="14.2778" gradientTransform="matrix(-1 0 0 1 3576.9727 0)">
		<stop  offset="0" style="stop-color:#064463"/>
		<stop  offset="1" style="stop-color:#14141E"/>
	</linearGradient>
	<path fill="url(#SVGID_7_)" d="M48.106,26.28c8.597-1.859,314.077-9.587,326.271-11.722c12.188-2.137,15.349,8.578,15.606,11.452
		c0,0-25.278,310.734-25.516,310.034c0,2.097-1.04,6.115-8.544,5.703c-3.87-0.213-110.599-17.229-193.851-31.343
		c-1.977,2.135-5.127,3.244-8.418,2.66l-35.752-6.388c-3.101-0.552-5.578-2.479-6.799-4.948
		C53.781,291.932,7.836,288.081,6.17,287.418c-4.423-1.753-4.522-8.171-4.522-8.171l38.05-244.625
		C39.698,34.622,39.514,28.138,48.106,26.28z"/>
	
		<linearGradient id="SVGID_8_" gradientUnits="userSpaceOnUse" x1="3229.5857" y1="311.812" x2="3512.4224" y2="28.9753" gradientTransform="matrix(-1 0 0 1 3576.9727 0)">
		<stop  offset="0" style="stop-color:#0B3544"/>
		<stop  offset="0.1115" style="stop-color:#123E4F"/>
		<stop  offset="0.3137" style="stop-color:#1B495D"/>
		<stop  offset="0.5635" style="stop-color:#205066"/>
		<stop  offset="1" style="stop-color:#225268"/>
	</linearGradient>
	<polygon fill="url(#SVGID_8_)" points="51.778,41.747 12.715,269.245 344.64,314.557 370.153,42.472 	"/>
	
		<linearGradient id="SVGID_9_" gradientUnits="userSpaceOnUse" x1="3407.9587" y1="160.9409" x2="3576.3376" y2="160.9409" gradientTransform="matrix(-1 0 0 1 3576.9727 0)">
		<stop  offset="0" style="stop-color:#9BC4D3"/>
		<stop  offset="0.199" style="stop-color:#80A2B4"/>
		<stop  offset="0.6353" style="stop-color:#3C4C64"/>
		<stop  offset="1" style="stop-color:#00001E"/>
	</linearGradient>
	<path fill="url(#SVGID_9_)" d="M47.099,26.28c4.407-0.953,64.887-2.175,121.915-4.497l-68.446,278.314
		c-52.837-9.046-93.83-12.055-95.41-12.68c-4.419-1.753-4.523-8.171-4.523-8.171L38.689,34.622
		C38.689,34.622,38.507,28.138,47.099,26.28z"/>
	
		<linearGradient id="SVGID_10_" gradientUnits="userSpaceOnUse" x1="3412.0017" y1="159.0044" x2="3565.2673" y2="159.0044" gradientTransform="matrix(-1 0 0 1 3576.9727 0)">
		<stop  offset="0" style="stop-color:#66A8BF"/>
		<stop  offset="0.1642" style="stop-color:#4A95AF"/>
		<stop  offset="0.3523" style="stop-color:#3184A0"/>
		<stop  offset="0.5491" style="stop-color:#1F7896"/>
		<stop  offset="0.7581" style="stop-color:#147090"/>
		<stop  offset="1" style="stop-color:#116E8E"/>
	</linearGradient>
	<polygon fill="url(#SVGID_10_)" points="105.706,279.219 11.705,269.245 50.768,41.747 164.97,38.79 	"/>
	<polygon fill="#9BCEEB" points="344.64,316.086 12.715,270.772 12.715,269.245 344.64,314.557 	"/>
	
		<linearGradient id="SVGID_11_" gradientUnits="userSpaceOnUse" x1="3285.6941" y1="123.4971" x2="3446.3196" y2="-37.1284" gradientTransform="matrix(-1 0 0 1 3576.9727 0)">
		<stop  offset="0" style="stop-color:#064463"/>
		<stop  offset="1" style="stop-color:#14141E"/>
	</linearGradient>
	<polygon fill="url(#SVGID_11_)" points="370.153,42.472 370.153,44.622 51.778,43.897 51.778,41.747 	"/>
	
		<linearGradient id="SVGID_12_" gradientUnits="userSpaceOnUse" x1="3219.2771" y1="315.2729" x2="3219.2771" y2="43.1924" gradientTransform="matrix(-1 0 0 1 3576.9727 0)">
		<stop  offset="0" style="stop-color:#0B3544"/>
		<stop  offset="0.2208" style="stop-color:#447282"/>
		<stop  offset="0.5495" style="stop-color:#9ED3E5"/>
		<stop  offset="0.7103" style="stop-color:#6DA0B4"/>
		<stop  offset="0.9056" style="stop-color:#37687D"/>
		<stop  offset="1" style="stop-color:#225268"/>
	</linearGradient>
	<polygon fill="url(#SVGID_12_)" points="369.743,43.454 371.162,43.193 345.648,315.273 344.227,315.062 	"/>
	<path fill="#4683A0" d="M359.887,340.987c0.846-0.154,1.696-0.352,2.549-0.585c-0.736,0.069-1.56,0.086-2.477,0.038
		C359.124,340.392,359.227,340.623,359.887,340.987z M394.017,24.704c0,0-25.272,310.735-25.516,310.033
		c0,1.164-0.324,2.909-1.884,4.171c2.143-0.963,4.116-2.208,5.665-3.744c0.13-50.261,25.488-269.869,25.46-311.422
		c-1.662-2.262-3.854-4.189-6.352-5.73C393.209,20.579,393.907,23.422,394.017,24.704z"/>
	<g>
		
			<linearGradient id="SVGID_13_" gradientUnits="userSpaceOnUse" x1="3325.5349" y1="1595.0513" x2="3330.2979" y2="1586.7573" gradientTransform="matrix(-0.7053 -0.7055 0.746 -0.6716 1302.1632 3712.8667)">
			<stop  offset="0.0254" style="stop-color:#FFFFFF"/>
			<stop  offset="1" style="stop-color:#000000"/>
		</linearGradient>
		<path fill="url(#SVGID_13_)" d="M134.344,292.422c2.575-2.342,6.779-2.101,9.391,0.539c2.611,2.639,2.643,6.678,0.068,9.019
			c-2.572,2.341-6.778,2.099-9.392-0.54C131.798,298.799,131.77,294.764,134.344,292.422z"/>
		
			<radialGradient id="SVGID_14_" cx="3359.4841" cy="1618.9683" r="5.9321" gradientTransform="matrix(-0.7383 -0.681 0.7607 -0.7679 1388.4679 3828.0234)" gradientUnits="userSpaceOnUse">
			<stop  offset="0" style="stop-color:#064463"/>
			<stop  offset="0.297" style="stop-color:#0B334B"/>
			<stop  offset="1" style="stop-color:#14141E"/>
		</radialGradient>
		<path fill="url(#SVGID_14_)" d="M134.587,292.669c2.441-2.221,6.429-1.991,8.905,0.51c2.478,2.505,2.507,6.333,0.065,8.554
			c-2.441,2.22-6.429,1.991-8.906-0.512C132.175,298.719,132.145,294.89,134.587,292.669z"/>
		
			<linearGradient id="SVGID_15_" gradientUnits="userSpaceOnUse" x1="3323.5417" y1="1588.812" x2="3335.4744" y2="1588.812" gradientTransform="matrix(-0.7053 -0.7055 0.6951 -0.6258 1383.6552 3639.2979)">
			<stop  offset="0" style="stop-color:#064463"/>
			<stop  offset="1" style="stop-color:#14141E"/>
		</linearGradient>
		<path fill="url(#SVGID_15_)" d="M132.885,295.839c0.274-0.949,0.777-1.84,1.562-2.554c2.441-2.217,6.429-1.99,8.906,0.511
			c1.51,1.525,2.096,3.544,1.784,5.392c0.577-2.003,0.053-4.304-1.627-6.002c-2.478-2.502-6.465-2.729-8.904-0.512
			C133.65,293.543,133.086,294.653,132.885,295.839z"/>
	</g>
</g>
<polygon display="none" fill="#FFCB05" points="53.383,42.403 369.53,43.925 343.653,312.252 14.305,267.895 "/>
</svg>
