<?xml version="1.0" encoding="utf-8"?>
<!-- Generator: Adobe Illustrator 14.0.0, SVG Export Plug-In . SVG Version: 6.00 Build 43363)  -->
<!DOCTYPE svg PUBLIC "-//W3C//DTD SVG 1.1//EN" "http://www.w3.org/Graphics/SVG/1.1/DTD/svg11.dtd">
<svg version="1.1" id="Layer_1" xmlns="http://www.w3.org/2000/svg" xmlns:xlink="http://www.w3.org/1999/xlink" x="0px" y="0px"
	 width="234.935px" height="227.98px" viewBox="0 0 234.935 227.98" enable-background="new 0 0 234.935 227.98"
	 xml:space="preserve">
<g id="XMLID_7_">
	<path id="XMLID_247_" fill="#ECC19C" d="M144.175,186.633c-1.895-10.168-1.313-22.37-1.313-22.37h-15.647h-1.353h-15.649
		c0,0,0.584,12.202-1.311,22.37c-1.894,10.169-13.219,10.169-13.219,10.169l30.855,8.177l30.855-8.177
		C157.394,196.802,146.07,196.802,144.175,186.633z"/>
	<g id="XMLID_245_">
		<path id="XMLID_246_" fill="#CCA88D" d="M143.917,185.144c-3.772,2.77-8.438,3.937-14.246,2.229
			c-12.29-3.627-17.612-9.317-19.539-11.917c0.402-7.381,0.404-13.05,0.404-13.05l32.652,0.381
			C143.189,162.788,142.289,175.05,143.917,185.144z"/>
	</g>
	<g id="XMLID_242_">
		<path id="XMLID_244_" fill="#ECC19C" d="M83.041,111.422c0,0-7.463-10.03-10.585-2.194c-3.122,7.838-1.114,18.842,2.295,24.039
			c3.408,5.2,10.231,13.505,12.391,13.662c2.16,0.158,3.92-0.796,6.093-2.788L83.041,111.422z"/>
		<path id="XMLID_243_" opacity="0.6" fill="#DB9C94" d="M84.584,116.826c0,0-5.007-6.73-7.102-1.473
			c-2.095,5.259-0.747,12.642,1.54,16.129c2.287,3.489,6.864,9.061,8.313,9.166c1.449,0.106,2.63-0.533,4.089-1.87L84.584,116.826z"
			/>
	</g>
	<g id="XMLID_239_">
		<path id="XMLID_241_" fill="#ECC19C" d="M171.797,112.554c0,0,6.89-9.583,9.847-2.042c2.957,7.542,1.154,18.096-1.99,23.063
			c-3.143,4.97-9.447,12.9-11.459,13.038c-2.012,0.139-3.656-0.789-5.693-2.715L171.797,112.554z"/>
		<path id="XMLID_240_" opacity="0.6" fill="#DB9C94" d="M170.392,117.732c0,0,4.623-6.431,6.606-1.37s0.774,12.14-1.335,15.475
			s-6.34,8.654-7.688,8.747c-1.351,0.094-2.453-0.529-3.82-1.821L170.392,117.732z"/>
	</g>
	<path id="XMLID_238_" fill="#333333" d="M126.085,38.635c0.252,0,0.5,0.01,0.75,0.013c0.25-0.003,0.5-0.013,0.75-0.013
		c26.521,0,51.459,21.756,51.459,51.13s-24.938,55.244-51.459,55.244c-0.25,0-0.5-0.009-0.75-0.016
		c-0.25,0.007-0.499,0.016-0.75,0.016c-26.52,0-51.458-25.87-51.458-55.244S99.565,38.635,126.085,38.635z"/>
	<path id="XMLID_237_" fill="#ECC19C" d="M127.232,178.896c-14.123,0-30.756-12.014-38.492-23.254
		c-2.337-3.396-3.162-20.809-3.162-32.751c0-17.17-0.274-40.085,4.932-49.649c6.92-12.713,26.488-10.299,36.722-10.299h0.193
		c10.234,0,29.802-2.414,36.723,10.299c5.205,9.564,4.932,32.479,4.932,49.649c0,11.942-0.824,29.354-3.162,32.751
		c-7.737,11.24-24.37,23.254-38.492,23.254H127.232z"/>
	<path id="XMLID_236_" opacity="0.6" fill="#DB9C94" d="M127.105,128.134c0,0,0.277,0.671,0.723,1.514
		c0.212,0.409,0.459,0.887,0.723,1.398c0.115,0.241,0.234,0.493,0.356,0.747c0.097,0.251,0.229,0.495,0.29,0.739
		c0.111,0.244,0.129,0.471,0.196,0.698c0.02,0.217,0.062,0.431,0.048,0.633c-0.033,0.196-0.01,0.417-0.105,0.607
		c-0.057,0.199-0.108,0.416-0.232,0.591c-0.114,0.173-0.182,0.385-0.299,0.534c-0.119,0.145-0.217,0.29-0.303,0.411
		c-0.168,0.244-0.267,0.406-0.267,0.406s0.173-0.007,0.479-0.064c0.152-0.029,0.345-0.066,0.557-0.13
		c0.215-0.06,0.429-0.201,0.673-0.348c0.118-0.082,0.259-0.146,0.375-0.256c0.112-0.113,0.222-0.242,0.339-0.376
		c0.256-0.254,0.397-0.611,0.545-0.991c0.094-0.188,0.09-0.388,0.121-0.592c0.018-0.2,0.066-0.421,0.033-0.616
		c-0.037-0.398-0.098-0.811-0.238-1.165c-0.117-0.377-0.295-0.699-0.477-1.015c-0.184-0.311-0.401-0.579-0.613-0.837
		c-0.442-0.492-0.902-0.889-1.346-1.162C127.824,128.284,127.105,128.134,127.105,128.134z"/>
	<g id="XMLID_232_">
		<path id="XMLID_235_" d="M112.384,104.898c1.284,0.299,2.669-0.021,3.615-0.939c0.647-0.629,0.546-2.534-0.317-3.59
			c-2.478-3.031-12.698-4.133-20.167-1.889c-3.389,1.016-7.843,5.092-7.852,5.099c0.369-0.114,0.574-0.162,0.785-0.208
			c0.31-0.068,0.621-0.135,0.931-0.201c0.621-0.133,1.243-0.261,1.867-0.383c1.244-0.243,2.496-0.458,3.755-0.61
			c1.56-0.188,3.128-0.281,4.698-0.181C104.047,102.277,108.172,103.916,112.384,104.898z"/>
		<g id="XMLID_233_">
			
				<ellipse id="XMLID_234_" transform="matrix(0.0442 0.999 -0.999 0.0442 221.2188 2.9258)" cx="109.08" cy="117.077" rx="6.366" ry="4.182"/>
		</g>
	</g>
	<g id="XMLID_228_">
		<path id="XMLID_231_" d="M142.039,104.898c-1.283,0.299-2.668-0.021-3.615-0.939c-0.646-0.629-0.545-2.534,0.317-3.59
			c2.479-3.031,12.698-4.133,20.169-1.889c3.388,1.016,7.842,5.092,7.851,5.099c-0.368-0.114-0.573-0.162-0.784-0.208
			c-0.311-0.068-0.621-0.135-0.932-0.201c-0.621-0.133-1.244-0.261-1.867-0.383c-1.244-0.243-2.496-0.458-3.755-0.61
			c-1.561-0.188-3.129-0.281-4.698-0.181C150.375,102.277,146.251,103.916,142.039,104.898z"/>
		<g id="XMLID_229_">
			
				<ellipse id="XMLID_230_" transform="matrix(-0.0442 0.999 -0.999 -0.0442 268.7273 -22.9519)" cx="145.343" cy="117.077" rx="6.366" ry="4.182"/>
		</g>
	</g>
	<g id="XMLID_9_">
		<path id="XMLID_11_" fill="#DB9C94" d="M121.211,156.748c0,0,0.763-0.012,1.781,0.029c0.513,0.017,1.095,0.032,1.702,0.067
			c0.609,0.019,1.245,0.054,1.877,0.055c0.632,0.019,1.262,0.017,1.856-0.006c0.301,0.004,0.589-0.015,0.867-0.032
			c0.28-0.007,0.552-0.01,0.799-0.035c0.247-0.028,0.489-0.025,0.701-0.037c0.205-0.029,0.396-0.037,0.554-0.048
			c0.318-0.018,0.518-0.014,0.518-0.014s-0.114,0.148-0.343,0.385c-0.226,0.241-0.575,0.561-1.06,0.839
			c-0.235,0.158-0.504,0.301-0.803,0.42c-0.295,0.128-0.613,0.254-0.955,0.33c-0.678,0.189-1.43,0.276-2.174,0.26
			c-1.495-0.019-2.93-0.484-3.876-1.054C121.691,157.369,121.211,156.748,121.211,156.748z"/>
		<path id="XMLID_10_" fill="#DB9C94" d="M143.655,148.925c-0.312,0.098-0.636,0.167-0.94,0.195
			c-0.354,0.052-0.678,0.055-0.992,0.065c-1.34,0.02-2.718-0.025-4.1-0.03c-1.383-0.007-2.777,0.019-4.197,0.129
			c-0.709,0.063-1.431,0.141-2.164,0.273c-0.375,0.086-0.735,0.141-1.13,0.266c-0.377,0.093-0.795,0.266-1.204,0.454l-0.131,0.076
			c0.02-0.016-0.045,0.021-0.076,0.032c-0.043,0.017-0.081,0.042-0.125,0.064c-0.084,0.043-0.17,0.085-0.254,0.136
			c-0.168,0.091-0.326,0.194-0.498,0.304c-0.172,0.103-0.359,0.243-0.611,0.347c-0.129,0.06-0.274,0.116-0.437,0.155
			c-0.075,0.025-0.174,0.041-0.257,0.06c-0.082-0.019-0.18-0.034-0.256-0.06c-0.162-0.039-0.309-0.096-0.436-0.155
			c-0.252-0.104-0.439-0.244-0.611-0.347c-0.172-0.109-0.331-0.213-0.5-0.304c-0.082-0.051-0.17-0.093-0.254-0.136
			c-0.043-0.022-0.08-0.048-0.124-0.064c-0.032-0.012-0.097-0.048-0.077-0.032l-0.131-0.076c-0.408-0.188-0.826-0.361-1.203-0.454
			c-0.395-0.125-0.755-0.18-1.131-0.266c-0.732-0.133-1.455-0.21-2.164-0.273c-1.419-0.11-2.813-0.136-4.197-0.129
			c-1.381,0.005-2.759,0.05-4.099,0.03c-0.314-0.011-0.638-0.014-0.992-0.065c-0.304-0.028-0.628-0.098-0.94-0.195
			c-0.623-0.206-1.254-0.489-1.827-0.889c0.409,0.568,0.924,1.082,1.539,1.484c0.308,0.199,0.629,0.385,0.995,0.521
			c0.312,0.133,0.668,0.241,1.033,0.35c1.389,0.385,2.765,0.611,4.132,0.839l4.039,0.626c0.66,0.104,1.301,0.241,1.92,0.378
			c0.292,0.083,0.613,0.147,0.871,0.248c0.283,0.084,0.489,0.191,0.705,0.281l0.199,0.123c0.09,0.055,0.185,0.096,0.278,0.134
			c0.187,0.082,0.379,0.146,0.581,0.188c0.398,0.093,0.832,0.102,1.256,0.02c0.559-0.104,2.23-0.104,2.79,0
			c0.424,0.082,0.858,0.073,1.256-0.02c0.202-0.041,0.395-0.105,0.581-0.188c0.094-0.038,0.189-0.079,0.278-0.134l0.199-0.123
			c0.216-0.09,0.423-0.197,0.705-0.281c0.257-0.101,0.579-0.165,0.871-0.248c0.618-0.137,1.26-0.274,1.92-0.378l4.039-0.626
			c1.366-0.228,2.743-0.454,4.132-0.839c0.365-0.108,0.722-0.217,1.033-0.35c0.365-0.136,0.687-0.321,0.994-0.521
			c0.615-0.402,1.131-0.916,1.539-1.484C144.91,148.436,144.277,148.719,143.655,148.925z"/>
	</g>
	<path id="XMLID_8_" fill="#333333" d="M157.973,67.811c0,0-56.966,33.337-98.625,18.937c0,0,14.209-13.376,21.133-25.045
		c7.492-12.624,35.943-47.684,79.227-23.067l-0.946-8.381c0,0,8.995,5.924,10.319,20.199c0,0,10.691,0.053,13.141,6.522
		l-6.943-1.789c0,0,6.313,8.046,6.943,18.778c1.279,21.766-6.686,34.794-6.686,34.794s-6.094-7.816-7.346-18.251
		C165.863,71.125,161.868,71.306,157.973,67.811z"/>
	<g id="XMLID_208_">
		<g id="XMLID_175_">
			<path id="XMLID_176_" fill="#1A1A1A" d="M160.025,57.081c0,0-1.055,1.249-3.104,3.231c-1.028,0.986-2.281,2.188-3.795,3.472
				c-1.501,1.3-3.221,2.744-5.178,4.211c-3.873,2.993-8.607,6.226-13.959,9.244c-1.328,0.771-2.705,1.509-4.115,2.229
				c-1.395,0.75-2.846,1.431-4.305,2.126c-1.467,0.68-2.957,1.346-4.465,1.984c-1.526,0.595-3.039,1.243-4.59,1.798
				c-1.554,0.547-3.1,1.114-4.673,1.59c-1.558,0.518-3.134,0.961-4.708,1.366c-1.561,0.446-3.137,0.794-4.697,1.122
				c-1.55,0.362-3.109,0.61-4.636,0.862c-3.057,0.493-6.041,0.799-8.875,0.944c-1.413,0.106-2.798,0.094-4.13,0.099
				c-1.332,0.018-2.621-0.042-3.855-0.12c-2.467-0.064-4.714-0.415-6.692-0.662c-1.976-0.313-3.678-0.689-5.071-0.987
				c-2.77-0.742-4.313-1.233-4.313-1.233s1.646-0.027,4.453,0.042c1.402-0.034,3.104-0.075,5.057-0.123
				c1.946-0.145,4.125-0.229,6.489-0.493c1.182-0.104,2.409-0.234,3.673-0.445c1.263-0.194,2.572-0.312,3.903-0.585
				c2.672-0.437,5.466-1.004,8.334-1.677c2.867-0.677,5.808-1.461,8.767-2.366c0.74-0.226,1.482-0.452,2.227-0.68l2.224-0.741
				c1.495-0.469,2.966-1.032,4.447-1.564c2.964-1.064,5.885-2.257,8.752-3.457c2.852-1.238,5.662-2.465,8.341-3.754
				c2.688-1.265,5.265-2.554,7.702-3.797c2.424-1.266,4.735-2.449,6.836-3.605c4.207-2.305,7.689-4.314,10.129-5.745
				C158.633,57.911,160.025,57.081,160.025,57.081z"/>
		</g>
	</g>
	<g id="XMLID_209_">
		<g id="XMLID_171_">
			<path id="XMLID_172_" fill="#1A1A1A" d="M160.025,50.353c0,0-1.299,1.065-3.666,2.784c-2.365,1.721-5.785,4.12-10.018,6.786
				c-2.115,1.338-4.411,2.78-6.886,4.226c-2.473,1.449-5.098,2.951-7.854,4.428c-2.749,1.494-5.622,2.979-8.573,4.426
				c-2.945,1.462-5.986,2.851-9.036,4.222c-3.074,1.321-6.157,2.628-9.246,3.793c-3.081,1.184-6.15,2.263-9.16,3.204
				c-1.504,0.471-2.982,0.942-4.456,1.324c-1.461,0.414-2.901,0.794-4.318,1.114c-2.818,0.686-5.53,1.176-8.049,1.526
				c-2.512,0.38-4.847,0.563-6.923,0.593c-1.03,0.051-2.004,0.038-2.902-0.028c-0.896-0.044-1.714-0.081-2.454-0.207
				c-0.738-0.096-1.393-0.189-1.957-0.282c-0.558-0.145-1.033-0.268-1.418-0.369c-0.755-0.209-1.159-0.32-1.159-0.32
				s0.42-0.007,1.206-0.021c0.387-0.004,0.863-0.009,1.423-0.014c0.563-0.065,1.204-0.127,1.916-0.191
				c0.71-0.039,1.497-0.185,2.347-0.338c0.849-0.147,1.764-0.273,2.734-0.518c0.971-0.22,2.001-0.424,3.075-0.748
				c1.076-0.304,2.211-0.552,3.38-0.937c1.171-0.357,2.389-0.711,3.635-1.162c1.25-0.426,2.548-0.833,3.864-1.334
				c1.322-0.47,2.681-0.948,4.056-1.491c1.379-0.521,2.791-1.055,4.213-1.632c2.858-1.116,5.786-2.352,8.768-3.592
				c2.972-1.264,5.993-2.556,9-3.884c12.044-5.29,24.022-10.85,33.147-14.823c4.541-2.028,8.367-3.656,11.058-4.788
				C158.462,50.967,160.025,50.353,160.025,50.353z"/>
		</g>
	</g>
	<g id="XMLID_210_">
		<g id="XMLID_166_">
			<path id="XMLID_167_" fill="#1A1A1A" d="M157.394,45.088c0,0-1.261-0.295-3.467-0.812c-1.098-0.233-2.43-0.514-3.958-0.838
				c-1.522-0.317-3.251-0.604-5.111-0.956c-1.875-0.3-3.899-0.611-6.037-0.869c-2.134-0.283-4.388-0.484-6.706-0.654
				c-2.322-0.134-4.713-0.243-7.131-0.201c-2.418,0.023-4.859,0.154-7.278,0.429c-1.205,0.154-2.42,0.26-3.603,0.5l-1.781,0.306
				c-0.585,0.131-1.168,0.261-1.749,0.392c-2.327,0.52-4.56,1.22-6.703,1.974c-1.067,0.388-2.077,0.863-3.107,1.252
				c-0.991,0.476-1.961,0.94-2.905,1.393c-0.92,0.515-1.815,1.014-2.681,1.495c-0.877,0.479-1.656,1.047-2.449,1.539
				c-0.805,0.479-1.494,1.045-2.186,1.55c-0.685,0.512-1.379,0.959-1.962,1.457c-1.143,1.015-2.257,1.819-3.071,2.586
				c-1.631,1.529-2.643,2.387-2.643,2.387s0.577-1.156,1.722-3.154c0.578-0.995,1.4-2.119,2.343-3.431
				c0.473-0.655,1.058-1.28,1.637-1.982c0.588-0.695,1.228-1.41,1.966-2.086c0.732-0.679,1.457-1.447,2.292-2.141
				c0.844-0.681,1.725-1.383,2.653-2.081c0.962-0.642,1.96-1.299,2.997-1.949c1.067-0.588,2.165-1.194,3.308-1.751
				c2.309-1.061,4.766-2.045,7.349-2.72c0.645-0.173,1.293-0.346,1.942-0.519c0.655-0.147,1.316-0.267,1.979-0.394
				c1.321-0.283,2.662-0.43,4-0.608c1.341-0.149,2.685-0.206,4.022-0.291c1.336-0.014,2.67-0.062,3.984,0.014
				c0.656,0.028,1.313,0.057,1.963,0.084c0.648,0.06,1.293,0.119,1.934,0.179c1.283,0.1,2.535,0.297,3.768,0.482
				c2.455,0.401,4.802,0.909,6.986,1.516c2.192,0.575,4.209,1.3,6.056,1.978c3.688,1.381,6.608,2.878,8.595,4.005
				C156.345,44.301,157.394,45.088,157.394,45.088z"/>
		</g>
	</g>
	<g id="XMLID_211_">
		<g id="XMLID_163_">
			<path id="XMLID_164_" fill="#1A1A1A" d="M152.383,46.982c0,0-0.379,0.073-1.087,0.213c-0.707,0.118-1.734,0.377-3.039,0.634
				c-1.303,0.304-2.879,0.653-4.672,1.096c-1.797,0.432-3.805,0.973-5.987,1.563c-1.095,0.275-2.225,0.605-3.386,0.979
				c-1.164,0.344-2.369,0.702-3.606,1.066c-1.225,0.402-2.483,0.815-3.771,1.236c-0.643,0.206-1.293,0.413-1.949,0.623
				c-0.647,0.236-1.303,0.474-1.963,0.713c-1.32,0.468-2.663,0.944-4.022,1.425c-1.34,0.53-2.698,1.065-4.065,1.605
				c-2.757,1.021-5.471,2.266-8.208,3.451c-0.683,0.301-1.38,0.57-2.055,0.886l-2.006,0.981c-1.341,0.642-2.677,1.282-4.003,1.915
				c-2.643,1.286-5.151,2.731-7.658,3.998c-1.271,0.607-2.417,1.376-3.597,2.038c-1.172,0.678-2.319,1.342-3.435,1.987
				c-2.283,1.227-4.289,2.618-6.223,3.802c-0.962,0.604-1.884,1.181-2.761,1.729c-0.9,0.522-1.734,1.046-2.479,1.591
				c-1.506,1.066-2.866,1.951-3.979,2.693c-2.234,1.477-3.568,2.278-3.568,2.278s0.974-1.185,2.781-3.182
				c0.907-0.996,2.001-2.221,3.309-3.575c1.262-1.41,2.897-2.751,4.622-4.3c1.748-1.519,3.578-3.271,5.757-4.794
				c1.073-0.787,2.176-1.598,3.302-2.424c1.133-0.822,2.277-1.686,3.527-2.428c1.238-0.763,2.498-1.538,3.772-2.322
				c1.286-0.768,2.552-1.612,3.931-2.274c1.359-0.7,2.73-1.402,4.106-2.11l2.078-1.045c0.698-0.337,1.418-0.632,2.128-0.945
				c2.864-1.205,5.7-2.479,8.615-3.417c1.442-0.505,2.872-1.014,4.301-1.46c1.442-0.404,2.867-0.804,4.269-1.196
				c0.701-0.191,1.396-0.381,2.084-0.568c0.699-0.153,1.391-0.304,2.074-0.454c1.369-0.288,2.707-0.569,4.011-0.843
				c2.636-0.417,5.11-0.851,7.431-1.043c1.156-0.111,2.258-0.244,3.312-0.321c1.058-0.047,2.06-0.09,3.003-0.13
				c1.877-0.105,3.527-0.03,4.875-0.011C150.855,46.74,152.383,46.982,152.383,46.982z"/>
		</g>
	</g>
</g>
<g>
	<path fill-rule="evenodd" clip-rule="evenodd" fill="#FECDAD" d="M234.839,98.908c0,0.524,0,1.05,0,1.574c0,0.06,0,0.117,0,0.176
		c-0.27,0.724-0.322,1.661-0.351,2.625c0,0.117,0,0.233,0,0.351c-0.301,0.516-0.372,1.262-0.351,2.1c0,0.058,0,0.116,0,0.175
		c-0.279,0.479-0.36,1.156-0.35,1.925c0,0.058,0,0.116,0,0.175c-0.302,0.398-0.375,1.025-0.35,1.75
		c-0.513,2.229-1.046,4.438-1.4,6.824c-0.51,1.183-0.779,2.604-1.05,4.025c-0.573,1.935-1.212,3.805-1.575,5.949
		c-0.166,7.023-0.859,13.719-1.924,19.949c-2.101,12.276-6.085,22.654-11.025,32.023c-2.442,4.632-5.158,9.441-8.399,13.3
		c-6.429,7.651-14.856,13.996-23.624,19.424c-4.426,2.739-9.33,5.032-14.35,7.175c-4.939,2.108-9.795,4.812-15.049,6.649
		c-0.059,0-0.117,0-0.176,0c-1.193,0.322-2.469,0.563-3.5,1.05c-0.814-0.058-1.379,0.137-1.924,0.351
		c-0.611,0.089-1.321,0.078-1.75,0.35c-0.467,0-0.934,0-1.399,0c14.842-2.354,26.077-9.833,35.522-18.549
		c9.431-8.703,17.312-19.096,24.149-29.924c12.237-19.38,21.896-41.601,26.948-67.722
		C233.638,106.883,234.339,102.718,234.839,98.908z"/>
	<path fill-rule="evenodd" clip-rule="evenodd" fill="#FECDAD" d="M116.894,1.087c-17.155,0.189-30.506,4.662-42.348,10.5
		c-9.172,4.521-16.496,9.608-23.624,16.1c-2.263,2.06-4.256,4.414-6.649,6.474c-2.254,1.939-4.912,3.285-7.175,5.075
		C21.395,51.65,6.923,66.382,1.75,89.458c0-0.292,0-0.584,0-0.875c0.319-0.965,0.586-1.98,0.7-3.15
		c0.379-0.613,0.524-1.459,0.7-2.274c0.147-0.379,0.454-0.598,0.351-1.225c0.399-0.477,0.533-1.218,0.7-1.925
		c0.25-0.625,0.622-1.129,0.7-1.926c2.359-4.368,2.603-12.139,4.025-17.324c6.701-24.43,23.555-38.499,48.473-44.973
		c1.958-0.509,3.967-1.176,6.125-1.574c2.134-0.396,4.479-0.274,6.824-0.876c2.572-0.658,4.456-2.441,7-3.5c0.058,0,0.116,0,0.175,0
		c1.324-0.542,2.662-1.071,3.85-1.749c0.797-0.078,1.3-0.45,1.925-0.7c0.658-0.158,1.257-0.376,1.75-0.7
		c1.503-0.363,2.83-0.902,4.2-1.4c0.809-0.124,1.514-0.353,2.1-0.699c0.058,0,0.117,0,0.175,0c0.866-0.184,1.816-0.283,2.45-0.7
		c1.087-0.139,2.101-0.35,2.975-0.699c1.066-0.16,2.128-0.322,2.976-0.7c0.058,0,0.116,0,0.175,0
		c0.725,0.023,1.352-0.048,1.75-0.351c0.958,0.024,1.665-0.202,2.45-0.351c0.841-0.033,1.666-0.083,2.275-0.349
		c0.059,0,0.117,0,0.175,0c1-0.051,2.018-0.082,2.799-0.351c0.059,0,0.117,0,0.175,0c0.647-0.111,1.743,0.227,2.1-0.175
		c0.059,0,0.117,0,0.175,0c1.576,0,3.15,0,4.725,0c0.058,0,0.117,0,0.175,0C116.894,0.971,116.894,1.029,116.894,1.087z"/>
	<path fill-rule="evenodd" clip-rule="evenodd" fill="#FEA52F" d="M135.093,0.388c2.877,0.018,5.184-0.534,8.225-0.351
		c0.117,0,0.233,0,0.35,0c3.443,0.464,6.994,0.822,10.325,1.4c0.058,0,0.116,0,0.175,0C177.084,6.499,196.5,19.5,209.99,34.861
		c6.842,7.79,12.896,16.727,17.5,26.949c4.686,10.404,8.067,22.637,7.35,36.923c0,0.058,0,0.116,0,0.175
		c-0.5,3.811-1.201,7.976-1.926,11.725c-5.053,26.121-14.711,48.342-26.948,67.722c-6.838,10.828-14.719,21.221-24.149,29.924
		c-9.445,8.716-20.681,16.195-35.522,18.549c-0.059,0-0.117,0-0.176,0c-1.708,0.1-3.548,0.069-5.075,0.351c-0.232,0-0.466,0-0.699,0
		c-2.353-0.273-4.958-0.293-7.525-0.351c-0.116,0-0.232,0-0.35,0c-3.125-0.845-5.992-0.491-8.924,0.351c-0.059,0-0.117,0-0.176,0
		c-4.991,0.781-10.701,1.163-15.924,0.35c-0.059,0-0.116,0-0.175,0c-2.696-0.59-5.508-1.172-8.05-1.925
		c-15.255-4.521-26.237-13.316-36.048-23.273c-1.64-1.665-3.116-3.889-4.9-5.075c-2.762-1.84-6.27-2.407-9.274-3.676
		c-2.948-1.244-5.789-2.853-8.575-4.374c-16.614-9.076-30.485-22.076-34.473-43.748c0-0.059,0-0.117,0-0.175
		c-0.209-2.183-0.369-4.414-0.7-6.475c0-0.176,0-0.351,0-0.525c0-1.809,0-3.616,0-5.425c0-0.232,0-0.467,0-0.7
		c0.961-3.422-0.321-5.291-1.225-7.874c-1.602-4.574-2.855-9.238-3.675-14.524c0-0.059,0-0.116,0-0.175
		c-0.005-1.396-0.072-2.728-0.35-3.85c0-0.117,0-0.233,0-0.351c0-1.4,0-2.8,0-4.199c0-0.059,0-0.117,0-0.176
		c0.272-1.069,0.331-2.353,0.35-3.675c0-0.058,0-0.117,0-0.175c0.575-2.4,1.119-4.83,1.4-7.524c0-0.059,0-0.116,0-0.175
		C6.923,66.382,21.395,51.65,37.098,39.236c2.263-1.79,4.921-3.136,7.175-5.075c2.393-2.06,4.387-4.414,6.649-6.474
		c7.128-6.491,14.452-11.578,23.624-16.1c11.842-5.838,25.193-10.311,42.348-10.5c0.117,0,0.233,0,0.351,0
		c1.894,0.381,4.005,0.544,6.124,0.699c0.467,0,0.934,0,1.4,0c2.468-0.215,4.727-0.639,7-1.05c0.059,0,0.116,0,0.174,0
		c1.131,0.022,2.183-0.034,2.977-0.349C134.977,0.388,135.035,0.388,135.093,0.388z M44.273,34.51
		c-6.7,6.784-11.563,14.161-15.574,22.574c-3.096,6.493-5.698,13.604-7.175,21.35c-0.501,2.631-0.317,5.683-1.05,8.575
		c-0.323,1.272-1.635,3.087-2.45,4.549c-2.613,4.687-4.844,9.074-6.825,14.175c-2.538,6.533-5.161,14.536-5.424,22.573
		c-0.071,2.158,2.822,6.489,4.025,8.749c8.693,16.341,20.672,30.094,32.898,41.823c2.098,2.013,4.78,3.664,6.65,5.95
		c1.628,1.991,2.795,4.262,4.375,6.475c1.146,1.605,3.464,5.022,5.075,5.95c2.775,1.598,7.295,1.641,10.5,2.975
		c2.069,0.859,4.335,2.637,6.475,4.024c12.761,8.275,26.88,15.57,43.398,19.949c2.977,0.788,6.268,1.818,8.925,1.75
		c2.562-0.067,5.547-1.43,8.05-2.45c14.133-5.767,25.063-15.621,33.772-26.073c1.47-1.763,3.17-4.514,4.726-5.774
		c1.992-1.617,4.594-2.567,6.648-3.851c23.058-14.395,40.252-39.8,43.574-73.847c1.32-13.539-0.623-26.747-4.025-37.973
		c-3.073-10.137-9.434-19.189-15.924-26.599c-6.861-7.833-14.145-14.274-22.75-19.949c-2.147-1.417-4.441-2.633-6.649-4.025
		c-2.163-1.363-4.06-3.09-6.124-4.55c-10.852-7.669-21.578-13.241-36.398-16.974c-2.814-0.709-6.041-1.787-8.925-1.75
		c-3.876,0.05-7.976,1.51-11.724,2.45C90.009,10.19,70.411,18.131,53.197,28.385c-2.707,1.613-6.199,3.597-8.575,5.601
		C44.476,34.11,44.41,34.372,44.273,34.51z"/>
	<path fill-rule="evenodd" clip-rule="evenodd" fill="#F76006" d="M44.623,33.986c2.375-2.004,5.868-3.987,8.575-5.601
		C70.411,18.131,90.009,10.19,112.345,4.587c3.749-0.94,7.848-2.4,11.724-2.45c2.884-0.037,6.11,1.041,8.925,1.75
		c14.82,3.732,25.547,9.305,36.398,16.974c2.064,1.46,3.961,3.187,6.124,4.55c2.208,1.393,4.502,2.608,6.649,4.025
		c8.605,5.675,15.889,12.116,22.75,19.949c6.49,7.409,12.851,16.462,15.924,26.599c3.402,11.226,5.346,24.434,4.025,37.973
		c-3.322,34.047-20.517,59.452-43.574,73.847c-2.055,1.283-4.656,2.233-6.648,3.851c-1.556,1.261-3.256,4.012-4.726,5.774
		c-8.71,10.452-19.64,20.307-33.772,26.073c-2.503,1.021-5.488,2.383-8.05,2.45c-2.657,0.068-5.948-0.962-8.925-1.75
		c-16.518-4.379-30.637-11.674-43.398-19.949c-2.14-1.388-4.406-3.165-6.475-4.024c-3.205-1.334-7.724-1.377-10.5-2.975
		c-1.611-0.928-3.929-4.345-5.075-5.95c-1.58-2.213-2.747-4.483-4.375-6.475c-1.87-2.286-4.552-3.938-6.65-5.95
		C30.472,167.149,18.493,153.396,9.8,137.055c-1.203-2.26-4.096-6.591-4.025-8.749c0.264-8.037,2.887-16.04,5.424-22.573
		c1.981-5.101,4.211-9.488,6.825-14.175c0.815-1.462,2.127-3.276,2.45-4.549c0.733-2.893,0.548-5.944,1.05-8.575
		c1.477-7.746,4.079-14.856,7.175-21.35c4.011-8.413,8.874-15.79,15.574-22.574C44.41,34.372,44.476,34.11,44.623,33.986z
		 M57.572,45.185c-1.499,1.534-3.089,2.978-4.55,4.55c-1.925,1.983-3.788,4.028-5.6,6.125c-0.01,0.391-0.71,0.998-1.225,1.4
		c-0.577,0.706-1.212,1.354-1.75,2.1c0.062,0.397-0.666,0.775-1.05,1.225c-0.57,0.771-1.244,1.439-1.75,2.275
		c-0.285,0.588-0.775,1.154-1.4,1.749c-0.635,0.883-1.331,1.703-1.925,2.625c-3.528,5.139-7.571,11.072-9.975,15.925
		c-0.695,0.588-0.898,1.668-1.4,2.449c-2.442,5.499-4.767,10.586-6.299,16.624c-0.409,0.759-0.637,1.696-0.701,2.801
		c0,0.058,0,0.116,0,0.175c-0.265,0.435-0.337,1.063-0.35,1.749c0,0.117,0,0.233,0,0.351c-0.298,0.752-0.367,1.733-0.35,2.8
		c-0.188,1.795-0.785,3.182-1.05,4.9c-0.506,1.806-0.452,4.651,0,6.475c0,0.116,0,0.232,0,0.35c-0.01,0.769,0.071,1.446,0.35,1.926
		c0,0.057,0,0.116,0,0.174c0.26,1.841,0.68,3.521,1.4,4.9c0,0.058,0,0.116,0,0.175c2.626,7.64,6.799,13.733,11.375,19.424
		c0.037,0.196,0.194,0.273,0.351,0.35c0.409,0.642,0.942,1.158,1.399,1.751c0.066,0.576,0.931,0.353,0.875,1.049
		c1.519,1.632,2.892,3.408,4.549,4.9c0.36,0.456,0.937,0.695,1.225,1.225c0.626,0.773,1.327,1.474,2.1,2.1
		c0.01,0.107,0.026,0.207,0.175,0.176c0.685,0.832,1.443,1.59,2.275,2.274c0.939,0.636,1.626,1.523,2.45,2.275
		c1.162,0.996,2.237,2.079,3.5,2.975c0.037,0.196,0.194,0.272,0.351,0.35c1.168,1.166,2.552,2.114,3.85,3.15
		c0.039,0.136,0.147,0.203,0.35,0.175c0.369,0.623,1.073,0.91,1.575,1.4c1.721,0.956,2.898,2.209,3.675,2.799
		c0.648,0.46,1.237,0.98,1.925,1.4c1.856,1.193,3.365,2.192,4.899,3.5c0.787,0.438,1.371,1.08,2.275,1.4
		c0.707,0.57,1.198,0.683,1.925,1.399c0.661,0.272,1.089,0.777,1.75,1.05c2.729,1.6,6.276,3.688,8.924,5.425
		c0.803,0.363,1.449,0.884,2.275,1.225c1.022,0.694,1.605,0.521,2.8,1.4c0.552,0.614,1.432,0.901,2.275,1.225
		c0.816,0.356,2.25,0.947,2.975,1.575c0.78,0.328,1.396,0.819,2.275,1.05c7.361,3.357,13.416,5.758,21.174,8.225
		c0.562,0.196,1.037,0.479,1.75,0.525c0.406-0.057,0.671,0.028,0.875,0.175c2.632,0.926,5.609,1.508,8.75,1.925
		c0.059,0,0.117,0,0.175,0c0.517,0.3,1.263,0.371,2.101,0.35c0.117,0,0.232,0,0.35,0c1.092,0.395,2.582,0.395,3.675,0
		c0.255-0.271,0.896-0.153,1.399-0.175c0.941-0.05,1.8-0.183,2.451-0.525c0.058,0,0.115,0,0.174,0
		c7.436-1.604,13.346-4.737,18.725-8.399c0.106-0.009,0.207-0.025,0.175-0.174c0.628-0.248,0.993-0.758,1.575-1.051
		c2.713-2.128,4.1-3.291,7-5.6c1.863-1.577,3.63-3.253,5.249-5.074c2.106-1.942,3.299-3.786,5.425-5.775
		c0.576-0.706,1.213-1.354,1.75-2.1c0.758-1.053,0.677-1.063,1.75-2.1c0.675-0.96,1.478-1.789,2.1-2.801
		c1.629-2.322,2.867-4.185,4.55-6.299c0.272-0.661,0.778-1.09,1.051-1.751c1.946-3.139,3.764-6.416,5.949-9.799
		c0.29-0.585,0.585-1.166,0.875-1.75c0.396-0.098-0.212-0.272,0.175-0.525c0.853-1.014,1.364-2.369,1.925-3.675
		c0.668-1.305,0.93-2.177,1.925-3.85c0.336-0.655,0.655-1.329,0.875-2.101c1.62-3.814,2.521-5.968,4.375-11.373
		c0.984-1.99,1.543-4.407,2.1-6.825c-0.074-0.716,0.162-1.121,0.351-1.575c0.409-0.873,0.532-2.033,0.7-3.149
		c0-0.059,0-0.117,0-0.175c0.279-0.479,0.359-1.157,0.35-1.925c0-0.059,0-0.117,0-0.175c0.283-0.709,0.357-1.626,0.35-2.625
		c0-0.117,0-0.233,0-0.351c0.402-0.414,0.063-1.57,0.176-2.274c0.01-5.253,1.025-8.634,1.399-13.475c0-1.05,0-2.1,0-3.149
		c-1.647-17.785-8.251-30.146-19.074-43.573c-3.768-3.99-7.978-7.539-11.899-11.374c-0.835-1.265-1.91-2.291-2.8-3.5
		c-0.157-0.31-0.392-0.542-0.7-0.701c-3.282-3.95-6.93-7.536-10.85-10.849c-0.01-0.106-0.025-0.207-0.174-0.176
		c-5.025-4.19-10.393-8.04-16.8-10.849c-0.01-0.106-0.026-0.207-0.175-0.175c-7.384-3.821-16.887-5.545-26.6-4.551
		c-9.144,0.938-17.697,4.249-24.323,7.525C80.38,25.479,67.948,34.863,57.572,45.185z"/>
	<path fill-rule="evenodd" clip-rule="evenodd" fill="#FECDAD" d="M57.572,45.185c2.209-1.688,4.376-4.096,6.649-6.125
		c6.774-6.045,14.107-11.373,22.224-16.099c10.62-6.184,23.074-12.334,38.673-12.249c8.192,0.044,14.449,2.473,20.475,4.725
		c0.148-0.032,0.165,0.068,0.175,0.175c6.137,2.962,12.009,7.124,16.8,10.849c0.148-0.031,0.164,0.069,0.174,0.176
		c0,0.059,0,0.117,0,0.175c3.938,3.237,7.35,7,10.85,10.674c0.309,0.159,0.543,0.392,0.7,0.701c-0.544-0.181,2.002,2.643,2.8,3.5
		c3.922,3.835,8.132,7.384,11.899,11.374c10.823,13.428,17.427,25.788,19.074,43.573c-0.397,0.186-0.066,1.1-0.175,1.574
		c-2.121-27.569-16.127-43.255-31.85-57.223c-9.375-6.224-19.971-12.294-33.248-14.349c-13.52-2.093-29.54,2.72-40.772,6.124
		c-10.449,3.168-19.706,7.698-28.174,12.25c-18.111,9.735-32.883,21.65-41.998,38.848c-2.768,8.016-5.926,17.52-4.375,27.999
		c1.149,7.755,4.536,14.643,7.175,20.475c9.855,16.534,22.781,30.718,38.673,42.697c3.948,2.977,7.958,5.632,11.899,8.575
		c3.95,2.948,8.315,4.832,13.125,7.174c9.784,4.766,21.125,9.56,34.123,10.149c14.844,0.675,25.44-6.112,33.773-13.824
		c6.632-6.137,12.301-12.946,17.324-20.648c0.611-0.938,1.043-2.217,2.1-2.8c7.994-13.88,14.872-28.876,19.6-46.022
		c1.101-6.133,2.053-12.413,2.625-19.074c0.104,0.362-0.216,1.149,0.175,1.225c-0.374,4.841-1.39,8.222-1.399,13.475
		c-0.403,0.414-0.064,1.57-0.176,2.274c0,0.117,0,0.233,0,0.351c-0.059,0-0.117,0-0.175,0c0.132,1.064-0.28,1.586-0.175,2.625
		c0,0.058,0,0.116,0,0.175c-0.059,0-0.116,0-0.175,0c0.099,0.798-0.311,1.09-0.175,1.925c0,0.058,0,0.116,0,0.175
		c-0.41,0.873-0.533,2.033-0.7,3.149c-0.188,0.454-0.425,0.859-0.351,1.575c-0.058,0-0.116,0-0.175,0
		c-0.517,2.4-1.257,4.576-1.925,6.825c-1.854,5.405-2.755,7.559-4.375,11.373c-0.385,0.495-0.961,1.717-0.875,2.101
		c-0.995,1.673-1.257,2.545-1.925,3.85c-0.759,1.107-1.263,2.471-1.925,3.675c-0.387,0.253,0.221,0.428-0.175,0.525
		c-0.058,0-0.116,0-0.175,0c-0.155,0.552-0.934,1.391-0.7,1.75c-2.186,3.383-4.003,6.66-5.949,9.799c-0.059,0-0.117,0-0.175,0
		c-0.117,0.568-1.603,2.027-0.876,1.751c-1.683,2.114-2.921,3.977-4.55,6.299c-0.809,0.71-1.873,2.091-2.1,2.801
		c-1.073,1.036-0.992,1.047-1.75,2.1c-0.635,0.535-1.661,1.602-1.75,2.1c-2.126,1.989-3.318,3.833-5.425,5.775
		c-1.746,1.694-3.567,3.314-5.249,5.074c-2.9,2.309-4.287,3.472-7,5.6c-0.301-0.118-1.273,0.587-1.575,1.051
		c0.032,0.148-0.068,0.165-0.175,0.174c-5.17,3.171-11.596,6.604-18.725,8.399c-0.059,0-0.116,0-0.174,0
		c-0.884,0.11-1.769,0.216-2.451,0.525c-0.504,0.021-1.145-0.096-1.399,0.175c-1.482,0.112-2.192,0.112-3.675,0
		c-0.117,0-0.232,0-0.35,0c-0.548-0.269-1.294-0.34-2.101-0.35c-0.058,0-0.116,0-0.175,0c0-0.059,0-0.117,0-0.175
		c-3.167-0.333-5.848-1.151-8.75-1.75c-0.203-0.146-0.469-0.231-0.875-0.175c-0.401-0.249-1.49-0.717-1.75-0.525
		c-7.758-2.467-13.813-4.867-21.174-8.225c-0.604-0.392-1.767-1.145-2.275-1.05c-0.724-0.628-2.158-1.219-2.975-1.575
		c-0.675-0.491-1.486-0.847-2.275-1.225c-1.195-0.88-1.778-0.706-2.8-1.4c-0.561-0.493-1.734-1.294-2.275-1.225
		c-2.648-1.736-6.195-3.825-8.924-5.425c-0.408-0.414-1.342-1.217-1.75-1.05c-0.727-0.717-1.218-0.829-1.925-1.399
		c-0.658-0.454-1.731-1.414-2.275-1.4c-1.534-1.308-3.043-2.307-4.899-3.5c-0.461-0.535-1.501-1.409-1.925-1.4
		c-0.776-0.59-1.954-1.843-3.675-2.799c-0.285-0.707-1.083-0.9-1.575-1.4c-0.203,0.028-0.311-0.039-0.35-0.175
		c-1.162-1.172-2.44-2.227-3.85-3.15c-0.156-0.077-0.313-0.153-0.351-0.35c-0.21-0.581-1.623-1.365-2.449-2.101
		c-0.435-0.386-1.044-1.515-1.05-0.874c-0.823-0.752-1.511-1.64-2.45-2.275c1.204,0.744-1.9-1.877-2.275-2.274
		c-0.149,0.031-0.165-0.068-0.175-0.176c-0.627-0.772-1.327-1.473-2.1-2.1c-0.288-0.529-0.865-0.769-1.225-1.225
		c-1.476-1.674-2.864-3.436-4.549-4.9c0.055-0.696-0.81-0.473-0.875-1.049c0.032-0.389-0.851-1.362-1.399-1.751
		c-0.156-0.076-0.313-0.153-0.351-0.35c0.067,0.153,0.429,0.151,0.351,0c-0.736-1.424-2.421-2.877-3.5-4.375
		c-3.179-4.412-6.024-9.632-8.225-15.049c0-0.059,0-0.117,0-0.175c-0.462-1.638-0.872-3.328-1.4-4.9c0-0.058,0-0.117,0-0.174
		c-0.041-0.718-0.085-1.432-0.35-1.926c0-0.117,0-0.233,0-0.35c-0.188-2.225-0.188-4.251,0-6.475c0.266-1.719,0.862-3.105,1.05-4.9
		c0.269-0.781,0.3-1.8,0.35-2.8c0-0.117,0-0.233,0-0.351c0.266-0.434,0.338-1.062,0.35-1.749c0-0.059,0-0.117,0-0.175
		c0.059,0,0.117,0,0.175,0c0.036-1.073,0.413-1.804,0.525-2.801c1.533-6.038,3.857-11.125,6.299-16.624c0.058,0,0.117,0,0.175,0
		c0.408-0.816,0.818-1.632,1.225-2.449c2.403-4.853,6.447-10.786,9.975-15.925c0.058,0,0.117,0,0.175,0
		c0.45-0.894,1.676-1.937,1.75-2.625c0.625-0.595,1.115-1.161,1.4-1.749c0.059,0,0.117,0,0.175,0
		c0.341-0.688,2.158-2.378,1.575-2.275c0.384-0.449,1.112-0.827,1.05-1.225c0.664-0.506,1.668-1.595,1.75-2.1
		c0.514-0.402,1.215-1.01,1.225-1.4c1.403-1.968,5.215-4.549,5.775-6.3c-0.04,0.126-0.013,0.184-0.175,0.175
		C54.483,48.163,56.073,46.719,57.572,45.185z"/>
	<path fill-rule="evenodd" clip-rule="evenodd" fill="#F4F1F2" d="M207.89,98.558c-0.572,6.661-1.524,12.941-2.625,19.074
		c-4.728,17.146-11.605,32.143-19.6,46.022c-1.057,0.583-1.488,1.862-2.1,2.8c-5.023,7.702-10.692,14.512-17.324,20.648
		c-8.333,7.712-18.93,14.499-33.773,13.824c-12.998-0.59-24.339-5.384-34.123-10.149c-4.81-2.342-9.175-4.226-13.125-7.174
		c-3.941-2.943-7.951-5.599-11.899-8.575c-15.893-11.979-28.818-26.163-38.673-42.697c-2.639-5.832-6.026-12.72-7.175-20.475
		c-1.552-10.479,1.607-19.983,4.375-27.999c9.115-17.197,23.887-29.112,41.998-38.848c8.468-4.552,17.725-9.082,28.174-12.25
		c11.233-3.404,27.253-8.217,40.772-6.124c13.277,2.055,23.873,8.125,33.248,14.349c15.723,13.968,29.729,29.653,31.85,57.223
		C207.89,98.325,207.89,98.441,207.89,98.558z M161.517,32.76c-1.047-0.515-2.34-0.804-2.975-1.049
		c-2.072-0.802-5.289-2.406-8.574-2.801c-7.755-3.423-18.133-2.408-27.648-0.699c-1.474,0.265-4.185,0.182-4.201,0.875
		c-2.229,0.073-6,0.968-7.524,1.75c-3.387,0.201-7.189,2.336-10.325,2.8c-0.633,0.942-3.273,0.611-3.325,1.575
		c-2.025,0.249-4.749,1.316-6.475,2.45c-1.063-0.129-2.548,0.831-3.5,1.398c-1.689,0.353-3.031,1.053-4.2,1.925
		c-3.583,1.329-8.071,3.514-11.55,5.95c-0.87-0.051-2.186,0.962-2.799,1.75c-0.893-0.04-2.33,0.795-2.8,1.75
		c-0.925-0.135-2.554,1.19-2.8,1.75c-3.042,1.333-5.453,3.297-7.699,5.424c-3.39,2.385-6.65,4.9-9.1,8.226
		c-1.231,0.576-2.186,1.431-2.625,2.8c-1.286,0.539-1.828,1.211-2.45,2.8c-1.379,0.524-2.283,2.252-3.5,4.025
		c-0.908,1.322-2.163,2.625-2.45,3.499c-0.337,1.028,0.121,0.611-0.524,1.226c-1.291,1.228-2.025,3.852-2.625,5.6
		c-0.752,0.529-0.993,1.572-1.05,2.8c-2.554,6.174-4.488,16.209-2.625,23.624c0.04,3.577,1.293,7.455,2.8,10.149
		c-0.437,0.908,0.388,2.058,1.05,2.449c-0.231,1.517,0.722,2.069,1.05,3.5c0.438,0.23,0.548-0.691,0.7-0.175
		c-0.076,0.274-0.55,0.149-0.35,0.7c1.606,3.502,3.978,7.116,5.949,10.499c0.233,0.429,0.529-0.314,0.701,0.176
		c-0.214,0.02-0.415,0.052-0.35,0.35c0.805,0.937,1.645,2.603,2.45,2.975c0.596,1.564,2.504,4.062,3.85,4.899
		c-0.01,0.224-0.224,0.242-0.175,0.525c0.233,0,0.467,0,0.7,0c-0.089,1.541,1.9,2.377,2.45,3.851c0.312,0.104,0.727-0.514,0.875,0
		c-0.206,0.026-0.497-0.03-0.525,0.174c0.815,0.76,1.316,1.833,2.45,2.275c-0.136,0.039-0.345,0.005-0.35,0.175
		c3.942,3.877,8.12,8.554,12.774,12.25c0.028-0.207-0.03-0.497,0.175-0.525c0.145,0.494-0.247,0.454-0.175,0.875
		c2.581,1.561,4.23,4.053,7.175,5.25c-0.352,0.356,0.077,0.343,0.175,0.699c9.706,7.094,19.345,15.186,31.673,19.074
		c0.534,0.72,2.279,1.474,3.5,1.4c0.965,1.314,2.466,0.896,3.675,1.925c0.468-0.316,0.184-0.3,1.225-0.176
		c-0.001,0.232-0.307,0.16-0.35,0.351c2.587,0.813,4.86,1.852,6.999,2.45c0.713,0.199,1.478-0.012,2.276,0.175
		c1.174,0.274,2.182,1.092,3.324,1.05c0.99-0.036,0.66-0.188,1.4,0.175c0.375,0.185,0.99,0.281,1.399,0.35
		c4.765,0.802,11.211,1.056,16.274-0.524c1.244,0.178,2.51-0.56,3.85-0.875c2.901-1.124,7.171-2.395,9.449-4.725
		c1.127,0.16,2.028-1.245,2.8-1.75c2.691-1.763,5.56-3.971,8.225-6.3c0.429-0.232-0.191-0.651,0.175-0.7
		c0.923-0.172,2.571-1.918,2.801-2.8c1.4-0.777,3.565-3.174,4.199-4.725c0.25,0.068,0.296,0.21,0.525,0
		c0.778-1.739,3.031-2.905,3.149-4.725c1.318-0.412,2.71-3.078,3.325-4.199c1.795-2.355,4.614-6.108,5.6-9.275
		c0.942-0.154,2.042-2.259,1.925-3.499c0.545,0.279,1.004-0.798,1.05-1.575c1.258-1.087,2.222-3.363,2.45-4.899
		c1.617-1.889,2.938-4.987,3.5-7.351c1.247-1.552,1.942-3.656,2.45-5.95c0.639,0.057,1.217-2.029,1.049-2.799
		c1.186-0.623,0.678-2.94,1.75-3.675c-0.779-0.854,0.392-1.079,0-1.925c0.241-0.009,0.385,0.082,0.525,0.174
		c1.52-6.985,6.295-15.805,3.676-23.798c-0.109-5.39-2.063-10.234-3.501-15.05c-5.239-17.545-13.749-32.216-23.099-45.147
		c-2.281-1.687-4.59-4.275-7.175-5.075c0.207,0.085,0.396,0.187,0.525,0.351c-1.022-0.24-0.69-0.799-1.399-1.4
		c-0.994,0.43-1.063-1.389-2.275-0.699c-0.016-0.478,0.291-0.353,0-0.7c-1.563-0.038-2.85-2.353-4.375-1.75
		C164.437,34.103,162.46,33.224,161.517,32.76z"/>
</g>
</svg>
