<?xml version="1.0" encoding="utf-8"?>
<!-- Generator: Adobe Illustrator 14.0.0, SVG Export Plug-In . SVG Version: 6.00 Build 43363)  -->
<!DOCTYPE svg PUBLIC "-//W3C//DTD SVG 1.1//EN" "http://www.w3.org/Graphics/SVG/1.1/DTD/svg11.dtd">
<svg version="1.1" id="Layer_1" xmlns="http://www.w3.org/2000/svg" xmlns:xlink="http://www.w3.org/1999/xlink" x="0px" y="0px"
	 width="234.935px" height="227.98px" viewBox="0 0 234.935 227.98" enable-background="new 0 0 234.935 227.98"
	 xml:space="preserve">
<g id="XMLID_5_">
	<path id="XMLID_284_" fill="#ECC19C" d="M137.462,194.171c-1.895-10.168-1.311-22.37-1.311-22.37h-15.648h-1.354h-15.648
		c0,0,0.584,12.202-1.311,22.37c-1.895,10.169-13.219,10.169-13.219,10.169l30.856,8.177l30.854-8.177
		C150.681,204.34,139.357,204.34,137.462,194.171z"/>
	<g id="XMLID_282_">
		<path id="XMLID_283_" fill="#CCA88D" d="M137.205,192.682c-3.771,2.77-8.437,3.937-14.246,2.229
			c-12.29-3.627-17.611-9.317-19.539-11.917c0.402-7.381,0.404-13.05,0.404-13.05l32.652,0.381
			C136.476,170.326,135.576,182.588,137.205,192.682z"/>
	</g>
	<g id="XMLID_279_">
		<path id="XMLID_281_" fill="#ECC19C" d="M76.328,118.96c0,0-7.463-10.03-10.585-2.194c-3.122,7.838-1.114,18.842,2.294,24.039
			c3.409,5.2,10.232,13.505,12.392,13.662c2.16,0.158,3.92-0.796,6.093-2.788L76.328,118.96z"/>
		<path id="XMLID_280_" opacity="0.6" fill="#DB9C94" d="M77.873,124.364c0,0-5.007-6.73-7.102-1.473
			c-2.095,5.259-0.748,12.642,1.539,16.129c2.287,3.489,6.865,9.061,8.314,9.166c1.449,0.106,2.63-0.533,4.088-1.87L77.873,124.364z
			"/>
	</g>
	<g id="XMLID_276_">
		<path id="XMLID_278_" fill="#ECC19C" d="M165.085,120.092c0,0,6.891-9.583,9.846-2.042c2.957,7.542,1.154,18.096-1.989,23.063
			c-3.144,4.97-9.448,12.9-11.46,13.038c-2.01,0.139-3.656-0.789-5.692-2.715L165.085,120.092z"/>
		<path id="XMLID_277_" opacity="0.6" fill="#DB9C94" d="M163.679,125.27c0,0,4.623-6.431,6.607-1.37
			c1.982,5.061,0.773,12.14-1.336,15.475c-2.108,3.335-6.339,8.654-7.688,8.747c-1.349,0.094-2.453-0.529-3.819-1.821
			L163.679,125.27z"/>
	</g>
	<path id="XMLID_273_" fill="#333333" d="M119.375,46.173c0.25,0,0.498,0.01,0.749,0.013c0.249-0.003,0.499-0.013,0.749-0.013
		c26.521,0,51.459,21.756,51.459,51.13s-24.938,55.244-51.459,55.244c-0.25,0-0.5-0.009-0.749-0.016
		c-0.249,0.007-0.499,0.016-0.749,0.016c-26.521,0-51.46-25.87-51.46-55.244S92.853,46.173,119.375,46.173z"/>
	<path id="XMLID_272_" fill="#ECC19C" d="M120.519,186.434c-14.122,0-30.755-12.014-38.492-23.254
		c-2.336-3.396-3.162-20.809-3.162-32.751c0-17.17-0.273-40.085,4.932-49.649c6.92-12.713,26.488-10.299,36.722-10.299h0.193
		c10.234,0,29.803-2.414,36.723,10.299c5.205,9.564,4.932,32.479,4.932,49.649c0,11.942-0.824,29.354-3.161,32.751
		c-7.737,11.24-24.37,23.254-38.493,23.254H120.519z"/>
	<path id="XMLID_271_" opacity="0.6" fill="#DB9C94" d="M120.392,135.672c0,0,0.277,0.671,0.724,1.514
		c0.212,0.409,0.458,0.887,0.723,1.398c0.115,0.241,0.235,0.493,0.356,0.747c0.097,0.251,0.229,0.495,0.289,0.739
		c0.111,0.244,0.13,0.471,0.197,0.698c0.02,0.217,0.063,0.431,0.047,0.633c-0.032,0.196-0.009,0.417-0.105,0.607
		c-0.057,0.199-0.107,0.416-0.232,0.591c-0.114,0.173-0.182,0.385-0.299,0.534c-0.119,0.145-0.217,0.29-0.302,0.411
		c-0.169,0.244-0.267,0.406-0.267,0.406s0.172-0.007,0.48-0.064c0.152-0.029,0.344-0.066,0.555-0.13
		c0.216-0.06,0.43-0.201,0.674-0.348c0.117-0.082,0.258-0.146,0.375-0.256c0.113-0.113,0.222-0.242,0.339-0.376
		c0.255-0.254,0.397-0.611,0.544-0.991c0.094-0.188,0.091-0.388,0.123-0.592c0.016-0.2,0.064-0.421,0.031-0.616
		c-0.037-0.398-0.098-0.811-0.237-1.165c-0.118-0.377-0.296-0.699-0.478-1.015c-0.184-0.311-0.4-0.579-0.612-0.837
		c-0.442-0.492-0.902-0.889-1.346-1.162C121.113,135.822,120.392,135.672,120.392,135.672z"/>
	<g id="XMLID_267_">
		<path id="XMLID_270_" d="M105.672,112.436c1.284,0.299,2.669-0.021,3.614-0.939c0.647-0.629,0.546-2.534-0.316-3.59
			c-2.479-3.031-12.699-4.133-20.168-1.889c-3.388,1.016-7.842,5.092-7.851,5.099c0.368-0.114,0.574-0.162,0.785-0.208
			c0.31-0.068,0.62-0.135,0.931-0.201c0.622-0.133,1.244-0.261,1.867-0.383c1.245-0.243,2.496-0.458,3.755-0.61
			c1.561-0.188,3.128-0.281,4.699-0.181C97.335,109.815,101.46,111.454,105.672,112.436z"/>
		<g id="XMLID_268_">
			
				<ellipse id="XMLID_269_" transform="matrix(0.0443 0.999 -0.999 0.0443 222.3296 16.832)" cx="102.368" cy="124.615" rx="6.366" ry="4.181"/>
		</g>
	</g>
	<g id="XMLID_263_">
		<path id="XMLID_266_" d="M135.327,112.436c-1.284,0.299-2.669-0.021-3.614-0.939c-0.646-0.629-0.547-2.534,0.316-3.59
			c2.479-3.031,12.697-4.133,20.168-1.889c3.389,1.016,7.843,5.092,7.852,5.099c-0.368-0.114-0.574-0.162-0.785-0.208
			c-0.311-0.068-0.621-0.135-0.932-0.201c-0.621-0.133-1.242-0.261-1.866-0.383c-1.245-0.243-2.495-0.458-3.755-0.61
			c-1.561-0.188-3.129-0.281-4.699-0.181C143.664,109.815,139.539,111.454,135.327,112.436z"/>
		<g id="XMLID_264_">
			
				<ellipse id="XMLID_265_" transform="matrix(-0.0442 0.999 -0.999 -0.0442 269.2485 -8.3744)" cx="138.63" cy="124.615" rx="6.366" ry="4.182"/>
		</g>
	</g>
	<path id="XMLID_257_" fill="#333333" d="M151.261,75.349c0,0-56.966,33.337-98.625,18.937c0,0,14.208-13.376,21.133-25.045
		c7.492-12.624,35.943-47.684,79.228-23.067l-0.947-8.381c0,0,8.994,5.924,10.318,20.199c0,0,10.691,0.053,13.141,6.522
		l-6.943-1.789c0,0,6.313,8.046,6.943,18.778c1.28,21.766-6.685,34.794-6.685,34.794s-6.093-7.816-7.347-18.251
		C159.152,78.664,155.156,78.844,151.261,75.349z"/>
	<g id="XMLID_254_">
		<g id="XMLID_173_">
			<path id="XMLID_174_" fill="#1A1A1A" d="M153.312,64.619c0,0-1.055,1.249-3.104,3.231c-1.027,0.986-2.281,2.188-3.794,3.472
				c-1.501,1.3-3.22,2.744-5.178,4.211c-3.873,2.993-8.608,6.226-13.96,9.244c-1.328,0.771-2.705,1.509-4.115,2.229
				c-1.393,0.75-2.846,1.431-4.305,2.126c-1.466,0.68-2.956,1.346-4.464,1.984c-1.527,0.595-3.039,1.243-4.59,1.798
				c-1.553,0.547-3.1,1.114-4.673,1.59c-1.558,0.518-3.134,0.961-4.708,1.366c-1.562,0.446-3.138,0.794-4.697,1.122
				c-1.549,0.362-3.108,0.61-4.635,0.862c-3.058,0.493-6.042,0.799-8.875,0.944c-1.413,0.106-2.798,0.094-4.131,0.099
				c-1.333,0.018-2.621-0.042-3.855-0.12c-2.467-0.064-4.715-0.415-6.692-0.662c-1.976-0.313-3.678-0.689-5.071-0.987
				c-2.771-0.742-4.313-1.233-4.313-1.233s1.646-0.027,4.454,0.042c1.401-0.034,3.104-0.075,5.057-0.123
				c1.947-0.145,4.125-0.229,6.489-0.493c1.182-0.104,2.409-0.234,3.673-0.445c1.264-0.194,2.572-0.312,3.904-0.585
				c2.671-0.437,5.466-1.004,8.333-1.677c2.868-0.677,5.808-1.461,8.768-2.366c0.739-0.226,1.482-0.452,2.227-0.68l2.224-0.741
				c1.495-0.469,2.966-1.032,4.447-1.564c2.964-1.064,5.885-2.257,8.752-3.457c2.852-1.238,5.663-2.465,8.341-3.754
				c2.689-1.265,5.264-2.554,7.701-3.797c2.424-1.266,4.735-2.449,6.836-3.605c4.207-2.305,7.689-4.314,10.129-5.745
				C151.921,65.449,153.312,64.619,153.312,64.619z"/>
		</g>
	</g>
	<g id="XMLID_224_">
		<g id="XMLID_169_">
			<path id="XMLID_170_" fill="#1A1A1A" d="M153.312,57.891c0,0-1.299,1.065-3.664,2.784c-2.366,1.721-5.787,4.12-10.02,6.786
				c-2.113,1.338-4.41,2.78-6.885,4.226c-2.473,1.449-5.098,2.951-7.854,4.428c-2.748,1.494-5.622,2.979-8.574,4.426
				c-2.944,1.462-5.985,2.851-9.036,4.222c-3.073,1.321-6.156,2.628-9.245,3.793c-3.082,1.184-6.15,2.263-9.161,3.204
				c-1.504,0.471-2.981,0.942-4.456,1.324c-1.461,0.414-2.901,0.794-4.318,1.114c-2.817,0.686-5.529,1.176-8.049,1.526
				c-2.512,0.38-4.848,0.563-6.922,0.593c-1.031,0.051-2.004,0.038-2.903-0.028c-0.896-0.044-1.713-0.081-2.454-0.207
				c-0.739-0.096-1.393-0.189-1.957-0.282c-0.558-0.145-1.033-0.268-1.418-0.369c-0.756-0.209-1.159-0.32-1.159-0.32
				s0.419-0.007,1.206-0.021c0.386-0.004,0.863-0.009,1.423-0.014c0.562-0.065,1.204-0.127,1.916-0.191
				c0.711-0.039,1.498-0.185,2.347-0.338c0.85-0.147,1.764-0.273,2.735-0.518c0.971-0.22,2-0.424,3.075-0.748
				c1.075-0.304,2.211-0.552,3.379-0.937c1.171-0.357,2.39-0.711,3.636-1.162c1.25-0.426,2.547-0.833,3.864-1.334
				c1.321-0.47,2.681-0.948,4.056-1.491c1.379-0.521,2.79-1.055,4.213-1.632c2.857-1.116,5.786-2.352,8.768-3.592
				c2.973-1.264,5.994-2.556,9.001-3.884c12.043-5.29,24.022-10.85,33.146-14.823c4.541-2.028,8.369-3.656,11.059-4.788
				C151.75,58.505,153.312,57.891,153.312,57.891z"/>
		</g>
	</g>
	<g id="XMLID_221_">
		<g id="XMLID_165_">
			<path id="XMLID_168_" fill="#1A1A1A" d="M150.681,52.626c0,0-1.26-0.295-3.466-0.812c-1.097-0.233-2.431-0.514-3.958-0.838
				c-1.521-0.317-3.251-0.604-5.111-0.956c-1.876-0.3-3.898-0.611-6.037-0.869c-2.135-0.283-4.388-0.484-6.707-0.654
				c-2.322-0.134-4.713-0.243-7.13-0.201c-2.417,0.023-4.86,0.154-7.278,0.429c-1.205,0.154-2.42,0.26-3.603,0.5l-1.782,0.306
				c-0.585,0.131-1.168,0.261-1.749,0.392c-2.327,0.52-4.56,1.22-6.704,1.974c-1.067,0.388-2.077,0.863-3.107,1.252
				c-0.991,0.476-1.961,0.94-2.905,1.393c-0.92,0.515-1.816,1.014-2.682,1.495c-0.876,0.479-1.655,1.047-2.448,1.539
				c-0.806,0.479-1.494,1.045-2.186,1.55c-0.684,0.512-1.379,0.959-1.962,1.457c-1.143,1.015-2.257,1.819-3.071,2.586
				c-1.631,1.529-2.642,2.387-2.642,2.387s0.576-1.156,1.722-3.154c0.578-0.995,1.399-2.119,2.343-3.431
				c0.472-0.655,1.058-1.28,1.637-1.982c0.587-0.695,1.227-1.41,1.965-2.086c0.732-0.679,1.457-1.447,2.292-2.141
				c0.843-0.681,1.725-1.383,2.653-2.081c0.962-0.642,1.96-1.299,2.997-1.949c1.068-0.588,2.165-1.194,3.309-1.751
				c2.308-1.061,4.765-2.045,7.348-2.72c0.645-0.173,1.292-0.346,1.942-0.519c0.654-0.147,1.316-0.267,1.978-0.394
				c1.321-0.283,2.662-0.43,4-0.608c1.34-0.149,2.686-0.206,4.022-0.291c1.335-0.014,2.67-0.062,3.984,0.014
				c0.658,0.028,1.312,0.057,1.963,0.084c0.647,0.06,1.292,0.119,1.934,0.179c1.282,0.1,2.535,0.297,3.767,0.482
				c2.456,0.401,4.803,0.909,6.986,1.516c2.193,0.575,4.211,1.3,6.057,1.978c3.688,1.381,6.608,2.878,8.594,4.005
				C149.633,51.839,150.681,52.626,150.681,52.626z"/>
		</g>
	</g>
	<g id="XMLID_212_">
		<g id="XMLID_161_">
			<path id="XMLID_162_" fill="#1A1A1A" d="M145.67,54.52c0,0-0.378,0.073-1.087,0.213c-0.706,0.118-1.734,0.377-3.039,0.634
				c-1.303,0.304-2.877,0.653-4.672,1.096c-1.796,0.432-3.805,0.973-5.987,1.563c-1.095,0.275-2.224,0.605-3.386,0.979
				c-1.164,0.344-2.367,0.702-3.605,1.066c-1.226,0.402-2.484,0.815-3.771,1.236c-0.644,0.206-1.294,0.413-1.949,0.623
				c-0.648,0.236-1.303,0.474-1.962,0.713c-1.321,0.468-2.664,0.944-4.023,1.425c-1.341,0.53-2.697,1.065-4.065,1.605
				c-2.757,1.021-5.471,2.266-8.208,3.451c-0.683,0.301-1.38,0.57-2.054,0.886l-2.005,0.981c-1.341,0.642-2.678,1.282-4.003,1.915
				c-2.643,1.286-5.151,2.731-7.658,3.998c-1.271,0.607-2.417,1.376-3.597,2.038c-1.172,0.678-2.319,1.342-3.436,1.987
				c-2.282,1.227-4.289,2.618-6.223,3.802c-0.962,0.604-1.884,1.181-2.761,1.729c-0.9,0.522-1.735,1.046-2.479,1.591
				c-1.507,1.066-2.866,1.951-3.979,2.693c-2.234,1.477-3.569,2.278-3.569,2.278s0.974-1.185,2.782-3.182
				c0.906-0.996,2-2.221,3.308-3.575c1.261-1.41,2.898-2.751,4.622-4.3c1.749-1.519,3.578-3.271,5.758-4.794
				c1.073-0.787,2.175-1.598,3.302-2.424c1.132-0.822,2.278-1.686,3.527-2.428c1.239-0.763,2.498-1.538,3.773-2.322
				c1.285-0.768,2.552-1.612,3.93-2.274c1.36-0.7,2.73-1.402,4.106-2.11l2.077-1.045c0.699-0.337,1.418-0.632,2.129-0.945
				c2.864-1.205,5.7-2.479,8.616-3.417c1.442-0.505,2.871-1.014,4.3-1.46c1.442-0.404,2.868-0.804,4.269-1.196
				c0.701-0.191,1.396-0.381,2.085-0.568c0.699-0.153,1.39-0.304,2.074-0.454c1.368-0.288,2.706-0.569,4.01-0.843
				c2.636-0.417,5.11-0.851,7.431-1.043c1.156-0.111,2.258-0.244,3.313-0.321c1.057-0.047,2.059-0.09,3.002-0.13
				c1.877-0.105,3.529-0.03,4.875-0.011C144.143,54.278,145.67,54.52,145.67,54.52z"/>
		</g>
	</g>
	<g id="XMLID_286_">
		<path id="XMLID_290_" fill="#DB9C94" d="M125.544,173.337c0,0-0.814-0.005-1.901,0.048c-0.547,0.022-1.168,0.046-1.815,0.088
			c-0.65,0.024-1.328,0.068-2.004,0.076c-0.674,0.024-1.346,0.028-1.981,0.01c-0.321,0.006-0.629-0.013-0.927-0.027
			c-0.299-0.005-0.588-0.005-0.853-0.032c-0.263-0.026-0.521-0.021-0.748-0.031c-0.22-0.03-0.423-0.037-0.592-0.047
			c-0.34-0.016-0.552-0.011-0.552-0.011s0.123,0.158,0.369,0.408c0.244,0.256,0.618,0.595,1.139,0.887
			c0.252,0.168,0.541,0.318,0.86,0.441c0.317,0.135,0.658,0.265,1.023,0.343c0.725,0.197,1.528,0.282,2.322,0.259
			c1.596-0.032,3.123-0.544,4.128-1.16C125.039,174.005,125.544,173.337,125.544,173.337z"/>
		<path id="XMLID_289_" fill="#7A2742" d="M140.277,156.065c0,0-15.194,5.067-39.929,0.336
			C100.348,156.401,119.011,187.662,140.277,156.065z"/>
		<g id="XMLID_287_">
			<path id="XMLID_288_" fill="#FFFFFF" d="M102.292,156.823c4.62,5.142,10.235,7.576,19.631,7.631
				c7.99,0.042,14.254-5.65,15.432-7.636C132.218,157.97,119.242,159.638,102.292,156.823z"/>
		</g>
	</g>
</g>
<g>
	<path fill-rule="evenodd" clip-rule="evenodd" fill="#FFC2D6" d="M118.518,1.529c-17.155,0.189-30.506,4.662-42.348,10.5
		c-9.172,4.522-16.496,9.608-23.624,16.099c-2.263,2.061-4.256,4.415-6.65,6.475c-2.253,1.939-4.911,3.285-7.174,5.075
		C23.018,52.091,8.546,66.825,3.374,89.9c0-0.292,0-0.584,0-0.875c0.318-0.965,0.586-1.98,0.7-3.149
		c0.379-0.613,0.524-1.459,0.7-2.275c0.147-0.379,0.453-0.597,0.351-1.225c0.399-0.477,0.533-1.217,0.7-1.926
		c0.25-0.624,0.622-1.128,0.7-1.924c2.359-4.369,2.603-12.139,4.025-17.324c6.701-24.431,23.555-38.5,48.473-44.974
		c1.958-0.509,3.967-1.175,6.125-1.575c2.135-0.395,4.479-0.273,6.825-0.875c2.572-0.658,4.456-2.441,7-3.499
		c0.058,0,0.117,0,0.175,0c1.323-0.543,2.661-1.072,3.849-1.75c0.797-0.078,1.3-0.45,1.925-0.7c0.659-0.158,1.257-0.376,1.75-0.7
		c1.503-0.363,2.83-0.903,4.2-1.399c0.809-0.125,1.513-0.354,2.1-0.7c0.058,0,0.117,0,0.175,0c0.867-0.184,1.816-0.283,2.45-0.699
		c1.086-0.14,2.101-0.35,2.975-0.701c1.066-0.158,2.128-0.321,2.975-0.699c0.058,0,0.117,0,0.175,0
		c0.724,0.024,1.352-0.049,1.75-0.351c0.958,0.025,1.665-0.202,2.45-0.35c0.841-0.034,1.667-0.084,2.275-0.35
		c0.058,0,0.117,0,0.175,0c1-0.051,2.019-0.082,2.8-0.351c0.058,0,0.117,0,0.175,0c0.646-0.111,1.743,0.227,2.1-0.175
		c0.059,0,0.117,0,0.175,0c1.575,0,3.149,0,4.725,0c0.058,0,0.117,0,0.175,0C118.518,1.413,118.518,1.471,118.518,1.529z"/>
	<path fill-rule="evenodd" clip-rule="evenodd" fill="#FFC2D6" d="M234.013,99.349c0,0.525,0,1.05,0,1.575c0,0.059,0,0.116,0,0.175
		c-0.269,0.724-0.322,1.661-0.351,2.625c0,0.116,0,0.233,0,0.35c-0.301,0.517-0.372,1.263-0.351,2.101c0,0.058,0,0.116,0,0.175
		c-0.279,0.479-0.36,1.156-0.35,1.925c0,0.059,0,0.117,0,0.175c-0.302,0.397-0.375,1.026-0.35,1.75
		c-0.513,2.229-1.046,4.438-1.4,6.825c-0.51,1.182-0.779,2.604-1.05,4.024c-0.574,1.935-1.212,3.805-1.575,5.949
		c-0.166,7.023-0.859,13.72-1.925,19.949c-2.101,12.276-6.083,22.653-11.024,32.024c-2.443,4.631-5.159,9.44-8.4,13.299
		c-6.428,7.651-14.855,13.996-23.623,19.424c-4.426,2.739-9.331,5.033-14.35,7.175c-4.939,2.108-9.795,4.812-15.049,6.649
		c-0.059,0-0.117,0-0.176,0c-1.193,0.322-2.469,0.563-3.5,1.05c-0.815-0.058-1.379,0.137-1.924,0.351
		c-0.611,0.088-1.321,0.078-1.75,0.35c-0.467,0-0.934,0-1.4,0c14.842-2.354,26.078-9.832,35.523-18.549
		c9.43-8.704,17.312-19.096,24.148-29.924c12.237-19.38,21.896-41.6,26.949-67.722C232.812,107.325,233.513,103.16,234.013,99.349z"
		/>
	<path fill-rule="evenodd" clip-rule="evenodd" fill="#FFC2D6" d="M167.494,219.026c-0.107,0.063-0.215,0.13-0.321,0.192
		c-4.554,2.709-11.044,4.136-17.499,5.425c-2.518,0.503-5.033,1.101-7.699,1.4c-2.637,0.295-5.299,0.912-7.875,0.875
		c-1.615-0.023-3.145-0.654-4.9-0.701c-2.474-0.064-4.954,0.939-8.225,0.701c-6.398-0.468-12.909-1.609-18.899-3.15
		c-4.288-1.103-8.496-2.169-11.724-4.199c-6.578-1.67-12.05-5.458-17.149-8.925c-3.893-2.646-7.283-5.449-10.499-8.925
		c-0.947-1.022-2.445-1.967-2.625-3.499c-0.678,0.198-1.246-0.56-1.75-0.876c-2.359-1.479-3.278-2.934-5.075-4.725
		c-1.259-1.254-2.469-2.457-3.5-4.024c-4.129-4.431-7.518-9.597-11.899-14.175c-10.707-11.188-20.051-22.291-28.174-36.923
		c-1.423-2.563-3.877-6.157-4.2-8.749c-0.344-2.766,0.863-6.357,1.575-9.45c0.711-3.092,1.841-6.103,2.275-8.574
		c0.348-1.983-0.949-6.045-1.4-8.749c-0.919-5.521-1.615-10.33-1.75-17.15c-0.068-3.454,0.038-6.732,0.708-9.271
		c-0.228-0.032-0.449-0.084-0.666-0.149c-0.292,1.054-0.776,1.917-1.267,2.771v0.175c-3.092,8.666-5.726,18.61-4.9,30.623v0.351
		c0.631,3.511,1.164,7.12,2.1,10.325v0.174c0.391,2.723,2.766,6.029,3.15,8.926c0.701,5.284-1.053,10.978,0.35,16.273v0.175
		c0.354,1.104,0.492,2.425,0.7,3.676v0.174c0.492,1.725,0.955,3.479,1.4,5.25v0.176c0.361,0.514,0.488,1.261,0.7,1.925v0.175
		c1.017,2.133,2.002,4.298,3.15,6.3v0.175c9.521,15.97,24.649,26.333,43.223,33.248h0.175c1.01,0.216,1.76,0.69,2.625,1.05
		c0.979,0.654,1.708,1.56,2.45,2.45c12.647,13.135,26.452,25.111,48.998,28.349h0.175c1.321,0.137,2.859,0.058,4.025,0.35h1.75
		c1.234-0.282,2.789-0.243,4.199-0.35h0.176c2.35-0.45,4.682-0.918,7.35-1.05c0.918-0.304,1.396-0.401,2.274-0.175
		c1.464,0.46,3.978-0.129,5.425,0.35h0.175c0.589,0.111,1.626-0.226,1.925,0.176h6.824c0.955-0.271,2.122-0.329,3.326-0.351h0.174
		c1.604-0.439,3.439-0.645,5.075-1.05h0.175c1.758-0.635,3.646-1.137,5.426-1.75h0.174c3.426-1.45,6.559-3.193,9.898-4.729
		C167.574,219.385,167.532,219.206,167.494,219.026z"/>
	<path fill-rule="evenodd" clip-rule="evenodd" fill="#FFC2D6" d="M182.747,29.877c11.629,7.468,21.335,17.03,28.874,28.349
		c3.799,5.706,7.457,11.641,9.624,18.899c2.025,6.783,2.659,15.891,4.725,23.974c0.931,3.639,1.577,7.855,2.101,12.249
		c0.467,3.931,1.371,8.905,0.9,12.721c0.135,0.004,0.27,0.009,0.404,0.015c0.602-3.036,1.665-5.83,2.369-8.71v-0.176
		c1.059-4.892,1.959-9.939,2.801-15.049v-0.35c0.635-4.887,0.67-10.523,0-15.399v-0.35c-1.221-7.587-3.134-14.482-5.601-20.824
		V65.05c-12.099-27.623-32.06-47.387-60.021-59.146h-0.175c-1.595-0.563-3.27-1.048-4.726-1.75h-0.175
		c-0.809-0.124-1.513-0.353-2.1-0.699c-0.642,0.058-0.973-0.195-1.4-0.351c-1.389-0.302-2.813-0.571-4.024-1.05h-0.175
		c-1.705-0.337-3.498-0.586-5.075-1.051h-0.175c-1.936-0.163-3.841-0.358-5.6-0.699h-0.35c-2.785-0.099-4.949-0.176-7.7,0h-0.351
		c-0.953,0.271-2.121,0.328-3.324,0.35h-0.175c-0.724,0.269-1.662,0.321-2.625,0.35h-0.175c-3.728,0.849-8.014,1.401-11.899,0.351
		h-0.35c-2.775-0.213-5.624-0.213-8.4,0h-0.175c-0.836,0.272-1.938,0.278-2.975,0.35h-0.175c-1.403,0.347-2.942,0.558-4.55,0.7
		H101.9c-1.545,0.498-3.308,0.776-5.075,1.051h-0.175c-1.1,0.533-2.549,0.718-3.851,1.049h-0.174
		c-2.731,1.002-5.664,1.804-8.4,2.801h-0.175c-4.503,1.458-7.925,3.997-12.3,5.582c-0.031,0.196-0.064,0.39-0.101,0.582
		c0.05-0.014,0.102-0.028,0.152-0.039c3.607-0.801,9.092-0.053,13.125-0.525c2.913-0.342,6.303-1.904,9.45-2.975
		c6.354-2.164,12.125-3.943,19.074-5.6c3.458-0.825,7.351-2.269,11.024-2.101c3.738,0.171,7.808,1.516,11.725,2.625
		c15.207,4.304,26.576,11.249,37.623,19.6C176.572,26.532,179.778,27.971,182.747,29.877z"/>
	<path fill-rule="evenodd" clip-rule="evenodd" fill="#FF6D95" d="M201.295,184.395c-0.629,1.824-2.046,3.207-3.149,4.899
		c-3.369,5.163-7.892,10.271-12.425,14.525c-5.011,5.819-11.884,11.434-18.549,15.398c-4.554,2.709-11.044,4.136-17.499,5.425
		c-2.518,0.503-5.033,1.101-7.699,1.4c-2.637,0.295-5.299,0.912-7.875,0.875c-1.615-0.023-3.145-0.654-4.9-0.701
		c-2.474-0.064-4.954,0.939-8.225,0.701c-6.398-0.468-12.909-1.609-18.899-3.15c-4.288-1.103-8.496-2.169-11.724-4.199
		c-6.578-1.67-12.05-5.458-17.149-8.925c-3.893-2.646-7.283-5.449-10.499-8.925c-0.947-1.022-2.445-1.967-2.625-3.499
		c-0.678,0.198-1.246-0.56-1.75-0.876c-2.359-1.479-3.278-2.934-5.075-4.725c-1.259-1.254-2.469-2.457-3.5-4.024
		c-4.129-4.431-7.518-9.597-11.899-14.175c-10.707-11.188-20.051-22.291-28.174-36.923c-1.423-2.563-3.877-6.157-4.2-8.749
		c-0.344-2.766,0.863-6.357,1.575-9.45c0.711-3.092,1.841-6.103,2.275-8.574c0.348-1.983-0.949-6.045-1.4-8.749
		c-0.919-5.521-1.615-10.33-1.75-17.15c-0.087-4.409,0.105-8.54,1.4-11.199c0.892-1.83,1.896-3.693,2.975-5.425
		c1.619-2.6,3.259-5.195,4.55-6.824c0.347-0.438,0.893-0.874,1.4-1.05c1.76-3.758,5.136-5.77,7-8.575
		c0.356-0.351,0.466-0.045,0.7,0.175c0.578-0.271-0.636-0.469,0-0.875c1.301-0.795,2.113-2.028,3.149-2.975
		c0.243-0.222,0.692-0.169,0.875-0.35c0.204-0.201,0.121-0.478,0.35-0.7c1.425-1.386,3.195-2.622,4.9-4.024
		c0.99-0.814,1.813-2.262,3.325-2.275c3.213-3.553,7.592-5.939,11.024-9.274c0.363-0.813,1.58-2.104,2.8-2.625
		c1.548-2.225,4.142-3.875,6.475-5.774c2.277-1.855,4.636-4.047,7.524-5.075c0.602-0.998,2.04-1.686,3.325-2.449
		c1.231-0.731,2.585-1.82,3.85-2.1c3.607-0.801,9.092-0.053,13.125-0.525c2.913-0.342,6.303-1.904,9.45-2.975
		c6.354-2.164,12.125-3.943,19.074-5.6c3.458-0.825,7.351-2.269,11.024-2.101c3.738,0.171,7.808,1.516,11.725,2.625
		c15.207,4.304,26.576,11.249,37.623,19.6c2.75,2.078,5.956,3.518,8.925,5.424c11.629,7.468,21.335,17.03,28.874,28.349
		c3.799,5.706,7.457,11.641,9.624,18.899c2.025,6.783,2.659,15.891,4.725,23.974c0.931,3.639,1.577,7.855,2.101,12.249
		c0.477,4.008,1.411,9.107,0.874,12.95c-0.24,1.721-1.099,3.611-1.749,5.425c-1.887,5.259-3.728,10.795-5.775,15.749
		c-2.832,6.854-5.811,13.17-9.274,19.424c-0.022,0.503-0.219,0.831-0.875,0.7c-0.186,0.744,0.284,0.741-0.175,1.574
		C207.714,174.235,205.642,179.481,201.295,184.395z M206.544,110.024c1.41-6.071,1.584-11.892,0.875-17.325
		c-2.736-20.998-14.455-37.045-27.123-47.771c-3.34-2.828-6.048-6.311-9.1-9.625c-5.956-6.471-13.031-12.733-20.648-16.974
		c-8.341-4.645-18.197-8.11-29.924-7.175c-11.521,0.919-20.23,4.551-28.699,8.925C75.392,28.618,61.493,40.52,49.928,53.152
		C37.965,66.217,26.942,81.329,21.404,99.699c-0.731,2.427-1.339,4.833-1.75,7.525c-0.404,2.646-1.205,5.28-1.575,7.875
		c-0.847,5.933,0.609,11.323,2.45,15.923c3.565,8.911,8.871,15.853,15.049,22.575c11.898,12.943,25.656,23.964,41.648,33.423
		c11.823,6.994,23.862,12.874,38.673,17.499c4.938,1.542,10.685,3.282,15.75,3.15c5.751-0.15,11.954-2.527,16.624-4.9
		c4.946-2.513,9.191-5.604,12.949-8.574c16.14-12.759,27.761-30.164,36.573-49.522c4.528-9.947,8.561-20.409,8.749-34.474
		C206.544,110.141,206.544,110.082,206.544,110.024z M80.551,13.603c-0.176,0.527,0.39,0.311,0.7,0.351c0-0.176,0-0.351,0-0.524
		C80.946,13.415,80.707,13.467,80.551,13.603z M58.153,23.928c0.223-0.69-0.479-0.454-0.701-0.7
		C57.333,23.815,57.746,23.868,58.153,23.928z"/>
	<path fill="#F4F1F2" d="M206.199,111.417c0.057-0.29,0.116-0.576,0.172-0.867c-0.078,0.244-0.153,0.521-0.227,0.821
		C206.162,111.385,206.18,111.401,206.199,111.417z"/>
	<path fill="#F4F1F2" d="M176.943,42.479c-1.18-1.039-2.518-2.027-3.926-2.957c1.332,0.952,2.631,1.944,3.904,2.969
		C176.929,42.487,176.935,42.484,176.943,42.479z"/>
	<path fill="#FFC2D6" d="M201.47,72.925c-4.617-9.789-11.265-18.503-18.898-25.549c-1.611-1.487-3.25-2.921-4.928-4.298
		c-0.01,0.006-0.018,0.011-0.027,0.017c0.914,0.869,1.708,1.771,2.33,2.707c0.744,1.119,1.062,1.546,1.75,2.449
		c2.602,3.42,4.343,6.995,6.824,10.5c8.033,15.066,15.811,30.388,17.85,51.447h0.174v-0.175
		C209.432,96.75,206.123,82.786,201.47,72.925z"/>
</g>
</svg>
