<?xml version="1.0" encoding="utf-8"?>
<!-- Generator: Adobe Illustrator 14.0.0, SVG Export Plug-In . SVG Version: 6.00 Build 43363)  -->
<!DOCTYPE svg PUBLIC "-//W3C//DTD SVG 1.1//EN" "http://www.w3.org/Graphics/SVG/1.1/DTD/svg11.dtd">
<svg version="1.1" id="Layer_1" xmlns="http://www.w3.org/2000/svg" xmlns:xlink="http://www.w3.org/1999/xlink" x="0px" y="0px"
	 width="234.935px" height="227.98px" viewBox="0 0 234.935 227.98" enable-background="new 0 0 234.935 227.98"
	 xml:space="preserve">
<g id="XMLID_344_">
	<path id="XMLID_384_" fill="#ECC19C" d="M141.557,191.296c-1.895-10.168-1.311-22.37-1.311-22.37h-15.648h-1.354h-15.647
		c0,0,0.583,12.202-1.312,22.37c-1.895,10.169-13.219,10.169-13.219,10.169l30.854,8.177l30.855-8.177
		C154.777,201.465,143.452,201.465,141.557,191.296z"/>
	<g id="XMLID_382_">
		<path id="XMLID_383_" fill="#CCA88D" d="M141.299,189.807c-3.771,2.77-8.437,3.937-14.245,2.229
			c-12.29-3.627-17.612-9.317-19.539-11.917c0.401-7.381,0.403-13.05,0.403-13.05l32.652,0.381
			C140.571,167.451,139.67,179.713,141.299,189.807z"/>
	</g>
	<g id="XMLID_379_">
		<path id="XMLID_381_" fill="#ECC19C" d="M80.422,116.085c0,0-7.463-10.03-10.584-2.194c-3.122,7.838-1.114,18.842,2.295,24.039
			c3.408,5.2,10.23,13.505,12.391,13.662c2.16,0.158,3.92-0.796,6.094-2.788L80.422,116.085z"/>
		<path id="XMLID_380_" opacity="0.6" fill="#DB9C94" d="M81.967,121.489c0,0-5.007-6.73-7.102-1.473
			c-2.096,5.259-0.748,12.642,1.539,16.129c2.287,3.489,6.865,9.061,8.314,9.166c1.449,0.106,2.629-0.533,4.088-1.87L81.967,121.489
			z"/>
	</g>
	<g id="XMLID_376_">
		<path id="XMLID_378_" fill="#ECC19C" d="M169.18,117.217c0,0,6.891-9.583,9.846-2.042c2.957,7.542,1.154,18.096-1.988,23.063
			c-3.145,4.97-9.449,12.9-11.46,13.038c-2.011,0.139-3.657-0.789-5.693-2.715L169.18,117.217z"/>
		<path id="XMLID_377_" opacity="0.6" fill="#DB9C94" d="M167.774,122.395c0,0,4.623-6.431,6.607-1.37
			c1.983,5.061,0.773,12.14-1.336,15.475c-2.107,3.335-6.338,8.654-7.688,8.747c-1.35,0.094-2.453-0.529-3.82-1.821L167.774,122.395
			z"/>
	</g>
	<path id="XMLID_373_" fill="#333333" d="M123.468,43.298c0.251,0,0.5,0.01,0.749,0.013c0.251-0.003,0.5-0.013,0.75-0.013
		c26.521,0,51.459,21.756,51.459,51.13s-24.938,55.244-51.459,55.244c-0.25,0-0.499-0.009-0.75-0.016
		c-0.249,0.007-0.498,0.016-0.749,0.016c-26.521,0-51.459-25.87-51.459-55.244S96.948,43.298,123.468,43.298z"/>
	<path id="XMLID_372_" fill="#ECC19C" d="M124.614,183.559c-14.122,0-30.754-12.014-38.492-23.254
		c-2.337-3.396-3.161-20.809-3.161-32.751c0-17.17-0.273-40.085,4.933-49.649c6.92-12.713,26.486-10.299,36.721-10.299h0.193
		c10.234,0,29.803-2.414,36.723,10.299c5.205,9.564,4.932,32.479,4.932,49.649c0,11.942-0.824,29.354-3.162,32.751
		c-7.736,11.24-24.369,23.254-38.492,23.254H124.614z"/>
	<path id="XMLID_371_" opacity="0.6" fill="#DB9C94" d="M124.487,132.797c0,0,0.277,0.671,0.724,1.514
		c0.212,0.409,0.458,0.887,0.724,1.398c0.115,0.241,0.234,0.493,0.355,0.747c0.097,0.251,0.23,0.495,0.289,0.739
		c0.112,0.244,0.131,0.471,0.197,0.698c0.02,0.217,0.063,0.431,0.047,0.633c-0.033,0.196-0.008,0.417-0.104,0.607
		c-0.058,0.199-0.108,0.416-0.232,0.591c-0.114,0.173-0.183,0.385-0.3,0.534c-0.119,0.145-0.216,0.29-0.301,0.411
		c-0.169,0.244-0.268,0.406-0.268,0.406s0.173-0.007,0.48-0.064c0.151-0.029,0.344-0.066,0.555-0.13
		c0.217-0.06,0.43-0.201,0.674-0.348c0.117-0.082,0.259-0.146,0.375-0.256c0.112-0.113,0.223-0.242,0.338-0.376
		c0.256-0.254,0.398-0.611,0.545-0.991c0.094-0.188,0.091-0.388,0.123-0.592c0.016-0.2,0.064-0.421,0.031-0.616
		c-0.037-0.398-0.097-0.811-0.236-1.165c-0.119-0.377-0.297-0.699-0.479-1.015c-0.183-0.311-0.4-0.579-0.611-0.837
		c-0.443-0.492-0.903-0.889-1.346-1.162C125.208,132.947,124.487,132.797,124.487,132.797z"/>
	<g id="XMLID_367_">
		<path id="XMLID_370_" d="M109.766,109.561c1.285,0.299,2.669-0.021,3.615-0.939c0.646-0.629,0.547-2.534-0.316-3.59
			c-2.479-3.031-12.699-4.133-20.168-1.889c-3.389,1.016-7.844,5.092-7.852,5.099c0.367-0.114,0.573-0.162,0.785-0.208
			c0.311-0.068,0.62-0.135,0.931-0.201c0.622-0.133,1.243-0.261,1.866-0.383c1.244-0.243,2.496-0.458,3.756-0.61
			c1.561-0.188,3.129-0.281,4.699-0.181C101.43,106.94,105.554,108.579,109.766,109.561z"/>
		<g id="XMLID_368_">
			
				<ellipse id="XMLID_369_" transform="matrix(0.0443 0.999 -0.999 0.0443 223.3713 9.993)" cx="106.463" cy="121.74" rx="6.366" ry="4.181"/>
		</g>
	</g>
	<g id="XMLID_363_">
		<path id="XMLID_366_" d="M139.421,109.561c-1.284,0.299-2.669-0.021-3.614-0.939c-0.647-0.629-0.547-2.534,0.316-3.59
			c2.479-3.031,12.698-4.133,20.168-1.889c3.389,1.016,7.842,5.092,7.852,5.099c-0.369-0.114-0.574-0.162-0.785-0.208
			c-0.311-0.068-0.62-0.135-0.931-0.201c-0.622-0.133-1.243-0.261-1.867-0.383c-1.245-0.243-2.495-0.458-3.755-0.61
			c-1.561-0.188-3.129-0.281-4.699-0.181C147.758,106.94,143.633,108.579,139.421,109.561z"/>
		<g id="XMLID_364_">
			
				<ellipse id="XMLID_365_" transform="matrix(-0.0443 0.999 -0.999 -0.0443 270.663 -15.4579)" cx="142.726" cy="121.74" rx="6.366" ry="4.181"/>
		</g>
	</g>
	<g id="XMLID_360_">
		<path id="XMLID_362_" fill="#DB9C94" d="M118.594,161.411c0,0,0.763-0.012,1.781,0.029c0.513,0.017,1.094,0.032,1.701,0.067
			c0.609,0.019,1.246,0.054,1.878,0.055c0.632,0.019,1.261,0.017,1.856-0.006c0.301,0.004,0.589-0.015,0.867-0.032
			c0.281-0.007,0.551-0.01,0.799-0.035c0.247-0.028,0.488-0.025,0.701-0.037c0.205-0.029,0.396-0.037,0.555-0.048
			c0.318-0.018,0.516-0.014,0.516-0.014s-0.113,0.148-0.342,0.385c-0.227,0.241-0.574,0.561-1.06,0.839
			c-0.235,0.158-0.504,0.301-0.802,0.42c-0.297,0.128-0.615,0.254-0.957,0.33c-0.678,0.189-1.43,0.276-2.172,0.26
			c-1.496-0.019-2.93-0.484-3.877-1.054C119.073,162.032,118.594,161.411,118.594,161.411z"/>
		<path id="XMLID_361_" fill="#DB9C94" d="M141.038,153.588c-0.313,0.098-0.637,0.167-0.941,0.195
			c-0.354,0.052-0.676,0.055-0.991,0.065c-1.34,0.02-2.718-0.025-4.099-0.03c-1.385-0.007-2.778,0.019-4.198,0.129
			c-0.709,0.063-1.431,0.141-2.163,0.273c-0.376,0.086-0.736,0.141-1.131,0.266c-0.377,0.093-0.795,0.266-1.203,0.454l-0.132,0.076
			c0.021-0.016-0.045,0.021-0.077,0.032c-0.043,0.017-0.08,0.042-0.123,0.064c-0.085,0.043-0.172,0.085-0.254,0.136
			c-0.17,0.091-0.328,0.194-0.5,0.304c-0.172,0.103-0.359,0.243-0.611,0.347c-0.128,0.06-0.273,0.116-0.436,0.155
			c-0.076,0.025-0.174,0.041-0.257,0.06c-0.083-0.019-0.181-0.034-0.257-0.06c-0.162-0.039-0.308-0.096-0.436-0.155
			c-0.252-0.104-0.438-0.244-0.611-0.347c-0.172-0.109-0.33-0.213-0.499-0.304c-0.083-0.051-0.169-0.093-0.255-0.136
			c-0.043-0.022-0.08-0.048-0.123-0.064c-0.032-0.012-0.096-0.048-0.077-0.032l-0.131-0.076c-0.409-0.188-0.827-0.361-1.204-0.454
			c-0.395-0.125-0.754-0.18-1.13-0.266c-0.733-0.133-1.454-0.21-2.163-0.273c-1.421-0.11-2.814-0.136-4.198-0.129
			c-1.382,0.005-2.759,0.05-4.099,0.03c-0.314-0.011-0.639-0.014-0.992-0.065c-0.305-0.028-0.629-0.098-0.941-0.195
			c-0.622-0.206-1.254-0.489-1.826-0.889c0.408,0.568,0.924,1.082,1.538,1.484c0.31,0.199,0.63,0.385,0.995,0.521
			c0.311,0.133,0.668,0.241,1.033,0.35c1.389,0.385,2.766,0.611,4.133,0.839l4.038,0.626c0.659,0.104,1.301,0.241,1.919,0.378
			c0.293,0.083,0.614,0.147,0.872,0.248c0.282,0.084,0.489,0.191,0.704,0.281l0.199,0.123c0.09,0.055,0.186,0.096,0.279,0.134
			c0.186,0.082,0.379,0.146,0.58,0.188c0.398,0.093,0.832,0.102,1.256,0.02c0.56-0.104,2.232-0.104,2.791,0
			c0.424,0.082,0.857,0.073,1.256-0.02c0.201-0.041,0.395-0.105,0.581-0.188c0.093-0.038,0.188-0.079,0.278-0.134l0.199-0.123
			c0.215-0.09,0.422-0.197,0.705-0.281c0.257-0.101,0.578-0.165,0.871-0.248c0.619-0.137,1.26-0.274,1.92-0.378l4.039-0.626
			c1.367-0.228,2.743-0.454,4.131-0.839c0.365-0.108,0.723-0.217,1.033-0.35c0.365-0.136,0.688-0.321,0.996-0.521
			c0.613-0.402,1.129-0.916,1.538-1.484C142.292,153.099,141.66,153.382,141.038,153.588z"/>
	</g>
	<path id="XMLID_357_" fill="#333333" d="M155.356,72.474c0,0-56.965,33.337-98.625,18.937c0,0,14.209-13.376,21.134-25.045
		c7.491-12.624,35.942-47.684,79.228-23.067l-0.947-8.381c0,0,8.995,5.924,10.318,20.199c0,0,10.691,0.053,13.141,6.522
		l-6.943-1.789c0,0,6.313,8.046,6.943,18.778c1.281,21.766-6.685,34.794-6.685,34.794s-6.094-7.816-7.347-18.251
		C163.247,75.789,159.25,75.969,155.356,72.474z"/>
	<g id="XMLID_354_">
		<g id="XMLID_159_">
			<path id="XMLID_160_" fill="#1A1A1A" d="M157.408,61.744c0,0-1.055,1.249-3.104,3.231c-1.027,0.986-2.281,2.188-3.795,3.472
				c-1.5,1.3-3.219,2.744-5.177,4.211c-3.872,2.993-8.608,6.226-13.96,9.244c-1.328,0.771-2.705,1.509-4.114,2.229
				c-1.394,0.75-2.847,1.431-4.306,2.126c-1.466,0.68-2.955,1.346-4.463,1.984c-1.527,0.595-3.039,1.243-4.591,1.798
				c-1.554,0.547-3.1,1.114-4.673,1.59c-1.559,0.518-3.135,0.961-4.709,1.366c-1.561,0.446-3.137,0.794-4.696,1.122
				c-1.55,0.362-3.108,0.61-4.636,0.862c-3.058,0.493-6.041,0.799-8.875,0.944c-1.413,0.106-2.798,0.094-4.131,0.099
				c-1.332,0.018-2.621-0.042-3.855-0.12c-2.467-0.064-4.715-0.415-6.691-0.662c-1.977-0.313-3.68-0.689-5.072-0.987
				c-2.77-0.742-4.313-1.233-4.313-1.233s1.646-0.027,4.453,0.042c1.402-0.034,3.105-0.075,5.058-0.123
				c1.946-0.145,4.124-0.229,6.489-0.493c1.182-0.104,2.408-0.234,3.673-0.445c1.264-0.194,2.572-0.312,3.903-0.585
				c2.672-0.437,5.467-1.004,8.334-1.677c2.867-0.677,5.808-1.461,8.767-2.366c0.739-0.226,1.481-0.452,2.228-0.68l2.223-0.741
				c1.495-0.469,2.967-1.032,4.447-1.564c2.965-1.064,5.885-2.257,8.752-3.457c2.854-1.238,5.662-2.465,8.342-3.754
				c2.689-1.265,5.265-2.554,7.701-3.797c2.425-1.266,4.736-2.449,6.836-3.605c4.207-2.305,7.69-4.314,10.129-5.745
				C156.016,62.574,157.408,61.744,157.408,61.744z"/>
		</g>
	</g>
	<g id="XMLID_351_">
		<g id="XMLID_157_">
			<path id="XMLID_158_" fill="#1A1A1A" d="M157.408,55.016c0,0-1.3,1.065-3.665,2.784c-2.365,1.721-5.787,4.12-10.02,6.786
				c-2.113,1.338-4.41,2.78-6.885,4.226c-2.473,1.449-5.098,2.951-7.854,4.428c-2.748,1.494-5.622,2.979-8.574,4.426
				c-2.944,1.462-5.986,2.851-9.035,4.222c-3.074,1.321-6.157,2.628-9.246,3.793c-3.08,1.184-6.15,2.263-9.16,3.204
				c-1.504,0.471-2.981,0.942-4.455,1.324c-1.462,0.414-2.902,0.794-4.318,1.114c-2.817,0.686-5.529,1.176-8.049,1.526
				c-2.513,0.38-4.848,0.563-6.923,0.593c-1.03,0.051-2.005,0.038-2.903-0.028c-0.896-0.044-1.713-0.081-2.453-0.207
				c-0.738-0.096-1.393-0.189-1.957-0.282c-0.559-0.145-1.033-0.268-1.418-0.369c-0.756-0.209-1.159-0.32-1.159-0.32
				s0.419-0.007,1.206-0.021c0.386-0.004,0.862-0.009,1.422-0.014c0.563-0.065,1.205-0.127,1.917-0.191
				c0.711-0.039,1.497-0.185,2.347-0.338c0.85-0.147,1.764-0.273,2.734-0.518c0.973-0.22,2.001-0.424,3.075-0.748
				c1.075-0.304,2.212-0.552,3.38-0.937c1.171-0.357,2.39-0.711,3.637-1.162c1.25-0.426,2.547-0.833,3.863-1.334
				c1.321-0.47,2.681-0.948,4.055-1.491c1.38-0.521,2.791-1.055,4.215-1.632c2.857-1.116,5.785-2.352,8.768-3.592
				c2.971-1.264,5.992-2.556,9-3.884c12.043-5.29,24.023-10.85,33.147-14.823c4.54-2.028,8.368-3.656,11.058-4.788
				C155.845,55.63,157.408,55.016,157.408,55.016z"/>
		</g>
	</g>
	<g id="XMLID_348_">
		<g id="XMLID_155_">
			<path id="XMLID_156_" fill="#1A1A1A" d="M154.777,49.751c0,0-1.261-0.295-3.468-0.812c-1.097-0.233-2.429-0.514-3.957-0.838
				c-1.522-0.317-3.25-0.604-5.111-0.956c-1.875-0.3-3.898-0.611-6.037-0.869c-2.135-0.283-4.388-0.484-6.707-0.654
				c-2.321-0.134-4.713-0.243-7.13-0.201c-2.418,0.023-4.86,0.154-7.278,0.429c-1.205,0.154-2.42,0.26-3.603,0.5l-1.781,0.306
				c-0.585,0.131-1.168,0.261-1.749,0.392c-2.327,0.52-4.561,1.22-6.703,1.974c-1.068,0.388-2.077,0.863-3.107,1.252
				c-0.992,0.476-1.961,0.94-2.906,1.393c-0.92,0.515-1.814,1.014-2.681,1.495c-0.878,0.479-1.655,1.047-2.448,1.539
				c-0.806,0.479-1.494,1.045-2.186,1.55c-0.686,0.512-1.379,0.959-1.963,1.457c-1.144,1.015-2.257,1.819-3.071,2.586
				c-1.632,1.529-2.642,2.387-2.642,2.387s0.576-1.156,1.722-3.154c0.577-0.995,1.399-2.119,2.343-3.431
				c0.473-0.655,1.058-1.28,1.637-1.982c0.588-0.695,1.227-1.41,1.965-2.086c0.732-0.679,1.457-1.447,2.293-2.141
				c0.843-0.681,1.725-1.383,2.652-2.081c0.962-0.642,1.961-1.299,2.997-1.949c1.067-0.588,2.165-1.194,3.308-1.751
				c2.309-1.061,4.766-2.045,7.35-2.72c0.645-0.173,1.292-0.346,1.941-0.519c0.654-0.147,1.316-0.267,1.979-0.394
				c1.32-0.283,2.662-0.43,4-0.608c1.341-0.149,2.686-0.206,4.022-0.291c1.335-0.014,2.67-0.062,3.983,0.014
				c0.658,0.028,1.313,0.057,1.965,0.084c0.646,0.06,1.292,0.119,1.932,0.179c1.284,0.1,2.536,0.297,3.768,0.482
				c2.457,0.401,4.803,0.909,6.986,1.516c2.193,0.575,4.211,1.3,6.057,1.978c3.688,1.381,6.607,2.878,8.595,4.005
				C153.727,48.964,154.777,49.751,154.777,49.751z"/>
		</g>
	</g>
	<g id="XMLID_345_">
		<g id="XMLID_153_">
			<path id="XMLID_154_" fill="#1A1A1A" d="M149.766,51.645c0,0-0.379,0.073-1.088,0.213c-0.706,0.118-1.733,0.377-3.039,0.634
				c-1.302,0.304-2.878,0.653-4.672,1.096c-1.796,0.432-3.804,0.973-5.986,1.563c-1.096,0.275-2.225,0.605-3.387,0.979
				c-1.164,0.344-2.368,0.702-3.605,1.066c-1.225,0.402-2.484,0.815-3.77,1.236c-0.644,0.206-1.294,0.413-1.95,0.623
				c-0.647,0.236-1.303,0.474-1.963,0.713c-1.32,0.468-2.663,0.944-4.022,1.425c-1.341,0.53-2.698,1.065-4.066,1.605
				c-2.756,1.021-5.47,2.266-8.207,3.451c-0.684,0.301-1.381,0.57-2.055,0.886l-2.005,0.981c-1.341,0.642-2.678,1.282-4.003,1.915
				c-2.643,1.286-5.151,2.731-7.659,3.998c-1.271,0.607-2.416,1.376-3.596,2.038c-1.173,0.678-2.319,1.342-3.437,1.987
				c-2.282,1.227-4.289,2.618-6.222,3.802c-0.962,0.604-1.884,1.181-2.761,1.729c-0.9,0.522-1.735,1.046-2.479,1.591
				c-1.508,1.066-2.866,1.951-3.98,2.693c-2.232,1.477-3.568,2.278-3.568,2.278s0.975-1.185,2.781-3.182
				c0.906-0.996,2.001-2.221,3.309-3.575c1.262-1.41,2.898-2.751,4.622-4.3c1.749-1.519,3.579-3.271,5.759-4.794
				c1.072-0.787,2.175-1.598,3.301-2.424c1.133-0.822,2.277-1.686,3.527-2.428c1.238-0.763,2.498-1.538,3.773-2.322
				c1.285-0.768,2.551-1.612,3.93-2.274c1.359-0.7,2.73-1.402,4.105-2.11l2.078-1.045c0.698-0.337,1.418-0.632,2.129-0.945
				c2.863-1.205,5.699-2.479,8.615-3.417c1.442-0.505,2.871-1.014,4.3-1.46c1.442-0.404,2.867-0.804,4.269-1.196
				c0.701-0.191,1.396-0.381,2.086-0.568c0.697-0.153,1.389-0.304,2.073-0.454c1.368-0.288,2.707-0.569,4.011-0.843
				c2.636-0.417,5.11-0.851,7.43-1.043c1.157-0.111,2.258-0.244,3.313-0.321c1.057-0.047,2.06-0.09,3.002-0.13
				c1.877-0.105,3.529-0.03,4.875-0.011C148.239,51.403,149.766,51.645,149.766,51.645z"/>
		</g>
	</g>
	<g id="XMLID_386_">
		<g id="XMLID_387_">
			<g id="XMLID_388_">
				<path id="XMLID_389_" d="M167.795,110.753c0,0-4.523-0.921-7.043-1.438c-2.521-0.519-5.155-1.037-7.445-1.269
					c-2.291-0.231-4.983-0.35-7.733-0.008c-2.749,0.34-5.958,0.636-8.879,1.228c-2.922,0.594-5.501,1.22-6.532,1.449
					c-0.92,0.203-3.984,0.404-5.447,0.404v-0.007c-0.039,0.003-0.082,0.004-0.127,0.005c-0.123-0.001-0.232-0.003-0.326-0.008v0.012
					c-1.461-0.002-4.525-0.209-5.445-0.415c-1.031-0.23-3.607-0.863-6.528-1.461s-6.128-0.9-8.877-1.248
					c-2.749-0.345-5.44-0.233-7.733-0.007c-2.291,0.227-4.926,0.739-7.447,1.252c-2.52,0.514-7.047,1.426-7.047,1.426
					s-0.146,3.265-0.003,4.065c0.142,0.803,0.113,0.974,0.37,1.404c0.258,0.431,1.402,1.72,2.003,2.321
					c0.601,0.603,0.629,1.09,0.999,2.35c0.371,1.262,1.143,4.125,1.742,5.787s1.427,4.67,2.714,6.476
					c1.287,1.807,2.918,2.695,4.894,3.557c1.975,0.86,4.667,1.352,6.699,1.496c2.034,0.146,3.724,0.003,5.586-0.195
					c1.861-0.198,2.95-0.569,4.211-1.113c1.261-0.542,2.779-1.543,4.356-3.06s3.384-4.406,4.073-5.666
					c0.688-1.26,1.367-2.871,2.058-5.409c0.69-2.54,1.272-3.236,1.616-3.666c0.235-0.293,1.18-0.309,1.753-0.289v0.021
					c0,0,0.075-0.006,0.195-0.014c0.157,0.009,0.258,0.018,0.258,0.018v-0.027c0.573-0.02,1.518,0,1.752,0.294
					c0.343,0.429,0.925,1.126,1.609,3.666c0.685,2.541,1.36,4.154,2.047,5.416c0.687,1.261,2.487,4.155,4.062,5.675
					c1.573,1.519,3.09,2.523,4.35,3.068c1.26,0.546,2.348,0.918,4.209,1.12c1.861,0.204,3.551,0.348,5.584,0.207
					c2.034-0.141,4.727-0.625,6.704-1.481c1.977-0.858,3.61-1.743,4.9-3.547s2.124-4.81,2.728-6.47
					c0.603-1.661,1.379-4.523,1.753-5.783s0.402-1.747,1.005-2.348c0.602-0.602,1.748-1.889,2.007-2.317s0.229-0.602,0.374-1.402
					C167.936,114.018,167.795,110.753,167.795,110.753z M118.75,119.889c-0.193,1.719-0.997,3.512-1.762,5.27
					c-1.465,3.364-3.539,6.598-6.813,8.429c-3.205,1.794-7.063,2.282-10.674,1.851c-3.552-0.424-7.094-2.108-8.965-5.284
					c-2.209-3.754-2.799-8.218-2.67-12.501c0.117-3.92,2.949-5.714,6.555-6.373c2.94-0.538,5.928-0.828,8.916-0.865
					c3.485-0.044,7.031,0.269,10.272,1.546c1.622,0.64,3.222,1.621,4.287,3.027C119.126,116.609,118.963,117.996,118.75,119.889z
					 M161.086,118.864c-0.207,5.439-1.277,12.345-6.6,15.161c-1.656,0.878-3.518,1.309-5.381,1.503
					c-4.229,0.442-8.738-0.391-12.041-3.067c-3.41-2.764-6.369-8.177-6.854-12.563c-0.754-6.827,6.278-8.909,11.842-9.333
					c4.297-0.327,9.118-0.173,13.328,0.849c3.195,0.776,5.785,2.677,5.737,6.237C161.113,118.041,161.103,118.445,161.086,118.864z"
					/>
			</g>
		</g>
	</g>
</g>
<g>
	<path fill-rule="evenodd" clip-rule="evenodd" fill="#EACDFF" d="M136.641,0.57c2.952-0.254,5.949-0.166,8.925,0
		c0.058,0,0.117,0,0.175,0c1.69,0.293,3.432,0.535,5.25,0.7c0.059,0,0.117,0,0.175,0c0.494,0.264,1.208,0.309,1.925,0.35
		c0.561,0.197,1.161,0.356,1.925,0.351c0.812,0.354,1.751,0.582,2.8,0.699c0.469,0.174,0.923,0.36,1.575,0.351
		c0.56,0.431,1.542,0.44,2.275,0.699c0.058,0,0.116,0,0.175,0c0.741,0.426,1.702,0.631,2.625,0.875
		c0.562,0.196,1.037,0.479,1.75,0.525c0.721,0.504,1.712,0.737,2.624,1.05c0.625,0.25,1.129,0.622,1.925,0.7
		c4.717,2.167,9.338,4.429,13.65,7c0.058,0,0.116,0,0.174,0c16.953,10.695,30.523,24.775,40.248,42.697c0,0.059,0,0.117,0,0.176
		c1.231,2.386,2.29,4.943,3.5,7.349c0,0.06,0,0.117,0,0.176c0.454,1.121,0.855,2.294,1.4,3.324c0,0.059,0,0.116,0,0.175
		c0.158,0.659,0.376,1.258,0.7,1.751c0.105,0.885,0.445,1.537,0.699,2.274c0.365,1.385,0.687,2.813,1.226,4.025
		c0.423,2.551,1.116,4.833,1.574,7.349c0.042,0.718,0.086,1.431,0.35,1.925c0,0.059,0,0.117,0,0.175
		c0.06,0.874,0.082,1.785,0.352,2.45c0,0.059,0,0.117,0,0.176c0.071,1.328,0.076,2.723,0.35,3.85c0,0.059,0,0.117,0,0.175
		c0,1.399,0,2.8,0,4.2c-0.111,2.104-0.494,3.938-0.525,6.124c-0.271,0.662-0.341,1.525-0.35,2.45
		c-0.271,0.254-0.155,0.896-0.176,1.4c-0.279,0.478-0.359,1.155-0.35,1.924c0,0.059,0,0.117,0,0.176
		c-0.265,0.435-0.338,1.063-0.35,1.749c0,0.06,0,0.117,0,0.176c-0.328,1.014-0.597,2.087-0.7,3.324
		c-0.343,0.999-0.549,2.134-0.7,3.325c-0.363,0.744-0.515,1.702-0.7,2.625c-0.599,2.551-1.484,4.815-1.925,7.524
		c-0.058,0-0.116,0-0.174,0c4.047-15.178,7.779-31.243,3.674-48.647c-3.48-14.76-10.758-27.626-18.724-37.799
		c-8.345-10.655-17.992-19.106-29.924-26.598c-5.472-3.437-12.193-6.614-19.249-8.925c-7.275-2.383-15.439-4.375-23.799-4.375
		c-4.947,0-9.979,1.029-15.225,1.574c-5.235,0.545-10.643-0.836-15.574-0.35c-10.014,0.989-19.336,3.372-26.948,6.3
		C71.313,12.691,60.881,18.947,52.12,26.819c-2.831,2.544-5.298,5.688-8.398,8.225c-3.721,3.042-7.758,5.293-11.199,8.225
		c-8.665,7.378-16.644,15.676-22.749,25.724c-1.213,1.995-2.377,4.15-3.5,6.3C10.191,37.155,33.995,18.9,70.669,13.52
		c0.058,0,0.117,0,0.175,0c4.265-2.036,8.489-4.111,12.949-5.95c0.059,0,0.117,0,0.176,0c0.658-0.158,1.257-0.377,1.75-0.7
		c0.542,0.018,0.836-0.214,1.225-0.35c0.663-0.213,1.411-0.34,1.925-0.701c0.628,0.104,0.847-0.202,1.226-0.349
		c0.814-0.177,1.66-0.322,2.273-0.701c0.059,0,0.117,0,0.176,0c0.646-0.112,1.336-0.179,1.75-0.524
		c0.652,0.011,1.106-0.177,1.575-0.35c1.925-0.35,3.823-0.727,5.6-1.226c0.059,0,0.116,0,0.175,0
		c1.578-0.113,3.012-0.371,4.375-0.699c0.115,0,0.232,0,0.35,0c0.941-0.109,2.031-0.069,2.8-0.351
		c0.761,0.003,1.575,0.058,2.1-0.175c0.82-0.113,2.097,0.229,2.625-0.175c0.233,0,0.467,0,0.7,0c1.234,0.281,2.789,0.244,4.2,0.35
		c0.116,0,0.233,0,0.351,0c0.78,0.269,1.799,0.3,2.799,0.351c1.863,0.466,4.184,0.023,5.775-0.351
		c0.84-0.034,1.666-0.083,2.274-0.35c0.058,0,0.116,0,0.175,0c1-0.051,2.018-0.082,2.801-0.35c0.057,0,0.116,0,0.174,0
		c1.123-0.044,2.253-0.082,3.15-0.351C136.407,0.57,136.524,0.57,136.641,0.57z"/>
	<path fill-rule="evenodd" clip-rule="evenodd" fill="#EACDFF" d="M229.038,127.088c-0.13,12.703-2.055,23.835-5.251,33.773
		c-3.162,9.832-7.382,18.703-12.424,26.424c-5.046,7.727-12.207,14.039-19.774,19.249c-7.69,5.296-15.941,10.173-25.023,13.824
		c-0.059,0-0.116,0-0.176,0c-0.613,0.145-0.989,0.527-1.574,0.7c24.479-14.446,40.752-38.517,53.372-65.271
		C222.465,146.718,225.885,136.735,229.038,127.088z"/>
	<path fill-rule="evenodd" clip-rule="evenodd" fill="#D7A2FF" d="M6.273,75.292c1.123-2.149,2.287-4.305,3.5-6.3
		c6.105-10.048,14.084-18.346,22.749-25.724c3.441-2.932,7.479-5.183,11.199-8.225c3.101-2.536,5.567-5.681,8.398-8.225
		c8.762-7.872,19.193-14.128,31.149-18.725c7.612-2.928,16.935-5.311,26.948-6.3c4.932-0.486,10.339,0.895,15.574,0.35
		c5.246-0.545,10.277-1.574,15.225-1.574c8.359,0,16.523,1.992,23.799,4.375c7.056,2.311,13.777,5.488,19.249,8.925
		c11.932,7.491,21.579,15.942,29.924,26.598c7.966,10.173,15.243,23.039,18.724,37.799c4.105,17.404,0.373,33.47-3.674,48.647
		c0,0.059,0,0.117,0,0.175c-3.152,9.646-6.572,19.63-10.851,28.699c-12.62,26.755-28.894,50.825-53.372,65.271
		c-0.059,0-0.117,0-0.175,0c-8.073,4.059-17.124,7.143-30.099,6.3c-0.176,0-0.35,0-0.525,0c-1.762,0.022-4.086-0.752-5.949-0.7
		c-1.529,0.043-3.041,0.654-4.55,0.876c-5.257,0.769-10.243,1.041-15.399,0.349c-19.419-2.605-31.848-12.65-43.573-23.273
		c0.065-0.298-0.137-0.33-0.35-0.35c-0.558-0.933-1.856-2.109-2.976-3.325c-1.078-1.173-2.017-2.684-2.975-3.325
		c-1.491-0.997-3.668-1.43-5.424-2.1C39.7,190.507,29.2,183.895,20.448,174.511c-9.954-10.67-16.554-23.044-15.226-45.498
		c0-0.116,0-0.233,0-0.35c-2.116-5.991-4.154-12.061-5.074-19.249c0-0.058,0-0.117,0-0.175C-0.75,95.71,2.572,84.97,6.273,75.466
		C6.273,75.408,6.273,75.35,6.273,75.292z M43.371,35.569C33.148,47.472,24.793,60.981,21.322,78.966
		c-0.504,2.612-0.346,5.482-1.05,8.399c-0.322,1.334-1.571,2.968-2.45,4.55c-4.337,7.813-7.688,15.333-10.149,24.849
		c-0.814,3.148-2.458,8.646-2.1,12.075c0.241,2.319,2.503,6.072,3.849,8.573c1.509,2.802,3.208,5.795,4.55,7.875
		c7.949,12.309,18.094,24.359,28.35,33.773c2.169,1.99,4.592,3.819,6.475,5.949c1.643,1.857,3.121,4.359,4.725,6.475
		c1.218,1.607,3.098,5.223,5.075,6.301c3.15,1.718,8.046,1.454,11.024,3.149c4.41,2.51,8.408,5.58,12.773,8.05
		c8.967,5.071,18.021,9.51,28.524,13.124c5.112,1.759,10.87,3.851,16.624,4.375c2.484,0.226,5.797-1.534,8.05-2.449
		c14.364-5.843,25.604-15.534,34.474-26.425c1.601-1.965,3.213-4.964,4.899-5.949c4.754-2.778,8.989-5.127,12.949-8.225
		c19.13-14.961,34.164-38.313,36.749-69.646c1.115-13.526-0.653-26.098-4.2-37.798c-3.022-9.972-9.345-18.81-15.924-26.599
		c-8.701-10.302-18.834-16.906-29.398-23.624c-2.16-1.373-4.013-3.018-6.125-4.551c-10.331-7.494-21.934-13.375-36.399-16.974
		c-2.901-0.722-6.305-1.822-8.924-1.75c-1.71,0.047-3.787,0.793-5.774,1.225c-13.453,2.923-26.472,6.896-37.624,11.55
		c-9.863,4.117-19.352,8.767-27.998,14c-2.717,1.644-6.318,3.607-8.574,5.774C43.576,35.182,43.502,35.415,43.371,35.569z"/>
	<path fill-rule="evenodd" clip-rule="evenodd" fill="#EACDFF" d="M206.288,111.689c-0.446,13.376-4.374,23.548-8.749,33.249
		c-4.322,9.582-9.375,18.294-15.399,26.599c-5.704,7.86-12.046,15.663-19.949,22.049c-7.717,6.234-16.775,12.04-28.174,13.824
		c-5.344,0.837-12.426-0.995-17.674-2.624c-16.655-5.174-30.223-11.953-43.048-19.95c-17.418-10.859-32.817-23.539-44.623-39.548
		c-3.263-4.425-5.644-8.396-7.7-13.299c-2.066-4.928-3.844-11.257-2.799-17.5c0.234-1.404,0.832-2.765,1.05-4.199
		c0.732-4.842,1.632-8.812,2.975-12.774c5.202-15.358,13.96-28.219,23.624-39.373c13.261-15.304,27.615-28.168,46.373-37.799
		c8.937-4.588,19.831-9.508,32.898-9.1c12.961,0.406,22.529,5.292,30.973,11.025c8.458,5.742,14.872,12.841,21.35,20.823
		c-6.921-5.652-15.26-10.447-24.674-13.474c-5.021-1.614-10.626-2.784-16.1-2.975c-5.559-0.195-11.329,1.034-16.975,2.1
		c-21.168,3.995-39.19,12.414-54.771,21.524C53.141,58.369,42.946,66.224,35.497,78.09c-3.877,6.176-6.277,12.585-7.875,20.824
		c-1.551,8.002-0.133,17.071,2.625,24.499c4.915,13.242,13.684,24.392,22.924,34.299c4.65,4.985,9.865,9.271,15.049,13.648
		c5.21,4.4,10.85,8.183,16.275,12.25c5.614,4.21,12.088,7.073,18.724,9.975c6.798,2.972,14.212,5.578,21.699,6.825
		c9.054,1.507,17.575,0.971,24.673-1.926c6.518-2.659,11.91-6.937,16.975-11.549c14.521-13.224,25.206-32.009,33.073-52.672
		C202.318,127.223,204.824,119.373,206.288,111.689z"/>
	<path fill-rule="evenodd" clip-rule="evenodd" fill="#F4F1F2" d="M206.288,111.689c-1.464,7.684-3.97,15.534-6.649,22.575
		c-7.867,20.663-18.552,39.448-33.073,52.672c-5.064,4.612-10.457,8.89-16.975,11.549c-7.098,2.896-15.619,3.433-24.673,1.926
		c-7.487-1.247-14.901-3.854-21.699-6.825c-6.636-2.901-13.109-5.765-18.724-9.975c-5.426-4.067-11.065-7.85-16.275-12.25
		c-5.184-4.378-10.398-8.663-15.049-13.648c-9.24-9.907-18.009-21.057-22.924-34.299c-2.758-7.428-4.176-16.497-2.625-24.499
		c1.598-8.239,3.998-14.648,7.875-20.824c7.449-11.866,17.645-19.722,29.398-27.822c15.581-9.11,33.604-17.529,54.771-21.524
		c5.646-1.065,11.416-2.295,16.975-2.1c5.474,0.19,11.079,1.36,16.1,2.975c9.414,3.026,17.753,7.821,24.674,13.474
		c0.356,0.052,0.343,0.474,0.7,0.525c6.56,5.69,12.498,12,17.498,19.25c0,0.057,0,0.116,0,0.174c0.457,0.535,0.63,1.354,1.226,1.75
		c0,0.059,0,0.117,0,0.175c1.544,2.365,3.035,5.714,4.375,7.7c0.758,1.109,1.147,2.585,1.749,3.85
		c-0.699-0.842,0.962,3.489,1.226,3.5c0.414,0.229,0.337,0.945,0.525,1.4c0.05,1.352,0.944,4.303,1.398,5.249
		c0.321,0.671,0.238,1.746,0.525,2.45c-0.082,0.68,0.177,2.643,0.351,1.925c0.336,1.181,0.285,2.748,0.525,4.024
		c0.114,1.227-0.231,2.915,0.175,3.85c0,0.117,0,0.233,0,0.351c-0.305,1.504-0.366,3.251-0.351,5.075
		c-0.106,0.418,0.22,1.27-0.175,1.399c0.011-1.883-0.624,2.187-0.525,3.325c0.13,0.829-0.196,1.203-0.175,1.925
		C206.204,111.022,206.302,111.413,206.288,111.689z M42.321,69.341c-7.809,9.11-12.61,17.445-14.699,31.674
		c-2.413,16.441,6.054,30.21,12.424,39.897c3.416,5.193,7.759,10.046,11.55,14.525c2.676,3.159,5.949,7.001,9.101,9.274
		c0.938,0.677,0.721,0.45,1.574,1.399c0.243,0.271,0.625,0.663,0.875,0.875c7.544,6.381,15.825,12.948,24.499,18.549
		c2.8,1.808,5.631,3.176,8.925,4.55c6.99,2.918,11.769,5.533,18.373,7.7c6.978,2.288,15.178,3.923,23.273,3.324
		c7.644-0.564,14.158-3.787,19.425-7.35c5.576-3.771,9.941-7.713,14.175-12.424c14.751-16.418,25.342-37.343,32.198-61.247
		c0.961-3.352,2.385-7.739,2.274-11.2c-0.1-3.175-1.083-6.571-1.749-9.799c-2.675-12.954-7.619-23.479-12.774-33.599
		c-2.259-4.433-4.791-8.974-7.35-12.949c-0.379-0.588-1.01-0.996-1.4-1.575c-1.627-2.402-2.887-5.078-4.725-7
		c-1.508-1.575-3.854-2.989-5.95-4.374c-4.176-2.758-8.666-5.4-13.299-7.35c-0.837-0.352-2.115-0.531-2.626-0.7
		c-0.365-0.122-0.344-0.463-0.525-0.525c-5.439-1.868-12.52-4.12-19.947-4.199c-4.222-0.046-8.736,0.736-12.95,1.399
		c-4.022,0.634-8.021,1.705-11.725,2.625c-15.914,3.95-29.468,10.213-41.822,17.325c-5.526,3.18-10.931,6.426-15.399,10.323
		c-0.811,0.707-1.268,1.309-1.75,1.4c-2.429,1.946-4.729,4.021-6.825,6.3C44.503,67.302,43.346,68.145,42.321,69.341z"/>
	<path fill-rule="evenodd" clip-rule="evenodd" fill="#B260FF" d="M43.721,35.043c2.256-2.167,5.857-4.131,8.574-5.774
		c8.646-5.233,18.135-9.883,27.998-14c11.152-4.654,24.171-8.627,37.624-11.55c1.987-0.432,4.064-1.178,5.774-1.225
		c2.619-0.072,6.022,1.028,8.924,1.75c14.466,3.599,26.068,9.479,36.399,16.974c2.112,1.533,3.965,3.178,6.125,4.551
		c10.564,6.718,20.697,13.322,29.398,23.624c6.579,7.789,12.901,16.627,15.924,26.599c3.547,11.7,5.315,24.271,4.2,37.798
		c-2.585,31.333-17.619,54.686-36.749,69.646c-3.96,3.098-8.195,5.446-12.949,8.225c-1.687,0.985-3.299,3.984-4.899,5.949
		c-8.869,10.891-20.109,20.582-34.474,26.425c-2.253,0.915-5.565,2.675-8.05,2.449c-5.754-0.524-11.512-2.616-16.624-4.375
		c-10.503-3.614-19.558-8.053-28.524-13.124c-4.365-2.47-8.363-5.54-12.773-8.05c-2.979-1.695-7.874-1.432-11.024-3.149
		c-1.978-1.078-3.857-4.693-5.075-6.301c-1.604-2.115-3.082-4.617-4.725-6.475c-1.883-2.13-4.306-3.959-6.475-5.949
		c-10.256-9.414-20.4-21.465-28.35-33.773c-1.342-2.08-3.041-5.073-4.55-7.875c-1.346-2.501-3.607-6.254-3.849-8.573
		c-0.358-3.429,1.285-8.927,2.1-12.075c2.462-9.516,5.813-17.035,10.149-24.849c0.879-1.582,2.128-3.216,2.45-4.55
		c0.704-2.917,0.546-5.787,1.05-8.399c3.472-17.985,11.826-31.494,22.049-43.397C43.502,35.415,43.576,35.182,43.721,35.043z
		 M207.513,95.065c-0.24-1.276-0.189-2.844-0.525-4.024c0.011-0.769-0.07-1.446-0.351-1.925c-0.287-0.704-0.204-1.779-0.525-2.45
		c-0.251-1.965-0.84-3.593-1.398-5.249c-0.188-0.455-0.111-1.172-0.525-1.4c-0.242-1.333-0.771-2.379-1.226-3.5
		c-0.602-1.265-0.991-2.74-1.749-3.85c-1.047-2.512-2.325-4.792-3.675-7c-0.462-0.704-0.758-1.576-1.4-2.1c0-0.058,0-0.117,0-0.175
		c-0.673-0.845-1.079-1.955-1.925-2.625c-0.91-1.714-2.171-3.079-3.324-4.55c-0.979-1.238-1.918-2.517-3.15-3.5
		c0-0.059,0-0.116,0-0.175c-2.341-2.501-4.749-4.935-7.35-7.175c-0.059,0-0.117,0-0.175,0c-0.471-0.755-1.277-1.173-1.925-1.75
		c-0.059,0-0.116,0-0.175,0c-4.753-6.162-9.747-11.365-15.226-16.099c-10.576-9.142-25.826-19.06-46.022-15.925
		c-8.986,1.395-16.565,4.457-23.623,7.875c-13.79,6.676-25.662,15.861-36.398,26.598c-10.696,10.698-20.268,22.356-27.648,35.35
		c-3.813,6.713-6.979,13.873-9.1,22.224c-0.552,2.172-0.686,4.516-1.05,6.824c-0.375,2.375-1.065,4.456-1.226,6.649
		c-0.325,4.458,0.571,8.74,2.101,12.949c5.375,14.804,16.857,26.074,27.474,35.524c11.155,9.929,23.038,18.609,36.923,26.073
		c9.646,5.186,21.462,10.576,33.424,13.824c4.207,1.143,9.006,2.439,13.299,2.45c0.336,0.001,0.54,0.061,1.05,0
		c12.039-1.437,21.321-7.245,29.224-13.475c8.19-6.458,14.579-13.914,20.649-22.224c6.099-8.351,11.494-17.121,15.749-26.949
		c4.318-9.974,8.739-21.125,8.749-34.298c-0.021-0.722,0.305-1.096,0.175-1.925c0.373-0.911,0.478-2.09,0.525-3.325
		c0.395-0.13,0.068-0.981,0.175-1.399c0.296-1.104,0.364-2.438,0.351-3.85c0.291-0.59,0.291-2.387,0-2.976
		C207.576,96.752,207.917,95.538,207.513,95.065z"/>
</g>
</svg>
