<?xml version="1.0" encoding="utf-8"?>
<!-- Generator: Adobe Illustrator 14.0.0, SVG Export Plug-In . SVG Version: 6.00 Build 43363)  -->
<!DOCTYPE svg PUBLIC "-//W3C//DTD SVG 1.1//EN" "http://www.w3.org/Graphics/SVG/1.1/DTD/svg11.dtd">
<svg version="1.1" id="Layer_1" xmlns="http://www.w3.org/2000/svg" xmlns:xlink="http://www.w3.org/1999/xlink" x="0px" y="0px"
	 width="234.935px" height="227.98px" viewBox="0 0 234.935 227.98" enable-background="new 0 0 234.935 227.98"
	 xml:space="preserve">
<g id="XMLID_626_">
	<path id="XMLID_780_" fill="#ECC19C" d="M141.956,189.18c-1.895-10.168-1.313-22.369-1.313-22.369h-15.648h-1.352h-15.648
		c0,0,0.584,12.201-1.312,22.369c-1.894,10.169-13.22,10.169-13.22,10.169l30.856,8.177l30.854-8.177
		C155.174,199.349,143.85,199.349,141.956,189.18z"/>
	<g id="XMLID_778_">
		<path id="XMLID_779_" fill="#CCA88D" d="M141.698,187.692c-3.772,2.769-8.437,3.938-14.246,2.229
			c-12.291-3.627-17.611-9.316-19.539-11.916c0.401-7.381,0.404-13.051,0.404-13.051l32.652,0.381
			C140.969,165.334,140.069,177.597,141.698,187.692z"/>
	</g>
	<g id="XMLID_775_">
		<path id="XMLID_777_" fill="#ECC19C" d="M80.821,113.969c0,0-7.463-10.03-10.584-2.193c-3.123,7.837-1.115,18.841,2.293,24.04
			c3.41,5.198,10.232,13.503,12.392,13.661c2.16,0.157,3.921-0.797,6.094-2.789L80.821,113.969z"/>
		<path id="XMLID_776_" opacity="0.6" fill="#DB9C94" d="M82.365,119.374c0,0-5.007-6.73-7.101-1.473
			c-2.096,5.258-0.749,12.641,1.539,16.13c2.287,3.487,6.865,9.06,8.313,9.165c1.45,0.105,2.631-0.534,4.09-1.871L82.365,119.374z"
			/>
	</g>
	<g id="XMLID_772_">
		<path id="XMLID_774_" fill="#ECC19C" d="M169.578,115.101c0,0,6.89-9.583,9.847-2.041s1.154,18.095-1.99,23.063
			c-3.143,4.969-9.447,12.899-11.459,13.037c-2.01,0.139-3.656-0.789-5.693-2.715L169.578,115.101z"/>
		<path id="XMLID_773_" opacity="0.6" fill="#DB9C94" d="M168.172,120.279c0,0,4.623-6.431,6.606-1.37s0.774,12.14-1.335,15.475
			s-6.34,8.654-7.689,8.747c-1.348,0.094-2.451-0.529-3.818-1.821L168.172,120.279z"/>
	</g>
	<path id="XMLID_769_" fill="#333333" d="M123.866,41.182c0.252,0,0.5,0.01,0.75,0.013c0.25-0.003,0.499-0.013,0.75-0.013
		c26.521,0,51.459,21.756,51.459,51.131c0,29.373-24.938,55.243-51.459,55.243c-0.251,0-0.5-0.009-0.75-0.015
		c-0.249,0.006-0.5,0.015-0.75,0.015c-26.52,0-51.459-25.87-51.459-55.243C72.407,62.938,97.346,41.182,123.866,41.182z"/>
	<path id="XMLID_768_" fill="#ECC19C" d="M125.012,181.445c-14.123,0-30.756-12.015-38.492-23.256
		c-2.337-3.396-3.162-20.808-3.162-32.751c0-17.17-0.273-40.085,4.934-49.649c6.919-12.713,26.486-10.299,36.721-10.299h0.193
		c10.234,0,29.801-2.414,36.723,10.299c5.205,9.564,4.932,32.479,4.932,49.649c0,11.943-0.825,29.355-3.162,32.751
		c-7.736,11.241-24.369,23.256-38.492,23.256H125.012z"/>
	<path id="XMLID_753_" fill="#333333" d="M155.754,70.36c0,0-56.967,33.336-98.625,18.936c0,0,14.207-13.376,21.133-25.046
		c7.492-12.624,35.943-47.684,79.228-23.067l-0.946-8.379c0,0,8.994,5.922,10.318,20.198c0,0,10.691,0.052,13.141,6.521
		l-6.943-1.787c0,0,6.313,8.045,6.943,18.778c1.279,21.764-6.686,34.793-6.686,34.793s-6.093-7.817-7.347-18.252
		C163.644,73.673,159.649,73.854,155.754,70.36z"/>
	<g id="XMLID_750_">
		<g id="XMLID_60_">
			<path id="XMLID_61_" fill="#1A1A1A" d="M157.805,59.629c0,0-1.054,1.247-3.104,3.229c-1.029,0.986-2.281,2.188-3.795,3.472
				c-1.502,1.3-3.221,2.745-5.178,4.211c-3.873,2.995-8.607,6.227-13.959,9.244c-1.328,0.771-2.705,1.509-4.115,2.229
				c-1.393,0.751-2.846,1.431-4.305,2.126c-1.467,0.681-2.957,1.346-4.465,1.984c-1.525,0.596-3.039,1.244-4.59,1.799
				c-1.553,0.548-3.1,1.113-4.674,1.589c-1.558,0.518-3.133,0.962-4.707,1.366c-1.561,0.446-3.139,0.794-4.697,1.122
				c-1.55,0.363-3.107,0.611-4.636,0.864c-3.058,0.491-6.04,0.798-8.875,0.942c-1.413,0.106-2.798,0.094-4.132,0.101
				c-1.332,0.016-2.619-0.043-3.854-0.122c-2.468-0.063-4.715-0.413-6.692-0.661c-1.976-0.313-3.679-0.69-5.071-0.988
				c-2.771-0.742-4.313-1.233-4.313-1.233s1.646-0.025,4.453,0.042c1.4-0.033,3.105-0.075,5.057-0.123
				c1.946-0.145,4.125-0.229,6.489-0.493c1.183-0.104,2.409-0.234,3.673-0.443c1.264-0.195,2.572-0.313,3.904-0.587
				c2.672-0.437,5.465-1.004,8.334-1.677c2.865-0.676,5.807-1.461,8.766-2.365c0.74-0.227,1.482-0.453,2.227-0.68l2.225-0.742
				c1.495-0.468,2.966-1.032,4.447-1.563c2.965-1.065,5.885-2.256,8.752-3.458c2.852-1.236,5.662-2.465,8.34-3.753
				c2.69-1.266,5.266-2.553,7.703-3.798c2.424-1.266,4.735-2.448,6.836-3.605c4.207-2.305,7.689-4.314,10.129-5.744
				C156.414,60.458,157.805,59.629,157.805,59.629z"/>
		</g>
	</g>
	<g id="XMLID_747_">
		<g id="XMLID_58_">
			<path id="XMLID_59_" fill="#1A1A1A" d="M157.805,52.901c0,0-1.299,1.064-3.665,2.783c-2.366,1.721-5.786,4.12-10.019,6.787
				c-2.115,1.337-4.41,2.779-6.886,4.226c-2.474,1.448-5.098,2.95-7.854,4.429c-2.748,1.494-5.621,2.977-8.572,4.424
				c-2.944,1.463-5.986,2.851-9.035,4.222c-3.075,1.321-6.157,2.628-9.246,3.793c-3.082,1.185-6.15,2.263-9.16,3.204
				c-1.504,0.471-2.982,0.942-4.455,1.325c-1.463,0.413-2.902,0.793-4.318,1.114c-2.818,0.685-5.529,1.176-8.05,1.525
				c-2.513,0.38-4.847,0.563-6.923,0.595c-1.029,0.049-2.004,0.036-2.902-0.03c-0.896-0.044-1.714-0.081-2.453-0.206
				c-0.74-0.097-1.394-0.189-1.958-0.282c-0.558-0.146-1.032-0.269-1.418-0.369c-0.755-0.21-1.159-0.321-1.159-0.321
				s0.42-0.007,1.206-0.021c0.386-0.004,0.862-0.008,1.423-0.013c0.563-0.066,1.205-0.128,1.916-0.192
				c0.711-0.039,1.498-0.185,2.348-0.337c0.849-0.148,1.764-0.274,2.734-0.519c0.971-0.218,2-0.423,3.075-0.747
				c1.075-0.304,2.21-0.553,3.38-0.937c1.17-0.358,2.389-0.711,3.635-1.162c1.25-0.425,2.549-0.833,3.863-1.334
				c1.323-0.471,2.682-0.949,4.057-1.492c1.379-0.521,2.791-1.055,4.213-1.631c2.858-1.117,5.786-2.353,8.769-3.592
				c2.972-1.265,5.993-2.556,9.001-3.885c12.043-5.29,24.021-10.85,33.146-14.823c4.541-2.026,8.368-3.656,11.057-4.788
				C156.243,53.514,157.805,52.901,157.805,52.901z"/>
		</g>
	</g>
	<g id="XMLID_743_">
		<g id="XMLID_56_">
			<path id="XMLID_57_" fill="#1A1A1A" d="M155.174,47.636c0,0-1.261-0.296-3.467-0.813c-1.097-0.233-2.43-0.514-3.958-0.838
				c-1.521-0.317-3.251-0.604-5.111-0.956c-1.875-0.298-3.897-0.611-6.037-0.869c-2.134-0.282-4.388-0.483-6.706-0.654
				c-2.322-0.132-4.713-0.241-7.131-0.199c-2.418,0.022-4.859,0.152-7.277,0.429c-1.205,0.152-2.422,0.258-3.604,0.499l-1.781,0.306
				c-0.584,0.131-1.168,0.262-1.748,0.391c-2.328,0.521-4.561,1.22-6.705,1.974c-1.066,0.389-2.076,0.864-3.105,1.252
				c-0.992,0.476-1.962,0.941-2.906,1.395c-0.92,0.513-1.816,1.012-2.682,1.495c-0.877,0.477-1.655,1.045-2.448,1.537
				c-0.806,0.479-1.494,1.046-2.186,1.55c-0.685,0.512-1.378,0.959-1.963,1.457c-1.143,1.015-2.257,1.819-3.071,2.587
				c-1.631,1.528-2.642,2.388-2.642,2.388s0.575-1.158,1.722-3.155c0.578-0.994,1.398-2.12,2.344-3.432
				c0.471-0.655,1.057-1.28,1.635-1.982c0.588-0.695,1.229-1.41,1.967-2.086c0.732-0.678,1.456-1.447,2.292-2.139
				c0.843-0.683,1.725-1.385,2.653-2.083c0.961-0.642,1.959-1.299,2.996-1.948c1.068-0.589,2.165-1.195,3.309-1.752
				c2.309-1.061,4.766-2.044,7.348-2.72c0.646-0.172,1.294-0.346,1.942-0.518c0.654-0.148,1.316-0.267,1.979-0.395
				c1.321-0.282,2.661-0.43,4.001-0.606c1.34-0.15,2.685-0.208,4.021-0.291c1.336-0.015,2.671-0.063,3.984,0.013
				c0.656,0.029,1.313,0.056,1.963,0.083c0.648,0.061,1.293,0.121,1.934,0.18c1.283,0.101,2.535,0.298,3.768,0.481
				c2.455,0.401,4.802,0.909,6.986,1.516c2.193,0.575,4.21,1.3,6.056,1.978c3.688,1.381,6.608,2.878,8.595,4.005
				C154.125,46.848,155.174,47.636,155.174,47.636z"/>
		</g>
	</g>
	<g id="XMLID_627_">
		<g id="XMLID_55_">
			<path id="XMLID_116_" fill="#1A1A1A" d="M150.163,49.53c0,0-0.378,0.074-1.086,0.212c-0.707,0.118-1.734,0.378-3.039,0.635
				c-1.303,0.303-2.878,0.652-4.672,1.097c-1.796,0.43-3.805,0.971-5.988,1.562c-1.094,0.275-2.223,0.606-3.385,0.98
				c-1.165,0.344-2.368,0.7-3.605,1.066c-1.226,0.4-2.484,0.813-3.771,1.235c-0.644,0.205-1.293,0.412-1.95,0.623
				c-0.648,0.236-1.302,0.473-1.963,0.712c-1.32,0.468-2.662,0.944-4.022,1.425c-1.34,0.53-2.697,1.065-4.065,1.605
				c-2.757,1.021-5.471,2.266-8.207,3.451c-0.684,0.301-1.381,0.57-2.055,0.887l-2.006,0.981c-1.342,0.642-2.677,1.281-4.004,1.915
				c-2.642,1.287-5.15,2.731-7.658,3.998c-1.271,0.606-2.416,1.375-3.596,2.037c-1.172,0.679-2.318,1.342-3.436,1.987
				c-2.282,1.229-4.289,2.619-6.223,3.802c-0.961,0.604-1.883,1.181-2.762,1.729c-0.899,0.523-1.734,1.046-2.478,1.592
				c-1.507,1.065-2.866,1.951-3.979,2.692c-2.234,1.479-3.568,2.279-3.568,2.279s0.974-1.186,2.781-3.183
				c0.906-0.996,2-2.219,3.309-3.574c1.262-1.411,2.896-2.752,4.621-4.301c1.748-1.518,3.578-3.271,5.758-4.794
				c1.074-0.787,2.176-1.598,3.303-2.423c1.133-0.822,2.277-1.687,3.527-2.429c1.237-0.763,2.498-1.536,3.771-2.321
				c1.287-0.769,2.553-1.613,3.931-2.275c1.36-0.698,2.731-1.402,4.106-2.11l2.078-1.045c0.697-0.336,1.417-0.632,2.127-0.944
				c2.864-1.206,5.699-2.48,8.616-3.418c1.442-0.505,2.872-1.013,4.3-1.459c1.443-0.404,2.868-0.805,4.269-1.196
				c0.701-0.192,1.396-0.381,2.086-0.569c0.698-0.153,1.39-0.304,2.073-0.454c1.369-0.287,2.707-0.569,4.011-0.843
				c2.636-0.417,5.11-0.85,7.431-1.043c1.156-0.111,2.258-0.244,3.313-0.32c1.057-0.047,2.06-0.091,3.002-0.131
				c1.877-0.104,3.527-0.03,4.875-0.01C148.635,49.289,150.163,49.53,150.163,49.53z"/>
		</g>
	</g>
	<path id="XMLID_767_" opacity="0.6" fill="#DB9C94" d="M125.131,133.03c0,0,0.275,0.669,0.723,1.513
		c0.211,0.409,0.458,0.888,0.722,1.399c0.116,0.241,0.235,0.491,0.356,0.747c0.098,0.251,0.23,0.495,0.289,0.739
		c0.113,0.243,0.13,0.471,0.197,0.696c0.021,0.219,0.063,0.432,0.047,0.637c-0.031,0.194-0.008,0.416-0.104,0.604
		c-0.057,0.201-0.109,0.418-0.234,0.592c-0.113,0.174-0.181,0.386-0.298,0.535c-0.12,0.144-0.217,0.291-0.302,0.411
		c-0.169,0.244-0.268,0.406-0.268,0.406s0.172-0.007,0.48-0.064c0.152-0.03,0.344-0.064,0.557-0.13
		c0.215-0.06,0.429-0.201,0.673-0.348c0.117-0.08,0.257-0.146,0.374-0.256c0.113-0.113,0.223-0.241,0.34-0.376
		c0.255-0.252,0.396-0.611,0.543-0.991c0.094-0.188,0.092-0.388,0.123-0.592c0.018-0.2,0.064-0.421,0.031-0.615
		c-0.037-0.399-0.098-0.812-0.236-1.166c-0.118-0.377-0.296-0.699-0.477-1.015c-0.184-0.311-0.402-0.58-0.613-0.837
		c-0.442-0.49-0.902-0.889-1.346-1.162C125.85,133.179,125.131,133.03,125.131,133.03z"/>
	<g id="XMLID_764_">
		<path id="XMLID_766_" fill="#DB9C94" d="M131.042,169.109c0,0-0.814-0.011-1.902,0.032c-0.547,0.018-1.169,0.036-1.816,0.073
			c-0.649,0.019-1.328,0.058-2.004,0.058c-0.675,0.02-1.347,0.019-1.981-0.006c-0.321,0.003-0.629-0.017-0.927-0.035
			c-0.299-0.007-0.588-0.01-0.853-0.038c-0.263-0.029-0.521-0.025-0.748-0.039c-0.218-0.032-0.423-0.04-0.591-0.052
			c-0.34-0.018-0.553-0.014-0.553-0.014s0.123,0.159,0.367,0.41c0.24,0.258,0.612,0.6,1.13,0.896
			c0.251,0.17,0.539,0.323,0.856,0.448c0.316,0.139,0.656,0.271,1.021,0.353c0.723,0.202,1.525,0.295,2.318,0.277
			c1.598-0.019,3.128-0.518,4.138-1.125C130.53,169.774,131.042,169.109,131.042,169.109z"/>
		<path id="XMLID_765_" fill="#FFFFFF" d="M147.666,148.591c0,0-25.064,7.254-45.23,0
			C102.435,148.591,123.278,184.178,147.666,148.591z"/>
	</g>
	<g id="XMLID_760_">
		<path id="XMLID_763_" d="M109.183,104.178c1.317,0,2.595-0.626,3.307-1.737c0.487-0.758-0.044-2.593-1.126-3.424
			c-3.102-2.389-13.305-1.136-20.068,2.745c-3.068,1.763-6.48,6.743-6.486,6.753c0.332-0.197,0.521-0.29,0.717-0.382
			c0.287-0.137,0.574-0.272,0.861-0.407c0.574-0.271,1.15-0.539,1.73-0.799c1.156-0.521,2.326-1.014,3.518-1.447
			c1.477-0.538,2.983-0.986,4.535-1.243C100.469,103.522,104.858,104.178,109.183,104.178z"/>
		<g id="XMLID_761_">
			<path id="XMLID_762_" d="M111.03,124.391c0.197-0.803,0.295-1.682,0.254-2.604c-0.156-3.514-2.152-6.277-4.459-6.175
				c-2.308,0.102-4.053,3.031-3.896,6.545c0.035,0.792,0.176,1.541,0.381,2.233c0,0,2.03-1.157,3.797-1.157
				S111.03,124.391,111.03,124.391z"/>
		</g>
	</g>
	<g id="XMLID_756_">
		<path id="XMLID_759_" d="M141.213,104.212c-1.319-0.001-2.596-0.627-3.307-1.737c-0.486-0.758,0.045-2.592,1.124-3.424
			c3.103-2.389,13.306-1.137,20.069,2.745c3.068,1.762,6.479,6.743,6.486,6.752c-0.332-0.196-0.521-0.29-0.717-0.381
			c-0.286-0.137-0.573-0.273-0.861-0.408c-0.574-0.27-1.15-0.539-1.73-0.798c-1.156-0.52-2.326-1.013-3.518-1.447
			c-1.478-0.538-2.982-0.986-4.535-1.244C149.926,103.557,145.538,104.212,141.213,104.212z"/>
		<g id="XMLID_757_">
			<path id="XMLID_758_" d="M139.366,124.424c-0.197-0.803-0.294-1.68-0.254-2.604c0.156-3.512,2.152-6.276,4.459-6.175
				c2.307,0.104,4.052,3.032,3.896,6.545c-0.035,0.794-0.176,1.541-0.381,2.233c0,0-2.029-1.157-3.796-1.157
				S139.366,124.424,139.366,124.424z"/>
		</g>
	</g>
</g>
<g>
	<path fill-rule="evenodd" clip-rule="evenodd" fill="#60AAFF" d="M44.108,33.499c0.033-0.028,0.143,0.029,0.175,0
		C49.465,28.995,55.555,26.21,61.607,23c11.976-6.353,25.124-12.076,39.373-16.274c7.147-2.106,14.804-4.521,22.399-5.425
		c2.704-0.322,6.632,0.994,9.624,1.75c14.293,3.615,25.927,9.328,36.223,16.974c2.099,1.559,3.989,3.176,6.125,4.551
		c2.165,1.392,4.373,2.689,6.475,4.024c8.902,5.652,15.931,11.819,22.749,19.773c6.236,7.274,13.078,16.677,16.099,26.425
		c3.425,11.044,5.129,24.092,4.025,37.798c-2.508,31.155-17.753,54.812-36.748,69.646c-3.984,3.112-8.264,5.441-12.949,8.225
		c-1.538,0.913-3.397,3.945-4.899,5.774c-8.796,10.713-19.936,20.804-34.299,26.599c-2.281,0.92-5.453,2.334-7.699,2.45
		c-2.594,0.134-5.867-1.167-8.75-1.925c-16.549-4.354-30.967-11.403-43.748-19.774c-2.126-1.393-4.225-3.332-6.299-4.2
		c-3.334-1.393-7.385-1.13-10.5-2.799c-2.305-1.235-5.162-6.259-6.824-8.575c-2.268-3.159-4.771-5.857-7.176-8.05
		c-5.775-5.267-9.846-9.761-15.049-15.398c-8.031-8.704-16.034-19.864-21.874-31.674c-0.879-1.778-2.32-4.12-2.274-5.6
		c0.227-7.532,3.078-16.212,5.425-22.225c1.923-4.927,4.129-9.633,6.649-14.174c0.798-1.438,2.364-3.261,2.624-4.725
		c0.528-2.956,0.556-5.773,1.051-8.399c1.446-7.684,3.926-14.712,7.175-21.175c4.137-8.229,8.562-15.827,15.225-22.573
		C43.897,33.882,43.96,33.627,44.108,33.499z M179.726,43.648c-1.47-1.234-2.61-2.713-3.85-4.199
		c-8.443-10.133-18.028-18.98-30.448-24.85c-7.773-3.672-16.071-5.597-26.425-4.549c-8.812,0.892-16.337,3.726-24.147,7.524
		c-13.972,6.794-26.462,15.786-36.924,26.248c-10.641,10.641-20.25,21.964-27.999,35.349c-4.769,8.237-9.241,17.34-10.674,28.698
		c-0.28,2.216-0.99,4.449-1.226,6.65c-0.506,4.736,0.203,9.438,1.75,13.824c2.607,7.393,7.123,13.901,11.899,19.773
		c14.259,17.531,32.464,31.022,52.848,42.173c9.249,5.061,21.521,10.856,33.424,14c4.342,1.146,9.317,2.513,13.474,2.45
		c5.75-0.088,11.807-2.689,16.449-4.9c14.298-6.808,25.048-18.714,33.773-30.448c5.919-7.959,11.359-17.027,15.924-26.949
		c4.556-9.897,8.492-20.653,8.926-34.123c0.109-2.516,0.847-4.402,0.875-7c0.276-1.006,0.344-2.222,0.349-3.5
		c0.399-0.241,0.065-1.217,0.177-1.749c0-0.175,0-0.351,0-0.525c-0.113-0.646,0.227-1.743-0.177-2.1
		c-0.11-0.59,0.227-1.626-0.175-1.925c-0.166-3.392-0.805-6.312-1.574-9.1c-0.043-0.54-0.178-0.989-0.351-1.399
		c-0.067-0.458-0.09-0.961-0.35-1.226c-0.046-0.712-0.329-1.188-0.525-1.75c-0.212-0.663-0.338-1.411-0.699-1.925
		c-0.534-1.916-1.234-3.666-2.101-5.25c0.027-0.436-0.274-0.541-0.35-0.875c-0.737-1.654-1.421-3.361-2.45-4.724
		c0-0.06,0-0.117,0-0.176c-0.435-0.789-0.757-1.692-1.399-2.274c0-0.06,0-0.117,0-0.176c-0.733-1.367-1.62-2.58-2.449-3.85
		c-0.696-0.938-1.204-2.063-2.101-2.8c0-0.058,0-0.117,0-0.175c-0.607-0.677-0.979-1.588-1.75-2.101c0-0.058,0-0.116,0-0.175
		c-1.46-1.748-2.818-3.598-4.55-5.075c0-0.057,0-0.116,0-0.174c-1.152-1.299-2.377-2.523-3.675-3.676
		c-0.357-0.051-0.343-0.473-0.7-0.524c-0.704-0.987-1.751-1.632-2.625-2.45C179.843,43.648,179.785,43.648,179.726,43.648z"/>
	<path fill-rule="evenodd" clip-rule="evenodd" fill="#D1E3F8" d="M124.955,0.776c5.609-0.69,10.988-1.61,17.148-1.751
		c0.243,0.399,1.218,0.065,1.751,0.176c13.829,1.044,24.627,5.121,34.647,9.974c0.474,0.636,1.433,0.783,2.1,1.226
		c7.13,3.837,13.369,8.563,19.424,13.475c0.511,0.656,1.094,1.24,1.75,1.749c0.059,0,0.116,0,0.175,0
		c1.139,1.313,2.396,2.504,3.675,3.676c0.366,0.217,0.658,0.509,0.876,0.875c0.685,0.831,1.442,1.59,2.274,2.274
		c0.31,0.975,1.297,1.271,1.75,2.101c0.605,0.619,1.05,1.399,1.75,1.925c2.672,3.568,5.469,7.013,7.874,10.849
		c0.453,0.714,0.808,1.526,1.4,2.1c6.694,11.622,12.254,24.378,13.475,41.474c0,1.399,0,2.8,0,4.199
		c-0.781,11.412-3.403,20.98-5.774,30.799c-0.463,24.642-7.657,44-17.85,59.673c-2.702,4.154-5.313,7.314-8.925,10.674
		c-9.954,9.261-21.837,17.239-35.698,22.749c-0.729,0.088-1.021,0.611-1.75,0.7c-0.032-0.149,0.068-0.165,0.176-0.176
		c20.621-11.776,35.409-31.515,47.072-53.372c8.546-16.016,15.904-33.858,20.299-54.947c1.49-7.153,2.791-15.336,2.1-22.573
		c-1.395-14.601-6.354-26.972-12.599-37.624C209.776,30.025,191.853,14.203,168.001,4.8c-11.863-4.678-27.585-7.02-43.047-3.85
		C124.955,0.892,124.955,0.833,124.955,0.776z"/>
	<path fill-rule="evenodd" clip-rule="evenodd" fill="#A5D6FF" d="M6.31,74.096c1.319-2.629,2.801-5.22,4.375-7.699
		c7.859-12.378,18.105-21.757,29.748-30.273c4.536-3.318,8.267-7.646,12.599-11.375C62.103,16.941,71.858,11.163,83.13,6.9
		c8.867-3.353,18.342-5.845,29.399-6.475c3.826-0.218,8.39,0.715,12.248,0.525c0.06,0,0.117,0,0.177,0
		c15.462-3.17,31.184-0.828,43.047,3.85c23.852,9.402,41.774,25.225,54.073,46.197c6.245,10.652,11.204,23.023,12.599,37.624
		c0.691,7.237-0.609,15.42-2.1,22.573c-4.395,21.089-11.753,38.932-20.299,54.947c-11.663,21.857-26.451,41.596-47.072,53.372
		c-0.107,0.011-0.208,0.026-0.176,0.176c-0.059,0-0.116,0-0.176,0c-8.313,4.431-18.663,7.465-32.022,6.299c-0.176,0-0.35,0-0.525,0
		c-2.395-0.648-5.524-0.669-7.699,0.176c-0.059,0-0.117,0-0.175,0c-24.835,3.976-42.575-7.764-55.647-19.074
		c-1.726-1.493-3.744-3.395-5.6-5.25c-1.661-1.66-3.224-4.412-5.075-5.6c-1.642-1.052-3.771-1.392-5.6-2.1
		c-12.48-4.831-23.718-11.771-32.374-20.999c-4.607-4.913-9.192-11.318-11.724-18.725c-2.556-7.48-3.613-16.881-3.15-26.948
		c0-0.059,0-0.117,0-0.175c-2.781-7.741-5.707-16.747-5.25-27.124C0.433,90.566,3.67,81.458,6.31,74.272
		C6.31,74.213,6.31,74.156,6.31,74.096z M43.758,34.024C37.095,40.77,32.67,48.369,28.534,56.597
		c-3.249,6.463-5.729,13.491-7.175,21.175c-0.495,2.626-0.522,5.443-1.051,8.399c-0.26,1.464-1.826,3.286-2.624,4.725
		c-2.521,4.541-4.727,9.247-6.649,14.174c-2.347,6.013-5.198,14.692-5.425,22.225c-0.046,1.479,1.396,3.821,2.274,5.6
		c5.84,11.81,13.843,22.97,21.874,31.674c5.203,5.638,9.273,10.132,15.049,15.398c2.404,2.192,4.908,4.891,7.176,8.05
		c1.662,2.316,4.52,7.34,6.824,8.575c3.115,1.669,7.166,1.406,10.5,2.799c2.074,0.868,4.173,2.808,6.299,4.2
		c12.781,8.371,27.199,15.421,43.748,19.774c2.883,0.758,6.156,2.059,8.75,1.925c2.246-0.116,5.418-1.53,7.699-2.45
		c14.363-5.795,25.503-15.886,34.299-26.599c1.502-1.829,3.361-4.861,4.899-5.774c4.686-2.783,8.965-5.112,12.949-8.225
		c18.995-14.835,34.24-38.491,36.748-69.646c1.104-13.706-0.601-26.754-4.025-37.798c-3.021-9.748-9.862-19.15-16.099-26.425
		c-6.818-7.954-13.847-14.121-22.749-19.773c-2.102-1.335-4.31-2.633-6.475-4.024c-2.136-1.375-4.026-2.992-6.125-4.551
		c-10.296-7.646-21.93-13.358-36.223-16.974c-2.992-0.756-6.92-2.072-9.624-1.75c-7.596,0.904-15.252,3.318-22.399,5.425
		C86.731,10.923,73.583,16.647,61.607,23c-6.052,3.211-12.142,5.995-17.324,10.499c-0.032,0.029-0.142-0.028-0.175,0
		C43.96,33.627,43.897,33.882,43.758,34.024z"/>
	<path fill-rule="evenodd" clip-rule="evenodd" fill="#D1E3F8" d="M69.657,12.5c1.675-0.017,2.441-0.941,3.675-1.4
		c0.854-0.487,1.868-0.814,2.626-1.399c10.73-4.9,22.59-8.675,37.271-9.624c0.642,0,1.283,0,1.926,0
		c2.638,0.161,5.051,0.548,7.699,0.7c0.299,0.4,1.336,0.063,1.924,0.175c-3.858,0.189-8.422-0.743-12.248-0.525
		C101.472,1.055,91.998,3.547,83.13,6.9c-11.272,4.263-21.027,10.041-30.099,17.849c-4.332,3.729-8.063,8.057-12.599,11.375
		C28.791,44.64,18.544,54.019,10.685,66.397c-1.574,2.479-3.056,5.07-4.375,7.699c0-0.174,0-0.349,0-0.524
		c2.094-14.235,5.81-26.135,12.774-35.349c6.925-9.16,16.922-15.09,27.998-20.124c0.059,0,0.116,0,0.176,0
		C53.993,15.501,61.641,13.818,69.657,12.5z"/>
	<path fill-rule="evenodd" clip-rule="evenodd" fill="#D1E3F8" d="M206.325,110.844c-0.511,13.289-4.669,23.512-8.925,33.249
		c-4.208,9.63-9.531,18.305-15.574,26.599c-5.794,7.955-12.092,15.543-20.124,22.049c-7.639,6.188-17.25,12.237-28.873,13.475
		c-5.559,0.592-12.209-1.522-17.499-3.149c-16.718-5.144-30.25-12.218-43.048-20.3c-17.59-11.107-32.307-23.52-44.448-40.072
		c-6.11-8.331-11.812-18.987-8.925-31.499c0.705-3.056,0.822-6.044,1.576-8.925c2.273-8.699,5.238-15.243,9.273-22.398
		c10.043-17.808,23.763-33.171,39.023-45.498c7.892-6.375,15.92-11.731,25.723-16.448c9.07-4.365,20.855-9.061,34.124-7.701
		c12.487,1.28,21.593,6.492,29.748,12.425c8.236,5.991,14.004,13.702,21.35,20.999c0.059,0,0.117,0,0.175,0
		c0.717,0.976,1.771,1.613,2.625,2.45c0.357,0.052,0.343,0.474,0.7,0.524c1.152,1.299,2.377,2.523,3.675,3.676
		c0,0.058,0,0.117,0,0.174c1.562,1.647,2.935,3.482,4.55,5.075c0,0.059,0,0.117,0,0.175c0.334,0.482,0.716,0.918,1.05,1.4
		c-4.242-5.09-8.628-10.039-13.824-14.175c-0.229-0.062-0.275-0.308-0.524-0.35c-2.556-2.812-6-4.733-9.275-6.825
		c-0.37-0.154-0.518-0.532-1.05-0.524c-2.303-1.604-4.965-2.851-7.699-4.025c-0.059,0-0.117,0-0.176,0
		c-1.365-0.849-3.049-1.383-4.725-1.924c-0.482-0.217-0.889-0.512-1.574-0.525c-2.322-0.944-4.93-1.604-7.7-2.1
		c-0.206-0.202-0.618-0.198-1.05-0.175c-0.494-0.265-1.208-0.309-1.925-0.351c-0.059,0-0.117,0-0.175,0
		c-0.608-0.266-1.434-0.316-2.275-0.35c-0.176,0-0.35,0-0.524,0c-2.549-0.577-6.52-0.451-9.1,0c-2.001,0.099-3.856,0.343-5.601,0.7
		c-1.117,0.049-2.148,0.185-2.975,0.524c-0.465,0.002-0.999-0.066-1.225,0.175c-2.264,0.304-4.418,0.715-6.299,1.4
		c-0.059,0-0.117,0-0.176,0c-1.082,0.085-2.02,0.313-2.799,0.7c-0.406-0.056-0.674,0.027-0.876,0.175
		c-1.464,0.345-2.987,0.629-4.2,1.225c-0.058,0-0.116,0-0.174,0c-1,0.227-2.028,0.423-2.801,0.875
		c-1.392,0.301-2.662,0.722-3.85,1.225c-1.378,0.371-2.721,0.779-3.85,1.4c-0.059,0-0.117,0-0.176,0
		c-1.557,0.484-3.061,1.021-4.375,1.75c-1.141,0.142-1.861,0.705-2.799,1.05c-2.934,1.149-5.779,2.388-8.399,3.85
		c-0.059,0-0.117,0-0.176,0c-1.264,0.604-2.561,1.172-3.675,1.925c-0.059,0-0.116,0-0.175,0c-3.237,1.721-6.582,3.334-9.45,5.425
		c-0.058,0-0.116,0-0.175,0c-12.993,8.005-24.534,17.464-32.373,30.624c-0.339,0.534-0.718,1.032-0.875,1.749
		c-1.468,2.091-2.424,4.693-3.325,7.351c-0.135,0.155-0.188,0.395-0.175,0.7c-0.572,0.651-0.592,1.856-0.874,2.8
		c-0.189,0.453-0.426,0.857-0.351,1.574c-0.45,1.009-0.541,2.376-0.7,3.675c0,0.059,0,0.117,0,0.175
		c-0.387,1.072-0.658,2.259-0.7,3.676c0,0.116,0,0.232,0,0.35c-0.058,0-0.116,0-0.175,0c-0.144,2.646-0.398,5.845,0.175,8.225
		c0,0.058,0,0.116,0,0.175c-0.043,1.734,0.343,3.041,0.7,4.375c0,0.058,0,0.117,0,0.175c0.118,0.99,0.291,1.925,0.7,2.625
		c0.052,1.056,0.401,1.814,0.7,2.625c0.491,1.842,1.091,3.576,1.925,5.075c0,0.057,0,0.116,0,0.174
		c0.641,1.692,1.312,3.355,2.274,4.726c0,0.059,0,0.116,0,0.175c11.061,21.079,27.659,36.621,46.548,49.873c0.059,0,0.117,0,0.176,0
		c0.398,0.65,1.227,0.872,1.749,1.399c0.059,0,0.117,0,0.176,0c1.867,1.865,4.194,3.271,6.475,4.725
		c0.369,0.155,0.518,0.532,1.05,0.525c0.409,0.522,1.123,0.742,1.749,1.049c0.666,0.27,1.162,0.705,1.926,0.876
		c2.856,1.401,5.907,2.609,8.75,4.024c0.613,0.203,0.944,0.688,1.749,0.699c1.417,0.917,3.198,1.471,4.9,2.101
		c0.058,0,0.116,0,0.175,0c1.42,0.737,3.032,1.284,4.725,1.75c0.059,0,0.117,0,0.175,0c0.69,0.476,1.686,0.648,2.625,0.875
		c1.05,0.351,1.99,0.81,3.325,0.875c0.813,0.354,1.751,0.582,2.8,0.7c0.206,0.201,0.618,0.198,1.05,0.175
		c0.8,0.309,1.709,0.507,2.8,0.524c0.872,0.236,1.867,0.35,2.975,0.351c2.818,0.502,7.348,0.574,10.149,0c0.059,0,0.117,0,0.176,0
		c1.371-0.087,2.655-0.262,3.674-0.7c0.059,0,0.117,0,0.176,0c1.051-0.174,2.014-0.436,2.799-0.875
		c0.366,0.074,0.465-0.12,0.701-0.175c1.07-0.329,2.18-0.62,2.975-1.225c0.283,0.05,0.301-0.166,0.525-0.175
		c3.284-1.441,6.346-3.104,8.924-5.25c0.059,0,0.117,0,0.175,0c6.104-4.279,11.176-9.591,15.925-15.225c0-0.059,0-0.116,0-0.175
		c2.782-3.109,5.227-6.557,7.524-10.149c0-0.059,0-0.117,0-0.175c0.533-0.284,0.745-0.889,1.05-1.4c0-0.059,0-0.117,0-0.175
		c3.395-4.83,6.216-10.234,8.925-15.749c0-0.059,0-0.117,0-0.176c0.728-1.021,1.242-2.257,1.749-3.499c0-0.059,0-0.117,0-0.176
		c0.631-0.827,0.988-1.928,1.401-2.975c0.41-0.813,0.881-1.568,1.049-2.624c1.221-2.28,2.107-4.894,2.976-7.525
		c0.372-0.793,0.715-1.618,0.875-2.625c0.515-0.826,0.786-1.896,1.05-2.975c0-0.059,0-0.116,0-0.175
		c0.624-1.359,1.043-2.924,1.399-4.55c0.25-0.626,0.5-1.25,0.525-2.101c0.346-0.413,0.412-1.104,0.524-1.749
		c0.147-0.204,0.231-0.47,0.176-0.875c0.3-0.575,0.463-1.287,0.524-2.101c0.147-0.203,0.23-0.469,0.175-0.875
		C206.044,112.664,205.862,111.432,206.325,110.844z"/>
	<path fill-rule="evenodd" clip-rule="evenodd" fill="#F4F1F2" d="M192.5,57.297c1.859,2.34,3.312,5.088,5.25,7.35
		c0,0.059,0,0.116,0,0.176c0.271,0.778,0.886,1.214,1.05,2.1c0.382,0.552,0.476,1.39,1.05,1.75c0.604,1.087,1.049,2.334,1.75,3.324
		c0.075,0.334,0.377,0.439,0.35,0.875c0.512,1.823,1.429,4.171,2.101,5.25c0.361,0.514,0.487,1.262,0.699,1.925
		c-0.392,0.281,0.483,2.466,0.525,1.75c0.26,0.265,0.282,0.768,0.35,1.226c-0.408,0.146,0.313,2.255,0.351,1.399
		c0.77,2.788,1.408,5.708,1.574,9.1c0.114,0.936-0.229,2.329,0.175,2.976c0.102,0.307-0.211,1.027,0.177,1.049
		c0,0.175,0,0.351,0,0.525c-0.239,0.054-0.146,0.438-0.177,0.699c-0.317,1.315-0.369,2.897-0.349,4.55
		c-0.028,2.598-0.766,4.484-0.875,7c-0.204,0.029-0.19,0.276-0.176,0.524c-0.463,0.588-0.28,1.819-0.7,2.45
		c1.564-8.36-0.928-16.93-3.149-24.498c-1.775-6.049-4.188-11.688-6.475-16.8c-4.887-10.921-11.16-20.476-17.324-29.049
		c5.196,4.136,9.582,9.085,13.824,14.175C192.5,57.181,192.5,57.239,192.5,57.297z"/>
</g>
</svg>
