<?xml version="1.0" encoding="utf-8"?>
<!-- Generator: Adobe Illustrator 14.0.0, SVG Export Plug-In . SVG Version: 6.00 Build 43363)  -->
<!DOCTYPE svg PUBLIC "-//W3C//DTD SVG 1.1//EN" "http://www.w3.org/Graphics/SVG/1.1/DTD/svg11.dtd">
<svg version="1.1" id="Layer_1" xmlns="http://www.w3.org/2000/svg" xmlns:xlink="http://www.w3.org/1999/xlink" x="0px" y="0px"
	 width="51.208px" height="51.208px" viewBox="0 0 51.208 51.208" enable-background="new 0 0 51.208 51.208" xml:space="preserve">
<path fill-rule="evenodd" clip-rule="evenodd" fill="#006ED1" d="M51.208,43.432c0,4.294-3.481,7.776-7.776,7.776H7.776
	C3.481,51.208,0,47.726,0,43.432V7.776C0,3.48,3.481,0,7.776,0h35.656c4.295,0,7.776,3.48,7.776,7.776V43.432z"/>
<g>
	<path fill="#FFFFFF" d="M43.467,25.605c0,9.864-7.998,17.858-17.863,17.858c-9.865,0-17.863-7.994-17.863-17.858
		c0-9.869,7.998-17.865,17.863-17.865C35.47,7.74,43.467,15.736,43.467,25.605z"/>
	<path fill="#109D58" d="M25.604,33.287c-2.741,0-5.146-1.438-6.505-3.595l0.028,0.044l-0.028-0.044
		c-0.093-0.15-0.183-0.301-0.266-0.456L11.34,16.45c-1.698,2.641-2.683,5.781-2.683,9.153c0,9.091,7.161,16.512,16.151,16.927
		l7.349-12.915C30.806,31.819,28.377,33.287,25.604,33.287z"/>
	<path fill="#FECD40" d="M40.695,17.885l-14.89,0.039c4.15,0.107,7.483,3.503,7.483,7.68c0,1.299-0.323,2.521-0.892,3.594
		l0.021-0.039l-0.021,0.039c-0.076,0.142-0.155,0.28-0.239,0.418L24.809,42.53c0.263,0.012,0.529,0.02,0.795,0.02
		c9.359,0,16.946-7.589,16.946-16.946C42.55,22.825,41.881,20.201,40.695,17.885z"/>
	<path fill="#DC4437" d="M17.92,25.604c0-4.161,3.308-7.547,7.437-7.678h-0.073h0.073c0.083-0.003,0.164-0.007,0.247-0.007
		c0.067,0,0.134,0.004,0.201,0.005l14.89-0.039c-2.808-5.478-8.512-9.229-15.091-9.229c-5.987,0-11.25,3.106-14.264,7.794
		l7.493,12.786C18.25,28.154,17.92,26.918,17.92,25.604z"/>
	<path fill="none" d="M17.92,25.604c0,1.314,0.33,2.551,0.913,3.633l0.266,0.456c1.359,2.157,3.764,3.595,6.505,3.595
		c2.773,0,5.202-1.468,6.554-3.672l0.239-0.418c0.569-1.073,0.892-2.295,0.892-3.594c0-4.177-3.333-7.572-7.483-7.68l-0.448,0.002
		C21.229,18.057,17.92,21.442,17.92,25.604z"/>
	<path fill="none" d="M25.357,17.926l0.448-0.002c-0.067-0.001-0.134-0.005-0.201-0.005C25.521,17.919,25.44,17.923,25.357,17.926z"
		/>
	<path fill="none" d="M19.099,29.692l-0.266-0.456C18.916,29.392,19.005,29.542,19.099,29.692z"/>
	<path fill="none" d="M32.396,29.197l-0.239,0.418C32.242,29.478,32.321,29.339,32.396,29.197z"/>
	<path fill="#DB0A00" d="M18.833,24.423L11.34,16.45l7.493,12.786c0.083,0.155,0.294,0.5,0.294,0.5L18.833,24.423z"/>
	<path fill="#FCB400" d="M30.032,20.387l10.651-2.502l-14.819,0.099c-0.176-0.008-0.581,0.002-0.581,0.002L30.032,20.387z"/>
	<path fill="#00893E" d="M32.423,29.142c0,0-0.194,0.357-0.287,0.506L24.809,42.53l3.159-10.478L32.423,29.142z"/>
	<circle fill="#F1F1F1" cx="25.604" cy="25.603" r="7.684"/>
	<circle fill="#4286F5" cx="25.604" cy="25.604" r="6.17"/>
</g>
</svg>
