<?xml version="1.0" encoding="utf-8"?>
<!-- Generator: Adobe Illustrator 14.0.0, SVG Export Plug-In . SVG Version: 6.00 Build 43363)  -->
<!DOCTYPE svg PUBLIC "-//W3C//DTD SVG 1.1//EN" "http://www.w3.org/Graphics/SVG/1.1/DTD/svg11.dtd">
<svg version="1.1" id="Layer_1" xmlns="http://www.w3.org/2000/svg" xmlns:xlink="http://www.w3.org/1999/xlink" x="0px" y="0px"
	 width="39.28px" height="47.012px" viewBox="0 0 39.28 47.012" enable-background="new 0 0 39.28 47.012" xml:space="preserve">
<g>
	<path fill="#FFFFFF" d="M31.797,28.374c0.272,2.758-1.938,3.039-4.631,2.836c-0.817,2.271-1.586,4.593-2.345,6.925
		c0.882,0.048,1.534-0.093,2.125,0.053c2.499,0.612,2.275,4.18,0.111,4.853c-0.931,0.29-2.483,0.109-3.708,0.109
		c-2.446,0-4.996,0-7.524,0c-1.19,0-2.813,0.17-3.651-0.109c-0.621-0.208-1.219-0.819-1.418-1.202
		c-1.094-2.101,0.83-4.298,3.652-3.703c-0.571-2.265-1.561-4.581-2.234-6.925c-2.683,0.194-4.941-0.037-4.688-2.778
		c-2.167-0.208-3.974-1.546-4.196-3.928c-0.243-2.564,0-5.44,0-8.395c0-1.432,0-2.846,0-4.199c0-1.432-0.128-2.856,0-4.141
		c0.205-2.092,1.896-3.674,3.814-3.871c1.976-0.206,4.162,0,6.269,0c4.175,0,8.323,0,12.54,0c2.104,0,4.219-0.188,6.214,0
		c2.036,0.189,3.682,1.763,3.87,3.924c0.161,1.819,0,3.789,0,5.723c0,1.899,0,3.816,0,5.727c0,1.942,0.263,3.959-0.055,5.667
		C35.578,26.897,34.044,28.251,31.797,28.374z M4.979,6.896c-0.47,0.968-0.274,2.812-0.274,4.524c0,3.16,0,6.23,0,9.267
		c0,1.445-0.218,3.439,0.165,4.47c0.693,1.886,2.193,1.799,4.795,1.799c6.828,0,13.142,0,19.953,0c1.139,0,2.452,0.116,3.163-0.162
		c0.707-0.279,1.374-0.927,1.634-1.637c0.394-1.059,0.164-3.021,0.164-4.415c0-3.232,0-6.125,0-9.213
		c0-1.338,0.21-3.274-0.219-4.417c-0.696-1.857-2.244-1.797-4.796-1.797c-5.388,0-10.774,0-15.975,0
		c-2.063,0-4.576-0.207-6.432,0.053C6.242,5.498,5.381,6.061,4.979,6.896z M8.903,28.538c-0.272,1.765,1.89,1.255,3.651,1.255
		c1.852,0,4.265,0.536,3.816-1.419c-2.452,0-4.904,0-7.358,0C8.943,28.397,8.9,28.445,8.903,28.538z M17.898,28.374
		c-0.069,0.022-0.11,0.07-0.109,0.164c0.143,1.434-0.561,2.021-1.309,2.563c0.218,0.713,0.536,1.534,0.818,2.453
		c0.24,0.782,1.338,3.276-0.054,3.216c-0.489-0.021-0.68-0.652-0.819-1.091c-0.506-1.603-0.911-3.025-1.364-4.47
		c-0.472,0-0.943,0-1.415,0c0.766,2.323,1.553,4.626,2.343,6.925c2.434,0,4.871,0,7.305,0c0.794-2.296,1.578-4.604,2.345-6.925
		c-0.471,0-0.946,0-1.418,0c-0.257,0.984-0.604,1.871-0.926,2.945c-0.207,0.685-0.434,2.627-1.31,2.615
		c-1.029-0.014-0.609-1.211-0.379-1.963c0.379-1.254,0.863-2.646,1.198-3.706c-0.786-0.541-1.469-1.187-1.31-2.671
		C20.403,28.302,19.08,28.41,17.898,28.374z M26.564,29.793c1.84,0,4.196,0.518,3.819-1.362c-2.364-0.129-4.962-0.02-7.415-0.057
		C22.425,30.302,24.734,29.793,26.564,29.793z M11.9,40.749c0.093,1.146,1.616,0.982,3.162,0.982c3.145,0,5.314,0,8.288,0
		c1.743,0,4.08,0.415,4.034-1.146c-0.035-1.237-1.59-1.035-2.835-1.035c-3.233,0-4.875,0-7.851,0c-1.184,0-2.989-0.199-3.981,0.055
		C12.197,39.738,11.854,40.154,11.9,40.749z"/>
	<path fill="#FFFFFF" d="M23.731,7.005c1.069-0.316,2.776-0.055,4.415-0.055c0.759,0,3.707-0.294,3.924,0.436
		c0.384,1.261-1.164,0.982-2.289,0.982c-1.768,0-2.79,0-4.686,0c-0.754,0-1.756,0.138-1.908-0.435
		C23.042,7.393,23.321,7.126,23.731,7.005z"/>
	<path fill="#FFFFFF" d="M7.866,12.513c-1.148-0.917,0.141-1.403,1.146-1.855c1.875-0.844,3.733-1.825,5.505-2.563
		c0.523-0.218,1.766,0.546,2.236,0.764c1.201,0.552,2.365,1.155,3.761,1.799c0.71,0.326,1.614,0.516,1.582,1.199
		c-0.063,1.291-1.592,0.323-2.289,0c-1.285-0.587-2.095-0.941-3.38-1.524c-0.466-0.212-1.229-0.758-1.635-0.763
		c-0.477-0.013-1.207,0.515-1.746,0.763c-1.289,0.593-2.221,0.991-3.379,1.524C9.089,12.123,8.75,12.497,7.866,12.513z"/>
	<path fill="#FFFFFF" d="M23.677,9.458c0.018-0.006,0.001-0.05,0.055-0.055c1.377-0.101,2.725,0,4.523,0
		c0.997,0,3.815-0.343,3.871,0.656c0.043,0.776-0.808,0.763-1.798,0.763c-1.858,0-3.238,0-5.126,0c-0.883,0-1.881,0.112-2.016-0.49
		C23.069,9.806,23.356,9.565,23.677,9.458z"/>
	<path fill="#FFFFFF" d="M23.677,11.91c0.018-0.005,0.001-0.05,0.055-0.054c2.189-0.16,4.388,0,6.703,0
		c1.104,0,1.794-0.047,1.636,0.873c-0.109,0.646-1.039,0.545-1.962,0.545c-1.867,0-3.054,0-4.962,0c-0.877,0-1.82,0.109-1.96-0.49
		C23.072,12.291,23.299,12.032,23.677,11.91z"/>
	<path fill="#FFFFFF" d="M10.266,23.469c1.634,0.041,3.229-0.065,4.907,0.053c0.026-2.286-0.383-4.588,1.416-5.124
		c0.688-0.205,1.685,0.04,2.671-0.055c0.098-0.875,0.054-1.939,0.054-3.052c0-1.132-0.315-2.815,0.873-2.507
		c0.672,0.174,0.49,1.517,0.49,2.344c0,2.739,0,5.893,0,8.341c3.444,0.02,5.839,0,9.648,0c1.341,0,2.59-0.164,2.564,0.762
		c-0.026,0.926-1.853,0.653-2.836,0.653c-7.634,0-14.842,0.23-22.569,0c-0.796-0.021-1.061-0.219-1.092-0.599
		c-0.087-1.098,1.469-0.768,2.401-0.818c0.098-2.275,0.054-5.237,0.054-7.959c0-1.02-0.307-2.785,0.708-2.781
		c0.991,0.003,0.708,1.766,0.708,2.89C10.266,18.086,10.266,21.282,10.266,23.469z M16.589,20.253c-0.266,0.93,0.195,2.042,0,3.215
		c0.91,0,1.816,0,2.726,0c-0.004-0.803-0.004-2.904,0-3.707C18.404,19.917,16.85,19.345,16.589,20.253z"/>
	<path fill="#FFFFFF" d="M11.956,13.002c0.764-0.248,1.695-0.094,1.69,0.654c-0.007,0.972-1.973,0.978-2.18,0.272
		C11.307,13.396,11.491,13.151,11.956,13.002z"/>
	<path fill="#FFFFFF" d="M16.425,13.002c0.744-0.239,1.626-0.06,1.691,0.543c0.106,1.018-2.167,1.248-2.236,0.164
		C15.858,13.38,16.045,13.125,16.425,13.002z"/>
	<path fill="#FFFFFF" d="M23.677,14.365c0.018-0.005,0.001-0.051,0.055-0.054c2.404-0.177,3.962,0,6.377,0
		c0.841,0,2.332-0.25,1.962,0.981c-0.228,0.752-3.458,0.436-4.471,0.436c-1.016,0-4.216,0.349-4.413-0.491
		C23.07,14.744,23.3,14.486,23.677,14.365z"/>
	<path fill="#FFFFFF" d="M16.48,16.053c0.9-0.257,1.617,0.03,1.636,0.656c0.022,0.75-1.337,1.037-1.963,0.6
		C15.648,16.954,15.926,16.213,16.48,16.053z"/>
	<path fill="#FFFFFF" d="M12.01,16.818c0.838-0.242,1.587-0.067,1.637,0.6c0.08,1.1-2.608,1.203-2.18-0.219
		C11.497,17.088,11.687,16.91,12.01,16.818z"/>
	<path fill="#FFFFFF" d="M24.55,17.309c0.823-0.11,2.114-0.054,3.162-0.054c1.218,0,2.075-0.156,2.887,0.163
		c0.673,0.263,1.198,1.054,1.308,1.363c0.535,1.517-0.521,2.701-1.36,2.999c-0.773,0.27-2.167,0.109-3.327,0.109
		c-1.144,0-2.515,0.156-3.271-0.109c-0.571-0.202-1.221-0.928-1.361-1.309c-0.354-0.961,0.123-2.09,0.382-2.399
		C23.263,17.719,23.785,17.41,24.55,17.309z M23.84,19.653c0.057,1.148,1.783,0.819,3.326,0.819c1.57,0,3.383,0.322,3.435-0.819
		c0.059-1.287-1.725-0.983-2.943-0.983c-1.24,0-2.455-0.095-3.055,0.054C24.187,18.832,23.814,19.113,23.84,19.653z"/>
	<path fill="#FFFFFF" d="M12.121,20.632c0.633-0.134,1.501-0.098,1.526,0.657c0.023,0.791-1.511,1.052-2.017,0.545
		C11.123,21.327,11.617,20.742,12.121,20.632z"/>
</g>
</svg>
