<?xml version="1.0" encoding="utf-8"?>
<!-- Generator: Adobe Illustrator 14.0.0, SVG Export Plug-In . SVG Version: 6.00 Build 43363)  -->
<!DOCTYPE svg PUBLIC "-//W3C//DTD SVG 1.1//EN" "http://www.w3.org/Graphics/SVG/1.1/DTD/svg11.dtd">
<svg version="1.1" id="Layer_1" xmlns="http://www.w3.org/2000/svg" xmlns:xlink="http://www.w3.org/1999/xlink" x="0px" y="0px"
	 width="141.732px" height="141.732px" viewBox="0 0 141.732 141.732" enable-background="new 0 0 141.732 141.732"
	 xml:space="preserve">
<path fill="#E7E7E7" d="M135.433,12.599H118.11V6.3h4.724c1.733,0,3.15-1.418,3.15-3.15c0-1.731-1.417-3.149-3.15-3.149h-15.748
	c-1.732,0-3.148,1.418-3.148,3.149c0,1.732,1.416,3.15,3.148,3.15h4.726v6.299H74.017V6.3h4.724c1.732,0,3.149-1.418,3.149-3.15
	C81.89,1.418,80.473,0,78.74,0H62.993c-1.733,0-3.15,1.418-3.15,3.149c0,1.732,1.417,3.15,3.15,3.15h4.723v6.299H29.921V6.3h4.725
	c1.732,0,3.149-1.418,3.149-3.15C37.795,1.418,36.378,0,34.646,0H18.898c-1.733,0-3.15,1.418-3.15,3.149
	c0,1.732,1.417,3.15,3.15,3.15h4.724v6.299H6.3c-3.48,0-6.3,2.819-6.3,6.3v56.692c0,3.48,2.819,6.299,6.3,6.299h25.196v9.449H18.898
	c-1.733,0-3.15,1.417-3.15,3.149s1.417,3.149,3.15,3.149h40.944v37.795H34.646c-1.732,0-3.149,1.418-3.149,3.149
	c0,1.732,1.417,3.15,3.149,3.15h72.44c1.733,0,3.15-1.418,3.15-3.15c0-1.731-1.417-3.149-3.15-3.149H81.89V97.638h40.944
	c1.733,0,3.15-1.417,3.15-3.149s-1.417-3.149-3.15-3.149h-12.598V81.89h25.196c3.48,0,6.3-2.818,6.3-6.299V18.898
	C141.732,15.418,138.913,12.599,135.433,12.599z M59.843,91.339H37.795V81.89h22.048V91.339z M75.591,135.433h-9.449V81.89h9.449
	V135.433z M103.938,91.339H81.89V81.89h22.048V91.339z M135.433,75.591H6.3V18.898h129.133V75.591z M15.748,31.496
	c0-1.732,1.417-3.149,3.15-3.149h34.645c1.733,0,3.15,1.417,3.15,3.149s-1.417,3.15-3.15,3.15H18.898
	C17.165,34.646,15.748,33.229,15.748,31.496z M15.748,47.244c0-1.732,1.417-3.149,3.15-3.149h34.645c1.733,0,3.15,1.417,3.15,3.149
	s-1.417,3.149-3.15,3.149H18.898C17.165,50.394,15.748,48.977,15.748,47.244z M15.748,62.993c0-1.733,1.417-3.15,3.15-3.15h34.645
	c1.733,0,3.15,1.417,3.15,3.15c0,1.731-1.417,3.148-3.15,3.148H18.898C17.165,66.142,15.748,64.725,15.748,62.993z M69.291,66.142
	h53.543c1.135,0,2.174-0.598,2.725-1.575c0.567-0.976,0.567-2.188,0-3.165l-18.314-31.496c-0.566-0.96-1.606-1.559-2.725-1.559
	c-1.117,0-2.157,0.599-2.725,1.559l-5.732,9.858l-5.732-9.858c-0.565-0.96-1.605-1.559-2.724-1.559
	c-1.119,0-2.158,0.599-2.725,1.559L66.566,61.401c-0.566,0.977-0.566,2.189,0,3.165C67.118,65.544,68.157,66.142,69.291,66.142z
	 M104.52,37.764l12.835,22.079h-9.622L99.7,46.031L104.52,37.764z M87.606,37.764l12.851,22.079H74.771L87.606,37.764z"/>
</svg>
