<?xml version="1.0" encoding="utf-8"?>
<!-- Generator: Adobe Illustrator 14.0.0, SVG Export Plug-In . SVG Version: 6.00 Build 43363)  -->
<!DOCTYPE svg PUBLIC "-//W3C//DTD SVG 1.1//EN" "http://www.w3.org/Graphics/SVG/1.1/DTD/svg11.dtd">
<svg version="1.1" id="Layer_1" xmlns="http://www.w3.org/2000/svg" xmlns:xlink="http://www.w3.org/1999/xlink" x="0px" y="0px"
	 width="51.208px" height="51.208px" viewBox="0 0 51.208 51.208" enable-background="new 0 0 51.208 51.208" xml:space="preserve">
<g>
	<path fill-rule="evenodd" clip-rule="evenodd" fill="#006ED1" d="M51.208,43.626c0,4.294-3.481,7.776-7.776,7.776H7.776
		C3.481,51.402,0,47.92,0,43.626V7.971c0-4.296,3.481-7.776,7.776-7.776h35.656c4.295,0,7.776,3.48,7.776,7.776V43.626z"/>
	<path fill-rule="evenodd" clip-rule="evenodd" fill="#FFFFFF" d="M42.285,10.55c0,2.229,0,4.458,0,6.685
		c-6.236-0.782-8.409,1.009-7.428,7.8c1.982,0.432,4.766,0.063,7.057,0.186c-0.112,2.736-0.523,5.172-0.929,7.613
		c-1.98,0-3.961,0-5.942,0c-0.433,5.819-0.062,12.441-0.186,18.569c-2.6,0-5.199,0-7.799,0c0-6.19,0-12.379,0-18.569
		c-2.042,0-4.085,0-6.127,0c0-2.537,0-5.075,0-7.613c1.98,0,3.961,0,5.941,0C25.761,14.159,30.829,8.444,42.285,10.55z"/>
</g>
</svg>
