<?xml version="1.0" encoding="utf-8"?>
<!-- Generator: Adobe Illustrator 14.0.0, SVG Export Plug-In . SVG Version: 6.00 Build 43363)  -->
<!DOCTYPE svg PUBLIC "-//W3C//DTD SVG 1.1//EN" "http://www.w3.org/Graphics/SVG/1.1/DTD/svg11.dtd">
<svg version="1.1" id="Layer_1" xmlns="http://www.w3.org/2000/svg" xmlns:xlink="http://www.w3.org/1999/xlink" x="0px" y="0px"
	 width="42.03px" height="41.921px" viewBox="0 0 42.03 41.921" enable-background="new 0 0 42.03 41.921" xml:space="preserve">
<g>
	<path fill="#FFFFFF" d="M34.817,39.369c-0.887,0-1.812-0.036-2.645-0.066c-0.674-0.028-1.288-0.054-1.77-0.054H8.183
		c-0.358,0-0.761,0.014-1.174,0.027c-0.448,0.016-0.907,0.029-1.336,0.029c-1.025,0-1.625-0.089-2.001-0.298
		c-1.137-0.632-1.13-3.117-1.006-6.299c0.02-0.53,0.04-1.004,0.04-1.369c0-0.408-0.022-0.925-0.048-1.49
		c-0.135-3.056-0.149-5.442,1.015-6.09c0.392-0.219,0.856-0.248,1.299-0.248l0.795,0.016c0.099-2.286,0.08-4.716,0.064-7.076
		c-0.013-1.431-0.021-2.859-0.008-4.265c-0.009-0.001-0.019-0.002-0.027-0.004c-1.007-0.124-2.261-0.279-2.87-1.628
		C2.457,9.519,2.454,5.556,2.815,4.44c0.547-1.659,2.192-1.888,3.888-1.888c0.385,0,0.79,0.011,1.208,0.022
		c0.429,0.013,0.869,0.027,1.312,0.027l26.056-0.014c1.599,0,3.215,0.127,3.857,1.637c0.406,0.955,0.481,5.212,0,6.322
		c-0.553,1.273-1.737,1.564-2.909,1.613v11.357c0.111,0.007,0.228,0.011,0.34,0.011l0.498-0.004c0.428,0,0.919,0.017,1.318,0.237
		c1.22,0.665,1.116,3.154,1.017,5.563c-0.025,0.571-0.048,1.116-0.048,1.585v3.644c0,0.275,0.007,0.577,0.015,0.887
		c0.035,1.38,0.036,2.323-0.254,2.845C38.682,39.055,37.439,39.369,34.817,39.369L34.817,39.369z M8.183,38.189h22.221
		c0.494,0,1.121,0.023,1.81,0.052c0.821,0.032,1.733,0.07,2.605,0.07c2.918,0,3.316-0.453,3.369-0.544
		c0.169-0.308,0.141-1.508,0.119-2.302c-0.008-0.316-0.015-0.628-0.015-0.914v-3.644c0-0.484,0.021-1.041,0.048-1.628
		c0.065-1.585,0.175-4.237-0.465-4.59c-0.196-0.106-0.625-0.106-0.81-0.106l-0.499,0.005c-0.346,0-0.71-0.016-1.033-0.12
		l-0.365-0.12V11.103l0.535,0.005c0,0,0.002,0,0.003,0c1.7,0,2.2-0.394,2.456-0.984c0.359-0.824,0.301-4.775-0.002-5.483
		c-0.354-0.839-1.25-0.992-2.881-0.992l-1.577,0.013H9.224c-0.454,0-0.905-0.013-1.343-0.025c-0.405-0.011-0.8-0.023-1.177-0.023
		c-1.822,0-2.601,0.314-2.877,1.161c-0.304,0.929-0.259,4.625,0.066,5.342c0.348,0.767,1,0.886,2.037,1.014
		c0.171,0.022,0.344,0.043,0.513,0.068l0.454,0.073L6.891,11.73c-0.022,1.548-0.01,3.13,0.001,4.711
		c0.018,2.547,0.038,5.179-0.088,7.634l-0.024,0.479l-0.48,0.023c-0.306,0.013-0.611,0.007-0.901,0l-0.426-0.007
		c-0.268,0-0.601,0.014-0.784,0.115c-0.682,0.379-0.539,3.577-0.471,5.113c0.025,0.584,0.047,1.116,0.047,1.539
		c0,0.377-0.018,0.865-0.039,1.411c-0.054,1.357-0.196,4.963,0.462,5.329c0.111,0.061,0.451,0.165,1.484,0.165
		c0.416,0,0.864-0.016,1.3-0.031C7.399,38.203,7.816,38.189,8.183,38.189L8.183,38.189z"/>
	<path fill="#FFFFFF" d="M34.74,24.58H7.293V11.898c-0.045-0.629,0.363-0.759,0.541-0.786l26.907-0.004V24.58L34.74,24.58z
		 M8.354,23.518h25.326v-11.35H8.349L8.354,23.518L8.354,23.518z"/>
	<path fill="#FFFFFF" d="M29.434,9.127c0,0.254-0.21,0.46-0.463,0.46H13.059c-0.254,0-0.462-0.206-0.462-0.46V5.76
		c0-0.254,0.208-0.461,0.462-0.461h15.912c0.253,0,0.463,0.207,0.463,0.461V9.127z"/>
	<path fill="#FFFFFF" d="M33.37,29.523c0,0.198-0.304,0.357-0.678,0.357H9.337c-0.375,0-0.679-0.16-0.679-0.357v-2.594
		c0-0.195,0.305-0.357,0.679-0.357h23.355c0.374,0,0.678,0.162,0.678,0.357V29.523z"/>
	<path fill="#FFFFFF" d="M31.124,31.014c0,0.033-0.247,0.06-0.554,0.06H11.458c-0.306,0-0.555-0.026-0.555-0.06v-0.423
		c0-0.03,0.25-0.056,0.555-0.056H30.57c0.307,0,0.554,0.025,0.554,0.056V31.014z"/>
	<path fill="#FFFFFF" d="M31.124,32.084c0,0.034-0.247,0.058-0.554,0.058H11.458c-0.306,0-0.555-0.023-0.555-0.058v-0.422
		c0-0.033,0.25-0.059,0.555-0.059H30.57c0.307,0,0.554,0.025,0.554,0.059V32.084z"/>
	<path fill="#FFFFFF" d="M20.604,13.286c3.864-0.754,3.298,5.603-0.346,4.426C17.878,16.948,18.629,13.673,20.604,13.286z"/>
	<path fill="#FFFFFF" d="M23.229,17.798c1.433,1.172,2.318,2.89,2.43,5.384c-2.922,0.202-6.219,0.029-9.287,0.087
		c0.022-2.611,0.97-4.297,2.431-5.471C19.748,18.824,22.276,18.793,23.229,17.798z"/>
</g>
</svg>
