<?xml version="1.0" encoding="utf-8"?>
<!-- Generator: Adobe Illustrator 14.0.0, SVG Export Plug-In . SVG Version: 6.00 Build 43363)  -->
<!DOCTYPE svg PUBLIC "-//W3C//DTD SVG 1.1//EN" "http://www.w3.org/Graphics/SVG/1.1/DTD/svg11.dtd">
<svg version="1.1" id="Layer_1" xmlns="http://www.w3.org/2000/svg" xmlns:xlink="http://www.w3.org/1999/xlink" x="0px" y="0px"
	 width="97.409px" height="98.255px" viewBox="0 0 97.409 98.255" enable-background="new 0 0 97.409 98.255" xml:space="preserve">
<g>
	<path fill-rule="evenodd" clip-rule="evenodd" fill="#5170C2" d="M79.38,22.867c-1.938,1.47-3.396,3.416-5.231,4.987
		c1.49,1.876,3.294,3.436,4.987,5.107c5.233-3.108,11.669-1.478,14.959,1.947c7.029,7.319,1.62,21.041-9.607,20.189
		c-7.221-0.548-13.297-8.577-10.096-16.542c-0.984-1.732-3.23-3.251-4.62-4.986c-3.567,3.049-7.072,6.871-10.946,10.459
		c-4.336,4.02-10.445,8.814-18.243,6.813c-0.117-0.634,0.617-1.072,0.972-1.461c6.628-7.199,14.491-14.147,21.165-21.406
		c-5.388-5.923-11.18-11.664-16.906-17.389c-1.858-1.86-3.974-3.53-5.352-5.716c7.353-1.965,13.729,2.678,17.999,6.566
		c3.967,3.609,7.53,7.44,11.069,10.58c1.934-1.306,3.347-3.136,4.986-4.742c-0.373-0.791-0.731-1.686-0.853-2.311
		C72.223,7.5,78.1,0.931,84.853,0.733c10.706-0.315,16.674,12.755,9.121,20.311C90.979,24.038,84.156,26.142,79.38,22.867z
		 M79.864,14.962c0.897,2.349,3.449,3.701,5.719,3.649c3.781-0.09,7.256-4.361,5.352-8.515c-0.888-1.926-3.475-3.812-6.567-3.284
		C80.92,7.401,78.343,10.97,79.864,14.962z M69.164,29.556c1.945-0.092,2.384-4.358-0.732-3.284
		C66.307,27.006,67.761,29.623,69.164,29.556z M79.864,45.488c0.953,2.555,3.542,3.662,5.597,3.649
		c3.767-0.025,7.499-4.209,5.474-8.513c-0.93-1.97-3.39-3.826-6.567-3.285C80.9,37.93,78.376,41.487,79.864,45.488z"/>
	<path fill-rule="evenodd" clip-rule="evenodd" fill="#5170C2" d="M57.367,27.731c-1.229,0.96-2.256,3.376-3.894,3.771
		c-1.157,0.279-2.937,0-4.378,0c-9.71,0-20.947,0-30.405,0c0,8.553,0,17.108,0,25.662c12.447,0.283,25.419,0.041,38.068,0.122
		c0.64-2.17-0.441-4.058,0.12-6.203c0.267-1.022,2.351-2.101,3.284-2.919c3.274-2.864,6.434-6.523,9.608-8.756
		c-0.687,6.14,0.756,10.554,3.404,13.864c0.659,0.82,1.632,1.413,1.825,2.188c0.34,1.365,0,3.598,0,5.473
		c0,9.084,0.214,18.119,0,27.122c-0.084,3.466,0.162,6.982-0.729,10.093C62.21,98.46,49.729,98.515,37.3,98.515
		c-12.442,0-24.966,0.167-36.852-0.487c-0.601-23.774-0.595-49.925,0-73.701c12.089-0.651,27.267-0.364,40.377-0.364
		c1.978,0,4.138,0,6.204,0c2.037,0,4.577-0.392,6.203,0C54.874,24.358,55.938,27.024,57.367,27.731z M6.53,33.326
		c-0.067,2-0.178,3.958-0.122,6.082c2.149,0,4.296,0,6.447,0c-0.021-2.092-0.201-4.018-0.123-6.204
		C10.612,33.31,8.35,32.778,6.53,33.326z M6.408,49.866c0,2.027,0,4.054,0,6.082c2.149,0,4.296,0,6.447,0c0-1.987,0-3.973,0-5.96
		C10.944,49.708,8.518,49.946,6.408,49.866z M62.719,49.866c0,2.027,0,4.054,0,6.082c2.066,0,4.134,0,6.202,0
		c0-1.987,0-3.973,0-5.96C67.094,49.708,64.747,49.946,62.719,49.866z M18.691,65.557c0,8.432,0,16.864,0,25.296
		c12.73,0,25.459,0,38.188,0c0-8.554,0-17.107,0-25.661c-12.688,0-25.377,0-38.065,0C18.671,65.21,18.681,65.384,18.691,65.557z
		 M6.408,66.407c0,2.027,0,4.054,0,6.081c2.149,0,4.296,0,6.447,0c0-2.027,0-4.054,0-6.081C10.705,66.407,8.557,66.407,6.408,66.407
		z M62.719,66.407c0,2.027,0,4.054,0,6.081c2.028-0.079,4.375,0.157,6.202-0.123c-0.079-1.948,0.158-4.212-0.124-5.958
		C66.771,66.407,64.745,66.407,62.719,66.407z M6.408,82.947c0.054,2.054,0.182,4.031,0.122,6.202c2.068,0,4.136,0,6.203,0
		c-0.063-2.171,0.067-4.148,0.123-6.202C10.705,82.947,8.557,82.947,6.408,82.947z M62.719,82.947c0,2.107,0,4.217,0,6.325
		c2.066,0,4.134,0,6.202,0c0-2.108,0-4.218,0-6.325C66.853,82.947,64.785,82.947,62.719,82.947z"/>
</g>
</svg>
