<?xml version="1.0" encoding="utf-8"?>
<!-- Generator: Adobe Illustrator 14.0.0, SVG Export Plug-In . SVG Version: 6.00 Build 43363)  -->
<!DOCTYPE svg PUBLIC "-//W3C//DTD SVG 1.1//EN" "http://www.w3.org/Graphics/SVG/1.1/DTD/svg11.dtd">
<svg version="1.1" id="Layer_1" xmlns="http://www.w3.org/2000/svg" xmlns:xlink="http://www.w3.org/1999/xlink" x="0px" y="0px"
	 width="97.409px" height="98.255px" viewBox="0 0 97.409 98.255" enable-background="new 0 0 97.409 98.255" xml:space="preserve">
<g>
	<path fill-rule="evenodd" clip-rule="evenodd" fill="#F7941E" d="M0.243,0c29.416,0,58.833,0,88.25,0c0,24.668,0,49.335,0,74.004
		c-0.598,0.241-3.804-2.316-4.193-3.735c-0.562-2.056,0-5.541,0-8.638c0-7.937,0-17.932,0-25.447
		c-2.251-0.543-5.508-0.079-8.148-0.233c-0.541,0.939-0.081,2.876-0.233,4.203c-1.349,0.519-3.102,1.868-4.192,1.868
		c0-12.528,0-25.059,0-37.586C53.953,3.89,35.171,4.357,17.007,4.202c-0.542,12.141-0.078,25.29-0.232,37.82
		c5.98,0.542,12.959,0.078,19.326,0.235c1.14,0.882,1.976,3.306,2.33,4.2c-7.14,0-14.282,0-21.423,0
		c-0.542,12.14-0.078,25.29-0.232,37.818c11.428,0.424,25.74,0.234,38.419,0.234c4.49,0,9.258-0.804,12.808,0
		c2.097,0.477,3.645,2.956,4.657,4.203c-24.217,0-48.432,0-72.647,0c0-29.338,0-58.675,0-88.011C-0.01,0.369-0.029,0.039,0.243,0z
		 M4.201,4.202c0,2.102,0,4.202,0,6.305c2.794,0,5.589,0,8.383,0c0-2.103,0-4.203,0-6.305C9.79,4.202,6.995,4.202,4.201,4.202z
		 M75.918,4.202c0,2.102,0,4.202,0,6.305c2.794,0,5.589,0,8.382,0c0-2.103,0-4.203,0-6.305C81.507,4.202,78.712,4.202,75.918,4.202z
		 M4.201,14.941c0,2.022,0,4.047,0,6.069c2.342,0.532,5.656,0.087,8.383,0.234c0-2.179,0-4.357,0-6.536
		C9.857,14.853,6.543,14.41,4.201,14.941z M75.918,14.708c0,2.179,0,4.357,0,6.536c2.727-0.147,6.041,0.298,8.382-0.234
		c0-2.022,0-4.047,0-6.069C81.959,14.41,78.645,14.853,75.918,14.708z M4.201,25.447c0,2.1,0,4.201,0,6.302c2.794,0,5.589,0,8.383,0
		c0-2.101,0-4.202,0-6.302C9.79,25.447,6.995,25.447,4.201,25.447z M75.918,25.447c0,2.1,0,4.201,0,6.302c2.794,0,5.589,0,8.382,0
		c0-2.101,0-4.202,0-6.302C81.507,25.447,78.712,25.447,75.918,25.447z M4.201,35.951c0,2.102,0,4.203,0,6.305
		c2.794,0,5.589,0,8.383,0c0-2.103,0-4.204,0-6.305C9.79,35.951,6.995,35.951,4.201,35.951z M4.201,46.456c0,2.103,0,4.202,0,6.306
		c2.794,0,5.589,0,8.383,0c0-2.104,0-4.203,0-6.306C9.79,46.456,6.995,46.456,4.201,46.456z M4.201,56.961c0,2.102,0,4.202,0,6.305
		c2.794,0,5.589,0,8.383,0c0-2.103,0-4.203,0-6.305C9.79,56.961,6.995,56.961,4.201,56.961z M4.201,67.701c0,2.022,0,4.045,0,6.068
		c2.342,0.532,5.656,0.089,8.383,0.234c0-2.179,0-4.359,0-6.536C9.857,67.613,6.543,67.169,4.201,67.701z M4.201,78.206
		c0,2.1,0,4.203,0,6.303c2.794,0,5.589,0,8.383,0c0-2.1,0-4.203,0-6.303C9.79,78.206,6.995,78.206,4.201,78.206z"/>
	<path fill-rule="evenodd" clip-rule="evenodd" fill="#F7941E" d="M96.875,89.18c0,0.621,0,1.242,0,1.865
		c-1.39,2.654-3.407,4.677-6.054,6.071c-0.622,0-1.243,0-1.863,0c-1.934-1.01-4.613-3.545-6.754-5.604
		c-5.464-5.255-10.69-10.2-15.833-14.939c-1.097-1.013-2.114-2.473-3.026-2.335c-1.504,2.695-2.204,6.196-3.726,8.871
		c-1.267-3.867-2.983-7.279-4.191-11.205c-3.906,1.607-7.27,3.762-11.177,5.369c1.549-3.816,3.31-7.419,4.89-11.206
		c-3.736-1.467-8.009-2.398-11.643-3.969c3.795-1.488,7.529-3.035,11.409-4.435c-1.491-3.876-4.152-7.821-5.354-11.207
		c3.907,1.529,7.407,3.468,11.408,4.902c1.192-4.019,2.379-8.042,3.959-11.671c1.312,3.9,2.941,7.479,4.191,11.44
		c4.103-1.337,7.782-4.339,11.41-5.371c-1.711,3.811-3.581,7.46-5.124,11.438c3.938,1.111,7.811,2.287,11.409,3.735
		c-2.854,1.263-5.601,2.634-8.615,3.735c3.504,4.15,7.997,7.551,12.342,11.907C88.024,80.07,94.207,85.226,96.875,89.18z
		 M57.059,57.194c-1.279-0.896-2.994-1.355-4.425-2.1c0.492,1.84,1.731,2.933,2.096,4.902c-1.702,0.472-3.364,0.985-4.656,1.868
		c1.625,0.625,3.65,0.851,4.888,1.866c-0.715,1.309-1.982,3.298-1.861,4.67c1.316-0.937,2.977-1.529,4.423-2.335
		c0.818,1.749,1.292,3.843,2.328,5.369c1.463-3.748,1.938-8.484,6.985-8.636c0.367-0.88,1.779-0.711,2.328-1.404
		c-1.856-0.704-4.118-1.005-5.586-2.1c0.851-1.326,1.42-2.934,2.095-4.436c-1.835,0.494-2.925,1.735-4.891,2.101
		c-0.506-1.67-0.932-3.424-1.862-4.668C58.296,53.923,58.069,55.953,57.059,57.194z M74.056,72.602
		c-1.936-1.841-4.251-4.673-6.521-5.602c-1.076-0.44-2.287,0.897-2.328,1.868c-0.068,1.647,4.562,5.367,5.588,6.303
		c6.723,6.12,12.823,11.608,18.861,17.509c1.221-0.645,2.153-1.577,2.793-2.801C87.076,84.907,79.774,78.043,74.056,72.602z"/>
	<path fill-rule="evenodd" clip-rule="evenodd" fill="#F7941E" d="M28.417,65.6c0.844,1.489,1.307,3.359,2.096,4.902
		c1.479,0.929,3.218,1.597,5.123,2.1c-1.257,1.232-3.422,1.552-5.123,2.336c-0.515,1.818-1.46,3.206-1.863,5.136
		c-1.122-1.366-1.429-3.548-2.328-5.136c-1.542-0.867-3.793-1.022-4.891-2.336C25.52,72.029,27.556,69.405,28.417,65.6z"/>
	<path fill-rule="evenodd" clip-rule="evenodd" fill="#F7941E" d="M48.018,25.196c0.654,1.154,1.014,2.604,1.624,3.8
		c1.147,0.721,2.495,1.238,3.972,1.628c-0.974,0.955-2.653,1.203-3.972,1.811c-0.398,1.409-1.131,2.484-1.442,3.98
		c-0.871-1.059-1.108-2.75-1.805-3.98c-1.195-0.672-2.941-0.792-3.792-1.811C45.771,30.181,47.35,28.146,48.018,25.196z"/>
</g>
</svg>
