<?xml version="1.0" encoding="utf-8"?>
<!-- Generator: Adobe Illustrator 14.0.0, SVG Export Plug-In . SVG Version: 6.00 Build 43363)  -->
<!DOCTYPE svg PUBLIC "-//W3C//DTD SVG 1.1//EN" "http://www.w3.org/Graphics/SVG/1.1/DTD/svg11.dtd">
<svg version="1.1" id="Layer_1" xmlns="http://www.w3.org/2000/svg" xmlns:xlink="http://www.w3.org/1999/xlink" x="0px" y="0px"
	 width="97.409px" height="98.255px" viewBox="0 0 97.409 98.255" enable-background="new 0 0 97.409 98.255" xml:space="preserve">
<g>
	<g>
		<path fill-rule="evenodd" clip-rule="evenodd" fill="#FFCB05" d="M6.687,84.829c-7.635-0.088-6.464-9.512-6.464-18.369
			c0-10.892,0-21.98,0-33.169c0-8.548-1.365-18.428,6.634-18.541c19.98,0,41.058,0,61.575,0c2.926,0,6.171-0.446,8.675,0
			c0.421,0.074,0.22,0.065,0.171,0.34c-1.868,1.705-2.587,4.558-5.104,5.615c-0.793,0-1.588,0-2.382,0c-17.689,0-36.748,0-55.281,0
			c-2.668,0-6.134-0.263-7.655,0.338c-0.298,0.156-0.591,0.316-0.511,0.851c-0.283,15.194-0.283,31.582,0,46.778
			c0.096,0.414,0.146,0.874,0.681,0.852c25.515,0.396,51.766,0.056,77.564,0.17c0.644,0.018,0.916-0.334,1.021-0.853
			c0.397-6.918,0.057-14.571,0.172-21.771c0.395-1.42,0.057-3.572,0.169-5.274c1.583-3.18,3.887-5.638,5.784-8.505
			c0,15.196,0,30.391,0,45.586c-0.657,3.37-2.668,5.385-6.125,5.952c-10.205,0.115-20.864-0.225-30.787,0.172
			c0.093,0.248-0.198,0.879,0.17,0.851c0.538,2.849,1.52,4.376,3.913,5.613c1.542,0.797,4.771,0.662,5.272,2.211
			c0,0.737,0,1.476,0,2.212c-0.067,0.783-0.619,1.082-1.361,1.19c-11.169,0-22.339,0-33.509,0c-0.935,0.026-1.241-0.574-1.53-1.19
			c0-0.681,0-1.361,0-2.042c0.639-1.658,4.457-1.936,6.293-3.062c2.234-1.37,2.716-2.623,3.062-5.612
			c-0.127-0.574-5.128-0.343-7.314-0.343C22.452,84.829,13.087,84.829,6.687,84.829z M47,80.749c2.729-0.615,3.144-4.559,1.02-6.125
			C42.402,70.487,40.165,82.283,47,80.749z"/>
		<path fill-rule="evenodd" clip-rule="evenodd" fill="#FFCB05" d="M69.792,20.874c0-0.056,0-0.113,0-0.169c0.794,0,1.589,0,2.382,0
			C71.715,21.095,70.534,20.763,69.792,20.874z"/>
		<path fill-rule="evenodd" clip-rule="evenodd" fill="#FFCB05" d="M6.346,21.894c0,15.593,0,31.185,0,46.778
			C6.063,53.476,6.063,37.088,6.346,21.894z"/>
		<path fill-rule="evenodd" clip-rule="evenodd" fill="#FFCB05" d="M22.846,26.997c14.799-0.282,30.787-0.282,45.586,0
			C53.236,26.997,38.042,26.997,22.846,26.997z"/>
		<path fill-rule="evenodd" clip-rule="evenodd" fill="#FFCB05" d="M21.655,37.203c-0.283-2.496-0.283-6.179,0-8.674
			C21.655,31.421,21.655,34.312,21.655,37.203z"/>
		<path fill-rule="evenodd" clip-rule="evenodd" fill="#FFCB05" d="M91.736,33.291c0.282,14.799,0.282,30.789,0,45.586
			C91.736,63.682,91.736,48.486,91.736,33.291z"/>
		<path fill-rule="evenodd" clip-rule="evenodd" fill="#FFCB05" d="M22.846,39.075c12.19,0,24.38,0,36.57,0
			C48.389,39.355,34.538,39.357,22.846,39.075z"/>
		<path fill-rule="evenodd" clip-rule="evenodd" fill="#FFCB05" d="M85.783,46.899c0.111-1.647-0.226-3.742,0.169-5.104
			c-0.112,1.702,0.226,3.854-0.169,5.274C85.783,47.014,85.783,46.955,85.783,46.899z"/>
		<path fill-rule="evenodd" clip-rule="evenodd" fill="#FFCB05" d="M22.846,42.307c3.856-0.284,8.901-0.284,12.757,0
			C31.351,42.307,27.098,42.307,22.846,42.307z"/>
		<path fill-rule="evenodd" clip-rule="evenodd" fill="#FFCB05" d="M41.046,42.307c4.538-0.286,11.168-0.282,15.139,0
			C51.139,42.307,46.093,42.307,41.046,42.307z"/>
		<path fill-rule="evenodd" clip-rule="evenodd" fill="#FFCB05" d="M40.025,42.647c0,0.679,0,1.36,0,2.042
			C39.744,44.394,39.744,42.939,40.025,42.647z"/>
		<path fill-rule="evenodd" clip-rule="evenodd" fill="#FFCB05" d="M21.655,43.326c0,6.351,0,12.7,0,19.052
			C21.372,56.424,21.372,49.28,21.655,43.326z"/>
		<path fill-rule="evenodd" clip-rule="evenodd" fill="#FFCB05" d="M36.794,43.326c0.282,5.954,0.282,13.098,0,19.052
			C36.794,56.026,36.794,49.677,36.794,43.326z"/>
		<path fill-rule="evenodd" clip-rule="evenodd" fill="#FFCB05" d="M50.741,45.198c0.797-0.394,2.323-0.059,3.402-0.169
			C53.348,45.422,51.821,45.087,50.741,45.198z"/>
		<path fill-rule="evenodd" clip-rule="evenodd" fill="#FFCB05" d="M40.366,48.43c3.913-0.285,9.014-0.285,12.928,0
			C48.984,48.43,44.675,48.43,40.366,48.43z"/>
		<path fill-rule="evenodd" clip-rule="evenodd" fill="#FFCB05" d="M41.216,51.321c1.023-0.283,3.23-0.283,4.253,0
			C44.051,51.321,42.634,51.321,41.216,51.321z"/>
		<path fill-rule="evenodd" clip-rule="evenodd" fill="#FFCB05" d="M45.979,51.321c0.294-0.281,1.748-0.281,2.042,0
			C47.339,51.321,46.66,51.321,45.979,51.321z"/>
		<path fill-rule="evenodd" clip-rule="evenodd" fill="#FFCB05" d="M50.231,51.321c0.35-0.281,1.863-0.281,2.211,0
			C51.706,51.321,50.969,51.321,50.231,51.321z"/>
		<path fill-rule="evenodd" clip-rule="evenodd" fill="#FFCB05" d="M57.546,54.383c0.106-0.518-0.218-1.464,0.169-1.701
			C57.609,53.199,57.934,54.146,57.546,54.383z"/>
		<path fill-rule="evenodd" clip-rule="evenodd" fill="#FFCB05" d="M40.025,56.936c-0.282-0.294-0.282-1.749,0-2.042
			C40.025,55.572,40.025,56.254,40.025,56.936z"/>
		<path fill-rule="evenodd" clip-rule="evenodd" fill="#FFCB05" d="M40.536,57.446c3.516,0,7.031,0,10.545,0
			C47.963,57.729,43.655,57.729,40.536,57.446z"/>
		<path fill-rule="evenodd" clip-rule="evenodd" fill="#FFCB05" d="M41.046,60.506c2.439-0.282,6.065-0.282,8.506,0
			C46.717,60.506,43.881,60.506,41.046,60.506z"/>
		<path fill-rule="evenodd" clip-rule="evenodd" fill="#FFCB05" d="M40.025,63.059c-0.282-0.294-0.282-1.748,0-2.042
			C40.025,61.697,40.025,62.378,40.025,63.059z"/>
		<path fill-rule="evenodd" clip-rule="evenodd" fill="#FFCB05" d="M26.248,63.569c0.348-0.282,1.862-0.282,2.211,0
			C27.722,63.569,26.984,63.569,26.248,63.569z"/>
		<path fill-rule="evenodd" clip-rule="evenodd" fill="#FFCB05" d="M30.67,63.569c0.349-0.282,1.863-0.282,2.211,0
			C32.145,63.569,31.408,63.569,30.67,63.569z"/>
		<path fill-rule="evenodd" clip-rule="evenodd" fill="#FFCB05" d="M64.18,93.676c0.281,0.351,0.281,1.861,0,2.212
			C64.18,95.151,64.18,94.413,64.18,93.676z"/>
		<path fill-rule="evenodd" clip-rule="evenodd" fill="#FFCB05" d="M27.779,93.846c0,0.681,0,1.361,0,2.042
			C27.496,95.593,27.496,94.139,27.779,93.846z"/>
		<path fill-rule="evenodd" clip-rule="evenodd" fill="#FFCB05" d="M62.818,97.078c-10.772,0.283-22.736,0.283-33.509,0
			C40.479,97.078,51.649,97.078,62.818,97.078z"/>
		<path fill-rule="evenodd" clip-rule="evenodd" fill="#FFCB05" d="M86.973,12.369c1.006-1.148,2.084-2.226,3.231-3.231
			C89.198,10.285,88.12,11.363,86.973,12.369z"/>
		<path fill-rule="evenodd" clip-rule="evenodd" fill="#FFCB05" d="M86.121,13.389c0.177-0.447,0.675-0.572,0.852-1.021
			c1.147-1.006,2.226-2.084,3.231-3.231c0.224-0.06,0.268-0.301,0.511-0.34C89.255,10.399,87.725,11.931,86.121,13.389z"/>
		<path fill-rule="evenodd" clip-rule="evenodd" fill="#FFCB05" d="M90.715,8.797c1.58-0.837,3.386-3.576,5.443-2.891
			c2.77,0.921,0.204,6.183-0.682,8.164c-3.445,7.729-8.644,15.36-12.927,21.263c-2.168-0.365-4.138-1.063-5.784-2.381
			c-0.934-0.75-2.858-2.92-2.891-3.913c-0.031-0.965,1.943-3.232,2.722-4.254c2.959-3.887,6.764-8.305,9.524-11.396
			C87.725,11.931,89.255,10.399,90.715,8.797z"/>
		<path fill-rule="evenodd" clip-rule="evenodd" fill="#FFCB05" d="M37.134,85.172c-9.752-0.512-20.695,0.169-30.447-0.343
			c6.4,0,15.765,0,23.133,0C32.006,84.829,37.006,84.598,37.134,85.172z"/>
		<path fill-rule="evenodd" clip-rule="evenodd" fill="#FFCB05" d="M54.994,85.852c-0.368,0.028-0.077-0.603-0.17-0.851
			c9.923-0.396,20.582-0.057,30.787-0.172c-4.876,0.398-10.488,0.058-15.648,0.172c-2.608,0-5.216,0-7.824,0
			c-1.305,0-2.607,0-3.913,0C57.183,85.318,54.729,84.226,54.994,85.852z"/>
		<path fill-rule="evenodd" clip-rule="evenodd" fill="#FFCB05" d="M6.856,21.043c1.521-0.602,4.986-0.338,7.655-0.338
			c18.533,0,37.591,0,55.281,0c0,0.056,0,0.113,0,0.169C48.87,20.988,27.496,20.646,6.856,21.043z"/>
		<path fill-rule="evenodd" clip-rule="evenodd" fill="#FFCB05" d="M6.856,14.75c22.991-0.171,47.774-0.509,70.761,0.171
			c-0.138,0.032-0.169,0.169-0.34,0.169c0.049-0.275,0.25-0.266-0.171-0.34c-2.504-0.446-5.749,0-8.675,0
			C47.914,14.75,26.837,14.75,6.856,14.75z"/>
		<path fill-rule="evenodd" clip-rule="evenodd" fill="#FFCB05" d="M68.942,56.254c-0.897,1.258-1.928,2.382-3.232,3.232
			c0.999-1.101,2.197-2,3.063-3.232C68.829,56.254,68.886,56.254,68.942,56.254z"/>
		<path fill-rule="evenodd" clip-rule="evenodd" fill="#FFCB05" d="M77.617,41.286c0.235-0.502,0.785-0.69,1.021-1.191
			c0.191-0.036,0.266-0.19,0.341-0.34C81.063,37.91,78.455,40.666,77.617,41.286z"/>
		<path fill-rule="evenodd" clip-rule="evenodd" fill="#FFCB05" d="M57.715,52.682c0.782-6.249,4.142-9.921,10.207-10.886
			c0.728-3.524,1.84-6.664,3.402-9.355c2.051,2.884,4.431,5.435,8.504,6.295c-0.175,0.446-0.674,0.57-0.85,1.02
			c-0.075,0.15-0.149,0.305-0.341,0.34c-0.639,0.495-1.205,1.063-1.701,1.7c-1.432,1.178-2.949,2.268-4.763,3.062
			c1.405,4.632-1.141,8.678-3.231,11.396c-0.057,0-0.113,0-0.169,0c-0.866,1.232-2.064,2.132-3.063,3.232
			c-2.435,2.361-7.971,4.79-12.076,2.381c-0.171-1.609,1.481-1.979,2.211-2.892c0.961-1.204,1.356-2.624,1.701-4.593
			C57.934,54.146,57.609,53.199,57.715,52.682z"/>
		<path fill-rule="evenodd" clip-rule="evenodd" fill="#FFCB05" d="M76.937,41.795c0.496-0.637,1.063-1.205,1.701-1.7
			c-0.235,0.501-0.785,0.689-1.021,1.191C77.271,41.336,77.284,41.746,76.937,41.795z"/>
		<path fill-rule="evenodd" clip-rule="evenodd" fill="#FFCB05" d="M56.185,42.307c-0.523,1.064-0.967,2.208-2.041,2.722
			c-1.079,0.111-2.605-0.225-3.402,0.169c-3.466-0.106-7.361,0.217-10.545-0.169c-0.033-0.138-0.171-0.171-0.171-0.34
			c0-0.682,0-1.362,0-2.042c0.033-0.139,0.171-0.17,0.171-0.34c0.283,0,0.566,0,0.85,0C46.093,42.307,51.139,42.307,56.185,42.307z"
			/>
		<path fill-rule="evenodd" clip-rule="evenodd" fill="#FFCB05" d="M53.123,55.572c-0.191,1.114-0.893,1.717-2.042,1.874
			c-3.515,0-7.03,0-10.545,0c-0.113,0-0.226,0-0.339,0c-0.09-0.138-0.178-0.278-0.171-0.511c0-0.682,0-1.363,0-2.042
			c0-0.113,0-0.226,0-0.339c0.275,0.046,0.293-0.161,0.51-0.172c4.196,0,8.392,0,12.587,0C53.123,54.78,53.123,55.177,53.123,55.572
			z"/>
		<path fill-rule="evenodd" clip-rule="evenodd" fill="#FFCB05" d="M40.536,54.383c1.896-0.296,6.386-0.17,9.525-0.17
			c1.777,0,4.037-0.479,3.063,1.359c0-0.396,0-0.792,0-1.189C48.928,54.383,44.731,54.383,40.536,54.383z"/>
		<path fill-rule="evenodd" clip-rule="evenodd" fill="#FFCB05" d="M53.294,48.43c0.043,1.122-0.065,2.088-0.34,2.892
			c-0.172,0-0.342,0-0.512,0c-0.348-0.281-1.861-0.281-2.211,0c-0.736,0-1.475,0-2.211,0c-0.294-0.281-1.747-0.281-2.042,0
			c-0.17,0-0.34,0-0.51,0c-1.023-0.283-3.23-0.283-4.253,0c-0.419,0.024-0.818,0.024-1.02-0.17
			c-0.486-0.553-0.536-2.376,0.169-2.722C44.675,48.43,48.984,48.43,53.294,48.43z"/>
		<path fill-rule="evenodd" clip-rule="evenodd" fill="#FFCB05" d="M85.611,68.841c0.113-7.258-0.226-14.968,0.172-21.942
			c0,0.056,0,0.115,0,0.171C85.668,54.27,86.009,61.923,85.611,68.841z"/>
		<path fill-rule="evenodd" clip-rule="evenodd" fill="#FFCB05" d="M7.027,69.523c25.798,0.111,52.049-0.228,77.564,0.17
			C58.793,69.579,32.542,69.92,7.027,69.523z"/>
		<path fill-rule="evenodd" clip-rule="evenodd" fill="#FFCB05" d="M21.655,28.529c-0.084-0.992,0.274-1.542,1.19-1.533
			c15.196,0,30.391,0,45.586,0c-1.963,3.142-3.183,7.022-4.423,10.887c-1.138,0.791-2.902,0.951-4.593,1.191
			c-12.19,0-24.38,0-36.57,0c-0.889-0.132-1.304-0.738-1.19-1.872C21.655,34.312,21.655,31.421,21.655,28.529z"/>
		<path fill-rule="evenodd" clip-rule="evenodd" fill="#FFCB05" d="M21.655,43.326c0.159-0.576,0.421-1.051,1.19-1.02
			c4.252,0,8.505,0,12.757,0c0.751-0.014,1.113,0.362,1.191,1.02c0,6.351,0,12.7,0,19.052c-0.138,1.563-2.268,1.135-3.913,1.191
			c-0.349-0.282-1.862-0.282-2.211,0c-0.737,0-1.474,0-2.211,0c-0.349-0.282-1.863-0.282-2.211,0
			c-1.789-0.141-4.406,0.549-4.593-1.191C21.655,56.026,21.655,49.677,21.655,43.326z"/>
		<path fill-rule="evenodd" clip-rule="evenodd" fill="#FFCB05" d="M41.046,60.506c2.835,0,5.671,0,8.506,0
			c0.208,0.982,0.387,1.994,0.509,3.063c-2.847-0.302-8.441,0.618-10.035-0.511c0-0.681,0-1.361,0-2.042
			C40.01,60.49,40.54,60.51,41.046,60.506z"/>
	</g>
</g>
</svg>
